<svg xmlns="http://www.w3.org/2000/svg" width="38.853" height="38.855" viewBox="0 0 38.853 38.855">
  <g id="Group_165807" data-name="Group 165807" transform="translate(-7 -6.998)">
    <path id="Path_238126" data-name="Path 238126" d="M189.312,184.728h3.564l-2.848,6.479m-7.394-1.912h-4.069s2.154-3.9,2.51-4.341.7-.166.732.223-.016,6.03-.016,6.03m-4.279.048s-3.152.04-3.3-.01.239-.313,2.306-3.266a4.17,4.17,0,0,0,.689-1.407l.032-.251a1.658,1.658,0,0,0-3.285-.321m13.142-1.273-2.6,6.542" transform="translate(-153.775 -163.673)" fill="none" stroke="#ff5b84" stroke-linecap="round" stroke-linejoin="round" stroke-width="1"/>
    <path id="Path_238127" data-name="Path 238127" d="M8.784,148.284a12.368,12.368,0,0,1-1.248-6.049,2.12,2.12,0,0,1,.621-1.293l2.87-2.87a1.9,1.9,0,0,1,2.873.209l3.242,4.309a1.142,1.142,0,0,1-.119,1.508l-2.1,2.032a.762.762,0,0,0-.117.95h0a34.513,34.513,0,0,0,11.078,11.078h0a.762.762,0,0,0,.95-.117l2.032-2.1a1.143,1.143,0,0,1,1.508-.119l4.309,3.242a1.9,1.9,0,0,1,.209,2.873l-2.87,2.87a2.169,2.169,0,0,1-1.344.626c-6.916.609-15.336-7.811-15.336-7.811a38.741,38.741,0,0,1-5.36-7.011" transform="translate(0 -120.113)" fill="none" stroke="#ff5b84" stroke-linecap="round" stroke-linejoin="round" stroke-width="1"/>
    <path id="Path_238128" data-name="Path 238128" d="M111.443,44.693A14.24,14.24,0,1,1,125.7,68.727M107.5,50.59a14.141,14.141,0,0,1,2.239-4.08" transform="translate(-92.383 -31.009)" fill="none" stroke="#ff5b84" stroke-linecap="round" stroke-linejoin="round" stroke-width="1"/>
    <path id="Path_238129" data-name="Path 238129" d="M110.764,13.234a16.808,16.808,0,0,1-5.771,26.393M82.8,17.4a16.808,16.808,0,0,1,26.154-5.942" transform="translate(-69.568 0)" fill="none" stroke="#ff5b84" stroke-linecap="round" stroke-linejoin="round" stroke-width="1"/>
  </g>
</svg>
