<svg xmlns="http://www.w3.org/2000/svg" width="42.641" height="34.178" viewBox="0 0 42.641 34.178">
  <g id="Group_165806" data-name="Group 165806" transform="translate(0 -50.527)">
    <path id="Path_238123" data-name="Path 238123" d="M195.286,156.484a11.725,11.725,0,1,0-11.725-11.725A11.738,11.738,0,0,0,195.286,156.484Zm-8.73-12.353h-1.719a10.426,10.426,0,0,1,2.62-6.313l1.212,1.212a.628.628,0,0,0,.888-.888l-1.212-1.212a10.426,10.426,0,0,1,6.313-2.62v1.719a.628.628,0,1,0,1.256,0V134.31a10.426,10.426,0,0,1,6.313,2.62l-1.212,1.212a.628.628,0,0,0,.888.888l1.212-1.212a10.426,10.426,0,0,1,2.62,6.313h-1.719a.628.628,0,1,0,0,1.256h1.719a10.426,10.426,0,0,1-2.62,6.313l-1.212-1.212a.628.628,0,1,0-.888.888l1.212,1.212a10.426,10.426,0,0,1-6.313,2.62v-1.719a.628.628,0,0,0-1.256,0v1.719a10.426,10.426,0,0,1-6.313-2.62l1.212-1.212a.628.628,0,0,0-.888-.888l-1.212,1.212a10.426,10.426,0,0,1-2.62-6.313h1.719a.628.628,0,1,0,0-1.256Z" transform="translate(-168.188 -75.597)" fill="#23aabc"/>
    <path id="Path_238124" data-name="Path 238124" d="M161.135,81.251A14.288,14.288,0,0,1,142.2,60.438a.628.628,0,0,0-.994-.768,15.4,15.4,0,0,0-3.233,9.491,15.545,15.545,0,0,0,23.829,13.152.628.628,0,1,0-.671-1.062Zm-3.828-27.164V51.706a1.18,1.18,0,0,0-1.179-1.179h-5.219a1.18,1.18,0,0,0-1.179,1.179v2.38a15.494,15.494,0,0,0-6.744,3.645.628.628,0,1,0,.852.924,14.286,14.286,0,1,1,19.235,21.129.628.628,0,1,0,.84.934,15.544,15.544,0,0,0-6.606-26.631Zm-6.32-.262V51.783h5.064v2.043a15.608,15.608,0,0,0-5.064,0Z" transform="translate(-126.421 0)" fill="#23aabc"/>
    <path id="Path_238125" data-name="Path 238125" d="M27.1,188.113a.628.628,0,0,0,.548-.322l2.167-2.167a.628.628,0,1,0-.888-.888l-1.2,1.2v-3.059a.628.628,0,1,0-1.256,0v4.609a.628.628,0,0,0,.628.628Zm-17.829-.3a.628.628,0,0,0-.628-.628H.628a.628.628,0,0,0,0,1.256H8.641A.628.628,0,0,0,9.269,187.815Zm-6.136-3.03H9.478a.628.628,0,1,0,0-1.256H3.133a.628.628,0,1,0,0,1.256Zm7.182-4.914h-5.2a.628.628,0,1,0,0,1.256h5.2a.628.628,0,1,0,0-1.256Zm-.209,11.319a.628.628,0,0,0-.628-.628H3.133a.628.628,0,0,0,0,1.256H9.478a.628.628,0,0,0,.628-.628Zm.209,3.03h-5.2a.628.628,0,1,0,0,1.256h5.2a.628.628,0,1,0,0-1.256Z" transform="translate(0 -118.512)" fill="#23aabc"/>
  </g>
</svg>
