<svg xmlns="http://www.w3.org/2000/svg" width="78.367" height="80" viewBox="0 0 78.367 80">
  <g id="Group_163758" data-name="Group 163758" transform="translate(-5.106 0)">
    <circle id="Ellipse_198" data-name="Ellipse 198" cx="39.183" cy="39.183" r="39.183" transform="translate(5.106 1.634)" fill="#35528c"/>
    <path id="Path_234710" data-name="Path 234710" d="M128.428,20.583a13.739,13.739,0,0,1,27.477.067l-.031,12.828,6.877.017.031-12.828a20.616,20.616,0,0,0-41.232-.1l-.031,12.828,6.877.017Z" transform="translate(-97.796 0)" fill="#fec753"/>
    <path id="Path_234711" data-name="Path 234711" d="M155.855,33.466l.012-5.775,6.877.014-.012,5.775ZM142.292.49a.248.248,0,0,0-.048-.49h-.023a20.6,20.6,0,0,0-20.665,20.554l-.014,5.659-.017,6.933a.248.248,0,0,0,.248.249l4.3.01,2.085.005a.248.248,0,0,0,.249-.248l.016-6.684a.248.248,0,0,0-.248-.249,2.085,2.085,0,0,1-2.08-2.09l.009-3.562A20.65,20.65,0,0,1,142.292.49Z" transform="translate(-97.799 0)" fill="#e0a336"/>
    <path id="Path_234712" data-name="Path 234712" d="M125.839,190.581l-52.465-.127a2.4,2.4,0,0,0-2.4,2.393l-.052,21.444-.032,13.233a39.175,39.175,0,0,0,57.263.066l.027-11.189.057-23.416a2.4,2.4,0,0,0-2.393-2.4Z" transform="translate(-55.26 -159.994)" fill="#ef3a50"/>
    <path id="Path_234713" data-name="Path 234713" d="M125.839,190.581l-52.465-.127a2.4,2.4,0,0,0-2.4,2.393l-.052,21.444-.032,13.233a39.175,39.175,0,0,0,57.263.066l.027-11.189.057-23.416a2.4,2.4,0,0,0-2.393-2.4Z" transform="translate(-55.26 -159.994)" fill="#fe5d6d"/>
    <path id="Path_234714" data-name="Path 234714" d="M82.555,192.875a2.4,2.4,0,0,1,2.4-2.393l-11.585-.028a2.4,2.4,0,0,0-2.4,2.393l-.052,21.444-.032,13.233a39.3,39.3,0,0,0,11.565,8.549l.053-21.754Z" transform="translate(-55.26 -159.994)" fill="#d33c60"/>
    <circle id="Ellipse_199" data-name="Ellipse 199" cx="3.868" cy="3.868" r="3.868" transform="translate(61.709 58.903)" fill="#ff8395"/>
    <circle id="Ellipse_200" data-name="Ellipse 200" cx="2.281" cy="2.281" r="2.281" transform="translate(57.199 66.557)" fill="#ff8395"/>
    <path id="Path_234715" data-name="Path 234715" d="M226.514,288.238a5.278,5.278,0,1,0-9.484,3.174,3.44,3.44,0,0,1,.718,2.086l-.014,5.781a2.074,2.074,0,0,0,2.063,2.073l2.944.007a2.074,2.074,0,0,0,2.073-2.063l.014-5.952a3.421,3.421,0,0,1,.671-2.009A5.248,5.248,0,0,0,226.514,288.238Z" transform="translate(-177.131 -237.695)" fill="#1f3a60"/>
    <path id="Path_234716" data-name="Path 234716" d="M220.293,299.279l.014-5.781a3.44,3.44,0,0,0-.718-2.086,5.276,5.276,0,0,1,2.928-8.307,5.279,5.279,0,0,0-6.548,4.783,5.256,5.256,0,0,0,1.061,3.524,3.44,3.44,0,0,1,.718,2.086l-.014,5.781a2.074,2.074,0,0,0,2.063,2.073l2.944.007c.041,0,.081,0,.121-.006h-.507A2.074,2.074,0,0,1,220.293,299.279Z" transform="translate(-177.131 -237.695)" fill="#35528c"/>
  </g>
</svg>
