<svg xmlns="http://www.w3.org/2000/svg" width="33.232" height="33.352" viewBox="0 0 33.232 33.352">
  <g id="Group_165804" data-name="Group 165804" transform="translate(-0.917)">
    <path id="Path_238120" data-name="Path 238120" d="M31.045,36.389h-5.97v-1.96a.488.488,0,1,0-.977,0v1.96H22.075a.488.488,0,0,0,0,.977H24.1v2.068h-.366a.929.929,0,0,0-.928.928V46.11a.929.929,0,0,0,.928.928H24.1v3.874a.488.488,0,0,0,.977,0V47.038h.366a.929.929,0,0,0,.928-.928V40.361a.929.929,0,0,0-.928-.928h-.366V37.366h5.97a2.13,2.13,0,0,1,2.128,2.128V56.206H1.894V39.494a2.13,2.13,0,0,1,2.128-2.128h8.559v.953h-.366a.929.929,0,0,0-.928.928v5.748a.929.929,0,0,0,.928.928h.366v4.315a.488.488,0,1,0,.977,0V45.923h.366a.929.929,0,0,0,.928-.928V39.247a.929.929,0,0,0-.928-.928h-.366v-.953H15.58a.488.488,0,1,0,0-.977H13.557v-.241a.488.488,0,0,0-.977,0v.241H4.021a3.108,3.108,0,0,0-3.1,3.1v17.2a3.108,3.108,0,0,0,3.1,3.1h7.433v2.483L9.881,64.107H9.256a.488.488,0,0,0,0,.977H25.765a.488.488,0,0,0,0-.977h-.58l-1.574-1.826V59.8h7.433a3.108,3.108,0,0,0,3.1-3.1v-17.2a3.108,3.108,0,0,0-3.1-3.1Zm-5.653,9.672H23.78V40.41h1.612v5.651ZM13.875,44.946H12.263V39.3h1.612Zm17.17,13.875H21.163a.488.488,0,1,0,0,.977h1.473v2.176H21.419a.488.488,0,1,0,0,.977H22.9l1,1.156H11.17l1-1.156h1.481a.488.488,0,1,0,0-.977H12.431V59.8h6.651a.488.488,0,1,0,0-.977H4.021a2.131,2.131,0,0,1-2.071-1.64H33.116A2.131,2.131,0,0,1,31.045,58.822Z" transform="translate(0 -31.731)" fill="#ff5b84"/>
    <path id="Path_238121" data-name="Path 238121" d="M46.908,14.256a.488.488,0,0,0-.488.488v1.179a.929.929,0,0,0,.928.928h.366v2.6a.488.488,0,1,0,.977,0v-2.6h.366a.929.929,0,0,0,.928-.928V10.174a.929.929,0,0,0-.928-.928h-.366V8.465a.488.488,0,1,0-.977,0v.781h-.366a.929.929,0,0,0-.928.928v2.489a.488.488,0,0,0,.977,0v-2.44h1.613v5.651H47.4v-1.13a.488.488,0,0,0-.488-.488Zm11.957-1.03h.367v2.6a.488.488,0,0,0,.977,0v-2.6h.366A.929.929,0,0,0,61.5,12.3V8.467a.488.488,0,1,0-.977,0v3.781H58.914V3.407h1.612V6.387a.488.488,0,1,0,.977,0V3.359a.929.929,0,0,0-.928-.928h-.366V.488a.488.488,0,0,0-.977,0V2.431h-.367a.929.929,0,0,0-.928.928V12.3A.929.929,0,0,0,58.865,13.225Zm9.431.161a.488.488,0,0,0,.662.2l2.249-1.213-.162.425a.488.488,0,1,0,.913.348l.55-1.443a.488.488,0,0,0-.282-.63l-1.532-.584a.488.488,0,1,0-.348.913l.355.135-2.207,1.19a.488.488,0,0,0-.2.662ZM44.7,22.927a.488.488,0,0,0,.641.257l6.3-2.7.573,1.5a.488.488,0,0,0,.688.256l10.409-5.612a.488.488,0,1,0-.463-.86l-9.92,5.348-.555-1.455a.488.488,0,0,0-.648-.275l-6.768,2.9A.488.488,0,0,0,44.7,22.927Z" transform="translate(-40.892)" fill="#ff5b84"/>
  </g>
</svg>
