<svg xmlns="http://www.w3.org/2000/svg" width="48.18" height="48.004" viewBox="0 0 48.18 48.004">
  <path id="Path_239662" data-name="Path 239662" d="M1039.41,30.7a26.032,26.032,0,0,0-21.176-21.185.977.977,0,0,0-.16-.018.948.948,0,0,0-.151,1.883A24.1,24.1,0,0,1,1037.54,31a.943.943,0,0,0,.932.781,1.492,1.492,0,0,0,.177-.018.92.92,0,0,0,.763-1.047l.284-.071Zm-21.567-12.328a.972.972,0,0,0-1.1.781.935.935,0,0,0,.754,1.083l-.062.444.08-.435a13.739,13.739,0,0,1,11.174,11.174.934.934,0,0,0,.923.79c.053-.009.124-.009.186-.018a.943.943,0,0,0,.6-.382.971.971,0,0,0,.169-.71V31.09a15.666,15.666,0,0,0-12.727-12.718m17.174,26.98-5.689-5.724a4.4,4.4,0,0,0-3.168-1.447,4.547,4.547,0,0,0-3.2,1.447l-3.506,3.5-.293-.16c-.257-.142-.524-.275-.79-.4-.391-.2-.746-.382-1.056-.568a35.843,35.843,0,0,1-8.6-7.846,21.258,21.258,0,0,1-2.84-4.482l-.142-.293.24-.222c.746-.675,1.438-1.385,2.112-2.068l1.145-1.145a4.339,4.339,0,0,0,1.482-2.964,4.263,4.263,0,0,0-1.047-3.115,4.626,4.626,0,0,0-.417-.417l-2.84-2.831c-.32-.328-.657-.657-.967-.985-.6-.63-1.26-1.287-1.917-1.9a4.473,4.473,0,0,0-3.168-1.4,4.581,4.581,0,0,0-3.177,1.385l-3.532,3.559a7.116,7.116,0,0,0-2.112,4.517,17.763,17.763,0,0,0,1.3,7.455,43.948,43.948,0,0,0,7.81,13.046,47.8,47.8,0,0,0,16.029,12.541,24.718,24.718,0,0,0,8.929,2.645c.186.009.408.018.6.018a7.281,7.281,0,0,0,5.591-2.37l.071-.08a24.732,24.732,0,0,1,1.837-1.9c.435-.417.887-.861,1.322-1.314a4.664,4.664,0,0,0,1.438-3.275,4.532,4.532,0,0,0-1.447-3.2m-.941,4.748a2.423,2.423,0,0,1-.426.426c-.328.355-.657.675-1.012,1.021l-.24.231c-.692.648-1.349,1.322-1.97,2.032a5.364,5.364,0,0,1-4.021,1.793h-.2c-.151,0-.328,0-.488-.009a22.735,22.735,0,0,1-8.227-2.467A45.9,45.9,0,0,1,1002.124,41.1a42.1,42.1,0,0,1-7.5-12.487,15.181,15.181,0,0,1-1.189-6.639A5.163,5.163,0,0,1,994.99,18.6l3.523-3.515a2.721,2.721,0,0,1,1.855-.861,2.638,2.638,0,0,1,1.864.861c.666.621,1.3,1.269,1.882,1.873l.417.426c.186.186.373.382.559.577l2.8,2.8a2.394,2.394,0,0,1,.5,3.328,2.45,2.45,0,0,1-.55.541l-.24.257c-.2.2-.391.4-.595.595-.781.8-1.633,1.66-2.583,2.512l-.071.062a1.674,1.674,0,0,0-.417,1.846l.035.115a22.239,22.239,0,0,0,3.257,5.3,37.509,37.509,0,0,0,9.07,8.254,13.454,13.454,0,0,0,1.225.666c.391.2.754.382,1.056.568l-.124.444.213-.391a1.665,1.665,0,0,0,2.068-.355l3.541-3.541a2.787,2.787,0,0,1,1.837-.9,2.621,2.621,0,0,1,1.864.914l5.68,5.68a2.479,2.479,0,0,1,.417,3.444" transform="translate(-991.516 -9.497)" fill="#fefefe"/>
</svg>
