<svg id="Group_166255" data-name="Group 166255" xmlns="http://www.w3.org/2000/svg" width="39.857" height="40" viewBox="0 0 39.857 40">
  <path id="Path_239077" data-name="Path 239077" d="M158.307,456.432l-1.186-1.382H145.578l-1.251,1.382-2.3,2.666h18.576Z" transform="translate(-131.389 -419.708)" fill="#efedef"/>
  <path id="Path_239078" data-name="Path 239078" d="M151.748,455.05h-6.17l-1.251,1.382-2.3,2.666h6.17l2.3-2.666Z" transform="translate(-131.153 -419.708)" fill="#e5e1e5"/>
  <path id="Path_239079" data-name="Path 239079" d="M170.269,360.018h13.979v9.117H170.269Z" transform="translate(-157.33 -332.412)" fill="#c9bfc8"/>
  <path id="Path_239080" data-name="Path 239080" d="M184.248,360.018H170.269v9.117h6.153v-.306a1.6,1.6,0,0,1,1.6-1.6h6.226Z" transform="translate(-157.33 -332.412)" fill="#baafb9"/>
  <path id="Path_239081" data-name="Path 239081" d="M45.564,105.459l1.49-1.636v-21.5a3.2,3.2,0,0,0-3.133-3.271H11.552a3.2,3.2,0,0,0-3.133,3.271v21.5l2.72,1.636Z" transform="translate(-7.808 -73.328)" fill="#99e6fc"/>
  <path id="Path_239082" data-name="Path 239082" d="M21.984,103.823v-21.5a3.271,3.271,0,0,1,3.271-3.271H11.69a3.271,3.271,0,0,0-3.271,3.271v21.5l2.839,1.636H22.423a3.256,3.256,0,0,1-.438-1.636Z" transform="translate(-7.808 -73.328)" fill="#62dbfb"/>
  <path id="Path_239083" data-name="Path 239083" d="M8.419,383.418H47.054a3.2,3.2,0,0,1-3.133,3.271H11.552A3.2,3.2,0,0,1,8.419,383.418Z" transform="translate(-7.808 -353.588)" fill="#efedef"/>
  <path id="Path_239084" data-name="Path 239084" d="M21.984,383.418H8.419a3.271,3.271,0,0,0,3.271,3.271H25.254A3.271,3.271,0,0,1,21.984,383.418Z" transform="translate(-7.808 -353.588)" fill="#e5e1e5"/>
  <path id="Path_239085" data-name="Path 239085" d="M347.277,134.088H345.14a.55.55,0,0,1-.55-.55v-7.187a.55.55,0,0,1,.55-.55h2.137a.55.55,0,0,1,.55.55v7.187A.55.55,0,0,1,347.277,134.088Z" transform="translate(-317.851 -116.082)" fill="#eb5569"/>
  <path id="Path_239086" data-name="Path 239086" d="M258.827,57.114H256.69a.55.55,0,0,1-.55-.55V45.389a.55.55,0,0,1,.55-.55h2.137a.55.55,0,0,1,.55.55V56.564A.55.55,0,0,1,258.827,57.114Z" transform="translate(-236.283 -41.189)" fill="#6cf5c2"/>
  <path id="Path_239087" data-name="Path 239087" d="M170.376,116.966h-2.137a.55.55,0,0,1-.55-.55V109.23a.55.55,0,0,1,.55-.55h2.137a.55.55,0,0,1,.55.55v7.187a.55.55,0,0,1-.55.55Z" transform="translate(-154.714 -100.283)" fill="#eb5569"/>
  <path id="Path_239088" data-name="Path 239088" d="M81.926,157.808H79.789a.55.55,0,0,1-.55-.55v-7.187a.55.55,0,0,1,.55-.55h2.137a.55.55,0,0,1,.55.55v7.187a.55.55,0,0,1-.55.55Z" transform="translate(-73.145 -137.97)" fill="#6cf5c2"/>
  <path id="Path_239089" data-name="Path 239089" d="M37.051,36.868H29.89V34.525a.586.586,0,0,0-1.171,0v2.343H26.293a.584.584,0,1,0,0,1.168h2.426v2.472h-.44a1.113,1.113,0,0,0-1.113,1.11v6.873a1.113,1.113,0,0,0,1.113,1.11h.44v4.632a.586.586,0,0,0,1.171,0V49.6h.44a1.113,1.113,0,0,0,1.113-1.11V41.618a1.113,1.113,0,0,0-1.113-1.11h-.44V38.036h7.161A2.551,2.551,0,0,1,39.6,40.58V60.563H2.088V40.58A2.551,2.551,0,0,1,4.64,38.036H14.906v1.139h-.44a1.113,1.113,0,0,0-1.113,1.11v6.873a1.113,1.113,0,0,0,1.113,1.11h.44v5.159a.586.586,0,0,0,1.171,0V48.268h.44a1.113,1.113,0,0,0,1.113-1.11V40.285a1.113,1.113,0,0,0-1.113-1.11h-.44v-1.14H18.5a.584.584,0,1,0,0-1.168H16.077V36.58a.586.586,0,0,0-1.171,0v.288H4.64A3.722,3.722,0,0,0,.917,40.58V61.147A3.722,3.722,0,0,0,4.64,64.859h8.915v2.969l-1.887,2.183h-.749a.584.584,0,1,0,0,1.168h19.8a.584.584,0,1,0,0-1.168h-.7l-1.887-2.183V64.859h8.915a3.722,3.722,0,0,0,3.723-3.712V40.58A3.722,3.722,0,0,0,37.051,36.868ZM30.271,48.433H28.337V41.676h1.934v6.757ZM16.458,47.1H14.525V40.343h1.934ZM37.051,63.691H25.2a.584.584,0,1,0,0,1.168h1.766v2.6H25.506a.584.584,0,1,0,0,1.168h1.776l1.2,1.382H13.214l1.2-1.382h1.776a.584.584,0,1,0,0-1.168H14.726v-2.6H22.7a.584.584,0,1,0,0-1.168H4.64a2.554,2.554,0,0,1-2.483-1.961H39.534A2.554,2.554,0,0,1,37.051,63.691Z" transform="translate(-0.917 -31.178)"/>
  <path id="Path_239090" data-name="Path 239090" d="M47.335,17.823a.6.6,0,0,0-.581.61v1.474a1.134,1.134,0,0,0,1.1,1.16h.436v3.251a.582.582,0,1,0,1.162,0V21.067h.436a1.134,1.134,0,0,0,1.1-1.16V12.72a1.135,1.135,0,0,0-1.1-1.16h-.436v-.976a.582.582,0,1,0-1.162,0v.976h-.436a1.134,1.134,0,0,0-1.1,1.16v3.111a.582.582,0,1,0,1.162,0V12.781h1.918v7.066H47.916V18.434a.6.6,0,0,0-.581-.611Zm14.223-1.288h.436v3.251a.582.582,0,1,0,1.162,0V16.535h.436a1.135,1.135,0,0,0,1.1-1.16V10.586a.582.582,0,1,0-1.162,0v4.728H61.616V4.26h1.918V7.985a.582.582,0,1,0,1.162,0V4.2a1.134,1.134,0,0,0-1.1-1.16h-.436V.61a.582.582,0,1,0-1.162,0V3.039h-.436a1.134,1.134,0,0,0-1.1,1.16V15.375A1.134,1.134,0,0,0,61.558,16.535Zm11.219.2a.567.567,0,0,0,.787.248l2.676-1.516L76.047,16a.62.62,0,0,0,.336.788.573.573,0,0,0,.75-.353l.654-1.8a.62.62,0,0,0-.336-.788l-1.822-.73a.573.573,0,0,0-.75.353.62.62,0,0,0,.336.788l.422.169L73.013,15.91a.627.627,0,0,0-.236.827ZM44.7,28.665a.581.581,0,0,0,.534.37.555.555,0,0,0,.228-.049l7.5-3.371.681,1.876a.6.6,0,0,0,.34.355.556.556,0,0,0,.478-.035l12.382-7.017a.627.627,0,0,0,.236-.827.567.567,0,0,0-.787-.248l-11.8,6.687-.661-1.819a.6.6,0,0,0-.316-.344.555.555,0,0,0-.455,0l-8.051,3.621A.623.623,0,0,0,44.7,28.665Z" transform="translate(-41.096)"/>
</svg>
