<svg xmlns="http://www.w3.org/2000/svg" width="35.776" height="35.776" viewBox="0 0 35.776 35.776">
  <g id="Group_165867" data-name="Group 165867" transform="translate(-7.007 -7.009)">
    <path id="Path_239076" data-name="Path 239076" d="M27.87,13.759a11.44,11.44,0,0,1,2.8,1.16l1.8-.8a.577.577,0,0,1,.642.119l2.443,2.443a.577.577,0,0,1,.12.642l-.8,1.8a11.418,11.418,0,0,1,1.16,2.8l1.836.707a.577.577,0,0,1,.37.539v3.455a.577.577,0,0,1-.37.539l-1.837.707a11.537,11.537,0,0,1-1.16,2.8l.8,1.8a.577.577,0,0,1-.12.642l-2.443,2.443a.577.577,0,0,1-.642.12l-1.8-.8a11.406,11.406,0,0,1-2.8,1.16l-.707,1.836a.577.577,0,0,1-.539.37H23.169a.577.577,0,0,1-.539-.37l-.707-1.836a11.516,11.516,0,0,1-2.8-1.161l-1.8.8a.577.577,0,0,1-.642-.12l-2.443-2.443a.577.577,0,0,1-.119-.642l.8-1.8a11.51,11.51,0,0,1-1.162-2.8l-1.837-.707a.577.577,0,0,1-.37-.539V23.171a.577.577,0,0,1,.37-.539l1.837-.707a11.521,11.521,0,0,1,1.163-2.8l-.8-1.8a.577.577,0,0,1,.119-.642l2.443-2.443a.577.577,0,0,1,.642-.119l1.8.8a11.44,11.44,0,0,1,2.8-1.16l.71-1.84a.577.577,0,0,1,.538-.369h3.455a.577.577,0,0,1,.539.37Zm-.97.693L26.228,12.7H23.565l-.675,1.75a.577.577,0,0,1-.4.354,10.29,10.29,0,0,0-3.022,1.252.577.577,0,0,1-.537.036l-1.712-.761-1.882,1.882.761,1.712a.577.577,0,0,1-.036.537A10.376,10.376,0,0,0,14.8,22.491a.577.577,0,0,1-.354.4l-1.746.672V26.23l1.746.672a.577.577,0,0,1,.354.4,10.352,10.352,0,0,0,1.256,3.022.577.577,0,0,1,.036.538l-.761,1.712,1.882,1.882,1.712-.758a.577.577,0,0,1,.535.036,10.362,10.362,0,0,0,3.026,1.253.577.577,0,0,1,.405.354l.672,1.746h2.663l.672-1.746a.577.577,0,0,1,.405-.354,10.251,10.251,0,0,0,3.021-1.252.577.577,0,0,1,.537-.037l1.712.758,1.883-1.883L33.7,30.865a.577.577,0,0,1,.036-.535,10.381,10.381,0,0,0,1.253-3.023.577.577,0,0,1,.354-.405l1.746-.672V23.567L35.342,22.9a.577.577,0,0,1-.354-.405,10.272,10.272,0,0,0-1.252-3.025.577.577,0,0,1-.036-.536l.758-1.712-1.882-1.882-1.712.761a.577.577,0,0,1-.537-.036,10.29,10.29,0,0,0-3.022-1.252A.577.577,0,0,1,26.9,14.453Zm-2,1.638A8.806,8.806,0,1,1,16.089,24.9,8.8,8.8,0,0,1,24.895,16.091Zm6.046,13.5a7.651,7.651,0,1,0-12.092,0A6.341,6.341,0,0,1,22.718,25.5a3.483,3.483,0,1,1,4.354,0A6.341,6.341,0,0,1,30.941,29.587ZM19.8,30.6a7.653,7.653,0,0,0,10.2,0,5.168,5.168,0,0,0-10.2,0Zm5.1-5.487a2.329,2.329,0,1,0-2.329-2.329A2.335,2.335,0,0,0,24.895,25.114Zm-7.7,14.654A16.827,16.827,0,0,0,34.4,38.686a.577.577,0,1,1,.656.95,17.988,17.988,0,0,1-18.431,1.139l.372.666A.577.577,0,0,1,15.989,42l-1.431-2.561a.577.577,0,0,1,.512-.858L18,38.625a.577.577,0,0,1-.016,1.154Zm22.538-7.092a16.826,16.826,0,0,0-1.044-17.284.577.577,0,0,1,.95-.656A17.988,17.988,0,0,1,40.807,33.1l.6-.347a.577.577,0,0,1,.581,1L39.45,35.228a.577.577,0,0,1-.868-.5L38.57,31.8a.577.577,0,0,1,1.154,0Zm-6.651-23.7L32.738,8.4a.577.577,0,1,1,.994-.587l1.493,2.526a.577.577,0,0,1-.491.871l-2.934.03a.577.577,0,1,1-.012-1.154l.909-.009A16.827,16.827,0,0,0,15.39,11.107a.577.577,0,1,1-.656-.95A17.99,17.99,0,0,1,33.076,8.973ZM9.037,16.587l-.708.385a.577.577,0,1,1-.551-1.014l2.577-1.4a.577.577,0,0,1,.853.522l-.075,2.933a.577.577,0,1,1-1.154-.029l.019-.74A16.828,16.828,0,0,0,11.105,34.4a.577.577,0,1,1-.95.656A17.988,17.988,0,0,1,9.037,16.587Z" transform="translate(0 0)" fill="#115baa" fill-rule="evenodd"/>
  </g>
</svg>
