<svg xmlns="http://www.w3.org/2000/svg" width="27" height="35.217" viewBox="0 0 27 35.217">
  <g id="Group_165803" data-name="Group 165803" transform="translate(-56)">
    <path id="Path_238117" data-name="Path 238117" d="M81.239,0H57.761A1.761,1.761,0,0,0,56,1.761v31.7a1.761,1.761,0,0,0,1.761,1.761H81.239A1.761,1.761,0,0,0,83,33.457V1.761A1.761,1.761,0,0,0,81.239,0Zm.587,33.457a.587.587,0,0,1-.587.587H57.761a.587.587,0,0,1-.587-.587V1.761a.587.587,0,0,1,.587-.587H81.239a.587.587,0,0,1,.587.587Z" fill="#f68c5e"/>
    <path id="Path_238118" data-name="Path 238118" d="M109.717,32H88.587a.587.587,0,0,0-.587.587V46.674a.587.587,0,0,0,.587.587h21.13a.587.587,0,0,0,.587-.587V32.587A.587.587,0,0,0,109.717,32Zm-.587,14.087H89.174V42.565H109.13Zm0-4.7H89.174V37.87H109.13Zm0-4.7H89.174V33.174H109.13Z" transform="translate(-29.652 -29.652)" fill="#f68c5e"/>
    <path id="Path_238119" data-name="Path 238119" d="M217.391,65.174h1.174a.587.587,0,1,0,0-1.174h-1.174a.587.587,0,1,0,0,1.174Zm0,4.7h1.174a.587.587,0,0,0,0-1.174h-1.174a.587.587,0,1,0,0,1.174Zm0,4.7h1.174a.587.587,0,1,0,0-1.174h-1.174a.587.587,0,1,0,0,1.174ZM210.348,86.3a2.348,2.348,0,1,0,2.348,2.348A2.348,2.348,0,0,0,210.348,86.3Zm0,3.522a1.174,1.174,0,1,1,1.174-1.174A1.174,1.174,0,0,1,210.348,89.826Z" transform="translate(-140.848 -59.304)" fill="#f68c5e"/>
  </g>
</svg>
