<svg xmlns="http://www.w3.org/2000/svg" width="180.017" height="180.007" viewBox="0 0 180.017 180.007">
  <g id="Group_166313" data-name="Group 166313" transform="translate(0.011 0.004)" opacity="0.5">
    <path id="Path_239673" data-name="Path 239673" d="M86.574,50.122l-1.507,1.507L83.56,50.122l1.507-1.507Zm-.3,0-1.205-1.206-1.206,1.206,1.206,1.206Zm-.3,0-.9.9-.9-.9.9-.9Zm-.3,0-.6-.6-.6.6.6.6Zm-.3,0-.3.3-.3-.3.3-.3Z" transform="translate(85.933 120.878)" fill="#aacff6"/>
    <path id="Path_239674" data-name="Path 239674" d="M84.431,147.376l-2.11,2.11-2.11-2.11,2.11-2.11Zm-.422,0-1.688-1.688-1.688,1.688,1.688,1.688Zm-.422,0-1.266,1.266-1.266-1.266,1.266-1.266Zm-.422,0-.844-.844-.844.844.844.844Zm-.422,0-.422.422-.422-.422.422-.422Z" transform="translate(88.679 5.624)" fill="#aacff6"/>
    <path id="Path_239675" data-name="Path 239675" d="M82.287,244.63l-2.713,2.712-2.713-2.712,2.713-2.712Zm-.543,0-2.17-2.17-2.17,2.17,2.17,2.17Zm-.543,0-1.628,1.628-1.628-1.628,1.63-1.63Zm-.543,0-1.085-1.085L78.49,244.63l1.085,1.085Zm-.543,0-.543.542-.543-.542.543-.543Z" transform="translate(91.425 -109.63)" fill="#aacff6"/>
    <path id="Path_239676" data-name="Path 239676" d="M80.145,341.884,76.829,345.2l-3.315-3.315,3.315-3.315Zm-.663,0-2.652-2.652-2.652,2.652,2.652,2.652Zm-.663,0-1.989,1.989-1.989-1.989,1.989-1.989Zm-.663,0-1.326-1.326-1.33,1.326,1.326,1.326Zm-.663,0-.663.663-.663-.663.663-.663Z" transform="translate(94.17 -224.884)" fill="#aacff6"/>
    <path id="Path_239677" data-name="Path 239677" d="M78,439.137l-3.918,3.918-3.918-3.918,3.918-3.918Zm-.784,0L74.083,436l-3.134,3.134,3.134,3.134Zm-.784,0-2.351,2.351-2.351-2.351,2.351-2.351Zm-.784,0-1.567-1.567-1.567,1.567,1.567,1.567Zm-.784,0-.784.784-.784-.784.784-.784Z" transform="translate(96.917 -340.137)" fill="#aacff6"/>
    <path id="Path_239678" data-name="Path 239678" d="M75.858,536.392l-4.521,4.521-4.521-4.521,4.521-4.521Zm-.9,0-3.617-3.617-3.617,3.617,3.617,3.617Zm-.9,0L71.337,539.1l-2.713-2.712,2.713-2.713Zm-.9,0-1.808-1.809-1.808,1.809L71.35,538.2Zm-.9,0-.9.9-.9-.9.9-.9Z" transform="translate(99.663 -455.392)" fill="#aacff6"/>
    <path id="Path_239679" data-name="Path 239679" d="M73.715,633.646l-5.124,5.124-5.124-5.124,5.124-5.124Zm-1.025,0-4.1-4.1-4.1,4.1,4.1,4.1Zm-1.025,0-3.074,3.074-3.074-3.074,3.074-3.074Zm-1.025,0L68.592,631.6l-2.049,2.049,2.049,2.049Zm-1.025,0-1.025,1.025-1.025-1.025,1.025-1.025Z" transform="translate(102.408 -570.646)" fill="#aacff6"/>
    <path id="Path_239680" data-name="Path 239680" d="M71.572,730.9l-5.727,5.727L60.119,730.9l5.726-5.726Zm-1.145,0-4.581-4.581L61.264,730.9l4.581,4.581Zm-1.145,0-3.436,3.436L62.409,730.9l3.436-3.436Zm-1.145,0-2.291-2.291L63.555,730.9l2.291,2.291Zm-1.145,0-1.145,1.145L64.7,730.9l1.145-1.145Z" transform="translate(105.154 -685.899)" fill="#aacff6"/>
    <path id="Path_239681" data-name="Path 239681" d="M69.429,828.154,63.1,834.483l-6.329-6.329,6.329-6.329Zm-1.266,0L63.1,823.091l-5.063,5.063,5.063,5.063Zm-1.266,0-3.8,3.8-3.8-3.8,3.8-3.8Zm-1.266,0L63.1,825.622l-2.532,2.532,2.532,2.532Zm-1.266,0L63.1,829.42l-1.266-1.266,1.266-1.266Z" transform="translate(107.901 -801.154)" fill="#aacff6"/>
    <path id="Path_239682" data-name="Path 239682" d="M67.285,925.408l-6.932,6.932-6.932-6.932,6.932-6.932Zm-1.386,0-5.546-5.546-5.546,5.546,5.546,5.546Zm-1.386,0-4.159,4.159-4.159-4.159,4.159-4.159Zm-1.387,0-2.773-2.773-2.773,2.773,2.773,2.773Zm-1.386,0-1.386,1.386-1.386-1.386,1.386-1.386Z" transform="translate(110.647 -916.408)" fill="#aacff6"/>
    <path id="Path_239683" data-name="Path 239683" d="M187.041,50.719,185.665,52.1l-1.376-1.376,1.376-1.376Zm-.275,0-1.1-1.1-1.1,1.1,1.1,1.1Zm-.275,0-.826.825-.825-.825.825-.825Zm-.275,0-.55-.55-.55.55.55.55Zm-.275,0-.275.275-.275-.275.275-.275Z" transform="translate(-32.665 120.281)" fill="#aacff6"/>
    <path id="Path_239684" data-name="Path 239684" d="M185.083,148.211l-1.926,1.926-1.926-1.926,1.926-1.926Zm-.385,0-1.541-1.541-1.541,1.541,1.541,1.541Zm-.385,0-1.156,1.156L182,148.211l1.156-1.156Zm-.385,0-.771-.771-.771.771.771.771Zm-.385,0-.385.385-.385-.385.385-.385Z" transform="translate(-30.156 4.789)" fill="#aacff6"/>
    <path id="Path_239685" data-name="Path 239685" d="M183.127,245.7l-2.477,2.477-2.477-2.477,2.477-2.477Zm-.5,0-1.981-1.981-1.981,1.981,1.981,1.981Zm-.5,0-1.486,1.486-1.486-1.486,1.486-1.486Zm-.5,0-.991-.991-.991.991.991.991Zm-.5,0-.5.5-.5-.5.5-.5Z" transform="translate(-27.651 -110.705)" fill="#aacff6"/>
    <path id="Path_239686" data-name="Path 239686" d="M181.169,343.2l-3.027,3.027-3.027-3.027,3.027-3.027Zm-.606,0-2.422-2.422L175.72,343.2l2.422,2.422Zm-.6,0-1.816,1.816-1.816-1.816,1.816-1.816Zm-.606,0-1.211-1.211L176.93,343.2l1.211,1.211Zm-.6,0-.6.605-.606-.605.606-.605Z" transform="translate(-25.142 -226.197)" fill="#aacff6"/>
    <path id="Path_239687" data-name="Path 239687" d="M179.214,440.69l-3.577,3.577-3.577-3.577,3.577-3.577Zm-.715,0-2.862-2.862-2.862,2.862,2.862,2.862Zm-.715,0-2.146,2.146-2.146-2.146,2.146-2.147Zm-.715,0-1.431-1.431-1.431,1.431,1.431,1.431Zm-.716,0-.715.715-.716-.715.716-.716Z" transform="translate(-22.637 -341.69)" fill="#aacff6"/>
    <path id="Path_239688" data-name="Path 239688" d="M177.256,538.183l-4.128,4.128L169,538.183l4.128-4.128Zm-.826,0-3.3-3.3-3.3,3.3,3.3,3.3Zm-.825,0-2.477,2.477-2.477-2.477,2.477-2.477Zm-.825,0-1.651-1.651-1.651,1.651,1.651,1.651Zm-.826,0-.825.825-.826-.825.826-.826Z" transform="translate(-20.128 -457.183)" fill="#aacff6"/>
    <path id="Path_239689" data-name="Path 239689" d="M175.3,635.676l-4.678,4.678-4.678-4.678L170.621,631Zm-.936,0-3.743-3.743-3.742,3.743,3.742,3.742Zm-.936,0-2.807,2.807-2.807-2.807,2.807-2.807Zm-.936,0-1.871-1.871-1.871,1.871,1.871,1.871Zm-.936,0-.936.936-.936-.936.936-.936Z" transform="translate(-17.621 -572.676)" fill="#aacff6"/>
    <path id="Path_239690" data-name="Path 239690" d="M173.342,733.168l-5.229,5.228-5.228-5.228,5.228-5.228Zm-1.046,0-4.183-4.183-4.183,4.183,4.183,4.183Zm-1.046,0-3.137,3.137-3.137-3.137,3.137-3.137Zm-1.046,0-2.091-2.091-2.091,2.091,2.091,2.091Zm-1.046,0-1.046,1.046-1.046-1.046,1.046-1.046Z" transform="translate(-15.114 -688.168)" fill="#aacff6"/>
    <path id="Path_239691" data-name="Path 239691" d="M171.386,830.662l-5.779,5.779-5.779-5.779,5.779-5.779Zm-1.156,0-4.623-4.623-4.623,4.623,4.623,4.623Zm-1.156,0-3.467,3.467-3.467-3.467,3.467-3.467Zm-1.156,0-2.312-2.311-2.312,2.311,2.312,2.312Zm-1.156,0-1.156,1.156-1.156-1.156,1.156-1.156Z" transform="translate(-12.607 -803.662)" fill="#aacff6"/>
    <path id="Path_239692" data-name="Path 239692" d="M169.428,928.154l-6.329,6.329-6.329-6.329,6.329-6.329Zm-1.266,0-5.063-5.063-5.063,5.063,5.063,5.063Zm-1.266,0-3.8,3.8-3.8-3.8,3.8-3.8Zm-1.266,0-2.532-2.532-2.532,2.532,2.532,2.532Zm-1.266,0L163.1,929.42l-1.266-1.266,1.266-1.266Z" transform="translate(-10.099 -919.154)" fill="#aacff6"/>
    <path id="Path_239693" data-name="Path 239693" d="M287.506,51.316l-1.245,1.245-1.245-1.245,1.245-1.245Zm-.249,0-1-1-1,1,1,1Zm-.249,0-.747.747-.747-.747.747-.747Zm-.249,0-.5-.5-.5.5.5.5Zm-.249,0-.249.249-.249-.249.249-.249Z" transform="translate(-151.261 119.684)" fill="#aacff6"/>
    <path id="Path_239694" data-name="Path 239694" d="M285.736,149.047l-1.743,1.743-1.743-1.743,1.743-1.743Zm-.348,0-1.394-1.394-1.395,1.394,1.395,1.394Zm-.349,0-1.046,1.046-1.046-1.046L283.993,148Zm-.349,0-.7-.7-.7.7.7.7Zm-.348,0-.348.349-.349-.349.349-.349Z" transform="translate(-148.993 3.953)" fill="#aacff6"/>
    <path id="Path_239695" data-name="Path 239695" d="M283.965,246.779l-2.241,2.241-2.241-2.241,2.241-2.241Zm-.448,0-1.793-1.793-1.793,1.793,1.793,1.793Zm-.448,0-1.344,1.344-1.344-1.344,1.344-1.344Zm-.448,0-.9-.9-.9.9.9.9Zm-.448,0-.448.448-.448-.448.448-.448Z" transform="translate(-146.725 -111.779)" fill="#aacff6"/>
    <path id="Path_239696" data-name="Path 239696" d="M282.2,344.511l-2.739,2.739-2.739-2.739,2.739-2.739Zm-.548,0-2.191-2.191-2.191,2.191,2.191,2.191Zm-.548,0-1.643,1.643-1.643-1.643,1.643-1.643Zm-.548,0-1.1-1.1-1.1,1.1,1.1,1.1Zm-.548,0-.548.548-.548-.548.548-.548Z" transform="translate(-144.457 -227.511)" fill="#aacff6"/>
    <path id="Path_239697" data-name="Path 239697" d="M280.424,442.243l-3.237,3.237-3.237-3.237,3.237-3.237Zm-.647,0-2.589-2.589-2.589,2.589,2.589,2.589Zm-.647,0-1.942,1.942-1.942-1.942,1.942-1.942Zm-.647,0-1.3-1.3-1.3,1.3,1.3,1.3Zm-.647,0-.647.647-.647-.647.647-.647Z" transform="translate(-142.188 -343.243)" fill="#aacff6"/>
    <path id="Path_239698" data-name="Path 239698" d="M278.653,539.975l-3.735,3.735-3.735-3.735,3.735-3.735Zm-.747,0-2.988-2.988-2.988,2.988,2.988,2.988Zm-.747,0-2.241,2.241-2.241-2.241,2.241-2.241Zm-.747,0-1.494-1.494-1.494,1.494,1.494,1.494Zm-.747,0-.747.747-.747-.747.747-.747Z" transform="translate(-139.919 -458.975)" fill="#aacff6"/>
    <path id="Path_239699" data-name="Path 239699" d="M276.883,637.7l-4.232,4.233-4.233-4.233,4.233-4.233Zm-.846,0-3.386-3.386-3.386,3.386,3.386,3.386Zm-.847,0-2.539,2.539-2.539-2.539,2.539-2.539Zm-.846,0-1.693-1.693-1.693,1.693,1.693,1.693Zm-.847,0-.847.847-.847-.847.847-.846Z" transform="translate(-137.651 -574.705)" fill="#aacff6"/>
    <path id="Path_239700" data-name="Path 239700" d="M275.112,735.437l-4.73,4.73-4.731-4.73,4.731-4.731Zm-.946,0-3.784-3.784-3.785,3.784,3.785,3.784Zm-.946,0-2.838,2.838-2.838-2.838,2.838-2.839Zm-.946,0-1.892-1.892-1.892,1.892,1.892,1.892Zm-.946,0-.946.946-.946-.946.946-.946Z" transform="translate(-135.382 -690.436)" fill="#aacff6"/>
    <path id="Path_239701" data-name="Path 239701" d="M273.342,833.168l-5.229,5.229-5.228-5.229,5.228-5.229Zm-1.046,0-4.183-4.183-4.183,4.183,4.183,4.183Zm-1.046,0-3.137,3.137-3.137-3.137,3.137-3.137Zm-1.046,0-2.091-2.091-2.091,2.091,2.091,2.091Zm-1.046,0-1.046,1.046-1.046-1.046,1.046-1.046Z" transform="translate(-133.114 -806.168)" fill="#aacff6"/>
    <path id="Path_239702" data-name="Path 239702" d="M271.572,930.9l-5.727,5.727-5.726-5.727,5.726-5.726Zm-1.145,0-4.581-4.581-4.581,4.581,4.581,4.581Zm-1.145,0-3.436,3.436L262.41,930.9l3.436-3.436Zm-1.145,0-2.291-2.291-2.29,2.291,2.29,2.291Zm-1.145,0-1.145,1.145L264.7,930.9l1.145-1.145Z" transform="translate(-130.846 -921.899)" fill="#aacff6"/>
    <path id="Path_239703" data-name="Path 239703" d="M387.972,51.913l-1.114,1.114-1.114-1.114,1.114-1.114Zm-.223,0-.891-.891-.891.891.891.891Zm-.223,0-.668.668-.668-.668.668-.668Zm-.223,0-.445-.445-.446.445.446.445Zm-.223,0-.223.223-.223-.223.223-.223Z" transform="translate(-269.859 119.087)" fill="#aacff6"/>
    <path id="Path_239704" data-name="Path 239704" d="M386.388,149.883l-1.559,1.559-1.56-1.559,1.56-1.559Zm-.312,0-1.247-1.248-1.248,1.248,1.248,1.248Zm-.312,0-.936.936-.936-.936.936-.936Zm-.312,0-.624-.624-.624.624.624.624Zm-.312,0-.312.312-.312-.312.312-.312Z" transform="translate(-267.829 3.117)" fill="#aacff6"/>
    <path id="Path_239705" data-name="Path 239705" d="M384.8,247.853l-2,2.005-2.005-2.005,2.005-2.005Zm-.4,0-1.6-1.6-1.6,1.6,1.6,1.6Zm-.4,0-1.2,1.2-1.2-1.2,1.2-1.2Zm-.4,0-.8-.8-.8.8.8.8Zm-.4,0-.4.4-.4-.4.4-.4Z" transform="translate(-265.799 -112.853)" fill="#aacff6"/>
    <path id="Path_239706" data-name="Path 239706" d="M383.22,345.824l-2.451,2.45-2.45-2.45,2.45-2.451Zm-.49,0-1.96-1.96-1.96,1.96,1.96,1.96Zm-.49,0-1.47,1.47-1.47-1.47,1.47-1.47Zm-.49,0-.98-.98-.98.98.98.98Zm-.49,0-.49.49-.49-.49.49-.49Z" transform="translate(-263.77 -228.824)" fill="#aacff6"/>
    <path id="Path_239707" data-name="Path 239707" d="M381.636,443.794l-2.9,2.9-2.9-2.9,2.9-2.9Zm-.579,0-2.317-2.317-2.317,2.317,2.317,2.317Zm-.579,0-1.738,1.737L377,443.794l1.738-1.738Zm-.579,0-1.159-1.159-1.158,1.159,1.158,1.158Zm-.579,0-.579.579-.579-.579.579-.579Z" transform="translate(-261.74 -344.794)" fill="#aacff6"/>
    <path id="Path_239708" data-name="Path 239708" d="M380.051,541.764l-3.342,3.342-3.342-3.342,3.342-3.342Zm-.668,0-2.673-2.673-2.673,2.673,2.673,2.673Zm-.668,0-2.005,2.005-2.005-2.005,2.005-2.005Zm-.668,0-1.337-1.337-1.337,1.337,1.337,1.337Zm-.668,0-.668.668-.668-.668.668-.668Z" transform="translate(-259.71 -460.763)" fill="#aacff6"/>
    <path id="Path_239709" data-name="Path 239709" d="M378.468,639.735l-3.787,3.787-3.787-3.787,3.787-3.787Zm-.757,0-3.03-3.029-3.03,3.029,3.03,3.03Zm-.757,0-2.272,2.272-2.272-2.272,2.272-2.272Zm-.757,0-1.515-1.515-1.515,1.515,1.515,1.515Zm-.757,0-.757.757-.757-.757.757-.757Z" transform="translate(-257.681 -576.735)" fill="#aacff6"/>
    <path id="Path_239710" data-name="Path 239710" d="M376.883,737.7l-4.233,4.233-4.233-4.233,4.233-4.233Zm-.847,0-3.386-3.386-3.386,3.386,3.386,3.386Zm-.846,0-2.539,2.539-2.539-2.539,2.539-2.539Zm-.846,0-1.693-1.693-1.693,1.693,1.693,1.693Zm-.846,0-.847.846-.846-.846.846-.847Z" transform="translate(-255.651 -692.705)" fill="#aacff6"/>
    <path id="Path_239711" data-name="Path 239711" d="M375.3,835.676l-4.678,4.678-4.678-4.678L370.621,831Zm-.935,0-3.743-3.743-3.742,3.743,3.742,3.743Zm-.936,0-2.807,2.807-2.807-2.807,2.807-2.807Zm-.936,0-1.871-1.871-1.871,1.871,1.871,1.871Zm-.935,0-.936.936-.936-.936.936-.936Z" transform="translate(-253.621 -808.676)" fill="#aacff6"/>
    <path id="Path_239712" data-name="Path 239712" d="M373.715,933.646l-5.124,5.124-5.124-5.124,5.124-5.124Zm-1.025,0-4.1-4.1-4.1,4.1,4.1,4.1Zm-1.025,0-3.074,3.074-3.074-3.074,3.074-3.074Zm-1.025,0-2.049-2.05-2.05,2.05,2.05,2.049Zm-1.025,0-1.025,1.025-1.025-1.025,1.025-1.025Z" transform="translate(-251.592 -924.646)" fill="#aacff6"/>
    <path id="Path_239713" data-name="Path 239713" d="M488.439,52.51l-.983.983-.983-.983.983-.983Zm-.2,0-.786-.786-.786.786.786.786Zm-.2,0-.59.59-.59-.59.59-.59Zm-.2,0-.393-.393-.393.393.393.393Zm-.2,0-.2.2-.2-.2.2-.2Z" transform="translate(-388.456 118.49)" fill="#aacff6"/>
    <path id="Path_239714" data-name="Path 239714" d="M487.041,150.719l-1.376,1.376-1.376-1.376,1.376-1.376Zm-.275,0-1.1-1.1-1.1,1.1,1.1,1.1Zm-.275,0-.825.826-.825-.826.825-.825Zm-.275,0-.55-.55-.55.55.55.55Zm-.275,0-.275.275-.275-.275.275-.275Z" transform="translate(-386.665 2.281)" fill="#aacff6"/>
    <path id="Path_239715" data-name="Path 239715" d="M485.643,248.928l-1.769,1.769-1.769-1.769,1.769-1.769Zm-.354,0-1.415-1.415-1.415,1.415,1.415,1.415Zm-.354,0-1.061,1.061-1.061-1.061,1.061-1.061Zm-.354,0-.708-.708-.708.708.708.708Zm-.354,0-.354.354-.354-.354.354-.354Z" transform="translate(-384.874 -113.928)" fill="#aacff6"/>
    <path id="Path_239716" data-name="Path 239716" d="M484.245,347.137l-2.162,2.162-2.162-2.162,2.162-2.162Zm-.432,0-1.73-1.73-1.73,1.73,1.73,1.73Zm-.432,0-1.3,1.3-1.3-1.3,1.3-1.3Zm-.432,0-.865-.865-.865.865.865.865Zm-.432,0-.432.432-.432-.432.432-.432Z" transform="translate(-383.083 -230.137)" fill="#aacff6"/>
    <path id="Path_239717" data-name="Path 239717" d="M482.848,445.346l-2.555,2.555-2.555-2.555,2.555-2.555Zm-.511,0-2.044-2.044-2.044,2.044,2.044,2.044Zm-.511,0-1.533,1.533-1.533-1.533,1.533-1.533Zm-.511,0-1.022-1.022-1.022,1.022,1.022,1.022Zm-.511,0-.511.511-.511-.511.511-.511Z" transform="translate(-381.293 -346.346)" fill="#aacff6"/>
    <path id="Path_239718" data-name="Path 239718" d="M481.45,543.555,478.5,546.5l-2.948-2.948L478.5,540.6Zm-.59,0L478.5,541.2l-2.359,2.359,2.359,2.359Zm-.589,0-1.769,1.769-1.769-1.769,1.769-1.769Zm-.59,0-1.179-1.179-1.179,1.179,1.179,1.179Zm-.589,0-.59.59-.59-.59.59-.59Z" transform="translate(-379.501 -462.555)" fill="#aacff6"/>
    <path id="Path_239719" data-name="Path 239719" d="M480.051,641.763l-3.342,3.342-3.342-3.342,3.342-3.341Zm-.668,0-2.673-2.673-2.673,2.673,2.673,2.673Zm-.668,0-2.005,2.005-2.005-2.005,2.005-2.005Zm-.668,0-1.337-1.337-1.337,1.337,1.337,1.337Zm-.668,0-.668.668-.668-.668.668-.668Z" transform="translate(-377.71 -578.763)" fill="#aacff6"/>
    <path id="Path_239720" data-name="Path 239720" d="M478.653,739.974l-3.735,3.735-3.735-3.735,3.735-3.735Zm-.747,0-2.988-2.988-2.988,2.988,2.988,2.988Zm-.747,0-2.241,2.241-2.241-2.241,2.241-2.241Zm-.747,0-1.494-1.494-1.494,1.494,1.494,1.494Zm-.747,0-.747.747-.747-.747.747-.747Z" transform="translate(-375.919 -694.974)" fill="#aacff6"/>
    <path id="Path_239721" data-name="Path 239721" d="M477.256,838.183l-4.128,4.128L469,838.183l4.128-4.128Zm-.825,0-3.3-3.3-3.3,3.3,3.3,3.3Zm-.826,0-2.477,2.476-2.477-2.476,2.477-2.477Zm-.825,0-1.651-1.651-1.651,1.651,1.651,1.651Zm-.826,0-.825.825-.826-.825.826-.826Z" transform="translate(-374.129 -811.183)" fill="#aacff6"/>
    <path id="Path_239722" data-name="Path 239722" d="M475.858,936.392l-4.521,4.521-4.521-4.521,4.521-4.521Zm-.9,0-3.617-3.617-3.617,3.617,3.617,3.617Zm-.9,0-2.712,2.712-2.713-2.712,2.713-2.713Zm-.9,0-1.808-1.808-1.808,1.808,1.808,1.808Zm-.9,0-.9.9-.9-.9.9-.9Z" transform="translate(-372.337 -927.392)" fill="#aacff6"/>
    <path id="Path_239723" data-name="Path 239723" d="M588.9,53.107l-.852.852-.852-.852.852-.852Zm-.17,0-.681-.681-.681.681.681.681Zm-.17,0-.511.511-.511-.511.511-.511Zm-.171,0-.341-.341-.341.341.341.341Zm-.17,0-.17.17-.17-.17.17-.17Z" transform="translate(-507.052 117.893)" fill="#aacff6"/>
    <path id="Path_239724" data-name="Path 239724" d="M587.692,151.554l-1.193,1.193-1.193-1.193,1.193-1.192Zm-.239,0-.954-.954-.954.954.954.954Zm-.239,0-.715.715-.716-.715.716-.715Zm-.238,0-.477-.477-.477.477.477.477Zm-.239,0-.239.239-.239-.239.239-.238Z" transform="translate(-505.5 1.445)" fill="#aacff6"/>
    <path id="Path_239725" data-name="Path 239725" d="M586.48,250l-1.533,1.533L583.414,250l1.533-1.533Zm-.307,0-1.227-1.227L583.721,250l1.227,1.227Zm-.307,0-.92.92-.92-.92.92-.92Zm-.307,0-.613-.613-.613.613.613.613Zm-.307,0-.306.307-.307-.307.307-.307Z" transform="translate(-503.947 -115.002)" fill="#aacff6"/>
    <path id="Path_239726" data-name="Path 239726" d="M585.271,348.451l-1.874,1.874-1.874-1.874,1.874-1.874Zm-.375,0-1.5-1.5-1.5,1.5,1.5,1.5Zm-.375,0-1.124,1.124-1.124-1.124,1.124-1.124Zm-.375,0-.749-.75-.75.75.75.749Zm-.375,0-.375.375-.375-.375.375-.375Z" transform="translate(-502.397 -231.451)" fill="#aacff6"/>
    <path id="Path_239727" data-name="Path 239727" d="M584.059,446.9l-2.215,2.214L579.63,446.9l2.215-2.215Zm-.443,0-1.772-1.772-1.772,1.772,1.772,1.772Zm-.443,0-1.329,1.329-1.329-1.329,1.329-1.329Zm-.443,0-.886-.886-.886.886.886.886Zm-.443,0-.443.443-.443-.443.443-.443Z" transform="translate(-500.845 -347.898)" fill="#aacff6"/>
    <path id="Path_239728" data-name="Path 239728" d="M582.847,545.346l-2.555,2.555-2.555-2.555,2.555-2.555Zm-.511,0-2.044-2.044-2.044,2.044,2.044,2.044Zm-.511,0-1.533,1.533-1.533-1.533,1.533-1.533Zm-.511,0-1.022-1.022-1.022,1.022,1.022,1.022Zm-.511,0-.511.511-.511-.511.511-.511Z" transform="translate(-499.292 -464.346)" fill="#aacff6"/>
    <path id="Path_239729" data-name="Path 239729" d="M581.636,643.794l-2.9,2.9-2.9-2.9,2.9-2.9Zm-.579,0-2.317-2.317-2.317,2.317,2.317,2.317Zm-.579,0-1.738,1.738L577,643.794l1.737-1.737Zm-.579,0-1.159-1.158-1.158,1.158,1.158,1.158Zm-.579,0-.579.579-.579-.579.579-.579Z" transform="translate(-497.74 -580.794)" fill="#aacff6"/>
    <path id="Path_239730" data-name="Path 239730" d="M580.424,742.243l-3.237,3.237-3.237-3.237,3.237-3.237Zm-.648,0-2.589-2.589-2.589,2.589,2.589,2.589Zm-.647,0-1.942,1.942-1.942-1.942,1.942-1.942Zm-.647,0-1.295-1.295-1.294,1.295,1.294,1.295Zm-.647,0-.648.647-.647-.647.647-.648Z" transform="translate(-496.188 -697.243)" fill="#aacff6"/>
    <path id="Path_239731" data-name="Path 239731" d="M579.214,840.69l-3.577,3.577-3.577-3.577,3.577-3.577Zm-.715,0-2.862-2.862-2.862,2.862,2.862,2.862Zm-.715,0-2.146,2.147-2.146-2.147,2.146-2.147Zm-.715,0-1.431-1.431-1.431,1.431,1.431,1.431Zm-.716,0-.716.716-.715-.716.715-.715Z" transform="translate(-494.637 -813.69)" fill="#aacff6"/>
    <path id="Path_239732" data-name="Path 239732" d="M578,939.137l-3.918,3.918-3.918-3.918,3.918-3.918Zm-.783,0L574.083,936l-3.134,3.135,3.134,3.135Zm-.784,0-2.351,2.351-2.351-2.351,2.351-2.351Zm-.784,0-1.568-1.567-1.567,1.567,1.567,1.567Zm-.784,0-.784.784-.784-.784.784-.784Z" transform="translate(-493.083 -930.137)" fill="#aacff6"/>
    <path id="Path_239733" data-name="Path 239733" d="M689.371,53.7l-.721.721-.721-.721.721-.721Zm-.144,0-.577-.577-.577.577.577.577Zm-.144,0-.433.432-.432-.432.432-.432Zm-.144,0-.288-.288-.288.288.288.288Zm-.144,0-.144.144-.144-.144.144-.144Z" transform="translate(-625.65 117.296)" fill="#aacff6"/>
    <path id="Path_239734" data-name="Path 239734" d="M688.346,152.391l-1.009,1.009-1.009-1.009,1.009-1.009Zm-.2,0-.807-.807-.807.807.807.807Zm-.2,0-.6.6-.6-.6.6-.6Zm-.2,0-.4-.4-.4.4.4.4Zm-.2,0-.2.2-.2-.2.2-.2Z" transform="translate(-624.337 0.609)" fill="#aacff6"/>
    <path id="Path_239735" data-name="Path 239735" d="M687.319,251.077l-1.3,1.3-1.3-1.3,1.3-1.3Zm-.26,0-1.038-1.038-1.038,1.038,1.038,1.038Zm-.259,0-.778.778-.779-.778.779-.778Zm-.26,0-.519-.519-.519.519.519.519Zm-.259,0-.259.259-.26-.259.26-.259Z" transform="translate(-623.022 -116.077)" fill="#aacff6"/>
    <path id="Path_239736" data-name="Path 239736" d="M686.3,349.764l-1.586,1.586-1.585-1.586,1.585-1.586Zm-.317,0-1.268-1.268-1.268,1.268,1.268,1.268Zm-.317,0-.951.951-.951-.951.951-.951Zm-.317,0-.634-.634-.634.634.634.634Zm-.317,0-.317.317-.317-.317.317-.317Z" transform="translate(-621.71 -232.764)" fill="#aacff6"/>
    <path id="Path_239737" data-name="Path 239737" d="M685.271,448.451l-1.874,1.874-1.874-1.874,1.874-1.874Zm-.375,0-1.5-1.5-1.5,1.5,1.5,1.5Zm-.375,0-1.124,1.124-1.124-1.124,1.124-1.124Zm-.375,0-.749-.749-.75.749.75.75Zm-.375,0-.375.375-.375-.375.375-.375Z" transform="translate(-620.397 -349.451)" fill="#aacff6"/>
    <path id="Path_239738" data-name="Path 239738" d="M684.245,547.137l-2.162,2.162-2.162-2.162,2.162-2.162Zm-.432,0-1.73-1.729-1.73,1.729,1.73,1.73Zm-.432,0-1.3,1.3-1.3-1.3,1.3-1.3Zm-.433,0-.865-.865-.865.865.865.865Zm-.432,0-.432.432-.432-.432.432-.432Z" transform="translate(-619.083 -466.137)" fill="#aacff6"/>
    <path id="Path_239739" data-name="Path 239739" d="M683.22,645.824l-2.451,2.45-2.45-2.45,2.45-2.45Zm-.49,0-1.96-1.96-1.96,1.96,1.96,1.96Zm-.49,0-1.47,1.47-1.47-1.47,1.47-1.47Zm-.49,0-.98-.98-.98.98.98.98Zm-.49,0-.49.49-.49-.49.49-.49Z" transform="translate(-617.77 -582.824)" fill="#aacff6"/>
    <path id="Path_239740" data-name="Path 239740" d="M682.2,744.511l-2.739,2.739-2.739-2.739,2.739-2.739Zm-.548,0-2.191-2.191-2.191,2.191,2.191,2.191Zm-.548,0-1.643,1.643-1.643-1.643,1.643-1.643Zm-.548,0-1.1-1.1-1.1,1.1,1.1,1.1Zm-.548,0-.548.548-.548-.548.548-.548Z" transform="translate(-616.457 -699.511)" fill="#aacff6"/>
    <path id="Path_239741" data-name="Path 239741" d="M681.17,843.2l-3.027,3.027-3.027-3.027,3.027-3.027Zm-.6,0-2.422-2.421-2.421,2.421,2.421,2.422Zm-.6,0-1.816,1.816-1.816-1.816,1.816-1.816Zm-.6,0-1.211-1.211-1.211,1.211,1.211,1.211Zm-.6,0-.6.606-.6-.606.6-.6Z" transform="translate(-615.143 -816.198)" fill="#aacff6"/>
    <path id="Path_239742" data-name="Path 239742" d="M680.145,941.884,676.83,945.2l-3.315-3.315,3.315-3.315Zm-.663,0-2.652-2.652-2.652,2.652,2.652,2.652Zm-.663,0-1.989,1.989-1.989-1.989,1.989-1.989Zm-.663,0-1.326-1.326-1.326,1.326,1.326,1.326Zm-.663,0-.663.663-.663-.663.663-.663Z" transform="translate(-613.83 -932.884)" fill="#aacff6"/>
    <path id="Path_239743" data-name="Path 239743" d="M789.836,54.3l-.59.59-.59-.59.59-.59Zm-.118,0-.472-.472-.472.472.472.472Zm-.118,0-.354.354-.354-.354.354-.354Zm-.118,0-.236-.236-.236.236.236.236Zm-.118,0-.118.118-.118-.118.118-.118Z" transform="translate(-744.246 116.699)" fill="#aacff6"/>
    <path id="Path_239744" data-name="Path 239744" d="M789,153.226l-.825.825-.826-.825.826-.825Zm-.165,0-.66-.66-.66.66.66.66Zm-.165,0-.5.5-.5-.5.5-.5Zm-.165,0-.33-.33-.331.33.331.33Zm-.165,0-.165.165-.165-.165.165-.165Z" transform="translate(-743.173 -0.227)" fill="#aacff6"/>
    <path id="Path_239745" data-name="Path 239745" d="M788.159,252.151l-1.062,1.061-1.061-1.061,1.061-1.061Zm-.212,0-.849-.849-.849.849.849.849Zm-.213,0-.637.637-.637-.637.637-.637Zm-.212,0-.425-.425-.424.425.424.425Zm-.212,0-.213.212-.212-.212.212-.212Z" transform="translate(-742.098 -117.151)" fill="#aacff6"/>
    <path id="Path_239746" data-name="Path 239746" d="M787.319,351.077l-1.3,1.3-1.3-1.3,1.3-1.3Zm-.26,0-1.038-1.038-1.038,1.038,1.038,1.038Zm-.259,0-.778.778-.779-.778.779-.778Zm-.26,0-.519-.519-.519.519.519.519Zm-.259,0-.259.259-.26-.259.26-.259Z" transform="translate(-741.022 -234.077)" fill="#aacff6"/>
    <path id="Path_239747" data-name="Path 239747" d="M786.48,450l-1.533,1.533L783.414,450l1.533-1.533Zm-.307,0-1.227-1.227L783.72,450l1.227,1.227Zm-.307,0-.92.92-.92-.92.92-.92Zm-.307,0-.613-.613-.613.613.613.613Zm-.307,0-.307.307-.307-.307.307-.307Z" transform="translate(-739.947 -351.002)" fill="#aacff6"/>
    <path id="Path_239748" data-name="Path 239748" d="M785.643,548.928l-1.769,1.769-1.769-1.769,1.769-1.769Zm-.354,0-1.415-1.415-1.415,1.415,1.415,1.415Zm-.354,0-1.061,1.061-1.061-1.061,1.061-1.061Zm-.354,0-.708-.708-.708.708.708.708Zm-.354,0-.354.354-.354-.354.354-.354Z" transform="translate(-738.874 -467.928)" fill="#aacff6"/>
    <path id="Path_239749" data-name="Path 239749" d="M784.8,647.853l-2,2.005-2-2.005,2-2.005Zm-.4,0-1.6-1.6-1.6,1.6,1.6,1.6Zm-.4,0-1.2,1.2-1.2-1.2,1.2-1.2Zm-.4,0-.8-.8-.8.8.8.8Zm-.4,0-.4.4-.4-.4.4-.4Z" transform="translate(-737.799 -584.853)" fill="#aacff6"/>
    <path id="Path_239750" data-name="Path 239750" d="M783.965,746.779l-2.241,2.241-2.241-2.241,2.241-2.241Zm-.448,0-1.793-1.793-1.793,1.793,1.793,1.792Zm-.448,0-1.344,1.344-1.345-1.344,1.345-1.345Zm-.448,0-.9-.9-.9.9.9.9Zm-.448,0-.448.448-.448-.448.448-.448Z" transform="translate(-736.724 -701.779)" fill="#aacff6"/>
    <path id="Path_239751" data-name="Path 239751" d="M783.127,845.7l-2.477,2.477-2.477-2.477,2.477-2.477Zm-.5,0-1.982-1.981-1.982,1.981,1.982,1.982Zm-.5,0-1.486,1.486-1.486-1.486,1.486-1.486Zm-.5,0-.991-.991-.991.991.991.991Zm-.5,0-.5.5-.5-.5.5-.5Z" transform="translate(-735.651 -818.705)" fill="#aacff6"/>
    <path id="Path_239752" data-name="Path 239752" d="M782.288,944.63l-2.713,2.713-2.713-2.713,2.713-2.712Zm-.543,0-2.17-2.17-2.17,2.17,2.17,2.17Zm-.542,0-1.628,1.628-1.628-1.628,1.629-1.63Zm-.543,0-1.085-1.085-1.085,1.085,1.085,1.085Zm-.542,0-.542.543-.542-.543.542-.542Z" transform="translate(-734.576 -935.63)" fill="#aacff6"/>
    <path id="Path_239753" data-name="Path 239753" d="M890.3,54.9l-.459.459-.459-.459.459-.459Zm-.092,0-.367-.367-.367.367.367.367Zm-.092,0-.275.275-.275-.275.275-.275Zm-.092,0-.184-.183-.183.183.183.183Zm-.092,0-.092.092-.092-.092.092-.092Z" transform="translate(-862.844 116.102)" fill="#aacff6"/>
    <path id="Path_239754" data-name="Path 239754" d="M889.649,154.062l-.642.642-.642-.642.642-.642Zm-.129,0-.514-.514-.513.514.513.514Zm-.128,0-.385.385-.385-.385.385-.385Zm-.128,0-.257-.257-.257.257.257.257Zm-.129,0-.128.128-.128-.128.128-.128Z" transform="translate(-862.007 -1.062)" fill="#aacff6"/>
    <path id="Path_239755" data-name="Path 239755" d="M889,253.226l-.826.825-.825-.825.825-.825Zm-.165,0-.661-.66-.66.66.66.66Zm-.165,0-.5.5-.5-.5.5-.5Zm-.165,0-.33-.33-.33.33.33.33Zm-.165,0-.165.165-.165-.165.165-.165Z" transform="translate(-861.173 -118.227)" fill="#aacff6"/>
    <path id="Path_239756" data-name="Path 239756" d="M888.346,352.391l-1.009,1.009-1.009-1.009,1.009-1.009Zm-.2,0-.807-.807-.807.807.807.807Zm-.2,0-.6.605-.6-.605.6-.605Zm-.2,0-.4-.4-.4.4.4.4Zm-.2,0-.2.2-.2-.2.2-.2Z" transform="translate(-860.337 -235.391)" fill="#aacff6"/>
    <path id="Path_239757" data-name="Path 239757" d="M887.692,451.554l-1.192,1.193-1.193-1.193,1.193-1.193Zm-.239,0-.954-.954-.954.954.954.954Zm-.239,0-.715.716-.716-.716.716-.715Zm-.238,0-.477-.477-.477.477.477.477Zm-.238,0-.239.239-.239-.239.239-.239Z" transform="translate(-859.5 -352.554)" fill="#aacff6"/>
    <path id="Path_239758" data-name="Path 239758" d="M887.041,550.719l-1.376,1.376-1.376-1.376,1.376-1.376Zm-.275,0-1.1-1.1-1.1,1.1,1.1,1.1Zm-.275,0-.826.825-.826-.825.826-.825Zm-.275,0-.55-.551-.551.551.551.55Zm-.275,0-.275.275-.275-.275.275-.275Z" transform="translate(-858.665 -469.719)" fill="#aacff6"/>
    <path id="Path_239759" data-name="Path 239759" d="M886.388,649.883l-1.559,1.559-1.56-1.559,1.56-1.559Zm-.312,0-1.247-1.247-1.248,1.247,1.248,1.248Zm-.312,0-.936.936-.936-.936.936-.936Zm-.312,0-.623-.624-.624.624.624.624Zm-.312,0-.312.312-.312-.312.312-.312Z" transform="translate(-857.829 -586.883)" fill="#aacff6"/>
    <path id="Path_239760" data-name="Path 239760" d="M885.736,749.047l-1.743,1.743-1.743-1.743,1.743-1.743Zm-.349,0-1.394-1.394-1.394,1.394,1.394,1.394Zm-.349,0-1.046,1.046-1.046-1.046L883.993,748Zm-.349,0-.7-.7-.7.7.7.7Zm-.349,0-.349.349-.349-.349.349-.348Z" transform="translate(-856.993 -704.047)" fill="#aacff6"/>
    <path id="Path_239761" data-name="Path 239761" d="M885.083,848.212l-1.926,1.926-1.926-1.926,1.926-1.926Zm-.385,0-1.541-1.541-1.541,1.541,1.541,1.541Zm-.385,0-1.156,1.156L882,848.212l1.156-1.156Zm-.385,0-.771-.771-.77.771.77.77Zm-.385,0-.385.385-.385-.385.385-.385Z" transform="translate(-856.157 -821.212)" fill="#aacff6"/>
    <path id="Path_239762" data-name="Path 239762" d="M884.431,947.376l-2.11,2.11-2.11-2.11,2.11-2.11Zm-.422,0-1.688-1.688-1.688,1.688,1.688,1.688Zm-.422,0-1.266,1.266-1.266-1.266,1.266-1.266Zm-.422,0-.844-.844-.844.844.844.844Zm-.422,0-.422.422-.422-.422.422-.422Z" transform="translate(-855.322 -938.376)" fill="#aacff6"/>
    <path id="Path_239763" data-name="Path 239763" d="M990.767,55.495l-.328.328-.328-.328.328-.328Zm-.066,0-.262-.262-.262.262.262.262Zm-.066,0-.2.2-.2-.2.2-.2Zm-.065,0-.131-.131-.131.131.131.131Zm-.065,0-.065.066-.066-.066.066-.066Z" transform="translate(-981.44 115.505)" fill="#aacff6"/>
    <path id="Path_239764" data-name="Path 239764" d="M990.3,154.9l-.459.459-.459-.459.459-.459Zm-.092,0-.367-.367-.367.367.367.367Zm-.091,0-.275.275-.275-.275.275-.275Zm-.092,0-.184-.183-.183.183.183.183Zm-.092,0-.092.092-.092-.092.092-.092Z" transform="translate(-980.844 -1.898)" fill="#aacff6"/>
    <path id="Path_239765" data-name="Path 239765" d="M989.835,254.3l-.59.59-.59-.59.59-.59Zm-.118,0-.472-.472-.472.472.472.472Zm-.118,0-.354.354-.354-.354.354-.354Zm-.118,0-.236-.236-.236.236.236.236Zm-.118,0-.118.118-.118-.118.118-.118Z" transform="translate(-980.246 -119.301)" fill="#aacff6"/>
    <path id="Path_239766" data-name="Path 239766" d="M989.37,353.7l-.721.721-.721-.721.721-.721Zm-.144,0-.576-.576-.577.576.577.577Zm-.144,0-.432.432-.432-.432.432-.432Zm-.144,0-.288-.288-.288.288.288.288Zm-.144,0-.144.144-.144-.144.144-.144Z" transform="translate(-979.65 -236.704)" fill="#aacff6"/>
    <path id="Path_239767" data-name="Path 239767" d="M988.9,453.107l-.852.852-.852-.852.852-.852Zm-.171,0-.681-.681-.681.681.681.681Zm-.17,0-.511.511-.511-.511.511-.511Zm-.171,0-.34-.341-.341.341.341.341Zm-.17,0-.17.17-.171-.17.171-.17Z" transform="translate(-979.052 -354.107)" fill="#aacff6"/>
    <path id="Path_239768" data-name="Path 239768" d="M988.439,552.51l-.983.983-.983-.983.983-.983Zm-.2,0-.786-.786-.786.786.786.786Zm-.2,0-.59.59-.59-.59.59-.59Zm-.2,0-.393-.393-.393.393.393.393Zm-.2,0-.2.2-.2-.2.2-.2Z" transform="translate(-978.456 -471.51)" fill="#aacff6"/>
    <path id="Path_239769" data-name="Path 239769" d="M987.972,651.912l-1.114,1.114-1.114-1.114,1.114-1.114Zm-.223,0-.891-.891-.891.891.891.891Zm-.223,0-.668.668-.668-.668.668-.668Zm-.223,0-.445-.446-.446.446.446.446Zm-.223,0-.223.223-.223-.223.223-.223Z" transform="translate(-977.859 -588.912)" fill="#aacff6"/>
    <path id="Path_239770" data-name="Path 239770" d="M987.507,751.316l-1.245,1.245-1.245-1.245,1.245-1.245Zm-.249,0-1-1-1,1,1,1Zm-.249,0-.747.747-.747-.747.747-.747Zm-.249,0-.5-.5-.5.5.5.5Zm-.249,0-.249.249-.249-.249.249-.249Z" transform="translate(-977.262 -706.316)" fill="#aacff6"/>
    <path id="Path_239771" data-name="Path 239771" d="M987.041,850.719l-1.376,1.376-1.376-1.376,1.376-1.376Zm-.275,0-1.1-1.1-1.1,1.1,1.1,1.1Zm-.275,0-.826.825-.825-.825.825-.826Zm-.275,0-.55-.55-.55.55.55.55Zm-.275,0-.275.275-.275-.275.275-.275Z" transform="translate(-976.665 -823.719)" fill="#aacff6"/>
    <path id="Path_239772" data-name="Path 239772" d="M986.575,950.122l-1.507,1.507-1.507-1.507,1.507-1.507Zm-.3,0-1.206-1.205-1.205,1.205,1.205,1.206Zm-.3,0-.9.9-.9-.9.9-.9Zm-.3,0-.6-.6-.6.6.6.6Zm-.3,0-.3.3-.3-.3.3-.3Z" transform="translate(-976.068 -941.122)" fill="#aacff6"/>
    <path id="Path_239773" data-name="Path 239773" d="M43.191,8.245V7.993l-.252.252Zm-.5,0,.5-.5V7.49l-.755.755Zm-.5,0L43.2,7.239V6.987L41.933,8.245Z" transform="translate(136.809 171.755)" fill="#aacff6"/>
    <path id="Path_239774" data-name="Path 239774" d="M43.82,98.768v-.755l-.377.377Zm0,.755v-.377l-.755-.755.755-.755v-.377l-1.132,1.132Zm0,.755V99.9l-1.51-1.509,1.509-1.51V96.5l-1.887,1.887Z" transform="translate(136.18 63.609)" fill="#aacff6"/>
    <path id="Path_239775" data-name="Path 239775" d="M44.449,196.029v-1.006l-.5.5Zm0,1.006v-.5l-1.006-1.006,1.006-1.006v-.5l-1.509,1.51Zm0,1.006v-.5l-2.013-2.013,2.013-2.013v-.5l-2.516,2.516Z" transform="translate(135.551 -51.526)" fill="#aacff6"/>
    <path id="Path_239776" data-name="Path 239776" d="M45.078,293.289v-1.258l-.629.629Zm0,1.258v-.629L43.82,292.66l1.258-1.258v-.629l-1.887,1.887Zm0,1.258v-.629l-2.516-2.516,2.516-2.516v-.629l-3.145,3.145Z" transform="translate(134.922 -166.66)" fill="#aacff6"/>
    <path id="Path_239777" data-name="Path 239777" d="M45.707,390.55v-1.51l-.755.755Zm0,1.509V391.3L44.2,389.8l1.509-1.51v-.755L43.442,389.8Zm0,1.51v-.755L42.688,389.8l3.019-3.019v-.755L41.933,389.8Z" transform="translate(134.293 -281.795)" fill="#aacff6"/>
    <path id="Path_239778" data-name="Path 239778" d="M46.336,487.81v-1.761l-.88.881Zm0,1.761v-.881l-1.761-1.761,1.761-1.761v-.881l-2.642,2.642Zm0,1.761v-.881l-3.522-3.522,3.522-3.522v-.88l-4.4,4.4Z" transform="translate(133.664 -396.93)" fill="#aacff6"/>
    <path id="Path_239779" data-name="Path 239779" d="M46.965,585.071v-2.013l-1.006,1.006Zm0,2.013v-1.006l-2.013-2.013,2.013-2.013v-1.006l-3.019,3.019Zm0,2.013V588.09l-4.026-4.026,4.026-4.025v-1.006l-5.032,5.032Z" transform="translate(133.035 -512.065)" fill="#aacff6"/>
    <path id="Path_239780" data-name="Path 239780" d="M47.594,682.331v-2.265L46.462,681.2Zm0,2.265v-1.132L45.33,681.2l2.264-2.265V677.8l-3.4,3.4Zm0,2.264v-1.132L43.065,681.2l4.529-4.529v-1.132L41.933,681.2Z" transform="translate(132.406 -627.199)" fill="#aacff6"/>
    <path id="Path_239781" data-name="Path 239781" d="M48.223,779.591v-2.516l-1.258,1.258Zm0,2.516v-1.258l-2.516-2.516,2.516-2.516v-1.258l-3.774,3.774Zm0,2.516v-1.258l-5.032-5.032,5.032-5.032v-1.258l-6.29,6.29Z" transform="translate(131.777 -742.333)" fill="#aacff6"/>
    <path id="Path_239782" data-name="Path 239782" d="M48.852,876.852v-2.768l-1.384,1.384Zm0,2.767v-1.384l-2.768-2.767,2.768-2.767v-1.384L44.7,875.468Zm0,2.767V881l-5.535-5.535,5.535-5.535v-1.384l-6.919,6.919Z" transform="translate(131.148 -857.468)" fill="#aacff6"/>
    <path id="Path_239783" data-name="Path 239783" d="M49.481,966.563v-1.509h-1.51Zm0,3.02v-1.51l-3.019-3.019h-1.51Zm0,3.019v-1.51l-6.038-6.038h-1.51Z" transform="translate(130.519 -965.054)" fill="#aacff6"/>
    <path id="Path_239784" data-name="Path 239784" d="M136.91,8.14l-.231-.231-.231.231Zm-.692,0,.461-.461.461.461h.231l-.692-.692-.692.692Zm-.461,0,.923-.923.923.923h.231l-1.153-1.153L135.526,8.14Z" transform="translate(25.321 171.86)" fill="#aacff6"/>
    <path id="Path_239785" data-name="Path 239785" d="M135.783,99.108l-1.73,1.73-1.73-1.73,1.73-1.73Zm-.346,0-1.384-1.384-1.384,1.384,1.384,1.384Zm-.346,0-1.038,1.038-1.038-1.038,1.038-1.038Zm-.346,0-.692-.692-.692.692.692.692Zm-.346,0-.346.346-.346-.346.346-.346Z" transform="translate(27.946 62.892)" fill="#aacff6"/>
    <path id="Path_239786" data-name="Path 239786" d="M133.732,196.48l-2.306,2.306-2.306-2.306,2.306-2.306Zm-.462,0-1.845-1.845-1.845,1.845,1.845,1.845Zm-.461,0-1.384,1.384-1.384-1.384,1.384-1.384Zm-.461,0-.923-.922-.922.922.922.923Zm-.461,0-.461.461-.461-.461.461-.461Z" transform="translate(30.574 -52.48)" fill="#aacff6"/>
    <path id="Path_239787" data-name="Path 239787" d="M131.683,293.854l-2.883,2.883-2.883-2.883,2.883-2.883Zm-.577,0-2.306-2.306-2.306,2.306,2.306,2.306Zm-.577,0-1.729,1.73-1.73-1.73,1.73-1.73Zm-.577,0L128.8,292.7l-1.153,1.153,1.153,1.153Zm-.577,0-.576.577-.577-.577.577-.576Z" transform="translate(33.2 -167.854)" fill="#aacff6"/>
    <path id="Path_239788" data-name="Path 239788" d="M129.633,391.227l-3.459,3.459-3.459-3.459,3.459-3.459Zm-.692,0-2.768-2.767-2.767,2.767,2.767,2.767Zm-.692,0-2.076,2.076-2.076-2.076,2.076-2.076Zm-.692,0-1.384-1.384-1.384,1.384,1.384,1.384Zm-.692,0-.692.692-.692-.692.692-.692Z" transform="translate(35.826 -283.227)" fill="#aacff6"/>
    <path id="Path_239789" data-name="Path 239789" d="M127.582,488.6l-4.036,4.036L119.51,488.6l4.036-4.036Zm-.807,0-3.229-3.229-3.229,3.229,3.229,3.229Zm-.807,0-2.422,2.422-2.422-2.422,2.422-2.422Zm-.807,0-1.614-1.614-1.614,1.614,1.614,1.614Zm-.807,0-.807.807-.807-.807.807-.807Z" transform="translate(38.454 -398.6)" fill="#aacff6"/>
    <path id="Path_239790" data-name="Path 239790" d="M125.532,585.974l-4.613,4.613-4.613-4.613,4.613-4.613Zm-.923,0-3.69-3.69-3.69,3.69,3.69,3.69Zm-.923,0-2.768,2.767-2.768-2.767,2.768-2.768Zm-.923,0-1.845-1.845-1.845,1.845,1.845,1.845Zm-.923,0-.923.922-.922-.922.922-.923Z" transform="translate(41.08 -513.974)" fill="#aacff6"/>
    <path id="Path_239791" data-name="Path 239791" d="M123.482,683.347l-5.189,5.189-5.189-5.189,5.189-5.189Zm-1.038,0-4.151-4.151-4.151,4.151,4.151,4.152Zm-1.038,0-3.114,3.113-3.113-3.113,3.113-3.113Zm-1.038,0-2.076-2.076-2.076,2.076,2.076,2.076Zm-1.038,0-1.038,1.038-1.038-1.038,1.038-1.038Z" transform="translate(43.707 -629.347)" fill="#aacff6"/>
    <path id="Path_239792" data-name="Path 239792" d="M121.432,780.721l-5.766,5.766-5.766-5.766,5.766-5.766Zm-1.153,0-4.613-4.613-4.613,4.613,4.613,4.613Zm-1.153,0-3.459,3.459-3.459-3.459,3.459-3.459Zm-1.153,0-2.306-2.306-2.306,2.306,2.306,2.306Zm-1.153,0-1.153,1.153-1.153-1.153,1.153-1.153Z" transform="translate(46.334 -744.721)" fill="#aacff6"/>
    <path id="Path_239793" data-name="Path 239793" d="M119.383,878.094l-6.342,6.342-6.342-6.342,6.342-6.342Zm-1.268,0-5.074-5.074-5.074,5.074,5.074,5.074Zm-1.268,0L113.04,881.9l-3.805-3.806,3.805-3.8Zm-1.268,0-2.537-2.537-2.537,2.537,2.537,2.537Zm-1.268,0-1.268,1.268-1.268-1.268,1.268-1.268Z" transform="translate(48.959 -860.094)" fill="#aacff6"/>
    <path id="Path_239794" data-name="Path 239794" d="M111.8,968.549h-2.768l1.384,1.384Zm2.767,0h-1.384l-2.768,2.767-2.768-2.767h-1.383l4.151,4.151Zm2.768,0h-1.384l-5.535,5.535-5.535-5.535H103.5l6.919,6.919Z" transform="translate(51.587 -968.549)" fill="#aacff6"/>
    <path id="Path_239795" data-name="Path 239795" d="M237.367,8.035l-.21-.21-.21.21Zm-.629,0,.419-.42.419.42h.21l-.629-.629-.629.629Zm-.419,0,.839-.839.839.839h.21l-1.048-1.048-1.048,1.048Z" transform="translate(-93.158 171.964)" fill="#aacff6"/>
    <path id="Path_239796" data-name="Path 239796" d="M236.341,99.823l-1.572,1.572L233.2,99.823l1.572-1.572Zm-.314,0-1.258-1.258-1.258,1.258,1.258,1.258Zm-.314,0-.944.944-.944-.944.944-.944Zm-.315,0-.629-.629-.629.629.629.629Zm-.315,0-.314.314-.314-.314.314-.314Z" transform="translate(-90.769 62.176)" fill="#aacff6"/>
    <path id="Path_239797" data-name="Path 239797" d="M234.478,197.436l-2.1,2.1-2.1-2.1,2.1-2.1Zm-.419,0-1.677-1.677-1.677,1.677,1.677,1.677Zm-.419,0-1.258,1.258-1.258-1.258,1.258-1.258Zm-.419,0-.839-.839-.839.839.839.839Zm-.419,0-.419.419-.419-.419.419-.419Z" transform="translate(-88.382 -53.436)" fill="#aacff6"/>
    <path id="Path_239798" data-name="Path 239798" d="M232.614,295.048l-2.621,2.621-2.621-2.621,2.621-2.621Zm-.524,0-2.1-2.1-2.1,2.1,2.1,2.1Zm-.524,0-1.572,1.573-1.573-1.573,1.573-1.572Zm-.524,0L229.993,294l-1.048,1.048,1.048,1.048Zm-.524,0-.524.524-.524-.524.524-.524Z" transform="translate(-85.993 -169.048)" fill="#aacff6"/>
    <path id="Path_239799" data-name="Path 239799" d="M230.75,392.66l-3.15,3.14-3.145-3.145,3.145-3.145Zm-.629,0-2.516-2.516-2.516,2.516,2.516,2.516Zm-.629,0-1.887,1.887-1.887-1.887,1.887-1.887Zm-.629,0L227.6,391.4l-1.258,1.258,1.258,1.258Zm-.629,0-.629.629-.629-.629.629-.629Z" transform="translate(-83.605 -284.66)" fill="#aacff6"/>
    <path id="Path_239800" data-name="Path 239800" d="M228.887,490.272l-3.669,3.669-3.669-3.669,3.669-3.669Zm-.734,0-2.935-2.935-2.935,2.935,2.935,2.935Zm-.734,0-2.2,2.2-2.2-2.2,2.2-2.2Zm-.734,0-1.468-1.468-1.467,1.468,1.467,1.468Zm-.734,0-.734.734-.734-.734.734-.734Z" transform="translate(-81.218 -400.272)" fill="#aacff6"/>
    <path id="Path_239801" data-name="Path 239801" d="M227.023,587.884l-4.193,4.193-4.193-4.193,4.193-4.193Zm-.839,0-3.355-3.355-3.355,3.355,3.355,3.355Zm-.839,0-2.516,2.516-2.516-2.516,2.516-2.516Zm-.839,0-1.677-1.677-1.677,1.677,1.677,1.677Zm-.839,0-.839.839-.839-.839.839-.839Z" transform="translate(-78.829 -515.884)" fill="#aacff6"/>
    <path id="Path_239802" data-name="Path 239802" d="M225.16,685.5l-4.717,4.717-4.717-4.717,4.717-4.717Zm-.943,0-3.774-3.774-3.774,3.774,3.774,3.774Zm-.944,0-2.83,2.83-2.83-2.83,2.83-2.831Zm-.943,0-1.887-1.887-1.887,1.887,1.887,1.887Zm-.944,0-.944.943-.943-.943.943-.943Z" transform="translate(-76.443 -631.496)" fill="#aacff6"/>
    <path id="Path_239803" data-name="Path 239803" d="M223.3,783.109l-5.242,5.242-5.242-5.242,5.242-5.242Zm-1.048,0-4.193-4.193-4.193,4.193,4.193,4.193Zm-1.048,0-3.145,3.145-3.145-3.145,3.145-3.145Zm-1.048,0-2.1-2.1-2.1,2.1,2.1,2.1Zm-1.048,0-1.048,1.048-1.048-1.048,1.048-1.048Z" transform="translate(-74.054 -747.109)" fill="#aacff6"/>
    <path id="Path_239804" data-name="Path 239804" d="M221.432,880.721l-5.766,5.766-5.766-5.766,5.766-5.766Zm-1.153,0-4.613-4.613-4.613,4.613,4.613,4.613Zm-1.153,0-3.459,3.459-3.459-3.459,3.459-3.459Zm-1.153,0-2.306-2.306-2.306,2.306,2.306,2.306Zm-1.153,0-1.153,1.153-1.153-1.153,1.153-1.153Z" transform="translate(-71.666 -862.721)" fill="#aacff6"/>
    <path id="Path_239805" data-name="Path 239805" d="M214.537,972.043h-2.516l1.258,1.258Zm2.516,0H215.8l-2.516,2.516-2.516-2.516H209.5l3.774,3.774Zm2.516,0h-1.258l-5.032,5.032-5.032-5.032h-1.258l6.29,6.29Z" transform="translate(-69.279 -972.043)" fill="#aacff6"/>
    <path id="Path_239806" data-name="Path 239806" d="M337.823,7.931l-.189-.189-.189.189Zm-.566,0,.378-.377.378.377h.189l-.566-.566-.566.566Zm-.377,0,.755-.755.755.755h.189l-.944-.944-.944.944Z" transform="translate(-211.635 172.069)" fill="#aacff6"/>
    <path id="Path_239807" data-name="Path 239807" d="M336.9,100.54l-1.415,1.415-1.415-1.415,1.415-1.415Zm-.283,0-1.132-1.132-1.132,1.132,1.132,1.132Zm-.283,0-.849.849-.849-.849.849-.849Zm-.283,0-.566-.566-.566.566.566.566Zm-.283,0-.283.283-.283-.283.283-.283Z" transform="translate(-209.485 61.46)" fill="#aacff6"/>
    <path id="Path_239808" data-name="Path 239808" d="M335.223,198.391l-1.887,1.887-1.887-1.887,1.887-1.887Zm-.378,0-1.51-1.51-1.509,1.51,1.509,1.51Zm-.377,0-1.132,1.132-1.132-1.132,1.132-1.132Zm-.377,0-.755-.755-.755.755.755.755Zm-.377,0-.378.377-.377-.377.377-.377Z" transform="translate(-207.336 -54.391)" fill="#aacff6"/>
    <path id="Path_239809" data-name="Path 239809" d="M333.546,296.242l-2.359,2.359-2.359-2.359,2.359-2.359Zm-.472,0-1.887-1.887-1.887,1.887,1.887,1.887Zm-.472,0-1.415,1.415-1.415-1.415,1.415-1.415Zm-.472,0-.944-.944-.943.944.943.944Zm-.472,0-.472.472-.472-.472.472-.472Z" transform="translate(-205.188 -170.242)" fill="#aacff6"/>
    <path id="Path_239810" data-name="Path 239810" d="M331.869,394.092l-2.831,2.831-2.83-2.831,2.83-2.83Zm-.566,0-2.264-2.264-2.264,2.264,2.264,2.264Zm-.566,0-1.7,1.7-1.7-1.7,1.7-1.7Zm-.566,0-1.132-1.132-1.132,1.132,1.132,1.132Zm-.566,0-.566.566-.566-.566.566-.566Z" transform="translate(-203.039 -286.092)" fill="#aacff6"/>
    <path id="Path_239811" data-name="Path 239811" d="M330.192,491.943l-3.3,3.3-3.3-3.3,3.3-3.3Zm-.661,0-2.642-2.642-2.642,2.642,2.642,2.642Zm-.66,0-1.981,1.981-1.981-1.981,1.981-1.981Zm-.66,0-1.321-1.321-1.321,1.321,1.321,1.321Zm-.66,0-.66.66-.66-.66.66-.66Z" transform="translate(-200.89 -401.943)" fill="#aacff6"/>
    <path id="Path_239812" data-name="Path 239812" d="M328.514,589.794l-3.774,3.774-3.774-3.774,3.774-3.774Zm-.755,0-3.019-3.019-3.019,3.019,3.019,3.019Zm-.755,0-2.264,2.264-2.264-2.264,2.264-2.264Zm-.755,0-1.51-1.51-1.51,1.51,1.51,1.51Zm-.755,0-.755.755-.755-.755.755-.755Z" transform="translate(-198.74 -517.794)" fill="#aacff6"/>
    <path id="Path_239813" data-name="Path 239813" d="M326.836,687.646l-4.246,4.246-4.246-4.246,4.246-4.246Zm-.849,0-3.4-3.4-3.4,3.4,3.4,3.4Zm-.849,0-2.547,2.547-2.547-2.547,2.547-2.547Zm-.849,0-1.7-1.7-1.7,1.7,1.7,1.7Zm-.849,0-.849.849-.849-.849.849-.849Z" transform="translate(-196.591 -633.646)" fill="#aacff6"/>
    <path id="Path_239814" data-name="Path 239814" d="M325.16,785.5l-4.717,4.718-4.717-4.718,4.717-4.717Zm-.943,0-3.774-3.774-3.774,3.774,3.774,3.774Zm-.944,0-2.831,2.83-2.83-2.83,2.83-2.831Zm-.943,0-1.887-1.887-1.887,1.887,1.887,1.887Zm-.944,0-.944.943-.943-.943.943-.943Z" transform="translate(-194.443 -749.496)" fill="#aacff6"/>
    <path id="Path_239815" data-name="Path 239815" d="M323.482,883.347l-5.189,5.189-5.189-5.189,5.189-5.189Zm-1.038,0-4.151-4.151-4.151,4.151,4.151,4.151Zm-1.038,0-3.114,3.114-3.113-3.114,3.113-3.114Zm-1.038,0-2.076-2.076-2.076,2.076,2.076,2.076Zm-1.038,0-1.038,1.038-1.038-1.038,1.038-1.038Z" transform="translate(-192.294 -865.347)" fill="#aacff6"/>
    <path id="Path_239816" data-name="Path 239816" d="M317.276,975.538h-2.264l1.132,1.132Zm2.264,0h-1.132l-2.265,2.265-2.264-2.265h-1.132l3.4,3.4Zm2.264,0h-1.132l-4.529,4.529-4.529-4.529h-1.132l5.661,5.661Z" transform="translate(-190.144 -975.538)" fill="#aacff6"/>
    <path id="Path_239817" data-name="Path 239817" d="M438.279,7.826l-.168-.168-.168.168Zm-.5,0,.336-.336.335.336h.168l-.5-.5-.5.5Zm-.335,0,.671-.671.671.671h.168l-.839-.839-.839.839Z" transform="translate(-330.112 172.174)" fill="#aacff6"/>
    <path id="Path_239818" data-name="Path 239818" d="M437.459,101.256l-1.258,1.258-1.258-1.258L436.2,100Zm-.252,0L436.2,100.25l-1.006,1.006,1.006,1.006Zm-.251,0-.755.755-.755-.755.755-.755Zm-.252,0-.5-.5-.5.5.5.5Zm-.252,0-.251.252-.252-.252L436.2,101Z" transform="translate(-328.201 60.744)" fill="#aacff6"/>
    <path id="Path_239819" data-name="Path 239819" d="M435.969,199.346l-1.677,1.677-1.677-1.677,1.677-1.677Zm-.335,0L434.291,198l-1.342,1.342,1.342,1.342Zm-.336,0-1.006,1.006-1.006-1.006,1.006-1.006Zm-.336,0-.671-.671-.671.671.671.671Zm-.336,0-.335.336-.335-.336.335-.335Z" transform="translate(-326.292 -55.346)" fill="#aacff6"/>
    <path id="Path_239820" data-name="Path 239820" d="M434.477,297.436l-2.1,2.1-2.1-2.1,2.1-2.1Zm-.42,0-1.677-1.677-1.677,1.677,1.677,1.677Zm-.419,0-1.258,1.258-1.258-1.258,1.258-1.258Zm-.419,0-.839-.839-.839.839.839.839Zm-.419,0-.419.419-.419-.419.419-.419Z" transform="translate(-324.381 -171.436)" fill="#aacff6"/>
    <path id="Path_239821" data-name="Path 239821" d="M432.987,395.526l-2.516,2.516-2.516-2.516,2.516-2.516Zm-.5,0-2.013-2.013-2.013,2.013,2.013,2.013Zm-.5,0-1.51,1.51-1.51-1.51,1.51-1.51Zm-.5,0-1.006-1.006-1.006,1.006,1.006,1.006Zm-.5,0-.5.5-.5-.5.5-.5Z" transform="translate(-322.471 -287.526)" fill="#aacff6"/>
    <path id="Path_239822" data-name="Path 239822" d="M431.5,493.614l-2.935,2.935-2.935-2.935,2.935-2.935Zm-.587,0-2.348-2.348-2.348,2.348,2.348,2.348Zm-.587,0-1.761,1.761-1.761-1.761,1.761-1.761Zm-.587,0-1.174-1.174-1.174,1.174,1.174,1.174Zm-.587,0-.587.587-.587-.587.587-.587Z" transform="translate(-320.561 -403.614)" fill="#aacff6"/>
    <path id="Path_239823" data-name="Path 239823" d="M430.005,591.7l-3.354,3.355L423.3,591.7l3.355-3.355Zm-.671,0-2.684-2.684-2.684,2.684,2.684,2.684Zm-.671,0-2.013,2.013-2.013-2.013,2.013-2.013Zm-.671,0-1.342-1.342-1.342,1.342,1.342,1.342Zm-.671,0-.671.671-.671-.671.671-.671Z" transform="translate(-318.651 -519.705)" fill="#aacff6"/>
    <path id="Path_239824" data-name="Path 239824" d="M428.514,689.794l-3.774,3.774-3.774-3.774,3.774-3.774Zm-.755,0-3.019-3.019-3.019,3.019,3.019,3.019Zm-.755,0-2.264,2.264-2.264-2.264,2.264-2.264Zm-.755,0-1.509-1.51-1.51,1.51,1.51,1.51Zm-.755,0-.755.755-.755-.755.755-.755Z" transform="translate(-316.74 -635.794)" fill="#aacff6"/>
    <path id="Path_239825" data-name="Path 239825" d="M427.023,787.884l-4.193,4.193-4.193-4.193,4.193-4.193Zm-.839,0-3.355-3.355-3.355,3.355,3.355,3.355Zm-.839,0-2.516,2.516-2.516-2.516,2.516-2.516Zm-.839,0-1.677-1.677-1.677,1.677,1.677,1.677Zm-.839,0-.839.839-.839-.839.839-.839Z" transform="translate(-314.829 -751.884)" fill="#aacff6"/>
    <path id="Path_239826" data-name="Path 239826" d="M425.532,885.974l-4.613,4.613-4.613-4.613,4.613-4.613Zm-.923,0-3.69-3.69-3.69,3.69,3.69,3.69Zm-.922,0-2.768,2.767-2.768-2.767,2.768-2.767Zm-.923,0-1.845-1.845-1.845,1.845,1.845,1.845Zm-.923,0-.922.922-.923-.922.923-.923Z" transform="translate(-312.92 -867.974)" fill="#aacff6"/>
    <path id="Path_239827" data-name="Path 239827" d="M420.016,979.032H418l1.006,1.006Zm2.013,0h-1.006l-2.013,2.013L417,979.032h-1.007l3.019,3.019Zm2.013,0h-1.006l-4.026,4.026-4.026-4.026h-1.006l5.032,5.032Z" transform="translate(-311.01 -979.032)" fill="#aacff6"/>
    <path id="Path_239828" data-name="Path 239828" d="M538.736,7.721l-.147-.147-.147.147Zm-.44,0,.294-.294.294.294h.147l-.44-.44-.441.44Zm-.294,0,.587-.587.587.587h.147l-.734-.734-.734.734Z" transform="translate(-448.589 172.279)" fill="#aacff6"/>
    <path id="Path_239829" data-name="Path 239829" d="M538.019,101.973l-1.1,1.1-1.1-1.1,1.1-1.1Zm-.22,0-.881-.881-.88.881.88.881Zm-.22,0-.661.66-.66-.66.66-.66Zm-.22,0-.441-.44-.44.44.44.44Zm-.22,0-.22.22-.22-.22.22-.22Z" transform="translate(-446.918 60.027)" fill="#aacff6"/>
    <path id="Path_239830" data-name="Path 239830" d="M536.715,200.3l-1.468,1.468L533.78,200.3l1.468-1.468Zm-.293,0-1.174-1.174-1.174,1.174,1.174,1.174Zm-.293,0-.881.881-.881-.881.881-.881Zm-.294,0-.587-.587-.587.587.587.587Zm-.294,0-.294.294-.294-.294.294-.294Z" transform="translate(-445.248 -56.301)" fill="#aacff6"/>
    <path id="Path_239831" data-name="Path 239831" d="M535.409,298.63l-1.834,1.835-1.835-1.835,1.835-1.835Zm-.367,0-1.468-1.468-1.467,1.468,1.467,1.468Zm-.367,0-1.1,1.1-1.1-1.1,1.1-1.1Zm-.367,0-.734-.734-.734.734.734.734Zm-.367,0-.367.367-.367-.367.367-.367Z" transform="translate(-443.575 -172.63)" fill="#aacff6"/>
    <path id="Path_239832" data-name="Path 239832" d="M534.1,396.958l-2.2,2.2-2.2-2.2,2.2-2.2Zm-.44,0L531.9,395.2l-1.761,1.761,1.761,1.761Zm-.44,0-1.321,1.321-1.321-1.321,1.321-1.321Zm-.44,0-.881-.881-.881.881.881.881Zm-.44,0-.44.44-.441-.44.441-.44Z" transform="translate(-441.904 -288.959)" fill="#aacff6"/>
    <path id="Path_239833" data-name="Path 239833" d="M532.8,495.286l-2.568,2.568-2.568-2.568,2.568-2.568Zm-.514,0-2.055-2.055-2.055,2.055,2.055,2.055Zm-.514,0-1.541,1.541-1.541-1.541,1.541-1.541Zm-.514,0-1.027-1.027-1.027,1.027,1.027,1.027Zm-.514,0-.514.514-.514-.514.514-.514Z" transform="translate(-440.233 -405.286)" fill="#aacff6"/>
    <path id="Path_239834" data-name="Path 239834" d="M531.5,593.615l-2.935,2.935-2.935-2.935,2.935-2.935Zm-.587,0-2.348-2.348-2.348,2.348,2.348,2.348Zm-.587,0-1.761,1.761-1.761-1.761,1.761-1.761Zm-.587,0-1.174-1.174-1.174,1.174,1.174,1.174Zm-.587,0-.587.587-.587-.587.587-.587Z" transform="translate(-438.561 -521.615)" fill="#aacff6"/>
    <path id="Path_239835" data-name="Path 239835" d="M530.192,691.943l-3.3,3.3-3.3-3.3,3.3-3.3Zm-.66,0L526.89,689.3l-2.642,2.642,2.642,2.642Zm-.66,0-1.982,1.981-1.981-1.981,1.981-1.981Zm-.661,0-1.321-1.321-1.321,1.321,1.321,1.321Zm-.66,0-.661.66-.66-.66.66-.66Z" transform="translate(-436.889 -637.943)" fill="#aacff6"/>
    <path id="Path_239836" data-name="Path 239836" d="M528.887,790.272l-3.669,3.669-3.669-3.669,3.669-3.669Zm-.734,0-2.935-2.935-2.935,2.935,2.935,2.935Zm-.734,0-2.2,2.2-2.2-2.2,2.2-2.2Zm-.734,0-1.468-1.468-1.468,1.468,1.468,1.468Zm-.734,0-.734.734-.734-.734.734-.734Z" transform="translate(-435.218 -754.272)" fill="#aacff6"/>
    <path id="Path_239837" data-name="Path 239837" d="M527.582,888.6l-4.036,4.036L519.51,888.6l4.036-4.036Zm-.807,0-3.229-3.229-3.229,3.229,3.229,3.229Zm-.807,0-2.422,2.421-2.422-2.421,2.422-2.422Zm-.807,0-1.614-1.614-1.614,1.614,1.614,1.614Zm-.807,0-.807.807-.807-.807.807-.807Z" transform="translate(-433.546 -870.6)" fill="#aacff6"/>
    <path id="Path_239838" data-name="Path 239838" d="M522.756,982.526h-1.761l.881.881Zm1.761,0h-.881l-1.761,1.761-1.761-1.761h-.88l2.642,2.642Zm1.761,0H525.4l-3.522,3.522-3.522-3.522h-.881l4.4,4.4Z" transform="translate(-431.875 -982.526)" fill="#aacff6"/>
    <path id="Path_239839" data-name="Path 239839" d="M639.193,7.616l-.126-.126-.126.126Zm-.377,0,.251-.252.252.252h.126l-.377-.377-.377.377Zm-.252,0,.5-.5.5.5h.126l-.629-.629-.629.629Z" transform="translate(-567.067 172.384)" fill="#aacff6"/>
    <path id="Path_239840" data-name="Path 239840" d="M638.579,102.689l-.943.944-.943-.944.943-.944Zm-.188,0-.755-.755-.755.755.755.755Zm-.189,0-.566.566-.566-.566.566-.566Zm-.189,0-.378-.377-.377.377.377.377Zm-.189,0-.189.189-.189-.189.189-.189Z" transform="translate(-565.636 59.311)" fill="#aacff6"/>
    <path id="Path_239841" data-name="Path 239841" d="M637.459,201.256l-1.258,1.258-1.258-1.258L636.2,200Zm-.252,0L636.2,200.25l-1.006,1.006,1.006,1.006Zm-.251,0-.755.755-.755-.755.755-.755Zm-.252,0-.5-.5-.5.5.5.5Zm-.252,0-.252.252-.251-.252L636.2,201Z" transform="translate(-564.201 -57.256)" fill="#aacff6"/>
    <path id="Path_239842" data-name="Path 239842" d="M636.341,299.823l-1.573,1.572-1.572-1.572,1.572-1.572Zm-.315,0-1.258-1.258-1.258,1.258,1.258,1.258Zm-.314,0-.943.944-.943-.944.943-.944Zm-.315,0-.629-.629-.629.629.629.629Zm-.314,0-.315.314-.314-.314.314-.314Z" transform="translate(-562.769 -173.824)" fill="#aacff6"/>
    <path id="Path_239843" data-name="Path 239843" d="M635.223,398.391l-1.887,1.887-1.887-1.887,1.887-1.887Zm-.377,0-1.51-1.51-1.51,1.51,1.51,1.51Zm-.378,0-1.132,1.132-1.132-1.132,1.132-1.132Zm-.377,0-.755-.755-.755.755.755.755Zm-.378,0-.377.377-.377-.377.377-.378Z" transform="translate(-561.336 -290.391)" fill="#aacff6"/>
    <path id="Path_239844" data-name="Path 239844" d="M634.1,496.959l-2.2,2.2-2.2-2.2,2.2-2.2Zm-.44,0L631.9,495.2l-1.761,1.761,1.761,1.761Zm-.44,0L631.9,498.28l-1.321-1.321,1.321-1.321Zm-.44,0-.88-.881-.881.881.881.881Zm-.44,0-.44.44-.441-.44.441-.44Z" transform="translate(-559.904 -406.959)" fill="#aacff6"/>
    <path id="Path_239845" data-name="Path 239845" d="M632.987,595.525l-2.516,2.516-2.516-2.516,2.516-2.516Zm-.5,0-2.013-2.013-2.012,2.013,2.012,2.013Zm-.5,0-1.51,1.51-1.51-1.51,1.51-1.51Zm-.5,0-1.007-1.006-1.006,1.006,1.006,1.006Zm-.5,0-.5.5-.5-.5.5-.5Z" transform="translate(-558.471 -523.525)" fill="#aacff6"/>
    <path id="Path_239846" data-name="Path 239846" d="M631.869,694.093l-2.83,2.83-2.83-2.83,2.83-2.831Zm-.566,0-2.265-2.264-2.264,2.264,2.264,2.264Zm-.566,0-1.7,1.7-1.7-1.7,1.7-1.7Zm-.566,0-1.132-1.132-1.132,1.132,1.132,1.132Zm-.566,0-.566.566-.566-.566.566-.566Z" transform="translate(-557.039 -640.092)" fill="#aacff6"/>
    <path id="Path_239847" data-name="Path 239847" d="M630.75,792.66,627.6,795.8l-3.145-3.145,3.145-3.145Zm-.629,0-2.516-2.516-2.516,2.516,2.516,2.516Zm-.629,0-1.887,1.887-1.887-1.887,1.887-1.887Zm-.629,0L627.6,791.4l-1.258,1.258,1.258,1.258Zm-.629,0-.629.629-.629-.629.629-.629Z" transform="translate(-555.605 -756.66)" fill="#aacff6"/>
    <path id="Path_239848" data-name="Path 239848" d="M629.633,891.227l-3.459,3.459-3.459-3.459,3.459-3.459Zm-.692,0-2.768-2.768-2.768,2.768,2.768,2.767Zm-.692,0-2.076,2.076-2.076-2.076,2.076-2.076Zm-.692,0-1.384-1.384-1.384,1.384,1.384,1.384Zm-.692,0-.692.692-.692-.692.692-.692Z" transform="translate(-554.174 -873.227)" fill="#aacff6"/>
    <path id="Path_239849" data-name="Path 239849" d="M625.495,986.021h-1.51l.755.755Zm1.509,0h-.755l-1.51,1.509-1.51-1.509h-.755l2.265,2.264Zm1.51,0h-.755l-3.019,3.019-3.019-3.019h-.755l3.774,3.774Z" transform="translate(-552.74 -986.021)" fill="#aacff6"/>
    <path id="Path_239850" data-name="Path 239850" d="M739.65,7.511l-.1-.1-.1.1Zm-.314,0,.21-.21.21.21h.1l-.315-.314-.314.314Zm-.21,0,.419-.42.419.42h.1l-.524-.524-.524.524Z" transform="translate(-685.545 172.489)" fill="#aacff6"/>
    <path id="Path_239851" data-name="Path 239851" d="M739.137,103.4l-.786.786-.786-.786.786-.786Zm-.157,0-.629-.629-.629.629.629.629Zm-.157,0-.472.472-.472-.472.472-.472Zm-.157,0-.314-.314-.315.314.315.314Zm-.157,0-.157.157-.158-.157.158-.157Z" transform="translate(-684.352 58.595)" fill="#aacff6"/>
    <path id="Path_239852" data-name="Path 239852" d="M738.206,202.211l-1.048,1.048-1.048-1.048,1.048-1.048Zm-.21,0-.839-.839-.839.839.839.839Zm-.21,0-.629.629-.629-.629.629-.629Zm-.21,0-.419-.419-.42.419.42.419Zm-.21,0-.21.21-.21-.21.21-.21Z" transform="translate(-683.158 -58.211)" fill="#aacff6"/>
    <path id="Path_239853" data-name="Path 239853" d="M737.273,301.017l-1.31,1.31-1.31-1.31,1.31-1.31Zm-.262,0-1.048-1.048-1.048,1.048,1.048,1.048Zm-.262,0-.786.786-.786-.786.786-.786Zm-.262,0-.524-.524-.524.524.524.524Zm-.262,0-.262.262-.262-.262.262-.262Z" transform="translate(-681.963 -175.017)" fill="#aacff6"/>
    <path id="Path_239854" data-name="Path 239854" d="M736.341,399.823l-1.572,1.573-1.573-1.573,1.573-1.572Zm-.315,0-1.258-1.258-1.258,1.258,1.258,1.258Zm-.314,0-.943.944-.943-.944.943-.943Zm-.314,0-.629-.629-.629.629.629.629Zm-.315,0-.314.315-.315-.315.315-.314Z" transform="translate(-680.769 -291.823)" fill="#aacff6"/>
    <path id="Path_239855" data-name="Path 239855" d="M735.409,498.629l-1.834,1.835-1.835-1.835,1.835-1.835Zm-.367,0-1.467-1.468-1.468,1.468,1.468,1.468Zm-.367,0-1.1,1.1-1.1-1.1,1.1-1.1Zm-.367,0-.734-.734-.734.734.734.734Zm-.367,0-.367.367-.367-.367.367-.367Z" transform="translate(-679.575 -408.63)" fill="#aacff6"/>
    <path id="Path_239856" data-name="Path 239856" d="M734.477,597.436l-2.1,2.1-2.1-2.1,2.1-2.1Zm-.419,0-1.677-1.677-1.677,1.677,1.677,1.677Zm-.419,0-1.258,1.258-1.258-1.258,1.258-1.258Zm-.419,0-.839-.839-.839.839.839.839Zm-.419,0-.419.419-.419-.419.419-.419Z" transform="translate(-678.381 -525.436)" fill="#aacff6"/>
    <path id="Path_239857" data-name="Path 239857" d="M733.546,696.242l-2.359,2.359-2.359-2.359,2.359-2.359Zm-.472,0-1.887-1.887-1.887,1.887,1.887,1.887Zm-.472,0-1.415,1.415-1.415-1.415,1.415-1.415Zm-.472,0-.943-.943-.944.943.944.943Zm-.472,0-.472.472-.472-.472.472-.472Z" transform="translate(-677.188 -642.242)" fill="#aacff6"/>
    <path id="Path_239858" data-name="Path 239858" d="M732.614,795.048l-2.621,2.621-2.621-2.621,2.621-2.621Zm-.524,0-2.1-2.1-2.1,2.1,2.1,2.1Zm-.524,0-1.573,1.573-1.572-1.573,1.572-1.572Zm-.524,0L729.993,794l-1.048,1.048,1.048,1.048Zm-.524,0-.524.524-.524-.524.524-.524Z" transform="translate(-675.993 -759.048)" fill="#aacff6"/>
    <path id="Path_239859" data-name="Path 239859" d="M731.682,893.854l-2.883,2.883-2.883-2.883,2.883-2.883Zm-.577,0-2.306-2.306-2.306,2.306,2.306,2.306Zm-.577,0-1.73,1.73-1.73-1.73,1.73-1.73Zm-.577,0L728.8,892.7l-1.153,1.153,1.153,1.153Zm-.576,0-.577.576-.576-.576.576-.577Z" transform="translate(-674.799 -875.854)" fill="#aacff6"/>
    <path id="Path_239860" data-name="Path 239860" d="M728.235,989.515h-1.258l.629.629Zm1.258,0h-.629l-1.258,1.258-1.258-1.258h-.629l1.887,1.887Zm1.258,0h-.629l-2.516,2.516-2.516-2.516h-.629l3.145,3.145Z" transform="translate(-673.606 -989.515)" fill="#aacff6"/>
    <path id="Path_239861" data-name="Path 239861" d="M840.106,7.407l-.084-.084-.084.084Zm-.251,0,.168-.168.167.168h.084l-.252-.252-.251.252Zm-.168,0,.335-.336.336.336h.084l-.419-.42-.42.42Z" transform="translate(-804.023 172.593)" fill="#aacff6"/>
    <path id="Path_239862" data-name="Path 239862" d="M839.7,104.122l-.629.629-.629-.629.629-.629Zm-.126,0-.5-.5-.5.5.5.5Zm-.126,0-.378.377-.378-.377.378-.377Zm-.126,0-.251-.252-.252.252.252.252Zm-.126,0-.126.126-.126-.126.126-.126Z" transform="translate(-803.067 57.878)" fill="#aacff6"/>
    <path id="Path_239863" data-name="Path 239863" d="M838.95,203.167l-.839.839-.838-.839.838-.839Zm-.168,0-.671-.671-.671.671.671.671Zm-.168,0-.5.5-.5-.5.5-.5Zm-.168,0-.336-.336-.335.336.335.336Zm-.168,0-.168.168-.168-.168.168-.168Z" transform="translate(-802.112 -59.167)" fill="#aacff6"/>
    <path id="Path_239864" data-name="Path 239864" d="M838.206,302.211l-1.048,1.048-1.048-1.048,1.048-1.048Zm-.21,0-.839-.839-.839.839.839.839Zm-.21,0-.629.629-.629-.629.629-.629Zm-.21,0-.419-.419-.419.419.419.419Zm-.21,0-.21.21-.21-.21.21-.21Z" transform="translate(-801.158 -176.211)" fill="#aacff6"/>
    <path id="Path_239865" data-name="Path 239865" d="M837.459,401.256l-1.258,1.258-1.258-1.258L836.2,400Zm-.252,0L836.2,400.25l-1.006,1.006,1.006,1.006Zm-.251,0-.755.755-.755-.755.755-.755Zm-.252,0-.5-.5-.5.5.5.5Zm-.252,0-.251.251-.252-.251L836.2,401Z" transform="translate(-800.201 -293.256)" fill="#aacff6"/>
    <path id="Path_239866" data-name="Path 239866" d="M836.715,500.3l-1.467,1.468L833.78,500.3l1.468-1.467Zm-.293,0-1.174-1.174-1.174,1.174,1.174,1.174Zm-.293,0-.881.881-.88-.881.88-.881Zm-.294,0-.587-.587-.587.587.587.587Zm-.294,0-.294.294-.294-.294.294-.294Z" transform="translate(-799.248 -410.301)" fill="#aacff6"/>
    <path id="Path_239867" data-name="Path 239867" d="M835.969,599.346l-1.677,1.677-1.677-1.677,1.677-1.677Zm-.335,0L834.291,598l-1.342,1.342,1.342,1.342Zm-.336,0-1.006,1.006-1.006-1.006,1.006-1.006Zm-.335,0-.671-.671-.671.671.671.671Zm-.336,0-.335.335-.336-.335.336-.335Z" transform="translate(-798.291 -527.346)" fill="#aacff6"/>
    <path id="Path_239868" data-name="Path 239868" d="M835.223,698.391l-1.887,1.887-1.887-1.887,1.887-1.887Zm-.378,0-1.51-1.51-1.51,1.51,1.51,1.51Zm-.377,0-1.132,1.132-1.132-1.132,1.132-1.132Zm-.377,0-.755-.755-.755.755.755.755Zm-.378,0-.377.377-.377-.377.377-.378Z" transform="translate(-797.336 -644.391)" fill="#aacff6"/>
    <path id="Path_239869" data-name="Path 239869" d="M834.478,797.436l-2.1,2.1-2.1-2.1,2.1-2.1Zm-.419,0-1.677-1.677-1.677,1.677,1.677,1.677Zm-.42,0-1.258,1.258-1.258-1.258,1.258-1.258Zm-.419,0-.838-.839-.839.839.839.839Zm-.419,0-.419.419-.42-.419.42-.419Z" transform="translate(-796.381 -761.435)" fill="#aacff6"/>
    <path id="Path_239870" data-name="Path 239870" d="M833.732,896.48l-2.306,2.306-2.306-2.306,2.306-2.306Zm-.461,0-1.845-1.845-1.845,1.845,1.845,1.845Zm-.461,0-1.384,1.384-1.384-1.384,1.384-1.384Zm-.461,0-.923-.922-.922.922.922.922Zm-.461,0-.461.461-.461-.461.461-.461Z" transform="translate(-795.427 -878.48)" fill="#aacff6"/>
    <path id="Path_239871" data-name="Path 239871" d="M830.974,993.01h-1.006l.5.5Zm1.006,0h-.5l-1.006,1.006-1.006-1.006h-.5l1.509,1.509Zm1.007,0h-.5l-2.013,2.012-2.013-2.012h-.5l2.516,2.516Z" transform="translate(-794.471 -993.01)" fill="#aacff6"/>
    <path id="Path_239872" data-name="Path 239872" d="M940.563,7.3l-.063-.063-.063.063Zm-.189,0,.126-.126.126.126h.063l-.189-.189-.189.189Zm-.126,0,.252-.252.251.252h.063l-.314-.314-.315.314Z" transform="translate(-922.5 172.699)" fill="#aacff6"/>
    <path id="Path_239873" data-name="Path 239873" d="M940.255,104.838l-.472.472-.472-.472.472-.472Zm-.094,0-.377-.377-.377.377.377.377Zm-.094,0-.283.283-.283-.283.283-.283Zm-.094,0-.189-.189-.189.189.189.189Zm-.094,0-.094.094-.094-.094.094-.094Z" transform="translate(-921.783 57.162)" fill="#aacff6"/>
    <path id="Path_239874" data-name="Path 239874" d="M939.7,204.122l-.629.629-.629-.629.629-.629Zm-.126,0-.5-.5-.5.5.5.5Zm-.126,0-.378.377-.377-.377.377-.378Zm-.126,0-.251-.252-.251.252.251.252Zm-.126,0-.126.126-.126-.126.126-.126Z" transform="translate(-921.067 -60.122)" fill="#aacff6"/>
    <path id="Path_239875" data-name="Path 239875" d="M939.138,303.4l-.786.786-.786-.786.786-.786Zm-.157,0-.629-.629-.629.629.629.629Zm-.157,0-.472.472-.472-.472.472-.472Zm-.157,0-.314-.315-.315.315.315.314Zm-.157,0-.157.157-.157-.157.157-.157Z" transform="translate(-920.352 -177.405)" fill="#aacff6"/>
    <path id="Path_239876" data-name="Path 239876" d="M938.579,402.688l-.943.944-.943-.944.943-.943Zm-.188,0-.755-.755-.755.755.755.755Zm-.189,0-.566.566-.566-.566.566-.566Zm-.189,0-.378-.378-.377.378.377.377Zm-.189,0-.189.189-.189-.189.189-.189Z" transform="translate(-919.636 -294.688)" fill="#aacff6"/>
    <path id="Path_239877" data-name="Path 239877" d="M938.018,501.973l-1.1,1.1-1.1-1.1,1.1-1.1Zm-.22,0-.881-.881-.88.881.88.881Zm-.22,0-.66.66-.66-.66.66-.66Zm-.22,0-.441-.44-.44.44.44.44Zm-.22,0-.22.22-.22-.22.22-.22Z" transform="translate(-918.918 -411.973)" fill="#aacff6"/>
    <path id="Path_239878" data-name="Path 239878" d="M937.459,601.256l-1.258,1.258-1.258-1.258L936.2,600Zm-.252,0L936.2,600.25l-1.006,1.006,1.006,1.007Zm-.251,0-.755.755-.755-.755.755-.755Zm-.252,0-.5-.5-.5.5.5.5Zm-.252,0-.252.252-.252-.252L936.2,601Z" transform="translate(-918.201 -529.256)" fill="#aacff6"/>
    <path id="Path_239879" data-name="Path 239879" d="M936.9,700.54l-1.415,1.415-1.415-1.415,1.415-1.415Zm-.283,0-1.132-1.132-1.132,1.132,1.132,1.132Zm-.283,0-.849.849-.849-.849.849-.849Zm-.283,0-.566-.566-.566.566.566.566Zm-.283,0-.283.283-.283-.283.283-.283Z" transform="translate(-917.485 -646.54)" fill="#aacff6"/>
    <path id="Path_239880" data-name="Path 239880" d="M936.341,799.823l-1.573,1.573-1.572-1.573,1.572-1.572Zm-.315,0-1.258-1.258-1.258,1.258,1.258,1.258Zm-.315,0-.943.943-.943-.943.943-.943Zm-.314,0-.629-.629-.629.629.629.629Zm-.314,0-.315.315-.314-.315.314-.314Z" transform="translate(-916.768 -763.823)" fill="#aacff6"/>
    <path id="Path_239881" data-name="Path 239881" d="M935.783,899.108l-1.73,1.73-1.73-1.73,1.73-1.73Zm-.346,0-1.384-1.383-1.384,1.383,1.384,1.384Zm-.346,0-1.038,1.038-1.038-1.038,1.038-1.038Zm-.346,0-.692-.692-.692.692.692.692Zm-.346,0-.346.346-.346-.346.346-.346Z" transform="translate(-916.054 -881.108)" fill="#aacff6"/>
    <path id="Path_239882" data-name="Path 239882" d="M933.713,996.5h-.755l.377.377Zm.755,0h-.377l-.755.755-.755-.755H932.2l1.132,1.132Zm.755,0h-.378l-1.51,1.509-1.51-1.509h-.377l1.887,1.887Z" transform="translate(-915.336 -996.504)" fill="#aacff6"/>
    <path id="Path_239883" data-name="Path 239883" d="M1040.98,7.2l-.21-.21v.042l.168.168Zm-.084,0-.126-.126v.042l.084.084Zm-.084,0-.042-.042V7.2Z" transform="translate(-1040.768 172.803)" fill="#aacff6"/>
    <path id="Path_239884" data-name="Path 239884" d="M1040.25,105.554l-.063-.063v.126Zm.126,0-.189-.189v.063l.126.126-.126.126v.063Zm.125,0-.314-.314v.063l.252.252-.252.252v.063Z" transform="translate(-1040.186 56.446)" fill="#aacff6"/>
    <path id="Path_239885" data-name="Path 239885" d="M1039.69,205.077l-.084-.084v.168Zm.168,0-.252-.252v.084l.167.168-.167.168v.084Zm.167,0-.419-.419v.084l.336.336-.336.335v.084Z" transform="translate(-1039.603 -61.077)" fill="#aacff6"/>
    <path id="Path_239886" data-name="Path 239886" d="M1039.13,304.6l-.1-.105v.21Zm.21,0-.314-.315v.1l.21.21-.21.21v.1Zm.21,0-.524-.524v.1l.42.419-.42.419v.1Z" transform="translate(-1039.02 -178.6)" fill="#aacff6"/>
    <path id="Path_239887" data-name="Path 239887" d="M1038.56,404.122l-.126-.126v.251Zm.252,0-.377-.377v.126l.252.251-.252.252v.126Zm.251,0-.629-.629v.126l.5.5-.5.5v.126Z" transform="translate(-1038.439 -296.122)" fill="#aacff6"/>
    <path id="Path_239888" data-name="Path 239888" d="M1038,503.645l-.146-.147v.293Zm.294,0-.44-.44v.147l.294.294-.294.294v.147Zm.294,0-.734-.734v.147l.587.587-.587.587v.147Z" transform="translate(-1037.856 -413.645)" fill="#aacff6"/>
    <path id="Path_239889" data-name="Path 239889" d="M1037.44,603.167l-.168-.168v.335Zm.336,0-.5-.5v.168l.336.335-.336.336v.168Zm.335,0-.839-.839v.168l.671.671-.671.671v.168Z" transform="translate(-1037.273 -531.168)" fill="#aacff6"/>
    <path id="Path_239890" data-name="Path 239890" d="M1036.88,702.689l-.189-.189v.377Zm.377,0-.566-.566v.189l.377.377-.377.378v.189Zm.377,0-.943-.943v.189l.755.755-.755.755v.189Z" transform="translate(-1036.691 -648.69)" fill="#aacff6"/>
    <path id="Path_239891" data-name="Path 239891" d="M1036.32,802.211l-.21-.21v.419Zm.419,0-.629-.629v.21l.419.419-.419.42v.209Zm.419,0-1.048-1.048v.21l.839.838-.839.839v.21Z" transform="translate(-1036.109 -766.211)" fill="#aacff6"/>
    <path id="Path_239892" data-name="Path 239892" d="M1035.76,901.734l-.23-.231v.461Zm.461,0-.692-.692v.231l.461.461-.461.461v.231Zm.461,0-1.153-1.153v.23l.922.923-.922.922v.231Z" transform="translate(-1035.526 -883.734)" fill="#aacff6"/>
    <path id="Path_239893" data-name="Path 239893" d="M1035.19,1000h-.251v.251Zm.5,0h-.252l-.5.5v.252Zm.5,0h-.252l-1.006,1.006v.252Z" transform="translate(-1034.943 -999.998)" fill="#aacff6"/>
  </g>
</svg>
