<svg xmlns="http://www.w3.org/2000/svg" width="109.295" height="104.26" viewBox="0 0 109.295 104.26">
  <g id="Group_165700" data-name="Group 165700" transform="translate(-6.732 -17.79)">
    <g id="Group_165699" data-name="Group 165699" transform="translate(6.732 17.79)">
      <circle id="Ellipse_460" data-name="Ellipse 460" cx="3.891" cy="3.891" r="3.891" transform="translate(87.026 96.478)" fill="#ffb229"/>
      <path id="Path_237745" data-name="Path 237745" d="M242.8,450.766a3.891,3.891,0,1,0,3.891,3.891A3.9,3.9,0,0,0,242.8,450.766Z" transform="translate(-188.155 -354.288)" fill="#ffb229"/>
      <circle id="Ellipse_461" data-name="Ellipse 461" cx="3.891" cy="3.891" r="3.891" transform="translate(14.446 96.478)" fill="#ffb229"/>
      <path id="Path_237746" data-name="Path 237746" d="M46.878,100.021H20.513a1.366,1.366,0,0,1-1.366-1.366V36.544a1.366,1.366,0,0,1,1.366-1.366H46.878V32.032H17.45A1.451,1.451,0,0,0,16,33.481v68.237a1.451,1.451,0,0,0,1.45,1.45H46.878v-3.146Zm4.561,8.121H89.856a1.831,1.831,0,0,0,1.829-1.829V28.886a1.831,1.831,0,0,0-1.829-1.829H51.439a1.831,1.831,0,0,0-1.829,1.829v77.428a1.831,1.831,0,0,0,1.829,1.829Zm2.11-75.781A1.366,1.366,0,0,1,54.915,31H86.381a1.366,1.366,0,0,1,1.366,1.366v70.477a1.366,1.366,0,0,1-1.366,1.366H54.915a1.366,1.366,0,0,1-1.366-1.366Zm70.3-.329H94.418v3.146h26.365a1.366,1.366,0,0,1,1.366,1.366V98.655a1.366,1.366,0,0,1-1.366,1.366H94.418v3.146h29.428a1.451,1.451,0,0,0,1.45-1.45V33.481a1.451,1.451,0,0,0-1.45-1.45Z" transform="translate(-16 -27.057)" fill="#ffb229"/>
    </g>
    <path id="Path_237747" data-name="Path 237747" d="M144.021,115.084h-11.3a1.366,1.366,0,0,0,0,2.732h11.3a1.366,1.366,0,1,0,0-2.732Zm0-11.55h-1.627a1.366,1.366,0,1,0,0,2.732h1.627a1.366,1.366,0,1,0,0-2.732Zm0-11.55h-11.3a1.366,1.366,0,0,0,0,2.732h11.3a1.366,1.366,0,1,0,0-2.732ZM90.3,89.968h12.464a1.366,1.366,0,0,0,0-2.732H90.3a1.366,1.366,0,0,0,0,2.732Zm53.719,48.216h-11.3a1.366,1.366,0,0,0,0,2.732h11.3a1.366,1.366,0,0,0,0-2.732ZM90.3,102.705H92.1a1.366,1.366,0,0,0,0-2.732H90.3a1.366,1.366,0,1,0,0,2.732Zm53.719,23.929h-1.627a1.366,1.366,0,1,0,0,2.732h1.627a1.366,1.366,0,1,0,0-2.732ZM107.5,89.968h1.794a1.366,1.366,0,0,0,0-2.732H107.5a1.366,1.366,0,0,0,0,2.732ZM54.259,140.916h11.3a1.366,1.366,0,0,0,0-2.732h-11.3a1.366,1.366,0,0,0,0,2.732Zm17.223-14.282h-11.3a1.366,1.366,0,1,0,0,2.732h11.3a1.366,1.366,0,1,0,0-2.732ZM54.259,94.717h11.3a1.366,1.366,0,0,0,0-2.732h-11.3a1.366,1.366,0,0,0,0,2.732Zm17.223,20.367H69.855a1.366,1.366,0,1,0,0,2.732h1.627a1.366,1.366,0,1,0,0-2.732Zm0,23.1H69.855a1.366,1.366,0,0,0,0,2.732h1.627a1.366,1.366,0,0,0,0-2.732ZM69.855,94.717h1.627a1.366,1.366,0,0,0,0-2.732H69.855a1.366,1.366,0,0,0,0,2.732Zm1.627,8.817h-11.3a1.366,1.366,0,1,0,0,2.732h11.3a1.366,1.366,0,1,0,0-2.732Z" transform="translate(-37.76 -55.743)" fill="#18b362"/>
    <path id="Path_237749" data-name="Path 237749" d="M102.766,154.29H90.3a1.366,1.366,0,0,0,0,2.732h12.464a1.366,1.366,0,1,0,0-2.732Zm6.529,0H107.5a1.366,1.366,0,0,0,0,2.732h1.794a1.366,1.366,0,1,0,0-2.732Zm0-38.211H96.831a1.366,1.366,0,0,0,0,2.732H109.3a1.366,1.366,0,1,0,0-2.732ZM90.3,144.285H92.1a1.366,1.366,0,1,0,0-2.732H90.3a1.366,1.366,0,1,0,0,2.732Zm18.993-2.732H96.831a1.366,1.366,0,0,0,0,2.732H109.3a1.366,1.366,0,1,0,0-2.732Zm0-10a1.366,1.366,0,1,0,0-2.732H107.5a1.366,1.366,0,1,0,0,2.732Zm17.5,2.374h1.627a1.366,1.366,0,1,0,0-2.732H126.8a1.366,1.366,0,0,0,0,2.732Zm0-23.1h1.627a1.366,1.366,0,1,0,0-2.732H126.8a1.366,1.366,0,0,0,0,2.732Zm0,11.55h11.3a1.366,1.366,0,1,0,0-2.732H126.8a1.366,1.366,0,1,0,0,2.732Zm1.627,31.918H126.8a1.366,1.366,0,0,0,0,2.732h1.627a1.366,1.366,0,1,0,0-2.732Zm-1.627-8.818h11.3a1.366,1.366,0,1,0,0-2.732H126.8a1.366,1.366,0,1,0,0,2.732Zm-72.539-23.1h1.627a1.366,1.366,0,1,0,0-2.732H54.259a1.366,1.366,0,1,0,0,2.732Z" transform="translate(-37.76 -71.849)" fill="#18b362"/>
    <path id="Path_237751" data-name="Path 237751" d="M54.259,204.219h11.3a1.366,1.366,0,0,0,0-2.732h-11.3a1.366,1.366,0,0,0,0,2.732ZM90.3,201.844h12.464a1.366,1.366,0,1,0,0-2.732H90.3a1.366,1.366,0,1,0,0,2.732ZM54.259,215.769h1.627a1.366,1.366,0,1,0,0-2.732H54.259a1.366,1.366,0,1,0,0,2.732Z" transform="translate(-37.76 -142.145)" fill="#18b362"/>
  </g>
</svg>
