<svg xmlns="http://www.w3.org/2000/svg" width="38.418" height="35.277" viewBox="0 0 38.418 35.277">
  <g id="Group_165799" data-name="Group 165799" transform="translate(-23 -42.049)">
    <path id="Path_238112" data-name="Path 238112" d="M31.041,62.246a2.688,2.688,0,0,0-2.671-.672V55.183a2.685,2.685,0,0,0-5.37,0v9.555a2.666,2.666,0,0,0,.788,1.9l5.384,5.384v4.648a.66.66,0,0,0,.66.66h8.014a.66.66,0,0,0,.66-.66V69.984a.66.66,0,0,0-.193-.466Zm6.145,13.761H30.491V71.745a.66.66,0,0,0-.193-.466L24.721,65.7a1.355,1.355,0,0,1-.4-.964V55.183a1.366,1.366,0,0,1,2.731,0v7.279a2.689,2.689,0,0,0,.193,3.581l3.288,3.288a.66.66,0,1,0,.933-.933L28.176,65.11a1.367,1.367,0,0,1,0-1.931h0a1.368,1.368,0,0,1,1.932,0l7.078,7.078ZM58.733,52.5a2.688,2.688,0,0,0-2.685,2.685v6.391a2.688,2.688,0,0,0-2.671.672l-7.271,7.271a.66.66,0,0,0-.193.466v6.683a.66.66,0,0,0,.66.66h8.014a.66.66,0,0,0,.66-.66V72.019l5.384-5.384a2.666,2.666,0,0,0,.788-1.9V55.183A2.688,2.688,0,0,0,58.733,52.5ZM60.1,64.738a1.355,1.355,0,0,1-.4.964L54.12,71.279a.66.66,0,0,0-.193.466v4.261H47.232v-5.75l7.078-7.078a1.367,1.367,0,0,1,1.932,0h0a1.367,1.367,0,0,1,0,1.931L52.953,68.4a.66.66,0,0,0,.933.933l3.288-3.288a2.689,2.689,0,0,0,.193-3.581V55.183a1.366,1.366,0,1,1,2.731,0Zm-7.7-12.5A10.188,10.188,0,1,0,42.209,62.426,10.2,10.2,0,0,0,52.4,52.237ZM42.209,61.107a8.869,8.869,0,1,1,8.869-8.869A8.879,8.879,0,0,1,42.209,61.107ZM45.953,54a2.425,2.425,0,0,1-2.422,2.422h-.663v.822a.66.66,0,0,1-1.319,0v-.822h-.574a2.438,2.438,0,0,1-2.184-1.379.66.66,0,1,1,1.189-.571,1.112,1.112,0,0,0,1,.63h2.556a1.1,1.1,0,1,0,0-2.205H40.887a2.422,2.422,0,1,1,0-4.843h.663v-.822a.66.66,0,0,1,1.319,0v.822h.574a2.438,2.438,0,0,1,2.184,1.379A.66.66,0,1,1,44.438,50a1.112,1.112,0,0,0-1-.63H40.887a1.1,1.1,0,0,0,0,2.205h2.644A2.425,2.425,0,0,1,45.953,54Z" fill="#115baa"/>
  </g>
</svg>
