<svg xmlns="http://www.w3.org/2000/svg" xmlns:xlink="http://www.w3.org/1999/xlink" width="97.535" height="97.535" viewBox="0 0 97.535 97.535">
  <defs>
    <clipPath id="clip-path">
      <path id="Path_237732" data-name="Path 237732" d="M0-682.665H97.535v97.535H0Z" transform="translate(0 682.665)"/>
    </clipPath>
  </defs>
  <g id="Group_165697" data-name="Group 165697" transform="translate(0 -0.002)">
    <g id="Group_165696" data-name="Group 165696" transform="translate(0 0.002)" clip-path="url(#clip-path)">
      <path id="Path_237712" data-name="Path 237712" d="M0-92.173a15.365,15.365,0,0,1,15.591-15.363A15.412,15.412,0,0,1,30.729-92.273a15.328,15.328,0,0,1-5.267,11.679.667.667,0,0,0,.1,1.077l2.9,1.713a.534.534,0,0,1-.272.994l-13.11,0A15.364,15.364,0,0,1,0-92.173" transform="translate(0.725 107.538)" fill="#7acaa6"/>
      <path id="Path_237713" data-name="Path 237713" d="M-96.045-178.381l-2.9-1.713a.666.666,0,0,1-.1-1.074A15.329,15.329,0,0,0-93.773-193a15.416,15.416,0,0,0-14.9-15.109,15.472,15.472,0,0,0-3.377.27A15.423,15.423,0,0,1-99.572-192.85a15.3,15.3,0,0,1-3.23,9.524,3.318,3.318,0,0,0,.9,4.909l.061.036a.534.534,0,0,1-.255.993l5.783,0a.534.534,0,0,0,.272-.994" transform="translate(125.225 208.115)" fill="#57be92"/>
      <path id="Path_237714" data-name="Path 237714" d="M-270.881-334.57h-34.855a10.279,10.279,0,0,1-7.909-16.844l.309-.373a16.442,16.442,0,0,0,3.79-10.5v-6.721a21.331,21.331,0,0,1,21.331-21.331,21.331,21.331,0,0,1,21.331,21.331v6.948a16.442,16.442,0,0,0,3.865,10.59,10.279,10.279,0,0,1-7.862,16.9" transform="translate(346.469 390.339)" fill="#c59191"/>
      <path id="Path_237715" data-name="Path 237715" d="M-428.926-163.722v23.043h-71.5v-22.869a12.866,12.866,0,0,1,7.873-11.859l11.542-5.018,3.886-1.69a8.076,8.076,0,0,0,4.856-7.407v-1.492h15.181v1.415a8.076,8.076,0,0,0,4.9,7.422l15.611,6.692a12.864,12.864,0,0,1,7.652,11.761" transform="translate(522.836 236.765)" fill="#fff"/>
      <path id="Path_237716" data-name="Path 237716" d="M-4.523-96.474a55.345,55.345,0,0,0,16.805,2.309,55.337,55.337,0,0,0,15.863-2.615l1.882-4.482L24.3-103.719a8.076,8.076,0,0,1-4.894-7.423v-1.414H4.22v1.491a8.075,8.075,0,0,1-4.856,7.406l-4.642,2.018Z" transform="translate(46.35 158.308)" fill="#ffcebf"/>
      <path id="Path_237717" data-name="Path 237717" d="M-70.561-30.238l-11.76-5.04h0V4.567h19.415V-18.476a12.865,12.865,0,0,0-7.653-11.762" transform="translate(156.818 91.519)" fill="#8795de"/>
      <path id="Path_237718" data-name="Path 237718" d="M-116.477,0V39.746h-19.416V16.876A12.866,12.866,0,0,1-128.02,5.018Z" transform="translate(158.305 56.34)" fill="#8795de"/>
      <path id="Path_237719" data-name="Path 237719" d="M-81.348-49.986a12.77,12.77,0,0,0,4.928-.984,8.075,8.075,0,0,1-2.6-5.934v-1.414H-94.2v1.491a8.062,8.062,0,0,1-.707,3.3,12.765,12.765,0,0,0,8.835,3.539Z" transform="translate(144.771 104.071)" fill="#ffb09e"/>
      <path id="Path_237720" data-name="Path 237720" d="M-182.047-50v12.559a12.81,12.81,0,0,1-12.81,12.81h-4.725a12.811,12.811,0,0,1-12.81-12.81V-50a8.334,8.334,0,0,1,8.334-8.334h13.678A8.334,8.334,0,0,1-182.047-50" transform="translate(255.381 72.912)" fill="#ffcebf"/>
      <path id="Path_237721" data-name="Path 237721" d="M-62.105,0c-.006.017-.013.034-.018.052a13.517,13.517,0,0,1-4.615,6.885A12.912,12.912,0,0,1-71.375,9.2a1.45,1.45,0,0,0-1.035,1.77,1.45,1.45,0,0,0,1.771,1.035,15.8,15.8,0,0,0,5.671-2.774,15.511,15.511,0,0,0,2.854-2.871c0-.112.009-.224.009-.337Z" transform="translate(135.439 29.45)" fill="#7a6d79"/>
      <path id="Path_237722" data-name="Path 237722" d="M-37.185-33.6h-3.4a2.8,2.8,0,0,1-2.8-2.8,2.8,2.8,0,0,1,2.8-2.8h3.4a2.8,2.8,0,0,1,2.8,2.8,2.8,2.8,0,0,1-2.8,2.8" transform="translate(99.659 76.261)" fill="#685e68"/>
      <path id="Path_237723" data-name="Path 237723" d="M-.131-49.415c.325-4.1,4.254-6.827,8.014-8.237a21.319,21.319,0,0,1,10.384,18.31v1.466q-.509.108-1.024.186a17.263,17.263,0,0,1-5.04,0C4.437-38.724-.524-44.459-.131-49.415" transform="translate(61.319 60.673)" fill="#b98080"/>
      <path id="Path_237724" data-name="Path 237724" d="M-127.967,0a21.234,21.234,0,0,1,12.832,4.291,38.045,38.045,0,0,1-13.542,13.765,37.746,37.746,0,0,1-14.369,4.927H-149.3V21.331A21.331,21.331,0,0,1-127.967,0" transform="translate(186.222)" fill="#c59191"/>
      <path id="Path_237725" data-name="Path 237725" d="M-293.914-164.115H-340.33l-2.56-24.151a2.9,2.9,0,0,1,2.884-3.206h45.769a2.9,2.9,0,0,1,2.884,3.206Z" transform="translate(376.013 260.201)" fill="#efedef"/>
      <path id="Path_237726" data-name="Path 237726" d="M-34.795,0h-5.8a2.9,2.9,0,0,1,2.884,3.206l-2.56,24.151h5.8l2.56-24.151A2.9,2.9,0,0,0-34.795,0" transform="translate(116.57 68.729)" fill="#e5e1e5"/>
      <path id="Path_237727" data-name="Path 237727" d="M-576.558-17.142h-94.678a1.429,1.429,0,0,1-1.429-1.429A1.429,1.429,0,0,1-671.236-20h94.678a1.429,1.429,0,0,1,1.429,1.429,1.429,1.429,0,0,1-1.429,1.429" transform="translate(672.665 114.678)" fill="#c9bfc8"/>
      <path id="Path_237728" data-name="Path 237728" d="M-48.712-24.356a4.06,4.06,0,0,1-4.06,4.06,4.06,4.06,0,0,1-4.06-4.06,4.06,4.06,0,0,1,4.06-4.06,4.06,4.06,0,0,1,4.06,4.06" transform="translate(111.663 106.763)" fill="#c9bfc8"/>
      <path id="Path_237729" data-name="Path 237729" d="M-17.4-8.7a1.45,1.45,0,0,1-1.45,1.45A1.45,1.45,0,0,1-20.3-8.7a1.45,1.45,0,0,1,1.45-1.45A1.45,1.45,0,0,1-17.4-8.7" transform="translate(29.137 24.064)" fill="#fff"/>
      <path id="Path_237730" data-name="Path 237730" d="M-17.4-8.7a1.45,1.45,0,0,1-1.45,1.45A1.45,1.45,0,0,1-20.3-8.7a1.45,1.45,0,0,1,1.45-1.45A1.45,1.45,0,0,1-17.4-8.7" transform="translate(34.937 24.064)" fill="#fff"/>
      <path id="Path_237731" data-name="Path 237731" d="M-17.4-8.7a1.45,1.45,0,0,1-1.45,1.45A1.45,1.45,0,0,1-20.3-8.7a1.45,1.45,0,0,1,1.45-1.45A1.45,1.45,0,0,1-17.4-8.7" transform="translate(40.738 24.065)" fill="#fff"/>
    </g>
  </g>
</svg>
