<svg xmlns="http://www.w3.org/2000/svg" width="31.306" height="36.71" viewBox="0 0 31.306 36.71">
  <g id="Group_165800" data-name="Group 165800" transform="translate(-37.681 0)">
    <path id="Path_238113" data-name="Path 238113" d="M68.419,6.339A61.064,61.064,0,0,1,53.727.107a.772.772,0,0,0-.785,0A59.392,59.392,0,0,1,38.249,6.339a.772.772,0,0,0-.568.745v7.89a22.7,22.7,0,0,0,6.893,16.584c3.385,3.317,7.329,5.152,8.76,5.152s5.375-1.834,8.76-5.152a22.7,22.7,0,0,0,6.893-16.584V7.083a.772.772,0,0,0-.568-.745Zm-.976,8.635a21.185,21.185,0,0,1-6.429,15.481c-3.329,3.262-6.888,4.71-7.679,4.71s-4.351-1.448-7.68-4.71a21.185,21.185,0,0,1-6.429-15.481V7.67a60.815,60.815,0,0,0,14.109-6,62.74,62.74,0,0,0,14.108,6Z" fill="#30a487"/>
    <path id="Path_238114" data-name="Path 238114" d="M86.078,87.608a.772.772,0,0,0-1-.435Q83,87.99,80.868,88.659a.772.772,0,0,0-.541.737v2.982a.772.772,0,0,0,1.544,0V89.96q1.906-.617,3.771-1.351A.772.772,0,0,0,86.078,87.608Zm1.467.146a.773.773,0,0,0,.31-.065l.014-.006a.772.772,0,1,0-.624-1.413l-.012.005a.772.772,0,0,0,.312,1.479Zm14.578,17.17a.772.772,0,0,0-1.069.224,18.794,18.794,0,0,1-2.219,2.772,19.724,19.724,0,0,1-2.215,1.971.772.772,0,1,0,.936,1.228,21.284,21.284,0,0,0,2.389-2.125,20.32,20.32,0,0,0,2.4-3A.772.772,0,0,0,102.123,104.924Zm-7.3,6.178-.044.026a.772.772,0,1,0,.774,1.336l.051-.03a.772.772,0,1,0-.78-1.333ZM87.659,96.8a2.511,2.511,0,0,0-3.551,3.551l4.56,4.56a2.512,2.512,0,0,0,3.551,0l9.519-9.519a2.511,2.511,0,0,0-3.551-3.551l-7.743,7.743Zm11.619-3.867a.967.967,0,1,1,1.367,1.367l-9.519,9.519a.967.967,0,0,1-1.367,0L85.2,99.262A.967.967,0,0,1,86.567,97.9l3.33,3.33a.772.772,0,0,0,1.092,0l8.289-8.289Z" transform="translate(-39.588 -80.024)" fill="#30a487"/>
  </g>
</svg>
