<svg id="Group_166254" data-name="Group 166254" xmlns="http://www.w3.org/2000/svg" width="34.208" height="50" viewBox="0 0 34.208 50">
  <path id="Path_239585" data-name="Path 239585" d="M9.213,19.912a.586.586,0,0,1-.5-.322L6.08,14.319,1.306,17.57a.586.586,0,0,1-.879-.615l4.1-15.433a.586.586,0,0,1,1.054-.2l.586.791L9.8,2.02a.565.565,0,0,1,.293.088L13.43,3.835a.586.586,0,0,1,.381.7L9.828,19.473a.586.586,0,0,1-.586.439Z" transform="translate(3.897 30.087)" fill="#f17480" fill-rule="evenodd"/>
  <path id="Path_239586" data-name="Path 239586" d="M.545,2.723.9,1.493a.586.586,0,0,1,1.025-.2l.586.791,3.631-.088.293.059L9.769,3.807a.586.586,0,0,1,.381.7L9.857,5.681a1.347,1.347,0,0,1-.908-.117l-3.1-1.611-3.573.088a1.376,1.376,0,0,1-1.142-.556L.545,2.723Z" transform="translate(7.528 30.116)" fill="#d5646c" fill-rule="evenodd"/>
  <path id="Path_239587" data-name="Path 239587" d="M5.442,19.884H5.325a.586.586,0,0,1-.5-.439L.844,4.568a.586.586,0,0,1,0-.234.586.586,0,0,1,.293-.5H1.2L4.651,2.05a.615.615,0,0,1,.293-.059l3.514.088.586-.791a.586.586,0,0,1,1.025.2L14.2,16.838a.565.565,0,0,1-.849.7L8.6,14.29,5.911,19.562a.586.586,0,0,1-.527.293Z" transform="translate(15.662 30.116)" fill="#ea6c75" fill-rule="evenodd"/>
  <path id="Path_239588" data-name="Path 239588" d="M1.138,5.681.845,4.568a.586.586,0,0,1,0-.234.586.586,0,0,1,.293-.5H1.2L4.652,2.05a.615.615,0,0,1,.293-.059l3.514.088.586-.791a.586.586,0,0,1,1.025.2l.351,1.23-.586.791a1.376,1.376,0,0,1-1.113.527L5.209,3.953,2.046,5.564a1.376,1.376,0,0,1-.879.117Z" transform="translate(15.691 30.116)" fill="#d5646c" fill-rule="evenodd"/>
  <path id="Path_239589" data-name="Path 239589" d="M17.362,35.064a.586.586,0,0,1-.264-.088l-3.28-1.7-3.807.088a.586.586,0,0,1-.469-.234L7.317,30.2,3.891,28.593a.586.586,0,0,1-.322-.381l-.732-3.631L.406,21.652a.586.586,0,0,1-.117-.469l.937-3.6L.289,13.921a.586.586,0,0,1,.117-.527l2.4-2.841.761-3.69a.586.586,0,0,1,.322-.41L7.259,4.931,9.543,1.915a.586.586,0,0,1,.5-.234l3.69.117L17.1.07a.586.586,0,0,1,.556,0l3.28,1.7,3.778-.088a.586.586,0,0,1,.469.234l2.226,2.958,3.456,1.581a.586.586,0,0,1,.322.41l.732,3.631,2.4,2.9a.586.586,0,0,1,.146.527l-.937,3.573.937,3.661a.586.586,0,0,1-.146.527l-2.372,2.841-.761,3.69a.586.586,0,0,1-.322.41l-3.4,1.523-2.284,2.987a.615.615,0,0,1-.469.234l-3.719-.088-3.368,1.7a.586.586,0,0,1-.264.088Z" transform="translate(-0.269 0)" fill="#fbeb7e" fill-rule="evenodd"/>
  <path id="Path_239590" data-name="Path 239590" d="M1.158,8.565a.586.586,0,0,1-.586-.732L2.241,1.625a.59.59,0,1,1,1.142.293L1.714,8.126a.586.586,0,0,1-.586.439Z" transform="translate(7.764 33.44)" fill="#f38f98" fill-rule="evenodd"/>
  <path id="Path_239591" data-name="Path 239591" d="M3.338,8.664a.586.586,0,0,1-.586-.439L1.112,2.016a.586.586,0,1,1,1.113-.293L3.894,7.932a.586.586,0,0,1-.586.732Z" transform="translate(21.954 33.341)" fill="#ee888f" fill-rule="evenodd"/>
  <path id="Path_239592" data-name="Path 239592" d="M13.652,26.676a13.28,13.28,0,1,1,.029,0Z" transform="translate(3.441 4.113)" fill="#febb50" fill-rule="evenodd"/>
  <path id="Path_239593" data-name="Path 239593" d="M10.484,20.229a10,10,0,1,1,.029,0Z" transform="translate(6.609 7.281)" fill="#fbeb7e" fill-rule="evenodd"/>
  <path id="Path_239594" data-name="Path 239594" d="M11.61,6.054H1.77a.586.586,0,0,1-.586-.5L.657,2.423a.586.586,0,0,1,.586-.7.556.556,0,0,0,.322-.2A.586.586,0,0,1,2.444,1.4L4,2.745,5.4.783A.586.586,0,0,1,6.309.725a.586.586,0,0,0,.849,0,.586.586,0,0,1,.908.059L9.472,2.745l1.523-1.376a.586.586,0,0,1,.879.117.556.556,0,0,0,.41.234.586.586,0,0,1,.527.7l-.644,3.163a.586.586,0,0,1-.586.469Z" transform="translate(10.373 15.188)" fill="#febb50" fill-rule="evenodd"/>
  <g id="Group_166253" data-name="Group 166253" transform="translate(3.873 4.287)">
    <path id="Path_239595" data-name="Path 239595" d="M2.332,4.718A1.728,1.728,0,1,1,4.06,2.99,1.728,1.728,0,0,1,2.332,4.718Zm5.593-.791A1.728,1.728,0,1,1,9.653,2.2,1.728,1.728,0,0,1,7.925,3.928Zm5.564.791A1.728,1.728,0,1,1,15.217,2.99,1.728,1.728,0,0,1,13.489,4.718Z" transform="translate(5.323 9.075)" fill="#fea848" fill-rule="evenodd"/>
    <path id="Path_239596" data-name="Path 239596" d="M13.621.146A13.266,13.266,0,0,0,4.191,22.695,13.266,13.266,0,0,1,23.841,4.949,13.236,13.236,0,0,0,13.621.146Z" transform="translate(-0.402 -0.146)" fill="#fea848" fill-rule="evenodd"/>
  </g>
  <path id="Path_239597" data-name="Path 239597" d="M10.475.286a9.957,9.957,0,0,0-7,17.043A9.957,9.957,0,0,1,18.235,4.005,9.957,9.957,0,0,0,10.475.257Z" transform="translate(6.617 7.281)" fill="#fbde71" fill-rule="evenodd"/>
</svg>
