<svg xmlns="http://www.w3.org/2000/svg" width="32.484" height="34.731" viewBox="0 0 32.484 34.731">
  <g id="Group_165805" data-name="Group 165805" transform="translate(-5.586)">
    <path id="Path_238122" data-name="Path 238122" d="M37.568,34.731H6.089a.5.5,0,0,1-.5-.5V28.216a5.613,5.613,0,0,1,3.546-5.237L16.58,20a.5.5,0,0,1,.659.3l2.207,6.1.737-2.12-.64-1.564a.5.5,0,0,1,.465-.693h3.638a.5.5,0,0,1,.465.693l-.64,1.564.737,2.12,2.207-6.1a.5.5,0,0,1,.659-.3l7.448,2.979a5.613,5.613,0,0,1,3.545,5.237v6.013a.5.5,0,0,1-.5.5ZM6.592,33.726H37.065v-5.51a4.612,4.612,0,0,0-2.913-4.3l-6.965-2.786-2.512,6.946a.5.5,0,0,1-.473.332h0a.5.5,0,0,1-.472-.338l-1.265-3.638a.5.5,0,0,1,.01-.356l.428-1.047h-2.14l.428,1.047a.5.5,0,0,1,.01.356l-1.265,3.638a.5.5,0,0,1-.472.338.492.492,0,0,1-.476-.332l-2.512-6.946L9.505,23.913a4.612,4.612,0,0,0-2.914,4.3v5.51Zm26.481-.915h-5.8a.5.5,0,0,1-.5-.5v-3.57a.5.5,0,0,1,.5-.5h5.8a.5.5,0,0,1,.5.5v3.57a.5.5,0,0,1-.5.5Zm-5.3-1.006H32.57V29.241H27.776ZM21.828,19.5a6.292,6.292,0,0,1-2.319-.439,4.425,4.425,0,0,1-1.4-.846,15.111,15.111,0,0,1-2.414-3.7c-.671-.038-1.977-.4-2.541-2.556a3.2,3.2,0,0,1,.191-2.594,1.9,1.9,0,0,1,.747-.671,9.423,9.423,0,0,1,1.919-6.033A8.192,8.192,0,0,1,21.828,0a8.192,8.192,0,0,1,5.817,2.662,9.422,9.422,0,0,1,1.919,6.033,1.9,1.9,0,0,1,.747.671A3.2,3.2,0,0,1,30.5,11.96c-.564,2.156-1.87,2.519-2.541,2.556a15.111,15.111,0,0,1-2.414,3.7,4.431,4.431,0,0,1-1.4.846,6.3,6.3,0,0,1-2.319.438Zm-5.82-6a.5.5,0,0,1,.456.291A15.94,15.94,0,0,0,18.8,17.48a3.443,3.443,0,0,0,1.085.646,5.333,5.333,0,0,0,3.9,0,3.443,3.443,0,0,0,1.085-.646,15.943,15.943,0,0,0,2.332-3.686.5.5,0,0,1,.557-.281c.121.02,1.265.159,1.78-1.808a2.321,2.321,0,0,0-.062-1.793.888.888,0,0,0-.5-.378A.5.5,0,0,1,28.545,9a9.7,9.7,0,0,0-.193-2.466c-1.32.124-5.153.39-7.076-.461a10.08,10.08,0,0,1-2.738-1.755,5.286,5.286,0,0,1-1.013,1.8,6.612,6.612,0,0,1-2.388,1.6A8.594,8.594,0,0,0,15.112,9a.5.5,0,0,1-.418.539.882.882,0,0,0-.514.394,2.352,2.352,0,0,0-.052,1.777c.533,2.038,1.768,1.81,1.78,1.808a.517.517,0,0,1,.1-.01Zm5.82-12.5a7.294,7.294,0,0,0-5.048,2.3A7.243,7.243,0,0,0,15.3,6.538a5.4,5.4,0,0,0,1.482-1.1,5.359,5.359,0,0,0,1.015-2.2.5.5,0,0,1,.9-.2,8.039,8.039,0,0,0,2.985,2.12c1.619.717,5.03.513,6.408.394A6.688,6.688,0,0,0,26.876,3.31,7.25,7.25,0,0,0,21.828,1.006Z" transform="translate(0 0)" fill="#30a487"/>
  </g>
</svg>
