<svg xmlns="http://www.w3.org/2000/svg" xmlns:xlink="http://www.w3.org/1999/xlink" width="32.694" height="32.694" viewBox="0 0 32.694 32.694">
  <defs>
    <clipPath id="clip-path">
      <path id="Path_238137" data-name="Path 238137" d="M0-682.665H32.694v32.694H0Z" transform="translate(0 682.665)" fill="#d18cec"/>
    </clipPath>
  </defs>
  <g id="Group_165809" data-name="Group 165809" transform="translate(0 -0.002)">
    <g id="Group_165808" data-name="Group 165808" transform="translate(0 0.002)" clip-path="url(#clip-path)">
      <path id="Path_238130" data-name="Path 238130" d="M-69.349-69.349a2.043,2.043,0,0,1-2.89,0,2.043,2.043,0,0,1,0-2.89,2.043,2.043,0,0,1,2.89,0A2.043,2.043,0,0,1-69.349-69.349Z" transform="translate(97.737 75.522)" fill="none" stroke="#d18cec" stroke-linecap="round" stroke-linejoin="round" stroke-width="1.5"/>
      <path id="Path_238131" data-name="Path 238131" d="M-69.349-69.349a2.043,2.043,0,0,1-2.89,0,2.043,2.043,0,0,1,0-2.89,2.043,2.043,0,0,1,2.89,0A2.043,2.043,0,0,1-69.349-69.349Z" transform="translate(76.544 98.759)" fill="none" stroke="#d18cec" stroke-linecap="round" stroke-linejoin="round" stroke-width="1.5"/>
      <path id="Path_238132" data-name="Path 238132" d="M0-504.505a15.781,15.781,0,0,0,3.1.305,15.709,15.709,0,0,0,15.709-15.709,15.644,15.644,0,0,0-3.573-9.974" transform="translate(13.249 536.256)" fill="none" stroke="#d18cec" stroke-linecap="round" stroke-linejoin="round" stroke-width="1.5"/>
      <path id="Path_238133" data-name="Path 238133" d="M-374.469-6.191A15.781,15.781,0,0,0-377.6-6.5,15.709,15.709,0,0,0-393.306,9.206a15.644,15.644,0,0,0,3.573,9.974" transform="translate(393.944 7.141)" fill="none" stroke="#d18cec" stroke-linecap="round" stroke-linejoin="round" stroke-width="1.5"/>
      <path id="Path_238134" data-name="Path 238134" d="M-218.371-310.551a4.638,4.638,0,0,1-4.638-4.638,4.638,4.638,0,0,1,4.638-4.638,4.638,4.638,0,0,1,4.638,4.638A4.638,4.638,0,0,1-218.371-310.551Zm9.249-6.64a9.407,9.407,0,0,0-1.3-3.131l1.223-1.224-2.824-2.822-1.223,1.223a9.4,9.4,0,0,0-3.131-1.3v-1.729h-3.993v1.729a9.4,9.4,0,0,0-3.131,1.3l-1.223-1.223-2.824,2.822,1.223,1.224a9.406,9.406,0,0,0-1.3,3.131h-1.734l0,3.993h1.736a9.407,9.407,0,0,0,1.3,3.131l-1.228,1.228,2.822,2.824,1.229-1.229a9.406,9.406,0,0,0,3.131,1.3v1.74h3.993v-1.74a9.406,9.406,0,0,0,3.131-1.3l1.229,1.229,2.822-2.824-1.228-1.228a9.406,9.406,0,0,0,1.3-3.131h1.736v-3.993Z" transform="translate(234.718 331.536)" fill="none" stroke="#d18cec" stroke-linecap="round" stroke-linejoin="round" stroke-width="1.5"/>
      <path id="Path_238135" data-name="Path 238135" d="M0,0H0" transform="translate(22.227 1.776)" fill="none" stroke="#d18cec" stroke-linecap="round" stroke-linejoin="round" stroke-width="1.5"/>
      <path id="Path_238136" data-name="Path 238136" d="M0,0H0" transform="translate(10.495 30.929)" fill="none" stroke="#d18cec" stroke-linecap="round" stroke-linejoin="round" stroke-width="1.5"/>
    </g>
  </g>
</svg>
