<svg id="Group_169354" data-name="Group 169354" xmlns="http://www.w3.org/2000/svg" width="25" height="25" viewBox="0 0 25 25">
  <rect id="Rectangle_23727" data-name="Rectangle 23727" width="25" height="25" fill="#18b362"/>
  <g id="Group_169339" data-name="Group 169339" transform="translate(4.764 4.685)">
    <path id="Path_239301" data-name="Path 239301" d="M15.432,6.1a.821.821,0,0,0-.708-.565l-4.466-.406L8.493.993a.822.822,0,0,0-1.512,0L5.214,5.126.748,5.532A.823.823,0,0,0,.281,6.971l3.376,2.96-1,4.385a.821.821,0,0,0,1.223.888l3.852-2.3,3.851,2.3a.822.822,0,0,0,1.224-.888l-1-4.385,3.376-2.96A.823.823,0,0,0,15.432,6.1Zm0,0" transform="translate(0 -0.494)" fill="#fff"/>
  </g>
</svg>
