<svg xmlns="http://www.w3.org/2000/svg" viewBox="0 0 512 512"><path d="M26.483 397.241h52.966v26.483c0 9.751-7.904 17.655-17.655 17.655H44.138c-9.751 0-17.655-7.904-17.655-17.655v-26.483zm264.827 0h52.966v26.483c0 9.751-7.904 17.655-17.655 17.655h-17.655c-9.751 0-17.655-7.904-17.655-17.655v-26.483z" fill="#35495e"/><path d="M291.663 158.897H17.655C7.916 158.868.029 150.98 0 141.241V88.276c.029-9.739 7.916-17.627 17.655-17.655h335.448c9.739.029 17.627 7.916 17.655 17.655v27.895" fill="#7f8c8d"/><path d="M52.966 123.586h-8.828a8.828 8.828 0 0 1 0-17.656h8.828a8.828 8.828 0 0 1 0 17.656zm44.137 0h-8.828a8.828 8.828 0 0 1 0-17.656h8.828a8.828 8.828 0 0 1 0 17.656zm44.138 0h-8.828a8.828 8.828 0 0 1 0-17.656h8.828a8.828 8.828 0 0 1 0 17.656z" fill="#65ddb9"/><path d="M300.138 123.586h-35.31a8.828 8.828 0 0 1 0-17.656h35.31a8.828 8.828 0 0 1 0 17.656z" fill="#67b9cc"/><path fill="#35495e" d="M291.663 158.897H26.483l35.31 35.31H291.31"/><path d="M291.31 194.207H17.655C7.916 194.235.029 202.123 0 211.862v52.966c.029 9.739 7.916 17.627 17.655 17.655h287.779" fill="#7f8c8d"/><path d="M52.966 247.172h-8.828a8.828 8.828 0 0 1 0-17.656h8.828a8.828 8.828 0 0 1 0 17.656zm44.137 0h-8.828a8.828 8.828 0 0 1 0-17.656h8.828a8.828 8.828 0 0 1 0 17.656zm44.138 0h-8.828a8.828 8.828 0 0 1 0-17.656h8.828a8.828 8.828 0 0 1 0 17.656z" fill="#65ddb9"/><path d="M291.31 247.172h-26.483a8.828 8.828 0 0 1 0-17.656h26.483a8.828 8.828 0 0 1 0 17.656z" fill="#67b9cc"/><path fill="#35495e" d="M305.434 282.483H26.483l35.31 35.31h264.828"/><path d="M326.885 317.793H17.655C7.916 317.822.029 325.709 0 335.448v52.966c.029 9.739 7.916 17.627 17.655 17.655h335.448c9.739-.029 17.627-7.916 17.655-17.655v-29.661" fill="#7f8c8d"/><path d="M52.966 370.759h-8.828a8.828 8.828 0 0 1 0-17.656h8.828a8.828 8.828 0 0 1 0 17.656zm44.137 0h-8.828a8.828 8.828 0 0 1 0-17.656h8.828a8.828 8.828 0 0 1 0 17.656zm44.138 0h-8.828a8.828 8.828 0 0 1 0-17.656h8.828a8.828 8.828 0 0 1 0 17.656z" fill="#65ddb9"/><path d="M300.138 370.759h-35.31a8.828 8.828 0 0 1 0-17.656h35.31a8.828 8.828 0 0 1 0 17.656z" fill="#67b9cc"/><path d="M505.9 151.764a10.677 10.677 0 0 1 6.1 9.574v56.198a166.38 166.38 0 0 1-65.839 130.453l-36.356 28.78a13.2 13.2 0 0 1-16.3 0l-36.356-28.78a166.382 166.382 0 0 1-65.839-130.453v-56.198a10.677 10.677 0 0 1 6.1-9.575l94.376-45.779a22.676 22.676 0 0 1 19.739 0l94.375 45.78z" fill="#24ae5f"/><circle cx="401.655" cy="232.457" r="64.371" fill="#fff"/><path d="M392.461 259.681a8.817 8.817 0 0 1-6.241-2.586l-9.198-9.198a8.827 8.827 0 0 1 12.483-12.482l2 2 21.478-28.638c2.923-3.899 8.454-4.691 12.353-1.767s4.691 8.454 1.767 12.353l-27.577 36.785a8.82 8.82 0 0 1-7.065 3.533z" fill="#24ae5f"/></svg>