<svg xmlns="http://www.w3.org/2000/svg" width="282.285" height="243.391" viewBox="58.857 78.305 282.285 243.391"><path fill="#FF7058" d="M154.456 222.178h12.277c9.505 0 14.891-10.852 9.188-18.455l-48.159-63.524c-4.594-6.099-13.782-6.099-18.376 0l-48.159 63.524c-5.782 7.604-.316 18.455 9.188 18.455h11.089c17.268 79.604 93.148 112.871 149.94 94.654 4.99-1.584 4.04-8.951-1.268-9.347-52.354-3.801-81.265-49.425-75.72-85.307z"/><path fill="#324A5E" d="M245.545 177.822h-12.277c-9.506 0-14.891 10.852-9.188 18.456l48.159 63.604c4.594 6.1 13.781 6.1 18.375 0l48.159-63.604c5.782-7.604.316-18.456-9.188-18.456h-11.089c-17.347-79.604-93.228-112.871-150.02-94.653-4.99 1.584-4.04 8.95 1.268 9.346 52.434 3.802 81.345 49.425 75.801 85.307z"/></svg>