<svg xmlns="http://www.w3.org/2000/svg" width="250" height="250.625" viewBox="78.438 79.063 250 250.625"><path fill="#FFD05B" d="M78.125 117.813h222.5v150.938h-222.5z"/><path fill="#FFF" d="M93.438 132.813h191.875V253.75H93.438z"/><path fill="#324A5E" d="M78.125 79.063h222.5v38.75h-222.5z"/><path d="M213.125 103.438h-9.375c-2.813 0-5-2.188-5-5 0-2.813 2.188-5 5-5h9.375c2.813 0 5 2.188 5 5s-2.187 5-5 5zm33.75 0H237.5c-2.813 0-5-2.188-5-5 0-2.813 2.188-5 5-5h9.375c2.813 0 5 2.188 5 5-.312 2.812-2.5 5-5 5zm33.438 0h-9.375c-2.813 0-5-2.188-5-5 0-2.813 2.188-5 5-5h9.375c2.813 0 5 2.188 5 5s-2.188 5-5 5z" fill="#FFF"/><path fill="#54C0EB" d="M115 154.375h28.438V182.5H115z"/><path fill="#324A5E" d="M154.688 163.125h108.75v10.625h-108.75z"/><path fill="#F1543F" d="M115 204.063h28.438v28.125H115z"/><path fill="#ACB3BA" d="M154.688 213.125h108.75v10.625h-108.75z"/><path fill="#324A5E" d="M323.438 206.25c-16.25-3.75-41.25-11.25-46.563-16.25l-4.063-3.75-4.063 4.063c-5.313 5-30.313 12.188-46.563 16.25l-4.688 1.25v43.125c0 2.5.313 5.313.625 8.125 2.188 16.25 10.938 31.563 25 44.063l30 26.563 30-26.563c14.063-12.5 22.813-27.5 25-44.063.313-2.813.626-5.625.626-8.125V207.5l-5.311-1.25zm-1.563 44.375c0 2.5-.313 5-.625 7.5-1.875 14.688-10 28.75-22.813 40.313L272.5 321.25l-25.625-23.125c-13.125-11.563-20.938-25.625-22.813-40.313-.313-2.5-.625-5-.625-7.5v-38.125s40.313-9.375 49.375-17.5c9.063 8.125 49.376 17.5 49.376 17.5v38.438h-.313z"/><path fill="#FFF" d="M321.875 250.625c0 2.5-.313 5-.625 7.5-1.875 14.688-10 28.75-22.813 40.313L272.5 321.25l-25.625-23.125c-13.125-11.563-20.938-25.625-22.813-40.313-.313-2.5-.625-5-.625-7.5v-38.125s40.313-9.375 49.375-17.5c9.063 8.125 49.376 17.5 49.376 17.5v38.438h-.313z"/><path fill="#E6E9EE" d="M313.75 257.813c.313-2.188.313-4.063.313-6.25v-31.875s-33.75-7.813-41.251-14.688v52.813h40.938z"/><path fill="#F1543F" d="M272.813 205c-7.5 6.875-41.25 14.688-41.25 14.688v32.188c0 2.188 0 4.063.313 6.25h40.938V205z"/><path fill="#E6E9EE" d="M231.875 257.813c1.563 12.5 8.438 24.063 19.063 33.75l21.563 19.063v-52.813h-40.626z"/><path fill="#F1543F" d="M313.75 257.813c-1.562 12.5-8.438 24.063-19.063 33.75l-21.563 19.063v-52.813h40.626z"/></svg>