<svg xmlns="http://www.w3.org/2000/svg" width="512" height="512"><path d="M446.645 90.358v328.16c0 14.671-11.894 26.565-26.565 26.565H91.92c-14.671 0-26.565-11.894-26.565-26.565V90.358c0-14.671 11.894-26.565 26.565-26.565h328.16c14.671 0 26.565 11.892 26.565 26.565z" data-original="#5AAAE7" fill="#5aaae7"/><path d="M422.664 112.559V399.44c0 12.826-10.398 23.223-23.223 23.223H112.559c-12.826 0-23.223-10.398-23.223-23.223V112.559c0-12.826 10.398-23.223 23.223-23.223H399.44c12.826 0 23.224 10.398 23.224 23.223z" data-original="#1E81CE" class="active-path" data-old_color="#115baa" fill="#115baa"/><path d="M374.759 152.223v204.429c0 9.134-7.405 16.549-16.549 16.549H153.79c-9.144 0-16.549-7.416-16.549-16.549V152.223c0-9.144 7.405-16.549 16.549-16.549h204.419c9.144 0 16.55 7.405 16.55 16.549z" data-original="#96C8EF" fill="#96c8ef"/><path d="M374.759 152.223v204.429c0 9.134-7.405 16.549-16.549 16.549H179.413c-9.144 0-16.549-7.416-16.549-16.549V152.223c0-9.144 7.405-16.549 16.549-16.549h178.796c9.144 0 16.55 7.405 16.55 16.549z" data-original="#C2DFF6" fill="#c2dff6"/><path d="M244.284 180.991c0 9.797-6.019 18.197-14.56 21.694a23.338 23.338 0 0 1-8.883 1.748c-12.952 0-23.442-10.5-23.442-23.442s10.49-23.442 23.442-23.442c3.145 0 6.139.623 8.883 1.748 8.541 3.497 14.56 11.897 14.56 21.694zm-29.17 125.792c0 8.923-5.336 16.599-13.002 20.006a21.809 21.809 0 0 1-8.883 1.879c-12.078 0-21.875-9.797-21.875-21.885 0-12.078 9.797-21.875 21.875-21.875 3.165 0 6.17.673 8.883 1.879 7.667 3.407 13.002 11.084 13.002 19.996zm130.224-49.999c0 12.43-8.069 22.98-19.252 26.688a27.841 27.841 0 0 1-8.872 1.437c-15.534 0-28.135-12.59-28.135-28.125s12.6-28.135 28.135-28.135c3.105 0 6.089.502 8.872 1.437 11.183 3.708 19.252 14.268 19.252 26.698z" data-original="#2D2D30" data-old_color="#18b35c" fill="#18b35c"/><path d="M244.284 180.991c0 9.797-6.019 18.197-14.56 21.694-8.551-3.487-14.57-11.897-14.57-21.694s6.019-18.207 14.57-21.694c8.541 3.497 14.56 11.897 14.56 21.694zm-29.17 125.792c0 8.923-5.336 16.599-13.002 20.006-7.657-3.406-13.002-11.083-13.002-20.006s5.346-16.589 13.002-19.996c7.667 3.407 13.002 11.084 13.002 19.996zm130.224-49.999c0 12.43-8.069 22.98-19.252 26.688-11.184-3.708-19.252-14.258-19.252-26.688s8.069-22.99 19.252-26.698c11.183 3.708 19.252 14.268 19.252 26.698z" data-original="#3E3D42" data-old_color="#18b35c" fill="#18b35c"/><path d="M65.357 406.229a7.539 7.539 0 0 0 7.536-7.536V90.357c0-10.34 8.4-18.87 18.74-19.031a7.52 7.52 0 0 0 7.416-7.647 7.524 7.524 0 0 0-7.526-7.416h-.121c-18.519.271-33.581 15.565-33.581 34.093v48.72H7.536a7.536 7.536 0 0 0 0 15.072h50.285v39.622H7.536a7.536 7.536 0 0 0 0 15.072h50.285v39.621H7.536a7.538 7.538 0 0 0 0 15.073h50.285v39.621H7.536a7.536 7.536 0 0 0 0 15.072h50.285v39.622H7.536a7.536 7.536 0 0 0 0 15.072h50.285v25.77a7.539 7.539 0 0 0 7.536 7.536zm344.811 31.32H91.924A18.975 18.975 0 0 1 74.3 425.722a7.527 7.527 0 0 0-9.827-4.12 7.53 7.53 0 0 0-4.12 9.827c5.265 12.872 17.655 21.191 31.571 21.191h47.153v51.842a7.536 7.536 0 0 0 15.072 0V452.62h39.622v51.842a7.536 7.536 0 0 0 15.072 0V452.62h39.621v51.842a7.536 7.536 0 0 0 15.072 0V452.62h39.621v51.842a7.536 7.536 0 0 0 15.072 0V452.62h39.622v51.842a7.536 7.536 0 0 0 15.072 0V452.62h37.245a7.539 7.539 0 0 0 7.536-7.536 7.533 7.533 0 0 0-7.536-7.535zm-51.959-56.812c13.284 0 24.085-10.802 24.085-24.085V152.223c0-13.284-10.802-24.085-24.085-24.085H153.79c-13.284 0-24.085 10.802-24.085 24.085v204.429c0 13.284 10.802 24.085 24.085 24.085h204.419zm-169.913-61.454c-4.371-2.452-7.325-7.144-7.325-12.5 0-7.908 6.441-14.339 14.349-14.339s14.339 6.431 14.339 14.339c-.001 10.958-11.853 17.876-21.363 12.5zm178.927 37.369c0 4.964-4.039 9.013-9.013 9.013h-93.892v-32.59h102.905v23.577zM324.747 143.21h33.462c4.974 0 9.013 4.039 9.013 9.013v165.78H264.318V264.32h18.028c3.467 16.057 17.785 28.125 34.867 28.125 19.664 0 35.661-15.997 35.661-35.661 0-17.082-12.068-31.4-28.125-34.867h-.002V143.21zm13.055 113.574c0 11.354-9.234 20.589-20.589 20.589-11.436 0-20.599-9.325-20.599-20.589 0-11.285 9.188-20.599 20.599-20.599 11.355 0 20.589 9.244 20.589 20.599zM144.777 152.223c0-4.974 4.039-9.013 9.013-9.013h155.885v78.707c-13.624 2.944-24.386 13.706-27.329 27.331H226.81v-38.645c14.238-2.783 25.01-15.354 25.01-30.396 0-17.072-13.897-30.968-30.978-30.968-15.042 0-27.611 10.771-30.396 24.999h-45.669v-22.015zm76.065 43.89c-8.715 0-15.906-7.088-15.906-15.906 0-8.762 7.134-15.896 15.906-15.896s15.906 7.134 15.906 15.896c0 8.848-7.204 15.906-15.906 15.906zm-76.065 160.539V189.31h46.452c.064.105 4.114 15.471 20.508 20.509v46.965a7.539 7.539 0 0 0 7.536 7.536h29.972v101.345h-50.56v-29.662c14.64-1.668 26.045-14.138 26.045-29.22 0-16.218-13.193-29.411-29.411-29.411-16.228 0-29.421 13.193-29.421 29.411 0 12.058 7.295 22.458 17.715 26.989v31.893H153.79c-4.973 0-9.013-4.049-9.013-9.013z" data-original="#000000"/><path d="M504.464 208.843a7.536 7.536 0 0 0 0-15.072h-50.285v-39.622h50.285a7.536 7.536 0 0 0 0-15.072h-50.285v-48.72c0-18.8-15.293-34.103-34.103-34.103h-47.153V7.536a7.536 7.536 0 0 0-15.072 0v48.717h-39.622V7.536a7.536 7.536 0 0 0-15.072 0v48.717h-39.621V7.536a7.536 7.536 0 0 0-15.072 0v48.717h-39.621V7.536a7.536 7.536 0 0 0-15.072 0v48.717h-39.622V7.536a7.536 7.536 0 0 0-15.072 0v48.717h-17.41c-4.17 0-7.536 3.376-7.536 7.536s3.366 7.536 7.536 7.536h298.409c10.5 0 19.031 8.541 19.031 19.031v328.162c0 5.255-2.09 10.149-5.898 13.776-3.014 2.874-3.135 7.647-.261 10.651a7.517 7.517 0 0 0 5.456 2.341 7.554 7.554 0 0 0 5.205-2.08c6.813-6.501 10.571-15.273 10.571-24.688v-45.595h50.285a7.536 7.536 0 0 0 0-15.072H454.18v-39.622h50.285a7.536 7.536 0 0 0 0-15.072H454.18v-39.621h50.285a7.536 7.536 0 0 0 0-15.072H454.18v-39.621h50.284z" data-original="#000000"/></svg>