<svg xmlns="http://www.w3.org/2000/svg" viewBox="0 0 350 350" width="512" height="512"><path data-original="#0052B4" fill="#0052b4" d="M15 280h40v70H15z"/><path data-original="#006DF0" fill="#006df0" d="M15 210h40v70H15z"/><path d="M331.772 249.118c-6.41-10.645-20.236-14.078-30.883-7.668l-72.639 37.113a22.43 22.43 0 0 0 6.75-16.064c0-12.427-10.074-22.5-22.5-22.5h-68.211C116 240 102.668 220 55 220v100s13 9 30 20c15.17 9.815 22.291 10 33.838 10l74.496-.027c9.332 0 18.666-3.973 29-8.973s101.77-61 101.77-61c10.646-6.411 14.078-20.236 7.668-30.882z" data-original="#FFD6A0" fill="#ffd6a0"/><path d="M55 220v100s13.001 9 30.001 20c15.17 9.815 22.29 10 33.837 10l46.163-.017L55 220z" data-original="#FFC170" fill="#ffc170"/><circle cx="220" cy="175" r="45" data-original="#FFDA44" fill="#ffda44"/><path d="M220 220c-24.853 0-45-20.148-45-45s20.147-45 45-45" data-original="#FF9811" fill="#ff9811"/><circle cx="220" cy="175" r="25" data-original="#FFF0B4" class="active-path" fill="#fff0b4"/><circle cx="110" cy="135" r="45" data-original="#FFDA44" fill="#ffda44"/><path d="M110 180c-24.853 0-45-20.148-45-45s20.147-45 45-45" data-original="#FF9811" fill="#ff9811"/><circle cx="110" cy="135" r="25" data-original="#FFF0B4" class="active-path" fill="#fff0b4"/><circle cx="180" cy="45" r="45" data-original="#FFDA44" fill="#ffda44"/><path d="M180 90c-24.853 0-45-20.147-45-45s20.147-45 45-45" data-original="#FF9811" fill="#ff9811"/><circle cx="180" cy="45" r="25" data-original="#FFF0B4" class="active-path" fill="#fff0b4"/></svg>