<svg height="200" viewBox="0 0 468.247 468.254" width="200" xmlns="http://www.w3.org/2000/svg"><g clip-rule="evenodd" fill-rule="evenodd"><path d="M468.247 234.122C468.247 105.031 363.553 0 234.122 0 105.031 0 0 105.031 0 234.122 0 363.55 105.031 468.254 234.122 468.254c129.431 0 234.125-104.704 234.125-234.132z" fill="#90dfaa"/><path d="M468.247 234.122c0-4.741 0-9.491-.337-14.228L356.446 116.893c-4.75 0-6.443 3.044-11.184 3.044H115.201v200.584l-3.395 11.858c24.06 10.847 145.36 134.163 150.775 134.163 115.887-13.881 205.666-112.811 205.666-232.42z" fill="#82c999"/><path d="M126.721 156.532h215.147v160.946H126.721zm229.725 160.946v14.901h-244.64V116.893h244.64v39.639z" fill="#324a5e"/><path d="M295.448 136.534c0 5.429 4.415 9.828 9.829 9.828 5.086 0 9.481-4.399 9.481-9.828 0-5.418-4.396-9.813-9.481-9.813-5.414 0-9.829 4.395-9.829 9.813z" fill="#90dfaa"/><path d="M322.222 136.534c0 5.429 4.404 9.828 9.828 9.828 5.414 0 9.818-4.399 9.818-9.828 0-5.418-4.404-9.813-9.818-9.813-5.424 0-9.828 4.395-9.828 9.813z" fill="#ffd05b"/><path d="M268.35 136.534c0 5.429 4.405 9.828 9.818 9.828 5.424 0 9.827-4.399 9.827-9.828 0-5.418-4.403-9.813-9.827-9.813-5.413 0-9.818 4.395-9.818 9.813z" fill="#fd8469"/><path fill="#fff" d="M126.721 156.532h215.147v160.946H126.721z"/><path fill="#e6e6e6" d="M199.571 186.348h109.091v10.501H199.571zm0 45.745h109.091v10.501H199.571z"/><path fill="#90dfaa" d="M159.927 222.939h28.455v28.122h-28.455z"/><path fill="#e6e6e6" d="M199.571 277.482h109.091v10.511H199.571z"/><path fill="#ffd05b" d="M159.927 268.342h28.455v28.124h-28.455z"/><path fill="#fd8469" d="M159.927 177.544h28.455v28.119h-28.455z"/><path d="M325.27 367.617l-29.821-27.099c-15.24-13.222-24.396-29.825-26.762-46.761-.337-3.048-.674-5.765-.674-8.813v-44.385s47.092-10.843 57.594-20.329c10.511 9.486 57.603 20.329 57.603 20.329v44.385c0 3.048-.684 5.765-1.02 8.813-2.039 16.936-11.184 33.539-26.427 46.761z" fill="#253645"/><path d="M373.371 294.1c.346-2.712.346-4.755.346-7.462v-36.932s-39.302-9.146-48.11-17.282v61.675h47.764z" fill="#fff"/><path d="M325.606 232.093c-8.818 8.136-48.11 17.276-48.11 17.276v37.269c0 2.707 0 4.75.335 7.462h47.775z" fill="#fd8469"/><path d="M278.168 294.1c2.04 14.56 9.827 28.114 22.368 39.294l25.07 22.03V294.1z" fill="#fff"/><path d="M372.698 294.1c-1.692 14.56-9.818 28.114-22.021 39.294l-25.07 22.03V294.1z" fill="#fd8469"/></g></svg>