<svg id="Group_165677" data-name="Group 165677" xmlns="http://www.w3.org/2000/svg" xmlns:xlink="http://www.w3.org/1999/xlink" width="112.962" height="60" viewBox="0 0 112.962 60">
  <defs>
    <clipPath id="clip-path">
      <rect id="Rectangle_20159" data-name="Rectangle 20159" width="112.962" height="60" fill="none"/>
    </clipPath>
  </defs>
  <g id="Group_165676" data-name="Group 165676" clip-path="url(#clip-path)">
    <path id="Path_237634" data-name="Path 237634" d="M34.869,82.521c-11.615,5.83-22.3,5.537-30.611-5.554A21.827,21.827,0,0,1,4.5,50.737c8.518-10.783,18.991-10.972,30.333-4.709,1-3.08,1-3.08,4.647-3.08,1.421,0,2.844.05,4.262-.013,1.436-.064,1.99.543,1.971,1.967-.049,3.819-.016,7.639-.016,11.458q0,13.214,0,26.428c0,2.2-.23,2.425-2.436,2.444-1.482.013-2.965,0-4.448,0-3.165,0-3.165,0-3.946-2.713M35.158,64a26,26,0,0,1,.015-2.768c.355-3.3-1.124-5.624-3.734-7.444A12.8,12.8,0,0,0,18.479,52.4a11.753,11.753,0,0,0-7.533,10.7C10.373,72.34,17.727,78.378,27,76.4c5.205-1.111,8.161-4.969,8.161-10.187V64" transform="translate(0 -26.282)" fill="#fc3b51"/>
    <path id="Path_237635" data-name="Path 237635" d="M183.777,44.981c-2.185,2.829-4.11,5.34-6.056,7.835q-4.639,5.948-9.308,11.872a1.748,1.748,0,0,0,.068,2.475c3.37,4.292,6.707,8.61,10.055,12.919,1.6,2.062,3.2,4.126,5.176,6.667h-5.4c-1.667,0-3.347-.125-5,.033a4.269,4.269,0,0,1-4.058-2c-2.3-3.022-4.64-6.021-6.97-9.024-.871-1.122-1.594-1.273-2.579.047-2.458,3.292-5.032,6.5-7.632,9.683a3.1,3.1,0,0,1-1.916,1.185c-3.694.114-7.393.055-11.677.055,1-1.4,1.695-2.472,2.478-3.476q9.671-12.4,19.369-24.786c3.173-4.058,6.276-8.175,9.582-12.122a5.187,5.187,0,0,1,3.286-1.555c2.824-.22,5.676-.084,8.517-.063a20.3,20.3,0,0,1,2.064.256" transform="translate(-86.951 -28.044)" fill="#fc3b51"/>
    <path id="Path_237636" data-name="Path 237636" d="M285.565,65.691c0,6.279-.041,12.559.029,18.838.019,1.658-.484,2.354-2.22,2.264-2.217-.115-4.444-.065-6.666-.017-1.276.028-1.769-.531-1.768-1.764q.021-19.207.009-38.415c0-1.4.668-1.948,2.08-1.9,2.22.079,4.448.1,6.666,0,1.523-.069,1.9.6,1.888,1.973-.042,6.341-.018,12.682-.018,19.023" transform="translate(-172.632 -28.061)" fill="#fc3b51"/>
    <path id="Path_237637" data-name="Path 237637" d="M156.832,52.264l-6.4,8.194L138.345,45.109l.262-.534c2.252,0,4.525-.218,6.749-.055,4.439.325,5.735-.454,8.759,4.12.8,1.213,1.746,2.344,2.717,3.624" transform="translate(-86.865 -27.916)" fill="#fc3b51"/>
    <path id="Path_237638" data-name="Path 237638" d="M274.444,9.836c2.64-3.334,5-6.45,7.55-9.4.436-.5,1.7-.476,2.54-.364.307.041.668,1.037.687,1.608.076,2.33,0,4.664.037,7a1.551,1.551,0,0,1-1.632,1.8c-2.584.063-5.17.045-7.755,0-.367-.006-.729-.314-1.427-.637" transform="translate(-172.32 0)" fill="#fc3b51"/>
  </g>
</svg>
