<svg xmlns="http://www.w3.org/2000/svg" width="52.335" height="48.009" viewBox="0 0 52.335 48.009">
  <g id="Group_166294" data-name="Group 166294" transform="translate(-495.742 -4.238)">
    <path id="Path_239660" data-name="Path 239660" d="M531.5,37.243h-26a.75.75,0,0,0,0,1.5h26a.75.75,0,0,0,0-1.5m0-6h-26a.75.75,0,0,0,0,1.5h26a.75.75,0,1,0,0-1.5m-13-6h-13a.75.75,0,0,0,0,1.5h13a.75.75,0,0,0,0-1.5" transform="translate(-2.015 -3.359)" fill="#fff"/>
    <path id="Path_239661" data-name="Path 239661" d="M543.09,4.3l-30.03-.062a5.006,5.006,0,0,0-5,5v4.723l-7.318.018a5,5,0,0,0-5,4.987v18.6a5,5,0,0,0,5,5H506.3v9.016a.653.653,0,0,0,.66.66.665.665,0,0,0,.484-.211l8.6-9.465h.1l14.619-.062a5.017,5.017,0,0,0,5-5v-.668l5,5.515a.664.664,0,0,0,1.152-.449V32.892h1.161a5.01,5.01,0,0,0,5-5V9.3a5.015,5.015,0,0,0-5-5m-8.624,33.21a3.688,3.688,0,0,1-3.686,3.677l-15.006.062a.642.642,0,0,0-.484.22l-7.653,8.409v-7.97a.665.665,0,0,0-.66-.66h-6.219a3.686,3.686,0,0,1-3.677-3.677V18.976a3.686,3.686,0,0,1,3.677-3.677l30.021-.062a3.688,3.688,0,0,1,3.686,3.677Zm12.314-9.61a3.692,3.692,0,0,1-3.677,3.677h-1.82a.659.659,0,0,0-.66.66V40.2l-4.838-5.322V18.924a5.015,5.015,0,0,0-5-5l-21.392.035V9.239a3.679,3.679,0,0,1,3.668-3.677l30.038.062A3.686,3.686,0,0,1,546.767,9.3Z" fill="#fff"/>
  </g>
</svg>
