<svg id="Layer_2" data-name="Layer 2" xmlns="http://www.w3.org/2000/svg" width="33.429" height="30" viewBox="0 0 33.429 30">
  <path id="Path_237487" data-name="Path 237487" d="M21.745,16.1a1.172,1.172,0,0,0-1.657,0l-4.252,4.252V4.422a1.172,1.172,0,1,0-2.345,0V20.351L9.24,16.1a1.172,1.172,0,0,0-1.657,1.657l6.253,6.253a1.172,1.172,0,0,0,1.657,0l6.253-6.253a1.172,1.172,0,0,0,0-1.657Z" transform="translate(2.053 -3.25)" fill="#424242"/>
  <path id="Path_237488" data-name="Path 237488" d="M32.679,24.41H5.25a2.893,2.893,0,0,1-3-2.735V15.422A1.233,1.233,0,0,1,3.536,14.25a1.233,1.233,0,0,1,1.286,1.172v6.253a.411.411,0,0,0,.429.391H32.679a.411.411,0,0,0,.429-.391V15.422a1.291,1.291,0,0,1,2.571,0v6.253A2.893,2.893,0,0,1,32.679,24.41Z" transform="translate(-2.25 5.59)" fill="#ff40f1"/>
</svg>
