<svg id="Group_169322" data-name="Group 169322" xmlns="http://www.w3.org/2000/svg" width="94.532" height="94.532" viewBox="0 0 94.532 94.532">
  <path id="Path_243056" data-name="Path 243056" d="M10.668,266.668H24.453v3.939H10.668Zm0,0" transform="translate(-8.698 -217.432)" fill="#455d76"/>
  <path id="Path_243057" data-name="Path 243057" d="M314.751,233.689H283.24a5.908,5.908,0,0,1-5.908-5.908v-51.2a5.908,5.908,0,0,1,5.908-5.908h31.511a5.908,5.908,0,0,1,5.908,5.908v51.2A5.908,5.908,0,0,1,314.751,233.689ZM283.24,174.607a1.969,1.969,0,0,0-1.969,1.97v51.2a1.969,1.969,0,0,0,1.969,1.97h31.511a1.97,1.97,0,0,0,1.97-1.97v-51.2a1.97,1.97,0,0,0-1.97-1.97Zm0,0" transform="translate(-226.127 -139.157)" fill="#fed035"/>
  <path id="Path_243058" data-name="Path 243058" d="M173.3,369.725h7.878v3.939H173.3ZM128,352h3.939v9.847H128Zm0,0" transform="translate(-104.367 -287.009)" fill="#455d76"/>
  <path id="Path_243059" data-name="Path 243059" d="M96,394.668h29.541v3.939H96Zm0,0" transform="translate(-78.275 -321.799)" fill="#fed035"/>
  <path id="Path_243060" data-name="Path 243060" d="M46.607,52.515H42.668V48.576a5.908,5.908,0,0,1,5.908-5.908h3.939v3.939H48.576a1.97,1.97,0,0,0-1.97,1.97Zm-3.939,3.939h3.939v3.939H42.668Zm74.838,17.725h3.939v3.939h-3.939Zm0,0" transform="translate(-34.79 -34.79)" fill="#455d76"/>
  <path id="Path_243061" data-name="Path 243061" d="M82.716,47.266h3.939V51.2H82.716ZM47.266,66.961H5.908A5.909,5.909,0,0,1,0,61.052V5.908A5.909,5.909,0,0,1,5.908,0h70.9a5.909,5.909,0,0,1,5.908,5.908V27.572H78.777V5.908a1.97,1.97,0,0,0-1.97-1.97H5.908a1.97,1.97,0,0,0-1.97,1.97V61.052a1.969,1.969,0,0,0,1.97,1.969H47.266ZM74.838,39.388h3.939v3.939H74.838Zm0,0" fill="#389aff"/>
  <g id="Group_169321" data-name="Group 169321" transform="translate(19.694 8.455)">
    <path id="Path_243062" data-name="Path 243062" d="M251.573,64.91h-3.939V57.033a1.97,1.97,0,0,0-1.97-1.97H225.971a1.969,1.969,0,0,1-1.393-3.362l5.908-5.908,2.785,2.785-2.547,2.547h14.94a5.908,5.908,0,0,1,5.908,5.908Zm0,0" transform="translate(-202.338 -45.793)" fill="#455d76"/>
    <path id="Path_243063" data-name="Path 243063" d="M128.908,80.574l2.785-2.785L137.6,83.7l-2.785,2.785Zm-1.153,41.359-2.785-2.785,2.547-2.547h-14.94a5.908,5.908,0,0,1-5.908-5.908v-7.878h3.939v7.878a1.97,1.97,0,0,0,1.97,1.97H132.27a1.969,1.969,0,0,1,1.393,3.362Zm0,0" transform="translate(-106.668 -71.881)" fill="#455d76"/>
    <path id="Path_243064" data-name="Path 243064" d="M205.793,240.582l2.785-2.785,5.908,5.909-2.785,2.785Zm0,0" transform="translate(-187.491 -202.347)" fill="#455d76"/>
  </g>
</svg>
