<svg xmlns="http://www.w3.org/2000/svg" width="105.387" height="105.521" viewBox="0 0 105.387 105.521">
  <g id="Group_165690" data-name="Group 165690" transform="translate(-0.297)">
    <path id="Path_237696" data-name="Path 237696" d="M154.893,34.055a1.127,1.127,0,0,1-1.127-1.127V21.686a1.127,1.127,0,0,1,1.127-1.127h24.488a1.127,1.127,0,1,1,0,2.255H156.021V32.927A1.127,1.127,0,0,1,154.893,34.055Z" transform="translate(-118.866 -15.924)" fill="#e0e9ef"/>
    <path id="Path_237697" data-name="Path 237697" d="M258.116,0h20.746V11.526H258.116Z" transform="translate(-199.688)" fill="#6262f4"/>
    <path id="Path_237698" data-name="Path 237698" d="M177.538,401.082H154.893a1.127,1.127,0,0,1-1.127-1.127V388.713a1.127,1.127,0,0,1,2.255,0v10.114h21.518a1.127,1.127,0,0,1,0,2.255Z" transform="translate(-118.866 -300.196)" fill="#e0e9ef"/>
    <path id="Path_237699" data-name="Path 237699" d="M258.116,416.882h20.746v11.526H258.116Z" transform="translate(-199.688 -322.886)" fill="#6262f4"/>
    <path id="Path_237700" data-name="Path 237700" d="M278.4,342.572h-21.26a1.127,1.127,0,1,1,0-2.255H278.4a1.127,1.127,0,0,1,0,2.255Z" transform="translate(-198.055 -263.585)" fill="#e0e9ef"/>
    <circle id="Ellipse_453" data-name="Ellipse 453" cx="6.915" cy="6.915" r="6.915" transform="translate(80.37 70.944)" fill="#f761a6"/>
    <path id="Path_237701" data-name="Path 237701" d="M278.4,119.7h-21.26a1.127,1.127,0,1,1,0-2.255H278.4a1.127,1.127,0,0,1,0,2.255Z" transform="translate(-198.055 -90.962)" fill="#e0e9ef"/>
    <circle id="Ellipse_454" data-name="Ellipse 454" cx="6.915" cy="6.915" r="6.915" transform="translate(80.37 20.692)" fill="#f761a6"/>
    <path id="Path_237702" data-name="Path 237702" d="M321.735,231.135H304.164a1.127,1.127,0,0,1,0-2.255h17.571a1.127,1.127,0,1,1,0,2.255Z" transform="translate(-234.48 -177.274)" fill="#e0e9ef"/>
    <path id="Path_237703" data-name="Path 237703" d="M375.689,208.321h20.746v11.526H375.689Z" transform="translate(-290.751 -161.35)" fill="#6262f4"/>
    <path id="Path_237704" data-name="Path 237704" d="M71.757,117.541V104.747l-8.37-1.218a28.207,28.207,0,0,0-2.63-6.346L65.816,90.4l-9.047-9.047-6.781,5.058a28.217,28.217,0,0,0-6.346-2.63l-1.218-8.37H29.63l-1.218,8.37a28.213,28.213,0,0,0-6.346,2.63l-6.781-5.058L6.239,90.4,11.3,97.183a28.224,28.224,0,0,0-2.63,6.346L.3,104.747v12.794l8.37,1.218A28.221,28.221,0,0,0,11.3,125.1l-5.058,6.781,9.047,9.047,6.781-5.059a28.217,28.217,0,0,0,6.346,2.63l1.218,8.37H42.424l1.218-8.37a28.212,28.212,0,0,0,6.346-2.63l6.781,5.059,9.047-9.047L60.757,125.1a28.213,28.213,0,0,0,2.63-6.346Z" transform="translate(0 -58.41)" fill="#fdbf38"/>
    <circle id="Ellipse_455" data-name="Ellipse 455" cx="20.516" cy="20.516" r="20.516" transform="translate(15.512 32.218)" fill="#fff"/>
    <path id="Path_237705" data-name="Path 237705" d="M136,286.168a1.152,1.152,0,0,0-1.152,1.152v6.857a20.415,20.415,0,0,0,2.3.486V287.32A1.152,1.152,0,0,0,136,286.168Z" transform="translate(-104.215 -221.645)" fill="#6262f4"/>
    <path id="Path_237706" data-name="Path 237706" d="M98.389,255.408a1.152,1.152,0,0,0-1.152,1.152v9.107a20.637,20.637,0,0,0,2.3,1.831V256.56a1.152,1.152,0,0,0-1.152-1.152Z" transform="translate(-75.083 -197.82)" fill="#35c9ad"/>
    <path id="Path_237707" data-name="Path 237707" d="M173.615,265.661a1.152,1.152,0,0,0-1.152,1.152v11.967a20.365,20.365,0,0,0,2.3-.486v-11.48a1.152,1.152,0,0,0-1.152-1.152Z" transform="translate(-133.347 -205.762)" fill="#f761a6"/>
    <path id="Path_237708" data-name="Path 237708" d="M211.228,245.155a1.152,1.152,0,0,0-1.152,1.152v13.25a20.584,20.584,0,0,0,2.3-1.831V246.307a1.152,1.152,0,0,0-1.152-1.152Z" transform="translate(-162.48 -189.879)" fill="#ac9ef9"/>
    <path id="Path_237709" data-name="Path 237709" d="M98.83,198.154l-6.208-.236a1.124,1.124,0,0,0-1.168,1.2,1.157,1.157,0,0,0,1.127,1.057l2.41.092-10.167,6.625-6.077-5.461a1.152,1.152,0,0,0-1.456-.068l-9.062,6.724a20.454,20.454,0,0,0,.411,2.52l.039.015,9.229-6.847,6.034,5.423a1.152,1.152,0,0,0,1.4.108l10.848-7.069-.882,2.2a1.127,1.127,0,0,0,2.093.839l2.236-5.581a1.151,1.151,0,0,0-.807-1.538Z" transform="translate(-52.615 -153.292)" fill="#9bb6c6"/>
    <path id="Path_237710" data-name="Path 237710" d="M67.333,405.618l1.31.278-1.515.43a2.255,2.255,0,0,0-1.586,1.682l-.281,1.27-.281-1.27a2.254,2.254,0,0,0-1.586-1.682l-1.515-.43,1.31-.278a2.255,2.255,0,0,0,1.723-1.672l.349-1.432.349,1.432A2.255,2.255,0,0,0,67.333,405.618Z" transform="translate(-47.697 -311.757)" fill="#e56ab9"/>
    <path id="Path_237711" data-name="Path 237711" d="M407.333,35.618l1.31.278-1.515.43a2.254,2.254,0,0,0-1.586,1.682l-.281,1.27-.281-1.27a2.254,2.254,0,0,0-1.586-1.682l-1.515-.43,1.31-.278a2.255,2.255,0,0,0,1.723-1.672l.349-1.432.349,1.432a2.254,2.254,0,0,0,1.723,1.672Z" transform="translate(-311.036 -25.182)" fill="#8c9eff"/>
  </g>
</svg>
