<svg xmlns="http://www.w3.org/2000/svg" width="93.102" height="63.633" viewBox="0 0 93.102 63.633">
  <g id="Group_163879" data-name="Group 163879" transform="translate(-6.5 -24.7)">
    <path id="Path_234876" data-name="Path 234876" d="M95.036,40.973,6.5,37.508l62.7-9.326,2.8-.413L92.615,24.7Z" transform="translate(0)" fill="#fba616"/>
    <path id="Path_234877" data-name="Path 234877" d="M71.59,35.307a1.993,1.993,0,0,1-.21.016,1.418,1.418,0,0,1-1.4-1.214L69.2,28.9,72,28.49,72.78,33.7a1.427,1.427,0,0,1-1.19,1.611ZM94.072,58.112A7.82,7.82,0,0,0,99.6,71.462V89.055H6.5V71.462a7.816,7.816,0,0,0,0-15.633V38.237H99.6V55.829a7.815,7.815,0,0,0-5.529,2.283Z" transform="translate(0 -0.722)" fill="#fbdd6b"/>
    <path id="Path_234878" data-name="Path 234878" d="M94.072,60.405A7.82,7.82,0,0,0,99.6,73.755V91.347H6.5V73.755a7.816,7.816,0,0,0,0-15.633V40.53H99.6V58.122a7.815,7.815,0,0,0-5.529,2.283Z" transform="translate(0 -3.014)" fill="#fbdd6b"/>
    <g id="Group_163878" data-name="Group 163878" transform="translate(21.907 37.516)">
      <path id="Path_234879" data-name="Path 234879" d="M80.849,40.53v5.262a1.417,1.417,0,1,1-2.834,0V40.53ZM79.432,68.12a1.414,1.414,0,0,0-1.417,1.417v9.351a1.417,1.417,0,0,0,2.834,0V69.537A1.418,1.418,0,0,0,79.432,68.12Zm0-16.548a1.414,1.414,0,0,0-1.417,1.417V62.34a1.417,1.417,0,0,0,2.834,0V52.989a1.418,1.418,0,0,0-1.417-1.417Zm1.417,34.512v5.262H78.015V86.085a1.417,1.417,0,0,1,2.834,0ZM44.536,53.88H26.948a1.417,1.417,0,1,1,0-2.834H44.536a1.417,1.417,0,0,1,0,2.834Zm17.587,8.983H26.948a1.417,1.417,0,1,1,0-2.834H62.123a1.417,1.417,0,1,1,0,2.834Zm0,8.985H26.948a1.417,1.417,0,1,1,0-2.834H62.123a1.417,1.417,0,0,1,0,2.834Zm0,8.984H26.948a1.417,1.417,0,0,1,0-2.834H62.123a1.417,1.417,0,1,1,0,2.834Z" transform="translate(-25.531 -40.53)" fill="#fba616"/>
    </g>
  </g>
</svg>
