<svg xmlns="http://www.w3.org/2000/svg" width="26.328" height="25.107" viewBox="0 0 26.328 25.107">
  <g id="Group_18921" data-name="Group 18921" transform="translate(0 0)">
    <path id="Path_72728" data-name="Path 72728" d="M25.707,20.947l-8.528-.791L13.791,12.29a.683.683,0,0,0-1.255,0L9.149,20.156l-8.528.791a.683.683,0,0,0-.388,1.194l6.434,5.652L4.784,36.148a.683.683,0,0,0,1.016.738l7.364-4.373,7.364,4.373a.683.683,0,0,0,1.016-.738L19.66,27.793l6.434-5.652A.683.683,0,0,0,25.707,20.947Z" transform="translate(0 -11.877)" fill="#ffdc64"/>
    <path id="Path_72729" data-name="Path 72729" d="M13.791,12.29a.683.683,0,0,0-1.255,0L9.149,20.156l-8.528.791a.683.683,0,0,0-.388,1.194l6.434,5.652L4.784,36.148a.683.683,0,0,0,1.016.738l1.644-.976a30.14,30.14,0,0,1,8.023-19.73Z" transform="translate(0 -11.877)" fill="#ffc850"/>
  </g>
</svg>
