<svg id="Group_165868" data-name="Group 165868" xmlns="http://www.w3.org/2000/svg" width="1920.02" height="871.852" viewBox="0 0 1920.02 871.852">
  <path id="Path_239077" data-name="Path 239077" d="M346.52,549.408l-1.84-.683L312.57,536.75l-2.13-.791-3.04-1.133c3.16-1.456,4.38-3.308,3.64-5.071a4.108,4.108,0,0,0-.96-1.34,11.539,11.539,0,0,0-3.93-2.248c-.02,0-.04-.018-.07-.027l27.73-10.4,2.22-.836v-2.365l-2.22.836L327.6,515.7l-2.22.836-22.88,8.586a42.341,42.341,0,0,0-19.5.6c-.12.036-.23.072-.35.117.11-.045.22-.081.34-.117l-21.85-8.145-1.83-.683-6.21-2.32-2.22-.827-3.38-1.259-2.22-.827-3.76-1.4-3.36-1.25-40.84-15.221-2.21-.827-4.01-1.492a1.23,1.23,0,0,1,.07.171,5.43,5.43,0,0,1,.12,1.385v.863l3.82,1.421,2.22.827,2.09.782.15.054,34.9,13.009,1.35.5,3.92,1.465,2.22.827,3.31,1.232,2.22.827,3.38,1.259,2.22.827,26.84,10.006a8.859,8.859,0,0,0-2.21,1.546,4.071,4.071,0,0,0-.85,1.223c-.55,1.295-.05,2.634,1.51,3.83.18.135.37.279.58.414l-.58.216-5.57,2.086-1.93.719-33.43,12.542-1.9.71a2.894,2.894,0,0,1,.62,1.906v.225l2.26-.845,39.96-15,2.22-.836v-3.587a2.056,2.056,0,0,1,.91-1.879,4.153,4.153,0,0,1,2.3-.584,3.539,3.539,0,0,1,1.33.225,1.537,1.537,0,0,1,.79.6,2.658,2.658,0,0,1,.21,1.232v4.8c.72.135,1.46.252,2.21.351a45.725,45.725,0,0,0,7.87.3c.99-.045,1.98-.126,2.94-.243a34.272,34.272,0,0,0,4.99-.944c.17-.045.36-.1.53-.153-.18.054-.36.108-.53.153l33.86,12.623,2.22.827,6.18,2.3c.42-.063.99-.117,1.71-.171,1.32-.1,2.39-.216,3.19-.351l-4.83-1.8Zm-158.62-58.3a4.283,4.283,0,0,0-1.55-.261,5.065,5.065,0,0,0-2.12.414l4.85,1.807a2.542,2.542,0,0,0-.26-1.277,1.751,1.751,0,0,0-.92-.683Zm6.78-35.953a6.064,6.064,0,0,1-.6-.225l-3.64,1.367-2.91,1.088-2.74,1.025-2.11.791-1.24.467v2.365l11.35-4.262,1.93-.719,3.27-1.223a28.214,28.214,0,0,1-3.3-.665ZM97.46,458.02h3.91l-3.91-1.456Zm59.29-210.863-4.09,1.537h0c-.61-.162-1.25-.315-1.91-.441a17.552,17.552,0,0,1-.95,5.385,7.914,7.914,0,0,1-3.75,3.857,20.548,20.548,0,0,1-6.61,1.942c-1.12.153-2.48.279-4.08.369a43.09,43.09,0,0,0,17.44-.6l1.35.5,2.03-9.764c-.08-.036-.17-.081-.25-.117l.3-.117.53-2.562Zm1522.97,93.906-18.9,7.094-3.25,1.223-5.62,2.1-5.23,1.96-5.62,2.1,3.17,1.169,5.62-2.1,5.23-1.96,5.62-2.1.07-.027,22.09-8.289-3.17-1.169Zm52.85,91.056h0l-.81.306-2.67,1.007-22.11,8.3-2.54.953-.96.36-1.15.432-10.32,3.875-9.85,3.7-.79.3-3.49,1.313-.94.351-17.02,6.383.43.162v2.05l19.77-7.426.94-.351,3.3-1.241.2-.072,10.63-3.992,7.21-2.706,4.27-1.6.96-.36,2.54-.953,17.83-6.689,1.34-.5,2.95-1.106,2.67-1,.81-.306h0l-3.17-1.178Zm79.4,112.714h0l-4.1-1.528-2.96-1.106-20.93-7.8a7.558,7.558,0,0,0,3.59-2.742,2.68,2.68,0,0,0-.32-3.237,8.838,8.838,0,0,0-3.34-2.319c-.02,0-.03-.009-.05-.027a.112.112,0,0,1,.05.018l20.51-7.7,3.49-1.313,4.17-1.564h0l3.79-1.42v-2.365l-3.78,1.421h0l-7.12,2.67-3.72,1.394-20.62,7.741h0a35.574,35.574,0,0,0-5.65-.98,44.69,44.69,0,0,0-5.05-.2,37.366,37.366,0,0,0-10.37,1.5h0l-6.71-2.5-2.96-1.106-24.55-9.152-2.96-1.106-24.55-9.152-2.96-1.106L1670.32,492l-2.96-1.106-24.55-9.152-2.96-1.106-4.8-1.789c2.24-1,3.54-2.194,3.89-3.425a2.49,2.49,0,0,0-.1-1.7,6.351,6.351,0,0,0-3.26-2.886l19.84-7.444,2.41-.908,1.08-.4,1.39-.521,19.78-7.426.94-.351,3.3-1.241.2-.072,10.63-3.992,7.21-2.706,4.27-1.6.96-.36,2.54-.953,17.83-6.689,1.34-.5,2.95-1.106,2.67-1,.81-.306h0l-3.17-1.178h0l-.81.306-2.67,1.007-22.11,8.3-2.54.953-.96.36-1.15.432L1692,447.312l-9.85,3.7-.79.3-3.49,1.313-.94.351-17.02,6.383-4.15,1.555-1.08.4-19.97,7.5-1.73.647-.49.189c-.81-.243-1.66-.45-2.55-.629a40.03,40.03,0,0,0-5.76-.71c-.81-.045-1.64-.072-2.46-.072a43.066,43.066,0,0,0-6.72.512,29.606,29.606,0,0,0-4.35,1l-22.83-8.514-2.57.953c-.2.072-.38.144-.55.225l22.94,8.55a8.94,8.94,0,0,0-1.74,1.169c-2.46,2.149-1.66,4.693,2.39,6.581l-16.38,6.15-22.2,8.325-.14.054-24,9.008-14.9,5.592-2.24.836-22.11,8.3-18.95,7.112,2.1.773,1.07.4,15.4-5.781,3.55-1.331,22.11-8.3,2.23-.836,14.9-5.592,24-9.008.14-.054,22.21-8.334,16.4-6.15h0a41.232,41.232,0,0,0,12.8,1.223,37.229,37.229,0,0,0,7.52-1.124c.16-.036.31-.081.46-.126-.15.045-.3.09-.46.126l4.86,1.807,3.08,1.151,24.4,9.1,3.13,1.169,24.36,9.08,3.18,1.187,24.3,9.062,3.23,1.2,24.25,9.035,3.3,1.232,6.68,2.49a6.609,6.609,0,0,0-2.78,2.4c-.95,1.726,0,3.569,2.84,5.062l-14.82,5.556-23.11,8.667-.14.054-24,9.008-14.9,5.592-2.29.854-22.04,8.271-3.52,1.322-15.45,5.8-3.03,1.142h0a40.285,40.285,0,0,0-10.5-1.178,37.553,37.553,0,0,0-10.53,1.492l-2.05-.764-22.26-8.3-3.15,1.169,22.26,8.3,2.18.818a1.377,1.377,0,0,0,.14-.072c-.05.027-.1.054-.14.072a6.558,6.558,0,0,0-2.83,2.463c-.9,1.708.06,3.524,2.87,5.008l-5.22,1.96,3.18,1.169,5.07-1.906a42.169,42.169,0,0,0,20.96.351c.05-.009.1-.027.14-.036l5.05,1.879,3.15-1.169-4.95-1.843c.28-.126.55-.261.8-.4a8.819,8.819,0,0,0,1.98-1.376c1.28-1.223,1.51-2.571.71-3.848a7.937,7.937,0,0,0-3.59-2.67l2.93-1.1,15.46-5.8,3.49-1.313,22.11-8.3,2.6-.971,14.21-5.331,24.34-9.134.14-.054,23.13-8.676,14.65-5.5a41.866,41.866,0,0,0,16.71,1.151,34.425,34.425,0,0,0,4.36-.836l20.8,7.75,3.44,1.286,7,2.607,6.87,2.562v-2.346l-6.86-2.553ZM1549.68,392.21l7.97-2.994,3.49-1.313,18.68-7.013,3.43-1.286,3.86-1.447,2.44-.917.29-.108-.28-.108-2.88-1.07-2.73,1.025-3.86,1.447-.25.1-15.39,5.772-1.46.548-5.01,1.879-3.49,1.313-7.97,2.985-2.09.782-2.56.962v2.365l2.59-.98,5.23-1.96ZM565.52,300.534l-18.46-6.878-10.69-3.983,1.47,2.895L547.06,296l18.46,6.878,6.98,2.607c-4.24,2.221-4.24,5.223-.04,7.462l-6.94,2.607-26.4,9.908.94,2.014,25.46-9.548,8.23-3.093v-8.955c0-.791.01-1.537.03-2.266l-8.26-3.084ZM1584.84,460.169l-24.55-9.152-2.96-1.106-24.55-9.152-2.96-1.106-24.55-9.152-2.97-1.106-14.54-5.421a11.721,11.721,0,0,0,2.08-1.169,5.126,5.126,0,0,0,1.61-1.744c0-.009.01-.018.02-.036a2.564,2.564,0,0,0,.28-1.412,1.1,1.1,0,0,0-.02-.18c-.23-1.393-1.67-2.76-4.3-3.875l13.61-5.107,5.23-1.96.16-.063,16.31-6.123,2.98-1.115,9.81-3.677,6.32-2.365v-2.365l-9.49,3.56-3.97,1.492-3.59,1.349-5.23,1.96-9.44,3.542-1.41.53-1.36.5-4.11,1.537-.16.063-5.23,1.96-13.8,5.179a39.918,39.918,0,0,0-8.86-1.088h-.78c-1.13,0-2.26.045-3.37.126h-.03c-.8.054-1.59.144-2.36.243a31.28,31.28,0,0,0-5.32,1.142l-13.07-4.873-34.43-12.838-18.89-7.04h0l-7.24-2.7-11.31-4.217h0l-3.78-1.412-34.54-12.874a7.55,7.55,0,0,0,3.61-2.769c1.17-2.041-.33-4.253-4.48-5.862-.02-.009-.05-.018-.07-.027.03,0,.05.018.08.027l35.57-13.342,3.79-1.421,11.15-4.181,7.47-2.805h.02l-.02-.009h0l-3.16-1.16L1389.73,339l-11.14,4.181-3.79,1.421-39.08,14.664a41.505,41.505,0,0,0-8.96-.935c-1.26,0-2.52.054-3.75.153a34.6,34.6,0,0,0-7.33,1.349l-125.6-46.822a7.868,7.868,0,0,0,3.52-2.625l-21-7.8a33.133,33.133,0,0,0-6.95,1.322h0l-22.08-8.235h0l-56.91-21.218-.78-.288-.12-.045-.78-.288-40.62-15.14-3.16,1.169L1081.82,275l.78.288.12.045.78.288,60.07,22.4h0l19.07,7.111c-4.45,2.365-4.15,5.592.88,7.858l-19.95,7.489h0l-27.75,10.411-2.35.881-15.28,5.736-16.17,6.069-2.35.881-15.28,5.736-16.17,6.069h0l-2.35.881-5.42,2.032a3.046,3.046,0,0,0,.31.1c-.1-.036-.21-.063-.31-.1a37.5,37.5,0,0,0-9.86-1.474,39.567,39.567,0,0,0-12.23,1.474l-15.16-5.646-12.07-4.5v2.346l12.07,4.5,12.14,4.522h0c-4.49,2.365-4.2,5.61.85,7.867l-12,4.5-.98.369h0l-.99.378-11.08,4.154v2.364l12.07-4.531,2.49-.935.9-.342.9-.342,11.96-4.486a40.819,40.819,0,0,0,11.12,1.2,39.131,39.131,0,0,0,8.94-1.178h.01l6.33,2.355,2.35.872h0l16.17,6.024,15.28,5.7,2.35.872,16.17,6.024,15.28,5.7,2.35.872,26.87,10.015.35.126,22.35,8.334c-4,2.1-4.2,4.909-.64,7.094l.33.189-.33-.189-21.98,8.244-2.41.9-72.61,27.241-26.66,10.006c-.09-.018-.19-.045-.28-.063-.39-.081-.78-.162-1.18-.234a43.109,43.109,0,0,0-7.5-.638,38.34,38.34,0,0,0-11.02,1.483l-23.05-8.595-.37-.135-6.56-2.445v2.346l1.39.512.09.036,25.47,9.494c-2.13,1.115-3.19,2.427-3.19,3.74a3.609,3.609,0,0,0,1.61,2.724c.19.153.39.3.61.441.1.063.2.135.31.2s.24.144.37.225c-.13-.072-.25-.144-.37-.216l-13.17,4.945L893.76,525.062a42.379,42.379,0,0,0-19.95.539l-57.48-21.433-5.6-2.086-10.62-3.956-2.26-.845-3.16,1.169,2.26.836,10.78,4.019,8.1,3.021,54.95,20.48c-4.05,2.113-4.27,4.927-.69,7.13l-123.66,46.4a42.282,42.282,0,0,0-19.9.531l-74.84-27.9-2.26-.845-3.16,1.169,2.26.845,74.96,27.942c-4.07,2.113-4.3,4.936-.71,7.138L666.6,610.292l3.14,1.178,55.84-20.948c6.12,2.194,15.46,2.391,22.12.576.05-.009.1-.027.15-.036-.05.018-.1.027-.15.045l123.48,46.031c-4.23,2.194-4.33,5.161-.28,7.39l-50.93,19.114-5.77,2.167,3.14,1.178,4.78-1.789,51.75-19.41a1.432,1.432,0,0,1-.18-.063l.18.054a41.77,41.77,0,0,0,21.53.387h0l123.07,45.878c-4.5,2.329-4.32,5.538.54,7.8h0l-57.22,21.469,3.14,1.178,57.28-21.487a39.58,39.58,0,0,0,10.35,1.286,39.123,39.123,0,0,0,10.12-1.223l67.84,25.29,3.63,1.349,10.26,3.821,3.13-1.178-10.41-3.884-6.38-2.383-64.83-24.166a.936.936,0,0,0-.1.045.372.372,0,0,0,.09-.045c5.04-2.3,5.17-5.592.42-7.957l123.21-46.229a39.523,39.523,0,0,0,10.35,1.286h.19a39.552,39.552,0,0,0,9.9-1.214l81.26,30.289,3.12-1.178-81.15-30.244c-.06.027-.13.054-.19.081.06-.027.13-.054.19-.081,5.05-2.3,5.2-5.61.44-7.975l45.36-17.019,16.23-6.087h0l13.49-5.062h0l-3.17-1.169h0l-13.49,5.062-16.23,6.087L1190.55,635.5c.19.054.37.117.55.18-.18-.063-.37-.117-.56-.171a41.715,41.715,0,0,0-21.73.072h0l-106.53-39.711-16.34-6.1c5.35-2.436,5.2-5.988-.43-8.37l44.51-16.7,16.23-6.087h0l62.26-23.366a.572.572,0,0,1-.11-.045c.04.009.07.027.11.036,6.09,2,15.02,2.131,21.46.4l8.57,3.192,72.35,26.971,2.24.836,3.15-1.169-2.24-.836h0l-72.35-26.971-8.48-3.156c5.38-2.436,5.24-6-.4-8.388l90.86-34.092,22.11-8.3,3.49-1.313,6.55-2.454c6.08,2,14.99,2.131,21.42.414l5.04,1.879,3.93,1.465,4.92,1.834,17.34,6.464,4.5,1.681,22.26,8.3,4.5,1.681,22.26,8.3,4.5,1.681,22.26,8.3,4.34,1.618,7.26,2.706c-2.11,1.115-3.16,2.418-3.16,3.722,0,1.43,1.26,2.859,3.78,4.046l-5.87,2.2-3.49,1.313-22.11,8.3-3.49,1.313-24.93,9.35-27.94,10.483,3.17,1.169,27.94-10.483,24.93-9.35,3.49-1.3,22.11-8.3,3.53-1.322,5.87-2.2h0c.42.117.86.225,1.3.333l14.73-5.475c.75-.279.74-.728-.01-1.007l-13.19-4.864a28.286,28.286,0,0,0-3.65.872l-7.13-2.652-4.34-1.618-22.26-8.3-4.5-1.681-22.26-8.3-4.5-1.681-22.26-8.3-4.5-1.681-15.2-5.664-7.05-2.625-3.93-1.465-4.94-1.843c-.32.144-.66.288-1.02.423.36-.135.7-.279,1.02-.423a11.79,11.79,0,0,0,1.9-1.052,4.376,4.376,0,0,0,2.02-2.625c.3-1.672-1.13-3.389-4.29-4.729l16.86-6.329,66.75-25.047.14-.054,22.08-8.28,17.17-6.446a38.685,38.685,0,0,0,12.5,1.591,39.111,39.111,0,0,0,8.88-1.169l14.66,5.466,2.97,1.106,24.54,9.143,2.98,1.106,24.52,9.143,3,1.115,24.5,9.134,3.02,1.124c.17-.081.36-.153.55-.225l2.57-.953-2.96-1.106Zm-567.67-100.6c-.08.027-.16.054-.24.09.08-.027.16-.063.24-.09l.24-.081c-.08.027-.16.054-.24.09Zm445.06,55.7c-.15.054-.28.117-.42.171C1461.95,415.369,1462.08,415.315,1462.23,415.261ZM1164.5,304.283c.05-.018.11-.036.16-.054a1.182,1.182,0,0,0-.16.063c-.18.072-.35.135-.52.2C1164.15,304.418,1164.32,304.355,1164.5,304.283Zm-122.88,55.282c-.09-.036-.19-.072-.29-.108.1.036.2.072.29.1a.979.979,0,0,1,.1.045C1041.69,359.592,1041.66,359.574,1041.62,359.565Zm101.91,46.265h0l-27.75-10.348-2.35-.872-15.28-5.7-16.17-6.024-2.35-.872-15.28-5.7-16.17-6.024h0l-2.35-.872-3.08-1.151h0a9.022,9.022,0,0,0,3.08-2.077,2.812,2.812,0,0,0,0-4.082,8.136,8.136,0,0,0-2.37-1.735l2.37-.89,2.35-.881h0l16.17-6.069,15.28-5.736,2.35-.881,16.17-6.069,15.28-5.736,2.35-.881,27.75-10.411h0l23.21-8.712h0a42.617,42.617,0,0,0,20.03.027l125.85,46.912c-3.96,2.1-4.17,4.9-.61,7.076.26.162.55.324.86.477-.31-.153-.6-.315-.86-.477l-123.66,46.391a42.151,42.151,0,0,0-20.01.566l-24.83-9.251ZM749.96,590.369q.435-.175.84-.351C750.53,590.144,750.26,590.261,749.96,590.369Zm144.83,45.2h0a42.119,42.119,0,0,0-20.58.369l-123.3-45.959c2.59-1.178,3.88-2.625,3.88-4.073,0-1.627-1.63-3.246-4.87-4.5l122.96-46.13a1.062,1.062,0,0,0-.11-.036c.04.009.07.027.11.036,6.1,2.194,15.43,2.391,22.08.593l123.5,46.031c-4.21,2.194-4.29,5.152-.26,7.381l-123.41,46.31ZM1062.47,598.3l103.27,38.5c-2.16,1.124-3.23,2.445-3.22,3.767.01,1.42,1.27,2.85,3.78,4.019l-123.11,46.193h0a41.793,41.793,0,0,0-21.7.063L898.61,645.031c5.32-2.436,5.16-5.979-.46-8.361-.17-.072-.35-.144-.53-.216.18.072.36.135.53.207l123.01-46.148c-.19-.063-.36-.126-.54-.189l.54.189c6.1,2,15.06,2.131,21.5.4l19.81,7.381Zm103.05-64.309-62.48,23.447-16.23,6.087-44.7,16.767h0a42.276,42.276,0,0,0-20.62.378L898.2,534.709c2.61-1.187,3.91-2.634,3.91-4.091,0-1.627-1.63-3.245-4.87-4.5h0l122.97-46.139c6.09,2.185,15.39,2.383,22.04.6l74.06,27.61,49.45,18.43c-4.18,2.185-4.26,5.134-.23,7.363Zm147.32-55.273-6.77,2.535-3.49,1.313-22.11,8.3-91.04,34.155a40.546,40.546,0,0,0-9.63-1.1,38.344,38.344,0,0,0-11.02,1.483l-49.32-18.385-73.97-27.574c5.55-2.508,5.23-6.221-.93-8.6-.02,0-.04-.018-.06-.027a.153.153,0,0,1,.06.018l122.96-46.13c6.08,2.185,15.36,2.391,22,.611l74.81,27.888,35.54,13.243,13.16,4.909c-4.15,2.194-4.21,5.125-.2,7.345Zm129.93-48.746-22.08,8.28-.14.054-26.53,9.953-9.8,3.677-30.43,11.418-17.05,6.392a40.569,40.569,0,0,0-9.64-1.1c-1.08,0-2.16.036-3.23.117a38.439,38.439,0,0,0-5.16.7,27.33,27.33,0,0,0-2.66.683h0l-13.02-4.855-35.54-13.243L1192.78,424.2c5.57-2.517,5.27-6.23-.9-8.622l122.96-46.13c6.07,2.176,15.33,2.383,21.97.62h0l37.79,14.088,3.78,1.411,11.33,4.217,7.23,2.7h0l15.75,5.871,34.41,12.829,13.23,4.936c-1.92,1.016-2.96,2.194-3.12,3.389-.18,1.376.8,2.76,2.94,3.947l-17.39,6.527Zm21.07-122.064.02-3.614c-.31.081-.62.171-.92.27h0l-5.4-2.014v2.338l2.4.9c-2.08,1.115-3.12,2.418-3.1,3.722a2.882,2.882,0,0,0,.67,1.753,6.8,6.8,0,0,0,1.86,1.591.913.913,0,0,0,.16.1c-.06-.036-.11-.063-.16-.1l-1.87.7-.11.045-5.62,2.1-5.23,1.96,3.17,1.169,5.23-1.96,7.24-2.715a31.627,31.627,0,0,0,6.97,1.528,44.082,44.082,0,0,0,5.02.279h.17a40.91,40.91,0,0,0,8.79-.935l-19.29-7.12ZM539.12,325.464l-4.44,1.663v2.365l5.37-2.014-.94-2.014Zm1045.72,134.7-24.55-9.152-2.96-1.106-24.55-9.152-2.96-1.106-24.55-9.152-2.97-1.106-14.54-5.421a11.721,11.721,0,0,0,2.08-1.169,5.126,5.126,0,0,0,1.61-1.744c0-.009.01-.018.02-.036a2.564,2.564,0,0,0,.28-1.412l-16.94-6.248h-.38c-1.13,0-2.26.045-3.37.126h-.03c-.8.054-1.59.144-2.36.243a31.28,31.28,0,0,0-5.32,1.142L1450.28,410l-34.43-12.838-18.89-7.04h0l-7.24-2.7v2.347l7.23,2.7h0l15.75,5.871,34.41,12.829,13.23,4.936c-1.92,1.016-2.96,2.194-3.12,3.389-.18,1.376.8,2.76,2.94,3.947l-17.39,6.527-22.08,8.28-.14.054-26.53,9.952-9.8,3.677-30.43,11.418-17.05,6.392a40.569,40.569,0,0,0-9.64-1.1c-1.08,0-2.16.036-3.23.117a38.439,38.439,0,0,0-5.16.7l23.66,8.73a4.376,4.376,0,0,0,2.02-2.625c.3-1.672-1.13-3.389-4.29-4.729l16.86-6.329,66.75-25.047.14-.054,22.08-8.28,17.17-6.446a38.685,38.685,0,0,0,12.5,1.591,39.111,39.111,0,0,0,8.88-1.169l14.66,5.466,2.97,1.106,24.54,9.143,2.98,1.106,24.52,9.143,3,1.115,24.5,9.134,3.02,1.124c.17-.081.36-.153.55-.225l2.57-.953-2.96-1.106Zm-122.61-44.907c-.15.054-.28.117-.42.171C1461.95,415.369,1462.08,415.315,1462.23,415.261Zm-364.08-26.342-16.17-6.024-2.35-.872-15.28-5.7v2.338l15.28,5.7,2.35.872,16.17,6.024,15.28,5.7v-2.338Zm-94.97-15.176c-.33-.09-.66-.171-.99-.252l-11.08,4.154L978.7,382.3v2.365l12.41-4.657,12.07-4.531,2.49-.935-.43-.162c-.65-.243-1.34-.458-2.07-.656ZM483.61,457.175a2.148,2.148,0,0,0,.46.467,4.164,4.164,0,0,0,2.55.764l2.96-1.106,2.22-.836,2.71-1.016v-2.365l-10.9,4.091Zm-28.66,17.783a2.693,2.693,0,0,0,1.22,2.113,4.162,4.162,0,0,0,1.39.585,2.956,2.956,0,0,0,.95-2.706h-3.56Zm1129.89-14.789-24.55-9.152-2.96-1.106-24.55-9.152-2.96-1.106a.514.514,0,0,0-.05.018l-2.81,1.043-.3.108,2.98,1.106,24.52,9.143,3,1.115,24.5,9.134,3.02,1.124c.17-.081.36-.153.55-.225l2.57-.953-2.96-1.106Zm7.63-86.372-5.8,2.176,2.88,1.07.28.108.19-.072,5.62-2.113-3.17-1.169Zm-64.08,24.041-3.59,1.349-5.23,1.96-9.44,3.542-1.41.53-1.36.5-4.11,1.537-.16.063-5.23,1.96-13.8,5.179a39.918,39.918,0,0,0-8.86-1.088h-.4l16.94,6.248a1.1,1.1,0,0,0-.02-.18c-.23-1.393-1.67-2.76-4.3-3.875l13.61-5.107,5.23-1.96.16-.063,16.31-6.122,2.98-1.115,9.81-3.677,6.32-2.365v-2.365l-9.49,3.56-3.97,1.492Zm-81.86-80.168-8.33,3.129-2.17.809-.35.135-5.62,2.113-5.23,1.96-5.62,2.1-3.17,1.187-18.84,7.066h0l-3.17,1.2,3.16,1.16h.02l19.95-7.48,5.23-1.96,5.62-2.1,5.23-1.96,8.13-3.048.3-.117,2.43-.908,5.62-2.1-3.17-1.169Zm-398.34,52.621h0v2.338h0l16.17,6.024v-2.337Zm33.79-26.738-2.35.881-15.28,5.736-16.17,6.069h0l-2.35.881-5.42,2.032a3.023,3.023,0,0,0,.31.1c-.1-.036-.21-.063-.31-.1a37.5,37.5,0,0,0-9.86-1.474,39.568,39.568,0,0,0-12.23,1.474l-15.16-5.646-12.07-4.5-12.41-4.621-11.39-4.253-.02,2.338,11.41,4.253,12.41,4.63,12.07,4.5,12.14,4.522h0c-4.49,2.365-4.2,5.61.85,7.867l-12,4.5-.98.369h0l-.99.378c.34.081.67.162.99.252.73.2,1.42.414,2.07.656l.43.162.9-.342.9-.342,11.96-4.486a40.821,40.821,0,0,0,11.12,1.2,39.131,39.131,0,0,0,8.94-1.178h.01l6.33,2.356,2.35.872h0l16.17,6.024v-2.338l-16.17-6.024h0l-2.35-.872-3.08-1.151h0a9.022,9.022,0,0,0,3.08-2.077,2.812,2.812,0,0,0,0-4.082,8.136,8.136,0,0,0-2.37-1.735l2.37-.89,2.35-.881h0l16.17-6.069,15.28-5.736,2.35-.881,16.17-6.069v-2.365l-16.17,6.069Zm-64.81,16.012c-.08.027-.16.054-.24.09.08-.027.16-.063.24-.09l.24-.081c-.08.027-.16.054-.24.09Zm24.45,0c-.09-.036-.19-.072-.29-.108.1.036.2.072.29.1a.979.979,0,0,1,.1.045C1041.69,359.592,1041.66,359.574,1041.62,359.565Zm-74.76,29.552,11.83-4.441,12.41-4.657v-2.364l-12.41,4.657-11.81,4.432L903.84,410.4l-10.74,4.028a41.713,41.713,0,0,0-22.05,0h0l-1.43-.53-.9-.333-.9-.333-29.13-10.86-89.41-33.328c5.62-2.535,5.23-6.311-1.16-8.694-.03,0-.04-.018-.07-.027l90.63-34,14.39-5.4.02-2.364-14.41,5.412-94.21,35.351h0a42.312,42.312,0,0,0-19.61.629l-99.84-37.212-25.09-9.35a9.461,9.461,0,0,0,2.9-1.888c2.08-2.131,1.05-4.585-3.07-6.4l3.19-1.2v-2.365l-6.5,2.436-.63-.162a42.366,42.366,0,0,0-20.3.476l-1.75-.656q-.03,1.079-.03,2.266v8.954l1.73-.647a42.082,42.082,0,0,0,20.34.53c.29-.072.58-.144.86-.216l2.49.926,25.85,9.638,96.81,36.088c-3.93,2.059-4.23,4.8-.88,6.968h0L597.13,414.587c.43.09.84.189,1.25.3-.41-.108-.82-.207-1.25-.3a42.384,42.384,0,0,0-19.57.62L452.63,368.637h0c5.27-2.4,5.2-5.9-.21-8.28L505.06,340.6l2.28-.854v-2.365l-8.59,3.219-49.64,18.628a39.935,39.935,0,0,0-9.92-1.169,38.359,38.359,0,0,0-10.97,1.474l-60.35-22.494-38.28-14.268v2.347l38.28,14.268,57.32,21.361c-4.27,2.23-4.28,5.241-.06,7.48L301.8,414.506a39.937,39.937,0,0,0-9.92-1.169,38.256,38.256,0,0,0-10.94,1.465l-48-17.891h-6.29l51.25,19.1c-4.3,2.221-4.33,5.25-.09,7.489l-75.74,28.419-1.9.71-3.72,1.393-2.39.89a5,5,0,0,0,.6.225,28.205,28.205,0,0,0,3.3.665l2.69-1.007,5.21-1.951,2.22-.836,72.73-27.3h0a41.948,41.948,0,0,0,21.29.306c.54-.153,1.07-.315,1.58-.486-.51.18-1.04.333-1.58.486l69.17,25.785,3.91,1.456,3.25,1.214,2.06.764.37.135h6.29l-5.19-1.933-1.85-.692-74.77-27.87c5.26-2.4,5.17-5.889-.24-8.271-.18-.072-.37-.153-.55-.225.19.072.38.144.55.225l123.04-46.166a38.355,38.355,0,0,0,11.16,1.528,39.405,39.405,0,0,0,10.1-1.223l125.13,46.643c-3.96,2.068-4.26,4.81-.91,6.986a2.225,2.225,0,0,0,.25.153c-.09-.054-.17-.1-.25-.153l-74.68,28.014-1.83.683-.4.153-2.21.827-10.9,4.091a2.145,2.145,0,0,0,.46.467,4.164,4.164,0,0,0,2.55.764l2.96-1.106,2.22-.836,2.71-1.016,2.21-.827,4.34-1.627,5.79-2.176,69.52-26.081c-.2-.072-.4-.162-.59-.243.19.081.39.162.59.234.02,0,.04.018.06.027,6.1,2.275,15.57,2.49,22.31.674l121.98,45.465c-2.14,1.115-3.22,2.436-3.22,3.758,0,1.474,1.34,2.94,4,4.145L598.43,524.945a41.82,41.82,0,0,0-21.98-.027l-47.91-17.864-2.21-.827-32.78-12.218v.62c0,.728.02,1.313.04,1.744l32.73,12.2,2.21.827,44.87,16.722c-2.08,1.079-3.16,2.337-3.24,3.614a3.366,3.366,0,0,0,1.36,2.679,10.472,10.472,0,0,0,2.65,1.627l-3.19,1.2-5.04,1.888L451.11,580.21c.07.027.14.045.21.072-.07-.027-.15-.045-.22-.072a41.761,41.761,0,0,0-21.94-.036h0l-66.43-24.76-.8-.3-1.48-.548-2.26-.845-3.85-1.438-3.02-1.124c-.81.126-1.87.243-3.19.351-.72.054-1.29.108-1.71.171l2.52.944,2.98,1.106,2.47.917,71.72,26.738c-4.6,2.365-4.34,5.646.74,7.921,0,0,.02,0,.02.009h-.02L313,632.031c.93.422,1.82.872,2.69,1.349l114.43-42.93c-.06-.018-.12-.036-.19-.054.06.018.12.027.19.045a42.485,42.485,0,0,0,20.22-.027h0l99.1,36.942h6.29L453.56,589.263c4.93-2.266,5.12-5.493.6-7.84L572.8,536.911l4.42-1.654,1.69-1.627.72.7,1.67,1.609c.98.144,1.99.252,3.02.324a41.677,41.677,0,0,0,13.31-1.115l48.6,18.116,3.16-1.169-48.52-18.089c4.95-2.266,5.15-5.493.62-7.858l123.28-46.256h0a42.537,42.537,0,0,0,20.15-.009l22.2,8.271,17.03,6.347,10.51,3.92,3.16-1.169-10.5-3.911-17.5-6.518-21.66-8.073c4.98-2.266,5.19-5.5.65-7.867l96.04-36.034.9-.342.9-.333,25.44-9.548a40.891,40.891,0,0,0,11.56,1.178,38.155,38.155,0,0,0,8.54-1.178h0l86.48,32.24,12.41,4.63v-2.346l-12.41-4.63L895.44,423.5c5.02-2.266,5.24-5.52.69-7.885l10.9-4.091,59.81-22.44ZM427.89,580.659a.429.429,0,0,0-.06.018c.02,0,.03-.018.05-.018a1.152,1.152,0,0,1,.19-.063C428,580.614,427.95,580.641,427.89,580.659ZM869.86,414.83c.15-.054.31-.108.47-.162-.16.054-.31.108-.47.162-.07.027-.12.054-.18.072A1.51,1.51,0,0,1,869.86,414.83ZM722.53,470.112c-.44.162-.84.342-1.22.512.38-.18.78-.351,1.22-.521l.3-.108-.3.108Zm146.31-46.58-25.33,9.5-.88.333-.86.324-96,36.016a41.654,41.654,0,0,0-22.01-.009L601.99,424.306c2.61-1.187,3.91-2.634,3.91-4.091,0-1.663-1.7-3.317-5.1-4.585-.02,0-.04-.018-.07-.027l122.96-46.13c-.41-.153-.79-.306-1.15-.476.36.162.74.324,1.15.467l.06.027c6.08,2.266,15.54,2.49,22.27.683l92.66,34.541,25.96,9.674.9.333.9.333,1.56.584c-1.87.98-2.92,2.113-3.14,3.264-.32,1.627,1,3.291,3.96,4.621Zm25.46-8.694-.3-.108c.11.036.2.063.3.1.17.063.34.135.5.2C894.64,414.965,894.47,414.9,894.3,414.839ZM539.12,325.464l-4.44,1.663v2.365l5.37-2.014-.94-2.014ZM458.51,474.958h-3.56a2.693,2.693,0,0,0,1.22,2.113,4.162,4.162,0,0,0,1.39.585,2.956,2.956,0,0,0,.95-2.706Zm-24.87-3.587v-1.708c-.93.171-1.82.378-2.68.611a5.764,5.764,0,0,1,1.17.261,4.508,4.508,0,0,1,1.51.836ZM396,458.074a2.1,2.1,0,0,0,.76.1c.14,0,.31,0,.5-.018l-1.73-.647a.737.737,0,0,0,.09.288.821.821,0,0,0,.39.279ZM516.23,334.05l-8.86,3.326v2.365l8.86-3.327,18.46-6.923v-2.365ZM307.91,309.965h-8.29v-6.347a40.651,40.651,0,0,0-8.02-.917v12.91a38.531,38.531,0,0,0,9.29-1.214c.12-.036.24-.072.37-.1l-.36.108,11.9,4.432h6.3l-14.96-5.574c2.13-.971,3.39-2.122,3.78-3.308ZM430.96,470.274a5.768,5.768,0,0,1,1.17.261,4.508,4.508,0,0,1,1.51.836v-1.708c-.93.171-1.82.378-2.68.611ZM395.62,457.8a.821.821,0,0,0,.39.279,2.1,2.1,0,0,0,.76.1c.14,0,.31,0,.5-.018l-1.73-.647a.737.737,0,0,0,.09.288Zm97.95,36.259v.62c0,.728.02,1.313.04,1.744l32.73,12.2v-2.347l-32.78-12.218ZM360.54,554.785a.84.84,0,0,0,.38.279,2.137,2.137,0,0,0,.76.1h.27l-1.48-.548a.551.551,0,0,0,.07.18Zm219.11-20.408-.72-.7-1.69,1.627.23-.081a32.18,32.18,0,0,0,3.85.773l-1.67-1.609Zm685.88,72.976h0l-13.49,5.062,3.17,1.169h0l13.49-5.062h0Zm214.65-78.316-13.19-4.864a28.306,28.306,0,0,0-3.65.872l-7.13-2.652-4.34-1.618-22.26-8.3-4.5-1.681-22.26-8.3-4.5-1.681-22.26-8.3-4.5-1.681L1368.44,492l4.5,1.681,22.26,8.3,4.5,1.681,22.26,8.3,4.5,1.681,22.26,8.3,4.34,1.618,7.26,2.706c-2.11,1.115-3.16,2.418-3.16,3.722,0,1.43,1.26,2.859,3.78,4.046l-5.87,2.2-3.49,1.313-22.11,8.3-3.49,1.313-24.93,9.35-27.94,10.483,3.17,1.169,27.94-10.483,24.93-9.35,3.49-1.3,22.11-8.3,3.53-1.322,5.87-2.2h0c.42.117.86.225,1.3.333l14.73-5.475c.75-.279.74-.728-.01-1.007Zm123.9,62.178-3.49,1.313-22.09,8.289-15.96,5.988,2.31.854a6.952,6.952,0,0,1,.8.351l41.63-15.616-3.18-1.169Zm-19.27-18.547,3.15-1.169-4.09-1.528-22.26-8.3-4.26-1.582-22.26-8.3-4.25-1.582-22.26-8.3-3.36-1.25-17.47-6.509a10.9,10.9,0,0,0,2.4-1.42,4.091,4.091,0,0,0,1.48-2.05c.42-1.573-.71-3.2-3.38-4.522l2.26-.845-1.07-.4-2.1-.773-2.19.818c.25.072.51.162.75.243-.25-.081-.5-.162-.75-.234-.81-.243-1.67-.45-2.55-.629a43.468,43.468,0,0,0-10.13-.728,41.153,41.153,0,0,0-5.48.584l13.19,4.864c.75.279.76.728.01,1.007l-14.73,5.475a38.961,38.961,0,0,0,6.62.89,41.611,41.611,0,0,0,12.44-1.133l17.57,6.554,3.36,1.25,22.26,8.3,4.25,1.582,22.26,8.3,4.26,1.591,22.26,8.3,4.09,1.528Zm165.08-50.976-24.55-9.152-2.96-1.106-24.55-9.152-2.96-1.106-24.55-9.152-2.96-1.106-24.55-9.152-2.96-1.106-4.8-1.789c2.24-1,3.54-2.194,3.89-3.425a2.49,2.49,0,0,0-.1-1.7,6.351,6.351,0,0,0-3.26-2.886l19.84-7.444,2.41-.908,1.08-.4,1.39-.521v-2.05l-.42-.162-4.15,1.555-1.08.4-19.97,7.5-1.73.647-.49.189c-.81-.243-1.66-.449-2.55-.629a40.026,40.026,0,0,0-5.76-.71c-.81-.045-1.64-.072-2.46-.072a43.058,43.058,0,0,0-6.72.512,29.6,29.6,0,0,0-4.35,1l-22.83-8.514-2.57.953c-.2.072-.38.144-.55.225l22.94,8.55a8.941,8.941,0,0,0-1.74,1.169c-2.46,2.149-1.66,4.693,2.39,6.581l-16.38,6.15-22.2,8.325-.14.054-24,9.008-14.9,5.592-2.24.836-22.11,8.3-18.95,7.111,2.1.773,1.07.4,15.4-5.781,3.55-1.331,22.11-8.3,2.23-.836,14.9-5.592,24-9.008.14-.054,22.21-8.334,16.4-6.149h0a41.23,41.23,0,0,0,12.8,1.223,37.229,37.229,0,0,0,7.52-1.124c.16-.036.31-.081.46-.126-.15.045-.3.09-.46.126l4.86,1.807,3.08,1.151,24.4,9.1,3.13,1.169,24.36,9.08,3.18,1.187,24.3,9.062,3.23,1.2,24.25,9.035,3.3,1.232a7.542,7.542,0,0,1,1.25-.593l1.73-.638-2.96-1.106ZM1549.68,392.21l7.97-2.994,3.49-1.313,18.68-7.013,3.43-1.286,3.86-1.447,2.44-.917.29-.108-.28-.108-2.88-1.07-2.73,1.025-3.86,1.447-.25.1-15.39,5.772-1.46.548-5.01,1.879-3.49,1.313-7.97,2.985-2.09.782-2.56.962v2.365l2.59-.98,5.23-1.96Zm39.87-15.167-2.88-1.07L1583.94,377l-3.86,1.447-.25.1-15.39,5.772-1.46.548-5.01,1.879-3.49,1.313-7.97,2.985-2.09.782-2.56.962v2.365l2.59-.98,5.23-1.96,7.97-2.994,3.49-1.313,18.68-7.013,3.43-1.286,3.86-1.447,2.44-.917.29-.108-.28-.108Zm-66.24-49.978-18.14-6.761-17.8-6.635c-.15.072-.3.135-.47.2.16-.063.32-.135.47-.2.4-.18.77-.36,1.11-.548a5.59,5.59,0,0,0,2.77-2.751c.66-1.888-.92-3.866-4.73-5.34-.02-.009-.05-.018-.07-.027a.223.223,0,0,1,.07.027l.4-.153,6.72-2.517,4.68-1.753,5.62-2.113,1.32-.494,3.91-1.465,16.47-6.176-3.17-1.169L1506,295.364l-3.92,1.465-1.32.494-5.62,2.1-1.51.566-9.9,3.713-.73.27a41.531,41.531,0,0,0-8.97-.935c-.82,0-1.64.027-2.45.063a37.555,37.555,0,0,0-7.32,1.07c-.14.036-.28.072-.42.117l-.02,3.614,19.29,7.12c.33-.072.65-.153.96-.234l21.06,7.849,18.14,6.761,37.43,13.953,3.15-1.169-40.57-15.122ZM1389.71,228.1l-10.65,3.992-3.79,1.42-22.38,8.4,3.16,1.169,19.21-7.21,3.79-1.42,10.66-4,7.97-2.985v-2.364l-7.97,2.994ZM978.7,344.389l-11.39-4.253-.02,2.338,11.41,4.253,12.41,4.63V349.01l-12.41-4.621Zm.61-70.836c-.21-.045-.41-.09-.61-.144-1.05-.252-2.07-.53-3.05-.845l-40.54,15.212-.78.288-.12.045-.78.3L898.89,301.37l3.15,1.169,34.56-12.964.78-.3.12-.045.78-.3,40.41-15.167.61-.234ZM279.72,304.175l-10.05-3.749-8.34-3.111-31.54-11.76-68.6-25.578-5.16-1.924c2.61-1.187,3.9-2.634,3.9-4.091s-1.25-2.85-3.76-4.037l-2.03,9.764.75.279,70.57,26.306,36.16,13.477,7.93,2.958,7.13,2.652c-4.34,2.266-4.29,5.34.15,7.6l-7.32,2.742v2.364l10.4-3.9c-.08-.027-.15-.045-.23-.072.08.027.15.045.23.072a39.341,39.341,0,0,0,11.67,1.43v-12.91a39.039,39.039,0,0,0-11.88,1.465Zm-124.93-45.6a.914.914,0,0,1,.12-.045.745.745,0,0,1,.13-.045c-.04.018-.09.036-.13.054s-.08.027-.12.045Zm30.44-19.743,18.14-6.806,13.61-5.107,22.07-8.28,5.45-2.041,7.66-2.877,5.78-2.167.53-2.562-6.31,2.365-35.18,13.2-14.12,5.3-18.01,6.761-6.71,2.517-21.4,8.029-.53,2.562,24.25-9.1,4.77-1.789ZM321.7,319.818l-2.6-.971h-6.3l8.89,3.308,7.93,2.958v-2.346l-7.92-2.949Zm-81.88,7.058c-.03.944-.08,1.753-.15,2.418l22.23-8.343,7.62-2.859v-2.364l-7.6,2.85-22.1,8.289Zm253.75,167.8v-.62l-2.86-1.07-4.89-1.825-1.84-.683L454.7,479.561a12.36,12.36,0,0,0,1.61-.872,7.652,7.652,0,0,0,1.26-1.025,4.16,4.16,0,0,1-1.39-.584,2.707,2.707,0,0,1-1.22-2.113h3.56a3.192,3.192,0,0,0-.55-1.169,6.378,6.378,0,0,0-1.89-1.654,14.239,14.239,0,0,0-1.6-.836c-.32-.144-.65-.279-1.01-.4-.02,0-.04-.018-.07-.027a23.692,23.692,0,0,0-2.45-.755,24.7,24.7,0,0,1,2.46.746l30.87-11.58,2.34-.881a4.164,4.164,0,0,1-2.55-.764,2.146,2.146,0,0,1-.46-.467l-1.87.7-31.92,11.975h0c-.27-.054-.55-.117-.83-.162-.72-.135-1.46-.252-2.21-.351a44.907,44.907,0,0,0-10.93-.018c-.75.09-1.49.207-2.21.333v1.708a4.507,4.507,0,0,0-1.51-.836,5.217,5.217,0,0,0-1.17-.261c-.23.063-.45.126-.67.2l-.66-.243-26.76-9.97-1.18-.441-1.12-.423-.08-.027-2.69-1.007-.54-.2c-.19.009-.36.018-.5.018a2.366,2.366,0,0,1-.76-.1.821.821,0,0,1-.39-.279.687.687,0,0,1-.09-.288l-2.24-.836-3.13-1.169-2.99-1.115h-6.29l3.13,1.169,3.65,1.358,1.98.737,36.52,13.612,1.1.4a7.127,7.127,0,0,0-2.71,2.176c-1.09,1.609-.49,3.353,1.78,4.828l-29.75,11.157-6.43,2.409-2.63.989-2.24.836-6.47,2.427-1.88.7-35.23,13.216-2.22.836-3.42,1.286v2.365l3.42-1.286,2.22-.836,3.16-1.187,6.83-2.562L380.26,498.3l6.97-2.616,2.91-1.088,2.22-.836,6.54-2.454,4.53-1.7,25.61-9.611s.05.018.07.027c6.11,2.275,15.61,2.5,22.35.665.09-.027.18-.045.27-.072l-.27.081,23.91,8.91,3.72,1.385,6.71,2.5,2.54.944,2.84,1.061,2.43.908c-.03-.432-.04-1.016-.04-1.744Zm-207.61,35.8a1.5,1.5,0,0,0-.79-.6,3.54,3.54,0,0,0-1.33-.225,4.23,4.23,0,0,0-2.3.584,2.066,2.066,0,0,0-.91,1.879V535.7l1.09-.4h0l.06.027a26.94,26.94,0,0,0,4.39,1.187v-4.8a2.683,2.683,0,0,0-.21-1.232ZM1903.36,37.742a43.2,43.2,0,0,0,16.64.719V26.522a41.77,41.77,0,0,0-17.95,1.061L1828.07,0h-6.29l77.3,28.814c-4.31,2.356-3.98,5.547,1.01,7.786L1777.03,82.775a41.493,41.493,0,0,0-22.26.063L1633.04,37.463c5.8-2.535,5.47-6.365-.99-8.766-.02,0-.04-.018-.07-.027L1708.39,0h-6.29l-73.7,27.655h0c-6.24-1.331-14.22-1.106-19.81.7l-.18.054c.06-.018.12-.045.18-.063L1532.53,0h-6.29l79.38,29.588c-3.78,2.05-4.02,4.747-.72,6.887L1481.09,82.928a42.162,42.162,0,0,0-19.78.683h0L1336.42,37.059c5.46-2.4,5.44-5.952-.04-8.361L1412.86,0h-6.3l-73.49,27.574.38.108-.39-.108a41.879,41.879,0,0,0-21.1.378h0L1236.98,0h-6.29l78.29,29.183c-4.1,2.212-4.07,5.179.09,7.39L1185.74,82.847a41.967,41.967,0,0,0-21.07.369L1040.6,36.96c5.34-2.364,5.4-5.835.16-8.244L1117.31,0h-6.29l-73.49,27.574a39.48,39.48,0,0,0-10.22-1.25,38.094,38.094,0,0,0-11.15,1.528L941.44,0h-6.29l78.02,29.084c-4.21,2.257-4.11,5.3.28,7.525L890.21,82.856a39.613,39.613,0,0,0-10.23-1.25,37.92,37.92,0,0,0-11.11,1.519h0L745.21,37.032c5.37-2.391,5.35-5.889,0-8.289q-.24-.108-.51-.216.27.108.51.216L821.78,0h-6.29L741.94,27.592a40.106,40.106,0,0,0-10.07-1.2,37.92,37.92,0,0,0-11.11,1.519L645.9,0h-6.3l78.17,29.138a1.918,1.918,0,0,1,.19-.1c-.07.036-.13.072-.19.1-4.19,2.239-4.14,5.25.14,7.471L594.62,82.865a40.035,40.035,0,0,0-10.06-1.2,38.339,38.339,0,0,0-11.08,1.5L451.04,37.526c5.67-2.544,5.3-6.329-1.11-8.721-.08-.027-.16-.054-.24-.09L526.24,0h-6.3L446.06,27.727a42.572,42.572,0,0,0-8.37-.8,38.338,38.338,0,0,0-11.08,1.5L350.35,0h-6.3l79.54,29.651c-3.83,2.032-4.15,4.711-.96,6.86L298.73,83h0a42.268,42.268,0,0,0-19.41.692L154.41,37.131c5.39-2.427,5.28-5.988-.32-8.379L230.69,0h-6.27L150.75,27.646a42.19,42.19,0,0,0-20.76.378h0L54.8,0H48.5l78.46,29.246c-4.17,2.194-4.21,5.152-.15,7.372L3.42,82.919A31.9,31.9,0,0,0,0,82.254V94.31a30.652,30.652,0,0,0,3.86-.782L129,140.171c-3.88,2.041-4.21,4.729-1.01,6.887L4.09,193.547h0a38.325,38.325,0,0,0-4.08-.6v12.533a34.4,34.4,0,0,0,5.91-1.025l93.83,34.973,22.07,8.226,5.58,2.077,1.18.441c-4.3,2.239-4.28,5.286.04,7.534l-6.06,2.275L5.32,303.968A35.091,35.091,0,0,0,0,303.015v12.443a34.984,34.984,0,0,0,5.51-.98h0l123.88,46.175c-4.37,2.266-4.32,5.358.13,7.606L6.28,414.5A34.974,34.974,0,0,0,0,413.418v12.6a35.382,35.382,0,0,0,6.33-1.079l88.73,33.076,3.67,1.367,24.29,9.053,1.1.4,4.51,1.681,1.99.746a9.1,9.1,0,0,0-1.99,1.34c-1.7,1.564-1.7,3.326,0,4.891a8.762,8.762,0,0,0,1.87,1.277l-1.87.7-27.51,10.321-.62.234-3.38,1.268-2.22.836L7.18,525.044a37.464,37.464,0,0,0-7.17-1.079v12.767a37.356,37.356,0,0,0,7.56-1.169L132.67,582.2c-4.04,2.068-4.37,4.837-1,7.031L7.87,635.681a41.437,41.437,0,0,0-7.86-.845v12.91a38.837,38.837,0,0,0,9.61-1.25l121.94,45.447h0c-4.65,2.374-4.41,5.664.69,7.957.15.072.31.135.47.207-.16-.063-.31-.135-.47-.2L9.19,746.075a36.7,36.7,0,0,0-9.16-1.448v12.847a38.352,38.352,0,0,0,8.51-1.223l125.77,46.885c-2.23,1.133-3.35,2.472-3.35,3.821,0,1.169.84,2.338,2.52,3.371L9.83,856.73h0a41.508,41.508,0,0,0-9.8-.926v12.9c.32,0,.63.009.95.009a39.128,39.128,0,0,0,10.29-1.277l11.85,4.414h6.3l-14.96-5.574c5.33-2.508,4.95-6.158-1.13-8.505l122.96-46.139a36.872,36.872,0,0,0,12,1.807,39.358,39.358,0,0,0,10.27-1.268l123.45,46.013c-4.34,2.194-4.47,5.2-.39,7.444l-16.58,6.221h6.29l13.24-4.972h0a41.721,41.721,0,0,0,21.69.342l12.42,4.63h6.28l-15.5-5.781c-.13.063-.26.117-.39.171.13-.054.26-.117.39-.18,5.2-2.427,5-5.943-.57-8.307L431.9,811.6a37.922,37.922,0,0,0,11.42,1.609,39.495,39.495,0,0,0,10.23-1.259c.29-.081.57-.162.85-.252-.28.09-.56.171-.85.252l123.04,45.86c-4.58,2.338-4.42,5.565.46,7.849.08.036.16.081.25.117a2.045,2.045,0,0,1-.25-.117l-16.46,6.176h6.29l13.37-5.017a42.4,42.4,0,0,0,20.58.027l13.39,4.99h6.29l-16.48-6.141c4.95-2.3,5.05-5.574.33-7.921l123.21-46.229c-.06-.018-.11-.036-.17-.054a1.173,1.173,0,0,0,.17.045,42.275,42.275,0,0,0,20.55.036l124.69,46.481c-4.37,2.239-4.4,5.3-.1,7.552l-16.59,6.221h6.29l13.33-5a38.336,38.336,0,0,0,11.11,1.5,39.594,39.594,0,0,0,10.19-1.241h0l12.73,4.747h6.29l-15.81-5.889c5.17-2.391,5.08-5.844-.24-8.217l123.05-46.166c-.19-.063-.39-.126-.57-.189.19.063.38.126.58.189a41.937,41.937,0,0,0,21.26.27l124.7,46.481c-4.15,2.14-4.35,5.017-.6,7.237l-16.76,6.284h6.3l13.32-5c6.13,2.14,15.39,2.3,21.97.5l12.05,4.5h6.3l-15.13-5.637c5.4-2.481,5.11-6.122-.84-8.5-.13-.054-.27-.108-.41-.162.13.054.27.1.41.153l122.97-46.139h0c6.12,2.131,15.34,2.3,21.93.521l123.88,46.175c-4.17,2.158-4.31,5.071-.45,7.291l-16.76,6.284h6.3l13.36-5.017c6.12,2.086,15.25,2.239,21.77.458l12.21,4.549h6.29l-15.27-5.691c5.39-2.463,5.16-6.078-.68-8.451l122.98-46.148h0c6.11,2.077,15.22,2.239,21.75.467l123.9,46.184c-4.18,2.176-4.29,5.116-.32,7.345l-16.76,6.284h6.29l13.4-5.026h0c6.1,2.032,15.12,2.167,21.59.423l12.37,4.612h6.29l-15.42-5.745c2.6-1.187,3.91-2.634,3.91-4.091,0-1.546-1.47-3.084-4.41-4.324l123-46.148a36.6,36.6,0,0,0,10.26,1.618V800.233a37.54,37.54,0,0,0-9.88,1.465l-123.69-46.1c5.45-2.463,5.24-6.1-.61-8.478l122.98-46.139c-.1-.036-.19-.072-.29-.1.1.036.19.063.29.1a37.116,37.116,0,0,0,11.2,1.69V689.749a37.693,37.693,0,0,0-10.7,1.492l-107.33-40.008-16.36-6.1c5.52-2.49,5.27-6.158-.73-8.55h0l3.63-1.367,119.34-44.773a37.316,37.316,0,0,0,11.81,1.744h.33V579.274h-.43a38.094,38.094,0,0,0-11.09,1.51h0l-70.4-26.243-3.78-1.412-15.48-5.772-6.86-2.553h0l-4.1-1.528-2.96-1.106-20.93-7.8a7.558,7.558,0,0,0,3.59-2.742,2.68,2.68,0,0,0-.32-3.236,8.839,8.839,0,0,0-3.34-2.32c-.02,0-.03-.009-.05-.027a.113.113,0,0,1,.05.018l20.51-7.7,3.49-1.313,4.17-1.564h0l3.79-1.421,18.62-6.986,3.79-1.42,5.35-2,63.32-23.762h0a29.934,29.934,0,0,0,4.33.989,44.82,44.82,0,0,0,8.7.477V468.52c-.68-.027-1.36-.054-2.04-.054a37.92,37.92,0,0,0-11.11,1.519l-68.28-25.452-3.78-1.411-18.56-6.914-3.78-1.411-30.1-11.22c4.67-2.077,5.27-5,1.82-7.3a12.7,12.7,0,0,0-1.26-.728l29.68-11.139h0l3.79-1.42L1834.98,396l3.79-1.421,67.32-25.263h0a41.674,41.674,0,0,0,13.88,1.142V357.821c-1.2-.1-2.42-.144-3.64-.144a38.19,38.19,0,0,0-11.15,1.528l-122.85-45.789c5.5-2.436,5.39-6.042-.28-8.442l123.01-46.157h0a40.436,40.436,0,0,0,14.91,1.474v-12.65a40.637,40.637,0,0,0-14.79,1.4l-123.25-45.95c5.69-2.508,5.43-6.266-.78-8.667l122.96-46.139a36.874,36.874,0,0,0,12,1.807c1.3,0,2.6-.054,3.87-.162V137.347c-1.31-.117-2.64-.18-3.98-.18a37.907,37.907,0,0,0-11.22,1.555L1779.2,91.909c5.19-2.275,5.46-5.574.85-7.966l123.28-46.256h0Zm-295.74.072.06.027c6.02,2.239,15.33,2.49,22.05.746l122.06,45.5c-4.34,2.356-4.01,5.556.98,7.795l-123.06,46.175a41.651,41.651,0,0,0-22.23.054L1485.75,92.737c5.76-2.535,5.42-6.356-1.01-8.757a.51.51,0,0,1-.07-.027l122.96-46.13ZM1754,202.3h0l-123.65,46.4a41.506,41.506,0,0,0-8.96-.935,38.211,38.211,0,0,0-11.16,1.528l-125.59-46.813c5.12-2.275,5.38-5.547.8-7.939l123.28-46.256h0a42.625,42.625,0,0,0,19.92.054l125.89,46.921c-2.04,1.1-3.06,2.382-3.06,3.668,0,1.169.84,2.338,2.53,3.371Zm.8,110.583-13.04,4.891-3.57,1.34-18.51,6.95-3.57,1.34h0l-31.17,11.7-5.23,1.96-18.9,7.094-3.25,1.223-5.62,2.1-5.23,1.96-5.62,2.1-.27.1-9.43,3.542h0a42.074,42.074,0,0,0-20.76.423l-9.56-3.56-36.45-13.585-.74-.279-40.57-15.122-18.14-6.761-17.8-6.635c-.15.072-.3.135-.47.2.16-.063.32-.135.47-.2.4-.18.77-.36,1.11-.548a5.591,5.591,0,0,0,2.77-2.751c.66-1.888-.92-3.866-4.73-5.34-.02-.009-.05-.018-.07-.027a.223.223,0,0,1,.07.027l.4-.153,6.72-2.517,4.68-1.753,5.62-2.113,1.32-.494,3.91-1.465,16.47-6.176,5.23-1.96,39.42-14.789h0l3.57-1.34,18.51-6.95,3.57-1.34,13.55-5.08c6.05,2.167,15.26,2.382,21.9.638l123.55,46.049c-4.08,2.185-4.11,5.107-.13,7.309ZM1686.94,390.4l67.98,25.335c-2.81,1.5-3.71,3.344-2.72,5.071h0a7.358,7.358,0,0,0,3.39,2.661l-.4.144-11.42,4.288-1.17.441-5.62,2.1-4.41,1.654h0l-.81.306-2.67,1.007-22.11,8.3-2.54.953-.96.36-1.15.432-10.32,3.875-9.85,3.7-.79.3-3.49,1.313-.94.351-17.02,6.383-4.15,1.555-1.08.4-19.97,7.5-1.73.647-.49.189c-.81-.243-1.66-.449-2.55-.629a40.035,40.035,0,0,0-5.76-.71c-.81-.045-1.64-.072-2.46-.072a43.055,43.055,0,0,0-6.72.512,29.6,29.6,0,0,0-4.35,1l-22.83-8.514-2.96-1.106-24.55-9.152-2.96-1.106-24.55-9.152-2.96-1.106-24.55-9.152-2.97-1.106-14.54-5.421a11.725,11.725,0,0,0,2.08-1.169,5.126,5.126,0,0,0,1.61-1.744c0-.009.01-.018.02-.036a2.563,2.563,0,0,0,.28-1.411,1.1,1.1,0,0,0-.02-.18c-.23-1.394-1.67-2.76-4.3-3.875l13.61-5.107,5.23-1.96.16-.063,16.31-6.123,2.98-1.115,9.81-3.677,6.32-2.364,2.6-.98,5.23-1.96,7.97-2.994,3.49-1.313,18.68-7.013,3.43-1.286,3.86-1.447,2.44-.917.29-.108.19-.072,5.62-2.113,5.23-1.96.13-.045,8.87-3.327.57-.216a29.586,29.586,0,0,0,4.46,1.061,44.778,44.778,0,0,0,12.79.171,32.724,32.724,0,0,0,4.11-.8l3.34,1.241,31.89,11.885,19.93,7.426Zm-50.29,91.424,3.08,1.151,24.4,9.1,3.13,1.169,24.36,9.08,3.18,1.187,24.3,9.062,3.23,1.2,24.25,9.035,3.3,1.232,6.68,2.49a6.609,6.609,0,0,0-2.78,2.4c-.95,1.726,0,3.569,2.84,5.062l-14.82,5.556-23.11,8.667-.14.054-24,9.008-14.9,5.592-2.29.854L1655.32,572l-3.52,1.322-15.45,5.8-3.03,1.142h0a40.282,40.282,0,0,0-10.5-1.178,37.547,37.547,0,0,0-10.53,1.492l-2.05-.764-22.26-8.3-4.09-1.528-22.26-8.3-4.26-1.582-22.26-8.3-4.25-1.582-22.26-8.3-3.36-1.25-17.47-6.509a10.9,10.9,0,0,0,2.4-1.421,4.09,4.09,0,0,0,1.48-2.05c.42-1.573-.71-3.2-3.38-4.522l2.26-.845,15.4-5.781,3.55-1.331,22.11-8.3,2.23-.836,14.9-5.592,24-9.009.14-.054,22.21-8.334,16.4-6.15h0a41.231,41.231,0,0,0,12.8,1.223,37.231,37.231,0,0,0,7.52-1.124c.16-.036.31-.081.46-.126-.15.045-.3.09-.46.126l4.86,1.807Zm-3.21,108.965,5.05,1.879,41.95,15.634,41.28,15.392,16.18,6.033,20.28,7.561c-4.04,2.131-4.2,4.981-.49,7.174l.09.054a.424.424,0,0,0-.09-.045l-123.57,46.364a42.208,42.208,0,0,0-20.21.5l-20.9-7.795-16.18-6.033-87.43-32.591c5.29-2.4,5.24-5.88-.13-8.271-.08-.036-.16-.072-.25-.108.09.036.17.072.25.108l63.66-23.879,12.69-4.765,41.63-15.616,5.07-1.906a42.169,42.169,0,0,0,20.96.351c.05-.009.1-.027.14-.036Zm3.85,110.07a.131.131,0,0,1-.05.018l-.51.189q.27-.094.51-.189A.112.112,0,0,0,1637.29,700.862Zm-24.28.1c-.07-.027-.14-.045-.21-.072s-.11-.045-.16-.063c.06.027.11.045.16.063l.21.081Zm-2.65-1.214-123.57,46.364h0a42.279,42.279,0,0,0-20.17.485h0l-124.51-46.418c2.61-1.187,3.91-2.634,3.91-4.091s-1.35-2.967-4.06-4.172l46.03-17.271,16.23-6.087h0l60.79-22.809a42.109,42.109,0,0,0,21.15.3l87.53,32.626,16.18,6.033,21.02,7.84c-4.07,2.131-4.24,4.99-.52,7.192ZM1338.67,690.8a42.109,42.109,0,0,0-20.97.288l-41.11-15.32-2.26-.845-81.15-30.244c-.06.027-.13.054-.19.081.06-.027.13-.054.19-.081,5.05-2.3,5.2-5.61.44-7.975l45.36-17.019,16.23-6.087h0l13.49-5.062h0l48.13-18.062a42.409,42.409,0,0,0,20.4.081l82.79,30.855h0l41.95,15.635h0c-4.26,2.23-4.25,5.259.02,7.5l-60.94,22.863h0l-16.23,6.087-46.14,17.316Zm2.41,9.809s-.06.027-.09.036c-.08.027-.16.063-.25.09.08-.027.17-.063.25-.1.03-.009.06-.027.09-.036Zm-26.43-.8-123.3,46.265.58.162-.58-.162a41.954,41.954,0,0,0-20.93.279l-12.56-4.684-17.43-6.5-10.66-3.974-2.26-.845-10.41-3.884-6.38-2.383-64.83-24.166a.936.936,0,0,0-.1.045.372.372,0,0,0,.09-.045c5.04-2.3,5.17-5.592.42-7.957l123.21-46.229a39.523,39.523,0,0,0,10.35,1.286h.19a39.558,39.558,0,0,0,9.9-1.214l81.26,30.289,2.26.845,41.2,15.356c.08-.036.16-.081.24-.117-.08.045-.16.081-.24.117-1.86.971-2.92,2.086-3.16,3.228-.32,1.484.73,3,3.15,4.271Zm-120.78,56.029-.21.081c-.05.018-.11.036-.16.054.05-.018.11-.045.16-.063l.21-.081Zm-24.1-9.278c-.21.072-.42.144-.62.225-.16.063-.33.126-.48.189l.48-.189c.2-.072.41-.153.62-.216ZM959.51,722.169l-63.64,23.879c.26.072.51.162.76.243-.25-.081-.5-.162-.76-.234a41.872,41.872,0,0,0-21.67.045L751.31,700.3c-.13.063-.27.117-.42.18a4.3,4.3,0,0,0,.42-.189c5.29-2.427,5.13-5.979-.48-8.352-.06-.027-.13-.054-.19-.081a1.652,1.652,0,0,0,.19.072l60.36-22.647,3.87-1.456,2.26-.845,4.78-1.789,51.75-19.411a1.432,1.432,0,0,1-.18-.063l.18.054a41.771,41.771,0,0,0,21.53.387h0l123.07,45.878c-4.5,2.329-4.32,5.538.54,7.8h0l-57.22,21.469-2.26.845ZM723.55,699.81,600.14,746.12a42.06,42.06,0,0,0-20.51.351L456.32,700.5c5.42-2.508,5.07-6.185-1.05-8.55l38.99-14.628,35.21-13.207.34-.126,48.43-18.17s-.05-.018-.07-.027a.508.508,0,0,1,.07.027c6.13,2.2,15.5,2.391,22.15.566h0l2.05.764L723.86,692.42c-4.26,2.194-4.36,5.17-.31,7.408ZM329.3,653.159l-23.01-8.577c4.89-2.266,5.07-5.484.56-7.831l8.85-3.318L430.13,590.5c-.06-.018-.12-.036-.19-.054.06.018.12.027.19.045a42.484,42.484,0,0,0,20.22-.027h0l99.1,36.942,26.7,9.953c-4.1,2.113-4.34,4.945-.75,7.147l-34.01,12.758-8.49,3.183-3.12,1.169-2.37.89-39.47,14.807-36.19,13.576a42.47,42.47,0,0,0-19.83.5h0L329.29,653.14Zm101.4,47.856h-.03c-.08-.027-.15-.063-.23-.09a2.455,2.455,0,0,1,.23.09.04.04,0,0,1,.03.009Zm-2.6-1.232-123.66,46.4a41.535,41.535,0,0,0-8.97-.935,38.569,38.569,0,0,0-10.83,1.43L158.99,699.846c4.88-2.266,5.04-5.475.53-7.813l39.19-14.7,45.79-17.181,2.37-.89,35.94-13.486a42.535,42.535,0,0,0,20.26-.045l25.95,9.674,99.84,37.221c-4.13,2.113-4.38,4.954-.77,7.165ZM158.83,581.45a.71.71,0,0,0-.07-.027l69.17-25.955,1.88-.71,6.37-2.391,2.26-.845,39.96-15,2.22-.836,1.09-.4h0l.06.027a26.94,26.94,0,0,0,4.39,1.187c.72.135,1.46.252,2.21.351a45.743,45.743,0,0,0,7.87.3c.99-.045,1.98-.126,2.94-.243a34.281,34.281,0,0,0,4.99-.944c.17-.045.36-.1.53-.153-.18.054-.36.108-.53.153l33.86,12.622,2.22.827,6.18,2.3,2.52.944,2.98,1.106,2.47.917,71.72,26.738c-4.6,2.365-4.34,5.646.74,7.921,0,0,.02,0,.02.009h-.02L313.01,632.058l-9.21,3.452a41.835,41.835,0,0,0-21.91-.045l-21.68-8.082L160.1,590.063c5.49-2.535,5.06-6.275-1.28-8.64Zm100.5-64.543-6.21-2.319-2.22-.827-3.38-1.259-2.22-.827-3.76-1.4-3.36-1.25L197.34,493.8l-2.21-.827-4.01-1.492-4.95-1.843-28.1-10.474a8.9,8.9,0,0,0,3.02-2.077c1.23-1.421,1.1-2.967-.37-4.36a10.276,10.276,0,0,0-2.92-1.816l22.12-8.3,1.52-.575,11.35-4.262,1.93-.719,3.27-1.223,2.69-1.007,5.21-1.951,2.22-.836,72.73-27.3h0a41.948,41.948,0,0,0,21.29.306c.54-.153,1.07-.315,1.58-.485-.51.18-1.04.333-1.58.485l69.17,25.785,3.91,1.456,3.25,1.214,2.06.764.37.135,3.13,1.169,3.65,1.358,1.98.737,36.52,13.612,1.1.4a7.125,7.125,0,0,0-2.71,2.176c-1.09,1.609-.49,3.353,1.78,4.828l-29.75,11.157-6.43,2.409-2.63.989-2.24.836-6.47,2.427-1.88.7-35.23,13.216-2.22.836-3.42,1.286-2.22.836-6.21,2.328-2.22.836-22.88,8.586a42.342,42.342,0,0,0-19.5.6c-.12.036-.23.072-.35.117.11-.045.22-.081.34-.117l-21.85-8.145-1.83-.683ZM156.84,360.374,217.55,337.6l16.06-6.024,6.07-2.275,22.23-8.343,7.62-2.859,10.4-3.9c-.08-.027-.15-.045-.23-.072.08.027.15.045.23.072a39.338,39.338,0,0,0,11.67,1.429,38.528,38.528,0,0,0,9.29-1.214c.12-.036.24-.072.37-.1l-.36.108,11.9,4.432,8.89,3.309,7.93,2.958,38.28,14.268,57.32,21.361c-4.27,2.23-4.28,5.241-.06,7.48L301.83,414.506a39.935,39.935,0,0,0-9.92-1.169,38.256,38.256,0,0,0-10.94,1.465l-48-17.891-15.61-5.817-60.5-22.548c5.17-2.374,5.16-5.79-.01-8.163ZM154.91,258.53a1.314,1.314,0,0,1,.13-.045c-.04.018-.09.036-.13.054s-.08.027-.12.045a.653.653,0,0,1,.12-.045Zm1.12-.467c2.61-1.187,3.9-2.634,3.9-4.091s-1.25-2.85-3.76-4.037c-.08-.036-.17-.081-.25-.117l.3-.117,24.25-9.1,4.77-1.789,18.14-6.806,13.61-5.107,22.07-8.28,5.45-2.041,7.66-2.877,5.78-2.167,15.5-5.817,5.54-2.077h0a42.078,42.078,0,0,0,21.09.288l123.91,46.193c-4.31,2.257-4.25,5.331.18,7.579l-76.32,28.635-18.23,6.842-8.8,3.3-19.88,7.462s.09.027.13.036c-.05-.009-.09-.027-.13-.036-.43-.117-.86-.225-1.31-.324a40.651,40.651,0,0,0-8.02-.917,39.041,39.041,0,0,0-11.88,1.465l-10.05-3.749-8.34-3.111-31.54-11.76-68.6-25.578-5.16-1.924Zm415.25-63.194c-4.28,2.257-4.21,5.322.22,7.561L448.26,248.677a40.007,40.007,0,0,0-10.23-1.25,38.382,38.382,0,0,0-11.02,1.492l-123.68-46.1c5.27-2.382,5.24-5.862-.08-8.253-.34-.153-.7-.3-1.08-.441.39.144.74.288,1.08.441L426.31,148.4a38.644,38.644,0,0,0,11.05,1.492,39.964,39.964,0,0,0,10-1.2l123.91,46.193ZM449.12,148.127c.14-.045.29-.1.43-.153.09-.036.19-.072.28-.108l-.27.108c-.15.054-.3.1-.44.144ZM598.8,194.545l123.09-46.184a42.214,42.214,0,0,0,20.86.252L867.1,194.968c-4.19,2.221-4.18,5.205.01,7.435L743.79,248.677h0a42.058,42.058,0,0,0-20.96.333l-124.1-46.256c5.26-2.373,5.28-5.817.08-8.208Zm270.9,8.946c.14.045.27.1.42.144h0a39.4,39.4,0,0,0,12.83,1.492,38.372,38.372,0,0,0,8.3-1.151h0l6.1,2.275,3.6,1.34,29.48,10.986L991.1,241.2l12.68,4.729,11.57,4.315,1.07.4c-.32.171-.61.342-.88.521-3.02,1.978-3,4.441.06,6.419h0L999.04,263.8l-7.93,2.976-15.46,5.8-40.54,15.212-.78.288-.12.045-.78.3-34.54,12.964-7.09,2.661h0a42.2,42.2,0,0,0-19.64.647l-18.86-7.031-14.61-5.448-91.45-34.092c5.34-2.4,5.28-5.916-.15-8.307l94.83-35.575,28.22-10.591c-.15-.045-.28-.1-.42-.144Zm24.7-8.964,2.96-1.115,120.08-45.051c-.06-.018-.11-.036-.17-.054.06.018.11.036.17.054a41.9,41.9,0,0,0,21.1.351h0l46.3,17.262,14.4,5.367,64.48,24.041c-2.08,1.106-3.11,2.4-3.11,3.7,0,1.115.77,2.239,2.31,3.237h0l-27,10.132-16.32,6.123-.24.09-19.55,7.336-60.7,22.773a41.986,41.986,0,0,0-8.6-.854,41.361,41.361,0,0,0-8.33.8c-.96.2-1.88.432-2.75.7l-.91-.342-11.57-4.315L991.1,238.85l-54.37-20.274-32.61-12.155-6.76-2.517-2.84-1.061a10.012,10.012,0,0,0,2.84-1.8,2.917,2.917,0,0,0,0-4.657,9.87,9.87,0,0,0-2.77-1.78c-.06-.027-.12-.054-.19-.081Zm563.72,7.9-14.36,5.394-3.57,1.34-5.17,1.942-16.9,6.338-20.43,7.669-7.98,2.994-10.65,3.992-3.79,1.42-22.38,8.4-17.84,6.689a41.515,41.515,0,0,0-22.16.027h0l-101.64-37.886-20.11-7.5a2.109,2.109,0,0,1-.21.09c.07-.036.14-.063.21-.1,5.71-2.535,5.34-6.338-1.08-8.73-.02,0-.04-.018-.07-.027l122.96-46.13.06.027c6.04,2.257,15.41,2.49,22.13.728L1457.17,194.6c-4.4,2.355-4.09,5.574.92,7.831Zm148.56,55.148c.18.108.36.216.56.324-.19-.108-.39-.207-.56-.324l-13.91,5.214-3.57,1.34-18.51,6.95-3.57,1.34h0L1527.7,287.21l-5.23,1.96L1506,295.346l-3.92,1.465-1.32.494-5.62,2.1-1.51.566-9.9,3.713-.73.27a41.532,41.532,0,0,0-8.97-.935c-.82,0-1.64.027-2.45.063a37.555,37.555,0,0,0-7.32,1.07c-.14.036-.28.072-.42.117-.31.081-.62.171-.92.27h0l-5.4-2.014-41.31-15.4-18.78-7h0l-7.73-2.886-10.83-4.037-3.78-1.412-37.76-14.079c5.1-2.266,5.35-5.538.77-7.921l17.95-6.734,19.21-7.21,3.79-1.421,10.66-4,7.97-2.985,23.62-8.865,14.93-5.6,7.15-2.679,3.57-1.34,14.46-5.421a40.107,40.107,0,0,0,10.07,1.2,39.375,39.375,0,0,0,9.9-1.169h0l125.87,46.921c-3.92,2.1-4.1,4.882-.56,7.058Zm-5.61,100.81,6.57,2.445a8.178,8.178,0,0,0-2.18,1.6,2.769,2.769,0,0,0-.3,3.83,7.236,7.236,0,0,0,2.33,1.888l-.78.288-5.7,2.14-3.31,1.241-5.23,1.96-5.8,2.176-2.73,1.025-3.86,1.447-.25.1-15.39,5.772-1.46.548-5.01,1.879-3.49,1.313-7.97,2.985-2.09.782-2.56.962-9.5,3.56-3.97,1.492-3.59,1.349-5.23,1.96-9.44,3.542-1.41.53-1.36.5-4.11,1.537-.16.063-5.23,1.96-13.8,5.179a39.918,39.918,0,0,0-8.86-1.088h-.78c-1.13,0-2.26.045-3.37.126h-.03c-.8.054-1.59.144-2.36.243a31.277,31.277,0,0,0-5.32,1.142l-13.07-4.873-34.43-12.838-18.89-7.04h0l-7.24-2.7L1378.4,383.2h0l-3.78-1.412-34.54-12.874a7.55,7.55,0,0,0,3.61-2.769c1.17-2.041-.33-4.253-4.48-5.862-.02-.009-.05-.018-.07-.027.03,0,.05.018.08.027l35.57-13.342,3.79-1.421,11.15-4.181,7.47-2.805h.02l19.95-7.489,5.23-1.96,5.62-2.1,5.23-1.96,8.13-3.048.3-.117,2.43-.908,5.62-2.1,5.23-1.96,7.24-2.715a31.633,31.633,0,0,0,6.97,1.528,44.1,44.1,0,0,0,5.02.279h.17a40.906,40.906,0,0,0,8.79-.935c.33-.072.65-.153.96-.234l21.06,7.849,18.14,6.761,37.43,13.953,3.88,1.447,25.04,9.332,11.41,4.253Zm-98.94,73.29,24.54,9.143,2.98,1.106,24.52,9.143,3,1.115,24.5,9.134,3.02,1.124,22.94,8.55a8.939,8.939,0,0,0-1.74,1.169c-2.46,2.149-1.66,4.693,2.39,6.581l-16.38,6.15-22.2,8.325-.14.054-24,9.008-14.9,5.592-2.24.836-22.11,8.3-18.95,7.111-2.19.818c.25.072.51.162.75.243-.25-.081-.5-.162-.75-.234-.81-.243-1.67-.449-2.55-.629a43.468,43.468,0,0,0-10.13-.728,41.153,41.153,0,0,0-5.48.584,28.3,28.3,0,0,0-3.65.872l-7.13-2.652-4.34-1.618-22.26-8.3-4.5-1.681-22.26-8.3-4.5-1.681-22.26-8.3-4.5-1.681-15.2-5.664-7.05-2.625-3.93-1.465-4.94-1.843c-.32.144-.66.288-1.02.422.36-.135.7-.279,1.02-.422a11.8,11.8,0,0,0,1.9-1.052,4.376,4.376,0,0,0,2.02-2.625c.3-1.672-1.13-3.389-4.29-4.729l16.86-6.329,66.75-25.047.14-.054,22.08-8.28,17.17-6.446a38.686,38.686,0,0,0,12.5,1.591,39.113,39.113,0,0,0,8.88-1.169l14.66,5.466,2.97,1.106Zm107.12,150.1a1.359,1.359,0,0,0,.14-.072c-.05.027-.1.054-.14.072a6.559,6.559,0,0,0-2.83,2.463c-.9,1.708.06,3.524,2.87,5.008l-5.22,1.96-3.49,1.313-22.09,8.289-15.96,5.988-12.84,4.819-63.68,23.9a42.163,42.163,0,0,0-21.01.3l-41.83-15.59h0L1340.48,589.4c-.06.027-.13.054-.2.09.07-.027.13-.063.2-.09,5.09-2.3,5.25-5.619.48-7.993l33.53-12.578,1.81-.683,27.94-10.483,24.93-9.35,3.49-1.3,22.11-8.3,3.53-1.322,5.87-2.2h0c.42.117.86.225,1.3.333a38.973,38.973,0,0,0,6.62.89,41.609,41.609,0,0,0,12.44-1.133l17.57,6.554,3.36,1.25,22.26,8.3,4.25,1.582,22.26,8.3,4.26,1.591,22.26,8.3,4.09,1.528,22.26,8.3,2.18.818Zm-271.41-1.546h0a41.773,41.773,0,0,0-21.77.081h0l-39.8-14.834-2.24-.836h0l-72.35-26.971-8.48-3.156c5.38-2.436,5.24-6-.4-8.388l90.86-34.092,22.11-8.3,3.49-1.313,6.55-2.454c6.08,2,14.99,2.131,21.42.414l5.04,1.879,3.93,1.465,4.92,1.834,17.34,6.464,4.5,1.681,22.26,8.3,4.5,1.681,22.26,8.3,4.5,1.681,22.26,8.3,4.34,1.618,7.26,2.706c-2.11,1.115-3.16,2.418-3.16,3.722,0,1.43,1.26,2.859,3.78,4.046l-5.87,2.2-3.49,1.313-22.11,8.3-3.49,1.313-24.93,9.35-27.94,10.483-1.81.683-33.47,12.56Zm1.47.485c-.44-.162-.9-.315-1.37-.458C1338.41,580.4,1338.87,580.551,1339.31,580.713Zm-73.79,26.639-13.49,5.062L1235.8,618.5l-45.29,16.992c.19.054.37.117.55.18-.18-.063-.37-.117-.56-.171a41.717,41.717,0,0,0-21.73.072h0l-106.53-39.711-16.34-6.1c5.35-2.436,5.2-5.988-.43-8.37l44.51-16.7,16.23-6.087h0l62.26-23.366a.568.568,0,0,1-.11-.045c.04.009.07.027.11.036,6.09,2,15.02,2.131,21.46.4l8.57,3.192,72.35,26.971,2.24.836,39.93,14.888c-4.44,2.329-4.24,5.52.59,7.777h0l-48.1,18.053h0Zm-247.33-18.089-123.41,46.31h0a42.119,42.119,0,0,0-20.58.369L750.9,589.982c2.59-1.178,3.88-2.625,3.88-4.073,0-1.627-1.63-3.246-4.87-4.5l122.96-46.13a1.062,1.062,0,0,0-.11-.036c.04.009.07.027.11.036,6.1,2.194,15.43,2.391,22.08.593l123.5,46.031c-4.21,2.194-4.29,5.152-.26,7.381Zm-267.39.755c-.27.126-.54.243-.84.351Q750.395,590.194,750.8,590.018Zm-28.05-.791L666.57,610.3l-2.26.845-65.23,24.472a39.6,39.6,0,0,0-7.21-.9h0a39.941,39.941,0,0,0-12.65,1.421h0l-23.46-8.748L453.59,589.3c4.93-2.266,5.12-5.493.6-7.84l118.64-44.512,4.42-1.654.23-.081a32.192,32.192,0,0,0,3.85.773c.98.144,1.99.252,3.02.324a41.679,41.679,0,0,0,13.31-1.115l48.6,18.116,2.26.845L723.48,582.1c-4.07,2.113-4.3,4.936-.71,7.138Zm-271.4-8.9c-.07-.027-.15-.045-.22-.072a41.759,41.759,0,0,0-21.94-.036h0l-66.43-24.76-.8-.3-1.48-.548-2.26-.845-3.85-1.438-3.02-1.124-4.83-1.8-1.84-.683L312.57,536.75l-2.13-.791-3.04-1.133c3.16-1.456,4.38-3.308,3.64-5.071a4.108,4.108,0,0,0-.96-1.34,11.539,11.539,0,0,0-3.93-2.248c-.02,0-.04-.018-.07-.027l27.73-10.4,2.22-.836,3.42-1.286,2.22-.836,3.16-1.187,6.83-2.562,28.58-10.726,6.97-2.616,2.91-1.088,2.22-.836,6.54-2.454,4.53-1.7L429.02,480s.05.018.07.027c6.11,2.275,15.61,2.5,22.35.665.09-.027.18-.045.27-.072l-.27.081,23.91,8.91L479.07,491l6.71,2.5,2.54.944,2.84,1.061,2.43.908,32.73,12.2,2.21.827,44.87,16.722c-2.08,1.079-3.16,2.338-3.24,3.614a3.366,3.366,0,0,0,1.36,2.679,10.472,10.472,0,0,0,2.65,1.627l-3.19,1.2-5.04,1.888L451.11,580.246c.07.027.14.045.21.072Zm-23.28.27c-.07.018-.12.045-.18.063a.154.154,0,0,0-.06.018c.02,0,.03-.018.05-.018A1.152,1.152,0,0,1,428.07,580.6ZM402.87,460.25l-1.18-.44-1.12-.423-.08-.027-2.69-1.007-.54-.2-1.73-.647-2.24-.836-3.13-1.169-2.99-1.115-5.19-1.933-1.85-.692-74.77-27.87c5.26-2.4,5.17-5.889-.24-8.271-.18-.072-.37-.153-.55-.225.19.072.38.144.55.225l123.04-46.166a38.356,38.356,0,0,0,11.16,1.528,39.405,39.405,0,0,0,10.1-1.223L574.55,416.4c-3.96,2.068-4.26,4.81-.91,6.986a2.221,2.221,0,0,0,.25.153c-.09-.054-.17-.1-.25-.153L498.96,451.4l-1.83.683-.4.153-2.21.827-10.9,4.091-1.87.7-31.92,11.975h0c-.27-.054-.55-.117-.83-.162-.72-.135-1.46-.252-2.21-.351a44.905,44.905,0,0,0-10.93-.018c-.75.09-1.49.207-2.21.333-.93.171-1.82.378-2.68.611-.23.063-.45.126-.67.2l-.66-.243-26.76-9.97Zm-83.78-141.4-14.96-5.574c2.13-.971,3.39-2.122,3.78-3.308.55-1.7-.7-3.47-3.75-4.864l17.11-6.419,8.34-3.129,24.54-9.206,73.1-27.43a42.18,42.18,0,0,0,20.93.234h0l72.95,27.2,16.7,6.23,9.22,3.434,18.46,6.878,6.98,2.607c-4.24,2.221-4.24,5.223-.04,7.462l-6.94,2.607-26.4,9.908-4.44,1.663-18.46,6.923-8.86,3.327-8.59,3.219-49.64,18.628a39.935,39.935,0,0,0-9.92-1.169,38.359,38.359,0,0,0-10.97,1.474l-60.35-22.494L329.6,322.776l-7.92-2.949-2.6-.971Zm256.39-4.657a42.082,42.082,0,0,0,20.34.53c.29-.072.58-.144.86-.216l2.49.926,25.85,9.638,96.81,36.088c-3.93,2.059-4.23,4.8-.88,6.968h0L597.14,414.578c.43.09.84.189,1.25.3-.41-.108-.82-.207-1.25-.3a42.384,42.384,0,0,0-19.57.62L452.64,368.628h0c5.27-2.4,5.2-5.9-.21-8.28L505.07,340.6l2.28-.854,8.86-3.327,18.46-6.923,5.37-2.014,25.46-9.548,8.23-3.093,1.73-.647Zm24.28-9.116,3.19-1.2,21.06-7.9,98.79-37.068c-.09-.027-.18-.063-.27-.09.09.027.18.054.27.09a41.912,41.912,0,0,0,21.18.333l94.7,35.306,14.58,5.439,15.87,5.916c-3.91,2.059-4.19,4.792-.85,6.959l-15.19,5.7-14.41,5.412-94.21,35.351h0a42.312,42.312,0,0,0-19.61.629L625.02,322.74l-25.09-9.35a9.461,9.461,0,0,0,2.9-1.888c2.08-2.131,1.05-4.585-3.07-6.4Zm271.25,9.116h0l.06.027c6.08,2.266,15.51,2.5,22.24.7h0l20.62,7.687,53.34,19.878,11.41,4.253,12.41,4.63,12.07,4.5,12.14,4.522h0c-4.49,2.365-4.2,5.61.85,7.867l-12,4.5-.98.369h0l-.99.378-11.08,4.154-12.41,4.657-11.81,4.432L903.84,410.4l-10.74,4.028a41.711,41.711,0,0,0-22.05,0h0l-1.43-.53-.9-.333-.9-.333-29.13-10.86-89.41-33.328c5.62-2.535,5.23-6.311-1.16-8.694-.03,0-.04-.018-.07-.027l90.63-34,14.39-5.4h0L871,314.181Zm-1.83-.818c.43.225.91.441,1.43.656A15.312,15.312,0,0,1,869.18,313.372Zm68.2-24.086.12-.045.78-.3,40.41-15.167.61-.234,3.82-1.43,7.97-2.994,27.22-10.213c-.06-.027-.12-.045-.18-.072.06.027.12.045.18.072.03.009.04.018.07.027,6.06,2.257,15.47,2.5,22.2.71h0l.55.207,40.62,15.14.78.288.12.045.78.288,60.07,22.4h0l19.07,7.111c-4.45,2.365-4.15,5.592.88,7.858l-19.95,7.489h0l-27.75,10.411-2.35.881-15.28,5.736-16.17,6.069-2.35.881-15.28,5.736-16.17,6.069h0l-2.35.881-5.42,2.032a3.038,3.038,0,0,0,.31.1c-.1-.036-.21-.063-.31-.1a37.5,37.5,0,0,0-9.86-1.474,39.567,39.567,0,0,0-12.23,1.474l-15.16-5.646-12.07-4.5L978.65,344.4l-11.39-4.253-51.17-19.069-19.56-7.291-.51.216c.18-.072.35-.144.51-.225,5.65-2.535,5.26-6.32-1.13-8.7a.225.225,0,0,1-.07-.027l6.67-2.5,34.56-12.964.78-.3Zm229.37,24.823h0a42.616,42.616,0,0,0,20.03.027l125.85,46.912c-3.96,2.1-4.17,4.9-.61,7.076.26.162.55.324.86.476-.31-.153-.6-.315-.86-.476l-123.66,46.391a42.151,42.151,0,0,0-20.01.566l-24.83-9.251h0l-27.75-10.348-2.35-.872-15.28-5.7-16.17-6.024-2.35-.872-15.28-5.7-16.17-6.024h0l-2.35-.872-3.08-1.151h0a9.022,9.022,0,0,0,3.08-2.077,2.812,2.812,0,0,0,0-4.082,8.136,8.136,0,0,0-2.37-1.735l2.37-.89,2.35-.881h0l16.17-6.069,15.28-5.736,2.35-.881,16.17-6.069,15.28-5.736,2.35-.881,27.75-10.411h0l23.21-8.712Zm-2.77-9.62c.17-.072.34-.135.52-.207.05-.018.11-.036.16-.054a1.182,1.182,0,0,0-.16.063C1164.32,304.364,1164.15,304.427,1163.98,304.49Zm24.76-.279c.07.027.13.045.2.072.17.063.34.135.5.2-.16-.063-.33-.126-.5-.189a1.784,1.784,0,0,0-.2-.072Zm2.05.881,57.49-21.577,44.58-16.731,21.21-7.957h0a42.608,42.608,0,0,0,20,.036l41.03,15.293,3.78,1.412,10.84,4.037,7.72,2.877,18.78,6.995,41.31,15.4,2.41.9c-2.08,1.115-3.12,2.418-3.1,3.722a2.882,2.882,0,0,0,.67,1.753,6.8,6.8,0,0,0,1.86,1.591.912.912,0,0,0,.16.1c-.06-.036-.11-.063-.16-.1l-1.87.7-.11.045-5.62,2.1-5.23,1.96-8.33,3.129-2.17.809-.35.135-5.62,2.113-5.23,1.96-5.62,2.1-3.17,1.187-18.84,7.066h0l-3.17,1.2-4.31,1.618-11.14,4.181-3.79,1.42-39.08,14.663a41.505,41.505,0,0,0-8.96-.935c-1.26,0-2.52.054-3.75.153a34.593,34.593,0,0,0-7.33,1.349l-125.6-46.822a7.867,7.867,0,0,0,3.52-2.625c1.14-1.789.21-3.722-2.78-5.286ZM1311.77,258.1s.08.036.13.054a.653.653,0,0,0,.12.045c-.04-.018-.09-.027-.13-.045Zm24.38.126c.07-.027.13-.045.2-.072.04-.018.08-.027.12-.045a.646.646,0,0,1-.12.045C1336.28,258.18,1336.22,258.2,1336.15,258.225Zm60.8,134.246,15.75,5.871,34.41,12.829,13.23,4.936c-1.92,1.016-2.96,2.194-3.12,3.389-.18,1.376.8,2.76,2.94,3.947l-17.39,6.527-22.08,8.28-.14.054-26.53,9.953-9.8,3.677-30.43,11.418-17.05,6.392a40.569,40.569,0,0,0-9.64-1.1c-1.08,0-2.16.036-3.23.117a38.439,38.439,0,0,0-5.16.7,27.33,27.33,0,0,0-2.66.683h0l-13.02-4.855-35.54-13.243L1192.78,424.2c5.57-2.517,5.27-6.23-.9-8.622l122.96-46.13c6.07,2.176,15.33,2.383,21.97.62h0l37.79,14.088,3.78,1.411,11.33,4.217,7.23,2.7h0Zm64.86,22.971c.14-.063.27-.117.42-.171C1462.08,415.324,1461.95,415.387,1461.81,415.441Zm-148.97,63.275-6.77,2.535-3.49,1.313-22.11,8.3-91.04,34.155a40.546,40.546,0,0,0-9.63-1.1,38.344,38.344,0,0,0-11.02,1.483l-49.32-18.385-73.97-27.574c5.55-2.508,5.23-6.221-.93-8.6-.02,0-.04-.018-.06-.027a.153.153,0,0,1,.06.018l122.96-46.13c6.08,2.185,15.36,2.391,22,.611l74.81,27.888,35.54,13.243,13.16,4.909c-4.15,2.194-4.21,5.125-.2,7.345Zm-295.45-.036-13.17,4.945L893.74,525.08a42.379,42.379,0,0,0-19.95.539l-57.48-21.433-5.6-2.086-10.62-3.956-2.26-.845-10.5-3.911-17.5-6.518L748.17,478.8c4.98-2.266,5.19-5.5.65-7.867L844.86,434.9l.9-.342.9-.333,25.44-9.548a40.893,40.893,0,0,0,11.56,1.178,38.157,38.157,0,0,0,8.54-1.178h0l86.48,32.24,12.41,4.63,1.39.512.09.036,25.47,9.494c-2.13,1.115-3.19,2.427-3.19,3.74a3.609,3.609,0,0,0,1.61,2.724c.19.153.39.3.61.441.1.063.2.135.31.2s.24.144.37.225c-.13-.072-.25-.144-.37-.216ZM576.47,524.954,528.56,507.09l-2.21-.827-32.78-12.218-2.86-1.07-4.89-1.825-1.84-.683L454.7,479.552a12.364,12.364,0,0,0,1.61-.872,7.655,7.655,0,0,0,1.26-1.025,2.956,2.956,0,0,0,.95-2.706,3.192,3.192,0,0,0-.55-1.169,6.379,6.379,0,0,0-1.89-1.654,14.249,14.249,0,0,0-1.6-.836c-.32-.144-.65-.279-1.01-.4-.02,0-.04-.018-.07-.027a23.662,23.662,0,0,0-2.45-.755,24.694,24.694,0,0,1,2.46.746l30.87-11.58,2.34-.881,2.96-1.106,2.22-.836,2.71-1.016,2.21-.827,4.34-1.627,5.79-2.176,69.52-26.081c-.2-.072-.4-.162-.59-.243.19.081.39.162.59.234.02,0,.04.018.06.027,6.1,2.275,15.57,2.49,22.31.674l121.98,45.465c-2.14,1.115-3.22,2.436-3.22,3.758,0,1.474,1.34,2.94,4,4.145L598.44,524.954a41.818,41.818,0,0,0-21.98-.027Zm144.84-54.33c.38-.18.78-.351,1.22-.521l.3-.108-.3.108c-.44.162-.84.342-1.22.512ZM601.99,424.3c2.61-1.187,3.91-2.634,3.91-4.091,0-1.663-1.7-3.318-5.1-4.585-.02,0-.04-.018-.07-.027l122.96-46.13c-.41-.153-.79-.306-1.15-.476.36.162.74.324,1.15.467l.06.027c6.08,2.266,15.54,2.49,22.27.683l92.66,34.541,25.96,9.674.9.333.9.333,1.56.584c-1.87.98-2.92,2.113-3.14,3.264-.32,1.627,1,3.291,3.96,4.621l-25.33,9.5-.88.333-.86.324-96,36.016a41.653,41.653,0,0,0-22.01-.009L601.97,424.288Zm267.68-9.386a1.5,1.5,0,0,1,.18-.072c.15-.054.31-.108.47-.162-.16.054-.31.108-.47.162C869.78,414.866,869.73,414.893,869.67,414.911Zm24.33-.18c.11.036.2.063.3.1.17.063.34.135.5.2-.16-.063-.33-.126-.5-.189Zm2.15.917,10.9-4.091,59.81-22.44,11.83-4.441,12.41-4.657,12.07-4.531,2.49-.935.9-.342.9-.342,11.96-4.486a40.82,40.82,0,0,0,11.12,1.2,39.129,39.129,0,0,0,8.94-1.178h.01l6.33,2.355,2.35.872h0l16.17,6.024,15.28,5.7,2.35.872,16.17,6.024,15.28,5.7,2.35.872,26.87,10.015.35.126,22.35,8.334c-4,2.1-4.2,4.909-.64,7.094l.33.189-.33-.189-21.98,8.244-2.41.9-72.61,27.241-26.66,10.006c-.09-.018-.19-.045-.28-.063-.39-.081-.78-.162-1.18-.234a43.112,43.112,0,0,0-7.5-.638,38.34,38.34,0,0,0-11.02,1.483l-23.05-8.595-.37-.135-6.56-2.445-12.41-4.63L895.44,423.5c5.02-2.266,5.24-5.52.69-7.885Zm120.78-56c.08-.027.16-.063.24-.09l.24-.081c-.08.027-.16.054-.24.09s-.16.054-.24.09Zm24.39-.189c.1.036.2.072.29.1a.979.979,0,0,1,.1.045c-.03-.009-.06-.027-.1-.036-.09-.036-.19-.072-.29-.108ZM651.66,552.977l-2.26-.845-48.52-18.089c4.95-2.266,5.15-5.493.62-7.858L724.78,479.93h0a42.538,42.538,0,0,0,20.15-.009l22.2,8.271,17.03,6.347,10.51,3.92,2.26.836,10.78,4.019,8.1,3.021,54.95,20.48c-4.05,2.113-4.27,4.927-.69,7.129l-123.66,46.4a42.284,42.284,0,0,0-19.9.531l-74.84-27.9Zm246.53-18.26c2.61-1.187,3.91-2.634,3.91-4.091,0-1.627-1.63-3.245-4.87-4.5h0l122.97-46.139c6.09,2.185,15.39,2.382,22.04.6l74.06,27.61,49.45,18.431c-4.18,2.185-4.26,5.134-.23,7.363l-62.48,23.447-16.23,6.087-44.7,16.767h0a42.277,42.277,0,0,0-20.62.378L898.2,534.718Zm313.07-321.626,98.65,36.771c-4.42,2.365-4.12,5.583.9,7.84l-21.1,7.921-44.58,16.731-57.38,21.532h0a41.367,41.367,0,0,0-15.17-1.295,33.131,33.131,0,0,0-6.95,1.322h0l-22.08-8.235h0l-56.91-21.218-.78-.288-.12-.045-.78-.288-40.62-15.14-.45-.171-.24.108.24-.108c5.68-2.535,5.3-6.329-1.11-8.721-.02,0-.03-.018-.06-.027l82.95-31.125.25-.09,12.93-4.855,26.83-10.06a.711.711,0,0,0,.07.027c6.05,2.257,15.43,2.5,22.16.719l23.37,8.712ZM719.8,250.232c-2.11,1.106-3.16,2.418-3.16,3.722s1.05,2.607,3.15,3.722l-96.63,36.25-20.2,7.579-6.5,2.436-.63-.162a42.366,42.366,0,0,0-20.3.476l-1.75-.656-8.26-3.084-18.46-6.878-10.69-3.983-8.94-3.335-76-28.329c5.23-2.365,5.24-5.808.05-8.19l123.09-46.184a42.126,42.126,0,0,0,20.89.243l124.33,46.346ZM603.61,645.238c5.45-2.508,5.11-6.194-1.02-8.559h0l64.87-24.337,2.26-.845,55.84-20.948c6.12,2.194,15.46,2.392,22.12.575.05-.009.1-.027.15-.036-.05.018-.1.027-.15.045l123.48,46.031c-4.23,2.194-4.33,5.161-.28,7.39l-50.93,19.114-5.77,2.167-2.26.845-4.78,1.789-59.67,22.386a42.106,42.106,0,0,0-20.55.36l-123.3-45.968Zm294.99-.207c5.32-2.437,5.16-5.979-.46-8.361-.17-.072-.35-.144-.53-.216.18.072.36.135.53.207l123.01-46.148c-.19-.063-.36-.126-.54-.189l.54.189c6.1,2,15.06,2.131,21.5.4l19.81,7.381,103.27,38.5c-2.16,1.124-3.23,2.445-3.22,3.767.01,1.42,1.27,2.85,3.78,4.019l-123.11,46.193h0a41.793,41.793,0,0,0-21.7.063L898.6,645.022Zm589.72.342c.28-.108.56-.225.82-.333C1488.88,645.157,1488.6,645.265,1488.32,645.373Zm-5.87-551.53,122.04,45.492c-4.37,2.355-4.05,5.565.95,7.813l-123.06,46.175h0a41.593,41.593,0,0,0-22.19.045l-121.74-45.375q-.405.175-.87.351c.3-.117.59-.234.87-.36,5.73-2.535,5.38-6.347-1.04-8.748a.157.157,0,0,1-.07-.027l122.96-46.13s.05.018.07.027c6.03,2.248,15.37,2.49,22.09.737Zm-22.17-9.881.15-.054c-.05.018-.09.036-.14.054-.18.072-.36.135-.54.207.17-.072.35-.144.53-.216ZM1335.47,37.436l.48-.189c-.16.063-.32.135-.48.189-.07.027-.14.045-.2.072C1335.33,37.481,1335.4,37.463,1335.47,37.436Zm-23.38.369a42.024,42.024,0,0,0,21.03.378l125.2,46.67c-3.81,2.05-4.06,4.756-.75,6.9L1333.76,138.2a41.987,41.987,0,0,0-8.6-.854,38.192,38.192,0,0,0-11.15,1.528l-124.9-46.562c5.43-2.4,5.41-5.943-.07-8.352L1312.08,37.8ZM1164.76,93.087a41.982,41.982,0,0,0,21.07.36l125.19,46.661c-3.83,2.059-4.09,4.765-.78,6.914h0l-123.8,46.454h0a42.19,42.19,0,0,0-19.7.665h0l-67.47-25.146-14.4-5.367-43.03-16.039c2.68-1.2,4.03-2.661,4.03-4.145s-1.37-2.985-4.12-4.19l43.12-16.183,14.4-5.4,65.51-24.58c-.19-.063-.36-.117-.54-.18.17.063.36.117.54.18Zm-1.51-.539c-.43-.18-.83-.36-1.21-.548C1162.42,92.188,1162.82,92.368,1163.25,92.548ZM1040.41,37.041c-.19.081-.38.162-.58.243C1040.03,37.2,1040.22,37.122,1040.41,37.041ZM893.45,84l123.09-46.184h0a42.208,42.208,0,0,0,20.78.279l124.37,46.355c-4.13,2.212-4.11,5.2.06,7.408L1099.26,115.3l-14.4,5.4-46.43,17.424a42.019,42.019,0,0,0-21.03.351l-72.1-26.873-28.65-10.681-23.33-8.694c5.31-2.364,5.35-5.826.13-8.226Zm-24.23,9.089a42.118,42.118,0,0,0,20.81.261l20.3,7.57L938.99,111.6l75.4,28.1c-2.08,1.106-3.11,2.4-3.11,3.7s1.05,2.616,3.15,3.722L897.36,191.039l-6.26,2.347a.082.082,0,0,1,.04.009h-.04a38.185,38.185,0,0,0-8.14-1.133,39.6,39.6,0,0,0-12.86,1.474L746,147.48h0c5.29-2.364,5.32-5.826.11-8.217L869.2,93.078Zm-271.33-9.08h0L720.95,37.841h0a42.115,42.115,0,0,0,20.97.315l123.94,46.2c-2.07,1.106-3.11,2.4-3.11,3.7s1.13,2.706,3.37,3.839L742.88,138.13a39.614,39.614,0,0,0-10.23-1.25,38.338,38.338,0,0,0-11.08,1.5L597.9,92.278c-.22.1-.46.2-.71.3.25-.1.48-.2.71-.3,5.34-2.391,5.32-5.88-.02-8.271Zm-24.26,9.1a42.106,42.106,0,0,0,21.02.306L718.58,139.6c-4.26,2.257-4.17,5.313.24,7.552L595.58,193.394h0a41.97,41.97,0,0,0-21.27.243h0l-123.67-46.1c5.3-2.382,5.28-5.871-.05-8.262-.08-.036-.17-.072-.26-.117.09.036.18.072.26.108L573.65,93.1ZM302.36,84l122.96-46.13c.08.027.16.063.23.09,6.07,2.257,15.48,2.49,22.21.7l122.7,45.735c-2.09,1.106-3.14,2.409-3.14,3.713s1.09,2.652,3.25,3.776L447.29,138.139h0a42,42,0,0,0-21.1.3L303.74,92.791c5.64-2.535,5.25-6.32-1.14-8.7-.08-.027-.16-.063-.24-.09-.17-.063-.35-.117-.53-.18.18.054.36.117.53.18Zm-24.12,9.224c6.07,2.266,15.51,2.5,22.24.7l122.69,45.735c-4.25,2.239-4.21,5.268.09,7.507L299.98,193.421a40.035,40.035,0,0,0-10.06-1.2,38.342,38.342,0,0,0-11.02,1.483L156.45,148.064c2.62-1.187,3.93-2.643,3.93-4.1,0-1.663-1.7-3.326-5.1-4.594-.08-.027-.16-.063-.24-.09-.24-.09-.49-.171-.73-.252.25.081.5.162.73.243L278,93.141c.08.027.16.063.24.09ZM7.11,92.386c5.37-2.427,5.24-5.979-.35-8.37L129.77,37.859a38.046,38.046,0,0,0,11.38,1.591,39.553,39.553,0,0,0,10-1.2L276.3,84.906c-2.11,1.106-3.16,2.418-3.16,3.722,0,1.088.72,2.176,2.18,3.156h0l-123.91,46.49a41.828,41.828,0,0,0-8.37-.8,38.271,38.271,0,0,0-11.01,1.483ZM128.4,247.769l-6.59-2.454-22.07-8.226L9.15,203.32c5.58-2.535,5.18-6.3-1.2-8.676-.08-.027-.16-.063-.24-.09a1.933,1.933,0,0,0-.21-.072c.07.027.14.045.21.072l122.96-46.13c.08.027.16.063.24.09,6.08,2.266,15.55,2.5,22.28.683l122.68,45.726c-4.27,2.239-4.25,5.268.06,7.516l-8.79,3.3-8.67,3.255-6.31,2.365-35.18,13.2-14.12,5.3-18.01,6.761-6.71,2.517-21.4,8.029-4.09,1.537h0c-.61-.162-1.25-.315-1.91-.441a42.124,42.124,0,0,0-19.12.719l-3.21-1.2Zm2.34,10.852c-.09-.027-.18-.063-.27-.1-.03-.009-.05-.027-.08-.036.03.009.05.018.08.027.09.036.18.063.27.1ZM7.59,313.8c-.16.063-.33.117-.5.18.17-.063.33-.117.5-.18.08-.027.17-.063.25-.1C7.76,313.741,7.68,313.768,7.59,313.8Zm1.15-.477c5.22-2.382,5.16-5.844-.14-8.217h0L128.86,260l2.81-1.052h0a28.93,28.93,0,0,0,3.69.872,43.089,43.089,0,0,0,17.44-.6l1.35.5.75.279L225.47,286.3l36.16,13.477,7.93,2.958,7.13,2.652c-4.34,2.266-4.29,5.34.15,7.6l-7.32,2.742-7.6,2.85-22.1,8.289-6.75,2.535-17.67,6.626-61.8,23.186a41.953,41.953,0,0,0-21.16.216L8.74,313.318Zm96.29,146.059-3.66-1.367-3.91-1.456-2.4-.89L9.55,423.8c2.57-1.178,3.85-2.616,3.85-4.064s-1.29-2.895-3.88-4.091l123.1-46.184a42.046,42.046,0,0,0,21,.207l57.44,21.415,15.61,5.817,51.25,19.1c-4.3,2.221-4.33,5.25-.09,7.489l-75.74,28.419-1.9.71-3.72,1.393-2.39.89-3.64,1.367-2.91,1.088-2.74,1.025-2.11.791-1.24.467-2.22.836-24.71,9.278h0a40.157,40.157,0,0,0-9.56-1.16c-.74,0-1.49,0-2.22.036a37.015,37.015,0,0,0-9.04,1.412l-28.64-10.672ZM10.77,534.421c5.19-2.4,5.09-5.871-.3-8.244L94.88,494.5l2.22-.836,3.38-1.268,7.26-2.724,20.87-7.831,2.22-.836,2.66-1a38.356,38.356,0,0,0,11.16,1.528,39.487,39.487,0,0,0,10.17-1.241l25.8,9.62,2,.746.26.1,1.32.495,4.85,1.807,2.22.827,3.82,1.421,2.22.827,2.09.782.15.054,34.9,13.009,1.35.5,3.92,1.465,2.22.827,3.31,1.232,2.22.827,3.38,1.259,2.22.827,26.84,10.006a8.857,8.857,0,0,0-2.21,1.546,4.07,4.07,0,0,0-.85,1.223c-.55,1.295-.05,2.634,1.51,3.83.18.135.37.279.58.414l-.58.216-5.57,2.086-1.93.719-33.43,12.542-1.9.71-7.04,2.643-2.09.782-2.92,1.1-2.06.773-.45.171-2.1.791-63.73,23.915a41.82,41.82,0,0,0-8.59-.854,38.746,38.746,0,0,0-10.87,1.439h0L10.74,534.4Zm124.72,46.652q-.57.175-1.11.378Q134.92,581.248,135.49,581.073ZM12.82,645.346c5.46-2.544,5.02-6.266-1.32-8.622-.02,0-.04-.018-.06-.027L134.4,590.558a.694.694,0,0,0,.07.027c6.13,2.293,15.68,2.5,22.43.647.22-.063.42-.126.63-.189-.21.063-.42.135-.63.189l97.02,36.16,24.92,9.287c-4.62,2.373-4.38,5.655.71,7.939h0L246.87,656.88l-2.37.89-52.09,19.545L156.47,690.8a41.777,41.777,0,0,0-21.87-.054l-121.8-45.4ZM157.13,801.456h0a42.541,42.541,0,0,0-19.76.486L11.72,755.1c4.84-2.266,5-5.466.51-7.8l123.28-46.256c-.09-.027-.17-.045-.26-.072.09.027.17.045.26.072a42.473,42.473,0,0,0,20.3-.045l125.78,46.885c-4.14,2.113-4.41,4.963-.79,7.174l-123.65,46.4Zm125.46,64.686c.36.162.73.315,1.13.468C283.32,866.467,282.94,866.3,282.59,866.143Zm146.32-55.777L305.5,856.676h0a42.215,42.215,0,0,0-20.44.324h0L161.74,811.031c5.36-2.508,4.99-6.167-1.1-8.523L283.6,756.369h0c6.15,2.212,15.57,2.391,22.23.548L429.28,802.94c-4.31,2.194-4.43,5.188-.36,7.426Zm23.91-8.972a42.225,42.225,0,0,0-20.47.333L309.03,755.758c2.52-1.178,3.79-2.607,3.79-4.037,0-1.618-1.63-3.245-4.87-4.5l122.96-46.139a36.917,36.917,0,0,0,12,1.807,39.269,39.269,0,0,0,10.2-1.25l123.46,46.022c-4.29,2.2-4.4,5.179-.34,7.417l-123.41,46.31Zm274.09-.027L604.01,755.56c-.37.171-.77.342-1.2.494a20.436,20.436,0,0,1-2.01.647l123.05,45.86c-4.55,2.338-4.39,5.556.49,7.84a.837.837,0,0,0,.16.072c-.05-.027-.1-.045-.16-.072L601.22,856.586h0a41.952,41.952,0,0,0-21.59.027L456.73,810.8c-.23.108-.47.207-.73.315.25-.1.5-.207.73-.315,5.23-2.428,5.04-5.952-.55-8.316l123.01-46.157a37.969,37.969,0,0,0,11.42,1.609,39.594,39.594,0,0,0,10.19-1.241q1.05-.3,2.01-.647c.43-.162.83-.324,1.2-.5,5.26-2.427,5.08-5.961-.51-8.334l123-46.157h0a41.774,41.774,0,0,0,21.58.378L871.14,747.3c-4.52,2.338-4.35,5.538.51,7.822L748.54,801.313a41.911,41.911,0,0,0-21.63.045Zm147.66,65.109c-.09-.036-.18-.072-.26-.1.09.036.17.063.26.1s.2.072.31.108C874.77,866.548,874.66,866.512,874.57,866.476Zm-.22-9.081c.05-.018.1-.045.15-.063a1.141,1.141,0,0,1,.19-.063c-.06.027-.12.045-.19.072a1.078,1.078,0,0,0-.15.063Zm24.67,9.081a1.432,1.432,0,0,1-.18.063c.06-.018.12-.045.18-.063.19-.072.36-.144.54-.207-.18.072-.35.144-.54.216ZM1020,810.357,896.7,856.622a42.1,42.1,0,0,0-20.86.261L751.3,810.456c4.97-2.3,5.08-5.574.36-7.939l123.2-46.229a42.441,42.441,0,0,0,20.51.045l124.71,46.481c-4.34,2.239-4.36,5.286-.07,7.534Zm24.03-9.008a42.149,42.149,0,0,0-20.9.27L898.6,755.2c5-2.3,5.12-5.592.38-7.948l63.67-23.888,2.26-.845,57.28-21.487a39.577,39.577,0,0,0,10.35,1.286,39.126,39.126,0,0,0,10.12-1.223l67.84,25.29,3.63,1.349,10.26,3.821,2.26.845,10.57,3.938,17.65,6.581,12.49,4.657c-4.32,2.239-4.33,5.277-.04,7.525l-123.3,46.265Zm2.31,9.845c-.32.117-.66.243-1,.342.34-.108.67-.225,1-.351.12-.045.23-.09.34-.135-.12.045-.23.09-.34.135Zm269.95-8.118c-4.13,2.14-4.31,5.008-.58,7.219l-123.56,46.364a41.148,41.148,0,0,0-9.2-.989,38.293,38.293,0,0,0-10.9,1.456l-124.53-46.418c5.2-2.391,5.13-5.853-.2-8.226l123.05-46.166a42.081,42.081,0,0,0,21.22.279l124.71,46.481h0Zm1.78-.782c-.06.018-.11.036-.16.054a1.069,1.069,0,0,0,.15-.063c.15-.054.31-.108.47-.162-.16.054-.31.108-.46.162Zm21.4-.908h0a42.3,42.3,0,0,0-20.12.477c-.15.045-.29.09-.43.135.14-.054.29-.1.43-.144l-124.52-46.418c5.23-2.391,5.16-5.862-.19-8.244l123.05-46.166s-.09-.027-.13-.045c.04.009.09.027.13.036a39.542,39.542,0,0,0,12.72,1.474,38.192,38.192,0,0,0,8.47-1.187l124.72,46.49a6.145,6.145,0,0,0-3,2.733c-.65,1.528.17,3.12,2.45,4.477l-123.56,46.364Zm3.04.908c-.17-.063-.35-.126-.52-.189.18.063.36.117.52.189a.568.568,0,0,1,.11.045.518.518,0,0,0-.11-.036Zm268.75,8-123.5,46.337h0a42.317,42.317,0,0,0-20.31.432l-123.7-46.112c5.43-2.481,5.14-6.132-.83-8.5l122.97-46.139c4.99,1.735,12.04,2.176,18.05,1.3a32.365,32.365,0,0,0,3.86-.782l5.02,1.87L1611.7,803c-4.14,2.158-4.29,5.062-.44,7.273Zm23.81-8.928h0a42.253,42.253,0,0,0-20.35.44l-114.6-42.714-9.09-3.389c5.46-2.481,5.19-6.141-.79-8.523-.13-.054-.27-.108-.41-.162-.2-.072-.41-.144-.62-.216.21.072.42.135.62.207.14.054.27.108.41.162l122.97-46.139c6.1,2.122,15.28,2.3,21.86.539l20.81,7.759,103.1,38.425c-4.11,2.158-4.24,5.053-.41,7.264l-123.51,46.337Zm272.02,1.6c-2.12,1.115-3.18,2.427-3.18,3.74s.97,2.508,2.9,3.6l-123.45,46.31a42.3,42.3,0,0,0-20.52.4l-123.69-46.112c5.41-2.463,5.19-6.078-.65-8.46l122.98-46.139a.053.053,0,0,1-.03-.009h.03c6.09,2.077,15.18,2.239,21.7.486h0l123.9,46.193ZM1800.61,653.1l105.67,39.387h0c-4.09,2.158-4.21,5.035-.39,7.246l-123.5,46.337a42.3,42.3,0,0,0-20.39.458h0l-102.96-38.38-20.71-7.723c5.49-2.481,5.23-6.15-.76-8.541l122.97-46.139a37.339,37.339,0,0,0,11.82,1.735,39.549,39.549,0,0,0,10-1.2l18.25,6.8Zm106.83-62.771a1.173,1.173,0,0,1,.16.063c-.05-.018-.1-.036-.16-.054a3.266,3.266,0,0,1-.32-.126C1907.23,590.261,1907.34,590.3,1907.44,590.333Zm-105.92-47.056,3.44,1.286,7,2.607,6.87,2.562,15.47,5.763,3.78,1.411,67.4,25.128c-4.02,2.131-4.17,4.972-.47,7.165l-119.65,44.9-3.92,1.475h0a42.223,42.223,0,0,0-20.24.5l-20.14-7.507-16.17-6.033-41.28-15.392-41.95-15.634-4.95-1.843c.28-.126.55-.261.8-.4a8.819,8.819,0,0,0,1.98-1.376c1.28-1.223,1.51-2.571.71-3.848a7.936,7.936,0,0,0-3.59-2.67l2.93-1.1,15.46-5.8,3.49-1.313,22.11-8.3,2.6-.971,14.21-5.331,24.34-9.134.14-.054,23.13-8.676,14.65-5.5a41.867,41.867,0,0,0,16.71,1.151,34.436,34.436,0,0,0,4.36-.836l20.8,7.75Zm10.93-106.088,3.78,1.411,18.56,6.914,3.78,1.412,65.28,24.328c-3.51,1.879-4.04,4.3-1.61,6.338a9.995,9.995,0,0,0,1.7,1.115l-63.44,23.807-2.18.818-3.79,1.421-18.62,6.986-3.79,1.42h0l-7.12,2.67-3.72,1.393-20.62,7.741h0a35.553,35.553,0,0,0-5.65-.98,44.69,44.69,0,0,0-5.05-.2,37.366,37.366,0,0,0-10.37,1.5h0l-6.71-2.5-2.96-1.106-24.55-9.152-2.96-1.106-24.55-9.152-2.96-1.106-24.55-9.152-2.96-1.106-24.55-9.152-2.96-1.106-4.8-1.789c2.24-1,3.54-2.194,3.89-3.425a2.49,2.49,0,0,0-.1-1.7,6.351,6.351,0,0,0-3.26-2.886l19.84-7.444,2.41-.908,1.08-.4,1.39-.522,19.78-7.426.94-.351,3.3-1.241.2-.072,10.63-3.992,7.21-2.706,4.27-1.6.96-.36,2.54-.953,17.83-6.689,1.34-.5,2.95-1.106,2.67-1,.81-.306h0l4.41-1.654,18.23-6.842.41-.153a35.646,35.646,0,0,0,6.9,1.151h.01a41.7,41.7,0,0,0,13.37-1.052l.6-.162c-.2.054-.4.117-.6.162l33.37,12.443Zm89.77-76.707h0c-4.33,2.329-4.1,5.484.7,7.723l-64.1,24.05-3.79,1.421-18.62,6.986-3.79,1.42h0l-32.81,12.308c-.79-.234-1.62-.441-2.48-.611a41.665,41.665,0,0,0-8.28-.791,37.921,37.921,0,0,0-11.11,1.519l-122.85-45.8c5.47-2.436,5.35-6.024-.31-8.424l6.06-2.275,3.46-1.295,5.62-2.1,5.23-1.96,5.62-2.1.07-.027,22.09-8.289,2.42-.908,33.97-12.749,3.57-1.34,18.51-6.95,3.57-1.34,12.82-4.81a41.926,41.926,0,0,0,21.32.44l123.14,45.9Zm-145.35-55.768a16.154,16.154,0,0,0-1.72.746,17.08,17.08,0,0,1,1.72-.755l.09-.027C1756.93,304.687,1756.9,304.705,1756.87,304.714Zm.21,9.188s-.1-.036-.14-.045c-.09-.036-.19-.072-.28-.108.09.036.19.072.28.108.05.018.09.036.14.054Zm145.15-63.581c-4.05,2.185-4.08,5.1-.1,7.291l-123.41,46.3a40.656,40.656,0,0,0-9.65-1.1,38.141,38.141,0,0,0-11.15,1.528L1634.65,258.4c5.66-2.508,5.39-6.257-.81-8.658L1756.8,203.6c6.04,2.167,15.21,2.382,21.86.647L1902.22,250.3ZM1901.83,140c-3.87,2.095-4.03,4.864-.51,7.022h0l.09.054-.09-.054h0l-123.65,46.391h0c-6.28-1.42-14.44-1.223-20.15.611l-125.58-46.8c-.3.126-.61.252-.94.378-.12.045-.25.09-.38.135.13-.045.26-.09.38-.135.33-.126.64-.252.94-.378,5.15-2.266,5.42-5.565.82-7.948-.08-.045-.17-.09-.26-.135.09.045.18.081.26.126l123.28-46.256a42.812,42.812,0,0,0,19.88.063L1901.82,140Z" fill="#4989ff" opacity="0.05"/>
</svg>
