<svg xmlns="http://www.w3.org/2000/svg" width="63.37" height="63.366" viewBox="0 0 63.37 63.366">
  <g id="Group_163870" data-name="Group 163870" transform="translate(0 -0.018)">
    <path id="Path_234859" data-name="Path 234859" d="M52.153,67.85a1.856,1.856,0,0,0,0-2.625L39.027,52.1a1.911,1.911,0,0,0-2.625,0L31.15,57.348l7.271,10.371L46.9,73.1Z" transform="translate(-27.295 -45.175)" fill="#7fe881"/>
    <path id="Path_234860" data-name="Path 234860" d="M306.711,319.631,293.584,306.5a1.856,1.856,0,0,0-2.625,0l-5.252,5.251,5.47,12.283,10.283,3.471,5.251-5.251A1.856,1.856,0,0,0,306.711,319.631Z" transform="translate(-250.345 -268.074)" fill="#5bc980"/>
    <path id="Path_234861" data-name="Path 234861" d="M51.117,145.548l-.112.111a12.84,12.84,0,0,1-14.3,2.785,69.333,69.333,0,0,1-21.053-14.592A73.444,73.444,0,0,1,1.175,112.872,12.907,12.907,0,0,1,3.812,98.354l.037-.037,15.744,15.744L18,115.695a46.068,46.068,0,0,0,15.744,15.744l1.634-1.634,15.743,15.743Z" transform="translate(0 -86.133)" fill="#5bc980"/>
    <path id="Path_234862" data-name="Path 234862" d="M161.957,331.4l-.112.111a12.84,12.84,0,0,1-14.3,2.785A69.333,69.333,0,0,1,126.5,319.7l9.283-9.283a43.858,43.858,0,0,0,8.8,6.869l1.634-1.634L161.957,331.4Z" transform="translate(-110.841 -271.981)" fill="#00ab5e"/>
    <path id="Path_234863" data-name="Path 234863" d="M301.7,27.866a1.857,1.857,0,0,1-3.713,0A24.214,24.214,0,0,0,273.857,3.731,1.839,1.839,0,0,1,272,1.875,1.838,1.838,0,0,1,273.857.018,27.89,27.89,0,0,1,301.7,27.866Z" transform="translate(-238.335)" fill="#25d9f8"/>
    <path id="Path_234864" data-name="Path 234864" d="M294.279,80.44a1.857,1.857,0,0,1-3.713,0,16.734,16.734,0,0,0-16.709-16.709,1.857,1.857,0,1,1,0-3.713A20.41,20.41,0,0,1,294.279,80.44Z" transform="translate(-238.335 -52.574)" fill="#25d9f8"/>
    <path id="Path_234865" data-name="Path 234865" d="M286.852,133.014a1.857,1.857,0,0,1-3.713,0,9.254,9.254,0,0,0-9.283-9.283,1.857,1.857,0,1,1,0-3.713,13.058,13.058,0,0,1,13,13Zm-7.426,0a1.857,1.857,0,1,1-3.713,0,1.781,1.781,0,0,0-1.857-1.857,1.857,1.857,0,1,1,0-3.713,5.578,5.578,0,0,1,5.57,5.57Z" transform="translate(-238.335 -105.148)" fill="#25d9f8"/>
    <path id="Path_234866" data-name="Path 234866" d="M300.4,81.762a5.523,5.523,0,0,1,1.634,3.936,1.857,1.857,0,1,1-3.713,0,2.135,2.135,0,0,0-.52-1.337Zm5.235-5.236a12.847,12.847,0,0,1,3.825,9.171,1.857,1.857,0,1,1-3.713,0,9.292,9.292,0,0,0-2.71-6.572Zm5.273-5.272A20.469,20.469,0,0,1,316.885,85.7a1.857,1.857,0,1,1-3.713,0,16.613,16.613,0,0,0-4.9-11.808Zm13.4,14.444a1.857,1.857,0,0,1-3.713,0,23.959,23.959,0,0,0-7.092-17.043l2.636-2.636A27.725,27.725,0,0,1,324.312,85.7Z" transform="translate(-260.941 -57.832)" fill="#00c0f1"/>
  </g>
</svg>
