<svg xmlns="http://www.w3.org/2000/svg" width="37.766" height="37.765" viewBox="0 0 37.766 37.765">
  <g id="Group_165810" data-name="Group 165810" transform="translate(-16 -16)">
    <path id="Path_238138" data-name="Path 238138" d="M53.766,20.406V37.479H52.507v-.816a1.88,1.88,0,0,1-.629.108H43.065V35.512h8.812a.63.63,0,0,0,.629-.629V31.627a1.88,1.88,0,0,1-.629.108H43.065V30.477h8.812a.63.63,0,0,0,.629-.629V26.592a1.88,1.88,0,0,1-.629.108H43.065V25.441h8.812a.63.63,0,0,0,.629-.629V20.406a.63.63,0,0,0-.629-.629H43.065V18.518h8.812a1.89,1.89,0,0,1,1.888,1.888Zm-9.441,7.553H43.065v1.259h1.259Zm1.259,0v1.259h5.665V27.959Zm-1.259,5.035H43.065v1.259h1.259Zm1.259,0v1.259h5.665V32.995Zm6.924,5.822v1.1a.63.63,0,0,1-.629.629H43.065v1.259h8.812a1.88,1.88,0,0,0,.629-.108v.738a.63.63,0,0,1-.629.629H43.065v1.259h8.812a1.89,1.89,0,0,0,1.888-1.888V38.659H52.507Zm-8.183-.787H43.065v1.259h1.259Zm1.259,0v1.259h5.665V38.03ZM17.259,20.406a.63.63,0,0,1,.629-.629H26.7V18.518H17.888A1.89,1.89,0,0,0,16,20.406v1.338h1.259ZM26.7,43.065H17.888a.63.63,0,0,1-.629-.629V41.7a1.88,1.88,0,0,0,.629.108H26.7V40.548H17.888a.63.63,0,0,1-.629-.629V36.663a1.88,1.88,0,0,0,.629.108H26.7V35.512H17.888a.63.63,0,0,1-.629-.629V31.627a1.88,1.88,0,0,0,.629.108H26.7V30.477H17.888a.63.63,0,0,1-.629-.629V26.592a1.88,1.88,0,0,0,.629.108H26.7V25.441H17.888a.63.63,0,0,1-.629-.629V22.845H16V42.436a1.89,1.89,0,0,0,1.888,1.888H26.7ZM19.777,29.218V27.959H18.518v1.259Zm6.924,0V27.959H21.035v1.259Zm-6.924,5.035V32.995H18.518v1.259Zm6.924,0V32.995H21.035v1.259Zm-6.924,5.035V38.03H18.518v1.259Zm6.924,0V38.03H21.035v1.259Zm1.259,5.665V31.106h1.259v1.259a.63.63,0,0,0,.629.629H39.918a.63.63,0,0,0,.629-.629V29.11a1.88,1.88,0,0,1-.629.108H29.847a1.88,1.88,0,0,1-.629-.108v.816H27.959V17.888A1.89,1.89,0,0,1,29.847,16H39.918a1.89,1.89,0,0,1,1.888,1.888V44.954a1.89,1.89,0,0,1-1.888,1.888H29.847A1.89,1.89,0,0,1,27.959,44.954Zm1.259-22.659a.63.63,0,0,0,.629.629H39.918a.63.63,0,0,0,.629-.629V17.888a.63.63,0,0,0-.629-.629H29.847a.63.63,0,0,0-.629.629Zm11.33,5.035V24.074a1.88,1.88,0,0,1-.629.108H29.847a1.88,1.88,0,0,1-.629-.108V27.33a.63.63,0,0,0,.629.629H39.918a.63.63,0,0,0,.629-.629Zm0,17.624v-.738a1.88,1.88,0,0,1-.629.108H29.847a1.88,1.88,0,0,1-.629-.108v.738a.63.63,0,0,0,.629.629H39.918a.63.63,0,0,0,.629-.629ZM29.218,37.4a.63.63,0,0,0,.629.629H39.918a.63.63,0,0,0,.629-.629V34.145a1.88,1.88,0,0,1-.629.108H29.847a1.88,1.88,0,0,1-.629-.108Zm0,5.035a.63.63,0,0,0,.629.629H39.918a.63.63,0,0,0,.629-.629V39.181a1.88,1.88,0,0,1-.629.108H29.847a1.88,1.88,0,0,1-.629-.108ZM30.477,26.7h1.259V25.441H30.477Zm2.518,0h6.294V25.441H32.995Zm-2.518,3.777v1.259h1.259V30.477Zm2.518,0v1.259h6.294V30.477Zm-1.259,5.035H30.477v1.259h1.259Zm7.553,0H32.995v1.259h6.294Zm-7.553,5.035H30.477v1.259h1.259Zm7.553,0H32.995v1.259h6.294Zm7.553,5.035H48.1v6.294a.629.629,0,0,1-.629.629H36.663a1.888,1.888,0,0,1-3.56,0H22.294a.629.629,0,0,1-.629-.629V45.583h1.259v5.665H33.1A1.9,1.9,0,0,1,34.253,50.1v-2h1.259v2a1.9,1.9,0,0,1,1.151,1.151H46.842Zm-11.33,6.294a.629.629,0,1,0-.629.629A.629.629,0,0,0,35.512,51.877Z" fill="#f68c5e"/>
  </g>
</svg>
