<svg xmlns="http://www.w3.org/2000/svg" width="38.536" height="38.539" viewBox="0 0 38.536 38.539">
  <g id="Group_165801" data-name="Group 165801" transform="translate(-0.005 -0.003)">
    <path id="Path_238115" data-name="Path 238115" d="M38.54,30.626a4.787,4.787,0,0,1-.217,1.428l-1.842,5.923a.8.8,0,0,1-.768.565.821.821,0,0,1-.238-.035.8.8,0,0,1-.528-1.005l1.842-5.924a3.2,3.2,0,0,0-2.481-4.1l-6.461-1.172a.8.8,0,0,1-.66-.79V16.153a1.357,1.357,0,0,0-2.712,0V32.713a.8.8,0,0,1-1.37.569l-2.994-3a1.46,1.46,0,1,0-2.064,2.064l4.818,4.818a.8.8,0,0,1-1.135,1.137l-4.818-4.818a3.066,3.066,0,1,1,4.336-4.336l1.622,1.622V16.159a2.963,2.963,0,0,1,5.924,0v8.7l5.8,1.052A4.8,4.8,0,0,1,38.54,30.626ZM22.3,10.61a.8.8,0,0,0-1.135,0L13.582,18.2l-3.533-3.533A.8.8,0,1,0,8.913,15.8l4.108,4.11a.8.8,0,0,0,1.135,0l8.152-8.154A.8.8,0,0,0,22.3,10.61ZM11.838,28.474A13.651,13.651,0,1,1,28.262,11.1a.8.8,0,0,0,1.53-.49A15.257,15.257,0,1,0,11.436,30.03a.792.792,0,0,0,.2.026.8.8,0,0,0,.2-1.582Z" transform="translate(0 0)" fill="#d18cec"/>
  </g>
</svg>
