<svg id="Group_165698" data-name="Group 165698" xmlns="http://www.w3.org/2000/svg" width="89.209" height="89.209" viewBox="0 0 89.209 89.209">
  <path id="Path_237733" data-name="Path 237733" d="M82.029,17.813a3.591,3.591,0,0,0,3.59,3.636h2.893a.7.7,0,0,1,.7.7V67.062a.7.7,0,0,1-.7.7h-2.8A3.651,3.651,0,0,0,82.029,71.3a3.591,3.591,0,0,0,3.59,3.636h2.893a.7.7,0,0,1,.7.7V88.512a.7.7,0,0,1-.7.7H.7a.7.7,0,0,1-.7-.7V74.939H3.59A3.591,3.591,0,0,0,7.18,71.3,3.65,3.65,0,0,0,3.5,67.759H.7a.7.7,0,0,1-.7-.7V22.147a.7.7,0,0,1,.7-.7H3.59a3.591,3.591,0,0,0,3.59-3.636A3.65,3.65,0,0,0,3.5,14.27H.7a.7.7,0,0,1-.7-.7V.7A.7.7,0,0,1,.7,0H88.512a.7.7,0,0,1,.7.7V13.573a.7.7,0,0,1-.7.7h-2.8A3.651,3.651,0,0,0,82.029,17.813Z" fill="#00b7a0"/>
  <circle id="Ellipse_456" data-name="Ellipse 456" cx="2.692" cy="2.692" r="2.692" transform="translate(4.667 4.218)" fill="#caeefc"/>
  <circle id="Ellipse_457" data-name="Ellipse 457" cx="2.692" cy="2.692" r="2.692" transform="translate(79.157 4.218)" fill="#caeefc"/>
  <circle id="Ellipse_458" data-name="Ellipse 458" cx="2.692" cy="2.692" r="2.692" transform="translate(4.667 79.786)" fill="#caeefc"/>
  <circle id="Ellipse_459" data-name="Ellipse 459" cx="2.692" cy="2.692" r="2.692" transform="translate(79.157 79.786)" fill="#caeefc"/>
  <path id="Path_237734" data-name="Path 237734" d="M166.37,5.385H120.2a.7.7,0,0,1-.7-.7V0h47.566V4.688A.7.7,0,0,1,166.37,5.385Z" transform="translate(-98.68)" fill="#fad87c"/>
  <path id="Path_237735" data-name="Path 237735" d="M366.282,5.385h-4.688V0h5.385V4.688A.7.7,0,0,1,366.282,5.385Z" transform="translate(-298.591)" fill="#febe40"/>
  <path id="Path_237736" data-name="Path 237736" d="M167.067,486.48H119.5v-4.688a.7.7,0,0,1,.7-.7H166.37a.7.7,0,0,1,.7.7Z" transform="translate(-98.68 -397.271)" fill="#fad87c"/>
  <path id="Path_237737" data-name="Path 237737" d="M366.979,486.48h-5.385V481.1h4.688a.7.7,0,0,1,.7.7Z" transform="translate(-298.591 -397.271)" fill="#febe40"/>
  <path id="Path_237738" data-name="Path 237738" d="M71.374,69.271a1.307,1.307,0,0,1-1.307-1.307v-3.59a1.307,1.307,0,0,1,2.614,0v3.59a1.307,1.307,0,0,1-1.307,1.307Zm5.624,0a1.307,1.307,0,0,1-1.307-1.307v-3.59a1.307,1.307,0,0,1,2.614,0v3.59A1.307,1.307,0,0,1,77,69.271Zm5.624,0a1.307,1.307,0,0,1-1.307-1.307v-3.59a1.307,1.307,0,0,1,2.614,0v3.59a1.307,1.307,0,0,1-1.307,1.307Zm5.624,0a1.307,1.307,0,0,1-1.307-1.307v-3.59a1.307,1.307,0,1,1,2.614,0v3.59a1.307,1.307,0,0,1-1.307,1.307Zm5.624,0a1.307,1.307,0,0,1-1.307-1.307v-3.59a1.307,1.307,0,0,1,2.614,0v3.59a1.307,1.307,0,0,1-1.307,1.307Zm5.624,0a1.307,1.307,0,0,1-1.307-1.307v-3.59a1.307,1.307,0,0,1,2.614,0v3.59A1.307,1.307,0,0,1,99.5,69.271Zm5.624,0a1.307,1.307,0,0,1-1.307-1.307v-3.59a1.307,1.307,0,0,1,2.614,0v3.59a1.307,1.307,0,0,1-1.307,1.307Zm5.624,0a1.307,1.307,0,0,1-1.307-1.307v-3.59a1.307,1.307,0,0,1,2.614,0v3.59a1.307,1.307,0,0,1-1.307,1.307Zm5.624,0a1.307,1.307,0,0,1-1.307-1.307v-3.59a1.307,1.307,0,1,1,2.614,0v3.59a1.307,1.307,0,0,1-1.307,1.307Zm5.624,0a1.307,1.307,0,0,1-1.307-1.307v-3.59a1.307,1.307,0,1,1,2.614,0v3.59a1.307,1.307,0,0,1-1.307,1.307ZM71.374,130.3a1.307,1.307,0,0,1-1.307-1.307V125.4a1.307,1.307,0,0,1,2.614,0v3.59A1.307,1.307,0,0,1,71.374,130.3Zm5.624,0a1.307,1.307,0,0,1-1.307-1.307V125.4a1.307,1.307,0,0,1,2.614,0v3.59A1.307,1.307,0,0,1,77,130.3Zm5.624,0a1.307,1.307,0,0,1-1.307-1.307V125.4a1.307,1.307,0,0,1,2.614,0v3.59A1.307,1.307,0,0,1,82.622,130.3Zm5.624,0a1.307,1.307,0,0,1-1.307-1.307V125.4a1.307,1.307,0,0,1,2.614,0v3.59A1.307,1.307,0,0,1,88.247,130.3Zm5.624,0a1.307,1.307,0,0,1-1.307-1.307V125.4a1.307,1.307,0,0,1,2.614,0v3.59A1.307,1.307,0,0,1,93.871,130.3Zm5.624,0a1.307,1.307,0,0,1-1.307-1.307V125.4a1.307,1.307,0,0,1,2.614,0v3.59A1.307,1.307,0,0,1,99.5,130.3Zm5.624,0a1.307,1.307,0,0,1-1.307-1.307V125.4a1.307,1.307,0,0,1,2.614,0v3.59A1.307,1.307,0,0,1,105.119,130.3Zm5.624,0a1.307,1.307,0,0,1-1.307-1.307V125.4a1.307,1.307,0,0,1,2.614,0v3.59A1.307,1.307,0,0,1,110.743,130.3Zm5.624,0a1.307,1.307,0,0,1-1.307-1.307V125.4a1.307,1.307,0,0,1,2.614,0v3.59A1.307,1.307,0,0,1,116.368,130.3Zm5.624,0a1.307,1.307,0,0,1-1.307-1.307V125.4a1.307,1.307,0,0,1,2.614,0v3.59a1.307,1.307,0,0,1-1.307,1.307ZM67.964,72.681h-3.59a1.307,1.307,0,0,1,0-2.614h3.59a1.307,1.307,0,1,1,0,2.614Zm0,5.624h-3.59a1.307,1.307,0,0,1,0-2.614h3.59a1.307,1.307,0,1,1,0,2.614Zm0,5.624h-3.59a1.307,1.307,0,0,1,0-2.614h3.59a1.307,1.307,0,1,1,0,2.614Zm0,5.624h-3.59a1.307,1.307,0,1,1,0-2.614h3.59a1.307,1.307,0,1,1,0,2.614Zm0,5.624h-3.59a1.307,1.307,0,1,1,0-2.614h3.59a1.307,1.307,0,1,1,0,2.614Zm0,5.624h-3.59a1.307,1.307,0,0,1,0-2.614h3.59a1.307,1.307,0,1,1,0,2.614Zm0,5.624h-3.59a1.307,1.307,0,1,1,0-2.614h3.59a1.307,1.307,0,0,1,0,2.614Zm0,5.624h-3.59a1.307,1.307,0,1,1,0-2.614h3.59a1.307,1.307,0,0,1,0,2.614Zm0,5.624h-3.59a1.307,1.307,0,1,1,0-2.614h3.59a1.307,1.307,0,1,1,0,2.614Zm0,5.624h-3.59a1.307,1.307,0,1,1,0-2.614h3.59a1.307,1.307,0,1,1,0,2.614Zm61.028-50.617H125.4a1.307,1.307,0,0,1,0-2.614h3.59a1.307,1.307,0,1,1,0,2.614Zm0,5.624H125.4a1.307,1.307,0,0,1,0-2.614h3.59a1.307,1.307,0,1,1,0,2.614Zm0,5.624H125.4a1.307,1.307,0,0,1,0-2.614h3.59a1.307,1.307,0,1,1,0,2.614Zm0,5.624H125.4a1.307,1.307,0,0,1,0-2.614h3.59a1.307,1.307,0,1,1,0,2.614Zm0,5.624H125.4a1.307,1.307,0,0,1,0-2.614h3.59a1.307,1.307,0,1,1,0,2.614Zm0,5.624H125.4a1.307,1.307,0,0,1,0-2.614h3.59a1.307,1.307,0,1,1,0,2.614Zm0,5.624H125.4a1.307,1.307,0,0,1,0-2.614h3.59a1.307,1.307,0,0,1,0,2.614Zm0,5.624H125.4a1.307,1.307,0,0,1,0-2.614h3.59a1.307,1.307,0,1,1,0,2.614Zm0,5.624H125.4a1.307,1.307,0,0,1,0-2.614h3.59a1.307,1.307,0,1,1,0,2.614Zm0,5.624H125.4a1.307,1.307,0,0,1,0-2.614h3.59a1.307,1.307,0,1,1,0,2.614Z" transform="translate(-52.078 -52.078)" fill="#cbdae0"/>
  <path id="Path_237739" data-name="Path 237739" d="M91.171,147.912V91.868a.7.7,0,0,1,.7-.7h56.045a.7.7,0,0,1,.7.7v56.045a.7.7,0,0,1-.7.7H91.868A.7.7,0,0,1,91.171,147.912Z" transform="translate(-75.286 -75.286)" fill="#444b66"/>
  <path id="Path_237740" data-name="Path 237740" d="M389.924,148.609V91.171h4.688a.7.7,0,0,1,.7.7v56.045a.7.7,0,0,1-.7.7h-4.688Z" transform="translate(-321.985 -75.286)" fill="#3d435c"/>
  <path id="Path_237741" data-name="Path 237741" d="M168.048,168.745H122.773a.7.7,0,0,1-.7-.7V122.773a.7.7,0,0,1,.7-.7h45.275a.7.7,0,0,1,.7.7v45.275A.7.7,0,0,1,168.048,168.745Z" transform="translate(-100.806 -100.806)" fill="#cbdae0"/>
  <path id="Path_237742" data-name="Path 237742" d="M363.707,168.745h-4.688V122.076h4.688a.7.7,0,0,1,.7.7v45.275a.7.7,0,0,1-.7.7Z" transform="translate(-296.465 -100.806)" fill="#a8b5ba"/>
  <path id="Path_237743" data-name="Path 237743" d="M138.038,340.109v4.859a.7.7,0,0,0,.7.7h5.307a.7.7,0,0,0,.471-1.211l-5.307-4.859A.7.7,0,0,0,138.038,340.109Z" transform="translate(-113.987 -280.273)" fill="#6e6b87"/>
  <path id="Path_237744" data-name="Path 237744" d="M220.907,154.652H216.24a1.307,1.307,0,0,1-1.307-1.307v-8.257a1.307,1.307,0,0,1,1.307-1.307h4.667a1.307,1.307,0,1,1,0,2.614h-3.36v5.643h3.36a1.307,1.307,0,1,1,0,2.614Zm3.373,0a1.307,1.307,0,0,1-1.307-1.307v-8.257a1.307,1.307,0,0,1,1.307-1.307h4.667a1.307,1.307,0,0,1,1.307,1.307v4.185a1.307,1.307,0,0,1-1.307,1.307h-3.36v2.765a1.307,1.307,0,0,1-1.307,1.307Zm1.307-6.685h2.053V146.4h-2.053Zm11.4,6.685H232.32a1.307,1.307,0,0,1-1.307-1.307v-8.257a1.307,1.307,0,1,1,2.614,0v6.95h2.053v-6.95a1.307,1.307,0,1,1,2.614,0v8.257a1.307,1.307,0,0,1-1.307,1.307Z" transform="translate(-177.484 -118.73)" fill="#444b66"/>
</svg>
