<?xml version="1.0" encoding="UTF-8"?>
<svg version="1.1" xmlns="http://www.w3.org/2000/svg" width="88" height="88">
<path d="M0 0 C1.67937947 1.54128726 2.88513545 3.22424844 4.23046875 5.0625 C6.43705348 7.47853979 8.71556626 8.64523502 11.625 10.125 C15.78191455 12.25415135 18.5396867 13.89947783 21 18 C21.5775 18.886875 22.155 19.77375 22.75 20.6875 C24.44611023 25.18219211 24.2533726 29.25160974 24 34 C25.0828125 34.3403125 25.0828125 34.3403125 26.1875 34.6875 C31.84857928 37.329337 35.95495329 42.30487953 38.1875 48.0625 C39.28278777 52.17650772 39.06618643 56.22519353 38.875 60.44921875 C39.00992262 63.20248348 39.70158901 64.61132024 41 67 C41.42633018 70.90802668 41.35958108 73.26449324 39.625 76.8125 C36.2998554 79.58345384 33.6638195 79.76465114 29.46875 80.40625 C25.64955824 81.32478979 23.81829008 83.31591421 21 86 C15.92700629 89.24045853 9.7800694 88.62449729 4 88 C1.65234375 86.9609375 1.65234375 86.9609375 -0.3125 85.75 C-2.11389462 84.57842156 -2.11389462 84.57842156 -4 84 C-6.17817236 84.71269443 -7.90820924 85.77005578 -9.8671875 86.953125 C-13.7987469 88.88290141 -17.74748242 88.68283669 -22 88 C-25.86571256 86.61697893 -29.14733521 84.56151096 -32.5625 82.3125 C-35.05777278 80.77101337 -35.05777278 80.77101337 -38.5 80.625 C-42 80 -42 80 -44.9375 78 C-47.70476813 73.97488272 -47.77335465 70.75409598 -47 66 C-46.6596875 65.21496094 -46.319375 64.42992188 -45.96875 63.62109375 C-44.78558913 60.41988027 -44.90639695 57.96074336 -45.0625 54.5625 C-45.1746972 46.90719906 -43.06998967 42.68453387 -38 37 C-34.48275862 34 -34.48275862 34 -32 34 C-32.0825 33.05125 -32.165 32.1025 -32.25 31.125 C-32.20094252 25.06640155 -30.13692048 19.42689925 -26.12890625 14.875 C-23.31458499 12.32136256 -20.89056403 10.33137266 -17.3125 9 C-14.12281144 7.62067522 -12.94901413 5.43477458 -11.11328125 2.55859375 C-8.54527948 -1.03660873 -3.98894194 -0.91994502 0 0 Z M-18 40 C-18.33 40.99 -18.66 41.98 -19 43 C-16.525 43.495 -16.525 43.495 -14 44 C-14.66 42.68 -15.32 41.36 -16 40 C-16.66 40 -17.32 40 -18 40 Z M9 40 C7.35 41.98 5.7 43.96 4 46 C7.48809191 45.22969878 7.48809191 45.22969878 11 44 C11.33 43.01 11.66 42.02 12 41 C11.01 40.67 10.02 40.34 9 40 Z M-11 46 C-10.195625 47.093125 -9.39125 48.18625 -8.5625 49.3125 C-5.97845085 52.82415653 -4.8584012 55.61791722 -4.875 60 C-4.87242188 60.680625 -4.86984375 61.36125 -4.8671875 62.0625 C-5 64 -5 64 -6 67 C-5.01 67.33 -4.02 67.66 -3 68 C-1.77863622 64.94256809 -1.77863622 64.94256809 -2.1875 61.3125 C-2.28751395 55.28943743 0.75473918 50.86789124 4 46 C-0.95 46 -5.9 46 -11 46 Z " fill="#0B6831" transform="translate(47,0)"/>
<path d="M0 0 C3.05874675 1.34399478 4.96880503 2.76683526 7.125 5.3125 C7.62257812 5.88613281 8.12015625 6.45976563 8.6328125 7.05078125 C11.78572501 11.54593365 12.19952425 15.20043454 12 20.625 C11.72072875 25.6380482 11.72072875 25.6380482 14 30 C14.6779661 37.11864407 14.6779661 37.11864407 12.125 40.4375 C8.56200114 43.05735211 6.39290498 43.09549793 2 43 C1.73832031 43.60328125 1.47664063 44.2065625 1.20703125 44.828125 C-0.92317106 48.66111038 -3.96987334 50.42756963 -8 52 C-14.06533754 52.95172171 -19.95510591 53.11140685 -25.375 49.9375 C-29.23631652 47.06205153 -32.97420239 43.75388015 -36 40 C-36 39.34 -36 38.68 -36 38 C-36.66 38 -37.32 38 -38 38 C-42 31.25 -42 31.25 -42 29 C-39.69 28.01 -37.38 27.02 -35 26 C-33.02 27.65 -31.04 29.3 -29 31 C-28.01 30.34 -27.02 29.68 -26 29 C-25.86409788 27.05301065 -25.86409788 27.05301065 -26.1875 24.875 C-26.36433223 19.90762182 -24.80552982 17.28738012 -21.66796875 13.53125 C-19.54564327 11.58288562 -17.87712866 11 -15 11 C-14.6596875 12.423125 -14.6596875 12.423125 -14.3125 13.875 C-13.30916286 17.19323388 -13.30916286 17.19323388 -10.375 18.375 C-9.59125 18.58125 -8.8075 18.7875 -8 19 C-7.73445313 18.15179688 -7.46890625 17.30359375 -7.1953125 16.4296875 C-5.95559534 12.87259054 -4.47517384 9.53406601 -2.875 6.125 C-2.33617187 4.97257812 -1.79734375 3.82015625 -1.2421875 2.6328125 C-0.83226562 1.76398437 -0.42234375 0.89515625 0 0 Z " fill="#006288" transform="translate(72,36)"/>
<path d="M0 0 C0 0.66 0 1.32 0 2 C-4.29 3.65 -8.58 5.3 -13 7 C-13 7.33 -13 7.66 -13 8 C-12.34 8.33 -11.68 8.66 -11 9 C-12.375 10.5 -12.375 10.5 -14 12 C-14.66 12 -15.32 12 -16 12 C-16.33 13.32 -16.66 14.64 -17 16 C-16.01 16.33 -15.02 16.66 -14 17 C-12.8125 19.5625 -12.8125 19.5625 -12 22 C-9.50447516 21.21869929 -9.50447516 21.21869929 -7 20 C-5.78918149 16.89459074 -5.78918149 16.89459074 -6 13 C-0.31375361 14.32238288 1.67754016 16.44348364 5 21 C6.20272819 23.40545638 6.10071472 24.94996953 6.0625 27.625 C6.05347656 28.44226563 6.04445312 29.25953125 6.03515625 30.1015625 C6.02355469 30.72804688 6.01195312 31.35453125 6 32 C5.236875 31.79375 4.47375 31.5875 3.6875 31.375 C0.78114056 30.66608797 0.78114056 30.66608797 -2 33 C-2.99 33 -3.98 33 -5 33 C-4.34 34.11375 -3.68 35.2275 -3 36.375 C-1 39.75 -1 39.75 -1 42 C-0.34 42 0.32 42 1 42 C3.6875 44.8125 3.6875 44.8125 6 48 C5 51 5 51 3.125 52.6875 C-1.61863464 54.67982655 -5.93782899 54.88675272 -11 54 C-13.44782395 52.67696127 -15.52729227 51.15208775 -17.73046875 49.45703125 C-20.95597453 47.38626765 -24.07578082 46.96716895 -27.8359375 46.51953125 C-30.46706444 45.88787081 -31.40963193 45.17498936 -33 43 C-33.89367134 39.86303122 -33.81253268 37.15116841 -33 34 C-30.77743936 30.91872275 -28.30988133 28.85237218 -25 27 C-20.71672312 26.41921669 -17.1826086 27.0956522 -13 28 C-11.68 28 -10.36 28 -9 28 C-9.33 27.34 -9.66 26.68 -10 26 C-12.64422295 25.48977117 -12.64422295 25.48977117 -15.75 25.3125 C-16.79671875 25.22613281 -17.8434375 25.13976562 -18.921875 25.05078125 C-21.86036301 25.00230366 -24.20012872 25.11402675 -27 26 C-27.66 26.99 -28.32 27.98 -29 29 C-29.66 29 -30.32 29 -31 29 C-32.03297468 15.38003755 -32.03297468 15.38003755 -28.3125 10.375 C-20.05811115 1.30679817 -11.84424465 -0.23688489 0 0 Z " fill="#CEBB29" transform="translate(35,32)"/>
<path d="M0 0 C3.49369181 3.40410997 4.90941149 5.91293792 5.3125 10.75 C5.27266563 15.1238135 3.80627251 17.6159655 1 21 C0.34 21.33 -0.32 21.66 -1 22 C-1.72693904 23.97888961 -2.39816251 25.97954558 -3 28 C-1.35 28.33 0.3 28.66 2 29 C2.04254356 30.99954746 2.04080783 33.00041636 2 35 C1 36 1 36 -1.03125 36.1328125 C-1.8459375 36.13023438 -2.660625 36.12765625 -3.5 36.125 C-4.3146875 36.12757812 -5.129375 36.13015625 -5.96875 36.1328125 C-8 36 -8 36 -9 35 C-9.04092937 32.66702567 -9.04241723 30.33294775 -9 28 C-11.97 28 -14.94 28 -18 28 C-18.33 27.34 -18.66 26.68 -19 26 C-19.53625 26.66 -20.0725 27.32 -20.625 28 C-23 30 -23 30 -26.25 30.25 C-27.1575 30.1675 -28.065 30.085 -29 30 C-29.56118643 22.00309336 -27.62849241 18.08847858 -22.5 12.0625 C-20 10 -20 10 -16 10 C-16 9.34 -16 8.68 -16 8 C-15.01 8 -14.02 8 -13 8 C-12.731875 7.236875 -12.46375 6.47375 -12.1875 5.6875 C-9.66014891 -0.03229457 -6.24825266 -1.38570119 0 0 Z " fill="#3F944B" transform="translate(47,2)"/>
<path d="M0 0 C1.67937947 1.54128726 2.88513545 3.22424844 4.23046875 5.0625 C6.43705348 7.47853979 8.71556626 8.64523502 11.625 10.125 C15.78191455 12.25415135 18.5396867 13.89947783 21 18 C21.5775 18.886875 22.155 19.77375 22.75 20.6875 C24.44611023 25.18219211 24.2533726 29.25160974 24 34 C24.721875 34.226875 25.44375 34.45375 26.1875 34.6875 C31.84857928 37.329337 35.95495329 42.30487953 38.1875 48.0625 C39.28278777 52.17650772 39.06618643 56.22519353 38.875 60.44921875 C39.00992262 63.20248348 39.70158901 64.61132024 41 67 C41.4617213 71.23244524 41.47538938 73.27106961 39.125 76.875 C36.05285412 79.94714588 36.05285412 79.94714588 33.0546875 80.09765625 C31.03645833 80.06510417 29.01822917 80.03255208 27 80 C27 79.67 27 79.34 27 79 C28.8871875 78.5978125 28.8871875 78.5978125 30.8125 78.1875 C33.10989219 77.58977141 34.92579432 77.04174069 37 75.875 C38.65009947 72.78106349 38.5313995 69.42304094 38 66 C37.34 65.01 36.68 64.02 36 63 C35.9453125 60.14453125 35.9453125 60.14453125 36.125 56.8125 C36.1973617 50.89199721 35.70712954 46.71136636 32 42 C29.79658408 39.80602055 27.49652466 37.85135537 25 36 C24.86859619 36.58426758 24.73719238 37.16853516 24.60180664 37.77050781 C24.0307946 39.88591632 23.3079142 41.6960355 22.37109375 43.671875 C22.05849609 44.33574219 21.74589844 44.99960937 21.42382812 45.68359375 C21.09833984 46.36550781 20.77285156 47.04742187 20.4375 47.75 C20.10814453 48.44738281 19.77878906 49.14476562 19.43945312 49.86328125 C18.62952288 51.5770467 17.81519362 53.28873194 17 55 C14.61328125 54.69140625 14.61328125 54.69140625 12 54 C10.1875 50.9375 10.1875 50.9375 9 48 C5.65829712 48.9282508 4.06538058 49.92931829 1.6875 52.5 C-0.54114683 57.12237862 -0.3585035 60.96103417 0 66 C-1.485 65.505 -1.485 65.505 -3 65 C-3.4551673 58.62765782 -2.63675344 54.3252461 1 49 C4.16430777 45.83569223 6.55215797 44.5083248 11 44 C10.42055068 42.00136244 10.42055068 42.00136244 9 40 C5.95800528 38.70768358 5.95800528 38.70768358 3 38 C3 35.69 3 33.38 3 31 C4.45742463 30.91903197 5.91612807 30.86082226 7.375 30.8125 C8.18710937 30.77769531 8.99921875 30.74289063 9.8359375 30.70703125 C10.55007812 30.80371094 11.26421875 30.90039062 12 31 C14.84510429 35.26765643 14.39341539 38.99151948 14 44 C13.49926228 46.44325473 12.82180259 48.63731755 12 51 C12.66 51 13.32 51 14 51 C15.21567156 45.89618883 15.32922327 40.75005779 15.51757812 35.53125 C15.60829277 33.68272521 15.79631037 31.83950634 16 30 C16.66 29.67 17.32 29.34 18 29 C18.35264145 25.27114314 18.50362341 21.71946875 18 18 C14.60416259 14.11904296 10.66754264 12.11150738 6 10 C6.350625 10.515625 6.70125 11.03125 7.0625 11.5625 C8.42952778 15.11677224 7.94787079 17.33489961 7 21 C5.50061851 23.2540044 3.87863622 25.02502346 2 27 C2 24 2 24 4 22 C4.6457411 16.56376095 5.19864064 10.14296843 2.5 5.1875 C-0.07850617 2.9313071 -0.74727746 2.56737751 -4 2.3125 C-7.3637024 2.55679124 -7.88470179 2.88765815 -10.4375 5.375 C-11.33898023 6.88948678 -12.21179485 8.4235897 -13 10 C-13.99 10 -14.98 10 -16 10 C-16 10.66 -16 11.32 -16 12 C-17.051875 12.2784375 -17.051875 12.2784375 -18.125 12.5625 C-22.20845359 14.6042268 -24.74435671 17.01344012 -27 21 C-28.0465086 24.97276489 -28.61085818 28.91401085 -29 33 C-29.99 33 -30.98 33 -32 33 C-31.83858985 25.83925868 -30.80191401 20.48287003 -26 15 C-22.57997432 11.93997702 -19.37306177 9.45768726 -15 8 C-13.63037965 6.40197654 -13.63037965 6.40197654 -12.4375 4.5 C-9.32992172 -0.22429346 -5.62205515 -1.29657983 0 0 Z " fill="#04531F" transform="translate(47,0)"/>
<path d="M0 0 C0 0.66 0 1.32 0 2 C-4.29 3.65 -8.58 5.3 -13 7 C-13 7.33 -13 7.66 -13 8 C-12.34 8.33 -11.68 8.66 -11 9 C-12.375 10.5 -12.375 10.5 -14 12 C-14.66 12 -15.32 12 -16 12 C-16.33 13.32 -16.66 14.64 -17 16 C-16.01 16.33 -15.02 16.66 -14 17 C-12.8125 19.5625 -12.8125 19.5625 -12 22 C-9.50447516 21.21869929 -9.50447516 21.21869929 -7 20 C-5.78918149 16.89459074 -5.78918149 16.89459074 -6 13 C-0.31375361 14.32238288 1.67754016 16.44348364 5 21 C6.20272819 23.40545638 6.10071472 24.94996953 6.0625 27.625 C6.05347656 28.44226563 6.04445312 29.25953125 6.03515625 30.1015625 C6.02355469 30.72804688 6.01195312 31.35453125 6 32 C5.319375 31.814375 4.63875 31.62875 3.9375 31.4375 C0.42767809 30.91476057 -2.52188063 31.38621423 -6 32 C-6.4125 31.030625 -6.825 30.06125 -7.25 29.0625 C-8.90179603 26.53411907 -9.7698845 26.05468091 -12.76171875 25.34375 C-17.61351859 24.91407031 -22.29103545 24.55045787 -27 26 C-27.66 26.99 -28.32 27.98 -29 29 C-29.66 29 -30.32 29 -31 29 C-32.03297468 15.38003755 -32.03297468 15.38003755 -28.3125 10.375 C-20.05811115 1.30679817 -11.84424465 -0.23688489 0 0 Z " fill="#E6D328" transform="translate(35,32)"/>
<path d="M0 0 C0.8353125 0.433125 0.8353125 0.433125 1.6875 0.875 C3.98881153 2.07427772 3.98881153 2.07427772 6.5625 2.75 C10.19745059 4.61407723 10.74145462 6.09188541 12 10 C12.11612033 13.37578379 12.06193733 16.70000865 11.91015625 20.07421875 C11.74782821 23.19471798 11.74782821 23.19471798 14 26 C14.64944649 32.81918819 14.64944649 32.81918819 12.625 36.5 C8.50417705 38.85475597 4.62490655 38.70689629 0 38 C-5.09274225 35.56434066 -6.31748014 31.39947109 -8.10546875 26.33984375 C-8.98300098 23.78607734 -8.98300098 23.78607734 -11 21 C-8.94921875 20.77213542 -6.8984375 20.54427083 -4.84765625 20.31640625 C-2.98859771 20.18113386 -2.98859771 20.18113386 -2 19 C0.67538514 18.95753357 3.32709386 18.95080541 6 19 C6.66 19 7.32 19 8 19 C7.16855469 18.70609375 7.16855469 18.70609375 6.3203125 18.40625 C0.55488499 16.02621587 0.55488499 16.02621587 -1.01171875 13.12890625 C-2.27686834 8.38235211 -2.22831802 4.45663605 0 0 Z " fill="#018EBA" transform="translate(72,40)"/>
<path d="M0 0 C0.33 0.66 0.66 1.32 1 2 C0.0625 4.125 0.0625 4.125 -1 6 C2.87797662 6.43386092 2.87797662 6.43386092 4.75 4.5 C5.1625 4.005 5.575 3.51 6 3 C5.9175 3.78375 5.835 4.5675 5.75 5.375 C6.04482986 9.65003303 7.35238823 12.82223921 9.02734375 16.73046875 C10 19 10 19 11 22 C14.51190809 23.22969878 14.51190809 23.22969878 18 24 C18 24.66 18 25.32 18 26 C13.6184791 30.3815209 10.3243931 31.4258373 4.125 31.6875 C-5.04881645 31.32755174 -9.84754652 27.48929469 -15.9375 21 C-18.55039488 17.85484876 -20.08977401 15.04544885 -21 11 C-19.68 10.34 -18.36 9.68 -17 9 C-16.319375 9.763125 -15.63875 10.52625 -14.9375 11.3125 C-10.62138869 15.26128269 -6.85931824 17 -1 17 C0.32 14.36 1.64 11.72 3 9 C0.525 8.505 0.525 8.505 -2 8 C-1.125 1.125 -1.125 1.125 0 0 Z " fill="#0085B1" transform="translate(54,55)"/>
<path d="M0 0 C0 2.31 0 4.62 0 7 C-0.81984375 7.26554687 -1.6396875 7.53109375 -2.484375 7.8046875 C-3.56203125 8.15789063 -4.6396875 8.51109375 -5.75 8.875 C-6.81734375 9.22304688 -7.8846875 9.57109375 -8.984375 9.9296875 C-11.45549261 10.8067422 -13.6973692 11.75926205 -16 13 C-15.67 12.01 -15.34 11.02 -15 10 C-15.99 10 -16.98 10 -18 10 C-13.14775287 5.73590404 -8.56304288 3 -2 3 C-2 2.34 -2 1.68 -2 1 C-16.74114196 2.27688432 -16.74114196 2.27688432 -28.4375 10.625 C-31.8114841 14.83558506 -32.21636822 17.68578634 -32.5625 23.125 C-32.64628906 24.40632813 -32.73007812 25.68765625 -32.81640625 27.0078125 C-32.90728516 28.48894531 -32.90728516 28.48894531 -33 30 C-32.34 30 -31.68 30 -31 30 C-30.773125 29.360625 -30.54625 28.72125 -30.3125 28.0625 C-29 26 -29 26 -26.8125 25.34375 C-23.65974781 24.95841362 -20.846251 25.12509605 -17.6875 25.4375 C-16.61886719 25.53933594 -15.55023437 25.64117187 -14.44921875 25.74609375 C-13.64097656 25.82988281 -12.83273438 25.91367187 -12 26 C-11.67 26.99 -11.34 27.98 -11 29 C-17.75 30.125 -17.75 30.125 -20 29 C-24.51824582 28.37984861 -27.30132997 28.7621066 -30.9375 31.4375 C-33.68088829 34.03845504 -34.53412918 35.91284456 -34.75 39.6875 C-34.47376741 42.91021354 -34.32180054 43.687951 -31.9375 46 C-28.99966665 47.12586462 -28.99966665 47.12586462 -25.75 47.3125 C-21.90142142 48.01807274 -20.75189946 48.76819112 -17.75 51.0625 C-13.32720707 54.19468271 -9.96583815 54.76346955 -4.59765625 54.4765625 C-0.71253624 53.76380364 1.79504188 52.27908133 5 50 C5.33 50.99 5.66 51.98 6 53 C-0.09119507 56.60959708 -4.90425308 58.13938067 -12 57 C-15.86571256 55.61697893 -19.14733521 53.56151096 -22.5625 51.3125 C-25.05777278 49.77101337 -25.05777278 49.77101337 -28.5 49.625 C-32 49 -32 49 -34.9375 47 C-37.70476813 42.97488272 -37.77335465 39.75409598 -37 35 C-36.6596875 34.21496094 -36.319375 33.42992187 -35.96875 32.62109375 C-34.78558913 29.41988027 -34.90639695 26.96074336 -35.0625 23.5625 C-35.13631065 18.52634241 -34.96809959 15.24014228 -32 11 C-31.401875 10.13375 -30.80375 9.2675 -30.1875 8.375 C-21.80796132 -0.72278485 -11.58908258 -0.32241652 0 0 Z " fill="#847926" transform="translate(37,31)"/>
<path d="M0 0 C3.9375 0.6875 3.9375 0.6875 6.375 3.0625 C8.91775107 7.33432179 9.62847752 10.7216749 8.9375 15.6875 C5.9375 21.1875 5.9375 21.1875 2.9375 22.6875 C-0.93464182 23.11773798 -2.58746371 23.00419086 -5.875 20.8125 C-8.92862546 17.84612098 -9.2738513 16.09165921 -9.4375 11.9375 C-9.38624147 8.40066128 -9.137351 5.97286147 -7.0625 3.0625 C-4.16923673 0.77199991 -3.45260931 0.25168554 0 0 Z " fill="#8DC197" transform="translate(43.0625,1.3125)"/>
<path d="M0 0 C0.268125 0.598125 0.53625 1.19625 0.8125 1.8125 C1.87102051 4.04254963 1.87102051 4.04254963 3.625 5.5 C5 7 5 7 5 11 C2.6875 13.3125 2.6875 13.3125 0 15 C-0.99 14.67 -1.98 14.34 -3 14 C-3 13.01 -3 12.02 -3 11 C-3.33 12.65 -3.66 14.3 -4 16 C-2.35 16.33 -0.7 16.66 1 17 C0.46930939 20.82097239 -0.49701566 23.06171403 -3 26 C-6.73487777 25.5020163 -8.81237635 25.12508244 -12 23 C-11.125 19.125 -11.125 19.125 -10 18 C-10.08601266 16.64455916 -10.1941415 15.29050012 -10.3125 13.9375 C-10.38405999 8.96805622 -8.71157659 6.36018838 -5.703125 2.53125 C-3.80412755 0.82389449 -2.49529446 0.39056783 0 0 Z " fill="#1A93B9" transform="translate(56,47)"/>
<path d="M0 0 C2.62424333 2.88026707 3.77412428 4.81415246 4.5 8.625 C3.80111243 11.94471596 2.78530932 13.07170893 0 15 C-4.40217088 15.65217346 -6.46657001 15.29634999 -10.375 13.125 C-13 11 -13 11 -14 9 C-14.49150705 3.839176 -14.49150705 3.839176 -14 1 C-10.0448481 -3.33790853 -4.93058371 -2.18932635 0 0 Z " fill="#057DA8" transform="translate(81,62)"/>
<path d="M0 0 C2 1.0625 2 1.0625 3 3 C3.54763378 7.22460345 3.473273 9.27431473 1.125 12.875 C-1.11945699 15.11945699 -2.01632238 15.95561022 -5.1640625 16.09765625 C-6.38222656 16.08025391 -6.38222656 16.08025391 -7.625 16.0625 C-8.85089844 16.04896484 -8.85089844 16.04896484 -10.1015625 16.03515625 C-10.72804688 16.02355469 -11.35453125 16.01195313 -12 16 C-12.33 15.34 -12.66 14.68 -13 14 C-12.34 14 -11.68 14 -11 14 C-11.33 12.906875 -11.66 11.81375 -12 10.6875 C-13 7 -13 7 -13 4 C-8.88854976 -0.4968987 -5.76206771 -0.65055603 0 0 Z " fill="#B3A221" transform="translate(18,61)"/>
<path d="M0 0 C1.45742463 -0.08096803 2.91612807 -0.13917774 4.375 -0.1875 C5.18710937 -0.22230469 5.99921875 -0.25710937 6.8359375 -0.29296875 C7.55007812 -0.19628906 8.26421875 -0.09960938 9 0 C11.84510429 4.26765643 11.39341539 7.99151948 11 13 C10.49926228 15.44325473 9.82180259 17.63731755 9 20 C9.66 20 10.32 20 11 20 C11.12375 19.21625 11.2475 18.4325 11.375 17.625 C12 15 12 15 14 13 C14 14.98 14 16.96 14 19 C14.66 19.33 15.32 19.66 16 20 C15.34 21.32 14.68 22.64 14 24 C11.6875 23.875 11.6875 23.875 9 23 C7.1875 19.9375 7.1875 19.9375 6 17 C2.65829712 17.9282508 1.06538058 18.92931829 -1.3125 21.5 C-3.54114683 26.12237862 -3.3585035 29.96103417 -3 35 C-3.99 34.67 -4.98 34.34 -6 34 C-6.4551673 27.62765782 -5.63675344 23.3252461 -2 18 C1.16430777 14.83569223 3.55215797 13.5083248 8 13 C7.42055068 11.00136244 7.42055068 11.00136244 6 9 C2.95800528 7.70768358 2.95800528 7.70768358 0 7 C0 4.69 0 2.38 0 0 Z " fill="#066033" transform="translate(50,31)"/>
<path d="M0 0 C0.33 0.66 0.66 1.32 1 2 C0.0625 4.125 0.0625 4.125 -1 6 C2.87797662 6.43386092 2.87797662 6.43386092 4.75 4.5 C5.1625 4.005 5.575 3.51 6 3 C5.9175 3.78375 5.835 4.5675 5.75 5.375 C6.04482986 9.65003303 7.35238823 12.82223921 9.02734375 16.73046875 C10 19 10 19 11 22 C14.51190809 23.22969878 14.51190809 23.22969878 18 24 C18 24.66 18 25.32 18 26 C12.85790173 30.09030544 12.85790173 30.09030544 9.625 29.75 C9.08875 29.5025 8.5525 29.255 8 29 C8.66 29 9.32 29 10 29 C9.34 27.02 8.68 25.04 8 23 C7.34 23.33 6.68 23.66 6 24 C0.37049257 24.3753005 -3.09465528 24.11070641 -8 21 C-8.33 20.34 -8.66 19.68 -9 19 C-5.37 19.33 -1.74 19.66 2 20 C2 19.34 2 18.68 2 18 C1.34 18 0.68 18 0 18 C0.69941596 14.85262818 1.76078698 11.97411124 3 9 C1.35 8.67 -0.3 8.34 -2 8 C-1.125 1.125 -1.125 1.125 0 0 Z " fill="#1BACDD" transform="translate(54,55)"/>
<path d="M0 0 C5.27291503 1.28607684 9.90935092 3.422256 13 8 C13.58142138 11.74064905 13.42061249 15.2478695 13 19 C12.01 19.33 11.02 19.66 10 20 C10.02320313 21.09699219 10.04640625 22.19398437 10.0703125 23.32421875 C10.08907921 24.778639 10.10727844 26.23306664 10.125 27.6875 C10.14175781 28.40873047 10.15851562 29.12996094 10.17578125 29.87304688 C10.21391569 34.04876781 9.8789919 37.2494138 8 41 C7.34 41 6.68 41 6 41 C6.165 40.13375 6.33 39.2675 6.5 38.375 C7.02536191 34.54848337 7.20303433 30.7346784 7.3125 26.875 C7.34988281 25.69679688 7.38726562 24.51859375 7.42578125 23.3046875 C6.9155132 19.34425845 5.54283681 17.99242583 3 15 C2.20703125 12.24609375 2.20703125 12.24609375 1.8125 9.4375 C1.3373376 6.23570478 0.84601951 3.12659383 0 0 Z " fill="#3C9A4C" transform="translate(53,10)"/>
<path d="M0 0 C0 0.66 0 1.32 0 2 C-4.29 3.65 -8.58 5.3 -13 7 C-13 7.33 -13 7.66 -13 8 C-12.34 8.33 -11.68 8.66 -11 9 C-12.375 10.5 -12.375 10.5 -14 12 C-14.66 12 -15.32 12 -16 12 C-16.33 13.32 -16.66 14.64 -17 16 C-16.01 16.33 -15.02 16.66 -14 17 C-14 17.66 -14 18.32 -14 19 C-15.98 18.67 -17.96 18.34 -20 18 C-20.33 18.99 -20.66 19.98 -21 21 C-21.08004482 17.4780279 -21.04005702 14.38018531 -20 11 C-23.10551666 11 -24.35261084 11.5393715 -27 13 C-25.022679 8.32633218 -22.07707758 4.11842639 -17.5625 1.6875 C-11.64248323 0.09920282 -6.08965141 -0.12179303 0 0 Z " fill="#D2BF28" transform="translate(35,32)"/>
<path d="M0 0 C0.99 0 1.98 0 3 0 C3 0.66 3 1.32 3 2 C4.546875 2.0309375 4.546875 2.0309375 6.125 2.0625 C11.28116005 3.30995808 13.12216742 5.70623702 16 10 C18.43679857 14.31977928 18.23860879 18.14828788 18 23 C17.67 23.66 17.34 24.32 17 25 C16.01 24.67 15.02 24.34 14 24 C14.66 23.67 15.32 23.34 16 23 C15.7321679 16.97377769 15.14253112 12.68760101 11 8 C8.72595355 6.43354311 6.48191811 5.24095906 4 4 C4.33 5.98 4.66 7.96 5 10 C2.6875 12.0625 2.6875 12.0625 0 14 C-0.99 13.67 -1.98 13.34 -3 13 C-3.309375 12.175 -3.61875 11.35 -3.9375 10.5 C-4.288125 9.675 -4.63875 8.85 -5 8 C-7.04105639 7.11306697 -7.04105639 7.11306697 -9 7 C-6.77515647 3.48708916 -4.90265724 2.33511958 -1 1 C-0.67 0.67 -0.34 0.34 0 0 Z " fill="#165C20" transform="translate(25,41)"/>
<path d="M0 0 C0.33 1.32 0.66 2.64 1 4 C3.97 4 6.94 4 10 4 C10.33 6.31 10.66 8.62 11 11 C15.62 11.66 20.24 12.32 25 13 C25 16 25 16 23.33984375 17.6640625 C19.15609775 20.05277892 14.6755393 19.51950437 10 19 C6.875 17.6875 6.875 17.6875 5 16 C4.67 15.01 4.34 14.02 4 13 C5.65 12.67 7.3 12.34 9 12 C9 9.69 9 7.38 9 5 C5.37 5 1.74 5 -2 5 C-1.34 3.35 -0.68 1.7 0 0 Z " fill="#0E7D2F" transform="translate(28,26)"/>
<path d="M0 0 C4.08739986 4.08739986 3.21903812 9.39804179 3.25 14.8125 C3.270625 15.70259766 3.29125 16.59269531 3.3125 17.50976562 C3.3438557 22.79712054 2.89611202 26.38908481 0 31 C-0.66 31 -1.32 31 -2 31 C-2.33 31.66 -2.66 32.32 -3 33 C-3 25.74 -3 18.48 -3 11 C-2.34 10.67 -1.68 10.34 -1 10 C-1.020625 8.72125 -1.04125 7.4425 -1.0625 6.125 C-1.125 2.25 -1.125 2.25 0 0 Z " fill="#0C6027" transform="translate(66,19)"/>
<path d="M0 0 C-0.99 1.485 -0.99 1.485 -2 3 C-2.28875 4.27875 -2.5775 5.5575 -2.875 6.875 C-3.79428316 10.75166698 -5.08960238 13.1727566 -8 16 C-12.44368135 18.71558305 -16.09003187 18.02950945 -21 17 C-23.05497724 15.44577584 -23.86580484 14.47105238 -24.57421875 11.984375 C-24.76181043 8.28429076 -24.66717989 5.92495393 -22.453125 2.85546875 C-15.31670506 -3.93519441 -8.84783173 -2.2938823 0 0 Z M-22 5 C-21.67 5.66 -21.34 6.32 -21 7 C-20.31744011 9.32873375 -19.64949225 11.66182791 -19 14 C-19.99 14.495 -19.99 14.495 -21 15 C-19.44014791 16.55985209 -17.91093902 16.24452344 -15.75 16.3125 C-12.2073069 16.28429384 -11.11909696 16.0744356 -8 14.125 C-5.35518816 11.31488742 -5.03497827 10.48095123 -4.75 6.5625 C-4.75244962 3.16641665 -4.75244962 3.16641665 -6 1.0625 C-12.66412307 -2.47781538 -17.25809168 0.25809168 -22 5 Z " fill="#E5E1C6" transform="translate(26,61)"/>
<path d="M0 0 C0.391875 0.495 0.78375 0.99 1.1875 1.5 C3.55091715 3.45593143 5.01435003 3.24207973 8 3 C7.67 3.66 7.34 4.32 7 5 C6.01 5 5.02 5 4 5 C4.66 6.11375 5.32 7.2275 6 8.375 C8 11.75 8 11.75 8 14 C8.66 14.33 9.32 14.66 10 15 C5.83861737 15.08159574 2.0527516 14.98248524 -2 14 C-2.99 15.485 -2.99 15.485 -4 17 C-6.625 17.6875 -6.625 17.6875 -9 18 C-8.66226562 17.50371094 -8.32453125 17.00742188 -7.9765625 16.49609375 C-5.06763483 12.0654438 -3.32107448 8.18267682 -2 3 C-1.34 2.01 -0.68 1.02 0 0 Z " fill="#8A7F24" transform="translate(26,60)"/>
<path d="M0 0 C5.68624639 1.32238288 7.67754016 3.44348364 11 8 C12.20272819 10.40545638 12.10071472 11.94996953 12.0625 14.625 C12.05347656 15.44226562 12.04445313 16.25953125 12.03515625 17.1015625 C12.02355469 17.72804688 12.01195312 18.35453125 12 19 C9.69 18.67 7.38 18.34 5 18 C4.87625 17.0925 4.7525 16.185 4.625 15.25 C3.8474907 11.20695166 2.90287279 8.90287279 0 6 C-0.125 2.875 -0.125 2.875 0 0 Z " fill="#C4B329" transform="translate(29,45)"/>
<path d="M0 0 C1.33897583 0.95043374 2.67105427 1.91059147 4 2.875 C4.7425 3.40867187 5.485 3.94234375 6.25 4.4921875 C6.8275 4.98976563 7.405 5.48734375 8 6 C8 6.66 8 7.32 8 8 C5.04590299 6.62845496 2.55991624 5.01136276 0 3 C-0.99 3.495 -0.99 3.495 -2 4 C-0.50583493 11.28405473 5.18044291 17.31206605 11.125 21.5625 C16.43356812 24.22907241 23.28181669 23.91923514 29 23 C31.77304171 21.06581695 31.77304171 21.06581695 34 19 C34.66 19 35.32 19 36 19 C35.04276125 21.77599238 34.04654399 22.96477752 31.6875 24.75 C25.58837227 26.81750092 18.76692649 27.39401063 12.625 25.12109375 C7.85797021 22.29998041 3.47383697 18.30972899 0 14 C0 13.34 0 12.68 0 12 C-0.66 12 -1.32 12 -2 12 C-6 5.25 -6 5.25 -6 3 C-4.02 2.01 -2.04 1.02 0 0 Z " fill="#024B66" transform="translate(36,62)"/>
<path d="M0 0 C4.43879389 0.50729073 6.77172248 1.93727517 10 5 C15.32391289 11.84503086 16.25680891 18.0136282 15.875 26.44921875 C16.00992262 29.20248348 16.70158901 30.61132024 18 33 C18.4617213 37.23244524 18.47538938 39.27106961 16.125 42.875 C13.05285412 45.94714588 13.05285412 45.94714588 10.0546875 46.09765625 C8.03645833 46.06510417 6.01822917 46.03255208 4 46 C4 45.67 4 45.34 4 45 C5.258125 44.731875 6.51625 44.46375 7.8125 44.1875 C10.10989219 43.58977141 11.92579432 43.04174069 14 41.875 C15.65009947 38.78106349 15.5313995 35.42304094 15 32 C14.34 31.01 13.68 30.02 13 29 C12.9453125 26.14453125 12.9453125 26.14453125 13.125 22.8125 C13.1973617 16.89199721 12.70712954 12.71136636 9 8 C6.79658408 5.80602055 4.49652466 3.85135537 2 2 C1.87625 2.61875 1.7525 3.2375 1.625 3.875 C1 6 1 6 -1 8 C-0.67 5.36 -0.34 2.72 0 0 Z " fill="#02465F" transform="translate(70,34)"/>
<path d="M0 0 C4.41982786 0.04761035 6.89327528 1.46314607 10.3125 4.3125 C12.7802205 8.01408075 12.96897105 11.01952487 12.3125 15.3125 C10.9375 17.8125 10.9375 17.8125 8.3125 19.3125 C3.64507176 20.0681039 -0.27017506 19.99035106 -4.5625 17.9375 C-7.16152897 14.7269348 -8.42392012 11.5264601 -9.79296875 7.65234375 C-10.67050098 5.09857734 -10.67050098 5.09857734 -12.6875 2.3125 C-10.63671875 2.08463542 -8.5859375 1.85677083 -6.53515625 1.62890625 C-3.49466357 1.10822991 -3.73461081 0.31649244 0 0 Z M-4.625 2.25 C-7.07266646 4.29514171 -7.07266646 4.29514171 -7.3125 8.1875 C-7.10646328 11.68368565 -6.65807722 12.34889133 -4.3125 15.25 C-0.24567514 18.44536239 2.11370948 18.7606716 7.3125 18.3125 C9.9594872 16.91564994 9.9594872 16.91564994 11.3125 14.3125 C11.39084622 10.00345774 10.75325504 7.90881564 8.1875 4.4375 C3.88177097 1.25500463 0.49084026 0.61728502 -4.625 2.25 Z " fill="#C5DCE5" transform="translate(73.6875,58.6875)"/>
<path d="M0 0 C0.33 0.66 0.66 1.32 1 2 C0.0625 4.125 0.0625 4.125 -1 6 C2.87797662 6.43386092 2.87797662 6.43386092 4.75 4.5 C5.1625 4.005 5.575 3.51 6 3 C5.938125 3.804375 5.87625 4.60875 5.8125 5.4375 C6.05139407 9.97648733 7.42043264 13.76901601 9 18 C6 20 6 20 3.9375 19.6875 C2 19 2 19 0 18 C0.69941596 14.85262818 1.76078698 11.97411124 3 9 C1.35 8.67 -0.3 8.34 -2 8 C-1.125 1.125 -1.125 1.125 0 0 Z " fill="#3AB5E5" transform="translate(54,55)"/>
<path d="M0 0 C1.051875 0.4125 2.10375 0.825 3.1875 1.25 C2.65680939 5.07097239 1.69048434 7.31171403 -0.8125 10.25 C-4.54737777 9.7520163 -6.62487635 9.37508244 -9.8125 7.25 C-9.49273567 4.2655329 -8.72579903 3.15309892 -6.6875 0.875 C-3.8125 -0.75 -3.8125 -0.75 0 0 Z " fill="#9C9555" transform="translate(53.8125,62.75)"/>
<path d="M0 0 C0.66 0.33 1.32 0.66 2 1 C2.77253219 9.84120172 2.77253219 9.84120172 -0.125 14.1875 C-3 16 -3 16 -6.125 16.0625 C-9.31381742 14.884024 -10.31783743 13.89705775 -12 11 C-11.67 10.34 -11.34 9.68 -11 9 C-8.03 9 -5.06 9 -2 9 C-1.34 6.03 -0.68 3.06 0 0 Z " fill="#178233" transform="translate(48,7)"/>
<path d="M0 0 C4 2 4 2 5.8125 3.0625 C8.09435492 4.17889736 8.09435492 4.17889736 11.1875 4.25 C15.04488047 5.00882895 16.2371265 5.76107427 19.25 8.0625 C23.67279293 11.19468271 27.03416185 11.76346955 32.40234375 11.4765625 C36.28746376 10.76380364 38.79504188 9.27908133 42 7 C42.495 8.485 42.495 8.485 43 10 C36.90880493 13.60959708 32.09574692 15.13938067 25 14 C21.13428744 12.61697893 17.85266479 10.56151096 14.4375 8.3125 C11.94222722 6.77101337 11.94222722 6.77101337 8.5 6.625 C4.19350057 5.85598224 2.73942002 4.32050912 0 1 C0 0.67 0 0.34 0 0 Z " fill="#73681F" transform="translate(0,74)"/>
<path d="M0 0 C1.8125 0.1875 1.8125 0.1875 4 1 C5.96380735 3.52489516 6.89884707 5.40753284 7.4375 8.5625 C6.84115312 11.88500405 5.70459551 13.02637625 3 15 C0.25 15.25 0.25 15.25 -2 15 C-1.855625 14.484375 -1.71125 13.96875 -1.5625 13.4375 C-0.52639045 8.94769194 0 4.60675879 0 0 Z " fill="#01628A" transform="translate(78,62)"/>
<path d="M0 0 C3.14099068 1.57049534 3.80656011 3.79655608 5 7 C4.6875 9.375 4.6875 9.375 4 11 C2.35 11.33 0.7 11.66 -1 12 C-5 6.5 -5 6.5 -5 2 C-2 0 -2 0 0 0 Z " fill="#E3CE9A" transform="translate(30,52)"/>
<path d="M0 0 C1.47906892 -0.02689216 2.95827483 -0.04634621 4.4375 -0.0625 C5.26121094 -0.07410156 6.08492187 -0.08570312 6.93359375 -0.09765625 C9 0 9 0 10 1 C10.23728814 7.52542373 10.23728814 7.52542373 9 10 C6.03 9.01 3.06 8.02 0 7 C0 4.69 0 2.38 0 0 Z " fill="#044D67" transform="translate(50,31)"/>
<path d="M0 0 C0.66 1.32 1.32 2.64 2 4 C2.66 4 3.32 4 4 4 C4.74926071 7.66305234 5.2380014 10.42355152 4 14 C2.02 14.33 0.04 14.66 -2 15 C-2.33 14.34 -2.66 13.68 -3 13 C-2.34 13 -1.68 13 -1 13 C-1.33 11.906875 -1.66 10.81375 -2 9.6875 C-3 6 -3 6 -3 3 C-1.5 1.3125 -1.5 1.3125 0 0 Z " fill="#C0AF2A" transform="translate(8,62)"/>
<path d="M0 0 C1.37478516 0.01740234 1.37478516 0.01740234 2.77734375 0.03515625 C3.69644531 0.04417969 4.61554687 0.05320312 5.5625 0.0625 C6.27277344 0.07410156 6.98304687 0.08570312 7.71484375 0.09765625 C7.75738731 2.09720371 7.75565158 4.09807261 7.71484375 6.09765625 C6.71484375 7.09765625 6.71484375 7.09765625 4.68359375 7.23046875 C3.86890625 7.22789063 3.05421875 7.2253125 2.21484375 7.22265625 C1.40015625 7.22523437 0.58546875 7.2278125 -0.25390625 7.23046875 C-2.28515625 7.09765625 -2.28515625 7.09765625 -3.28515625 6.09765625 C-3.41015625 3.59765625 -3.41015625 3.59765625 -3.28515625 1.09765625 C-2.28515625 0.09765625 -2.28515625 0.09765625 0 0 Z " fill="#C6C29F" transform="translate(41.28515625,30.90234375)"/>
<path d="M0 0 C0 0.66 0 1.32 0 2 C-1.80984375 2.31130859 -1.80984375 2.31130859 -3.65625 2.62890625 C-16.30370674 4.9171419 -16.30370674 4.9171419 -26 13 C-26 8.9042424 -24.30023563 7.53626915 -21.64453125 4.58203125 C-16.00457131 -0.84358341 -7.30765354 -0.14615307 0 0 Z " fill="#D6C556" transform="translate(35,32)"/>
<path d="M0 0 C3.94139078 1.66751148 6.7892812 4.22710649 10 7 C9.67 5.02 9.34 3.04 9 1 C10.32 1 11.64 1 13 1 C12.67 2.98 12.34 4.96 12 7 C13.32 7.33 14.64 7.66 16 8 C12.7 8.33 9.4 8.66 6 9 C6 8.01 6 7.02 6 6 C3.36 6 0.72 6 -2 6 C-1.125 1.125 -1.125 1.125 0 0 Z " fill="#429D57" transform="translate(32,23)"/>
<path d="M0 0 C0.99 0.33 1.98 0.66 3 1 C2.09507813 1.65355469 2.09507813 1.65355469 1.171875 2.3203125 C-5.54385868 7.19307279 -5.54385868 7.19307279 -10 14 C-10.60580116 18.66362443 -10.87125476 23.3007987 -11 28 C-11.66 28 -12.32 28 -13 28 C-13.55753809 14.08219727 -13.55753809 14.08219727 -10 9 C-9.401875 8.13375 -8.80375 7.2675 -8.1875 6.375 C-5.67888171 3.65135728 -3.23918192 1.79188787 0 0 Z " fill="#7A6F22" transform="translate(15,33)"/>
<path d="M0 0 C2.42581871 2.42581871 2.96355664 4.07433869 3.09765625 7.48046875 C3.08605469 8.37378906 3.07445313 9.26710938 3.0625 10.1875 C3.05347656 11.08855469 3.04445313 11.98960938 3.03515625 12.91796875 C3.02355469 13.60503906 3.01195313 14.29210938 3 15 C2.01 15.33 1.02 15.66 0 16 C0 15.34 0 14.68 0 14 C-0.66 14 -1.32 14 -2 14 C-2 17.63 -2 21.26 -2 25 C-2.33 25 -2.66 25 -3 25 C-3 20.38 -3 15.76 -3 11 C-2.34 10.67 -1.68 10.34 -1 10 C-1.020625 8.72125 -1.04125 7.4425 -1.0625 6.125 C-1.125 2.25 -1.125 2.25 0 0 Z " fill="#258238" transform="translate(66,19)"/>
<path d="M0 0 C-2.45098039 5.75980392 -2.45098039 5.75980392 -5 6.875 C-6.6639407 6.97899629 -8.33281258 7 -10 7 C-10.33 8.32 -10.66 9.64 -11 11 C-11.33 8.36 -11.66 5.72 -12 3 C-4.71428571 -1.71428571 -4.71428571 -1.71428571 0 0 Z " fill="#72B973" transform="translate(46,5)"/>
<path d="M0 0 C0 1.65 0 3.3 0 5 C-0.66 4.67 -1.32 4.34 -2 4 C-5.41678805 4.80923928 -6.91542831 5.90857115 -9.3125 8.5 C-11.54114683 13.12237862 -11.3585035 16.96103417 -11 22 C-11.99 21.67 -12.98 21.34 -14 21 C-14.4538355 14.64630304 -13.65523569 10.3006794 -10 5 C-6.72610549 1.9599551 -4.524875 0 0 0 Z " fill="#014A69" transform="translate(58,44)"/>
<path d="M0 0 C2.27380558 1.93273474 3.5964432 3.97131821 5 6.5625 C6.7506929 10.15173636 6.7506929 10.15173636 10 12 C12.0492094 12.45139459 12.0492094 12.45139459 14.1875 12.625 C15.445625 12.74875 16.70375 12.8725 18 13 C18 13.33 18 13.66 18 14 C16.02 14 14.04 14 12 14 C11.67 14.99 11.34 15.98 11 17 C10.67 16.01 10.34 15.02 10 14 C9.2575 13.9175 8.515 13.835 7.75 13.75 C4.32542668 12.81602546 3.10330184 11.85448107 1 9 C0.36551296 5.93331264 0 3.12641605 0 0 Z " fill="#0D6E91" transform="translate(62,65)"/>
<path d="M0 0 C6.34507042 -0.35915493 6.34507042 -0.35915493 8.9375 1.0625 C10.5957539 4.08637476 10.30144019 6.62386983 10 10 C9.01 11.485 9.01 11.485 8 13 C7.34 13 6.68 13 6 13 C6 11.02 6 9.04 6 7 C5.34 7 4.68 7 4 7 C4 5.02 4 3.04 4 1 C2.68 0.67 1.36 0.34 0 0 Z " fill="#988A24" transform="translate(11,61)"/>
<path d="M0 0 C3.41458042 0.06829161 6.04087046 0.19675607 8.73046875 2.44921875 C13.99951214 8.44682123 15.38834521 13.10364742 15 21 C14.67 21.66 14.34 22.32 14 23 C13.01 22.67 12.02 22.34 11 22 C11.66 21.67 12.32 21.34 13 21 C12.7321679 14.97377769 12.14253112 10.68760101 8 6 C5.72595355 4.43354311 3.48191811 3.24095906 1 2 C0.67 2.66 0.34 3.32 0 4 C0 2.68 0 1.36 0 0 Z " fill="#807320" transform="translate(28,43)"/>
<path d="M0 0 C0 0.99 0 1.98 0 3 C-4.22222222 6 -4.22222222 6 -7 6 C-8.86551426 9.58752742 -10.42535928 13.27812193 -12 17 C-13.62280189 12.94299529 -12.56655636 9.95044647 -11 6 C-8.00919969 1.88314536 -5.40071892 -0.95306804 0 0 Z " fill="#A7CDA9" transform="translate(32,12)"/>
<path d="M0 0 C0.66 0.33 1.32 0.66 2 1 C0.68 2.65 -0.64 4.3 -2 6 C-1.34 6.66 -0.68 7.32 0 8 C0.1875 11.0625 0.1875 11.0625 0 14 C-0.33 14.33 -0.66 14.66 -1 15 C-0.34 15.66 0.32 16.32 1 17 C-1.86724686 16.42655063 -2.8614515 16.1385485 -5 14 C-5.57028991 10.94444667 -5.54304084 8.05789986 -5 5 C-2.5 1.9375 -2.5 1.9375 0 0 Z " fill="#F3F1DE" transform="translate(7,61)"/>
<path d="M0 0 C1.4540625 0.0309375 1.4540625 0.0309375 2.9375 0.0625 C2.9375 1.0525 2.9375 2.0425 2.9375 3.0625 C2.2775 3.0625 1.6175 3.0625 0.9375 3.0625 C1.2675 5.0425 1.5975 7.0225 1.9375 9.0625 C-1.0625 10.0625 -1.0625 10.0625 -4.0625 9.0625 C-4.16015625 2.91015625 -4.16015625 2.91015625 -4.0625 1.0625 C-3.0625 0.0625 -3.0625 0.0625 0 0 Z " fill="#12A2D1" transform="translate(71.0625,61.9375)"/>
<path d="M0 0 C6.81818182 1.96969697 6.81818182 1.96969697 9 5 C9 5.99 9 6.98 9 8 C7.02 8.99 7.02 8.99 5 10 C2.5 8.375 2.5 8.375 0 6 C-0.3125 2.75 -0.3125 2.75 0 0 Z " fill="#E8D632" transform="translate(29,45)"/>
<path d="M0 0 C-0.639375 0.309375 -1.27875 0.61875 -1.9375 0.9375 C-3.93610821 1.8345163 -3.93610821 1.8345163 -5 3 C-7.32817964 3.36760731 -9.6618385 3.70241581 -12 4 C-11.01 4.99 -10.02 5.98 -9 7 C-9.33 7.99 -9.66 8.98 -10 10 C-10.33 9.67 -10.66 9.34 -11 9 C-11.33 9.99 -11.66 10.98 -12 12 C-15.07692308 6.70769231 -15.07692308 6.70769231 -14.6875 3.125 C-14.460625 2.42375 -14.23375 1.7225 -14 1 C-12.906875 0.855625 -11.81375 0.71125 -10.6875 0.5625 C-2.30681818 -0.71590909 -2.30681818 -0.71590909 0 0 Z " fill="#086182" transform="translate(74,58)"/>
<path d="M0 0 C1.32 0 2.64 0 4 0 C4.33 2.31 4.66 4.62 5 7 C1.7 7.66 -1.6 8.32 -5 9 C-5 8.01 -5 7.02 -5 6 C-4.01 6 -3.02 6 -2 6 C-1.34 4.02 -0.68 2.04 0 0 Z " fill="#0073A0" transform="translate(66,49)"/>
<path d="M0 0 C0.78375 0.639375 1.5675 1.27875 2.375 1.9375 C7.28104619 5.79225058 11.90119444 5.67862432 18 5 C21.02690443 3.18409021 21.02690443 3.18409021 23 1 C23.66 1 24.32 1 25 1 C23.987668 3.93576279 23.03642058 4.97512741 20.4375 6.75 C15.48689171 8.5502212 10.93630182 9.06625485 5.90234375 7.23828125 C3.12420194 5.79501661 1.28798391 4.69116139 0.0625 1.75 C0.041875 1.1725 0.02125 0.595 0 0 Z " fill="#044F1D" transform="translate(31,39)"/>
<path d="M0 0 C3.12707699 2.85515726 3.94053484 4.8743106 4.16796875 9.1796875 C4.17441406 10.39914063 4.18085937 11.61859375 4.1875 12.875 C4.20167969 14.08929688 4.21585938 15.30359375 4.23046875 16.5546875 C4.01047255 19.84344421 3.41715618 22.05365948 2 25 C1.34 25 0.68 25 0 25 C0.165 24.13375 0.33 23.2675 0.5 22.375 C1.51818288 15.29135627 2.15507816 6.89282935 0 0 Z " fill="#64A067" transform="translate(59,26)"/>
<path d="M0 0 C0.33 1.32 0.66 2.64 1 4 C3.97 4 6.94 4 10 4 C10.2493357 5.60115576 10.47378648 7.20620159 10.6875 8.8125 C10.81511719 9.70582031 10.94273438 10.59914063 11.07421875 11.51953125 C11 14 11 14 9.51953125 15.82421875 C9.01808594 16.21222656 8.51664063 16.60023437 8 17 C7.01 16.67 6.02 16.34 5 16 C4.67 15.01 4.34 14.02 4 13 C5.65 12.67 7.3 12.34 9 12 C9 9.69 9 7.38 9 5 C5.37 5 1.74 5 -2 5 C-1.34 3.35 -0.68 1.7 0 0 Z " fill="#1D8439" transform="translate(28,26)"/>
<path d="M0 0 C1.15242188 0.00902344 2.30484375 0.01804687 3.4921875 0.02734375 C4.36101563 0.03894531 5.22984375 0.05054687 6.125 0.0625 C6.125 2.3725 6.125 4.6825 6.125 7.0625 C3.485 7.3925 0.845 7.7225 -1.875 8.0625 C-2.205 7.4025 -2.535 6.7425 -2.875 6.0625 C0.59 5.5675 0.59 5.5675 4.125 5.0625 C4.125 3.7425 4.125 2.4225 4.125 1.0625 C2.55298828 1.2790625 2.55298828 1.2790625 0.94921875 1.5 C-0.42967331 1.68760436 -1.80858034 1.87509861 -3.1875 2.0625 C-4.22293945 2.20558594 -4.22293945 2.20558594 -5.27929688 2.3515625 C-8.17147073 2.74277442 -10.95264977 3.0625 -13.875 3.0625 C-13.545 2.4025 -13.215 1.7425 -12.875 1.0625 C-8.56685156 0.04618605 -4.41108185 -0.04501104 0 0 Z " fill="#918224" transform="translate(30.875,30.9375)"/>
<path d="M0 0 C0.33 2.64 0.66 5.28 1 8 C-0.65 8.33 -2.3 8.66 -4 9 C-5.76462683 5.91190305 -6 4.76687864 -6 1 C-3.92446352 0.4465236 -2.15634036 0 0 0 Z " fill="#0E7930" transform="translate(27,43)"/>
<path d="M0 0 C3.96 0.33 7.92 0.66 12 1 C12.33 1.99 12.66 2.98 13 4 C7.96488101 5.0070238 4.76052962 4.97387813 0 3 C0 2.01 0 1.02 0 0 Z " fill="#AB9B24" transform="translate(13,56)"/>
<path d="M0 0 C1.65 0.33 3.3 0.66 5 1 C1.48177751 5.43601966 -2.75390186 6.52033129 -8 8 C-8.99 7.01 -9.98 6.02 -11 5 C-10.37351562 4.89042969 -9.74703125 4.78085938 -9.1015625 4.66796875 C-7.87566406 4.43013672 -7.87566406 4.43013672 -6.625 4.1875 C-5.81289063 4.03667969 -5.00078125 3.88585937 -4.1640625 3.73046875 C-1.64179359 3.12455058 -1.64179359 3.12455058 0 0 Z " fill="#C2AF24" transform="translate(24,73)"/>
<path d="M0 0 C3.7952131 1.49097658 5.61042731 3.75700849 8 7 C3.73173127 7 3.06117568 6.62386487 0 4 C-0.99 7.465 -0.99 7.465 -2 11 C-2.33 11 -2.66 11 -3 11 C-2.53199289 6.94393835 -2.12046792 3.53411321 0 0 Z " fill="#037299" transform="translate(72,36)"/>
<path d="M0 0 C0.66 0.33 1.32 0.66 2 1 C2 1.66 2 2.32 2 3 C-4.27087737 6.71607548 -8.75460274 7.53449652 -16 7 C-15.67 6.34 -15.34 5.68 -15 5 C-13.14453125 4.7265625 -13.14453125 4.7265625 -10.8125 4.625 C-6.10345789 4.22631113 -3.66744475 2.91514839 0 0 Z " fill="#7D7122" transform="translate(41,81)"/>
<path d="M0 0 C0.81791016 0.23396484 0.81791016 0.23396484 1.65234375 0.47265625 C7.50365352 1.98299433 12.03574987 1.94670637 18 1 C17 3 17 3 15 5 C9.38362313 5.64450226 5.87762205 5.09312618 1 2 C0.67 1.34 0.34 0.68 0 0 Z " fill="#3C8FB6" transform="translate(45,74)"/>
<path d="M0 0 C1.6875 2.3125 1.6875 2.3125 3 5 C2.67 5.99 2.34 6.98 2 8 C0.68 8 -0.64 8 -2 8 C-3.4606285 5.35261084 -4 4.10551666 -4 1 C-2 0 -2 0 0 0 Z " fill="#FD7817" transform="translate(31,54)"/>
<path d="M0 0 C2.375 0.1875 2.375 0.1875 5 1 C6.5 3.25 6.5 3.25 7 6 C5.625 8.8125 5.625 8.8125 4 11 C3.01 10.67 2.02 10.34 1 10 C1.66 9.67 2.32 9.34 3 9 C1.78955868 4.39257135 1.78955868 4.39257135 0 0 Z " fill="#D5C23D" transform="translate(4,66)"/>
<path d="M0 0 C0.66 0 1.32 0 2 0 C2.1875 3.375 2.1875 3.375 2 7 C1.01 7.66 0.02 8.32 -1 9 C-1.33 7.02 -1.66 5.04 -2 3 C-1.34 3 -0.68 3 0 3 C0 2.01 0 1.02 0 0 Z M-6 9 C-4.68 9.33 -3.36 9.66 -2 10 C-2.33 10.99 -2.66 11.98 -3 13 C-3.99 12.34 -4.98 11.68 -6 11 C-6 10.34 -6 9.68 -6 9 Z " fill="#2196C0" transform="translate(74,62)"/>
<path d="M0 0 C0.99 0 1.98 0 3 0 C3 1.98 3 3.96 3 6 C3.66 6 4.32 6 5 6 C5.33 8.31 5.66 10.62 6 13 C4.68 13.33 3.36 13.66 2 14 C2 10.04 2 6.08 2 2 C1.34 2 0.68 2 0 2 C0 1.34 0 0.68 0 0 Z " fill="#A59628" transform="translate(12,62)"/>
<path d="M0 0 C2.0625 0.4375 2.0625 0.4375 4 1 C3.43628586 4.26954202 2.50037734 5.82575883 0 8 C-0.99 7.67 -1.98 7.34 -3 7 C-1.125 1.125 -1.125 1.125 0 0 Z " fill="#F97513" transform="translate(56,54)"/>
<path d="M0 0 C0.66 0 1.32 0 2 0 C2 0.66 2 1.32 2 2 C2.99 1.67 3.98 1.34 5 1 C4.67 3.64 4.34 6.28 4 9 C3.67 8.34 3.34 7.68 3 7 C2.34 7 1.68 7 1 7 C0.67 7.99 0.34 8.98 0 10 C0 6.7 0 3.4 0 0 Z " fill="#12772F" transform="translate(64,33)"/>
<path d="M0 0 C0.33 0.66 0.66 1.32 1 2 C3.31 2 5.62 2 8 2 C8 3.32 8 4.64 8 6 C5.36 6 2.72 6 0 6 C0 4.02 0 2.04 0 0 Z " fill="#327A9C" transform="translate(51,32)"/>
<path d="M0 0 C1.32 0.33 2.64 0.66 4 1 C3.77169299 2.62818946 3.51656424 4.2526349 3.25 5.875 C3.11078125 6.77992187 2.9715625 7.68484375 2.828125 8.6171875 C2 11 2 11 -0.078125 12.3203125 C-0.71234375 12.54460937 -1.3465625 12.76890625 -2 13 C-1.855625 12.39671875 -1.71125 11.7934375 -1.5625 11.171875 C-1.2840625 9.97304687 -1.2840625 9.97304687 -1 8.75 C-0.814375 7.96109375 -0.62875 7.1721875 -0.4375 6.359375 C0.12154828 3.74443998 0.12154828 3.74443998 0 0 Z " fill="#026D98" transform="translate(78,62)"/>
<path d="M0 0 C0.33 0.66 0.66 1.32 1 2 C0.0625 4.125 0.0625 4.125 -1 6 C2.87797662 6.43386092 2.87797662 6.43386092 4.75 4.5 C5.1625 4.005 5.575 3.51 6 3 C5.74438677 5.3431213 5.40729228 7.67843403 5 10 C4.01 10.495 4.01 10.495 3 11 C3 10.34 3 9.68 3 9 C1.35 8.67 -0.3 8.34 -2 8 C-1.125 1.125 -1.125 1.125 0 0 Z " fill="#81B5C1" transform="translate(54,55)"/>
<path d="M0 0 C2.64 0 5.28 0 8 0 C8 1.32 8 2.64 8 4 C5.03 4 2.06 4 -1 4 C-0.67 2.68 -0.34 1.36 0 0 Z " fill="#F9700E" transform="translate(40,32)"/>
<path d="M0 0 C0.66 0 1.32 0 2 0 C2.96142994 3.67091434 3.15459967 5.58502193 1.8125 9.1875 C0.07713224 11.88031204 -1.30506782 13.32728348 -4 15 C-3.690625 14.4225 -3.38125 13.845 -3.0625 13.25 C-1.05593877 9.00081152 -0.62421738 4.63704343 0 0 Z " fill="#0C6126" transform="translate(52,12)"/>
<path d="M0 0 C0 0.66 0 1.32 0 2 C-1.2375 2.061875 -2.475 2.12375 -3.75 2.1875 C-7.29136227 2.60045037 -7.80785592 2.79268665 -10.375 5.5625 C-10.91125 6.366875 -11.4475 7.17125 -12 8 C-12.66 8 -13.32 8 -14 8 C-13.12269491 5.29497597 -12.28331029 3.31599994 -10.375 1.1875 C-6.84016181 -0.5799191 -3.92581331 -0.19629067 0 0 Z " fill="#1A5425" transform="translate(47,0)"/>
<path d="M0 0 C0.33 0 0.66 0 1 0 C1.11269443 6.1105424 0.89604368 11.95170514 0 18 C-0.99 17.67 -1.98 17.34 -3 17 C-2.68853528 15.10399631 -2.37578283 13.20820413 -2.0625 11.3125 C-1.88847656 10.25675781 -1.71445312 9.20101562 -1.53515625 8.11328125 C-1.06832879 5.39750396 -0.55577384 2.69875765 0 0 Z " fill="#07551A" transform="translate(60,34)"/>
<path d="M0 0 C1.32 0 2.64 0 4 0 C4 1.65 4 3.3 4 5 C1.625 5.625 1.625 5.625 -1 6 C-1.66 5.34 -2.32 4.68 -3 4 C-1.75 2 -1.75 2 0 0 Z " fill="#827723" transform="translate(50,67)"/>
<path d="M0 0 C0 0.66 0 1.32 0 2 C-2.99480917 2.8723412 -5.63575911 3.10829766 -8.75 3.0625 C-9.54921875 3.05347656 -10.3484375 3.04445312 -11.171875 3.03515625 C-11.77515625 3.02355469 -12.3784375 3.01195312 -13 3 C-9.21656826 -0.94792877 -5.07874402 -0.29300446 0 0 Z " fill="#CBBD72" transform="translate(35,32)"/>
<path d="M0 0 C-0.50740462 4.39750672 -3.08293314 6.86948922 -6 10 C-6.66 10 -7.32 10 -8 10 C-6.83833955 5.74057835 -5.25202969 0 0 0 Z " fill="#257034" transform="translate(52,19)"/>
<path d="M0 0 C0.99 0 1.98 0 3 0 C4.35439668 2.70879335 4.06501451 5.00933268 4 8 C2.68 7.67 1.36 7.34 0 7 C0 4.69 0 2.38 0 0 Z " fill="#EEE184" transform="translate(3,67)"/>
<path d="M0 0 C1.98 0.99 1.98 0.99 4 2 C4 4.31 4 6.62 4 9 C3.01 9.495 3.01 9.495 2 10 C0.39644899 6.49223216 -0.22036864 3.85645121 0 0 Z " fill="#8B8023" transform="translate(17,62)"/>
<path d="M0 0 C1.26776456 3.80329367 0.3809651 5.31742641 -1 9 C-1.33 9.99 -1.66 10.98 -2 12 C-3.65 12.33 -5.3 12.66 -7 13 C-6.66226562 12.48050781 -6.32453125 11.96101563 -5.9765625 11.42578125 C-3.60108299 7.71151993 -1.44237185 4.19599085 0 0 Z " fill="#A08F14" transform="translate(24,65)"/>
<path d="M0 0 C0.66 0 1.32 0 2 0 C2.19335938 0.55429687 2.38671875 1.10859375 2.5859375 1.6796875 C2.84632812 2.40414062 3.10671875 3.12859375 3.375 3.875 C3.63023438 4.59429687 3.88546875 5.31359375 4.1484375 6.0546875 C4.93877783 8.18157994 4.93877783 8.18157994 7 10 C5.68 10 4.36 10 3 10 C2.7525 9.195625 2.505 8.39125 2.25 7.5625 C1.27761141 4.828919 1.27761141 4.828919 -1.125 4.1875 C-1.74375 4.125625 -2.3625 4.06375 -3 4 C-1.625 2 -1.625 2 0 0 Z " fill="#2E5A1F" transform="translate(19,44)"/>
<path d="M0 0 C3 3 3 3 3.3125 5.5 C3 8 3 8 1 11 C-0.32 10.67 -1.64 10.34 -3 10 C-2.34 10 -1.68 10 -1 10 C-0.67 6.7 -0.34 3.4 0 0 Z " fill="#06547D" transform="translate(82,65)"/>
<path d="M0 0 C-2.43902524 2.43902524 -4.86352319 3.59178592 -8 5 C-8.99 5 -9.98 5 -11 5 C-11.33 4.01 -11.66 3.02 -12 2 C-7.8803623 0.70756464 -4.33168317 -0.26252625 0 0 Z " fill="#BDAC28" transform="translate(29,35)"/>
<path d="M0 0 C0.66 1.32 1.32 2.64 2 4 C-0 7 -2 10 -4 13 C-3.40546697 3.40546697 -3.40546697 3.40546697 0 0 Z " fill="#89B689" transform="translate(23,16)"/>
<path d="M0 0 C1.32 0.66 2.64 1.32 4 2 C2.68 2 1.36 2 0 2 C-0.2475 2.61875 -0.495 3.2375 -0.75 3.875 C-2.20628639 6.35068687 -3.37812506 6.95125002 -6 8 C-5.65120368 4.74456771 -4.97866739 3.98126893 -2.4375 1.75 C-1.633125 1.1725 -0.82875 0.595 0 0 Z " fill="#786C1B" transform="translate(50,62)"/>
<path d="M0 0 C0.33 0 0.66 0 1 0 C1 2.97 1 5.94 1 9 C-0.32 8.67 -1.64 8.34 -3 8 C-3 6.68 -3 5.36 -3 4 C-2.01 4 -1.02 4 0 4 C0 2.68 0 1.36 0 0 Z " fill="#AD9E26" transform="translate(40,55)"/>
<path d="M0 0 C0.66 0 1.32 0 2 0 C2 1.98 2 3.96 2 6 C1.4225 6.268125 0.845 6.53625 0.25 6.8125 C-2.0325868 8.01719859 -3.9737942 9.40798115 -6 11 C-4.50120132 7.88711043 -2.78832621 4.95462591 -1 2 C-0.67 1.34 -0.34 0.68 0 0 Z " fill="#227434" transform="translate(54,18)"/>
<path d="M0 0 C1.98 0.66 3.96 1.32 6 2 C6 2.99 6 3.98 6 5 C5.01 5.66 4.02 6.32 3 7 C0 2.25 0 2.25 0 0 Z " fill="#54AB5C" transform="translate(53,10)"/>
<path d="M0 0 C0.66 0.33 1.32 0.66 2 1 C2.625 3.5625 2.625 3.5625 3 6 C2.01 6.495 2.01 6.495 1 7 C-1.125 6.0625 -1.125 6.0625 -3 5 C-1.125 1.125 -1.125 1.125 0 0 Z " fill="#12AADA" transform="translate(59,64)"/>
<path d="M0 0 C2 1 2 1 3 3 C3.99 3.33 4.98 3.66 6 4 C6 4.66 6 5.32 6 6 C3.03 5.505 3.03 5.505 0 5 C-0.33 5.99 -0.66 6.98 -1 8 C-1.125 2.25 -1.125 2.25 0 0 Z " fill="#D1C338" transform="translate(15,45)"/>
<path d="M0 0 C1.65 1.32 3.3 2.64 5 4 C5 3.34 5 2.68 5 2 C5.99 2.33 6.98 2.66 8 3 C8 4.65 8 6.3 8 8 C4.63820226 6.55922954 2.40843732 4.75249979 0 2 C0 1.34 0 0.68 0 0 Z " fill="#217033" transform="translate(34,22)"/>
<path d="M0 0 C0.66 0.66 1.32 1.32 2 2 C0.35 3.98 -1.3 5.96 -3 8 C-4.65 7.67 -6.3 7.34 -8 7 C-8 6.34 -8 5.68 -8 5 C-6.865625 4.731875 -5.73125 4.46375 -4.5625 4.1875 C-3.386875 3.795625 -2.21125 3.40375 -1 3 C-0.67 2.01 -0.34 1.02 0 0 Z " fill="#49A552" transform="translate(44,7)"/>
<path d="M0 0 C0.680625 0.309375 1.36125 0.61875 2.0625 0.9375 C5.36965912 2.13370649 8.51545878 2.59005397 12 3 C12 3.66 12 4.32 12 5 C7.12335991 5.34833144 4.22949995 4.41685712 0 2 C0 1.34 0 0.68 0 0 Z " fill="#044F64" transform="translate(44,70)"/>
<path d="M0 0 C-0.639375 0.309375 -1.27875 0.61875 -1.9375 0.9375 C-3.93610821 1.8345163 -3.93610821 1.8345163 -5 3 C-7.67058851 3.14115161 -10.32432238 3.04247107 -13 3 C-4.20833333 -1.55864198 -4.20833333 -1.55864198 0 0 Z " fill="#167DA4" transform="translate(74,58)"/>
<path d="M0 0 C2.97 0.495 2.97 0.495 6 1 C5 3 5 3 3 4 C3.33 4.66 3.66 5.32 4 6 C1.03 5.505 1.03 5.505 -2 5 C-1.34 4.67 -0.68 4.34 0 4 C0 2.68 0 1.36 0 0 Z " fill="#F5E224" transform="translate(15,50)"/>
<path d="M0 0 C0.66 0 1.32 0 2 0 C2 0.99 2 1.98 2 3 C3.32 2.34 4.64 1.68 6 1 C6.66 1.99 7.32 2.98 8 4 C6.02 4.99 6.02 4.99 4 6 C2.35 4.68 0.7 3.36 -1 2 C-0.67 1.34 -0.34 0.68 0 0 Z " fill="#DCC821" transform="translate(30,49)"/>
<path d="M0 0 C0.33 1.32 0.66 2.64 1 4 C3.97 4 6.94 4 10 4 C10 5.65 10 7.3 10 9 C9.67 7.68 9.34 6.36 9 5 C5.37 5 1.74 5 -2 5 C-1.34 3.35 -0.68 1.7 0 0 Z " fill="#44641F" transform="translate(28,26)"/>
<path d="M0 0 C2.0625 0.4375 2.0625 0.4375 4 1 C3.34 2.65 2.68 4.3 2 6 C1.01 6 0.02 6 -1 6 C-1.042721 4.33388095 -1.04063832 2.66617115 -1 1 C-0.67 0.67 -0.34 0.34 0 0 Z " fill="#1F8C3F" transform="translate(21,25)"/>
<path d="M0 0 C2 2 2 2 2.1953125 4.3828125 C2.17210938 5.28773437 2.14890625 6.19265625 2.125 7.125 C2.10695313 8.03507812 2.08890625 8.94515625 2.0703125 9.8828125 C2.03550781 10.93082031 2.03550781 10.93082031 2 12 C-0.25900493 9.74099507 -0.34458029 9.05816925 -0.6875 6 C-0.77386719 5.29875 -0.86023438 4.5975 -0.94921875 3.875 C-1 2 -1 2 0 0 Z " fill="#35883D" transform="translate(66,19)"/>
<path d="M0 0 C0.33 0 0.66 0 1 0 C1.27429625 5.39449293 1.36055646 8.51925805 -2 13 C-2.66 12.67 -3.32 12.34 -4 12 C-2.125 8.125 -2.125 8.125 -1 7 C-0.63239269 4.67182036 -0.29758419 2.3381615 0 0 Z " fill="#0886B2" transform="translate(76,62)"/>
<path d="M0 0 C0.763125 0.20625 1.52625 0.4125 2.3125 0.625 C1.125 2.125 1.125 2.125 -0.6875 3.625 C-3.375 3.8125 -3.375 3.8125 -5.6875 3.625 C-5.6875 2.965 -5.6875 2.305 -5.6875 1.625 C-2.6875 -0.375 -2.6875 -0.375 0 0 Z " fill="#B6D6AE" transform="translate(43.6875,4.375)"/>
<path d="M0 0 C2.76223278 2.76223278 2.57856291 5.20706617 3 9 C1 8 1 8 0 5 C-0.99 4.34 -1.98 3.68 -3 3 C-2.01 2.01 -1.02 1.02 0 0 Z " fill="#C7B41E" transform="translate(8,62)"/>
<path d="M0 0 C-1.20703125 1.51953125 -1.20703125 1.51953125 -3 3 C-5.26171875 3.07421875 -5.26171875 3.07421875 -7.6875 2.6875 C-8.89986328 2.50767578 -8.89986328 2.50767578 -10.13671875 2.32421875 C-10.75160156 2.21722656 -11.36648437 2.11023438 -12 2 C-12 1.67 -12 1.34 -12 1 C-7.93631321 0.22596442 -4.13574827 -0.0984702 0 0 Z " fill="#008DB8" transform="translate(62,74)"/>
<path d="M0 0 C1.32 0 2.64 0 4 0 C4 0.99 4 1.98 4 3 C2.02 3.66 0.04 4.32 -2 5 C-1.34 3.35 -0.68 1.7 0 0 Z " fill="#A2C6DE" transform="translate(70,62)"/>
<path d="M0 0 C2.31 0.33 4.62 0.66 7 1 C6.34 2.32 5.68 3.64 5 5 C3.35 3.35 1.7 1.7 0 0 Z " fill="#E6E7E8" transform="translate(61,61)"/>
<path d="M0 0 C0.33 0.66 0.66 1.32 1 2 C2.32 1.67 3.64 1.34 5 1 C5 1.99 5 2.98 5 4 C2.5 5.6875 2.5 5.6875 0 7 C0 4.69 0 2.38 0 0 Z " fill="#21ACD8" transform="translate(47,58)"/>
<path d="M0 0 C0.66 0.33 1.32 0.66 2 1 C0.625 2.5 0.625 2.5 -1 4 C-1.66 4 -2.32 4 -3 4 C-3.33 4.99 -3.66 5.98 -4 7 C-4.66 6.67 -5.32 6.34 -6 6 C-4.98545548 3.4636387 -4.3146444 2.20648539 -2 0.6875 C-1.34 0.460625 -0.68 0.23375 0 0 Z " fill="#AC9A27" transform="translate(22,40)"/>
<path d="M0 0 C0.33 0.66 0.66 1.32 1 2 C-0.98 2.66 -2.96 3.32 -5 4 C-5.99 3.01 -6.98 2.02 -8 1 C-5.07175348 0.02391783 -3.04386724 -0.08226668 0 0 Z " fill="#B0A02A" transform="translate(21,77)"/>
<path d="M0 0 C-1.125 1.5 -1.125 1.5 -3 3 C-6.1875 3.1875 -6.1875 3.1875 -9 3 C-9 2.34 -9 1.68 -9 1 C-2.25 -1.125 -2.25 -1.125 0 0 Z " fill="#5FA6CA" transform="translate(63,76)"/>
<path d="M0 0 C2.72426311 2.35277269 3.8141763 4.62496331 5 8 C3.35 7.67 1.7 7.34 0 7 C0 4.69 0 2.38 0 0 Z " fill="#0B81AF" transform="translate(62,65)"/>
<path d="M0 0 C-0.99 1.98 -1.98 3.96 -3 6 C-4 4 -5 2 -6 0 C-3.50907189 -1.24546405 -2.58919267 -0.7767578 0 0 Z " fill="#CCC7BA" transform="translate(26,61)"/>
<path d="M0 0 C0.33 0.99 0.66 1.98 1 3 C1.66 3 2.32 3 3 3 C3.33 5.31 3.66 7.62 4 10 C2 7 2 7 2 5 C1.01 5 0.02 5 -1 5 C-0.67 3.35 -0.34 1.7 0 0 Z " fill="#004D6B" transform="translate(68,44)"/>
<path d="M0 0 C1.32 0 2.64 0 4 0 C3.67 1.98 3.34 3.96 3 6 C4.32 6.33 5.64 6.66 7 7 C5.35 7 3.7 7 2 7 C1.34 4.69 0.68 2.38 0 0 Z " fill="#779A80" transform="translate(41,24)"/>
<path d="M0 0 C0.66 0.33 1.32 0.66 2 1 C2.625 4.0625 2.625 4.0625 3 7 C1.68 7.33 0.36 7.66 -1 8 C-0.67 5.36 -0.34 2.72 0 0 Z " fill="#A29321" transform="translate(27,62)"/>
<path d="M0 0 C1.32 0 2.64 0 4 0 C4 1.98 4 3.96 4 6 C2.35 4.68 0.7 3.36 -1 2 C-0.67 1.34 -0.34 0.68 0 0 Z " fill="#196F93" transform="translate(66,49)"/>
<path d="M0 0 C0.99 0.33 1.98 0.66 3 1 C1.625 3.5 1.625 3.5 0 6 C-0.66 6 -1.32 6 -2 6 C-1.125 1.125 -1.125 1.125 0 0 Z " fill="#4EAB59" transform="translate(32,23)"/>
<path d="M0 0 C2.46800047 1.15173355 4.04783565 2.04783565 6 4 C5.67 4.99 5.34 5.98 5 7 C3.29115995 5.37660195 1.62553283 3.70680947 0 2 C0 1.34 0 0.68 0 0 Z " fill="#57AC5D" transform="translate(34,20)"/>
</svg>
