<svg xmlns="http://www.w3.org/2000/svg" width="41.333" height="40" viewBox="0 0 41.333 40">
  <g id="Group_165658" data-name="Group 165658" transform="translate(-1 -3)">
    <path id="Path_237489" data-name="Path 237489" d="M1,57H42.333v4H1Z" transform="translate(0 -18)" fill="#aec4cc"/>
    <path id="Path_237490" data-name="Path 237490" d="M1,60H42.333v2H1Z" transform="translate(0 -19)" fill="#7f99a5"/>
    <g id="Group_165655" data-name="Group 165655" transform="translate(11 3.667)">
      <path id="Path_237491" data-name="Path 237491" d="M17.333,11.836V10.667a.667.667,0,1,0-1.333,0v2.171l.333-.1Zm6.343-5.074L24,6.956V4.667a.667.667,0,1,0-1.333,0v2.37l.221-.2a.667.667,0,0,1,.789-.075Zm6.99,3.675V8.667a.667.667,0,1,0-1.333,0v1.489l.757.454Zm6.667-2.261V6.667a.667.667,0,1,0-1.333,0V8.837l.4-.12Z" transform="translate(-16 -4)" fill="#73d7f6"/>
    </g>
    <path id="Path_237492" data-name="Path 237492" d="M39.2,6.726,35.138,9.085l-.933.541-.4.12-5.333,1.6-.576.173-.757-.454L21.8,7.865l-.323-.194a.667.667,0,0,0-.789.076l-.221.2-5.333,4.8-1,.9-.333.1L9.413,15.064A1.98,1.98,0,0,1,9.8,16.242c0,.034-.009.067-.01.1l5.01-1.5,6.412-5.771,6.244,3.747a.667.667,0,0,0,.533.067l6.744-2.023,5.207-3.016A1.991,1.991,0,0,1,39.2,6.726Z" transform="translate(-2.804 -1.242)" fill="#73d7f6"/>
    <path id="Path_237493" data-name="Path 237493" d="M7.6,13.822A2,2,0,1,0,7.986,15.1c0-.034.01-.067.01-.1A1.98,1.98,0,0,0,7.6,13.822ZM39.329,3a2,2,0,0,0-2,2,1.963,1.963,0,0,0,.067.484A2,2,0,1,0,39.329,3Z" transform="translate(-0.996 0)" fill="#73d7f6"/>
    <path id="Path_237494" data-name="Path 237494" d="M17.333,21.667a.667.667,0,1,0-1.333,0V25h1.333Zm13.333-2a.667.667,0,1,0-1.333,0V23h1.333Z" transform="translate(-5 -5.333)" fill="#e55353"/>
    <path id="Path_237495" data-name="Path 237495" d="M7.333,23.333a.667.667,0,0,0-1.333,0V26H7.333Zm13.333-8.667a.667.667,0,1,0-1.333,0v2.667h1.333Z" transform="translate(-1.667 -3.667)" fill="#5dc169"/>
    <path id="Path_237496" data-name="Path 237496" d="M47.333,15.667a.667.667,0,1,0-1.333,0v2.667h1.333Z" transform="translate(-15 -4)" fill="#e55353"/>
    <path id="Path_237497" data-name="Path 237497" d="M57.333,12.667a.667.667,0,1,0-1.333,0v2.667h1.333Z" transform="translate(-18.333 -3)" fill="#5dc169"/>
    <path id="Path_237498" data-name="Path 237498" d="M15.333,27H14v6h4V27H15.333Zm13.333-2H27.333v8h4V25H28.667Z" transform="translate(-4.333 -7.333)" fill="#e57676"/>
    <path id="Path_237499" data-name="Path 237499" d="M5.333,27.667H4v6H8v-6H5.333ZM18.667,19H17.333v8h4V19H18.667Z" transform="translate(-1 -5.333)" fill="#77d888"/>
    <path id="Path_237500" data-name="Path 237500" d="M45.333,20H44v8h4V20H45.333Z" transform="translate(-14.333 -5.667)" fill="#e57676"/>
    <path id="Path_237501" data-name="Path 237501" d="M56.667,17H54v6h4V17Z" transform="translate(-17.667 -4.667)" fill="#77d888"/>
    <path id="Path_237502" data-name="Path 237502" d="M4,41v5.333H5.333V49a.667.667,0,1,0,1.333,0V46.333H8V41Z" transform="translate(-1 -12.667)" fill="#5dc169"/>
    <path id="Path_237503" data-name="Path 237503" d="M14,37v5.333h1.333v3.333a.667.667,0,0,0,1.333,0V42.333H18V37Z" transform="translate(-4.333 -11.333)" fill="#e55353"/>
    <path id="Path_237504" data-name="Path 237504" d="M24,31v5.333h1.333V39a.667.667,0,1,0,1.333,0V36.333H28V31Z" transform="translate(-7.667 -9.333)" fill="#5dc169"/>
    <path id="Path_237505" data-name="Path 237505" d="M34,35.333v5.333h1.333V44a.667.667,0,1,0,1.333,0V40.667H38V35.333ZM40.667,32v5.333H42v3.333a.667.667,0,0,0,1.333,0V37.333h1.333V32Z" transform="translate(-11 -9.667)" fill="#e55353"/>
    <path id="Path_237506" data-name="Path 237506" d="M54,26v5.333h1.333V36a.667.667,0,1,0,1.333,0V31.333H58V26Z" transform="translate(-17.667 -7.667)" fill="#5dc169"/>
  </g>
</svg>
