<svg xmlns="http://www.w3.org/2000/svg" width="35.465" height="35.465" viewBox="0 0 35.465 35.465">
  <g id="Group_165802" data-name="Group 165802" transform="translate(-9 -9)">
    <path id="Path_238116" data-name="Path 238116" d="M32.372,20.718a5.859,5.859,0,1,0-5.86-5.859A5.866,5.866,0,0,0,32.372,20.718Zm0-10.713a4.854,4.854,0,1,1-4.854,4.854A4.86,4.86,0,0,1,32.372,10.005ZM42.831,28.819a12.167,12.167,0,0,0-4.3-4.332.5.5,0,0,0-.677.156l-3.119,4.75-.416-3.1a1.356,1.356,0,0,0,.269-.474l.4-1.243a1.354,1.354,0,0,0-1.29-1.775h-2.67a1.354,1.354,0,0,0-1.29,1.775l.4,1.243a1.356,1.356,0,0,0,.269.474L30,29.394l-3.119-4.75a.5.5,0,0,0-.677-.156,12.064,12.064,0,0,0-3.261,2.828,7.913,7.913,0,1,0-11.772,10.57L9.14,41.412a.5.5,0,0,0,.535.744l2.57-.519.836,2.485a.5.5,0,0,0,.912.091l2.243-3.886c.225.019.452.03.682.03s.457-.01.682-.03l2.243,3.886a.5.5,0,0,0,.912-.091l.836-2.485,2.57.519a.5.5,0,0,0,.535-.744l-1.732-3a20.782,20.782,0,0,0,8.711,1.777q.355.008.707.008A21.772,21.772,0,0,0,41.8,38.4c2.2-1.146,2.665-2.541,2.665-3.51A12.084,12.084,0,0,0,42.831,28.819Zm-12.079-4.87a.348.348,0,0,1,.285-.144h2.67a.349.349,0,0,1,.334.46l-.4,1.243a.342.342,0,0,1-.334.243H31.441a.342.342,0,0,1-.334-.243l-.4-1.243a.348.348,0,0,1,.049-.316ZM33.9,30.677,32.372,33l-1.525-2.323.526-3.924.068,0H33.3l.068,0ZM13.678,42.747l-.622-1.85a.5.5,0,0,0-.576-.332l-1.913.386,1.365-2.365a7.894,7.894,0,0,0,3.238,1.577Zm9.59-1.8-1.913-.386a.5.5,0,0,0-.576.332l-.622,1.85-1.492-2.584A7.894,7.894,0,0,0,21.9,38.586Zm-6.351-1.6a6.912,6.912,0,1,1,6.912-6.912,6.92,6.92,0,0,1-6.912,6.912Zm24.419-1.842c-2.175,1.132-5.779,1.757-9.641,1.673a19.223,19.223,0,0,1-8.574-1.831,7.9,7.9,0,0,0,.448-9.2,11.055,11.055,0,0,1,2.745-2.546l5.638,8.585a.5.5,0,0,0,.84,0l5.638-8.585a11.15,11.15,0,0,1,5.03,9.287c0,1-.715,1.885-2.124,2.618ZM16.917,27.057A5.383,5.383,0,1,0,22.3,32.44,5.389,5.389,0,0,0,16.917,27.057Zm0,9.761A4.378,4.378,0,1,1,21.3,32.44,4.383,4.383,0,0,1,16.917,36.818Zm3.07-5.555a.5.5,0,0,0-.447-.346l-1.576-.1-.579-1.469a.5.5,0,0,0-.935,0l-.579,1.469-1.576.1a.5.5,0,0,0-.289.889l1.219,1-.4,1.529a.5.5,0,0,0,.757.55l1.332-.849,1.332.849a.5.5,0,0,0,.757-.55l-.4-1.529,1.219-1a.5.5,0,0,0,.158-.543Zm-2.263.976a.5.5,0,0,0-.167.514l.156.6-.526-.335a.5.5,0,0,0-.54,0l-.526.335.156-.6a.5.5,0,0,0-.167-.514l-.481-.4.622-.038a.5.5,0,0,0,.437-.317l.228-.58.228.58a.5.5,0,0,0,.437.317l.622.038Z" fill="#23aabc"/>
  </g>
</svg>
