<svg xmlns="http://www.w3.org/2000/svg" width="48" height="48" viewBox="0 0 48 48">
  <g id="Group_166293" data-name="Group 166293" transform="translate(0 0)">
    <path id="Path_239658" data-name="Path 239658" d="M46.428,32.059A2.471,2.471,0,0,0,48,29.758V23.493a2.557,2.557,0,0,0-2.541-2.541H43.432l1.026-1.324a2.55,2.55,0,0,0-.215-3.352l-4.428-4.428a2.479,2.479,0,0,0-2.739-.521,2.526,2.526,0,0,1-1.978.041A2.591,2.591,0,0,1,33.658,10a2.632,2.632,0,0,1,0-2.094,2.466,2.466,0,0,0-.521-2.74L28.709.739a2.542,2.542,0,0,0-3.583,0L4.908,20.951H2.541A2.541,2.541,0,0,0,0,23.493v6.266a2.466,2.466,0,0,0,1.572,2.309A2.6,2.6,0,0,1,3.046,35.42a2.572,2.572,0,0,1-1.481,1.473A2.47,2.47,0,0,0,0,39.2v6.257A2.547,2.547,0,0,0,2.541,48H45.459A2.552,2.552,0,0,0,48,45.459V39.194a2.479,2.479,0,0,0-1.572-2.3,2.6,2.6,0,0,1,0-4.834M26.019,1.633a1.269,1.269,0,0,1,1.8,0l4.428,4.428a1.2,1.2,0,0,1,.265,1.324,3.856,3.856,0,0,0,5.081,5.1,1.2,1.2,0,0,1,1.341.257l4.419,4.428a1.269,1.269,0,0,1,0,1.8l-1.978,1.986h-8.3L19.887,7.766ZM18.985,8.66l12.3,12.291H6.7ZM36.513,46.734H2.541a1.273,1.273,0,0,1-1.274-1.266V39.194A1.184,1.184,0,0,1,2,38.085a3.854,3.854,0,0,0,2.152-2.053,3.792,3.792,0,0,0,.074-2.947,3.883,3.883,0,0,0-2.21-2.2,1.211,1.211,0,0,1-.753-1.142v-6.25a1.284,1.284,0,0,1,1.266-1.275H36.513Zm7.258-10.868a3.883,3.883,0,0,0,2.2,2.21,1.2,1.2,0,0,1,.761,1.134v6.249a1.275,1.275,0,0,1-1.274,1.275h-7.68V22.218h7.68a1.275,1.275,0,0,1,1.274,1.275V29.75A1.215,1.215,0,0,1,46,30.876a3.845,3.845,0,0,0-2.226,4.991" fill="#fff"/>
    <path id="Path_239659" data-name="Path 239659" d="M12.35,46.475H32.6V45.209H12.35Zm0-5.844H32.6V39.366H12.35Zm0-5.844H32.6V33.522H12.35Z" transform="translate(-2.129 -5.776)" fill="#fff"/>
  </g>
</svg>
