<svg xmlns="http://www.w3.org/2000/svg" xmlns:xlink="http://www.w3.org/1999/xlink" version="1.1" id="Layer_1" x="0px" y="0px" viewBox="0 0 512 512" style="enable-background:new 0 0 512 512;" xml:space="preserve">
<circle style="fill: rgb(17, 67, 121);" cx="256" cy="256" r="256"/>
<path style="fill: rgb(15, 45, 78);" d="M498.46,338.115L314.222,153.869l-8.422-8.415c-12.733-10.77-29.179-17.262-47.13-17.262  c-40.292,0-73.027,32.686-73.027,73.021v31.496h-9.615c-3.072,0-5.55,2.476-5.55,5.55v23.588h-5.384v15.639l5.384,5.381v17.564  h-5.384v15.598l5.384,5.381v17.564h-5.384v15.636l5.384,5.384v18.25c0,1.326,0.468,2.516,1.239,3.461l0.978,0.983  c0.09,0.044,0.131,0.084,0.215,0.172l125.555,125.563C392.2,492.769,468.634,426.214,498.46,338.115z"/>
<rect x="179.302" y="268.083" style="fill:#283A4D;" width="158.771" height="80.3"/>
<g>
	<path style="fill: rgb(24, 179, 92);" d="M170.473,262.533c0,3.059,2.506,5.563,5.555,5.563h165.325c3.062,0,5.548-2.504,5.548-5.563v-24.279   c0-3.059-2.486-5.555-5.548-5.555H176.028c-3.046,0-5.555,2.496-5.555,5.555V262.533z"/>
	<path style="fill: rgb(24, 179, 92);" d="M170.473,301.094c0,3.059,2.506,5.568,5.555,5.568h165.325c3.062,0,5.548-2.506,5.548-5.568v-24.276   c0-3.054-2.486-5.563-5.548-5.563H176.028c-3.046,0-5.555,2.506-5.555,5.563V301.094z"/>
	<path style="fill: rgb(24, 179, 92);" d="M170.473,339.661c0,3.067,2.506,5.565,5.555,5.565h165.325c3.062,0,5.548-2.499,5.548-5.565v-24.274   c0-3.059-2.486-5.56-5.548-5.56H176.028c-3.046,0-5.555,2.501-5.555,5.56V339.661z"/>
	<path style="&#10;    fill: rgb(24, 179, 92);&#10;" d="M170.473,378.235c0,3.057,2.506,5.558,5.555,5.558h165.325c3.062,0,5.548-2.501,5.548-5.558v-24.287   c0-3.049-2.486-5.553-5.548-5.553H176.028c-3.046,0-5.555,2.504-5.555,5.553V378.235z"/>
</g>
<path style="fill:#F2F9FF;" d="M331.702,201.208v31.488h-11.694v-29.629c0-33.874-27.453-61.33-61.312-61.33  c-33.869,0-61.322,27.453-61.322,61.33v29.632h-11.686v-31.488c0-40.323,32.694-73.001,73.009-73.001  C299.003,128.207,331.702,160.886,331.702,201.208z"/>
<path style="fill:#E1EFFA;" d="M320.008,203.067v29.632h-11.684v-31.488c0-27.372-22.264-49.644-49.628-49.644  c-27.372,0-49.644,22.269-49.644,49.644v31.488h-11.681v-29.632c0-33.874,27.453-61.33,61.322-61.33  C292.554,141.737,320.008,169.19,320.008,203.067z"/>
<rect x="165.094" y="261.862" style="fill:#5D6D7E;" width="28.416" height="15.629"/>
<rect x="179.302" y="261.862" style="fill:#34495E;" width="14.208" height="15.629"/>
<rect x="165.094" y="300.416" style="fill:#5D6D7E;" width="28.416" height="15.624"/>
<rect x="179.302" y="300.416" style="fill:#34495E;" width="14.208" height="15.624"/>
<rect x="165.094" y="338.995" style="fill:#5D6D7E;" width="28.416" height="15.624"/>
<rect x="179.302" y="338.995" style="fill:#34495E;" width="14.208" height="15.624"/>
<g>
</g>
<g>
</g>
<g>
</g>
<g>
</g>
<g>
</g>
<g>
</g>
<g>
</g>
<g>
</g>
<g>
</g>
<g>
</g>
<g>
</g>
<g>
</g>
<g>
</g>
<g>
</g>
<g>
</g>
</svg>