<svg xmlns="http://www.w3.org/2000/svg" width="80" height="80" viewBox="0 0 80 80">
  <g id="Group_163756" data-name="Group 163756" transform="translate(-3 -3)">
    <g id="Group_163742" data-name="Group 163742" transform="translate(3 3)">
      <path id="Path_234698" data-name="Path 234698" d="M39.923,12.231V30.692a9.172,9.172,0,0,1-1.354,4.8,9.268,9.268,0,0,1-7.877,4.431H12.231A9.258,9.258,0,0,1,3,30.692V12.231A9.268,9.268,0,0,1,7.431,4.354,9.172,9.172,0,0,1,12.231,3H30.692A9.258,9.258,0,0,1,39.923,12.231Zm43.077,0V30.692a9.172,9.172,0,0,1-1.354,4.8,9.268,9.268,0,0,1-7.877,4.431H55.308a9.258,9.258,0,0,1-9.231-9.231V12.231a9.268,9.268,0,0,1,4.431-7.877A9.172,9.172,0,0,1,55.308,3H73.769A9.258,9.258,0,0,1,83,12.231ZM39.923,55.308V73.769a9.172,9.172,0,0,1-1.354,4.8A9.268,9.268,0,0,1,30.692,83H12.231A9.258,9.258,0,0,1,3,73.769V55.308a9.268,9.268,0,0,1,4.431-7.877,9.172,9.172,0,0,1,4.8-1.354H30.692A9.258,9.258,0,0,1,39.923,55.308Z" transform="translate(-3 -3)" fill="#156cdd"/>
    </g>
    <path id="Path_234699" data-name="Path 234699" d="M53.923,26.231V44.692a9.172,9.172,0,0,1-1.354,4.8,9.268,9.268,0,0,1-7.877,4.431H26.231A9.258,9.258,0,0,1,17,44.692V26.231a9.268,9.268,0,0,1,4.431-7.877A9.172,9.172,0,0,1,26.231,17H44.692a9.258,9.258,0,0,1,9.231,9.231Z" transform="translate(29.077 29.077)" fill="#ccd8e5"/>
    <path id="Path_234700" data-name="Path 234700" d="M37.846,12.231V30.692a9.172,9.172,0,0,1-1.354,4.8,9.172,9.172,0,0,1-4.8,1.354H13.231A9.258,9.258,0,0,1,4,27.615V9.154a9.172,9.172,0,0,1,1.354-4.8A9.172,9.172,0,0,1,10.154,3H28.615a9.258,9.258,0,0,1,9.231,9.231Zm43.077,0V30.692a9.172,9.172,0,0,1-1.354,4.8,9.172,9.172,0,0,1-4.8,1.354H56.308a9.258,9.258,0,0,1-9.231-9.231V9.154a9.172,9.172,0,0,1,1.354-4.8A9.172,9.172,0,0,1,53.231,3H71.692a9.258,9.258,0,0,1,9.231,9.231ZM37.846,55.308V73.769a9.172,9.172,0,0,1-1.354,4.8,9.172,9.172,0,0,1-4.8,1.354H13.231A9.258,9.258,0,0,1,4,70.692V52.231a9.172,9.172,0,0,1,1.354-4.8,9.172,9.172,0,0,1,4.8-1.354H28.615a9.258,9.258,0,0,1,9.231,9.231Z" transform="translate(2.077 0)" fill="#0795ff"/>
    <path id="Path_234701" data-name="Path 234701" d="M51.846,26.231V44.692a9.172,9.172,0,0,1-1.354,4.8,9.172,9.172,0,0,1-4.8,1.354H27.231A9.258,9.258,0,0,1,18,41.615V23.154a9.172,9.172,0,0,1,1.354-4.8A9.172,9.172,0,0,1,24.154,17H42.615a9.258,9.258,0,0,1,9.231,9.231Z" transform="translate(31.154 29.077)" fill="#dfe8f4"/>
  </g>
</svg>
