<svg xmlns="http://www.w3.org/2000/svg" xmlns:xlink="http://www.w3.org/1999/xlink" width="79.827" height="80" viewBox="0 0 79.827 80">
  <defs>
    <clipPath id="clip-path">
      <rect id="Rectangle_18709" data-name="Rectangle 18709" width="79.827" height="80" transform="translate(0 0)" fill="none"/>
    </clipPath>
  </defs>
  <g id="Group_163757" data-name="Group 163757" transform="translate(0 -0.003)">
    <g id="Group_163744" data-name="Group 163744" transform="translate(0 0.003)" clip-path="url(#clip-path)">
      <path id="Path_234702" data-name="Path 234702" d="M69.155,80H10.672A10.672,10.672,0,0,1,0,69.331V10.675A10.672,10.672,0,0,1,10.672,0H69.155A10.672,10.672,0,0,1,79.827,10.675V69.331A10.672,10.672,0,0,1,69.155,80" transform="translate(0 -0.003)" fill="#3f4958"/>
      <path id="Path_234703" data-name="Path 234703" d="M174.471,820.792a6.814,6.814,0,0,0-1.6-3.492,7.651,7.651,0,0,0-5.54-2.546,15.739,15.739,0,0,0-5.455.711.238.238,0,0,0-.207.276q.008,5.193,0,10.386,0,5.212,0,10.424c0,.174.044.216.214.212q.8-.018,1.6,0c.178,0,.223-.043.223-.221q-.009-3.449,0-6.9c0-.426,0-.426.409-.335.051.011.1.02.152.032a10.162,10.162,0,0,0,5.29-.107,6.651,6.651,0,0,0,4.562-4.145,8.157,8.157,0,0,0,.355-4.3m-2.5,3.542a4.748,4.748,0,0,1-3.716,3.343,8,8,0,0,1-4.442-.347c-.126-.042-.11-.123-.11-.211v-5.007c0-1.65,0-3.3-.006-4.949a.266.266,0,0,1,.227-.306,9.9,9.9,0,0,1,3.35-.372,5.263,5.263,0,0,1,2.609.743,4.8,4.8,0,0,1,2.1,2.826,7.259,7.259,0,0,1-.01,4.28" transform="translate(-155.37 -782.977)" fill="#fff"/>
      <path id="Path_234704" data-name="Path 234704" d="M767.561,817.209a5.205,5.205,0,0,0-3.414-3.117,7.807,7.807,0,0,0-3.372-.236,5.857,5.857,0,0,0-4.925,3.9,9.126,9.126,0,0,0-.075,6.606,6.22,6.22,0,0,0,4.631,4.12,9.032,9.032,0,0,0,3.6.056,6.657,6.657,0,0,0,3.735-1.978c.106-.108.093-.164,0-.263-.332-.347-.661-.7-.979-1.057-.1-.109-.143-.094-.232,0a4.942,4.942,0,0,1-1.616,1.163,6.108,6.108,0,0,1-3.274.461,4.476,4.476,0,0,1-3.3-1.934,6.279,6.279,0,0,1-1.025-3.221c-.014-.19.051-.217.22-.217,1.753.006,3.507,0,5.26,0h5.319c.084,0,.161.018.162-.12a10.378,10.378,0,0,0-.708-4.172m-1.543,2.584c-1.409-.005-2.818,0-4.227,0h-4.227c-.105,0-.206.022-.177-.152a5.53,5.53,0,0,1,1.5-3.056,3.655,3.655,0,0,1,2.043-.964,5.462,5.462,0,0,1,2.654.167,3.575,3.575,0,0,1,2.486,2.814,5.874,5.874,0,0,1,.133,1c.009.159-.041.191-.191.191" transform="translate(-725.758 -782.054)" fill="#fff"/>
      <path id="Path_234705" data-name="Path 234705" d="M1197.572,825.889a7.406,7.406,0,0,1-4-1.081,7.756,7.756,0,0,1-1.482-1.255c-.087-.095-.066-.137.019-.21.452-.391.9-.783,1.344-1.186.12-.109.173-.083.264.028a4.844,4.844,0,0,0,2.752,1.755,5.5,5.5,0,0,0,3.071-.136,1.984,1.984,0,0,0,1.39-1.433,2.013,2.013,0,0,0-.851-2.183,5.19,5.19,0,0,0-1.573-.746c-.976-.309-1.966-.573-2.926-.929a5.533,5.533,0,0,1-1.46-.8,3.212,3.212,0,0,1-1.305-2.283,3.657,3.657,0,0,1,1.161-3.369,4.665,4.665,0,0,1,2.054-1.02,7.555,7.555,0,0,1,4.532.3,6.5,6.5,0,0,1,2.42,1.82c.051.056.049.088-.006.138q-.678.615-1.351,1.236c-.125.116-.168,0-.224-.067a5.125,5.125,0,0,0-1.255-1.127,4.091,4.091,0,0,0-2.039-.631,6.1,6.1,0,0,0-1.647.118,1.8,1.8,0,0,0-1.516,1.433,1.858,1.858,0,0,0,.9,2.03,8.169,8.169,0,0,0,2.037.855c.8.253,1.592.511,2.369.819a5.366,5.366,0,0,1,1.932,1.278,3.784,3.784,0,0,1,.09,4.817,4.839,4.839,0,0,1-2.787,1.623,8.322,8.322,0,0,1-1.913.209" transform="translate(-1145.573 -779.224)" fill="#fff"/>
      <path id="Path_234706" data-name="Path 234706" d="M1575.615,681.838l-.1-.088c-.052.074-.026.154-.026.228q0,3.535,0,7.071c0,.191-.053.238-.238.233-.545-.013-1.091-.01-1.636,0-.149,0-.182-.044-.182-.187q.007-2.756,0-5.513,0-7.266,0-14.531c0-.171.033-.231.219-.226.545.014,1.091.011,1.636,0,.165,0,.2.047.2.206q-.007,6.2,0,12.408a.59.59,0,0,0,.021.258l.109-.077a.132.132,0,0,1,0,.218" transform="translate(-1512.105 -642.755)" fill="#fff"/>
      <path id="Path_234707" data-name="Path 234707" d="M600.032,678.2q0,5.007,0,10.013c0,.172-.04.216-.212.212-.552-.012-1.1-.01-1.656,0-.147,0-.183-.038-.183-.183.006-1.11,0-2.221,0-3.331q0-8.348,0-16.7c0-.256,0-.256.259-.256.532,0,1.065.007,1.6,0,.157,0,.19.044.19.194q-.006,5.026,0,10.052" transform="translate(-574.679 -641.916)" fill="#fff"/>
      <path id="Path_234708" data-name="Path 234708" d="M1629.441,825.112q0-.109,0-.218,1.086-1.1,2.173-2.2,2.288-2.312,4.577-4.623a.466.466,0,0,1,.37-.158c.766.009,1.532,0,2.3,0h.237c-.1.1-.173.165-.24.231q-3.4,3.319-6.807,6.634c-.135.131-.131.191,0,.325q3.429,3.62,6.846,7.251c.044.046.086.095.13.144-.052.057-.114.03-.167.03-.825,0-1.649,0-2.474,0a.3.3,0,0,1-.256-.1q-3.3-3.617-6.612-7.229c-.026-.028-.047-.061-.071-.091" transform="translate(-1565.931 -786.029)" fill="#fff"/>
      <path id="Path_234709" data-name="Path 234709" d="M470.541,1332.08c-1.98,0-3.959,0-5.939,0-.169,0-.221-.039-.217-.214.013-.5.015-1,0-1.5-.006-.2.062-.231.242-.231q5.783.007,11.567,0c.516,0,.516,0,.516.515,0,.4-.01.792,0,1.188.007.185-.041.24-.233.239-1.98-.008-3.959,0-5.939,0" transform="translate(-446.284 -1278.297)" fill="#7cbae3"/>
    </g>
  </g>
</svg>
