<svg xmlns="http://www.w3.org/2000/svg" width="94.751" height="32.738" viewBox="0 0 94.751 32.738">
  <g id="Group_20175" data-name="Group 20175" transform="translate(0.22 0.086)" style="mix-blend-mode: luminosity;isolation: isolate">
    <path id="Path_74451" data-name="Path 74451" d="M277.346,34.6a10.686,10.686,0,0,0-1.125-.089c-.6-.036-1.238-.083-1.415-.112s-.539-.083-.8-.118-.58-.089-.711-.118-.4-.089-.592-.124c-.515-.107-1.812-.409-1.984-.468-.083-.03-.308-.1-.5-.154a23.221,23.221,0,0,1-2.481-.865.247.247,0,0,0-.142-.053,1.8,1.8,0,0,1-.385-.142l-.752-.332a33.317,33.317,0,0,1-5.436-3.15,67.712,67.712,0,0,1-6.348-5.347c-2.067-1.96-3.742-3.47-4.944-4.465l-.989-.823c-.095-.077-.136-.059-.426.207-.628.574.2.521-7.911.521-6.774,0-7.147-.006-7.348-.107a2.521,2.521,0,0,1-.865-.77c-.326-.515-.314-.237-.314-7.55,0-7.425-.012-7.165.349-7.656a2.059,2.059,0,0,1,1.119-.8c.414-.124,13.7-.124,14.116,0a2.059,2.059,0,0,1,1.119.8c.355.486.349.326.349,6.744v5.856l.255.112a32.007,32.007,0,0,1,5.276,3.334c.628.48,3.582,2.925,4.269,3.529,1.8,1.581,4.488,3.719,5.88,4.666.693.48,2.416,1.569,2.824,1.788l.533.3c.355.2,1.528.782,1.984.995.563.261,1.007.456,1.042.456a2.928,2.928,0,0,1,.337.142,4.468,4.468,0,0,0,.456.178,2.306,2.306,0,0,1,.266.095c.065.03.332.124.592.207l.592.207a4.853,4.853,0,0,0,.474.148c.2.053.42.124.5.148s.586.16,1.125.29a37.253,37.253,0,0,0,4.263.77,52.167,52.167,0,0,0,9.977-.053c.918-.1,1.96-.237,2.339-.3.213-.036.639-.1.947-.142.5-.077,1.137-.189,1.895-.332.148-.03.48-.089.74-.136.42-.083,1.474-.3,2.132-.456l.651-.148.651-.154c.343-.089.515-.095.545-.012a.074.074,0,0,1-.053.1c-.16.053-1.622.5-1.735.527-.065.018-.266.077-.444.13l-1.036.3-.533.148-1.688.45-.563.136c-.266.071-1.4.332-1.984.456l-.651.142c-.148.036-.491.1-.77.154l-.8.148c-.16.036-.533.1-.829.148l-.859.142c-.3.053-.965.142-2.191.3-.243.036-.912.089-1.48.118-1.184.071-6.466.136-6.519.083ZM246.224,16.516a18.858,18.858,0,0,0-2.653-1.368,2.97,2.97,0,0,1-.284-.112,17,17,0,0,0-4.808-1.178c-.261-.03-.355-.065-.355-.13,0-.2,3.138-.207,4.648-.006a20.656,20.656,0,0,1,3.233.663c.332.095.622.172.64.172s.036-2.315.036-5.151V4.253H234.127V16.747h12.464l-.367-.231Z" transform="translate(-219.532 -1.966)" fill="#ea7624"/>
    <path id="Path_74452" data-name="Path 74452" d="M61.242,25.048a2.608,2.608,0,0,1-1.386-.746,2.23,2.23,0,0,1-.764-1.913,2.357,2.357,0,0,1,.776-1.972,2.838,2.838,0,0,1,2.511-.788,2.41,2.41,0,0,1,1.51.746,2.337,2.337,0,0,1,.734,1.486,2.773,2.773,0,0,1-.752,2.44,2.658,2.658,0,0,1-1.421.752,2.387,2.387,0,0,1-1.208-.006Zm1.32-.468a1.864,1.864,0,0,0,1.119-1.622,3.212,3.212,0,0,0-.675-2.445,1.373,1.373,0,0,0-1.226-.432c-.527,0-.586.012-.853.178a2.4,2.4,0,0,0-.8,2.73,2.14,2.14,0,0,0,.894,1.415A1.894,1.894,0,0,0,62.562,24.58Zm28.451.462a2.383,2.383,0,0,1-.551-.178c-.255-.172-.426-1.155-.225-1.32.118-.1.2-.036.349.314a1.18,1.18,0,0,0,1.143.811.9.9,0,0,0,.764-.385,1.183,1.183,0,0,0-.077-1.013,4.335,4.335,0,0,0-.734-.586c-1.007-.675-1.261-1.013-1.261-1.688a1.358,1.358,0,0,1,1.338-1.386,3.144,3.144,0,0,1,1.362.184,1.458,1.458,0,0,1,.089,1.066c-.118.124-.266.059-.337-.142a.813.813,0,0,0-.936-.669c-.349,0-.391.012-.58.2a.535.535,0,0,0-.2.491c0,.456.225.711,1.054,1.2a3.484,3.484,0,0,1,.716.568,1.334,1.334,0,0,1,.385.716,1.1,1.1,0,0,1,.012.716,1.485,1.485,0,0,1-1.161,1.1,1.947,1.947,0,0,1-1.149-.006Zm-33.39-.018c-.48-.083-.947-.539-1.557-1.51-.468-.752-.521-.8-.865-.8h-.284v.764c0,.953.03,1.048.367,1.113.231.047.255.065.255.225v.178l-1.024.012c-.924.006-1.024,0-1.078-.095-.083-.154.047-.278.32-.32a.567.567,0,0,0,.284-.112c.024-.041.047-1,.047-2.126a10.171,10.171,0,0,0-.071-2.114.967.967,0,0,0-.284-.112c-.142-.036-.213-.095-.225-.178-.036-.237.148-.266,1.486-.243l1.255.018.355.178a2.058,2.058,0,0,1,.533.4.926.926,0,0,1,.2.687,1.152,1.152,0,0,1-.1.7,2.014,2.014,0,0,1-.758.728c-.124,0-.095.059.314.651l.527.77a2.693,2.693,0,0,0,.953.859c.278.095.332.243.112.326a1.42,1.42,0,0,1-.758,0ZM56,22.152a.889.889,0,0,0,.456-.876,1.058,1.058,0,0,0-1.19-1.155l-.32.018-.018,1.007a10.726,10.726,0,0,0,.018,1.084c.041.118.758.065,1.054-.077Zm32.472,2.872c-.444-.077-.894-.474-1.38-1.208-.776-1.172-.7-1.1-1.072-1.1h-.255V23.5c0,1,.012,1.03.314,1.09.255.053.379.178.32.332a5.547,5.547,0,0,1-2.12,0c-.112-.13.006-.278.261-.32.414-.065.4.036.4-2.209,0-1.107-.024-2.055-.047-2.09a.672.672,0,0,0-.278-.154c-.266-.095-.337-.255-.172-.379a11.469,11.469,0,0,1,2.635-.012c.776.249,1.119.657,1.119,1.332a1.342,1.342,0,0,1-.64,1.161l-.266.178a6.71,6.71,0,0,0,1.344,1.954,1.342,1.342,0,0,0,.5.326c.266.065.314.231.095.314A1.42,1.42,0,0,1,88.474,25.024Zm-1.735-2.842c.278-.107.337-.16.444-.385a1.144,1.144,0,0,0-1.078-1.688h-.337v1.054a7.6,7.6,0,0,0,.041,1.1,1.623,1.623,0,0,0,.93-.077ZM48.008,24.929c-.065-.172.018-.284.231-.337.189-.047.231-.083.284-.266a28.659,28.659,0,0,0-.018-3.979.458.458,0,0,0-.337-.213c-.2-.047-.272-.095-.284-.189-.036-.219.207-.261,1.528-.237,1.172.018,1.226.024,1.551.178a1.1,1.1,0,0,1,.7,1.078,1,1,0,0,1-.432.9l-.207.16.284.142a1.4,1.4,0,0,1,.716,1.593,1.568,1.568,0,0,1-1.463,1.208A11.577,11.577,0,0,1,48.008,24.929Zm2.617-.45a.718.718,0,0,0,.5-.586,1.484,1.484,0,0,0-.154-1.024,1.169,1.169,0,0,0-1.042-.438l-.521-.03.018.953c.018.823.03.965.13,1.066A1.151,1.151,0,0,0,50.625,24.479ZM50.406,21.8a.74.74,0,0,0,.385-.758.879.879,0,0,0-.13-.515,1.229,1.229,0,0,0-.941-.42h-.308v1.853l.409-.036a2.1,2.1,0,0,0,.586-.124ZM66.9,24.923c-.053-.142.065-.284.255-.3.332-.03.42-.071.486-.219a13.613,13.613,0,0,0,.071-2.22V20.109H67.3a1.943,1.943,0,0,0-1.107.243,1.482,1.482,0,0,0-.2.3.474.474,0,0,1-.207.213c-.142.03-.284-.107-.237-.219.018-.053.095-.332.166-.628.148-.58.261-.687.48-.444.107.112.166.118,2.061.118,1.729,0,1.966-.012,2.12-.1.278-.166.32-.065.231.616-.095.74-.095.74-.249.716-.089-.012-.148-.077-.184-.2-.148-.509-.409-.64-1.214-.61l-.456.018-.018,1.717a10.593,10.593,0,0,0,.107,2.635.588.588,0,0,0,.337.112c.266.036.284.047.284.213v.178l-1.143.012c-.995.012-1.149,0-1.178-.083Zm4.962-.012a.207.207,0,0,1,.2-.3.5.5,0,0,0,.249-.083c.107-.083.112-.184.13-1.942.012-1.024-.006-2-.03-2.149-.047-.29-.047-.29-.343-.355-.189-.036-.3-.095-.314-.154-.036-.2.124-.237,1.149-.219l1,.018v.148c0,.124-.041.16-.266.213-.332.077-.343.118-.349,1.137L73.274,22h2.783v-.835A4.374,4.374,0,0,0,76,20.234a.421.421,0,0,0-.3-.148c-.261-.041-.355-.16-.237-.3.065-.077.243-.089,1.06-.077l.983.018v.148c0,.124-.041.16-.261.213-.189.041-.278.1-.314.2a34.1,34.1,0,0,0,.053,4.21.647.647,0,0,0,.3.107c.2.036.225.053.225.213v.178l-.989.012c-.817.006-1-.006-1.06-.077-.107-.13,0-.272.249-.337.355-.089.355-.089.337-1.131l-.018-.953H73.3v.959a3.122,3.122,0,0,0,.071,1.03.738.738,0,0,0,.326.107c.237.036.255.047.255.213v.178l-1.024.012c-.9.006-1.024-.006-1.072-.095Zm6.963.006c-.107-.13.036-.272.308-.314a.708.708,0,0,0,.32-.107,34.416,34.416,0,0,0,.059-4.121c-.047-.219-.071-.237-.3-.284-.272-.053-.367-.166-.249-.308.065-.077.326-.089,1.83-.077l1.753.018.071.326a2.36,2.36,0,0,1,.059.592c-.012.249-.024.266-.178.266s-.184-.036-.249-.225a1.184,1.184,0,0,0-.178-.337,1.783,1.783,0,0,0-1.149-.237h-.539V22H81c.675,0,.687-.006.74-.349.041-.219.172-.343.326-.284.083.03.095.154.095.87s-.012.841-.095.87c-.148.053-.284-.059-.326-.266-.071-.337-.13-.367-.77-.367h-.586v.882c0,1.184-.03,1.155.965,1.178.9.024,1.024-.024,1.3-.5.2-.361.3-.432.432-.32s.112.261-.077.8l-.166.474H80.859a8.252,8.252,0,0,1-2.037-.077ZM2.93,16.847a7.9,7.9,0,0,1-2.345-.734c-.266-.16-.314-.249-.5-.947A10.856,10.856,0,0,1-.19,13l-.03-.628.189-.077c.278-.112.48.006.58.355A6.414,6.414,0,0,0,1.5,14.5a3.7,3.7,0,0,0,1.759,1.267,2.874,2.874,0,0,0,1.332.172,2.653,2.653,0,0,0,1.3-.178,2.07,2.07,0,0,0,.829-.563,2.69,2.69,0,0,0,.77-2.463c-.13-1.226-.681-1.984-2.161-2.955A17.4,17.4,0,0,1,2.06,7.426,5.034,5.034,0,0,1,.769,5.383,3.059,3.059,0,0,1,.6,4.152a3.483,3.483,0,0,1,.4-1.836A4.447,4.447,0,0,1,4.381,0a12.832,12.832,0,0,1,3.4.136c.178.047.5.118.7.154.355.065.379.083.45.29a16.148,16.148,0,0,1,.326,1.711,6.942,6.942,0,0,1,.059.788v.4l-.219.089a.546.546,0,0,1-.391.041c-.154-.041-.2-.1-.308-.474A3.023,3.023,0,0,0,6.382.948a5.373,5.373,0,0,0-2.173,0A2.277,2.277,0,0,0,2.516,3.37,2.4,2.4,0,0,0,2.972,4.9,5.972,5.972,0,0,0,5.127,6.716c.6.361,1.753,1.113,2.126,1.386A5.813,5.813,0,0,1,9.4,11.02a6.98,6.98,0,0,1,.047,2.4A4.281,4.281,0,0,1,8.3,15.473a4.913,4.913,0,0,1-2.765,1.35,12.006,12.006,0,0,1-2.605.024Zm35.409-.024a5.752,5.752,0,0,1-1.51-.391c-.065-.024-.225-.089-.349-.142a5.654,5.654,0,0,1-1.516-1.078,5.474,5.474,0,0,1-1.249-2.374c-.243-1.03-.243-.983-.29-5.785l-.107-5.009c-.136-.782-.4-.971-1.4-1.042a2,2,0,0,1-.6-.095c-.118-.089-.095-.539.03-.657.1-.083.207-.089,1.084-.036a36.9,36.9,0,0,0,4.127,0C37.273.167,37.54.167,37.6.22a.577.577,0,0,1,.065.61c-.083.118-.154.142-.64.178-.711.053-1.036.2-1.238.568l-.148.266V6.432c0,3.606.018,4.66.077,4.915.047.178.13.551.2.823a4.9,4.9,0,0,0,1.119,2.22,3.972,3.972,0,0,0,1.522.983l.551.16a5.226,5.226,0,0,0,1.3.1,3.826,3.826,0,0,0,1.5-.16A4.347,4.347,0,0,0,44.929,12c.249-.924.249-.965.249-4.944,0-3.955-.006-4.109-.249-5.14C44.781,1.256,44.5,1.079,43.49,1,43.035.96,42.981.943,42.9.8a.5.5,0,0,1,.065-.545c.077-.1.136-.1.936-.047A30.556,30.556,0,0,0,47.73.214c.758-.065.758-.065.865.071a.445.445,0,0,1,0,.557c-.083.107-.189.136-.58.16-.722.053-1.184.3-1.291.693-.2.746-.225,1.2-.272,5.092l-.112,4.322a9.961,9.961,0,0,1-.533,2.22,5.508,5.508,0,0,1-4.536,3.493,13.471,13.471,0,0,1-2.931,0Zm40.116-.148c-1.717-.361-2.783-1.415-4.98-4.915-1.184-1.877-1.457-2.22-1.9-2.374A5.46,5.46,0,0,0,69.71,9.38a45.892,45.892,0,0,0,.012,5.412c.142.616.4.8,1.332.941.527.077.622.148.622.456,0,.426.243.4-3.209.4l-3.1-.006-.053-.213c-.059-.237-.006-.515.1-.545.041-.012.361-.065.716-.118.657-.1.918-.213,1.048-.456.231-.432.231-.456.231-6.762l-.065-6.365c-.148-.634-.29-.746-1.125-.87-.675-.1-.764-.154-.764-.486A.413.413,0,0,1,65.89.333c.1,0,1.042-.041,2.084-.089a31.062,31.062,0,0,1,4.678,0A7.175,7.175,0,0,1,74.37.552a4.133,4.133,0,0,1,2.582,2.061,4.077,4.077,0,0,1-.036,3.612,4.85,4.85,0,0,1-2.2,2.138c-.355.189-.456.272-.444.355a10.029,10.029,0,0,0,.841,1.445c.124.178.48.722.8,1.208a20.436,20.436,0,0,0,2.913,3.707,3.357,3.357,0,0,0,1.865,1.042c.326.041.42.13.391.355-.03.249-.284.314-1.291.308a6.383,6.383,0,0,1-1.332-.107ZM72.623,8.214a2.554,2.554,0,0,0,1.391-.746A3.319,3.319,0,0,0,74.9,4.862a3.441,3.441,0,0,0-1.024-2.736,3.683,3.683,0,0,0-2.931-.965c-1.226,0-1.261.018-1.314.6-.024.237-.03,1.788-.018,3.44.018,2.593.03,3.014.107,3.061a8.227,8.227,0,0,0,1.273.059,7.1,7.1,0,0,0,1.628-.112Zm-24.4,8.3a.766.766,0,0,1-.065-.592c.053-.095.148-.124.5-.154,1.249-.107,1.51-.326,2.043-1.729l.308-.77.189-.444c.036-.083.083-.2.107-.266l.468-1.184c.03-.065.077-.184.112-.266s.474-1.255.989-2.605L54.64,3.856A10.558,10.558,0,0,0,55.558,1c-.018-.136.024-.178.308-.314A2.939,2.939,0,0,0,56.517.22c.332-.314.539-.379.722-.231.1.089.124.148.462,1.232.136.438.272.853.3.918s.172.48.32.918L59.5,6.491c.018.047.184.527.361,1.066L61.272,11.7c.053.142.527,1.54.622,1.836.047.148.13.373.189.5l.142.361a2.835,2.835,0,0,0,.634.995,1.341,1.341,0,0,0,.758.3,5.919,5.919,0,0,0,.711.095c.207,0,.3.13.3.426,0,.385.184.367-3.061.373-3.28.006-3.156.018-3.156-.385,0-.308.124-.385.77-.468s.853-.166.876-.349a5.882,5.882,0,0,0-.337-1.4c-.065-.16-.266-.776-.45-1.362-.592-1.853-.669-2.067-.8-2.2l-.13-.136H53.622l-.148.136a6.188,6.188,0,0,0-.645,1.64c-.906,2.736-1.036,3.227-.936,3.428.083.142.355.225.953.278a1.377,1.377,0,0,1,.551.13.516.516,0,0,1,.018.574c-.077.107-.2.112-2.611.118a15.7,15.7,0,0,1-2.582-.071Zm9.74-7.5c.095-.065.03-.29-.859-2.961-.527-1.587-.983-2.884-1.013-2.884s-.065.047-.083.107-.071.184-.112.278c-.083.213-.243.64-.5,1.362l-.243.669-.107.266c-.03.071-.095.266-.154.426s-.118.349-.148.414c-.053.13-.308.847-.4,1.125L54.1,8.5a1.894,1.894,0,0,0-.148.545,18.862,18.862,0,0,0,1.972.053,9.281,9.281,0,0,0,2.043-.077ZM81.2,16.48c-.083-.154-.036-.586.071-.64a5.427,5.427,0,0,1,.711-.112c.882-.095.941-.112,1.149-.32.373-.379.361-.136.361-7.111V1.961l-.13-.272c-.2-.426-.5-.586-1.32-.675a1.183,1.183,0,0,1-.4-.1c-.112-.089-.095-.468.03-.628l.1-.13,1.007.059c.912.059,9.338.053,9.734-.006.124-.018.154.006.2.184a19.194,19.194,0,0,1,.255,2.1c.1,1.166.1,1.178-.237,1.243-.314.059-.438-.065-.628-.616-.32-.953-.6-1.326-1.19-1.616-.474-.225-1.19-.284-3.3-.266l-1.741.018-.077.148a19.881,19.881,0,0,0-.077,3.02c0,2.5.012,2.89.095,3.008s.107.13,1.611.13A7.225,7.225,0,0,0,90.108,7.3c.166-.107.278-.426.426-1.226a2.429,2.429,0,0,1,.148-.557.881.881,0,0,1,.681.024c.095.083.1.154.053.947a25.977,25.977,0,0,0,0,3.186c.047.716.041.793-.053.9a.592.592,0,0,1-.622.059c-.071-.041-.142-.2-.213-.515-.337-1.516-.3-1.5-2.919-1.5H85.827l-.059.154c-.077.2-.077,4.376,0,4.98.1.776.225,1.125.486,1.35a1.532,1.532,0,0,0,.48.261,13.36,13.36,0,0,0,5.134-.024,1.338,1.338,0,0,0,.657-.444,7.248,7.248,0,0,0,1.113-1.616c.219-.42.225-.426.474-.444.32-.024.42.059.42.349a12.593,12.593,0,0,1-.93,3.162l-.112.237H87.373c-5.815,0-6.117-.006-6.176-.107Z" transform="translate(0 0)" fill="#030000"/>
  </g>
</svg>
