<svg id="Group_163753" data-name="Group 163753" xmlns="http://www.w3.org/2000/svg" width="65.454" height="80" viewBox="0 0 65.454 80">
  <rect id="Rectangle_18707" data-name="Rectangle 18707" width="65.454" height="80" rx="5" transform="translate(0)" fill="#2d4a60"/>
  <path id="Path_234669" data-name="Path 234669" d="M65.446,31.7A5.427,5.427,0,0,0,64,35.387v69.091a5.46,5.46,0,0,0,5.455,5.455H124a5.435,5.435,0,0,0,4.008-1.768Z" transform="translate(-64 -29.933)" fill="#263f52"/>
  <circle id="Ellipse_187" data-name="Ellipse 187" cx="1.818" cy="1.818" r="1.818" transform="translate(7.273 7.273)" fill="#8fa5a5"/>
  <path id="Path_234670" data-name="Path 234670" d="M106.684,73.612a1.781,1.781,0,0,0-.018.18,1.812,1.812,0,0,0,1.638,1.8Z" transform="translate(-99.393 -64.701)" fill="#7b8c8c"/>
  <circle id="Ellipse_188" data-name="Ellipse 188" cx="1.818" cy="1.818" r="1.818" transform="translate(54.545 7.273)" fill="#8fa5a5"/>
  <circle id="Ellipse_189" data-name="Ellipse 189" cx="1.818" cy="1.818" r="1.818" transform="translate(7.273 61.818)" fill="#7b8c8c"/>
  <path id="Path_234752" data-name="Path 234752" d="M1.818,0A1.818,1.818,0,1,1,0,1.818,1.818,1.818,0,0,1,1.818,0Z" transform="translate(54.545 61.818)" fill="#8fa5a5"/>
  <rect id="Rectangle_18708" data-name="Rectangle 18708" width="43.636" height="25.454" rx="2" transform="translate(10.909 23.636)" fill="#eaeff0"/>
  <path id="Path_234671" data-name="Path 234671" d="M136.43,160h-6.611A1.818,1.818,0,0,0,128,161.818v21.818a1.818,1.818,0,0,0,1.818,1.818h27.438Z" transform="translate(-117.091 -136.364)" fill="#bac2c6"/>
  <path id="Path_234672" data-name="Path 234672" d="M165.454,206.545h-4.546a.909.909,0,0,1-.909-.909v-1.818a.909.909,0,0,1,.909-.909h4.546v-1.818h-1.818A3.636,3.636,0,0,1,160,197.455v-1.818A3.636,3.636,0,0,1,163.636,192h4.546a.909.909,0,0,1,.909.909v1.818a.909.909,0,0,1-.909.909h-4.546v1.818h1.818a3.636,3.636,0,0,1,3.636,3.636v1.818A3.636,3.636,0,0,1,165.454,206.545Zm10.909,0h-4.546a.909.909,0,0,1-.909-.909v-1.818a.909.909,0,0,1,.909-.909h4.546v-1.818h-1.818a3.636,3.636,0,0,1-3.636-3.636v-1.818A3.636,3.636,0,0,1,174.545,192h4.546a.909.909,0,0,1,.909.909v1.818a.909.909,0,0,1-.909.909h-4.546v1.818h1.818A3.636,3.636,0,0,1,180,201.091v1.818A3.636,3.636,0,0,1,176.364,206.545Zm10.909,0h-4.546a.909.909,0,0,1-.909-.909V192.909a.909.909,0,0,1,.909-.909h4.545a5.455,5.455,0,0,1,5.455,5.455v3.636A5.455,5.455,0,0,1,187.273,206.545Zm-1.818-3.636h1.818a1.818,1.818,0,0,0,1.818-1.818v-3.636a1.818,1.818,0,0,0-1.818-1.818h-1.818Z" transform="translate(-143.636 -162.909)" fill="#2d4a60"/>
  <path id="Path_234673" data-name="Path 234673" d="M168.182,195.636a.909.909,0,0,0,.909-.909v-.707L167.438,192h-3.8A3.636,3.636,0,0,0,160,195.637v1.818a3.636,3.636,0,0,0,3.636,3.636h1.818v1.818h-4.546a.909.909,0,0,0-.909.909v1.818a.909.909,0,0,0,.909.909h4.546a3.636,3.636,0,0,0,3.636-3.636v-1.818a3.636,3.636,0,0,0-3.636-3.636h-1.818v-1.818Zm8.182,7.273h-4.546a.909.909,0,0,0-.909.909v1.818a.909.909,0,0,0,.909.909h4.546a3.6,3.6,0,0,0,2.292-.835Zm-5.455-5.455a3.636,3.636,0,0,0,3.636,3.636h.331l-3.967-4.848Z" transform="translate(-143.636 -162.909)" fill="#263f52"/>
  <g id="Group_163738" data-name="Group 163738" transform="translate(9.091 72.727)">
    <path id="Path_234674" data-name="Path 234674" d="M120.061,448h-1.818a.909.909,0,0,0-.909.909v6.364h3.636v-6.364A.909.909,0,0,0,120.061,448Zm7.273,0h-1.818a.909.909,0,0,0-.909.909v6.364h3.636v-6.364A.909.909,0,0,0,127.334,448Zm7.273,0h-1.818a.909.909,0,0,0-.909.909v6.364h3.636v-6.364a.909.909,0,0,0-.909-.909Zm7.273,0h-1.818a.909.909,0,0,0-.909.909v6.364h3.636v-6.364A.909.909,0,0,0,141.879,448Zm7.273,0h-1.818a.909.909,0,0,0-.909.909v6.364h3.636v-6.364A.909.909,0,0,0,149.152,448Zm7.273,0h-1.818a.909.909,0,0,0-.909.909v6.364h3.636v-6.364A.909.909,0,0,0,156.425,448Zm7.273,0h-1.818a.909.909,0,0,0-.909.909v6.364h3.636v-6.364A.909.909,0,0,0,163.7,448Z" transform="translate(-117.334 -448)" fill="#ff9500"/>
  </g>
</svg>
