<svg xmlns="http://www.w3.org/2000/svg" width="22.33" height="21.294" viewBox="0 0 22.33 21.294">
  <g id="Group_18921" data-name="Group 18921" transform="translate(0 0)">
    <path id="Path_72728" data-name="Path 72728" d="M21.8,19.569,14.57,18.9,11.7,12.227a.58.58,0,0,0-1.065,0L7.759,18.9l-7.233.671A.58.58,0,0,0,.2,20.582l5.457,4.794-1.6,7.086a.58.58,0,0,0,.861.626l6.246-3.709,6.246,3.709a.58.58,0,0,0,.861-.626l-1.6-7.086,5.457-4.794A.58.58,0,0,0,21.8,19.569Z" transform="translate(0 -11.877)" fill="#ffdc64"/>
    <path id="Path_72729" data-name="Path 72729" d="M11.7,12.227a.58.58,0,0,0-1.065,0L7.759,18.9l-7.233.671A.58.58,0,0,0,.2,20.582l5.457,4.794-1.6,7.086a.58.58,0,0,0,.861.626l1.394-.828a25.562,25.562,0,0,1,6.8-16.734Z" transform="translate(0 -11.877)" fill="#ffc850"/>
  </g>
</svg>
