<svg id="Group_163735" data-name="Group 163735" xmlns="http://www.w3.org/2000/svg" width="81.404" height="80" viewBox="0 0 81.404 80">
  <g id="Group_163734" data-name="Group 163734">
    <path id="Path_234630" data-name="Path 234630" d="M48.877,55.825l-15.439,1.4L18,55.825c4.211-2.807,4.211-8.421,4.211-8.421L33.439,46l11.228,1.4S44.667,53.018,48.877,55.825Z" transform="translate(7.263 18.561)" fill="#3f5c6c"/>
    <path id="Path_234631" data-name="Path 234631" d="M60.351,60.649a2.815,2.815,0,0,1-2.807,2.807H23.86a2.807,2.807,0,1,1,0-5.614H57.544a2.828,2.828,0,0,1,2.807,2.807ZM81.4,41v5.614A2.815,2.815,0,0,1,78.6,49.421H2.807A2.815,2.815,0,0,1,0,46.614V41Z" transform="translate(0 16.544)" fill="#547580"/>
    <path id="Path_234632" data-name="Path 234632" d="M81.4,8.807V56.526H0V8.807A2.815,2.815,0,0,1,2.807,6H78.6A2.815,2.815,0,0,1,81.4,8.807Z" transform="translate(0 2.421)" fill="#90bae1"/>
    <path id="Path_234633" data-name="Path 234633" d="M79.13,6.056C65.951,6.505,0,11.053,0,56.526V8.807A2.815,2.815,0,0,1,2.807,6H78.6A2.2,2.2,0,0,1,79.13,6.056Z" transform="translate(0 2.421)" fill="#b0d3f0"/>
    <g id="Group_163733" data-name="Group 163733" transform="translate(5.981)">
      <rect id="Rectangle_18706" data-name="Rectangle 18706" width="41.866" height="53.828" rx="2" transform="translate(0)" fill="#955ba5"/>
      <path id="Path_234634" data-name="Path 234634" d="M34.211,2A23.145,23.145,0,0,0,30,2.379V49.34a23.155,23.155,0,0,0,4.211.379A23.86,23.86,0,0,0,34.211,2Zm0,26.667a2.807,2.807,0,1,1,2.807-2.807A2.807,2.807,0,0,1,34.211,28.667Z" transform="translate(11.738 0.807)" fill="#f3d55b"/>
      <path id="Path_234635" data-name="Path 234635" d="M34.211,13A8.22,8.22,0,0,0,30,14.137V28.705a8.22,8.22,0,0,0,4.211,1.137,8.421,8.421,0,1,0,0-16.842Zm0,11.228a2.807,2.807,0,1,1,2.807-2.807A2.807,2.807,0,0,1,34.211,24.228Z" transform="translate(11.738 5.246)" fill="#f9eab0"/>
      <g id="Group_163732" data-name="Group 163732" transform="translate(6.651 16.842)">
        <path id="Path_234636" data-name="Path 234636" d="M12.018,31.649C8.088,31.649,5,27.333,5,21.825S8.088,12,12.018,12s7.018,4.316,7.018,9.825S15.947,31.649,12.018,31.649Zm0-16.842c-2.282,0-4.211,3.214-4.211,7.018s1.928,7.018,4.211,7.018,4.211-3.214,4.211-7.018S14.3,14.807,12.018,14.807ZM27.456,31.649a5.614,5.614,0,0,1-5.614-5.614,1.4,1.4,0,1,1,2.807,0,2.807,2.807,0,1,0,2.807-2.807,5.614,5.614,0,1,1,5.614-5.614,1.4,1.4,0,0,1-2.807,0,2.807,2.807,0,1,0-2.807,2.807,5.614,5.614,0,1,1,0,11.228Z" transform="translate(-5 -12)" fill="#fff"/>
      </g>
    </g>
  </g>
</svg>
