<svg id="Group_163880" data-name="Group 163880" xmlns="http://www.w3.org/2000/svg" width="63.316" height="63.316" viewBox="0 0 63.316 63.316">
  <path id="Path_234880" data-name="Path 234880" d="M0,63.316,4.367,47.487A31.489,31.489,0,0,1,31.549,0C48.906,0,63.316,14.192,63.316,31.44S48.906,63.316,31.549,63.316a31.779,31.779,0,0,1-15.392-4.367Z" transform="translate(0)" fill="#ededed"/>
  <path id="Path_234881" data-name="Path 234881" d="M55.709,91.952l.983.546a25.919,25.919,0,0,0,13.646,4.039,26.465,26.465,0,0,0,26.2-26.418,26.2,26.2,0,0,0-52.4,0A26.445,26.445,0,0,0,48.177,84.2l.655.983-2.511,9.17,9.388-2.4Z" transform="translate(-38.68 -38.68)" fill="#55cd6c"/>
  <path id="Path_234882" data-name="Path 234882" d="M136.813,135.171l-2.074-.109a2.479,2.479,0,0,0-1.747.655,9.044,9.044,0,0,0-3.057,4.694c-.764,3.275.437,7.2,3.275,11.135a33.082,33.082,0,0,0,17.9,12.991,8.869,8.869,0,0,0,7.423-.873,6.441,6.441,0,0,0,2.838-4.148l.327-1.528a1.1,1.1,0,0,0-.546-1.2l-6.877-3.166a1.042,1.042,0,0,0-1.31.327l-2.729,3.493a.849.849,0,0,1-.873.218,21.215,21.215,0,0,1-11.462-9.825.824.824,0,0,1,.109-.873l2.62-2.947a1.345,1.345,0,0,0,.218-1.092l-3.166-7.1a.951.951,0,0,0-.873-.655" transform="translate(-113.669 -118.36)" fill="#fefefe"/>
</svg>
