<svg xmlns="http://www.w3.org/2000/svg" viewBox="0 0 486.849 486.849"><path d="M475.212 19.4c12 12 12 30.4 0 42.4l-189.6 172c-12 12-22.4 20-33.6 8.8l-10.4-10.4c-12-12-3.2-22.4 8.8-33.6l172-189.6c12-12 30.4-12 42.4 0l10.4 10.4z" fill="#095a91"/><path d="M464.812 9l10.4 10.4c12 12 12 30.4 0 42.4l-189.6 172c-12 12-22.4 20-33.6 8.8l-10.4-10.4" fill="#074568"/><circle cx="239.212" cy="245" r="47.2" fill="#db6309"/><path d="M205.612 212.2c18.4-18.4 48-18.4 66.4 0s18.4 48 0 66.4" fill="#c14006"/><path fill="#f4cd27" d="M107.212 331.4h40v40h-40z"/><path fill="#edb811" d="M147.212 370.6l-15.2-20.8-18.4-18.4h33.6z"/><path fill="#f4cd27" d="M67.212 387.4h32v32h-32z"/><path fill="#edb811" d="M99.212 419.4l-12.8-20-15.2-12h28z"/><path fill="#f4cd27" d="M35.212 427.4h24v24h-24z"/><path fill="#edb811" d="M59.212 446.6l-9.6-10.4-12-8.8h21.6z"/><path fill="#f4cd27" d="M107.872 309.472l-20.356-20.373 20.373-20.356 20.356 20.373z"/><path fill="#edb811" d="M108.012 309l1.6-20-1.6-20.8 20 20.8z"/><path fill="#f4cd27" d="M55.155 304.732L39.89 289.45l15.282-15.265 15.265 15.282z"/><path fill="#edb811" d="M55.212 304.2l1.6-15.2-1.6-15.2 15.2 15.2z"/><path fill="#f4cd27" d="M13.383 299.609L2.636 288.86l10.747-10.748 10.748 10.748z"/><path fill="#edb811" d="M12.812 299.4l.8-10.4-.8-10.4 11.2 10.4z"/><path fill="#f4cd27" d="M210.576 381.045l-20.373 20.356-20.356-20.373 20.373-20.356z"/><path fill="#edb811" d="M210.412 381l-20-1.6-20.8 1.6 20.8-20z"/><path fill="#f4cd27" d="M205.175 433.768l-15.273 15.273-15.273-15.273 15.273-15.273z"/><path fill="#edb811" d="M205.612 433.8l-15.2-1.6-15.2 1.6 15.2-15.2z"/><path fill="#f4cd27" d="M200.657 476.11l-10.755 10.741-10.74-10.755 10.755-10.74z"/><path fill="#edb811" d="M200.812 476.2l-10.4-.8-10.4.8 10.4-10.4z"/><path fill="#f7e263" d="M159.212 325l22.4-66.4-42.4-56 70.4.8 40.8-57.6 20.8 67.2 67.2 20.8-57.6 40.8.8 69.6-56-41.6z"/><path fill="#f4cd27" d="M159.212 325l44.8-66.4-64.8-56 85.6 15.2 25.6-72 20.8 67.2 67.2 20.8-57.6 40.8.8 69.6-56-41.6z"/><path fill="#edb811" d="M271.212 213l67.2 20.8-57.6 40.8.8 69.6-56-41.6-66.4 22.4"/><g fill="#f7e263"><circle cx="168.012" cy="164.2" r="2.4"/><circle cx="138.412" cy="92.2" r="10.4"/><circle cx="206.412" cy="145.8" r="7.2"/><circle cx="256.812" cy="93" r="12.8"/><circle cx="388.812" cy="241.8" r="8.8"/><circle cx="347.212" cy="281" r="4.8"/><circle cx="331.212" cy="297.8" r="6.4"/><circle cx="384.812" cy="317.8" r="8.8"/><circle cx="324.812" cy="343.4" r="7.2"/><circle cx="270.412" cy="405" r="5.6"/><circle cx="82.412" cy="212.2" r="4"/><circle cx="136.012" cy="258.6" r="5.6"/><circle cx="102.412" cy="157" r="7.2"/><circle cx="40.812" cy="249" r="1.6"/><circle cx="248.012" cy="353" r="8"/><circle cx="343.212" cy="215.4" r="3.2"/></g></svg>