<svg xmlns="http://www.w3.org/2000/svg" viewBox="0 0 270 270"><path d="M264.8 135.3c0 71.5-58 129.5-129.5 129.5S5.9 206.8 5.9 135.3 63.8 5.9 135.3 5.9s129.5 57.9 129.5 129.4z" fill="#18b35c" stroke="#f78f30" stroke-width=".78" stroke-linecap="round" stroke-linejoin="round" stroke-miterlimit="10"/><path d="M96.1 215.9h-38c-1.2 0-2-.9-2-2v-38c0-1.2.9-2 2-2h38c1.2 0 2 .9 2 2v38c0 1-.9 2-2 2zm56.2-63.2h-38c-1.2 0-2 .9-2 2v59.1c0 1.2.9 2 2 2h38c1.2 0 2-.9 2-2v-59.1c0-1.2-.9-2-2-2zm56.1-28.1h-38c-1.2 0-2 .9-2 2v87.1c0 1.2.9 2 2 2h38c1.2 0 2-.9 2-2v-87.1c.2-1.2-.8-2-2-2zm-1-72.6l-35.3 7.2c-1.6.3-2.2 2.3-1 3.5l9.4 9.2-48.1 47.2-19.6-19.6c-.9-.9-2.2-.9-2.9 0l-52.1 51.9c-.9.9-.9 2.2 0 2.9l6.9 7.1c.9.9 2.2.9 2.9 0l43.6-43.5 19.6 19.6c.9.9 2.2.9 2.9 0l56.8-55.7 8.9 8.9c1.2 1.2 3.2.6 3.5-1l7.1-35.3c.2-1.4-1.1-2.7-2.6-2.4z" fill="#fff"/></svg>