<?xml version="1.0" encoding="utf-8"?>
<!-- Generator: Adobe Illustrator 25.0.0, SVG Export Plug-In . SVG Version: 6.00 Build 0)  -->
<svg version="1.1" id="Layer_1" xmlns="http://www.w3.org/2000/svg" xmlns:xlink="http://www.w3.org/1999/xlink" x="0px" y="0px"
	 width="275.786px" height="52px" viewBox="0 0 275.786 52" style="enable-background:new 0 0 275.786 52;" xml:space="preserve">
<style type="text/css">
	.st0{fill:#141D82;}
	.st1{fill:#00CC84;}
</style>
<desc>Created with Sketch.</desc>
<g id="Page-1">
	<g id="Artboard" transform="translate(-158.000000, -226.000000)">
		<g id="Logo" transform="translate(158.000000, 226.000000)">
			<polygon id="Path" class="st0" points="84.993,13.584 83.289,23.123 68.624,23.123 68.036,26.458 80.196,26.458 78.491,35.998 
				66.324,35.998 64.074,48.422 52.929,48.422 59.2,13.55 			"/>
			<path id="Combined-Shape" class="st0" d="M109.056,13.584l5.897,34.872h-11.554l-0.75-6.187h-9.373l-2.897,6.187H79.182
				l17.255-34.872H109.056z M101.387,23.807h-0.324l-4.661,10.59h5.837L101.387,23.807z"/>
			<path id="Path_1_" class="st0" d="M118.915,45.045l5.036-8.655c2.411,1.626,7.124,3.41,9.646,3.41
				c1.704,0,2.624-0.784,2.624-2.101c0-1.626-2.735-2.201-5.683-3.41c-3.272-1.359-6.749-3.511-6.749-8.864
				c0-8.439,6.161-12.424,14.733-12.424c5.573,0,10.873,2.568,13.634,5.562l-6.817,6.921c-2.463-1.943-5.113-3.41-7.234-3.41
				c-1.449,0-2.36,0.625-2.36,1.734c0,1.734,2.786,2.502,5.735,3.827c3.408,1.518,7.021,3.719,7.021,9.072
				c0,7.605-6.587,12.508-15.338,12.508c-6.416-0.025-11.972-2.493-14.221-4.169H118.915z"/>
			<polygon id="Path_2_" class="st0" points="154.388,23.131 156.092,13.592 185.719,13.592 184.015,23.131 174.616,23.131 
				170.066,48.455 158.921,48.455 163.471,23.131 			"/>
			<path id="Path_3_" class="st1" d="M184.45,45.045l5.036-8.655c2.411,1.626,7.124,3.41,9.646,3.41
				c1.704,0,2.624-0.784,2.624-2.101c0-1.626-2.735-2.201-5.683-3.41c-3.272-1.359-6.749-3.511-6.749-8.864
				c0-8.439,6.161-12.424,14.733-12.424c5.573,0,10.881,2.568,13.634,5.562l-6.817,6.921c-2.463-1.943-5.113-3.41-7.234-3.41
				c-1.449,0-2.36,0.625-2.36,1.734c0,1.734,2.786,2.502,5.735,3.827c3.408,1.518,7.021,3.719,7.021,9.072
				c0,7.605-6.587,12.508-15.338,12.508c-6.399-0.025-11.972-2.493-14.221-4.169H184.45z"/>
			<path id="Path_4_" class="st1" d="M216.173,45.045l5.036-8.655c2.411,1.626,7.124,3.41,9.646,3.41
				c1.704,0,2.624-0.784,2.624-2.101c0-1.626-2.735-2.201-5.683-3.41c-3.272-1.359-6.749-3.511-6.749-8.864
				c0-8.439,6.161-12.424,14.733-12.424c5.573,0,10.881,2.568,13.634,5.562l-6.817,6.921c-2.463-1.943-5.113-3.41-7.234-3.41
				c-1.449,0-2.36,0.625-2.36,1.734c0,1.734,2.786,2.502,5.735,3.827c3.408,1.518,7.021,3.719,7.021,9.072
				c0,7.605-6.587,12.508-15.338,12.508c-6.399-0.025-11.972-2.493-14.204-4.169H216.173z"/>
			<polygon id="Path_5_" class="st1" points="266.754,13.584 262.229,38.858 275.786,38.858 274.082,48.455 249.371,48.455 
				255.642,13.584 			"/>
			<path id="Path_6_" class="st1" d="M41.981,18.435h-4.315V15.71c0.026-3.787-1.31-7.466-3.78-10.408
				c-3.305-3.883-8.189-5.3-13.246-5.3c-4.568-0.084-8.92,1.871-11.796,5.3C8.153,6.113,7.549,6.99,7.041,7.919
				c-1.303,2.404-1.978,5.078-1.967,7.791v2.733H0.759c-0.201-0.002-0.394,0.073-0.536,0.209C0.08,18.789,0,18.975,0,19.168V47.75
				c-0.002,0.335,0.233,0.627,0.57,0.708C7.234,50.805,14.273,52.003,21.366,52h0.207c7.018-0.022,13.979-1.22,20.572-3.541
				c0.336-0.081,0.572-0.374,0.57-0.708V19.168C42.719,18.771,42.392,18.444,41.981,18.435z"/>
			<polygon id="Path_7_" class="st0" points="13.459,48.589 17.25,30.217 10.214,30.217 15.794,10.214 31.385,10.214 24.824,21.173 
				32.749,21.173 			"/>
		</g>
	</g>
</g>
</svg>
