<svg xmlns="http://www.w3.org/2000/svg" viewBox="0 0 502.596 502.596"><path d="M336.98 141.061c-3.135-12.539-8.359-25.078-14.629-36.571l12.539-29.257-43.886-42.841-29.257 12.539c-11.494-6.269-22.988-11.494-36.571-14.629L214.727 0h-61.649l-11.494 30.302c-12.539 3.135-25.078 8.359-36.571 14.629L75.755 32.392 32.914 75.233l12.539 29.257c-6.269 11.494-11.494 22.988-14.629 36.571L.522 152.555v61.649l30.302 11.494c3.135 12.539 8.359 25.078 14.629 36.571l-12.539 29.257L76.8 334.367l29.257-12.539c11.494 6.269 22.988 11.494 36.571 14.629l11.494 30.302h60.604l11.494-30.302c12.539-3.135 25.078-8.359 36.571-14.629l29.257 12.539 43.886-42.841-12.539-29.257c6.269-11.494 11.494-22.988 14.629-36.571l30.302-11.494v-61.649l-31.346-11.494zM183.38 258.09c-41.796 0-75.233-33.437-75.233-75.233s33.437-75.233 75.233-75.233 75.233 33.437 75.233 75.233-33.437 75.233-75.233 75.233z" fill="#18b35c"/><g fill="#115baa"><path d="M236.669 236.147c-29.257 29.257-76.278 29.257-105.535 0l-27.167 27.167c43.886 43.886 115.984 43.886 159.869 0s43.886-114.939 0-159.869l-27.167 27.167a74.417 74.417 0 0 1 0 105.535z"/><path d="M103.967 103.445c-43.886 43.886-43.886 114.939 0 159.869l27.167-27.167c-29.257-29.257-29.257-76.278 0-105.535s76.278-29.257 105.535 0l27.167-27.167c-43.885-43.886-115.983-43.886-159.869 0z"/></g></svg>