<svg xmlns="http://www.w3.org/2000/svg" xmlns:xlink="http://www.w3.org/1999/xlink" width="409" height="409"><defs><path id="a" d="M0 0h409v409H0z"/></defs><clipPath id="b"><use xlink:href="#a" overflow="visible"/></clipPath><path clip-path="url(#b)" fill="none" stroke="#174F82" stroke-width="18" stroke-miterlimit="10" d="M332.362 226.65H34c-13.813 0-25 11.188-25 25v44.45c0 13.813 11.187 25 25 25h298.362c13.813 0 25-11.188 25-25v-44.45c0-13.8-11.2-25-25-25zm0-108.825H34c-13.813 0-25 11.188-25 25v44.462c0 13.813 11.187 25 25 25h298.362c13.813 0 25-11.187 25-25v-44.462c0-13.8-11.2-25-25-25zm0-108.825H34C20.188 9 9 20.188 9 34v44.462c0 13.813 11.187 25 25 25h298.362c13.813 0 25-11.187 25-25V34c0-13.812-11.2-25-25-25z"/><path clip-path="url(#b)" fill="#18b35c" d="M61.45 71.225c-8.28 0-15-6.72-15-15s6.72-15 15-15 15 6.72 15 15c0 8.29-6.72 15-15 15"/><path clip-path="url(#b)" fill="#1D5081" d="M312.036 68.975h-54.723c-7.038 0-12.75-5.712-12.75-12.75s5.712-12.75 12.75-12.75h54.723c7.038 0 12.75 5.712 12.75 12.75 0 7.046-5.712 12.75-12.75 12.75m-7.124 223.6h-80.475c-10.35 0-18.75-8.4-18.75-18.75 0-10.351 8.4-18.75 18.75-18.75h80.475c10.351 0 18.75 8.399 18.75 18.75 0 10.363-8.399 18.75-18.75 18.75"/><path clip-path="url(#b)" fill="#18b35c" d="M61.513 180.05c-8.28 0-15-6.72-15-15s6.72-15 15-15 15 6.72 15 15c0 8.29-6.721 15-15 15m0 108.825c-8.28 0-15-6.721-15-15s6.72-15 15-15 15 6.721 15 15c0 8.29-6.721 15-15 15"/><path clip-path="url(#b)" fill="#18B35C" d="M283.375 134.75s-40.125 47.375-113.125 44.375v47.138c0 74.35 44.588 141.438 113.125 170.237C351.912 367.7 396.5 300.612 396.5 226.263v-47.138c-73 3-113.125-44.375-113.125-44.375"/><path clip-path="url(#b)" fill="#129B49" d="M282.45 135.775c-6.062 6.6-45.263 46.1-112.2 43.35v47.138c0 74 44.2 140.787 112.2 169.8V135.775z"/><path clip-path="url(#b)" fill="#F3F3F3" d="M283.375 409c-1.65 0-3.3-.325-4.838-.975C205.163 377.2 157.75 305.85 157.75 226.275v-47.151c0-3.4 1.388-6.662 3.85-9.024 2.45-2.351 5.725-3.701 9.163-3.463 65.524 2.775 101.599-38.275 103.099-40.013a12.558 12.558 0 0 1 9.5-4.375h.038a12.585 12.585 0 0 1 9.487 4.388c1.575 1.825 37.513 42.813 103.1 40 3.449-.225 6.713 1.125 9.163 3.463a12.51 12.51 0 0 1 3.85 9.024v47.138c0 79.575-47.412 150.925-120.787 181.75a12.267 12.267 0 0 1-4.838.988M182.75 191.663v34.613c0 67.725 39.325 128.612 100.625 156.574C344.675 354.888 384 294 384 226.275v-34.613c-50.838-1.725-85.063-25.663-100.625-39.4-15.562 13.751-49.787 37.689-100.625 39.401"/><path clip-path="url(#b)" fill="#129B49" d="M318.412 281.425h-20.699c-6.625 0-12.013-5.425-11.976-12.05v-.95C285.7 262.125 290.8 257 297.088 257h22.261c7.727 0 13.938-6.463 13.526-14.275-.388-7.324-6.963-12.813-14.287-12.813h-16.013c-6.188 0-11.088-5.199-10.713-11.375.013-.274.025-.551.025-.824v-.15c-.038-6.263 5.063-11.388 11.325-11.388h6.386c7.477 0 13.552-6.063 13.552-13.537 0-7.488-6.063-13.55-13.552-13.55H268.25v180.938h39.675c7.726 0 13.938-6.463 13.525-14.275-.388-7.325-6.963-12.813-14.288-12.813h-10.887c-6.551 0-11.427-5.5-11.351-12.05v-.325c-.076-6.55 4.8-12.05 11.351-12.05h22.899c7.726 0 13.938-6.463 13.525-14.274-.374-7.327-6.949-12.814-14.287-12.814"/><path clip-path="url(#b)" fill="#FFF" d="M264.943 310.629a14.375 14.375 0 0 1-10.201-4.224l-24.271-24.271c-5.638-5.638-5.638-14.764 0-20.401 5.626-5.638 14.763-5.638 20.4 0l14.072 14.072 50.948-50.948c5.638-5.638 14.764-5.638 20.4 0 5.638 5.638 5.638 14.763 0 20.4l-61.148 61.148a14.419 14.419 0 0 1-10.2 4.224"/></svg>