<svg xmlns="http://www.w3.org/2000/svg" width="400" height="400"><path fill="#18b35c" d="M179.387 336.45h41.226v41.226h-41.226z"/><path d="M366.611 144.748H33.389c-6.125 0-11.129 4.938-11.129 11.129v78.169c0 6.124 4.938 11.13 11.129 11.13h333.223c6.125 0 11.129-4.939 11.129-11.13v-78.169c-.001-6.058-5.005-11.129-11.13-11.129zM33.389 122.555h333.223c6.125 0 11.129-4.939 11.129-11.129V33.322c0-6.125-4.938-11.129-11.129-11.129H33.389c-6.125 0-11.129 4.939-11.129 11.129v78.169c-.001 6.125 5.004 11.064 11.129 11.064z" fill="#FFF"/><path fill="#194F82" d="M399.934 33.322C399.934 14.949 384.984 0 366.611 0H33.389C15.015 0 .066 14.949.066 33.322v78.169c0 8.495 3.227 16.266 8.561 22.193-5.334 5.927-8.561 13.697-8.561 22.259v78.169c0 18.373 14.949 33.322 33.322 33.322h155.548v46.823h-20.612c-6.125 0-11.129 4.938-11.129 11.129v20.611H58.018c-6.124 0-11.129 4.939-11.129 11.129 0 6.125 4.938 11.13 11.129 11.13h99.177v20.612c0 6.124 4.938 11.129 11.129 11.129h63.417c6.125 0 11.13-4.938 11.13-11.129v-20.612h99.177c6.125 0 11.129-4.938 11.129-11.13 0-6.123-4.938-11.129-11.129-11.129h-99.242v-20.611c0-6.125-4.938-11.129-11.129-11.129h-20.612v-46.823h155.548c18.373 0 33.322-14.949 33.322-33.322v-78.169c0-8.495-3.227-16.267-8.561-22.193 5.269-5.927 8.561-13.697 8.561-22.193V33.322h-.001zM377.74 234.047c0 6.125-4.938 11.129-11.129 11.129H33.389c-6.125 0-11.129-4.938-11.129-11.129v-78.169c0-6.124 4.938-11.129 11.129-11.129h333.223c6.125 0 11.129 4.938 11.129 11.129v78.169h-.001zM22.259 33.322c0-6.125 4.938-11.129 11.129-11.129h333.223c6.125 0 11.129 4.939 11.129 11.129v78.169c0 6.124-4.938 11.129-11.129 11.129H33.389c-6.125 0-11.129-4.938-11.129-11.129l-.001-78.169zm198.354 344.352h-41.226v-41.225h41.226v41.225z"/><path fill="#56ACE0" d="M44.451 221.205v-52.421c0-.922.791-1.713 1.712-1.713h307.541c.922 0 1.712.791 1.712 1.713v52.421c0 .922-.79 1.712-1.712 1.712H46.296c-1.054 0-1.845-.79-1.845-1.712z"/><path fill="#18b35c" d="M44.451 98.649V46.23c0-.922.791-1.712 1.712-1.712h307.541c.922 0 1.712.791 1.712 1.712v52.419c0 .922-.79 1.712-1.712 1.712H46.296c-1.054.001-1.845-.79-1.845-1.712z"/><path d="M275.666 61.311h-8.956c-6.124 0-11.129 4.938-11.129 11.129a11.072 11.072 0 0 0 11.129 11.129h8.956c6.125 0 11.129-4.938 11.129-11.129s-5.004-11.129-11.129-11.129zm55.779 0h-8.956c-6.124 0-11.129 4.938-11.129 11.129a11.072 11.072 0 0 0 11.129 11.129h8.956c6.125 0 11.129-4.938 11.129-11.129s-5.004-11.129-11.129-11.129zM64.669 51.695c-6.125 0-11.129 4.938-11.129 11.129v19.099c0 6.124 4.938 11.129 11.129 11.129 6.19 0 11.129-4.938 11.129-11.129V62.825c0-6.124-5.005-11.13-11.129-11.13zm48.008 0c-6.125 0-11.129 4.938-11.129 11.129v19.099c0 6.124 4.938 11.129 11.129 11.129s11.129-4.938 11.129-11.129V62.825c0-6.124-4.939-11.13-11.129-11.13zM64.669 174.251c-6.125 0-11.129 4.939-11.129 11.129v19.097c0 6.124 4.938 11.13 11.129 11.13 6.19 0 11.129-4.939 11.129-11.13V185.38c0-6.124-5.005-11.129-11.129-11.129zm48.008 0c-6.125 0-11.129 4.939-11.129 11.129v19.097c0 6.124 4.938 11.13 11.129 11.13s11.129-4.939 11.129-11.13V185.38c0-6.124-4.939-11.129-11.129-11.129zm162.989 9.615h-8.956c-6.124 0-11.129 4.938-11.129 11.129a11.072 11.072 0 0 0 11.129 11.129h8.956c6.125 0 11.129-4.938 11.129-11.129s-5.004-11.129-11.129-11.129zm55.779 0h-8.956c-6.124 0-11.129 4.938-11.129 11.129a11.072 11.072 0 0 0 11.129 11.129h8.956c6.125 0 11.129-4.938 11.129-11.129s-5.004-11.129-11.129-11.129z" fill="#194F82"/></svg>