<svg xmlns="http://www.w3.org/2000/svg" xmlns:xlink="http://www.w3.org/1999/xlink" width="362.869" height="296.123"><defs><path id="a" d="M0 0h362.869v296.123H0z"/></defs><clipPath id="b"><use xlink:href="#a" overflow="visible"/></clipPath><g clip-path="url(#b)"><defs><path id="c" d="M0 0h362.869v296.123H0z"/></defs><clipPath id="d"><use xlink:href="#c" overflow="visible"/></clipPath><path clip-path="url(#d)" fill="#F37422" d="M87.303 144.135c5.731 56.982 93.204 157.644 151.912 151.739 58.708-5.904 66.421-116.139 60.689-173.121-5.73-56.981-57.969-98.389-116.677-92.484-58.708 5.904-101.654 56.884-95.924 113.866"/><path clip-path="url(#d)" fill="#CC510D" d="M49.2 246.603c17.225 37.089 95.328 49.324 159.838 38.82 64.511-10.505 166.599-58.418 152.514-144.916-5.482-33.669-41.157-94.051-174.353-54.325C113.275 108.231 25.406 195.37 49.2 246.603"/><g opacity=".9" clip-path="url(#d)"><defs><path id="e" d="M19.575 56.947h312.976V272.11H19.575z"/></defs><clipPath id="f"><use xlink:href="#e" overflow="visible"/></clipPath><path clip-path="url(#f)" fill="#FFC10D" d="M19.575 137.17c0 64.496 116.088 134.94 180.129 134.94 64.043 0 132.847-70.444 132.847-134.94S305.531 28.999 210.963 77.9c-56.971 29.46-191.388-5.226-191.388 59.27"/></g><g opacity=".8" clip-path="url(#d)"><defs><path id="g" d="M215.235 0h58.793v53.053h-58.793z"/></defs><clipPath id="h"><use xlink:href="#g" overflow="visible"/></clipPath><path clip-path="url(#h)" fill="#FFC10D" d="M219.216 49.269c7.565 7.123 37.513 4.141 49.443-8.531 11.931-12.671 1.326-30.234-6.239-37.357-7.566-7.123-23.37-2.624-35.301 10.047-11.93 12.672-15.469 28.718-7.903 35.841"/></g><path clip-path="url(#d)" fill="#CC510D" d="M38.089 216.156c3.68-6.847-2.618-27.015-12.813-32.494s-20.425 5.804-24.105 12.65c-3.68 6.848 1.601 16.84 11.795 22.319 10.196 5.48 21.443 4.372 25.123-2.475M306.557 43.631c-2.283 4.255 2.668 17.334 9.794 21.159 7.126 3.825 13.727-3.054 16.011-7.307 2.283-4.255-1.642-10.804-8.768-14.629-7.126-3.826-14.754-3.477-17.037.777"/><path clip-path="url(#d)" fill="#FFF" d="M112.279 219.392c-3.258 0-6.227-.712-8.906-2.134a22.29 22.29 0 0 1-6.868-5.609c-1.899-2.316-3.367-4.965-4.422-7.945a27.437 27.437 0 0 1-1.578-9.224c0-3.207.547-6.305 1.64-9.285 1.094-2.984 2.618-5.609 4.579-7.879s4.281-4.083 6.961-5.438c2.68-1.352 5.609-2.027 8.781-2.027 3.258 0 6.227.711 8.907 2.133a21.882 21.882 0 0 1 6.867 5.642c1.899 2.34 3.368 5 4.399 7.98 1.031 2.984 1.547 6.012 1.547 9.082 0 3.211-.547 6.31-1.641 9.29-1.093 2.984-2.609 5.609-4.547 7.879a22.558 22.558 0 0 1-6.93 5.469c-2.679 1.377-5.61 2.066-8.789 2.066m-11.446-24.772c0 1.879.25 3.703.75 5.469.492 1.767 1.227 3.337 2.196 4.716.969 1.375 2.172 2.477 3.617 3.301s3.094 1.238 4.945 1.238c1.938 0 3.633-.434 5.078-1.309a11.478 11.478 0 0 0 3.587-3.406c.945-1.398 1.656-2.98 2.133-4.747a20.66 20.66 0 0 0 .711-5.402 19.98 19.98 0 0 0-.743-5.469c-.492-1.766-1.234-3.324-2.226-4.68a11.358 11.358 0 0 0-3.617-3.23c-1.423-.805-3.063-1.207-4.923-1.207-1.937 0-3.617.426-5.039 1.273a11.693 11.693 0 0 0-3.586 3.336c-.969 1.379-1.695 2.949-2.164 4.715a20.62 20.62 0 0 0-.719 5.402m39.228 24.357v-48.855h29.821v9.912h-19.68v10.524h16.212v9.152h-16.212v19.267zm35.205 0v-48.855h29.821v9.912h-19.68v10.524h16.211v9.152h-16.211v19.267zm66.073-9.907v9.907h-30.877v-48.854h30.315v9.911h-20.166v9.492h17.321v9.153h-17.321v10.391zm6.18 9.907v-48.854h19.797c2.063 0 3.969.48 5.727 1.445a15.583 15.583 0 0 1 4.548 3.786 18.338 18.338 0 0 1 3 5.297c.718 1.973 1.078 3.969 1.078 5.984 0 1.516-.164 2.973-.492 4.371s-.806 2.719-1.423 3.957a14.948 14.948 0 0 1-2.258 3.336 13.916 13.916 0 0 1-3 2.513l9.649 18.164H272.7l-8.415-15.758h-6.617v15.758h-10.149zm10.148-25.595h9.281c1.196 0 2.227-.633 3.094-1.895.86-1.262 1.298-2.879 1.298-4.852 0-2.016-.493-3.621-1.484-4.817-.993-1.19-2.063-1.784-3.22-1.784h-8.969v13.348z"/></g><g clip-path="url(#b)"><text transform="translate(90.505 160.561)"><tspan x="0" y="0" fill="#FFF" font-family="'MyriadPro-Regular'" font-size="60">H</tspan><tspan x="39.12" y="0" fill="#FFF" font-family="'MyriadPro-Regular'" font-size="60" letter-spacing="-1">O</tspan><tspan x="78.959" y="0" fill="#FFF" font-family="'MyriadPro-Regular'" font-size="60">T</tspan></text></g></svg>