<svg xmlns="http://www.w3.org/2000/svg" xmlns:xlink="http://www.w3.org/1999/xlink" width="612" height="449"><defs><path id="a" d="M0 0h612.001v448.799H0z"/></defs><clipPath id="b"><use xlink:href="#a" overflow="visible"/></clipPath><path clip-path="url(#b)" fill="#194F82" d="M71.4 50.999H61.201c-5.634 0-10.2 4.566-10.2 10.2 0 5.633 4.566 10.2 10.2 10.2H71.4c5.634 0 10.2-4.567 10.2-10.199 0-5.633-4.566-10.201-10.2-10.201"/><path clip-path="url(#b)" fill="#FFC10D" d="M122.4 50.999h-10.2c-5.633 0-10.199 4.566-10.199 10.2 0 5.633 4.566 10.2 10.199 10.2h10.2c5.634 0 10.2-4.567 10.2-10.199.001-5.633-4.566-10.201-10.2-10.201"/><path clip-path="url(#b)" fill="#194F82" d="M173.401 50.999h-10.2c-5.633 0-10.199 4.566-10.199 10.2 0 5.633 4.566 10.199 10.199 10.199h10.2c5.633 0 10.2-4.567 10.2-10.199 0-5.633-4.568-10.2-10.2-10.2m193.8 10.201c0-5.633-4.566-10.2-10.2-10.2h-40.799c-5.634 0-10.2 4.567-10.2 10.2 0 5.634 4.566 10.2 10.2 10.2H357c5.634 0 10.201-4.566 10.201-10.2M71.4 193.799H61.201c-5.634 0-10.2 4.566-10.2 10.2 0 5.633 4.566 10.199 10.2 10.199H71.4c5.634 0 10.2-4.566 10.2-10.199 0-5.634-4.566-10.2-10.2-10.2"/><path clip-path="url(#b)" fill="#FFC10D" d="M122.4 193.799h-10.2c-5.633 0-10.199 4.566-10.199 10.2 0 5.633 4.567 10.199 10.199 10.199h10.2c5.634 0 10.2-4.566 10.2-10.199.001-5.634-4.566-10.2-10.2-10.2"/><path clip-path="url(#b)" fill="#194F82" d="M173.401 193.799h-10.2c-5.633 0-10.199 4.566-10.199 10.2 0 5.633 4.566 10.199 10.199 10.199h10.2c5.633 0 10.2-4.566 10.2-10.199 0-5.634-4.568-10.2-10.2-10.2M71.4 336.6H61.201c-5.634 0-10.2 4.566-10.2 10.2 0 5.633 4.566 10.199 10.2 10.199H71.4c5.634 0 10.2-4.566 10.2-10.199 0-5.634-4.566-10.2-10.2-10.2"/><path clip-path="url(#b)" fill="#FFC10D" d="M122.4 336.6h-10.2c-5.633 0-10.199 4.566-10.199 10.2 0 5.633 4.567 10.199 10.199 10.199h10.2c5.634 0 10.2-4.566 10.2-10.199.001-5.634-4.566-10.2-10.2-10.2"/><path clip-path="url(#b)" fill="#194F82" d="M173.401 336.6h-10.2c-5.633 0-10.199 4.566-10.199 10.2 0 5.633 4.566 10.199 10.199 10.199h10.2c5.633 0 10.2-4.566 10.2-10.199 0-5.634-4.568-10.2-10.2-10.2m183.599 0h-40.799c-5.634 0-10.2 4.566-10.2 10.2 0 5.633 4.566 10.199 10.2 10.199H357c5.634 0 10.2-4.566 10.2-10.199.001-5.634-4.566-10.2-10.2-10.2"/><path clip-path="url(#b)" fill="#194F82" d="M599.19 94.777L490.148 41.875a36.626 36.626 0 0 0-31.706.011l-9.643 4.676V30.6C448.782 13.707 435.092.017 418.2 0H30.6C13.708.017.018 13.707 0 30.6v61.2c.018 16.892 13.708 30.582 30.6 30.6h5.977l20.4 20.4H30.6C13.708 142.818.018 156.508 0 173.4v61.2c.018 16.892 13.708 30.583 30.6 30.6h5.977l20.4 20.4H30.6C13.708 285.617.018 299.309 0 316.199v61.2c.018 16.893 13.708 30.582 30.6 30.6v10.2c.019 16.892 13.708 30.582 30.601 30.6h20.4c16.892-.018 30.582-13.708 30.6-30.6v-10.2H336.6v10.2c.019 16.892 13.708 30.582 30.601 30.6h20.4c16.892-.018 30.582-13.708 30.6-30.6v-10.2c16.893-.018 30.582-13.707 30.601-30.6v-13.174l9.746 7.715a25.587 25.587 0 0 0 31.492 0l42.005-33.239a202.637 202.637 0 0 0 79.957-158.747v-64.936a22.399 22.399 0 0 0-12.812-20.241M30.6 101.999c-5.631-.006-10.194-4.568-10.199-10.199V30.6c.006-5.631 4.568-10.195 10.199-10.2h387.601c5.631.006 10.195 4.569 10.2 10.2v25.858L349.4 94.777a22.653 22.653 0 0 0-8.438 7.222H30.6zm326.024 163.2a203.895 203.895 0 0 0 11.498 20.401H85.824l-20.401-20.401h291.201zM336.6 122.4v20.4H85.824l-20.401-20.4H336.6zm-306 122.4c-5.631-.006-10.194-4.568-10.199-10.199v-61.2c.006-5.631 4.568-10.195 10.199-10.199h306v16.754c0 4.637.228 9.249.563 13.846H316.2c-5.633 0-10.2 4.566-10.2 10.199 0 5.634 4.567 10.2 10.2 10.2h23.517a193.808 193.808 0 0 0 8.263 30.6H30.6zm61.2 173.399c-.006 5.631-4.568 10.194-10.199 10.199h-20.4c-5.632-.006-10.195-4.568-10.2-10.199v-10.2H91.8v10.2zm306 0c-.006 5.631-4.568 10.194-10.199 10.199h-20.4c-5.631-.006-10.195-4.568-10.2-10.199v-10.2h40.8v10.2zm30.601-40.8c-.007 5.631-4.569 10.195-10.2 10.2H30.6c-5.631-.007-10.194-4.569-10.199-10.2v-61.2c.006-5.631 4.568-10.194 10.199-10.199h352.414a221.084 221.084 0 0 0 33.532 32.691l11.854 9.384v29.324zM591.6 179.954a182.368 182.368 0 0 1-72.197 142.74l-42.024 33.26a5.093 5.093 0 0 1-6.165-.011l-42.021-33.26a192.386 192.386 0 0 1-56.665-71.619l-.04-.087a172.354 172.354 0 0 1-15.485-71.024v-64.936a2.153 2.153 0 0 1 1.3-1.882L467.34 60.242a16.126 16.126 0 0 1 13.916-.011l109.042 52.904.011.01a2.145 2.145 0 0 1 1.296 1.873l-.005 64.936z"/><path clip-path="url(#b)" fill="#CEE8FA" d="M475.552 135.408c-8.109 5.223-17.302 11.143-22.228 20.934-8.556 17.087 17.507 35.724 18.621 36.508.256.185.567.276.874.276.33 0 .659-.103.926-.309.518-.396.665-1.068.354-1.616-.095-.168-13.212-18.442-9.101-28.311 2.314-5.561 6.476-9.296 13.202-14.288 6.162-4.575 13.144-9.756 17.23-15.819 8.97-13.346-.999-26.468-1.102-26.598-.398-.506-1.127-.693-1.752-.444-.622.253-.97.874-.828 1.483.021.088 1.961 8.763-3.435 17.703-2.22 3.695-7.104 6.841-12.761 10.481"/><path clip-path="url(#b)" fill="#FFC10D" d="M472.82 197.786c-1.3 0-2.542-.398-3.59-1.148-.765-.539-7.896-5.658-13.841-12.995-10.698-13.205-9.294-23.269-6.231-29.387 5.502-10.936 15.688-17.495 23.872-22.765 4.951-3.186 9.626-6.196 11.292-8.967 4.248-7.042 2.938-13.99 2.881-14.279-.644-2.846.88-5.712 3.63-6.824a6.192 6.192 0 0 1 2.322-.449c1.887 0 3.698.873 4.844 2.34 3.432 4.31 10.396 18.535 1.299 32.069-4.525 6.719-11.838 12.15-18.288 16.941-6.311 4.681-9.84 7.867-11.708 12.358-2.037 4.889 3.008 15.742 8.556 23.759.18.262.271.417.286.445 1.481 2.602.821 5.808-1.567 7.634a6.19 6.19 0 0 1-3.757 1.268m21.465-74.312a30.986 30.986 0 0 1-1.979 3.86c-2.782 4.625-8.088 8.039-14.233 11.992-7.606 4.9-16.23 10.453-20.586 19.111-2.812 5.614-.38 11.809 3.443 17.147-1.525-5.014-2.032-10.165-.233-14.485 2.688-6.459 7.251-10.691 14.729-16.239 5.877-4.365 12.507-9.29 16.142-14.682 1.526-2.27 2.355-4.541 2.717-6.704"/><path clip-path="url(#b)" fill="#CEE8FA" d="M514.446 144.392c.518-.356.671-1.005.355-1.525-.313-.518-.993-.747-1.6-.538-1.245.434-30.481 10.751-30.481 23.219 0 8.593 4.009 13.135 6.936 16.449 1.151 1.3 2.142 2.422 2.469 3.382.918 2.764-1.259 7.757-2.178 9.447-.263.487-.132 1.075.315 1.431.243.192.547.288.849.288.26 0 .518-.069.746-.213.501-.32 12.282-7.947 10.17-17.137-.787-3.492-2.662-6.044-4.317-8.296-2.563-3.488-4.414-6.01-1.604-10.664 3.289-5.429 18.188-15.739 18.34-15.843"/><path clip-path="url(#b)" fill="#FFC10D" d="M491.111 201.206a6.056 6.056 0 0 1-3.731-1.287c-2.229-1.766-2.868-4.835-1.53-7.31 1.012-1.865 1.894-4.625 1.842-5.7-.296-.434-1.022-1.257-1.525-1.824-3.033-3.433-8.104-9.178-8.104-19.537 0-7.002 5.771-13.793 17.152-20.185 7.777-4.368 15.594-7.133 16.458-7.434a6.057 6.057 0 0 1 1.992-.337c2.09 0 4.052 1.094 5.121 2.856 1.585 2.629.836 6.041-1.698 7.783-6.908 4.796-15.216 11.482-16.997 14.418-1.131 1.874-1.198 1.987 1.376 5.491 1.83 2.491 4.106 5.59 5.109 10.028 2.784 12.119-10.671 21.106-12.213 22.091a6.028 6.028 0 0 1-3.252.947m.175-41.841c-2.436 2.197-3.905 4.333-3.905 6.183 0 6.833 3.064 10.303 5.769 13.365 1.416 1.6 2.754 3.114 3.385 4.963.084.255.158.514.217.778.723-1.45 1.07-2.961.736-4.416-.578-2.558-2.012-4.51-3.53-6.577-2.454-3.339-5.744-7.819-2.672-14.296"/><path clip-path="url(#b)" fill="#CEE8FA" d="M530.706 193.91c-6.287 0-12.245 3.147-12.498 3.282-.576.312 12.93 3.183 14.132 10.767 1.065 6.542-11.403 16.775-16.743 20.308a1.44 1.44 0 0 0 .794 2.638c.104 0 .204-.01.301-.033 1.267-.27 32.89-8.05 29.743-25.358-1.915-10.609-10.475-11.604-15.729-11.604"/><path clip-path="url(#b)" fill="#194F82" d="M551.023 204.686c-1.274-7.042-5.832-15.435-20.317-15.435-7.301 0-13.955 3.438-14.711 3.843a4.57 4.57 0 0 0-1.038.769 4.966 4.966 0 0 0-.506.345c-.637.461-16.78 11.772-45.277 12.794a229.2 229.2 0 0 1-7.942.147c-21.44 0-29.708-3.531-31.207-5.611-.186-.259-.184-.366-.137-.517.599-.845 4.64-3.115 16.532-3.987a4.66 4.66 0 0 0-.679-9.294c-14.878 1.089-22.72 4.359-24.674 10.267-1.038 3.094-.544 6.279 1.394 8.974 2.104 2.919 6.044 5.171 11.771 6.747-1.081 1.583-1.545 3.365-1.38 5.342.313 3.747 2.989 6.444 6.728 8.389-.89 1.232-1.491 2.706-1.683 4.442-.322 2.882.519 5.606 2.436 7.876 4.001 4.737 12.708 7.252 28.225 8.152 1.751.103 3.498.155 5.188.155 18.539 0 31.225-5.908 31.755-6.16a4.661 4.661 0 0 0 2.217-6.206 4.658 4.658 0 0 0-6.206-2.216c-.111.053-11.302 5.262-27.766 5.262-1.51 0-3.074-.047-4.646-.139-16.647-.967-20.684-3.724-21.647-4.861-.316-.375-.319-.58-.292-.835l.007-.045c.298-.57 2.77-1.5 5.45-1.57.021 0 .04-.004.063-.004a93.18 93.18 0 0 0 7.935.886c1.621.11 3.367.167 5.19.167 18.274 0 41.095-5.635 41.32-5.693a4.656 4.656 0 0 0 3.377-5.646 4.663 4.663 0 0 0-5.646-3.392c-.22.054-22.317 5.411-39.055 5.411-1.605 0-3.137-.049-4.544-.147-10.554-.731-16.836-3.015-18.707-4.448.776-.54 2.559-1.472 6.405-2.404 3.732.281 7.823.424 12.281.424 2.627 0 5.406-.051 8.268-.152 27.47-.984 44.325-10.557 49.324-13.839 6.93 2.587 8.685 4.796 8.912 6.234.085.522-.602 2.989-4.737 7.312-3.164 3.309-7.291 6.583-9.972 8.357-2.452 1.618-3.401 4.757-2.269 7.433a6.075 6.075 0 0 0 6.986 3.599c2.039-.478 37.199-9.11 33.274-30.726m-19.044 15.272c3.953-4.767 5.578-8.954 4.963-12.728-.591-3.723-2.853-6.538-5.563-8.651 6.455.144 9.506 2.426 10.473 7.767 1.04 5.721-3.97 10.294-9.873 13.612"/><path clip-path="url(#b)" fill="#194F82" d="M534.459 250.487a4.66 4.66 0 0 0-6.584.26c-2.49 2.692-21.836 10.094-62.129 10.145l-.154-.003c-37.798 0-47.027-4.028-49.16-6.423-.378-.426-.448-.722-.439-.988.285-.303 1.653-1.456 6.518-2.481 4.59-.969 10.311-1.397 14.211-1.636a4.665 4.665 0 0 0 4.37-4.935 4.661 4.661 0 0 0-4.936-4.368c-13.639.834-28.282 2.529-29.405 12.166-.364 3.105.572 6.02 2.716 8.432 2.427 2.726 6.768 5.486 18.066 7.334 4.101 2.509 11.037 6.502 15.512 7.724.585.157 1.248.352 1.999.572 6.088 1.777 17.422 5.087 36.604 5.489 1.614.036 3.223.052 4.825.052 10.854 0 21.44-.776 31.535-2.32a4.657 4.657 0 0 0 3.899-5.309 4.658 4.658 0 0 0-5.311-3.904c-11.052 1.689-22.745 2.416-34.75 2.164-9.589-.201-17.067-1.175-22.821-2.292 2.051.029 4.182.045 6.408.045l.162.002h.003c39.179-.032 63.295-6.834 69.121-13.139a4.661 4.661 0 0 0-.26-6.587"/></svg>