<svg xmlns="http://www.w3.org/2000/svg" xmlns:xlink="http://www.w3.org/1999/xlink" width="400.001" height="293.333"><defs><path id="a" d="M0 0h400.001v293.333H0z"/></defs><clipPath id="b"><use xlink:href="#a" overflow="visible"/></clipPath><path clip-path="url(#b)" fill="#184F82" d="M226.934 80H20C8.959 79.988.013 71.041 0 60V20C.013 8.959 8.959.012 20 0h253.334c11.04.012 19.988 8.959 20 20v21.068a6.666 6.666 0 1 1-13.333 0V20a6.674 6.674 0 0 0-6.667-6.667H20A6.674 6.674 0 0 0 13.333 20v40A6.673 6.673 0 0 0 20 66.667h206.934c3.683 0 6.666 2.985 6.666 6.667S230.616 80 226.934 80"/><path clip-path="url(#b)" fill="#184F82" d="M46.667 46.667H40c-3.682 0-6.667-2.984-6.667-6.667s2.985-6.667 6.667-6.667h6.667a6.667 6.667 0 0 1 0 13.334"/><path clip-path="url(#b)" fill="#FFC10D" d="M80 46.667h-6.667c-3.682 0-6.667-2.984-6.667-6.667s2.985-6.667 6.667-6.667H80a6.667 6.667 0 0 1 0 13.334"/><path clip-path="url(#b)" fill="#184F82" d="M113.333 46.667h-6.667c-3.682 0-6.666-2.984-6.666-6.667s2.985-6.667 6.666-6.667h6.667a6.667 6.667 0 0 1 0 13.334m120.001 0h-26.667c-3.683 0-6.666-2.984-6.666-6.667s2.985-6.667 6.666-6.667h26.667c3.682 0 6.666 2.985 6.666 6.667s-2.984 6.667-6.666 6.667m-6.667 60H53.333a6.67 6.67 0 0 1-4.713-1.953L21.954 78.047a6.667 6.667 0 1 1 4.714-11.381h200.267c3.683 0 6.666 2.985 6.666 6.667S230.617 80 226.934 80H42.76l13.333 13.334h170.572a6.666 6.666 0 0 1 .002 13.333"/><path clip-path="url(#b)" fill="#184F82" d="M237.334 173.333H20c-11.041-.012-19.988-8.959-20-20v-40c.012-11.041 8.959-19.988 20-20h206.666a6.667 6.667 0 0 1 0 13.333H20a6.674 6.674 0 0 0-6.667 6.667v40A6.673 6.673 0 0 0 20 159.999h217.334a6.665 6.665 0 0 1 6.667 6.666 6.667 6.667 0 0 1-6.667 6.668"/><path clip-path="url(#b)" fill="#184F82" d="M46.667 140H40a6.666 6.666 0 1 1 0-13.333h6.667a6.667 6.667 0 1 1 0 13.333"/><path clip-path="url(#b)" fill="#FFC10D" d="M80 140h-6.667a6.666 6.666 0 1 1 0-13.333H80A6.667 6.667 0 1 1 80 140"/><path clip-path="url(#b)" fill="#184F82" d="M113.333 140h-6.667a6.666 6.666 0 0 1-6.666-6.667 6.666 6.666 0 0 1 6.666-6.666h6.667a6.667 6.667 0 1 1 0 13.333m113.334 0h-20a6.666 6.666 0 0 1-6.666-6.667 6.665 6.665 0 0 1 6.666-6.666h20a6.666 6.666 0 1 1 0 13.333M240 200.001H53.333a6.67 6.67 0 0 1-4.713-1.953L21.954 171.38A6.665 6.665 0 1 1 26.668 160h210.667c3.682 0 6.666 2.983 6.666 6.666s-2.984 6.667-6.666 6.667H42.76l13.334 13.334H240a6.665 6.665 0 0 1 6.666 6.666 6.665 6.665 0 0 1-6.666 6.668"/><path clip-path="url(#b)" fill="#184F82" d="M273.334 266.667H20c-11.041-.012-19.988-8.959-20-20v-40c.012-11.041 8.959-19.988 20-20h233.532a6.665 6.665 0 0 1 6.666 6.666 6.666 6.666 0 0 1-6.666 6.667H20a6.673 6.673 0 0 0-6.667 6.666v40.001A6.671 6.671 0 0 0 20 253.333h253.334a6.671 6.671 0 0 0 6.666-6.666v-22.402a6.665 6.665 0 0 1 6.666-6.666 6.665 6.665 0 0 1 6.667 6.666v22.402c-.012 11.041-8.958 19.988-19.999 20"/><path clip-path="url(#b)" fill="#184F82" d="M46.667 233.333H40a6.666 6.666 0 1 1 0-13.332h6.667a6.666 6.666 0 1 1 0 13.332"/><path clip-path="url(#b)" fill="#FFC10D" d="M80 233.333h-6.667a6.666 6.666 0 1 1 0-13.332H80a6.666 6.666 0 1 1 0 13.332"/><path clip-path="url(#b)" fill="#184F82" d="M113.333 233.333h-6.667a6.666 6.666 0 0 1 0-13.332h6.667a6.666 6.666 0 1 1 0 13.332m120.001 0h-26.667a6.666 6.666 0 0 1 0-13.332h26.667c3.682 0 6.666 2.984 6.666 6.666s-2.984 6.666-6.666 6.666m-180.001 60H40c-11.041-.012-19.988-8.959-20-20V260a6.665 6.665 0 0 1 6.667-6.667h40A6.662 6.662 0 0 1 73.335 260v13.333c-.014 11.041-8.96 19.988-20.002 20m-20-26.666v6.666A6.672 6.672 0 0 0 40 280h13.333A6.672 6.672 0 0 0 60 273.333v-6.666H33.333zm220.001 26.666H240c-11.041-.012-19.988-8.959-20-20V260a6.66 6.66 0 0 1 6.667-6.667h40a6.66 6.66 0 0 1 6.667 6.667v13.333c-.013 11.041-8.959 19.988-20 20m-20-26.666v6.666A6.67 6.67 0 0 0 240 280h13.334a6.672 6.672 0 0 0 6.666-6.667v-6.666h-26.666zM310 246.642a16.562 16.562 0 0 1-10.296-3.541l-27.452-21.731A132.435 132.435 0 0 1 220 117.62V75.178a14.638 14.638 0 0 1 8.365-13.229l71.27-34.57a23.946 23.946 0 0 1 20.724-.007l71.27 34.577a14.637 14.637 0 0 1 8.373 13.229v42.441a132.44 132.44 0 0 1-52.26 103.756l-27.453 21.726A16.545 16.545 0 0 1 310 246.642m0-208.302a10.467 10.467 0 0 0-4.551 1.035l-71.268 34.57a1.409 1.409 0 0 0-.849 1.23v42.441a119.186 119.186 0 0 0 47.185 93.287l27.465 21.739a3.33 3.33 0 0 0 4.028.008l27.467-21.738a119.193 119.193 0 0 0 47.188-93.294V75.176a1.4 1.4 0 0 0-.847-1.224l-.007-.007-71.27-34.577A10.496 10.496 0 0 0 310 38.34"/><path clip-path="url(#b)" fill="#FFF" d="M310.83 89.497a6.088 6.088 0 0 1-.027-.588c0-2.871 1.881-5.208 4.192-5.208 2.366 0 4.219 2.288 4.219 5.208 0 .662-.099 1.299-.284 1.888.693-1.102 1.094-2.488 1.094-3.942 0-3.492-2.232-6.334-4.976-6.334s-4.975 2.842-4.975 6.334c0 .858.133 1.698.399 2.504l.358.138m-12.387-5.521c.149-.022.287-.034.424-.034 1.839 0 3.489 1.806 3.922 4.294.043.274.071.545.082.813.12-.06.241-.117.366-.17.061-.431.09-.836.09-1.242 0-3.222-1.707-5.943-3.726-5.943-1.72 0-3.168 1.895-3.582 4.454.47-1.168 1.33-1.99 2.424-2.172m34.649 64.972c.462-1.961 1.381-6.971.511-13.029-1.102-7.657-11.876-31.5-13.729-34.163-1.082.152-3.954 1.812-6.286 3.159-2.702 1.561-5.498 3.177-7.398 3.725a4.51 4.51 0 0 1-1.24.167c-2.776 0-5.784-2.347-7.722-4.197-.339 3.589-2.252 8.144-4.323 10.485-1.306 1.499-2.475 4.925-3.604 8.238-1.047 3.067-2.129 6.24-3.454 8.332-2.681 4.177-4.22 12.292-2.268 16.907.942 2.236 4.37 4.879 7.392 7.208 3.699 2.851 6.891 5.313 7.243 7.794.411 2.935-1.149 4.561-2.711 5.332l3.958 4.529c.613.094 2.085.271 4.395.271 2.701 0 5.697-.237 8.907-.703 7.878-1.167 13.366-7.66 14.45-9.038.006-1.826.063-9.952.596-12.493.206-.979 1.001-2.616 4.001-2.616.466-.001.91.041 1.282.092"/><path clip-path="url(#b)" fill="#FFC10D" d="M298.71 98.649c.156.601 1.521 2.138 3.649 3.532.303.195.585.388.853.569 1.179.8 1.703 1.129 2.55 1.015 1.249-.163 5.851-2.952 7.814-4.143l.488-.297c.731-.445 1.317-.749 1.787-.994.929-.484 1.014-.562 1.053-.739-.105-.273-.974-1.006-2.639-1.578-.529-.19-1.282-.49-2.151-.838-1.882-.751-4.46-1.779-5.506-1.964a.646.646 0 0 0-.133-.011c-.891 0-2.687 1.116-4.474 2.776-.877.795-2.598 2.136-3.291 2.672m-15.709 61.626c-.775-1.294-1.443-2.414-1.804-2.971-1.425-2.216-3.895-4.69-5.072-4.69a.363.363 0 0 0-.192.045c-.629.358-1.155 1.447-1.668 2.501-.706 1.458-1.506 3.109-2.986 4.005-1.091.664-2.765 1.026-4.381 1.379-1.15.249-3.841.833-3.97 1.379-.174.736-.012 1.496.193 2.459.242 1.135.546 2.548.288 4.282-.181 1.088-.512 2.128-.832 3.133-.444 1.398-.95 2.983-.513 3.473.535.473 3.771.994 6.133 1.378 2.969.48 6.04.979 7.921 1.767l.498.209c3.369 1.416 9.638 4.051 12.806 4.051.288 0 .533-.023.73-.068.547-.367 2.861-2.03 3.296-4.073.593-2.636-1.819-5.708-3.311-7.305-1.654-1.778-4.822-7.082-7.136-10.954m71.587 6.313l-.385-.204c-2.651-1.4-4.047-5.205-3.861-8.071.034-.528-.03-.938-.138-1.251-.489.805-1.188 1.822-2.021 2.653-1.411 1.411-4.857 2.936-7.963 2.936-1.159 0-2.215-.206-3.139-.607-3.101-1.353-3.522-5.229-3.53-7.174a.794.794 0 0 0-.125.046c-.19.67-.007 2.929.117 4.449.065.813.135 1.653.177 2.426.173 3.4-.908 9.167-1.849 13.405-.892 4.15.768 7.061 2.784 7.689.182.058.384.086.608.086 1.857 0 4.934-1.923 7.651-4.782 1.931-2.032 6.231-4.229 10.025-6.166 2.14-1.092 4.35-2.222 4.979-2.796.14-.129.16-.203.16-.203-.036-.624-2.545-1.94-3.49-2.436"/><path clip-path="url(#b)" fill="#184F82" d="M360.868 164.137c-3.726-1.524-5.317-3.55-5.164-6.569.158-3.525-1.841-6.108-2.791-7.128.572-2.192 2.25-9.775.001-16.36-2.415-7.049-9.794-17.816-17.408-28.4-3.117-4.346-3.265-9.071-3.434-14.541-.163-5.218-.347-11.132-3.258-17.707-3.164-7.16-9.512-11.265-17.417-11.265-4.703 0-9.532 1.471-13.247 4.033-7.607 5.25-6.603 16.698-5.937 24.272.091 1.036.177 2.016.228 2.853.444 7.419.039 11.329-.486 12.517-.342.776-2.021 2.987-3.798 5.326-1.838 2.421-3.92 5.164-5.627 7.72-2.037 3.076-3.683 7.778-5.272 12.325-1.164 3.325-2.265 6.468-3.334 8.347a11.37 11.37 0 0 0-1.102 8.539c-.771.532-1.878 1.584-2.813 3.562-1.134 2.417-3.429 3.713-8.205 4.632-2.195.448-3.707 1.372-4.499 2.742-1.151 1.996-.524 4.501.049 6.215.846 2.519.319 4.112-.639 7.007a89.082 89.082 0 0 0-.726 2.258c-.399 1.315-.254 2.512.428 3.558 1.804 2.756 7.065 3.729 12.482 4.368 3.235.384 6.775 1.677 10.198 2.929 3.355 1.227 6.824 2.495 9.978 2.878.479.062.953.091 1.411.091 4.762 0 6.913-3.158 7.596-4.457 1.71-.348 7.607-1.467 13.688-1.616 6.068-.173 11.94 1.026 13.604 1.398.522 1 1.9 3.287 4.099 4.465 1.208.661 2.891 1.038 4.611 1.038h.001c1.838 0 5.337-.434 8.105-3.347 2.762-2.926 9.66-6.663 14.699-9.392a259.339 259.339 0 0 0 3.098-1.69c2.829-1.569 4.375-3.812 4.237-6.151-.116-1.944-1.402-3.649-3.356-4.45m-45.822-83.616c2.744 0 4.977 2.841 4.977 6.333 0 1.453-.402 2.84-1.094 3.942a6.272 6.272 0 0 0 .283-1.888c0-2.919-1.853-5.207-4.218-5.207-2.313 0-4.193 2.337-4.193 5.207 0 .197.011.392.028.589a57.667 57.667 0 0 0-.357-.138 7.91 7.91 0 0 1-.403-2.505c.003-3.492 2.232-6.333 4.977-6.333m-8.438 12.691c1.047.185 3.624 1.214 5.507 1.966.868.347 1.622.647 2.151.837 1.665.572 2.533 1.304 2.639 1.579-.039.176-.124.254-1.053.738-.472.244-1.056.548-1.787.995l-.488.296c-1.965 1.191-6.565 3.98-7.814 4.144-.848.113-1.372-.216-2.551-1.017-.267-.181-.549-.374-.852-.567-2.128-1.396-3.494-2.932-3.649-3.533.692-.535 2.412-1.877 3.292-2.671 1.786-1.661 3.583-2.777 4.472-2.777.047 0 .091.003.133.01m-7.007-11.519c2.019 0 3.724 2.721 3.724 5.943 0 .406-.027.81-.09 1.241a8.622 8.622 0 0 0-.365.171 7.585 7.585 0 0 0-.081-.813c-.434-2.487-2.083-4.294-3.922-4.294a2.78 2.78 0 0 0-.425.034c-1.096.182-1.953 1.004-2.423 2.17.414-2.558 1.861-4.452 3.582-4.452m-6.152 96.839c-.435 2.043-2.749 3.706-3.296 4.073a3.355 3.355 0 0 1-.73.067c-3.168 0-9.437-2.634-12.806-4.05l-.498-.209c-1.881-.788-4.952-1.284-7.921-1.767-2.362-.384-5.597-.905-6.133-1.378-.438-.489.068-2.074.513-3.473.32-1.005.651-2.045.832-3.133.258-1.734-.046-3.147-.288-4.282-.205-.963-.367-1.723-.193-2.459.129-.546 2.819-1.13 3.97-1.379 1.617-.353 3.29-.715 4.381-1.38 1.48-.895 2.28-2.546 2.986-4.004.513-1.054 1.039-2.143 1.668-2.501a.366.366 0 0 1 .192-.045c1.178 0 3.647 2.475 5.072 4.69.36.557 1.028 1.677 1.804 2.971 2.313 3.872 5.48 9.176 7.137 10.952 1.49 1.599 3.903 4.671 3.31 7.307m34.358-27.059c-.533 2.539-.59 10.666-.595 12.493-1.085 1.378-6.573 7.87-14.451 9.038-3.21.467-6.205.702-8.907.702-2.31 0-3.781-.178-4.395-.271l-3.958-4.529c1.562-.772 3.122-2.398 2.712-5.333-.354-2.48-3.545-4.942-7.244-7.793-3.021-2.329-6.449-4.971-7.392-7.209-1.952-4.615-.413-12.728 2.268-16.907 1.325-2.091 2.407-5.264 3.454-8.332 1.13-3.312 2.299-6.738 3.606-8.237 2.07-2.342 3.982-6.896 4.321-10.485 1.938 1.849 4.945 4.197 7.723 4.197a4.53 4.53 0 0 0 1.239-.168c1.9-.548 4.696-2.163 7.398-3.725 2.332-1.346 5.204-3.007 6.286-3.158 1.854 2.662 12.628 26.506 13.729 34.162.87 6.059-.049 11.067-.511 13.03a9.228 9.228 0 0 0-1.282-.093c-3 0-3.795 1.639-4.001 2.618m30.113 17.755c-.628.575-2.839 1.703-4.979 2.796-3.793 1.938-8.094 4.133-10.024 6.165-2.718 2.86-5.794 4.782-7.651 4.782-.223 0-.427-.028-.607-.086-2.017-.629-3.677-3.539-2.785-7.688.94-4.239 2.023-10.006 1.849-13.406a94.595 94.595 0 0 0-.175-2.426c-.124-1.52-.309-3.779-.118-4.447a.567.567 0 0 1 .124-.045c.009 1.942.431 5.818 3.53 7.171.925.402 1.982.606 3.139.606 3.107 0 6.553-1.522 7.965-2.934.83-.832 1.53-1.848 2.019-2.654.108.313.175.723.139 1.252-.184 2.867 1.209 6.669 3.86 8.071l.385.203c.946.496 3.455 1.813 3.494 2.438-.004-.001-.025.072-.165.202"/></svg>