<svg xmlns="http://www.w3.org/2000/svg" viewBox="0 0 480 480" width="512" height="512"><path d="M472 240H272v-48c13.255 0 24-10.745 24-24v-64c0-13.255-10.745-24-24-24V8a8 8 0 0 0-16 0v72c-13.255 0-24 10.745-24 24v64c0 13.255 10.745 24 24 24v48h-48v-28.688l10.344 10.344a8 8 0 0 0 11.312-11.312l-24-24A8 8 0 0 0 192 192v48H8a8 8 0 0 0-8 8v224a8 8 0 0 0 8 8h464a8 8 0 0 0 8-8V248a8 8 0 0 0-8-8zM248 104a8 8 0 0 1 8-8h16a8 8 0 0 1 8 8v8h-32v-8zm0 24h32v16h-32v-16zm0 40v-8h32v8a8 8 0 0 1-8 8h-16a8 8 0 0 1-8-8zm216 296H16V256h179.392A39.999 39.999 0 0 0 232 280a8 8 0 0 0 0-16 23.878 23.878 0 0 1-17.76-8H464v208z" fill="#FFF"/><path d="M240 280c-44.163.048-79.951 35.837-80 80 0 44.183 35.817 80 80 80s80-35.817 80-80-35.817-80-80-80zm0 144c-35.346 0-64-28.654-64-64 0-35.346 28.654-64 64-64 35.33.04 63.96 28.67 64 64 0 35.346-28.654 64-64 64z" fill="#FFF"/><path d="M240 352a8 8 0 1 1 8-8h16a24 24 0 0 0-16-22.528V312h-16v9.472c-12.473 4.393-19.023 18.066-14.629 30.539A23.943 23.943 0 0 0 240 368a8 8 0 1 1-8 8h-16a24 24 0 0 0 16 22.528V408h16v-9.472c12.473-4.393 19.023-18.066 14.63-30.539A23.946 23.946 0 0 0 240 352zm199.84-32a7.88 7.88 0 0 0-6.24-7.84 33.842 33.842 0 0 1-25.76-25.76 7.903 7.903 0 0 0-7.84-6.248V280h-88v16h82a50.84 50.84 0 0 0 30 30v68a50.84 50.84 0 0 0-30 30h-82v16h88a8 8 0 0 0 7.832-6.4 33.842 33.842 0 0 1 25.76-25.76 7.88 7.88 0 0 0 6.24-7.84H440v-80h-.16zM86 296h82v-16H80v.152a7.896 7.896 0 0 0-7.84 6.248 33.842 33.842 0 0 1-25.76 25.76c-.272.056-.472.232-.736.312-.509.155-1 .364-1.464.624a7.46 7.46 0 0 0-1.256.8 7.807 7.807 0 0 0-1.048 1.072 7.952 7.952 0 0 0-.856 1.264 8.137 8.137 0 0 0-.56 1.368 7.655 7.655 0 0 0-.328 1.6c0 .264-.152.496-.152.8v80c0 .272.128.504.152.8.052.544.162 1.08.328 1.6.145.472.332.93.56 1.368.246.451.535.877.864 1.272a7.95 7.95 0 0 0 3.744 2.528c.245.117.496.221.752.312a33.864 33.864 0 0 1 25.76 25.76A8 8 0 0 0 80 440h88v-16H86a50.824 50.824 0 0 0-30-29.992v-68A50.839 50.839 0 0 0 86 296z" fill="#FFF"/></svg>