<svg version="1.2" xmlns="http://www.w3.org/2000/svg" viewBox="0 0 180 36" width="180" height="36">
	<title>pro-fastssl-svg</title>
	<style>
		.s0 { fill: #141d82 } 
		.s1 { fill: #00cc84 } 
	</style>
	<g id="Page-1">
		<g id="Artboard">
			<g id="Logo">
				<path id="Path" class="s0" d="m55.5 9.4l-1.1 6.6h-9.6l-0.4 2.3h7.9l-1.1 6.6h-7.9l-1.5 8.6h-7.3l4.1-24.1z"/>
				<path id="Combined-Shape" fill-rule="evenodd" class="s0" d="m71.2 9.4l3.8 24.1h-7.5l-0.5-4.2h-6.1l-1.9 4.2h-7.3l11.2-24.1zm-5 7.1h-0.2l-3 7.3h3.8z"/>
				<path id="Path_1_" class="s0" d="m77.6 31.2l3.3-6c1.6 1.1 4.7 2.4 6.3 2.4 1.1 0 1.7-0.6 1.7-1.5 0-1.1-1.8-1.5-3.7-2.4-2.1-0.9-4.4-2.4-4.4-6.1 0-5.8 4-8.6 9.6-8.6 3.6 0 7.1 1.8 8.9 3.9l-4.4 4.7c-1.6-1.3-3.4-2.3-4.8-2.3-0.9 0-1.5 0.4-1.5 1.2 0 1.2 1.8 1.7 3.7 2.6 2.3 1.1 4.6 2.6 4.6 6.3 0 5.3-4.3 8.7-10 8.7-4.2 0-7.8-1.8-9.3-2.9q0 0 0 0z"/>
				<path id="Path_2_" class="s0" d="m100.8 16l1.1-6.6h19.3l-1.1 6.6h-6.1l-3 17.5h-7.3l3-17.5z"/>
				<path id="Path_3_" class="s1" d="m120.4 31.2l3.3-6c1.5 1.1 4.6 2.4 6.3 2.4 1.1 0 1.7-0.6 1.7-1.5 0-1.1-1.8-1.5-3.7-2.4-2.2-0.9-4.4-2.4-4.4-6.1 0-5.8 4-8.6 9.6-8.6 3.6 0 7.1 1.8 8.9 3.9l-4.5 4.7c-1.6-1.3-3.3-2.3-4.7-2.3-0.9 0-1.5 0.4-1.5 1.2 0 1.2 1.8 1.7 3.7 2.6 2.2 1.1 4.6 2.6 4.6 6.3 0 5.3-4.3 8.7-10 8.7-4.2 0-7.8-1.8-9.3-2.9q0 0 0 0z"/>
				<path id="Path_4_" class="s1" d="m141.1 31.2l3.3-6c1.6 1.1 4.6 2.4 6.3 2.4 1.1 0 1.7-0.6 1.7-1.5 0-1.1-1.8-1.5-3.7-2.4-2.2-0.9-4.4-2.4-4.4-6.1 0-5.8 4-8.6 9.6-8.6 3.6 0 7.1 1.8 8.9 3.9l-4.5 4.7c-1.6-1.3-3.3-2.3-4.7-2.3-0.9 0-1.5 0.4-1.5 1.2 0 1.2 1.8 1.7 3.7 2.6 2.2 1.1 4.6 2.6 4.6 6.3 0 5.3-4.3 8.7-10 8.7-4.2 0-7.8-1.8-9.3-2.9q0 0 0 0z"/>
				<path id="Path_5_" class="s1" d="m174.1 9.4l-2.9 17.5h8.8l-1.1 6.6h-16.1l4.1-24.1z"/>
				<path id="Path_6_" class="s1" d="m27.4 12.8h-2.8v-1.9c0-2.6-0.9-5.2-2.5-7.2-2.1-2.7-5.3-3.7-8.6-3.7-3-0.1-5.9 1.3-7.7 3.7q-0.7 0.8-1.2 1.8c-0.9 1.6-1.3 3.5-1.3 5.4v1.9h-2.8q-0.2 0-0.4 0.1-0.1 0.2-0.1 0.4v19.8c0 0.2 0.2 0.4 0.4 0.4 4.3 1.7 8.9 2.5 13.5 2.5h0.2c4.6 0 9.1-0.8 13.4-2.5 0.2 0 0.4-0.2 0.4-0.4v-19.8c0-0.3-0.2-0.5-0.5-0.5z"/>
				<path id="Path_7_" class="s0" d="m8.8 33.6l2.5-12.7h-4.6l3.6-13.8h10.2l-4.3 7.6h5.2z"/>
			</g>
		</g>
	</g>
</svg>