<svg xmlns="http://www.w3.org/2000/svg" viewBox="0 0 489.101 489.101"><path d="M330.866 345.55h-165.3c-4 0-7.2-3.2-7.2-7.2v-113.9c0-4 3.2-7.2 7.2-7.2h165.3c4 0 7.2 3.2 7.2 7.2v113.9c0 4-3.3 7.2-7.2 7.2z" fill="#18b35c"/><path d="M22.966 333.35c1 0 2.1-.2 3.1-.5 4.7-1.7 7.2-6.9 5.5-11.6-29.6-82.3-10-172.3 51.1-234.9 42.3-43.2 98.8-67.4 159.3-68.1 60.4-.7 117.6 22.2 160.8 64.5l1.4 1.3-27.4.3c-5 .1-9 4.2-9 9.2.1 5 4.1 9 9.1 9h.1l49.3-.6c2.4 0 4.7-1 6.4-2.7s2.6-4 2.6-6.4l-.6-49.3c-.1-5-4.1-9.1-9.2-9-5 .1-9 4.2-9 9.2l.3 27.4-1.4-1.3c-46-45-106.6-69.6-170.8-69.6h-2.9c-65.3.7-126.4 26.9-172 73.6-32.7 33.4-55 75.2-64.5 120.8-9.2 44.4-6.1 90.3 9.2 132.9 1.4 3.5 4.9 5.8 8.6 5.8zm451.7-171.5c-1.7-4.7-6.9-7.2-11.6-5.5s-7.2 6.9-5.5 11.6c29.5 82.3 9.9 172.3-51.2 234.8-44.3 45.3-103.1 68-161.9 68-57.1 0-114.2-21.4-158.2-64.4l-1.4-1.3 27.4-.3c5-.1 9-4.2 9-9.2-.1-5-4.1-9-9.1-9h-.1l-49.3.6c-5 .1-9 4.2-9 9.2l.6 49.3c.1 5 4.1 9 9.1 9h.1c5-.1 9-4.2 9-9.2l-.3-27.4 1.4 1.3c47.5 46.4 109.2 69.5 170.9 69.5 63.5 0 127.1-24.6 174.9-73.5 32.7-33.4 55-75.2 64.5-120.8 9.2-44.2 6-90.1-9.3-132.7z"/><path d="M248.166 99.55c-40 0-72.5 32.5-72.5 72.5v36.2h-2.9c-13 0-23.6 10.6-23.6 23.6v99.3c0 13 10.6 23.6 23.6 23.6h150.8c13 0 23.6-10.6 23.6-23.6v-99.3c0-13-10.6-23.6-23.6-23.6h-2.9v-36.2c0-40-32.5-72.5-72.5-72.5zm-54.3 72.5c0-30 24.4-54.4 54.4-54.4s54.4 24.4 54.4 54.4v36.2h-108.8v-36.2zm135.1 59.7v99.3c0 3-2.4 5.4-5.4 5.4h-150.7c-3 0-5.4-2.4-5.4-5.4v-99.3c0-3 2.4-5.4 5.4-5.4h150.7c3 0 5.4 2.4 5.4 5.4z"/><path d="M250.566 258.05c-6-1.2-12.4 2.2-15 8-2.7 5.9-.9 12.7 4.5 16.7 1.1.8 1.3 1.6 1.3 2.8v17.8c0 4.9 5.2 8.6 10.4 6 2.2-1.1 3.5-3.5 3.3-6v-17.8c0-1.3.3-2.1 1.4-2.9 3.7-2.7 5.6-6.5 5.6-11.1-.1-6.7-4.8-12.099-11.5-13.5z"/></svg>