<svg xmlns="http://www.w3.org/2000/svg" viewBox="0 0 218.453 218.453" width="512" height="512"><path data-original="#85D839" data-old_color="#e4af18" fill="#e4af18" d="M71.68 86.751h75.093v20.48H71.68z"/><path d="M146.773 110.649H71.68a3.414 3.414 0 0 1-3.413-3.413v-20.48a3.414 3.414 0 0 1 3.413-3.413h75.093a3.414 3.414 0 0 1 3.413 3.413v20.48a3.412 3.412 0 0 1-3.413 3.413zm-71.68-6.826h68.267V90.169H75.093v13.654z" data-original="#000000"/><path d="M146.773 86.756H71.68v-20.48l24.322-8.844a38.7 38.7 0 0 1 26.448 0l24.323 8.844v20.48z" data-original="#85D839" data-old_color="#e4af18" fill="#e4af18"/><path d="M146.773 90.169H71.68a3.414 3.414 0 0 1-3.413-3.413v-20.48c0-1.435.898-2.717 2.246-3.209l24.322-8.846a42.183 42.183 0 0 1 28.781 0l24.323 8.846a3.416 3.416 0 0 1 2.246 3.209v20.48a3.41 3.41 0 0 1-3.412 3.413zm-71.68-6.827h68.267V68.665l-22.077-8.026a35.304 35.304 0 0 0-24.113 0l-22.076 8.028v14.675z" data-original="#000000"/><path d="M78.507 86.188h-40.96l4.552-31.858c0-10.054 8.151-18.205 18.205-18.205 10.054 0 18.205 8.151 18.205 18.205v31.858h-.002z" data-original="#75BC2A" data-old_color="#FF8C00" fill="#ff7c00"/><path d="M78.507 89.601h-40.96a3.413 3.413 0 0 1-3.379-3.896l4.518-31.628c.137-11.803 9.781-21.364 21.617-21.364 11.919 0 21.618 9.697 21.618 21.618v31.857a3.415 3.415 0 0 1-3.414 3.413zm-37.025-6.827h33.611V54.329c0-8.154-6.636-14.792-14.792-14.792S45.51 46.173 45.51 54.329c0 .162-.012.323-.034.483l-3.994 27.962z" data-original="#000000"/><path d="M85.333 145.921H10.24l14.08-49.28c0-16.848 13.658-30.507 30.507-30.507 16.848 0 30.507 13.658 30.507 30.507v49.28z" data-original="#85D839" data-old_color="#e4af18" fill="#e4af18"/><path d="M85.333 149.334H10.24a3.417 3.417 0 0 1-3.282-4.352L20.91 96.151c.263-18.48 15.377-33.43 33.917-33.43 18.703 0 33.92 15.217 33.92 33.92v49.28a3.414 3.414 0 0 1-3.414 3.413zm-70.569-6.826H81.92V96.641c0-14.94-12.155-27.093-27.093-27.093S27.733 81.701 27.733 96.641c0 .317-.044.633-.131.939l-12.838 44.928z" data-original="#000000"/><circle cx="44.373" cy="141.364" r="40.96" data-original="#777777" fill="#777"/><path d="M44.373 185.743C19.907 185.743 0 165.838 0 141.369s19.907-44.373 44.373-44.373 44.373 19.905 44.373 44.373-19.906 44.374-44.373 44.374zm0-81.92c-20.704 0-37.547 16.843-37.547 37.547s16.843 37.547 37.547 37.547S81.92 162.074 81.92 141.37s-16.843-37.547-37.547-37.547z" data-original="#000000"/><circle cx="44.373" cy="141.364" r="30.72" data-original="#26BBEC" class="active-path" data-old_color="#00AFFF" fill="#00b7ff"/><path d="M44.373 175.503c-18.821 0-34.133-15.312-34.133-34.133s15.312-34.133 34.133-34.133 34.133 15.312 34.133 34.133-15.312 34.133-34.133 34.133zm0-61.44c-15.056 0-27.307 12.25-27.307 27.307s12.25 27.307 27.307 27.307 27.307-12.25 27.307-27.307-12.25-27.307-27.307-27.307z" data-original="#000000"/><path d="M35.212 123.048a20.55 20.55 0 0 0-10.02 11.129" data-original="#26BBEC" class="active-path" data-old_color="#00AFFF" fill="#00b7ff"/><path d="M25.19 137.591a3.414 3.414 0 0 1-3.195-4.615 23.843 23.843 0 0 1 11.689-12.979 3.41 3.41 0 0 1 4.581 1.524 3.415 3.415 0 0 1-1.524 4.581 17.051 17.051 0 0 0-8.354 9.277 3.418 3.418 0 0 1-3.197 2.212z" data-original="#000000"/><path d="M139.947 86.188h40.96l-4.552-31.858c0-10.054-8.151-18.205-18.205-18.205-10.054 0-18.205 8.151-18.205 18.205v31.858h.002z" data-original="#75BC2A" data-old_color="#FF8C00" fill="#ff7c00"/><path d="M180.907 89.601h-40.96a3.414 3.414 0 0 1-3.413-3.413V54.329c0-11.919 9.699-21.618 21.618-21.618 11.836 0 21.48 9.561 21.615 21.364l4.518 31.628a3.417 3.417 0 0 1-3.378 3.898zm-37.547-6.827h33.611l-3.995-27.962a3.252 3.252 0 0 1-.036-.483c0-8.154-6.636-14.792-14.79-14.792-8.156 0-14.792 6.636-14.792 14.792v28.445h.002z" data-original="#000000"/><path d="M133.12 145.921h75.093l-14.08-49.28c0-16.848-13.658-30.507-30.507-30.507-16.848 0-30.507 13.658-30.507 30.507v49.28z" data-original="#85D839" data-old_color="#e4af18" fill="#e4af18"/><path d="M208.213 149.334H133.12a3.414 3.414 0 0 1-3.413-3.413v-49.28c0-18.703 15.217-33.92 33.92-33.92 18.54 0 33.654 14.95 33.917 33.43l13.952 48.831c.295 1.031.089 2.138-.556 2.993s-1.655 1.359-2.727 1.359zm-71.68-6.826h67.156L190.853 97.58a3.423 3.423 0 0 1-.131-.939c0-14.94-12.153-27.093-27.093-27.093s-27.095 12.153-27.095 27.093v45.867z" data-original="#000000"/><circle cx="174.08" cy="141.364" r="40.96" data-original="#777777" fill="#777"/><path d="M174.08 185.743c-24.468 0-44.373-19.905-44.373-44.373s19.905-44.373 44.373-44.373 44.373 19.905 44.373 44.373-19.905 44.373-44.373 44.373zm0-81.92c-20.704 0-37.547 16.843-37.547 37.547s16.843 37.547 37.547 37.547 37.547-16.843 37.547-37.547-16.843-37.547-37.547-37.547z" data-original="#000000"/><circle cx="174.08" cy="141.364" r="30.72" data-original="#26BBEC" class="active-path" data-old_color="#00AFFF" fill="#00b7ff"/><path d="M174.08 175.503c-18.821 0-34.133-15.312-34.133-34.133s15.312-34.133 34.133-34.133 34.133 15.312 34.133 34.133-15.312 34.133-34.133 34.133zm0-61.44c-15.056 0-27.307 12.25-27.307 27.307s12.25 27.307 27.307 27.307 27.307-12.25 27.307-27.307-12.251-27.307-27.307-27.307z" data-original="#000000"/><path d="M164.919 123.048a20.55 20.55 0 0 0-10.02 11.129" data-original="#26BBEC" class="active-path" data-old_color="#00AFFF" fill="#00b7ff"/><path d="M154.899 137.591c-.398 0-.804-.072-1.2-.22a3.411 3.411 0 0 1-1.995-4.395 23.846 23.846 0 0 1 11.687-12.979 3.41 3.41 0 0 1 4.581 1.524 3.412 3.412 0 0 1-1.524 4.581 17.051 17.051 0 0 0-8.354 9.277 3.419 3.419 0 0 1-3.195 2.212z" data-original="#000000"/></svg>