<svg xmlns="http://www.w3.org/2000/svg" xmlns:xlink="http://www.w3.org/1999/xlink" width="612" height="628" viewBox="0 79.5 612 628"><path fill="#18B35C" d="M523.26 254.093c-7.649-91.801-84.915-163.71-179.01-163.71-49.725 0-94.095 19.89-126.99 52.02-13.005-6.12-26.774-9.18-42.074-9.18-54.315 0-98.687 44.369-98.687 98.686 0 7.651.765 16.064 3.06 22.951C34.425 264.037 0 304.583 0 352.777c0 54.314 44.369 98.686 98.686 98.686h414.63c54.314 0 98.686-44.369 98.686-98.686-.002-51.254-39.017-93.33-88.742-98.684z"/><path fill="#167942" d="M68.084 306.877l34.426-6.885-3.825-14.535-12.241 2.295c-17.595 3.06-32.895 13.77-42.074 28.305 6.885-3.824 14.535-7.649 23.714-9.18zM520.2 287.752l-27.541-3.06-2.295-27.541c-6.885-74.971-70.379-133.109-145.35-133.109-39.015 0-75.735 15.3-103.275 42.84l-16.83 16.83-21.42-9.945c-9.18-3.825-18.359-6.12-27.541-6.12-22.95 0-42.84 11.475-54.314 29.835 9.945-6.885 22.95-10.71 35.955-10.71 9.18 0 19.125 2.295 27.541 6.12l21.42 9.946 16.83-16.831c27.54-27.54 64.261-42.84 103.275-42.84 74.971 0 139.229 58.905 145.35 133.11l2.295 27.541 27.541 3.059c33.66 3.826 58.904 31.365 58.904 65.025 0 13.005-3.825 25.246-10.71 35.956 17.595-11.475 29.835-32.13 29.835-54.315-1.53-34.425-26.775-62.73-59.67-65.791z"/><path fill="#125BAA" d="M143.82 442.283h324.36v152.235H143.82V442.283z"/><path fill="#EBF0F3" d="M478.89 334.418H133.11c-6.12 0-11.475 5.354-11.475 11.475v84.15c0 6.885 4.59 11.475 11.475 11.475h345.78c6.12 0 11.475-5.354 11.475-11.475v-83.385c-.765-6.886-5.355-12.24-11.475-12.24zm0 260.101H133.11c-6.12 0-11.475 5.354-11.475 11.475v84.15c0 6.885 4.59 11.475 11.475 11.475h345.78c6.12 0 11.475-5.354 11.475-11.475v-83.385c-.765-6.886-5.355-12.24-11.475-12.24zm0-130.051H133.11c-6.12 0-11.475 5.354-11.475 11.475v84.15c0 6.885 4.59 11.475 11.475 11.475h345.78c6.12 0 11.475-5.354 11.475-11.475v-83.384c-.765-6.887-5.355-12.241-11.475-12.241z"/><circle fill="#3A556A" cx="165.24" cy="388.733" r="21.42"/><circle fill="#64798A" cx="166.006" cy="387.967" r="15.3"/><circle fill="#E56353" cx="218.026" cy="388.733" r="10.71"/><circle fill="#44C4A1" cx="261.63" cy="388.733" r="10.71"/><circle fill="#3A556A" cx="165.24" cy="518.783" r="21.42"/><circle fill="#64798A" cx="166.006" cy="518.017" r="15.3"/><circle fill="#E56353" cx="218.026" cy="518.783" r="10.71"/><circle fill="#125BAA" cx="261.63" cy="518.783" r="10.71"/><circle fill="#3A556A" cx="165.24" cy="648.833" r="21.42"/><circle fill="#64798A" cx="166.006" cy="648.067" r="15.3"/><circle fill="#E56353" cx="218.026" cy="648.833" r="10.71"/><circle fill="#44C4A1" cx="261.63" cy="648.833" r="10.71"/><g fill="#EBF0F3"><path d="M308.295 353.013h18.359v18.359h-18.359v-18.359zm36.72 0h18.359v18.359h-18.359v-18.359zm36.72 0h18.359v18.359h-18.359v-18.359zm35.956 0h18.359v18.359h-18.359v-18.359zm36.719 0h18.359v18.359H454.41v-18.359zm-127.754 18.359h18.359v18.359h-18.359v-18.359zm36.719 0h18.359v18.359h-18.359v-18.359zm36.721 0h18.359v18.359h-18.359v-18.359zm35.954 0h18.359v18.359H436.05v-18.359zm-127.755 18.361h18.359v18.359h-18.359v-18.359zm36.72 0h18.359v18.359h-18.359v-18.359zm36.72 0h18.359v18.359h-18.359v-18.359zm35.956 0h18.359v18.359h-18.359v-18.359zm36.719 0h18.359v18.359H454.41v-18.359zm-127.754 18.359h18.359v18.36h-18.359v-18.36zm36.719 0h18.359v18.36h-18.359v-18.36zm36.721 0h18.359v18.36h-18.359v-18.36zm35.954 0h18.359v18.36H436.05v-18.36zm-127.755 74.971h18.359v18.359h-18.359v-18.359zm36.72 0h18.359v18.359h-18.359v-18.359zm36.72 0h18.359v18.359h-18.359v-18.359zm35.956 0h18.359v18.359h-18.359v-18.359zm36.719 0h18.359v18.359H454.41v-18.359zm-127.754 18.359h18.359v18.359h-18.359v-18.359zm36.719 0h18.359v18.359h-18.359v-18.359zm36.721 0h18.359v18.359h-18.359v-18.359zm35.954 0h18.359v18.359H436.05v-18.359zm-127.755 18.361h18.359v18.359h-18.359v-18.359zm36.72 0h18.359v18.359h-18.359v-18.359zm36.72 0h18.359v18.359h-18.359v-18.359zm35.956 0h18.359v18.359h-18.359v-18.359zm36.719 0h18.359v18.359H454.41v-18.359zm-127.754 18.36h18.359v18.359h-18.359v-18.359zm36.719 0h18.359v18.359h-18.359v-18.359zm36.721 0h18.359v18.359h-18.359v-18.359zm35.954 0h18.359v18.359H436.05v-18.359zm-127.755 74.97h18.359v18.359h-18.359v-18.359zm36.72 0h18.359v18.359h-18.359v-18.359zm36.72 0h18.359v18.359h-18.359v-18.359zm35.956 0h18.359v18.359h-18.359v-18.359zm36.719 0h18.359v18.359H454.41v-18.359zm-127.754 18.36h18.359v18.359h-18.359v-18.359zm36.719 0h18.359v18.359h-18.359v-18.359zm36.721 0h18.359v18.359h-18.359v-18.359zm35.954 0h18.359v18.359H436.05v-18.359zm-127.755 18.36h18.359v18.359h-18.359v-18.359zm36.72 0h18.359v18.359h-18.359v-18.359zm36.72 0h18.359v18.359h-18.359v-18.359zm35.956 0h18.359v18.359h-18.359v-18.359zm36.719 0h18.359v18.359H454.41v-18.359zm-127.754 17.595h18.359v18.359h-18.359v-18.359zm36.719 0h18.359v18.359h-18.359v-18.359z"/><path d="M400.096 667.428h18.359v18.359h-18.359v-18.359zm35.954 0h18.359v18.359H436.05v-18.359z"/></g><path fill="#125BAA" d="M462.928 410.254c-.713.004-1.41.2-2.021.567l-7.577-7.577h1.588a7.01 7.01 0 1 0 0-14.019h-1.393a6.983 6.983 0 0 0-5.629-10.588l13.012-13.011a3.94 3.94 0 0 0 2.021.568 4.005 4.005 0 1 0-4.005-4.005c.004.713.199 1.411.567 2.021l-14.074 14.075a10.886 10.886 0 0 0-7.521-4.02v-8.211a4.004 4.004 0 0 0 2.876-4.879 4.004 4.004 0 1 0-4.88 4.879v8.211a10.888 10.888 0 0 0-7.521 4.02l-14.075-14.075c.368-.61.564-1.308.568-2.021a4.006 4.006 0 1 0-4.006 4.005 3.942 3.942 0 0 0 2.021-.568l13.018 13.018a6.995 6.995 0 0 0-5.635 10.581h-1.394a7.01 7.01 0 0 0 0 14.019h1.589l-7.578 7.577a3.963 3.963 0 0 0-2.021-.567 4.005 4.005 0 1 0 4.006 4.006 3.952 3.952 0 0 0-.568-2.021l8.994-8.994h12.602v7.152a4.005 4.005 0 1 0 2.004 0v-7.152h12.603l8.993 8.994a3.956 3.956 0 0 0-.567 2.021 4.005 4.005 0 1 0 4.003-4.006zm0-50.068a2.003 2.003 0 1 1 0 4.007 2.003 2.003 0 0 1 0-4.007zm-52.07 4.006a2.003 2.003 0 1 1 .002-4.006 2.003 2.003 0 0 1-.002 4.006zm0 52.071a2.003 2.003 0 1 1 .002-4.006 2.003 2.003 0 0 1-.002 4.006zm24.033-54.074a2.002 2.002 0 1 1 4.005-.001 2.002 2.002 0 0 1-4.005.001zm4.005 52.071a2.003 2.003 0 1 1-4.007 0 2.003 2.003 0 0 1 4.007 0zm-20.028-13.018a5.015 5.015 0 0 1-5.007-5.008 5.014 5.014 0 0 1 5.007-5.006h3.521a1 1 0 0 0 1-1.001c0-.265-.105-.52-.292-.708l-.365-.364a4.997 4.997 0 1 1 5.282-8.22c.448.167.952-.008 1.202-.415a8.99 8.99 0 0 1 15.354 0c.25.407.753.582 1.202.415a5 5 0 0 1 5.283 8.22l-.365.364a1.003 1.003 0 0 0 .708 1.709h3.52a5.007 5.007 0 0 1 0 10.014h-36.05zm44.06 15.021a2.003 2.003 0 1 1 .002-4.006 2.003 2.003 0 0 1-.002 4.006z"/><image overflow="visible" width="144" height="144" xlink:href="apple-touch-icon-144.png" transform="translate(248.295 206.5) scale(.7083)"/><path fill="#125BAA" d="M464.764 541.429c-.713.004-1.41.2-2.021.567l-7.577-7.577h1.588a7.01 7.01 0 1 0 0-14.019h-1.393a6.983 6.983 0 0 0-5.629-10.588l13.012-13.011a3.96 3.96 0 0 0 2.021.568 4.006 4.006 0 1 0-4.005-4.006c.004.713.199 1.41.567 2.021l-14.074 14.074a10.89 10.89 0 0 0-7.521-4.02v-8.211a4.004 4.004 0 0 0 2.876-4.88 4.005 4.005 0 1 0-4.88 4.88v8.211a10.891 10.891 0 0 0-7.521 4.02l-14.075-14.074a3.96 3.96 0 0 0 .568-2.021 4.006 4.006 0 1 0-4.006 4.006 3.952 3.952 0 0 0 2.021-.568l13.018 13.018a6.994 6.994 0 0 0-5.635 10.581h-1.394a7.01 7.01 0 0 0 0 14.019h1.589l-7.578 7.577a3.963 3.963 0 0 0-2.021-.567 4.005 4.005 0 1 0 4.006 4.006 3.952 3.952 0 0 0-.568-2.021l8.994-8.994h12.602v7.152a4.005 4.005 0 1 0 2.004 0v-7.152h12.603l8.993 8.994a3.956 3.956 0 0 0-.567 2.021 4.005 4.005 0 1 0 4.003-4.006zm0-50.069a2.004 2.004 0 1 1-.001 4.007 2.004 2.004 0 0 1 .001-4.007zm-52.07 4.006a2.002 2.002 0 1 1 0-4.004 2.002 2.002 0 0 1 0 4.004zm0 52.072a2.003 2.003 0 1 1 .002-4.006 2.003 2.003 0 0 1-.002 4.006zm24.033-54.074a2.003 2.003 0 1 1 4.007-.001 2.003 2.003 0 0 1-4.007.001zm4.005 52.071a2.003 2.003 0 1 1-4.007 0 2.003 2.003 0 0 1 4.007 0zm-20.028-13.018a5.015 5.015 0 0 1-5.007-5.008 5.014 5.014 0 0 1 5.007-5.006h3.521a1 1 0 0 0 .708-1.709l-.365-.365a4.998 4.998 0 0 1 5.282-8.219c.448.167.952-.008 1.202-.415a8.99 8.99 0 0 1 15.354 0c.25.407.753.582 1.202.415a4.999 4.999 0 0 1 5.283 8.22l-.365.365a1.001 1.001 0 0 0 .708 1.709h3.52a5.007 5.007 0 1 1 0 10.014h-36.05zm44.06 15.021a2.003 2.003 0 1 1 .002-4.006 2.003 2.003 0 0 1-.002 4.006zm2.323 127.099c-.713.004-1.41.2-2.021.567l-7.577-7.577h1.588a7.01 7.01 0 1 0 0-14.019h-1.393a6.983 6.983 0 0 0-5.629-10.588l13.012-13.011a3.96 3.96 0 0 0 2.021.568 4.006 4.006 0 1 0-4.005-4.006c.004.713.199 1.41.567 2.021l-14.074 14.074a10.89 10.89 0 0 0-7.521-4.02v-8.211a4.004 4.004 0 0 0 2.876-4.88 4.005 4.005 0 1 0-4.88 4.88v8.211a10.891 10.891 0 0 0-7.521 4.02l-14.075-14.074a3.96 3.96 0 0 0 .568-2.021 4.006 4.006 0 1 0-4.006 4.006 3.952 3.952 0 0 0 2.021-.568l13.018 13.018a6.994 6.994 0 0 0-5.635 10.581h-1.394a7.01 7.01 0 0 0 0 14.019h1.589l-7.578 7.577a3.963 3.963 0 0 0-2.021-.567 4.005 4.005 0 1 0 4.006 4.006 3.952 3.952 0 0 0-.568-2.021l8.994-8.994h12.602v7.152a4.005 4.005 0 1 0 2.004 0v-7.152h12.603l8.993 8.994a3.956 3.956 0 0 0-.567 2.021 4.005 4.005 0 1 0 4.003-4.006zm0-50.068a2.004 2.004 0 1 1-.001 4.007 2.004 2.004 0 0 1 .001-4.007zm-52.07 4.006a2.002 2.002 0 1 1 0-4.004 2.002 2.002 0 0 1 0 4.004zm0 52.071a2.003 2.003 0 1 1 .002-4.006 2.003 2.003 0 0 1-.002 4.006zm24.033-54.073a2.003 2.003 0 1 1 4.007-.001 2.003 2.003 0 0 1-4.007.001zm4.005 52.07a2.003 2.003 0 1 1-4.007 0 2.003 2.003 0 0 1 4.007 0zm-20.027-13.018a5.015 5.015 0 0 1-5.007-5.008 5.014 5.014 0 0 1 5.007-5.006h3.521a1 1 0 0 0 .708-1.709l-.365-.365a4.998 4.998 0 0 1 5.282-8.219c.448.167.952-.008 1.202-.415a8.99 8.99 0 0 1 15.354 0c.25.407.753.582 1.202.415a4.999 4.999 0 0 1 5.283 8.22l-.365.365a1.001 1.001 0 0 0 .708 1.709h3.52a5.007 5.007 0 1 1 0 10.014h-36.05zm44.059 15.021a2.003 2.003 0 1 1 .002-4.006 2.003 2.003 0 0 1-.002 4.006z"/></svg>