<svg xmlns="http://www.w3.org/2000/svg" viewBox="0 0 511.998 511.998" width="512" height="512"><path d="M389.688 30.963h-72.885v14.771h72.885c5.591.001 10.14 4.549 10.14 10.141a9.983 9.983 0 0 1-1.112 4.612l13.135 6.755a24.962 24.962 0 0 0 2.747-11.367c.001-13.737-11.174-24.912-24.91-24.912zm-112.543.001h18.351v14.771h-18.351zM91.695 163.135h260.956v14.771H91.695zm0 269.247h260.956v14.771H91.695zm347.724-264.46l-10.445 10.444 9.184 9.185-30.329 30.329 10.444 10.445 40.774-40.774zm-50.669 69.046l9.838-9.838 10.444 10.444-9.838 9.838z" fill="#115baa"/><path d="M500.074 124.633l-5.464-5.464c-15.873-15.874-41.704-15.874-57.578 0l-5.341 5.341-10.445 10.444-27.072 27.072v-56.217c25.554-2.279 45.658-23.797 45.658-49.934 0-27.65-22.496-50.146-50.145-50.146H50.145C22.496 5.729 0 28.224 0 55.874v399.255h42.76v51.141h351.416V288.11l90.113-90.113 7.892-7.893 2.551-2.551 5.341-5.341c7.69-7.69 11.925-17.913 11.925-28.788s-4.233-21.102-11.924-28.791zM85.65 20.5h304.038c19.506 0 35.374 15.869 35.374 35.375s-15.869 35.374-35.374 35.374H85.65c9.042-9.075 14.641-21.583 14.641-35.374 0-13.793-5.598-26.3-14.641-35.375zM42.76 91.248v349.11H14.771V55.874c0-19.506 15.87-35.375 35.375-35.375 19.505 0 35.374 15.87 35.374 35.375 0 19.506-15.87 35.374-35.374 35.374H42.76zm336.646 400.251H57.53V106.02h321.875v70.776l-32.022 32.021H91.692v14.771h240.922l-30.915 30.915H91.692v14.771h195.237l-30.914 30.914H91.692v14.771h149.553l-2.577 2.577-8.401 28.338H91.692v14.771h134.197l-9.165 30.915H91.692v14.771h260.953V391.56h-87.977l37.042-10.98 19.933-19.933h31.001v-14.771h-16.23l42.992-42.992v188.615zM248.768 335.428l35.047 35.047-49.813 14.767 14.766-49.814zm49.044 28.156l-42.153-42.153 176.032-176.032 42.153 42.153-176.032 176.032zm191.819-191.818l-5.341 5.341-42.153-42.153 5.341-5.341c10.115-10.115 26.573-10.115 36.689 0l5.464 5.464c4.9 4.9 7.599 11.415 7.599 18.344-.001 6.93-2.7 13.445-7.599 18.345z" fill="#115baa"/></svg>