<svg xmlns="http://www.w3.org/2000/svg" width="512" height="512"><path fill="#FFF" d="M56.46 440.459L195.128 301.79l15.085 15.084L71.545 455.543zM301.787 316.88l15.085-15.084L455.54 440.464l-15.085 15.084z"/><path d="M490.667 256v224c0 5.891-4.776 10.667-10.667 10.667H32c-5.891 0-10.667-4.776-10.667-10.667V181.333c0-5.891 4.776-10.667 10.667-10.667h42.667v-21.333H32c-17.673 0-32 14.327-32 32V480c0 17.673 14.327 32 32 32h448c17.673 0 32-14.327 32-32V256h-21.333z" fill="#FFF"/><path d="M345.6 269.312L256 338.517 27.851 162.219l-13.035 16.896 234.667 181.333a10.603 10.603 0 0 0 6.517 2.219 10.601 10.601 0 0 0 6.56-2.219l96.085-74.251-13.045-16.885z" fill="#FFF"/><path d="M85.333 0C73.551 0 64 9.551 64 21.333v192h21.333v-192H256V0H85.333z" fill="#FFF"/><path fill="#FFF" d="M117.333 160h128v21.333h-128zm64 42.667h85.333V224h-85.333zm64 42.666h21.333v21.333h-21.333zm-42.666 0H224v21.333h-21.333zM458.667 0h-128c-29.441.035-53.298 23.893-53.333 53.333v96c.027 25.336 17.849 47.167 42.666 52.267v33.067c0 5.891 4.776 10.667 10.667 10.667h128c5.891 0 10.667-4.776 10.667-10.667V201.6c24.817-5.1 42.639-26.931 42.667-52.267v-96C511.965 23.893 488.107.035 458.667 0zm32 149.333c0 17.673-14.327 32-32 32-5.891 0-10.667 4.776-10.667 10.667v32H341.333v-32c0-5.891-4.776-10.667-10.667-10.667-17.673 0-32-14.327-32-32v-96c0-17.673 14.327-32 32-32h128c17.673 0 32 14.327 32 32v96z"/><path d="M352 53.333c-17.673 0-32 14.327-32 32 0 17.673 14.327 32 32 32s32-14.327 32-32c0-17.673-14.327-32-32-32zM352 96c-5.891 0-10.667-4.776-10.667-10.667S346.109 74.666 352 74.666s10.667 4.776 10.667 10.667S357.891 96 352 96zm85.333-42.667c-17.673 0-32 14.327-32 32 0 17.673 14.327 32 32 32s32-14.327 32-32c0-17.673-14.327-32-32-32zm0 42.667c-5.891 0-10.667-4.776-10.667-10.667s4.776-10.667 10.667-10.667S448 79.442 448 85.333 443.224 96 437.333 96zm-74.666 85.333H384v53.333h-21.333zm42.666 0h21.333v53.333h-21.333zM384 128h21.333v21.333H384zM224 53.333h-85.333c-11.782 0-21.333 9.551-21.333 21.333v32c0 11.782 9.551 21.333 21.333 21.333H224c11.782 0 21.333-9.551 21.333-21.333v-32c0-11.781-9.551-21.333-21.333-21.333zm0 53.334h-85.333v-32H224v32z" fill="#FFF"/></svg>