<svg xmlns="http://www.w3.org/2000/svg" width="400" height="400"><path fill="#56ACE0" d="M30.498 91.073h268.543c4.543 0 8.165-3.688 8.165-8.166V30.555c0-4.544-3.688-8.166-8.165-8.166H30.498c-4.544 0-8.166 3.688-8.166 8.166v52.352c-.065 4.478 3.622 8.166 8.166 8.166z"/><path fill="#18b35c" d="M30.498 181.948h251.619c7.967-7.507 12.906-13.96 15.87-17.781 2.37-3.094 5.729-4.675 9.22-4.938V121.43c0-4.544-3.688-8.166-8.166-8.166H30.498c-4.544 0-8.166 3.688-8.166 8.166v52.352c-.065 4.478 3.622 8.166 8.166 8.166z"/><path fill="#56ACE0" d="M217.188 272.955v-46.03c0-4.676 2.896-8.825 7.244-10.404 10.206-3.754 19.031-7.968 26.867-12.249H30.498c-4.544 0-8.166 3.688-8.166 8.166v52.352c0 4.479 3.688 8.166 8.166 8.166h186.69v-.001z"/><path fill="#FFF" d="M377.733 234.497c-37.403-15.277-58.081-35.033-69.209-47.94-11.129 12.841-31.807 32.663-69.21 47.94v12.249h41.355c6.123 0 11.128 4.938 11.128 11.128 0 6.124-4.938 11.129-11.128 11.129h-41.355v19.755h15.146c6.124 0 11.129 4.939 11.129 11.129 0 6.124-4.939 11.129-11.129 11.129h-15.146v3.885c0 27.264 47.61 52.945 69.21 62.099 22.521-9.417 69.209-34.704 69.209-62.099v-80.404z"/><path fill="#56ACE0" d="M308.523 352.568c-25.946-12.445-47.02-30.094-47.02-37.798v-65.786c20.48-9.812 35.758-20.809 47.02-30.753 11.261 10.009 26.538 20.941 47.018 30.753v65.786c0 7.639-21.006 25.353-47.018 37.798z"/><g fill="#194F82"><path d="M53.151 67.761h6.321c6.124 0 11.129-4.938 11.129-11.129 0-6.124-4.938-11.128-11.129-11.128h-6.321c-6.125 0-11.129 4.938-11.129 11.128s4.938 11.129 11.129 11.129zm44.186 0h6.322c6.124 0 11.128-4.938 11.128-11.129 0-6.124-4.938-11.128-11.128-11.128h-6.322c-6.124 0-11.129 4.938-11.129 11.128.066 6.191 5.005 11.129 11.129 11.129zm44.187 0h6.322c6.124 0 11.128-4.938 11.128-11.129 0-6.124-4.938-11.128-11.128-11.128h-6.322c-6.124 0-11.129 4.938-11.129 11.128s5.005 11.129 11.129 11.129zm-82.117 68.683h-6.255c-6.124 0-11.129 4.938-11.129 11.129 0 6.124 4.938 11.128 11.129 11.128h6.321c6.125 0 11.129-4.938 11.129-11.128-.066-6.123-5.071-11.129-11.195-11.129zm44.252 0h-6.322c-6.124 0-11.129 4.938-11.129 11.129 0 6.124 4.938 11.128 11.129 11.128h6.322c6.124 0 11.128-4.938 11.128-11.128-.064-6.123-5.004-11.129-11.128-11.129zm44.187 0h-6.322c-6.124 0-11.129 4.938-11.129 11.129 0 6.124 4.938 11.128 11.129 11.128h6.322c6.124 0 11.128-4.938 11.128-11.128-.066-6.123-5.004-11.129-11.128-11.129zm-88.439 91.007h-6.255c-6.124 0-11.129 4.938-11.129 11.129 0 6.124 4.938 11.129 11.129 11.129h6.321c6.125 0 11.129-4.938 11.129-11.129-.066-6.19-5.071-11.129-11.195-11.129zm44.252 0h-6.322c-6.124 0-11.129 4.938-11.129 11.129 0 6.124 4.938 11.129 11.129 11.129h6.322c6.124 0 11.128-4.938 11.128-11.129-.064-6.19-5.004-11.129-11.128-11.129zm44.187 0h-6.322c-6.124 0-11.129 4.938-11.129 11.129 0 6.124 4.938 11.129 11.129 11.129h6.322c6.124 0 11.128-4.938 11.128-11.129-.066-6.19-5.004-11.129-11.128-11.129z"/><path d="M392.681 216.454c-32.662-12.116-52.022-28.119-63.218-39.906V121.43c0-7.31-2.567-14.092-6.914-19.294a30.18 30.18 0 0 0 6.914-19.294V30.489C329.464 13.697 315.833 0 298.975 0H30.498C13.64 0 .008 13.631.008 30.489v52.352c0 7.31 2.568 14.092 6.915 19.294C2.576 107.337.008 114.12.008 121.429v52.352c0 7.31 2.568 14.092 6.915 19.294-4.347 5.269-6.915 12.051-6.915 19.36v52.352c0 16.793 13.631 30.489 30.489 30.489H217.12v19.491c0 49.521 78.495 81.064 87.45 84.488 2.503.922 5.202 1.053 7.968 0 8.956-3.49 87.452-35.033 87.452-84.488v-87.911c-.065-4.672-2.963-8.756-7.309-10.402zm-110.564-34.506H30.563c-4.544 0-8.166-3.688-8.166-8.166V121.43c0-4.544 3.688-8.166 8.166-8.166h268.542c4.545 0 8.166 3.688 8.166 8.166v37.799c-3.49.329-6.849 1.975-9.221 4.938-3.027 3.886-8.03 10.339-15.933 17.781zM22.267 30.489c0-4.544 3.688-8.165 8.166-8.165h268.542c4.544 0 8.165 3.687 8.165 8.165v52.352c0 4.478-3.688 8.166-8.165 8.166H30.498c-4.544 0-8.166-3.688-8.166-8.166V30.489h-.065zm8.231 242.466c-4.544 0-8.166-3.688-8.166-8.166v-52.352c0-4.479 3.688-8.166 8.166-8.166h220.604c-7.771 4.348-16.596 8.495-26.868 12.249-4.347 1.646-7.243 5.729-7.243 10.404v46.03H30.498v.001zm347.235 41.749c0 27.395-46.688 52.681-69.209 62.099-21.6-9.154-69.21-34.902-69.21-62.099v-3.886h15.146c6.124 0 11.129-4.939 11.129-11.128 0-6.124-4.939-11.129-11.129-11.129h-15.146v-19.755h41.355c6.123 0 11.128-4.939 11.128-11.129 0-6.124-4.938-11.129-11.128-11.129h-41.355V234.3c37.403-15.211 58.146-34.967 69.21-47.874 11.128 12.841 31.806 32.663 69.209 47.94v80.338z"/></g></svg>