<svg xmlns="http://www.w3.org/2000/svg" xmlns:xlink="http://www.w3.org/1999/xlink" width="399.999" height="400"><defs><path id="a" d="M0 0h399.999v400H0z"/></defs><clipPath id="b"><use xlink:href="#a" overflow="visible"/></clipPath><path clip-path="url(#b)" fill="#FFF" d="M366.743 114.916c6.124 0 11.129-4.939 11.129-11.129V33.322c0-6.124-4.938-11.129-11.129-11.129H33.453c-6.124 0-11.128 4.939-11.128 11.129v70.53c0 6.124 4.938 11.129 11.128 11.129h333.29v-.065z"/><path clip-path="url(#b)" fill="#18b35c" d="M366.743 229.898c6.124 0 11.129-4.939 11.129-11.13v-70.464c0-6.125-4.938-11.129-11.129-11.129H33.453c-6.124 0-11.128 4.938-11.128 11.129v70.53c0 6.125 4.938 11.129 11.128 11.129h333.29v-.065z"/><path clip-path="url(#b)" fill="#56ACE0" d="M172.868 323.213h54.462v54.463h-54.462z"/><path clip-path="url(#b)" fill="#174F82" d="M399.934 33.322C399.934 14.949 384.984 0 366.611 0H33.388C15.014 0 .066 14.949.066 33.322v70.53c0 8.495 3.227 16.266 8.561 22.193-5.334 5.993-8.561 13.697-8.561 22.259v70.53c0 18.373 14.949 33.322 33.322 33.322h155.548v48.798h-27.264c-6.124 0-11.129 4.939-11.129 11.13v27.264H11.129C5.005 339.348 0 344.287 0 350.478c0 6.125 4.938 11.13 11.129 11.13h139.414v27.264c0 6.124 4.939 11.129 11.129 11.129h76.654c6.125 0 11.129-4.939 11.129-11.129v-27.264H388.87c6.124 0 11.129-4.939 11.129-11.13s-4.938-11.129-11.129-11.129H249.457v-27.265c0-6.124-4.939-11.129-11.129-11.129h-27.265v-48.798h155.548c18.373 0 33.322-14.949 33.322-33.322v-70.53c0-8.495-3.227-16.266-8.561-22.193 5.269-5.927 8.561-13.697 8.561-22.193V33.322zm-172.67 344.352h-54.462v-54.461h54.462v54.461zm150.476-158.84c0 6.125-4.938 11.129-11.129 11.129H33.388c-6.124 0-11.129-4.938-11.129-11.129v-70.53c0-6.124 4.939-11.129 11.129-11.129h333.223c6.125 0 11.129 4.939 11.129 11.129v70.53zm0-114.982c0 6.124-4.938 11.129-11.129 11.129H33.388c-6.124 0-11.129-4.939-11.129-11.129v-70.53c0-6.124 4.939-11.129 11.129-11.129h333.223c6.125 0 11.129 4.939 11.129 11.129v70.53z"/><path clip-path="url(#b)" fill="#174F82" d="M73.494 41.488c-6.125 0-11.129 4.939-11.129 11.129v31.94c0 6.124 4.939 11.129 11.129 11.129s11.129-4.938 11.129-11.129V52.618c0-6.19-5.005-11.13-11.129-11.13m51.893 0c-6.124 0-11.129 4.939-11.129 11.129v31.94c0 6.124 4.939 11.129 11.129 11.129a11.072 11.072 0 0 0 11.129-11.129V52.618c-.065-6.19-5.004-11.13-11.129-11.13m201.119 15.937h-31.939c-6.125 0-11.129 4.938-11.129 11.129 0 6.124 4.938 11.129 11.129 11.129h31.939c6.124 0 11.129-4.938 11.129-11.129-.065-6.124-5.005-11.129-11.129-11.129M73.494 156.47c-6.125 0-11.129 4.938-11.129 11.129v31.94c0 6.125 4.939 11.129 11.129 11.129s11.129-4.938 11.129-11.129v-31.94c0-6.191-5.005-11.129-11.129-11.129m51.893 0c-6.124 0-11.129 4.938-11.129 11.129v31.94c0 6.125 4.939 11.129 11.129 11.129a11.072 11.072 0 0 0 11.129-11.129v-31.94c-.065-6.191-5.004-11.129-11.129-11.129m201.119 16.003h-31.939c-6.125 0-11.129 4.938-11.129 11.129 0 6.124 4.938 11.129 11.129 11.129h31.939c6.124 0 11.129-4.938 11.129-11.129-.065-6.19-5.005-11.129-11.129-11.129"/></svg>