<svg xmlns="http://www.w3.org/2000/svg" width="512" height="512"><path d="M0 70.621h512v414.897C512 500.145 500.145 512 485.517 512H26.483C11.855 512 0 500.145 0 485.517V70.621z" data-original="#E6E6E6" fill="#e6e6e6"/><path d="M432.552 317.793v-52.966h-37.879a140.47 140.47 0 0 0-21.848-52.886l26.739-26.748-37.447-37.447-26.748 26.739a140.47 140.47 0 0 0-52.886-21.848v-37.879h-52.966v37.879a140.47 140.47 0 0 0-52.886 21.848l-26.748-26.739-37.447 37.447 26.739 26.748a140.47 140.47 0 0 0-21.848 52.886H79.448v52.966h37.879a140.47 140.47 0 0 0 21.848 52.886l-26.739 26.748 37.447 37.447 26.748-26.739a140.47 140.47 0 0 0 52.886 21.848v37.879h52.966v-37.879a140.47 140.47 0 0 0 52.886-21.848l26.748 26.739 37.447-37.447-26.739-26.748a140.47 140.47 0 0 0 21.848-52.886h37.879z" data-original="#E3646A" data-old_color="#18b35c" fill="#18b35c"/><circle cx="256" cy="291.31" r="105.931" data-original="#E6E6E6" fill="#e6e6e6"/><path d="M26.483 0h459.034C500.145 0 512 11.855 512 26.483v44.138H0V26.483C0 11.855 11.855 0 26.483 0z" data-original="#2996BF" data-old_color="#03305d" fill="#03305d"/><path data-original="#006684" class="active-path" data-old_color="#03305D" fill="#006684" d="M61.793 26.483h17.655v17.655H61.793zm35.31 0h17.655v17.655H97.103zm-70.62 0h17.655v17.655H26.483zm188.91 298.372l-35.31-26.483c-3.902-2.922-4.687-8.457-1.766-12.359a8.822 8.822 0 0 1 1.766-1.766l35.31-26.483 10.593 14.124-25.891 19.421 25.891 19.421-10.593 14.125zm81.214 0l-10.593-14.124 25.891-19.421-25.891-19.421 10.593-14.124 35.31 26.483c3.902 2.922 4.687 8.457 1.766 12.359a8.822 8.822 0 0 1-1.766 1.766l-35.31 26.482zm-14.74-74.383l-35.319 88.263-16.39-6.559 35.318-88.263z"/></svg>