<svg version="1.2" xmlns="http://www.w3.org/2000/svg" viewBox="0 0 380 380" width="510" height="510">
	<title>emoji_satisfaction_meter-ai</title>
	<style>
		.s0 { fill: #cc2334 } 
		.s1 { fill: #000000 } 
	</style>
	<g id="Objects">
		<g id="&lt;Group&gt;">
			<g id="&lt;Group&gt;">
				<path id="&lt;Path&gt;" class="s0" d="m379.2 189.6c0 104.7-84.8 189.5-189.5 189.5-104.6 0-189.4-84.8-189.4-189.5 0-104.6 84.8-189.5 189.4-189.5 104.7 0 189.5 84.9 189.5 189.5z"/>
				<g id="&lt;Group&gt;">
					<path id="&lt;Path&gt;" class="s1" d="m84 126.2c-2-0.1-3.7 1.6-3.7 3.6 0 1.6 1.1 3.1 2.6 3.5 5.3 1.3 17.1 5.3 26.7 15.2-7.9 5.4-13.1 14.5-13.1 24.9 0 16.7 13.5 30.2 30.2 30.2 16.6 0 30.2-13.5 30.2-30.2 0-40.4-57.5-46.3-72.9-47.2z"/>
					<path id="&lt;Path&gt;" class="s1" d="m295.5 126.2c-15.4 0.9-72.9 6.8-72.9 47.2 0 16.7 13.6 30.2 30.2 30.2 16.7 0 30.2-13.5 30.2-30.2 0-10.4-5.2-19.5-13.1-24.9 9.6-9.9 21.4-13.9 26.6-15.2 1.6-0.4 2.7-1.9 2.7-3.5 0-2-1.7-3.7-3.7-3.6z"/>
				</g>
				<path id="&lt;Path&gt;" class="s1" d="m241.7 288.8c-2.8 0-5.6-1.4-7.2-4-0.7-1-15.5-23.7-44.8-23.7-28.6 0-44.1 22.9-44.8 23.9-2.6 3.9-7.9 5-11.8 2.4-3.9-2.6-5-7.9-2.5-11.8 0.9-1.3 21.1-31.6 59.1-31.6 39 0 58.4 30.4 59.3 31.7 2.5 4 1.2 9.3-2.8 11.8-1.4 0.9-2.9 1.3-4.5 1.3z"/>
			</g>
		</g>
	</g>
</svg>