<svg version="1.2" xmlns="http://www.w3.org/2000/svg" viewBox="0 0 380 380" width="510" height="510">
	<title>emoji_satisfaction_meter-ai</title>
	<style>
		.s0 { fill: #ef8035 } 
		.s1 { fill: #000000 } 
	</style>
	<g id="Objects">
		<g id="&lt;Group&gt;">
			<g id="&lt;Group&gt;">
				<path id="&lt;Path&gt;" class="s0" d="m379.5 189.6c0 104.7-84.8 189.5-189.5 189.5-104.7 0-189.5-84.8-189.5-189.5 0-104.6 84.8-189.5 189.5-189.5 104.7 0 189.5 84.9 189.5 189.5z"/>
				<path id="&lt;Path&gt;" class="s1" d="m157.1 189.6c0 16.7-13.5 30.2-30.2 30.2-16.7 0-30.2-13.5-30.2-30.2 0-16.6 13.5-30.2 30.2-30.2 16.7 0 30.2 13.6 30.2 30.2z"/>
				<path id="&lt;Path&gt;" class="s1" d="m222.9 189.6c0 16.7 13.5 30.2 30.2 30.2 16.7 0 30.2-13.5 30.2-30.2 0-16.6-13.5-30.2-30.2-30.2-16.7 0-30.2 13.6-30.2 30.2z"/>
				<path id="&lt;Path&gt;" class="s1" d="m242 288.8h-104c-4.7 0-8.5-3.8-8.5-8.5 0-4.7 3.8-8.6 8.5-8.6h104c4.7 0 8.5 3.9 8.5 8.6 0 4.7-3.8 8.5-8.5 8.5z"/>
			</g>
		</g>
	</g>
</svg>