<svg version="1.2" xmlns="http://www.w3.org/2000/svg" viewBox="0 0 380 380" width="510" height="510">
	<title>emoji_satisfaction_meter-ai</title>
	<style>
		.s0 { fill: #efb025 } 
		.s1 { fill: #000000 } 
	</style>
	<g id="Objects">
		<g id="&lt;Group&gt;">
			<g id="&lt;Group&gt;">
				<path id="&lt;Path&gt;" class="s0" d="m379.1 189.6c0 104.7-84.8 189.5-189.5 189.5-104.6 0-189.5-84.8-189.5-189.5 0-104.6 84.9-189.5 189.5-189.5 104.7 0 189.5 84.9 189.5 189.5z"/>
				<path id="&lt;Path&gt;" class="s1" d="m156.7 173.4c0 16.7-13.5 30.2-30.2 30.2-16.6 0-30.2-13.5-30.2-30.2 0-16.7 13.6-30.2 30.2-30.2 16.7 0 30.2 13.5 30.2 30.2z"/>
				<path id="&lt;Path&gt;" class="s1" d="m222.5 173.4c0 16.7 13.5 30.2 30.2 30.2 16.7 0 30.2-13.5 30.2-30.2 0-16.7-13.5-30.2-30.2-30.2-16.7 0-30.2 13.5-30.2 30.2z"/>
				<path id="&lt;Path&gt;" class="s1" d="m189.6 288.8c-38.9 0-58.4-30.4-59.2-31.7-2.5-4-1.3-9.3 2.7-11.8 4-2.5 9.3-1.3 11.8 2.7 0.6 1 15.5 23.7 44.7 23.7 28.9 0 44.7-23.6 44.9-23.8 2.5-4 7.8-5.1 11.8-2.5 3.9 2.6 5 7.9 2.4 11.8-0.8 1.3-21 31.6-59.1 31.6z"/>
			</g>
		</g>
	</g>
</svg>