<svg version="1.2" xmlns="http://www.w3.org/2000/svg" viewBox="0 0 380 380" width="510" height="510">
	<title>emoji_satisfaction_meter-ai</title>
	<style>
		.s0 { fill: #6ebf43 } 
		.s1 { fill: #000000 } 
	</style>
	<g id="Objects">
		<g id="&lt;Group&gt;">
			<g id="&lt;Group&gt;">
				<path id="&lt;Path&gt;" class="s0" d="m379.7 189.6c0 104.7-84.8 189.5-189.4 189.5-104.7 0-189.5-84.8-189.5-189.5 0-104.6 84.8-189.5 189.5-189.5 104.6 0 189.4 84.9 189.4 189.5z"/>
				<path id="&lt;Path&gt;" class="s1" d="m155.8 186.3c-1.1 0.9-2.6 1-3.9 0.3-29.8-16.4-62.1-8-69.1-6.7q-0.4 0.1-0.7 0.1c-1.4 0-2.6-0.8-3.2-2-0.9-1.9 0.2-3.6 1.8-4.9 5.1-4.1 38.6-32.2 75.6 7.9 1.5 1.6 1.3 4-0.5 5.3z"/>
				<path id="&lt;Path&gt;" class="s1" d="m224.7 186.3c1.1 0.9 2.6 1 3.9 0.3 29.9-16.4 62.1-8 69.2-6.7q0.3 0.1 0.6 0.1c1.4 0 2.6-0.8 3.2-2 0.9-1.9-0.2-3.6-1.8-4.9-5.1-4.1-38.6-32.2-75.6 7.9-1.4 1.6-1.2 4 0.5 5.3z"/>
				<path id="&lt;Path&gt;" class="s1" d="m123.1 252.5c0 0 10.9 48.7 67.2 48.7 55.7 0 67.1-48.7 67.1-48.7z"/>
			</g>
		</g>
	</g>
</svg>