<svg xmlns="http://www.w3.org/2000/svg" width="77.966" height="80" viewBox="0 0 77.966 80">
  <g id="Group_163736" data-name="Group 163736" transform="translate(-6.508)">
    <path id="Path_234637" data-name="Path 234637" d="M112.271,135.973a1.45,1.45,0,0,1,1.449,1.449v10.959h25.658l-1.816-2.008a1.3,1.3,0,0,1-.025-1.823,3.468,3.468,0,0,1,4.924-.02l2.18,2.18a1.686,1.686,0,0,0,1.036.5q.073.006.144.006a1.625,1.625,0,0,0,1.623-1.623v-9.565L147.32,136a10.7,10.7,0,0,1,1.507-21.082v-5.562h-9.509a1.128,1.128,0,0,1-1.127-1.127v-7.648H105.072v35.389h7.2Z" transform="translate(-83.163 -84.868)" fill="#f9f3f1"/>
    <path id="Path_234638" data-name="Path 234638" d="M179.117,182.243V171.779a1.172,1.172,0,0,0-2.344,0v10.464Z" transform="translate(-143.661 -143.95)" fill="#05e39c"/>
    <path id="Path_234639" data-name="Path 234639" d="M219.659,194.894v-8.122a1.172,1.172,0,0,0-2.344,0v8.122Z" transform="translate(-177.868 -156.601)" fill="#ffc344"/>
    <path id="Path_234640" data-name="Path 234640" d="M260.2,156.941v-15.15a1.172,1.172,0,1,0-2.344,0v15.15Z" transform="translate(-212.075 -118.647)" fill="#05e39c"/>
    <path id="Path_234641" data-name="Path 234641" d="M300.742,207.546v-5.779a1.172,1.172,0,1,0-2.344,0v5.779Z" transform="translate(-246.282 -169.253)" fill="#fe646f"/>
    <path id="Path_234642" data-name="Path 234642" d="M342.353,180.513v11.125a3.511,3.511,0,0,1,.314.275l2.18,2.18a1.686,1.686,0,0,0,1.036.5q.073.006.144.006a1.625,1.625,0,0,0,1.623-1.623v-9.565l-.125-.029A10.682,10.682,0,0,1,342.353,180.513Zm0-23.773v8.7a10.676,10.676,0,0,1,6.679-3.137V156.74Z" transform="translate(-283.369 -132.249)" fill="#f3eae6"/>
    <path id="Path_234643" data-name="Path 234643" d="M138.191,47.657H106.682a1.61,1.61,0,0,0-1.61,1.61v6.825h33.119Z" transform="translate(-83.163 -40.211)" fill="#26a6fe"/>
    <path id="Path_234644" data-name="Path 234644" d="M284.845,47.657h5.029v8.434h-5.029Z" transform="translate(-234.847 -40.211)" fill="#0593fc"/>
    <path id="Path_234645" data-name="Path 234645" d="M106.717,47.657a1.644,1.644,0,0,0-1.644,1.644v6.79h8.657V47.657Z" transform="translate(-83.164 -40.211)" fill="#60b7ff"/>
    <path id="Path_234646" data-name="Path 234646" d="M171.707,294.94H154.151a1.18,1.18,0,0,0-.247.027,1.445,1.445,0,0,1,.242.8v1.515h17.561a1.172,1.172,0,0,0,0-2.344Zm8.883,2.344h-4.814a1.172,1.172,0,0,1,0-2.344h4.814a1.172,1.172,0,0,1,0,2.344Zm.886-7.092a10.626,10.626,0,0,1-1.106-1.937h-26.22a1.172,1.172,0,0,0,0,2.344h26.44A1.168,1.168,0,0,0,181.476,290.191Z" transform="translate(-123.585 -243.214)" fill="#838383"/>
    <path id="Path_234647" data-name="Path 234647" d="M179.217,246.423a1.174,1.174,0,0,0,.257-.029,10.686,10.686,0,0,1,.278-2.185,1.165,1.165,0,0,0-.534-.13H154.151a1.172,1.172,0,0,0,0,2.344Z" transform="translate(-123.585 -205.942)" fill="#bfbfbf"/>
    <path id="Path_234648" data-name="Path 234648" d="M29.685,236.432V228.5a6.506,6.506,0,0,1,13.012,0,1.172,1.172,0,1,0,2.344,0,8.85,8.85,0,1,0-17.7,0v7.931Z" transform="translate(-17.578 -185.331)" fill="#838383"/>
    <path id="Path_234649" data-name="Path 234649" d="M29.108,345.78H8.118a1.61,1.61,0,0,1-1.61-1.61V327.656a1.61,1.61,0,0,1,1.61-1.61h20.99a1.61,1.61,0,0,1,1.61,1.61V344.17A1.61,1.61,0,0,1,29.108,345.78Z" transform="translate(0 -275.101)" fill="#ffd15b"/>
    <path id="Path_234650" data-name="Path 234650" d="M120.883,326.046h-5.6a1.61,1.61,0,0,1,1.61,1.61V344.17a1.61,1.61,0,0,1-1.61,1.61h5.6a1.61,1.61,0,0,0,1.61-1.61V327.656A1.61,1.61,0,0,0,120.883,326.046Z" transform="translate(-91.776 -275.101)" fill="#ffc344"/>
    <path id="Path_234651" data-name="Path 234651" d="M77.651,361.51a1.172,1.172,0,0,1-1.172-1.172V355.83a1.172,1.172,0,1,1,2.344,0v4.509A1.172,1.172,0,0,1,77.651,361.51Z" transform="translate(-59.038 -299.243)" fill="#eca026"/>
    <path id="Path_234652" data-name="Path 234652" d="M329.949,0h-12.66A1.288,1.288,0,0,0,316,1.288V23.364a1.288,1.288,0,0,0,1.288,1.288h16.333a1.288,1.288,0,0,0,1.288-1.288V4.961a1.288,1.288,0,0,0-.377-.911L330.859.377A1.288,1.288,0,0,0,329.949,0Z" transform="translate(-261.135 0)" fill="#ffd15b"/>
    <path id="Path_234653" data-name="Path 234653" d="M382.694,4.05,379.021.377A1.287,1.287,0,0,0,378.11,0h-5.029a1.287,1.287,0,0,1,.91.377l3.673,3.673a1.287,1.287,0,0,1,.377.911v18.4a1.288,1.288,0,0,1-1.288,1.288h5.029a1.288,1.288,0,0,0,1.288-1.288V4.961a1.288,1.288,0,0,0-.377-.911Z" transform="translate(-309.296 0)" fill="#ffc344"/>
    <path id="Path_234654" data-name="Path 234654" d="M352.412,45.059h-8.076a1.172,1.172,0,1,1,0-2.344h8.076a1.172,1.172,0,1,1,0,2.344Zm0,4.932h-8.076a1.172,1.172,0,1,1,0-2.344h8.076a1.172,1.172,0,1,1,0,2.344ZM348.2,54.922h-3.864a1.172,1.172,0,1,1,0-2.344H348.2a1.172,1.172,0,1,1,0,2.344Z" transform="translate(-284.054 -36.041)" fill="#eca026"/>
    <path id="Path_234655" data-name="Path 234655" d="M330.028,212.513V203.75a2.388,2.388,0,1,1,4.776,0v7.588h.313a2.386,2.386,0,0,1,4.4-1.288,10.861,10.861,0,1,0-9.484,2.462Z" transform="translate(-265.752 -161.185)" fill="#05e39c"/>
    <path id="Path_234656" data-name="Path 234656" d="M392.26,201.9a10.813,10.813,0,0,1-2.646,7.1,2.392,2.392,0,0,1,1.54,1.053,10.861,10.861,0,0,0-7.176-19.016,10.982,10.982,0,0,0-1.3.078A10.863,10.863,0,0,1,392.26,201.9Z" transform="translate(-317.394 -161.185)" fill="#0ed290"/>
    <path id="Path_234657" data-name="Path 234657" d="M359.831,236.522v-2.968a2.388,2.388,0,1,1,4.776,0v2.887a5.343,5.343,0,1,0-4.776.081Z" transform="translate(-295.556 -190.989)" fill="#0ed290"/>
    <path id="Path_234658" data-name="Path 234658" d="M383.931,231.7c0,.136-.006.271-.016.4a2.373,2.373,0,0,1,.494,1.448v2.887a5.344,5.344,0,0,0-4.145-9.814A5.345,5.345,0,0,1,383.931,231.7Z" transform="translate(-315.357 -190.989)" fill="#00c285"/>
    <path id="Path_234659" data-name="Path 234659" d="M352.806,231.153a1.167,1.167,0,0,0,.7.122v-2.431a4.172,4.172,0,1,1,4.776-.11v2.454a1.164,1.164,0,0,0,.732-.14,6.516,6.516,0,1,0-6.206.105Z" transform="translate(-289.227 -184.66)" fill="#00f2a6"/>
    <path id="Path_234660" data-name="Path 234660" d="M337.571,268a2.544,2.544,0,0,0-2.544,2.544v-2.1a2.544,2.544,0,0,0-5.089,0v-2.172a2.544,2.544,0,1,0-5.089,0v-7.588a2.544,2.544,0,1,0-5.089,0v18.163a1.462,1.462,0,0,1-1.592,1.456,1.524,1.524,0,0,1-.936-.455l-2.18-2.18a3.629,3.629,0,0,0-5.153.021,1.454,1.454,0,0,0,.021,2.043l10.6,11.719a6.1,6.1,0,0,1,1.577,4.094v.963a1.61,1.61,0,0,0,1.61,1.609h9.915a1.61,1.61,0,0,0,1.61-1.61v-1.66a3,3,0,0,1,1.281-2.484,8.26,8.26,0,0,0,3.6-6.826V270.54A2.544,2.544,0,0,0,337.571,268Z" transform="translate(-255.641 -216.114)" fill="#ffcebf"/>
    <path id="Path_234661" data-name="Path 234661" d="M440.787,332.041a2.543,2.543,0,0,0-2.51,2.143,2.55,2.55,0,0,1,.035.4V347.58a8.261,8.261,0,0,1-3.6,6.826,3,3,0,0,0-1.281,2.484v1.66a1.61,1.61,0,0,1-1.61,1.61h5.019a1.61,1.61,0,0,0,1.61-1.61v-1.66a3,3,0,0,1,1.281-2.484,8.26,8.26,0,0,0,3.6-6.826V334.585a2.544,2.544,0,0,0-2.544-2.544Z" transform="translate(-358.857 -280.16)" fill="#ffb09e"/>
  </g>
</svg>
