<svg xmlns="http://www.w3.org/2000/svg" width="76.494" height="76.551" viewBox="0 0 76.494 76.551">
  <g id="Group_166201" data-name="Group 166201" transform="translate(-2.615 -2.234)">
    <path id="Path_237926" data-name="Path 237926" d="M183.845,48.6h41.948a4.935,4.935,0,0,1,4.935,4.935V59.7H183.845Z" transform="translate(-154.087 -40.196)" fill="#96a1c3"/>
    <path id="Path_237927" data-name="Path 237927" d="M30.117,48.6H51.745a4.935,4.935,0,0,1,4.417,2.727l.962,1.949A4.935,4.935,0,0,0,61.542,56h35.2V107.82a4.935,4.935,0,0,1-4.935,4.935H30.117a4.935,4.935,0,0,1-4.935-4.935V53.534A4.935,4.935,0,0,1,30.117,48.6Z" transform="translate(-20.099 -40.196)" fill="#f5f7ff"/>
    <path id="Path_237928" data-name="Path 237928" d="M91.806,410.524H30.117a4.935,4.935,0,0,1-4.935-4.935v3.7a4.935,4.935,0,0,0,4.935,4.935H91.806a4.935,4.935,0,0,0,4.935-4.935v-3.7a4.935,4.935,0,0,1-4.935,4.935Z" transform="translate(-20.099 -341.666)" fill="#ccd3eb"/>
    <path id="Path_237929" data-name="Path 237929" d="M31.524,15.1v5.564a16.249,16.249,0,0,1-11.1,15.41,16.249,16.249,0,0,1-11.1-15.41V15.1a20.974,20.974,0,0,0,11.1-6.169A20.9,20.9,0,0,0,31.524,15.1Z" transform="translate(-6.701 -6.699)" fill="#0074ff"/>
    <path id="Path_237930" data-name="Path 237930" d="M53.014,80.649l-3.7-3.7A1.239,1.239,0,1,1,51.065,75.2l2.825,2.838,5.293-5.305a1.239,1.239,0,0,1,1.752,1.752l-6.169,6.169a1.234,1.234,0,0,1-1.745.007Z" transform="translate(-40.17 -60.267)" fill="#f5f7ff"/>
    <circle id="Ellipse_451" data-name="Ellipse 451" cx="12.338" cy="12.338" r="12.338" transform="translate(54.434 54.052)" fill="#ccd3eb"/>
    <path id="Path_237931" data-name="Path 237931" d="M354.836,420.043a12.338,12.338,0,0,1-12.19-10.487,12.338,12.338,0,1,0,24.379,0A12.338,12.338,0,0,1,354.836,420.043Z" transform="translate(-288.064 -345.017)" fill="#96a1c3"/>
    <path id="Path_237932" data-name="Path 237932" d="M179.614,74.866h-2.468a1.234,1.234,0,0,1,0-2.468h2.468a1.234,1.234,0,1,1,0,2.468Z" transform="translate(-147.388 -60.294)" fill="#ccd3eb"/>
    <ellipse id="Ellipse_452" data-name="Ellipse 452" cx="9.87" cy="3.701" rx="9.87" ry="3.701" transform="translate(30.992 55.286)" fill="#96a1c3"/>
    <path id="Path_237933" data-name="Path 237933" d="M195.123,165.5a13.572,13.572,0,1,0-23.442,9.352c1.234,1.234,2.344,2.529,3.442,3.862l5.429,6.6a1.234,1.234,0,0,0,1.9,0c7.958-9.66,5.293-6.477,9.118-10.722A13.462,13.462,0,0,0,195.123,165.5Z" transform="translate(-140.689 -127.491)" fill="#ccd3eb"/>
    <path id="Path_237934" data-name="Path 237934" d="M154.581,199.328h27.143a2.468,2.468,0,0,1,2.468,2.468v12.338a2.468,2.468,0,0,1-2.468,2.468H154.581a2.468,2.468,0,0,1-2.468-2.468V201.8A2.468,2.468,0,0,1,154.581,199.328Z" transform="translate(-127.29 -167.484)" fill="#0074ff"/>
    <path id="Path_237938" data-name="Path 237938" d="M224.214,223.128h-2.467a1.234,1.234,0,0,0-1.234,1.234v7.4a1.234,1.234,0,1,0,2.468,0v-1.234h1.234a3.7,3.7,0,0,0,0-7.4Zm0,4.935h-1.234V225.6h1.234a1.234,1.234,0,1,1,0,2.468Zm-7.4-4.935a1.234,1.234,0,0,0-1.234,1.234v7.4a1.234,1.234,0,1,0,2.468,0v-7.4A1.234,1.234,0,0,0,216.812,223.128Z" transform="translate(-180.884 -187.582)" fill="#f5f7ff"/>
    <path id="Path_237940" data-name="Path 237940" d="M65.551,172.346h-7.4a1.234,1.234,0,0,0,0,2.468h7.4a1.234,1.234,0,0,0,0-2.468Zm0-4.935h-7.4a1.234,1.234,0,1,0,0,2.468h7.4a1.234,1.234,0,1,0,0-2.468ZM109.967,130.4h7.4a1.234,1.234,0,0,0,0-2.468h-7.4a1.234,1.234,0,0,0,0,2.468Zm7.4,2.468h-7.4a1.234,1.234,0,0,0,0,2.468h7.4a1.234,1.234,0,0,0,0-2.468Z" transform="translate(-46.897 -107.19)" fill="#96a1c3"/>
    <g id="Group_166202" data-name="Group 166202" transform="translate(54.435 54.052)">
      <path id="Path_237941" data-name="Path 237941" d="M256,20.624V43.311c5.938-.061,11.344-3.946,11.344-11.343S261.938,20.685,256,20.624Z" transform="translate(-243.663 -19.63)" fill="#def1ff"/>
      <path id="Path_237942" data-name="Path 237942" d="M31.948,21.1c4.841.075,8.862,4.9,8.862,10.847S36.79,42.72,31.948,42.8c-.038,0,.038.5,0,.5A11.715,11.715,0,0,1,20.6,31.948,11.715,11.715,0,0,1,31.948,20.6C31.987,20.6,31.91,21.1,31.948,21.1Z" transform="translate(-19.611 -19.611)" fill="#fff"/>
      <path id="Path_237943" data-name="Path 237943" d="M12.337,0A12.337,12.337,0,1,0,24.675,12.337,12.337,12.337,0,0,0,12.337,0ZM23.159,11.593H18.879a21.582,21.582,0,0,0-.725-5.017,12.359,12.359,0,0,0,2.222-1.523A10.805,10.805,0,0,1,23.159,11.593ZM13.082,1.619a5.391,5.391,0,0,1,2.7,2.86,12.518,12.518,0,0,1,.555,1.3,10.769,10.769,0,0,1-3.257.74v-4.9Zm4.033,2.194a10.045,10.045,0,0,0-1.027-1.658,10.835,10.835,0,0,1,3.2,1.856,10.9,10.9,0,0,1-1.606,1.116,13.808,13.808,0,0,0-.571-1.314ZM6.989,5.128A10.9,10.9,0,0,1,5.383,4.012a10.835,10.835,0,0,1,3.2-1.856A10.047,10.047,0,0,0,7.559,3.814a13.806,13.806,0,0,0-.571,1.314Zm1.9-.648a5.39,5.39,0,0,1,2.7-2.86v4.9a10.769,10.769,0,0,1-3.257-.74,12.551,12.551,0,0,1,.556-1.3Zm2.7,3.528v3.585H7.286a20.222,20.222,0,0,1,.607-4.387,12.28,12.28,0,0,0,3.7.8Zm0,5.075v3.585a12.275,12.275,0,0,0-3.7.8,20.226,20.226,0,0,1-.607-4.387Zm0,5.077v4.9a5.391,5.391,0,0,1-2.7-2.86,12.517,12.517,0,0,1-.556-1.3,10.769,10.769,0,0,1,3.257-.74Zm-4.033,2.7a10.045,10.045,0,0,0,1.027,1.658,10.836,10.836,0,0,1-3.2-1.856,10.894,10.894,0,0,1,1.605-1.116A13.817,13.817,0,0,0,7.559,20.861Zm10.127-1.314a10.9,10.9,0,0,1,1.606,1.116,10.836,10.836,0,0,1-3.2,1.856,10.047,10.047,0,0,0,1.027-1.658,13.832,13.832,0,0,0,.571-1.314Zm-1.9.648a5.39,5.39,0,0,1-2.7,2.86v-4.9a10.768,10.768,0,0,1,3.257.74,12.539,12.539,0,0,1-.555,1.3Zm-2.7-3.528V13.082h4.307a20.225,20.225,0,0,1-.607,4.388A12.277,12.277,0,0,0,13.082,16.667Zm0-5.075V8.008a12.278,12.278,0,0,0,3.7-.8,20.219,20.219,0,0,1,.607,4.388ZM4.3,5.052A12.364,12.364,0,0,0,6.521,6.575,21.584,21.584,0,0,0,5.8,11.593H1.515A10.805,10.805,0,0,1,4.3,5.052Zm-2.784,8.03H5.8A21.584,21.584,0,0,0,6.521,18.1,12.358,12.358,0,0,0,4.3,19.622a10.805,10.805,0,0,1-2.784-6.54Zm18.86,6.54A12.364,12.364,0,0,0,18.154,18.1a21.585,21.585,0,0,0,.725-5.017h4.28a10.805,10.805,0,0,1-2.784,6.54Z" fill="#0789de"/>
    </g>
  </g>
</svg>
