<svg id="Group_165693" data-name="Group 165693" xmlns="http://www.w3.org/2000/svg" width="24" height="18" viewBox="0 0 24 18">
  <path id="Path_237528" data-name="Path 237528" d="M21.25,0H2.75A2.752,2.752,0,0,0,0,2.75v12.5A2.752,2.752,0,0,0,2.75,18h18.5A2.752,2.752,0,0,0,24,15.25V2.75A2.752,2.752,0,0,0,21.25,0ZM7.5,4A2.5,2.5,0,1,1,5,6.5,2.5,2.5,0,0,1,7.5,4ZM12,13.25a.75.75,0,0,1-.75.75H3.75A.75.75,0,0,1,3,13.25v-.5A2.752,2.752,0,0,1,5.75,10h3.5A2.752,2.752,0,0,1,12,12.75Zm8.25.75h-5.5a.75.75,0,0,1,0-1.5h5.5a.75.75,0,0,1,0,1.5Zm0-4h-5.5a.75.75,0,0,1,0-1.5h5.5a.75.75,0,0,1,0,1.5Zm0-4h-5.5a.75.75,0,0,1,0-1.5h5.5a.75.75,0,0,1,0,1.5Zm0,0" fill="#f9fcfe"/>
</svg>
