<svg xmlns="http://www.w3.org/2000/svg" width="79.996" height="80" viewBox="0 0 79.996 80">
  <g id="Group_166196" data-name="Group 166196" transform="translate(-2 -1.998)">
    <path id="Path_237863" data-name="Path 237863" d="M35.353,45.046v7.747H33.1V45.046a1.129,1.129,0,0,1,2.254,0Z" transform="translate(7.773 10.494)" fill="#4f5d99"/>
    <path id="Path_237864" data-name="Path 237864" d="M70.83,46.246v7.812a1.133,1.133,0,0,1-2.266,0V47.373H11.708v6.685a1.129,1.129,0,0,1-2.254,0V46.246A1.12,1.12,0,0,1,10.58,45.12H39.01V35.989a1.129,1.129,0,0,1,2.254,0V45.12H69.691a1.132,1.132,0,0,1,1.14,1.126Z" transform="translate(1.863 8.23)" fill="#4f5d99"/>
    <path id="Path_237865" data-name="Path 237865" d="M45.4,42.83v3.23a.977.977,0,0,1-.977.979H27.376a.976.976,0,0,1-.979-.979V42.83a.977.977,0,0,1,.979-.977H44.419a.976.976,0,0,1,.977.977Z" transform="translate(6.098 9.961)" fill="#e9e9ff"/>
    <path id="Path_237866" data-name="Path 237866" d="M11.708,50.232a1.129,1.129,0,0,1-2.254,0" transform="translate(1.863 12.056)" fill="#4f5d99"/>
    <path id="Path_237867" data-name="Path 237867" d="M22.883,51.738V68.391a1.571,1.571,0,0,1-1.567,1.566H3.566A1.57,1.57,0,0,1,2,68.391V51.738a1.57,1.57,0,0,1,1.566-1.566H21.315A1.571,1.571,0,0,1,22.883,51.738Z" transform="translate(0 12.041)" fill="#7bd681"/>
    <path id="Path_237868" data-name="Path 237868" d="M70.174,51.737v16.65a1.566,1.566,0,0,1-1.566,1.567H50.867A1.566,1.566,0,0,1,49.3,68.388V51.737a1.566,1.566,0,0,1,1.566-1.567h17.74A1.566,1.566,0,0,1,70.174,51.737Z" transform="translate(11.822 12.04)" fill="#70c1f9"/>
    <path id="Path_237869" data-name="Path 237869" d="M46.529,52.1v15.9a1.946,1.946,0,0,1-1.946,1.946H27.6a1.946,1.946,0,0,1-1.946-1.946V52.1A1.936,1.936,0,0,1,27.6,50.17h16.98A1.936,1.936,0,0,1,46.529,52.1Z" transform="translate(5.913 12.04)" fill="#fdc72e"/>
    <path id="Path_237870" data-name="Path 237870" d="M65.19,59.547a6.085,6.085,0,0,1-6.075,6.075,6.064,6.064,0,0,1-6.08-6.075,6.08,6.08,0,0,1,6.08-6.075c.1,0,.2,0,.295.009a5.913,5.913,0,0,1,1.447.242,6.085,6.085,0,0,1,4.332,5.823Z" transform="translate(12.756 12.865)" fill="#1cb2f4"/>
    <path id="Path_237871" data-name="Path 237871" d="M64.7,59.052a6.085,6.085,0,0,1-6.075,6.076,6.063,6.063,0,0,1-6.08-6.076,6.082,6.082,0,0,1,6.078-6.075,2.87,2.87,0,0,1,.3.01,5.923,5.923,0,0,1,1.447.242A6.085,6.085,0,0,1,64.7,59.052Z" transform="translate(12.633 12.742)" fill="#e9e9ff"/>
    <path id="Path_237872" data-name="Path 237872" d="M60.382,59.481l-3.276,2.43a.659.659,0,0,1-1.05-.53V56.527a.659.659,0,0,1,1.05-.53l3.276,2.429a.657.657,0,0,1,0,1.055Z" transform="translate(13.511 13.464)" fill="#cfcfff"/>
    <path id="Path_237873" data-name="Path 237873" d="M60.382,59l-3.276,2.429a.659.659,0,0,1-1.05-.53V56.046a.659.659,0,0,1,1.05-.53l3.276,2.429a.657.657,0,0,1,0,1.055Z" transform="translate(13.511 13.344)" fill="#ed524e"/>
    <path id="Path_237874" data-name="Path 237874" d="M13.182,54.7a2.532,2.532,0,1,1-2.532-2.532A2.534,2.534,0,0,1,13.182,54.7Z" transform="translate(1.529 12.539)" fill="#fdc72e"/>
    <path id="Path_237875" data-name="Path 237875" d="M15.472,67.686H3.566A1.57,1.57,0,0,1,2,66.12V60.167l.657-.909H9.363l2.631,3.635.455.626Z" transform="translate(0 14.312)" fill="#4f5d99"/>
    <path id="Path_237876" data-name="Path 237876" d="M14.167,66.958H7.21l3.477-4.795Z" transform="translate(1.302 15.038)" fill="#3d4a75"/>
    <path id="Path_237877" data-name="Path 237877" d="M21.4,60.152V66.12a1.571,1.571,0,0,1-1.567,1.566H7.941l3.024-4.167,3.086-4.261h6.7Z" transform="translate(1.485 14.312)" fill="#4f5d99"/>
    <g id="Group_166194" data-name="Group 166194" transform="translate(2.66 69.209)">
      <path id="Path_237878" data-name="Path 237878" d="M22.1,60.129l-3.045-4.2a.369.369,0,0,0-.6,0l-3.05,4.2Zm-12.877,0-3.045-4.2a.369.369,0,0,0-.6,0l-3.05,4.2Z" transform="translate(-2.528 -55.769)" fill="#e9e9ff"/>
    </g>
    <path id="Path_237879" data-name="Path 237879" d="M8.239,13.224H72.647v24.05H8.239Z" transform="translate(1.559 2.806)" fill="#b72a2a"/>
    <path id="Path_237880" data-name="Path 237880" d="M76.262,24.6V38.931a3.1,3.1,0,0,1-3.1,3.1H8.925a3.1,3.1,0,0,1-3.1-3.1V24.6a3.1,3.1,0,0,1,3.1-3.1H73.16a3.1,3.1,0,0,1,3.1,3.1Z" transform="translate(0.956 4.873)" fill="#ed524e"/>
    <path id="Path_237881" data-name="Path 237881" d="M61.735,29.036v2.112A.851.851,0,0,1,60.88,32h-23.7a.852.852,0,0,1-.855-.855V29.036a.851.851,0,0,1,.855-.855h23.7A.851.851,0,0,1,61.735,29.036Z" transform="translate(8.58 6.544)" fill="#e9e9ff"/>
    <path id="Path_237882" data-name="Path 237882" d="M18.224,30.374a3.441,3.441,0,1,1-3.439-3.327A3.441,3.441,0,0,1,18.224,30.374Z" transform="translate(2.335 6.261)" fill="#70c1f9"/>
    <path id="Path_237883" data-name="Path 237883" d="M23.824,30.115a2.03,2.03,0,1,1-2.032-2.026,2.03,2.03,0,0,1,2.032,2.026Z" transform="translate(4.44 6.521)" fill="#fdc72e"/>
    <path id="Path_237884" data-name="Path 237884" d="M29.767,30.115a2.03,2.03,0,1,1-2.032-2.026,2.03,2.03,0,0,1,2.032,2.026Z" transform="translate(5.925 6.521)" fill="#e9e9ff"/>
    <path id="Path_237885" data-name="Path 237885" d="M76.262,5.1V19.437a3.1,3.1,0,0,1-3.1,3.1H8.925a3.1,3.1,0,0,1-3.1-3.1V5.1A3.1,3.1,0,0,1,8.925,2H73.16a3.1,3.1,0,0,1,3.1,3.1Z" transform="translate(0.956 0)" fill="#ed524e"/>
    <path id="Path_237886" data-name="Path 237886" d="M61.735,9.541v2.112a.851.851,0,0,1-.855.855h-23.7a.852.852,0,0,1-.855-.856V9.541a.85.85,0,0,1,.855-.854h23.7a.851.851,0,0,1,.855.855Z" transform="translate(8.58 1.672)" fill="#e9e9ff"/>
    <path id="Path_237887" data-name="Path 237887" d="M18.224,10.879a3.441,3.441,0,1,1-3.439-3.327A3.441,3.441,0,0,1,18.224,10.879Z" transform="translate(2.335 1.388)" fill="#70c1f9"/>
    <path id="Path_237888" data-name="Path 237888" d="M23.824,10.62a2.03,2.03,0,1,1-2.032-2.027,2.03,2.03,0,0,1,2.032,2.027Z" transform="translate(4.44 1.648)" fill="#fdc72e"/>
    <path id="Path_237889" data-name="Path 237889" d="M29.767,10.62a2.03,2.03,0,1,1-2.032-2.027,2.03,2.03,0,0,1,2.032,2.027Z" transform="translate(5.925 1.648)" fill="#e9e9ff"/>
    <path id="Path_237890" data-name="Path 237890" d="M35.62,59.292h5.625a6.034,6.034,0,0,1-6.012,6.033,6.131,6.131,0,0,1-6.056-6.035,6.04,6.04,0,0,1,6.035-6.033l0,5.63A.406.406,0,0,0,35.62,59.292Z" transform="translate(6.793 12.812)" fill="#ed524e"/>
    <path id="Path_237891" data-name="Path 237891" d="M40.951,58.382H35.325a.4.4,0,0,1-.4-.4l-.01-5.626a6.041,6.041,0,0,1,6.041,6.03Z" transform="translate(8.226 12.586)" fill="#7bd681"/>
    <g id="Group_166195" data-name="Group 166195" transform="translate(15.718 2.004)" opacity="0.2">
      <path id="Path_237892" data-name="Path 237892" d="M53.223,46.9H28.074L12.975,2H38.124Zm13.6,0H59.7L44.586,2h7.137Z" transform="translate(-12.975 -2.003)" fill="#fff"/>
    </g>
  </g>
</svg>
