<svg xmlns="http://www.w3.org/2000/svg" width="80.001" height="80" viewBox="0 0 80.001 80">
  <g id="Group_166199" data-name="Group 166199" transform="translate(0.002)">
    <path id="Path_237916" data-name="Path 237916" d="M124.932,67.944v51.275a4.151,4.151,0,0,1-4.151,4.151H69.506a4.151,4.151,0,0,1-4.151-4.151V67.944a4.151,4.151,0,0,1,4.151-4.151h51.275A4.151,4.151,0,0,1,124.932,67.944Z" transform="translate(-55.145 -53.825)" fill="#76ffd9"/>
    <path id="Path_237917" data-name="Path 237917" d="M141.419,92.965V137.79a3.629,3.629,0,0,1-3.629,3.629H92.965a3.629,3.629,0,0,1-3.629-3.629V92.965a3.629,3.629,0,0,1,3.629-3.629H137.79A3.629,3.629,0,0,1,141.419,92.965Z" transform="translate(-75.379 -75.377)" fill="#00c395"/>
    <path id="Path_237918" data-name="Path 237918" d="M174.353,138.26V170.2a2.586,2.586,0,0,1-2.586,2.586H139.827a2.586,2.586,0,0,1-2.586-2.586V138.26a2.585,2.585,0,0,1,2.586-2.586h31.941A2.585,2.585,0,0,1,174.353,138.26Z" transform="translate(-115.799 -114.475)" fill="#d8e0ea"/>
    <path id="Path_237919" data-name="Path 237919" d="M195.973,138.26V170.2a2.586,2.586,0,0,1-2.586,2.586H165.45a2.586,2.586,0,0,1-2.586-2.586V138.26a2.585,2.585,0,0,1,2.586-2.586h27.937A2.585,2.585,0,0,1,195.973,138.26Z" transform="translate(-137.418 -114.475)" fill="#fff"/>
    <path id="Path_237920" data-name="Path 237920" d="M182.749,161.212a3.663,3.663,0,1,1-2.275-3.39A3.663,3.663,0,0,1,182.749,161.212Zm-4.558,19.655a3.417,3.417,0,1,1-2.032-3.124A3.419,3.419,0,0,1,178.192,180.867Zm20.348-7.812a4.394,4.394,0,0,1-3.008,4.17,4.35,4.35,0,0,1-1.386.225,4.4,4.4,0,1,1,0-8.791,4.345,4.345,0,0,1,1.386.225A4.4,4.4,0,0,1,198.539,173.055Z" transform="translate(-144.582 -132.932)" fill="#ffa816"/>
    <path id="Path_237921" data-name="Path 237921" d="M197.731,162.687a3.663,3.663,0,0,1-2.275,3.39,3.662,3.662,0,0,1,0-6.779A3.663,3.663,0,0,1,197.731,162.687Zm-4.558,19.655a3.419,3.419,0,0,1-2.032,3.126,3.42,3.42,0,0,1,0-6.25A3.418,3.418,0,0,1,193.173,182.342Zm20.348-7.812a4.394,4.394,0,0,1-3.008,4.17,4.4,4.4,0,0,1,0-8.342A4.4,4.4,0,0,1,213.521,174.529Z" transform="translate(-159.563 -134.407)" fill="#ffc843"/>
    <path id="Path_237922" data-name="Path 237922" d="M10.21,110.945a1.178,1.178,0,0,0,1.178-1.178V61.59a2.986,2.986,0,0,1,2.928-2.974,1.177,1.177,0,0,0-.017-2.354H14.28A5.348,5.348,0,0,0,9.033,61.59V69.2H1.176a1.178,1.178,0,0,0,0,2.355H9.033v6.191H1.176a1.178,1.178,0,0,0,0,2.355H9.033v6.191H1.176a1.178,1.178,0,1,0,0,2.355H9.033V94.84H1.176a1.178,1.178,0,0,0,0,2.355H9.033v6.191H1.176a1.178,1.178,0,1,0,0,2.355H9.033v4.027a1.178,1.178,0,0,0,1.178,1.178Zm53.877,4.894H14.361a2.965,2.965,0,0,1-2.754-1.848,1.177,1.177,0,1,0-2.179.892,5.31,5.31,0,0,0,4.933,3.311h7.368v8.1a1.178,1.178,0,1,0,2.355,0v-8.1h6.191v8.1a1.178,1.178,0,0,0,2.355,0v-8.1h6.191v8.1a1.178,1.178,0,1,0,2.355,0v-8.1h6.191v8.1a1.178,1.178,0,1,0,2.355,0v-8.1h6.191v8.1a1.178,1.178,0,1,0,2.355,0v-8.1h5.82a1.177,1.177,0,1,0,0-2.355Z" transform="translate(0 -47.472)" fill="#434c54"/>
    <path id="Path_237923" data-name="Path 237923" d="M165.409,167.607a3.767,3.767,0,0,0,3.763-3.763V131.9a3.767,3.767,0,0,0-3.763-3.763H133.468A3.767,3.767,0,0,0,129.7,131.9v31.942a3.767,3.767,0,0,0,3.763,3.763h31.941ZM138.86,158a2.24,2.24,0,1,1,3.338-1.953A2.24,2.24,0,0,1,138.86,158Zm27.957,5.839a1.41,1.41,0,0,1-1.408,1.408H150.738V160.16h16.079Zm-6.637-33.35h5.228a1.409,1.409,0,0,1,1.408,1.408v25.9H150.738v-8.388h2.817a5.573,5.573,0,1,0,6.625-6.626h0Zm2.04,17.746A3.218,3.218,0,1,1,159,145.02,3.22,3.22,0,0,1,162.22,148.239ZM132.06,131.9a1.409,1.409,0,0,1,1.408-1.408h24.357v12.3a5.593,5.593,0,0,0-4.27,4.27h-8.678v-6.038a4.839,4.839,0,1,0-5.682-5.682H132.06Zm11.885,6.858a2.485,2.485,0,1,1,2.485-2.485A2.489,2.489,0,0,1,143.945,138.759ZM132.06,163.843V137.7h7.258a4.93,4.93,0,0,0,3.2,3.2v7.338a1.178,1.178,0,0,0,1.178,1.178h4.683v15.835h-7.9v-4.635a4.6,4.6,0,1,0-2.355-.349v4.983h-4.66a1.41,1.41,0,0,1-1.408-1.408Z" transform="translate(-109.44 -108.116)" fill="#00a97d"/>
    <path id="Path_237924" data-name="Path 237924" d="M175.121,32.632a1.178,1.178,0,0,0,0-2.355h-7.857V24.086h7.857a1.178,1.178,0,0,0,0-2.355h-7.857V14.118a5.335,5.335,0,0,0-5.329-5.329h-7.368V1.178a1.178,1.178,0,0,0-2.355,0V8.79h-6.191V1.178a1.178,1.178,0,0,0-2.355,0V8.79h-6.191V1.178a1.178,1.178,0,0,0-2.355,0V8.79H128.93V1.178a1.178,1.178,0,1,0-2.355,0V8.79h-6.191V1.178a1.178,1.178,0,1,0-2.355,0V8.79h-2.72a1.178,1.178,0,1,0,0,2.355h46.627a2.977,2.977,0,0,1,2.974,2.974V65.394a2.945,2.945,0,0,1-.922,2.153,1.178,1.178,0,0,0,1.625,1.705,5.287,5.287,0,0,0,1.652-3.858V58.269h7.857a1.178,1.178,0,0,0,0-2.355h-7.857V49.723h7.857a1.178,1.178,0,0,0,0-2.355h-7.857V41.178h7.857a1.178,1.178,0,0,0,0-2.355h-7.857V32.632Z" transform="translate(-96.3)" fill="#434c54"/>
  </g>
</svg>
