<svg xmlns="http://www.w3.org/2000/svg" width="78.731" height="80" viewBox="0 0 78.731 80">
  <g id="Group_169699" data-name="Group 169699" transform="translate(-1 -1)">
    <path id="Path_243676" data-name="Path 243676" d="M38.159,56v8.889H28V56Z" transform="translate(7.286 14.842)" fill="#4d5662"/>
    <path id="Path_243677" data-name="Path 243677" d="M78.664,29.94a13.711,13.711,0,0,0-3.022-4.533,13.975,13.975,0,0,0-9.879-4.089H63.083A22.851,22.851,0,0,0,19.9,13.711l-.013-.013h-1.1A17.776,17.776,0,0,0,1,31.479a18.087,18.087,0,0,0,16.508,17.8V41.635a3.8,3.8,0,0,1,3.81-3.81h38.1a3.8,3.8,0,0,1,3.81,3.81v7.619h2.54a13.962,13.962,0,0,0,12.9-19.314Z" transform="translate(0 0)" fill="#e6ecf4"/>
    <path id="Path_243678" data-name="Path 243678" d="M59.715,51v2.54a3.8,3.8,0,0,1-3.81,3.81H17.81A3.8,3.8,0,0,1,14,53.54V51Z" transform="translate(3.508 13.493)" fill="#636a74"/>
    <path id="Path_243679" data-name="Path 243679" d="M59.715,45.477V60.715H14V37.858a3.8,3.8,0,0,1,3.81-3.81h38.1a3.8,3.8,0,0,1,3.81,3.81ZM31.778,27.7h-2.54a3.813,3.813,0,0,1-3.81-3.81V18.809A3.813,3.813,0,0,1,29.238,15h2.54a3.813,3.813,0,0,1,3.81,3.81v5.079a3.813,3.813,0,0,1-3.81,3.81Zm-2.54-10.159a1.27,1.27,0,0,0-1.27,1.27v5.079a1.27,1.27,0,0,0,1.27,1.27h2.54a1.27,1.27,0,0,0,1.27-1.27V18.809a1.27,1.27,0,0,0-1.27-1.27ZM44.476,27.7H39.4a1.27,1.27,0,0,1,0-2.54h5.079a1.27,1.27,0,1,0,0-2.54h-2.54a3.81,3.81,0,0,1,0-7.619h5.079a1.27,1.27,0,1,1,0,2.54H41.937a1.27,1.27,0,1,0,0,2.54h2.54a3.81,3.81,0,1,1,0,7.619Z" transform="translate(3.508 3.778)" fill="#66a9ff"/>
    <path id="Path_243680" data-name="Path 243680" d="M56.176,64.555h-38.1A5.085,5.085,0,0,1,13,59.476v-25.4A5.084,5.084,0,0,1,18.079,29h38.1a5.084,5.084,0,0,1,5.078,5.079v25.4a5.084,5.084,0,0,1-5.078,5.078Zm-38.1-33.016a2.542,2.542,0,0,0-2.54,2.538v25.4a2.542,2.542,0,0,0,2.54,2.538h38.1a2.54,2.54,0,0,0,2.538-2.538v-25.4a2.54,2.54,0,0,0-2.538-2.537ZM48.555,73.444H25.7a1.27,1.27,0,1,1,0-2.54H48.555a1.27,1.27,0,1,1,0,2.54Z" transform="translate(3.238 7.556)" fill="#636a74"/>
    <g id="Group_169698" data-name="Group 169698" transform="translate(31.476 42.904)">
      <path id="Path_243681" data-name="Path 243681" d="M32.271,44.158A1.27,1.27,0,0,1,31,42.888V35.269a1.27,1.27,0,1,1,2.54,0v7.619A1.27,1.27,0,0,1,32.271,44.158Z" transform="translate(-23.381 -33.999)" fill="#e6ecf4"/>
      <path id="Path_243682" data-name="Path 243682" d="M32.811,44.078a1.266,1.266,0,0,1-.9-.372l-2.54-2.54a1.27,1.27,0,1,1,1.8-1.8l1.642,1.642,1.642-1.642a1.27,1.27,0,1,1,1.8,1.8l-2.54,2.54a1.266,1.266,0,0,1-.9.372Z" transform="translate(-23.92 -32.65)" fill="#e6ecf4"/>
      <path id="Path_243683" data-name="Path 243683" d="M37.65,48.889H30.13a5.092,5.092,0,0,1-3.627-1.5A5.159,5.159,0,0,1,25,43.76V41.27a1.27,1.27,0,1,1,2.54,0v2.489A2.607,2.607,0,0,0,28.3,45.59a2.571,2.571,0,0,0,1.832.759h7.52a2.591,2.591,0,0,0,2.588-2.591V41.27a1.27,1.27,0,1,1,2.54,0v2.489a5.131,5.131,0,0,1-5.13,5.13Z" transform="translate(-25 -32.38)" fill="#e6ecf4"/>
    </g>
  </g>
</svg>
