<svg xmlns="http://www.w3.org/2000/svg" width="75.021" height="80.653" viewBox="0 0 75.021 80.653">
  <g id="Group_169706" data-name="Group 169706" transform="translate(-28.107 -11)">
    <g id="Group_169703" data-name="Group 169703" transform="translate(42.034 40.715)">
      <path id="Path_243728" data-name="Path 243728" d="M112.717,377.981v-7.369h38.937v7.369c0,5.222-8.716,9.455-19.468,9.455S112.717,383.2,112.717,377.981Z" transform="translate(-112.717 -341.136)" fill="#f19a00" fill-rule="evenodd"/>
      <path id="Path_243729" data-name="Path 243729" d="M143.093,370.61H177.03v7.369c0,5.222-8.716,9.455-19.468,9.455a33.32,33.32,0,0,1-12.954-2.4,5.587,5.587,0,0,1-1.515-3.663V370.61Z" transform="translate(-138.093 -341.135)" fill="#f9ac00" fill-rule="evenodd"/>
      <path id="Path_243730" data-name="Path 243730" d="M112.717,333.21v-7.369h38.937v7.369c0,5.222-8.716,9.455-19.468,9.455S112.717,338.432,112.717,333.21Z" transform="translate(-112.717 -303.734)" fill="#fdc72e" fill-rule="evenodd"/>
      <path id="Path_243731" data-name="Path 243731" d="M143.093,325.842H177.03v7.369c0,5.222-8.716,9.455-19.468,9.455a31.442,31.442,0,0,1-14.469-3.129Z" transform="translate(-138.093 -303.735)" fill="#fcdb35" fill-rule="evenodd"/>
      <path id="Path_243732" data-name="Path 243732" d="M112.717,288.442v-7.369h38.937v7.369c0,5.222-8.716,9.455-19.468,9.455S112.717,293.664,112.717,288.442Z" transform="translate(-112.717 -266.335)" fill="#f19a00" fill-rule="evenodd"/>
      <path id="Path_243733" data-name="Path 243733" d="M143.093,281.072H177.03v7.369c0,5.222-8.716,9.455-19.468,9.455a31.443,31.443,0,0,1-14.469-3.129V281.072Z" transform="translate(-138.093 -266.334)" fill="#f9ac00" fill-rule="evenodd"/>
      <path id="Path_243734" data-name="Path 243734" d="M112.717,243.673V236.3h38.937v7.369c0,5.222-8.716,9.455-19.468,9.455S112.717,248.895,112.717,243.673Z" transform="translate(-112.717 -228.935)" fill="#fdc72e" fill-rule="evenodd"/>
      <path id="Path_243735" data-name="Path 243735" d="M143.093,236.3H177.03v7.369c0,5.222-8.716,9.455-19.468,9.455A31.442,31.442,0,0,1,143.093,250V236.3Z" transform="translate(-138.093 -228.933)" fill="#fcdb35" fill-rule="evenodd"/>
      <path id="Path_243736" data-name="Path 243736" d="M112.717,198.9v-7.369h38.937V198.9c0,5.222-8.716,9.455-19.468,9.455S112.717,204.124,112.717,198.9Z" transform="translate(-112.717 -191.534)" fill="#f19a00" fill-rule="evenodd"/>
      <path id="Path_243737" data-name="Path 243737" d="M143.093,191.533H177.03V198.9c0,5.222-8.716,9.455-19.468,9.455a31.442,31.442,0,0,1-14.469-3.129V191.533Z" transform="translate(-138.093 -191.533)" fill="#f9ac00" fill-rule="evenodd"/>
    </g>
    <ellipse id="Ellipse_636" data-name="Ellipse 636" cx="19.468" cy="9.455" rx="19.468" ry="9.455" transform="translate(42.034 31.261)" fill="#fcdb35"/>
    <ellipse id="Ellipse_637" data-name="Ellipse 637" cx="17.164" cy="7.151" rx="17.164" ry="7.151" transform="translate(44.338 33.565)" fill="#f19a00"/>
    <path id="Path_243738" data-name="Path 243738" d="M152.141,148.135c9.136.162,16.423,3.3,16.423,7.143s-7.288,6.982-16.423,7.143c-9.136-.162-16.423-3.3-16.423-7.143S143.006,148.3,152.141,148.135Z" transform="translate(-89.899 -114.563)" fill="#f9ac00" fill-rule="evenodd"/>
    <path id="Path_243739" data-name="Path 243739" d="M211.646,151.176a.82.82,0,1,1-1.588.412,1.048,1.048,0,0,0-.253-.445,3.208,3.208,0,0,0-1.785-.809q-.119-.021-.239-.037v3.265c.126.028.248.056.362.085q.364.091.765.223a5.13,5.13,0,0,1,2.073,1.173,2.329,2.329,0,0,1,.633,2.317c-.013.052-.035.125-.066.218a3.3,3.3,0,0,1-2.467,1.925,7.15,7.15,0,0,1-1.3.212v.992a.823.823,0,1,1-1.646,0V159.67a7.1,7.1,0,0,1-1.311-.294,3.634,3.634,0,0,1-2.575-2.382.821.821,0,1,1,1.588-.418,2.094,2.094,0,0,0,1.5,1.244,5.267,5.267,0,0,0,.8.194v-3.124a7.005,7.005,0,0,1-2.408-.9,3.556,3.556,0,0,1-.619-.531,2.593,2.593,0,0,1-.709-1.572,2.486,2.486,0,0,1,.45-1.6,3.082,3.082,0,0,1,.464-.533,4.356,4.356,0,0,1,1.859-.94,6.867,6.867,0,0,1,.964-.174v-1.016a.823.823,0,1,1,1.646,0v1.01c.176.018.351.042.522.072a4.8,4.8,0,0,1,2.711,1.317A2.673,2.673,0,0,1,211.646,151.176Zm-5.511-.876a5.019,5.019,0,0,0-.552.109,2.744,2.744,0,0,0-1.159.561,1.462,1.462,0,0,0-.22.25.872.872,0,0,0-.167.555.97.97,0,0,0,.278.575,1.938,1.938,0,0,0,.337.287,4.766,4.766,0,0,0,1.483.567v-2.9Zm1.646,7.77a5.452,5.452,0,0,0,.882-.154c.683-.181,1.2-.473,1.329-.852,0-.015.014-.05.027-.1a.78.78,0,0,0-.215-.774,3.571,3.571,0,0,0-1.411-.762q-.3-.1-.613-.176v2.82Z" transform="translate(-145.456 -113.454)" fill="#fcdb35" fill-rule="evenodd"/>
    <g id="Group_169704" data-name="Group 169704" transform="translate(28.107 11)">
      <path id="Path_243740" data-name="Path 243740" d="M36.991,115.586V105.26a.752.752,0,0,0-.75-.75h-4.5a.752.752,0,0,0-.75.75v10.326H28.777a.668.668,0,0,0-.5,1.114l5.215,5.8a.668.668,0,0,0,.993,0l5.215-5.8a.668.668,0,0,0-.5-1.114H36.99Z" transform="translate(-28.107 -89.119)" fill="#ed1717" fill-rule="evenodd"/>
      <path id="Path_243741" data-name="Path 243741" d="M45.292,115.586V105.26a.752.752,0,0,0-.75-.75H41.433a.752.752,0,0,0-.75.75v10.326H38.714a.668.668,0,0,0-.5,1.114l4.893,5.438L48,116.7a.668.668,0,0,0-.5-1.114H45.292Z" transform="translate(-36.408 -89.119)" fill="#ff3838" fill-rule="evenodd"/>
      <path id="Path_243742" data-name="Path 243742" d="M204.129,22.076V11.75a.752.752,0,0,0-.75-.75h-4.5a.752.752,0,0,0-.75.75V22.076h-2.216a.668.668,0,0,0-.5,1.114l5.215,5.8a.668.668,0,0,0,.993,0l5.215-5.8a.668.668,0,0,0-.5-1.114h-2.216Z" transform="translate(-167.735 -11)" fill="#ed1717" fill-rule="evenodd"/>
      <path id="Path_243743" data-name="Path 243743" d="M212.43,22.076V11.75a.752.752,0,0,0-.75-.75h-3.109a.752.752,0,0,0-.75.75V22.076h-1.969a.668.668,0,0,0-.5,1.114l4.893,5.438,4.893-5.438a.668.668,0,0,0-.5-1.114H212.43Z" transform="translate(-176.036 -11)" fill="#ff3838" fill-rule="evenodd"/>
      <path id="Path_243744" data-name="Path 243744" d="M371.267,115.586V105.26a.752.752,0,0,0-.75-.75h-4.5a.752.752,0,0,0-.75.75v10.326h-2.216a.668.668,0,0,0-.5,1.114l5.215,5.8a.668.668,0,0,0,.993,0l5.215-5.8a.668.668,0,0,0-.5-1.114Z" transform="translate(-307.362 -89.119)" fill="#ed1717" fill-rule="evenodd"/>
      <path id="Path_243745" data-name="Path 243745" d="M379.568,115.586V105.26a.752.752,0,0,0-.75-.75h-3.109a.752.752,0,0,0-.75.75v10.326H372.99a.668.668,0,0,0-.5,1.114l4.893,5.438,4.893-5.438a.668.668,0,0,0-.5-1.114h-2.216Z" transform="translate(-315.664 -89.119)" fill="#ff3838" fill-rule="evenodd"/>
    </g>
    <g id="Group_169705" data-name="Group 169705" transform="translate(64.191 67.46)">
      <path id="Path_243746" data-name="Path 243746" d="M247.332,406.158v-7.369h38.937v7.369c0,5.222-8.716,9.455-19.468,9.455S247.332,411.379,247.332,406.158Z" transform="translate(-247.332 -391.42)" fill="#fdc72e" fill-rule="evenodd"/>
      <path id="Path_243747" data-name="Path 243747" d="M277.707,398.788h33.937v7.369c0,5.222-8.716,9.455-19.468,9.455a31.443,31.443,0,0,1-14.469-3.129V398.788Z" transform="translate(-272.707 -391.419)" fill="#fcdb35" fill-rule="evenodd"/>
      <path id="Path_243748" data-name="Path 243748" d="M247.332,361.389V354.02h38.937v7.369c0,5.222-8.716,9.455-19.468,9.455S247.332,366.611,247.332,361.389Z" transform="translate(-247.332 -354.02)" fill="#f19a00" fill-rule="evenodd"/>
      <path id="Path_243749" data-name="Path 243749" d="M277.707,354.018h33.937v7.369c0,5.222-8.716,9.455-19.468,9.455a31.442,31.442,0,0,1-14.469-3.129V354.018Z" transform="translate(-272.707 -354.018)" fill="#f9ac00" fill-rule="evenodd"/>
    </g>
    <ellipse id="Ellipse_638" data-name="Ellipse 638" cx="19.468" cy="9.455" rx="19.468" ry="9.455" transform="translate(64.191 58.005)" fill="#fcdb35"/>
    <ellipse id="Ellipse_639" data-name="Ellipse 639" cx="17.164" cy="7.151" rx="17.164" ry="7.151" transform="translate(66.495 60.309)" fill="#f19a00"/>
    <path id="Path_243750" data-name="Path 243750" d="M286.755,310.62c9.136.162,16.423,3.3,16.423,7.143s-7.288,6.982-16.423,7.143c-9.136-.162-16.423-3.3-16.423-7.143S277.62,310.782,286.755,310.62Z" transform="translate(-202.356 -250.304)" fill="#f9ac00" fill-rule="evenodd"/>
    <path id="Path_243751" data-name="Path 243751" d="M346.26,313.659a.82.82,0,1,1-1.588.411,1.049,1.049,0,0,0-.253-.445,3.208,3.208,0,0,0-1.785-.809q-.119-.021-.239-.037v3.265c.126.028.248.056.362.085q.364.091.765.223a5.13,5.13,0,0,1,2.073,1.173,2.329,2.329,0,0,1,.633,2.317c-.013.052-.035.125-.066.218a3.3,3.3,0,0,1-2.467,1.925,7.153,7.153,0,0,1-1.3.212v.992a.823.823,0,1,1-1.646,0v-1.038a7.1,7.1,0,0,1-1.311-.294,3.634,3.634,0,0,1-2.575-2.382.821.821,0,1,1,1.588-.418,2.094,2.094,0,0,0,1.5,1.244,5.263,5.263,0,0,0,.8.194v-3.124a7.005,7.005,0,0,1-2.408-.9,3.563,3.563,0,0,1-.62-.531,2.593,2.593,0,0,1-.709-1.572,2.486,2.486,0,0,1,.45-1.6,3.084,3.084,0,0,1,.465-.533,4.356,4.356,0,0,1,1.859-.94,6.892,6.892,0,0,1,.964-.174v-1.016a.823.823,0,1,1,1.646,0v1.01c.176.018.351.042.522.072a4.8,4.8,0,0,1,2.711,1.317,2.673,2.673,0,0,1,.632,1.146Zm-5.511-.876a5.023,5.023,0,0,0-.552.109,2.744,2.744,0,0,0-1.159.561,1.46,1.46,0,0,0-.22.25.872.872,0,0,0-.167.555.97.97,0,0,0,.278.575,1.94,1.94,0,0,0,.337.287,4.767,4.767,0,0,0,1.483.567v-2.9Zm1.646,7.77a5.452,5.452,0,0,0,.882-.154c.683-.181,1.2-.473,1.329-.852,0-.015.014-.05.027-.1a.78.78,0,0,0-.215-.774,3.57,3.57,0,0,0-1.411-.762q-.3-.1-.613-.176v2.82Z" transform="translate(-257.913 -249.193)" fill="#fcdb35" fill-rule="evenodd"/>
  </g>
</svg>
