<svg xmlns="http://www.w3.org/2000/svg" width="76.786" height="80.327" viewBox="0 0 76.786 80.327">
  <g id="Group_169710" data-name="Group 169710" transform="translate(-3.408 -1.997)">
    <path id="Path_243788" data-name="Path 243788" d="M80.194,27.109v47.2a2.1,2.1,0,0,1-2.016,2.165H5.424a2.1,2.1,0,0,1-2.016-2.165v-47.2a2.1,2.1,0,0,1,2.016-2.165H78.178A2.1,2.1,0,0,1,80.194,27.109Z" transform="translate(0 5.851)" fill="#70c1f9"/>
    <path id="Path_243789" data-name="Path 243789" d="M80.194,32.933v.028a1.755,1.755,0,0,1-.04.376,1.781,1.781,0,0,1-.094.389,2.289,2.289,0,0,1-.323.592,1.678,1.678,0,0,1-.377.376L73.231,39.56,43.159,63.435a2.184,2.184,0,0,1-2.716,0L10.371,39.56,4.241,34.693a1.678,1.678,0,0,1-.377-.376,2.274,2.274,0,0,1-.323-.59,1.82,1.82,0,0,1-.094-.39,1.8,1.8,0,0,1-.04-.377v-.028a1.754,1.754,0,0,1,.04-.376,2,2,0,0,1,.094-.389,2.374,2.374,0,0,1,.4-.686,2.93,2.93,0,0,1,.3-.282l6.129-4.866L40.443,2.471a2.181,2.181,0,0,1,2.716,0L73.231,26.333,79.361,31.2a3.074,3.074,0,0,1,.3.282,2.049,2.049,0,0,1,.5,1.076,1.754,1.754,0,0,1,.04.376Z" transform="translate(0 0)" fill="#1cb2f4"/>
    <path id="Path_243790" data-name="Path 243790" d="M3.918,25.49a2.374,2.374,0,0,0-.4.686A2,2,0,0,1,3.918,25.49Z" transform="translate(0.027 5.991)" fill="#f6b85d"/>
    <path id="Path_243791" data-name="Path 243791" d="M71.816,9.241V38.4L41.744,62.274a2.184,2.184,0,0,1-2.716,0L8.956,38.4V9.241a2.688,2.688,0,0,1,2.689-2.689h57.48a2.688,2.688,0,0,1,2.689,2.689Z" transform="translate(1.415 1.161)" fill="#e9e9ff"/>
    <path id="Path_243792" data-name="Path 243792" d="M80.194,70.565a2.1,2.1,0,0,1-2.016,2.165H5.424a2.1,2.1,0,0,1-2.016-2.165,2.156,2.156,0,0,1,.833-1.733l36.2-28.742a2.184,2.184,0,0,1,2.716,0l36.2,28.742a2.159,2.159,0,0,1,.833,1.732Z" transform="translate(0 9.593)" fill="#1cb2f4"/>
    <path id="Path_243793" data-name="Path 243793" d="M58.281,36.356v1.217a.378.378,0,0,1-.376.376H18.3a.378.378,0,0,1-.376-.376V36.356a.37.37,0,0,1,.376-.376H57.9a.37.37,0,0,1,.376.376Z" transform="translate(3.701 8.666)" fill="#cfcfff"/>
    <path id="Path_243794" data-name="Path 243794" d="M51.5,22.57l-3.778-1a9.752,9.752,0,0,0-.766-1.832l1.983-3.376a.554.554,0,0,0-.088-.665L46.265,13.12a.552.552,0,0,0-.678-.1l-3.376,1.97a9.907,9.907,0,0,0-1.23-.552c-.2-.075-.4-.138-.6-.213L39.4,10.459a.561.561,0,0,0-.54-.414H35.2a.55.55,0,0,0-.54.414l-.126.452-.163.64-.7,2.673a11.758,11.758,0,0,0-1.832.766l-3.363-1.97a.573.573,0,0,0-.69.1l-2.573,2.573a.552.552,0,0,0-.088.665l1.958,3.376a11.365,11.365,0,0,0-.753,1.845l-3.778.991a.552.552,0,0,0-.414.54v3.639a.554.554,0,0,0,.414.54l3.778,1a10.66,10.66,0,0,0,.766,1.832l-1.97,3.363a.57.57,0,0,0,.088.678l2.573,2.585a.589.589,0,0,0,.69.088l3.363-1.97a11.08,11.08,0,0,0,1.242.565c.188.063.389.138.59.2l.991,3.778a.565.565,0,0,0,.54.414H38.86a.576.576,0,0,0,.54-.414l.979-3.778a11.273,11.273,0,0,0,1.832-.766l.013.013.464.276L44.8,36.375l.791.464a.951.951,0,0,0,.2.075.563.563,0,0,0,.477-.163l2.585-2.585a.57.57,0,0,0,.088-.678l-1.983-3.363a9.751,9.751,0,0,0,.766-1.832l3.778-1a.551.551,0,0,0,.427-.54V23.11a.551.551,0,0,0-.427-.54ZM37.015,32.033a7.1,7.1,0,1,1,7.116-7.1A7.1,7.1,0,0,1,37.015,32.033Z" transform="translate(4.774 2.052)" fill="#ed524e"/>
    <path id="Path_243795" data-name="Path 243795" d="M35.517,23.043h5.226a5.607,5.607,0,0,1-5.59,5.607,5.7,5.7,0,0,1-5.625-5.607,5.612,5.612,0,0,1,5.607-5.607l0,5.231a.377.377,0,0,0,.376.376Z" transform="translate(6.661 3.937)" fill="#fdc72e"/>
    <path id="Path_243796" data-name="Path 243796" d="M39.606,23.044H34.379A.377.377,0,0,1,34,22.667l-.01-5.227a5.613,5.613,0,0,1,5.614,5.6Z" transform="translate(7.799 3.938)" fill="#70c1f9"/>
    <g id="Group_169709" data-name="Group 169709" transform="translate(10.77 2.003)" opacity="0.2">
      <path id="Path_243797" data-name="Path 243797" d="M59.738,82.323h-25.8L9.274,8.994a2.673,2.673,0,0,1,2.284-1.28h20.77l1.82-1.443Zm13.943,0H66.364L39.407,2.2a2.171,2.171,0,0,1,2.259.264l6.614,5.246h.314Z" transform="translate(-9.274 -2.002)" fill="#fff"/>
    </g>
  </g>
</svg>
