<svg xmlns="http://www.w3.org/2000/svg" width="76.525" height="80" viewBox="0 0 76.525 80">
  <g id="Group_169717" data-name="Group 169717" transform="translate(-3.389 -1.999)">
    <path id="Path_243818" data-name="Path 243818" d="M70.095,21.751l-.012,26.6a20.779,20.779,0,0,1-8.3,16.5L41.6,80.348a7.99,7.99,0,0,1-9.728,0L11.691,64.857a20.814,20.814,0,0,1-8.3-16.5v-26.6A7.994,7.994,0,0,1,8.014,14.5L33.359,2.738a8.047,8.047,0,0,1,6.735,0L65.468,14.5a7.994,7.994,0,0,1,4.625,7.254Z" transform="translate(0)" fill="#fabb53"/>
    <path id="Path_243819" data-name="Path 243819" d="M58.872,14.5,33.5,2.736a8.03,8.03,0,0,0-3.712-.72V81.97A7.976,7.976,0,0,0,35,80.346L55.181,64.855a20.778,20.778,0,0,0,8.3-16.5l.012-26.6A8,8,0,0,0,58.872,14.5Z" transform="translate(6.598 0.002)" fill="#f99944"/>
    <path id="Path_243820" data-name="Path 243820" d="M60.59,20.475l-.012,26.168A13.01,13.01,0,0,1,55.313,57.01L35.44,72.272a.5.5,0,0,1-.295.1.466.466,0,0,1-.284-.1l-.061-.05L15,57.023a13.044,13.044,0,0,1-5.275-10.38V20.475a.463.463,0,0,1,.27-.442L34.8,8.522l.136-.062a.52.52,0,0,1,.209-.036.475.475,0,0,1,.221.05l24.952,11.56a.464.464,0,0,1,.271.442Z" transform="translate(1.584 1.606)" fill="#fff"/>
    <path id="Path_243821" data-name="Path 243821" d="M55.575,20.475l-.012,26.168A13.01,13.01,0,0,1,50.3,57.01L30.426,72.272a.5.5,0,0,1-.295.1.466.466,0,0,1-.284-.1l-.061-.05V8.522l.136-.062a.52.52,0,0,1,.209-.036.475.475,0,0,1,.221.05L55.3,20.033a.464.464,0,0,1,.271.442Z" transform="translate(6.598 1.606)" fill="#e8edf2"/>
    <path id="Path_243822" data-name="Path 243822" d="M4.425,40.3V25.432a2.2,2.2,0,0,1,.635-1.547,2.21,2.21,0,0,1,3.789,1.547V40.3a2.212,2.212,0,1,1-4.424,0Z" transform="translate(0.259 5.305)" fill="#ffd77f"/>
    <path id="Path_243823" data-name="Path 243823" d="M37.775,36.252a4.4,4.4,0,0,1-.812,2.562,5.23,5.23,0,0,1-2.225,1.712,7.86,7.86,0,0,1-3.187.6c-.2,0-.4,0-.6-.012a13.545,13.545,0,0,1-4.875-1.1,1.4,1.4,0,0,1-.687-.562,1.437,1.437,0,0,1-.275-.85,1.454,1.454,0,0,1,.412-1.037,1.477,1.477,0,0,1,1.7-.312,9.882,9.882,0,0,0,3.725.837c.125.012.262.012.4.012,3.312,0,3.312-1.437,3.312-1.975a.854.854,0,0,0-.312-.687,3.118,3.118,0,0,0-1.037-.587c-.425-.15-1.075-.337-2.037-.6-.112-.025-.212-.062-.325-.087a25.209,25.209,0,0,1-2.625-.812,5.58,5.58,0,0,1-2.112-1.437,3.836,3.836,0,0,1-.95-2.687,4.714,4.714,0,0,1,.762-2.587A5,5,0,0,1,28.213,24.8a7.288,7.288,0,0,1,2.737-.637,4.718,4.718,0,0,1,.6-.025,13.3,13.3,0,0,1,4.6.762,1.4,1.4,0,0,1,.987,1.412,1.474,1.474,0,0,1-.387,1,1.324,1.324,0,0,1-1.062.486,1.774,1.774,0,0,1-.562-.125,10.134,10.134,0,0,0-3.35-.562,5.851,5.851,0,0,0-.825.05,4.314,4.314,0,0,0-1.725.537,1.529,1.529,0,0,0-.825,1.375,1.168,1.168,0,0,0,.35.887,3.247,3.247,0,0,0,1.1.65c.275.1.625.2,1.1.325.287.075.6.15.975.25a22.068,22.068,0,0,1,2.887.85A5.278,5.278,0,0,1,36.875,33.5a4.093,4.093,0,0,1,.9,2.75Z" transform="translate(5.43 5.534)" fill="#e9293a"/>
    <path id="Path_243824" data-name="Path 243824" d="M48.2,39.333a1.533,1.533,0,0,1-.475,1.112,1.613,1.613,0,0,1-1.112.45H38.775A1.841,1.841,0,0,1,37.4,40.32a1.9,1.9,0,0,1-.587-1.387V25.808A1.6,1.6,0,0,1,37.25,24.7a1.566,1.566,0,0,1,1.137-.462,1.5,1.5,0,0,1,1.1.462,1.481,1.481,0,0,1,.462,1.112v11.95h6.662a1.509,1.509,0,0,1,1.125.462A1.55,1.55,0,0,1,48.2,39.333Z" transform="translate(8.355 5.557)" fill="#d42032"/>
    <path id="Path_243825" data-name="Path 243825" d="M25.985,33.505a4.093,4.093,0,0,1,.9,2.75,4.33,4.33,0,0,1-.812,2.55,5.159,5.159,0,0,1-2.225,1.725,7.839,7.839,0,0,1-3.187.6,13.567,13.567,0,0,1-5.475-1.112,1.4,1.4,0,0,1-.687-.562,1.412,1.412,0,0,1-.275-.85,1.469,1.469,0,0,1,2.112-1.35,10.238,10.238,0,0,0,4.125.85c3.312,0,3.312-1.437,3.312-1.975a.854.854,0,0,0-.312-.687,3.14,3.14,0,0,0-1.037-.587c-.425-.15-1.075-.337-2.037-.6a28.625,28.625,0,0,1-2.95-.9,5.58,5.58,0,0,1-2.112-1.437,3.812,3.812,0,0,1-.95-2.687,4.839,4.839,0,0,1,.75-2.587,5.028,5.028,0,0,1,2.2-1.837,7.79,7.79,0,0,1,3.337-.662,13.3,13.3,0,0,1,4.6.762,1.4,1.4,0,0,1,.987,1.412,1.483,1.483,0,0,1-.387,1,1.325,1.325,0,0,1-1.062.487,1.537,1.537,0,0,1-.562-.125,10.134,10.134,0,0,0-3.35-.562,4.935,4.935,0,0,0-2.55.587,1.529,1.529,0,0,0-.825,1.375,1.168,1.168,0,0,0,.35.887,3.247,3.247,0,0,0,1.1.65c.437.15,1.075.325,2.075.575a22.068,22.068,0,0,1,2.887.85,5.189,5.189,0,0,1,2.062,1.462Z" transform="translate(2.708 5.535)" fill="#e9293a"/>
    <g id="Group_169716" data-name="Group 169716" transform="translate(36.381 29.674)">
      <path id="Path_243826" data-name="Path 243826" d="M30.608,27.115a5.671,5.671,0,0,0-.825.05v-3a4.718,4.718,0,0,1,.6-.025,13.3,13.3,0,0,1,4.6.762,1.4,1.4,0,0,1,.987,1.412,1.474,1.474,0,0,1-.387,1,1.324,1.324,0,0,1-1.062.486,1.774,1.774,0,0,1-.562-.125,10.134,10.134,0,0,0-3.35-.562Zm6,9.137a4.4,4.4,0,0,1-.812,2.562,5.23,5.23,0,0,1-2.225,1.712,7.86,7.86,0,0,1-3.187.6c-.2,0-.4,0-.6-.012V38.09c.125.012.262.012.4.012,3.312,0,3.312-1.437,3.312-1.975a.854.854,0,0,0-.312-.687,3.118,3.118,0,0,0-1.037-.587c-.425-.15-1.075-.337-2.037-.6-.112-.025-.212-.062-.325-.087V30.94c.287.075.6.15.975.249a22.067,22.067,0,0,1,2.887.85A5.278,5.278,0,0,1,35.708,33.5a4.093,4.093,0,0,1,.9,2.75Z" transform="translate(-29.783 -24.14)" fill="#d42032"/>
    </g>
    <path id="Path_243827" data-name="Path 243827" d="M70.216,18.665A14.021,14.021,0,0,1,56.563,32.68H56.2a14.015,14.015,0,0,1,0-28.03,2.93,2.93,0,0,1,.362.015,14.006,14.006,0,0,1,13.652,14Z" transform="translate(9.698 0.663)" fill="#108be1"/>
    <path id="Path_243828" data-name="Path 243828" d="M67.341,18.662A14.021,14.021,0,0,1,53.688,32.677V4.662A14.006,14.006,0,0,1,67.341,18.662Z" transform="translate(12.573 0.666)" fill="#0c6bc3"/>
    <path id="Path_243829" data-name="Path 243829" d="M63.313,15.508l-7.737,7.75-.3.3a3.171,3.171,0,0,1-4.475,0l-3.712-3.712a3.165,3.165,0,0,1,4.475-4.476l1.487,1.487,2.525-2.525,3.287-3.287a3.151,3.151,0,1,1,4.45,4.462Z" transform="translate(10.691 2.029)" fill="#fff"/>
    <path id="Path_243830" data-name="Path 243830" d="M61.43,15.508l-7.737,7.75V14.332l3.287-3.287a3.151,3.151,0,0,1,4.45,4.462Z" transform="translate(12.574 2.029)" fill="#e8edf2"/>
  </g>
</svg>
