<svg xmlns="http://www.w3.org/2000/svg" width="83.941" height="80" viewBox="0 0 83.941 80">
  <g id="Group_169708" data-name="Group 169708" transform="translate(0 -12.019)">
    <path id="Path_243768" data-name="Path 243768" d="M83.781,84.882H.329L0,85.1v56.258a2.533,2.533,0,0,0,2.533,2.533H81.408a2.533,2.533,0,0,0,2.533-2.533V85.1Z" transform="translate(0 -60.917)" fill="#eaf6ff"/>
    <path id="Path_243769" data-name="Path 243769" d="M83.781,84.882H79.127v50.7a2.534,2.534,0,0,1-2.533,2.533H0v3.237a2.533,2.533,0,0,0,2.533,2.533H81.408a2.533,2.533,0,0,0,2.533-2.533V85.1Z" transform="translate(0 -60.917)" fill="#d8ecfe"/>
    <path id="Path_243770" data-name="Path 243770" d="M81.407,12.019H2.533A2.533,2.533,0,0,0,0,14.552v9.627H83.941V14.552A2.533,2.533,0,0,0,81.407,12.019Z" fill="#60b7ff"/>
    <path id="Path_243771" data-name="Path 243771" d="M81.407,12.019h-2.28v4.7a1.689,1.689,0,0,1-1.689,1.689H0v5.771H83.941V14.552A2.534,2.534,0,0,0,81.407,12.019Z" fill="#26a6fe"/>
    <path id="Path_243772" data-name="Path 243772" d="M228.559,127.564H184.445v.169a2.367,2.367,0,0,1,2.364,2.365v13.448h20.25a2.367,2.367,0,0,1,2.365,2.365v7.373h19.135a2.533,2.533,0,0,0,2.533-2.533V130.1A2.534,2.534,0,0,0,228.559,127.564Z" transform="translate(-154.206 -96.602)" fill="#8ac9fe"/>
    <path id="Path_243773" data-name="Path 243773" d="M314.432,127.564v1.689a1.23,1.23,0,1,0,2.459,0v-1.689Zm1.23,9.895a1.23,1.23,0,0,1-1.23-1.23V134.54a1.23,1.23,0,1,1,2.459,0v1.689a1.23,1.23,0,0,1-1.23,1.23Zm0,2.828a1.23,1.23,0,0,0-1.23,1.23v1.689a1.23,1.23,0,0,0,.048.34h1.255a2.346,2.346,0,0,1,1.014.232,1.224,1.224,0,0,0,.141-.572v-1.689a1.229,1.229,0,0,0-1.23-1.23Z" transform="translate(-262.882 -96.602)" fill="#fff"/>
    <path id="Path_243774" data-name="Path 243774" d="M355.941,127.564h-2.489V145.75a2.533,2.533,0,0,1-2.533,2.533H336.806v5h19.135a2.533,2.533,0,0,0,2.533-2.533V130.1A2.534,2.534,0,0,0,355.941,127.564Z" transform="translate(-281.588 -96.602)" fill="#60b7ff"/>
    <path id="Path_243775" data-name="Path 243775" d="M66.211,153.283H45.559a2.533,2.533,0,0,1-2.533-2.533V130.1a2.533,2.533,0,0,1,2.533-2.533H66.211a2.533,2.533,0,0,1,2.533,2.533v20.652A2.534,2.534,0,0,1,66.211,153.283Z" transform="translate(-35.972 -96.602)" fill="#ffd15b"/>
    <path id="Path_243776" data-name="Path 243776" d="M65.81,145.91a2.367,2.367,0,0,1,2.365-2.365h.571V130.1a2.533,2.533,0,0,0-2.533-2.533H45.559a2.533,2.533,0,0,0-2.533,2.533v20.652a2.533,2.533,0,0,0,2.533,2.533H65.81Z" transform="translate(-35.972 -96.602)" fill="#ffd15b"/>
    <path id="Path_243777" data-name="Path 243777" d="M65.81,145.91a2.367,2.367,0,0,1,2.365-2.365h.571V130.1a2.533,2.533,0,0,0-2.533-2.533H63.756V145.75a2.533,2.533,0,0,1-2.533,2.533h-18.2v2.466a2.533,2.533,0,0,0,2.533,2.533h20.25V145.91Z" transform="translate(-35.973 -96.602)" fill="#ffc344"/>
    <path id="Path_243778" data-name="Path 243778" d="M180.965,226.544V247.2a2.533,2.533,0,0,0,2.533,2.533H204.15a2.533,2.533,0,0,0,2.533-2.533V226.544a2.533,2.533,0,0,0-2.533-2.533H183.5A2.533,2.533,0,0,0,180.965,226.544Z" transform="translate(-151.296 -177.237)" fill="#fff"/>
    <path id="Path_243779" data-name="Path 243779" d="M204.15,224.011h-2.439v18.127a2.534,2.534,0,0,1-2.533,2.533H180.965V247.2a2.534,2.534,0,0,0,2.533,2.533H204.15a2.533,2.533,0,0,0,2.533-2.533V226.544A2.534,2.534,0,0,0,204.15,224.011Z" transform="translate(-151.296 -177.237)" fill="#f8f6f6"/>
    <path id="Path_243780" data-name="Path 243780" d="M206.684,287.966V277.585l-4.456-4.456a1.2,1.2,0,0,0-1.7,0l-10,10a1.2,1.2,0,0,1-1.7,0L185,279.307a1.2,1.2,0,0,0-1.7,0l-2.331,2.331v6.328A2.534,2.534,0,0,0,183.5,290.5h20.652A2.534,2.534,0,0,0,206.684,287.966Z" transform="translate(-151.297 -218.006)" fill="#05e39c"/>
    <path id="Path_243781" data-name="Path 243781" d="M202.227,273.373a1.2,1.2,0,0,0-.516-.3v10.084a2.534,2.534,0,0,1-2.533,2.533H180.965v2.525a2.534,2.534,0,0,0,2.533,2.534H204.15a2.533,2.533,0,0,0,2.533-2.534V277.829Z" transform="translate(-151.296 -218.251)" fill="#0ed290"/>
    <path id="Path_243782" data-name="Path 243782" d="M275.236,360.52h-7.023v-6.507a3.586,3.586,0,0,0-3.4-3.613,3.531,3.531,0,0,0-3.66,3.529v16.245a4.748,4.748,0,0,0,4.748,4.748h9.337a4.748,4.748,0,0,0,4.748-4.748v-4.906A4.748,4.748,0,0,0,275.236,360.52Z" transform="translate(-218.336 -282.903)" fill="#ffdfcf"/>
    <path id="Path_243783" data-name="Path 243783" d="M265.381,354.013v4.818a1.689,1.689,0,0,0,1.689,1.689h1.605v-6.506A3.627,3.627,0,0,0,265.2,350.4a3.515,3.515,0,0,0-1.717.414A3.644,3.644,0,0,1,265.381,354.013Zm11.264,6.6v7.951a2.534,2.534,0,0,1-2.533,2.533H261.7a4.749,4.749,0,0,0,4.657,3.822H275.7a4.748,4.748,0,0,0,4.748-4.748v-4.906A4.749,4.749,0,0,0,276.645,360.614Z" transform="translate(-218.798 -282.902)" fill="#ffcebf"/>
    <path id="Path_243784" data-name="Path 243784" d="M401.123,44.064h-.2a1.23,1.23,0,0,1,0-2.459h.2a1.23,1.23,0,1,1,0,2.459Zm5.389,0h-.2a1.23,1.23,0,1,1,0-2.459h.2a1.23,1.23,0,0,1,0,2.459Zm5.389,0h-.2a1.23,1.23,0,1,1,0-2.459h.2a1.23,1.23,0,1,1,0,2.459Z" transform="translate(-334.165 -24.735)" fill="#fff"/>
    <path id="Path_243785" data-name="Path 243785" d="M92.114,318.9H83.843a1.23,1.23,0,1,1,0-2.459h8.271a1.23,1.23,0,1,1,0,2.459Zm0,5.486H83.843a1.23,1.23,0,1,1,0-2.459h8.271a1.23,1.23,0,1,1,0,2.459Zm0,5.486H83.843a1.23,1.23,0,0,1,0-2.459h8.271a1.23,1.23,0,0,1,0,2.459Z" transform="translate(-69.069 -254.515)" fill="#acacac"/>
    <path id="Path_243786" data-name="Path 243786" d="M90.088,161.149H77.842a1.23,1.23,0,0,0-1.23,1.23v2.307a1.23,1.23,0,0,0,2.459,0v-1.078h3.664V173.4h-.989a1.23,1.23,0,1,0,0,2.459h4.437a1.23,1.23,0,1,0,0-2.459h-.989v-9.788h3.664v1.078a1.23,1.23,0,0,0,2.459,0v-2.307a1.23,1.23,0,0,0-1.23-1.23Z" transform="translate(-64.052 -124.681)" fill="#fff"/>
    <path id="Path_243787" data-name="Path 243787" d="M50.453,318.9h-.588a1.23,1.23,0,1,1,0-2.459h.588a1.23,1.23,0,1,1,0,2.459Zm0,5.486h-.588a1.23,1.23,0,1,1,0-2.459h.588a1.23,1.23,0,0,1,0,2.459Zm0,5.486h-.588a1.23,1.23,0,0,1,0-2.459h.588a1.23,1.23,0,0,1,0,2.459ZM63.707,318.9H55.435a1.23,1.23,0,1,1,0-2.459h8.271a1.23,1.23,0,1,1,0,2.459Zm0,5.486H55.435a1.23,1.23,0,1,1,0-2.459h8.271a1.23,1.23,0,1,1,0,2.459Zm0,5.486H55.435a1.23,1.23,0,0,1,0-2.459h8.271a1.23,1.23,0,0,1,0,2.459ZM117.548,318.9H102.635a1.23,1.23,0,1,1,0-2.459h14.913a1.23,1.23,0,1,1,0,2.459Zm0,5.486H102.635a1.23,1.23,0,1,1,0-2.459h14.913a1.23,1.23,0,0,1,0,2.459Z" transform="translate(-40.661 -254.515)" fill="#8ac9fe"/>
    <circle id="Ellipse_640" data-name="Ellipse 640" cx="1.23" cy="1.23" r="1.23" transform="translate(37.011 52.416)" fill="#ffd15b"/>
  </g>
</svg>
