<svg xmlns="http://www.w3.org/2000/svg" width="66.359" height="80.896" viewBox="0 0 66.359 80.896">
  <g id="Group_169707" data-name="Group 169707" transform="translate(-46)">
    <path id="Path_243752" data-name="Path 243752" d="M152.59,0a16.59,16.59,0,1,0,16.59,16.59A16.608,16.608,0,0,0,152.59,0Z" transform="translate(-75.78)" fill="#9ed0ff"/>
    <path id="Path_243753" data-name="Path 243753" d="M257.59,16.59A16.608,16.608,0,0,1,241,33.18V0A16.608,16.608,0,0,1,257.59,16.59Z" transform="translate(-164.19)" fill="#73bcff"/>
    <path id="Path_243754" data-name="Path 243754" d="M177.85,30A11.85,11.85,0,1,0,189.7,41.85,11.854,11.854,0,0,0,177.85,30Z" transform="translate(-101.04 -25.26)" fill="#3aaaff"/>
    <path id="Path_243755" data-name="Path 243755" d="M252.85,41.85A11.854,11.854,0,0,1,241,53.7V30A11.854,11.854,0,0,1,252.85,41.85Z" transform="translate(-164.19 -25.26)" fill="#0095ff"/>
    <path id="Path_243756" data-name="Path 243756" d="M156.1,90h26.828v4.74H156.1Z" transform="translate(-92.704 -75.78)" fill="#9ed0ff"/>
    <path id="Path_243757" data-name="Path 243757" d="M203.11,0C198.181,0,196,8.342,196,16.59s2.181,16.59,7.11,16.59,7.11-8.342,7.11-16.59S208.039,0,203.11,0Zm0,28.2c-.9-1.09-2.37-5.072-2.37-11.613s1.469-10.523,2.37-11.613c.9,1.09,2.37,5.072,2.37,11.613S204.011,27.112,203.11,28.2Z" transform="translate(-126.3)" fill="#9ed0ff"/>
    <path id="Path_243758" data-name="Path 243758" d="M248.11,16.59c0,8.248-2.181,16.59-7.11,16.59V28.2c.9-1.09,2.37-5.072,2.37-11.613S241.9,6.067,241,4.977V0C245.929,0,248.11,8.342,248.11,16.59Z" transform="translate(-164.19)" fill="#73bcff"/>
    <path id="Path_243759" data-name="Path 243759" d="M241,90h13.414v4.74H241Z" transform="translate(-164.19 -75.78)" fill="#73bcff"/>
    <path id="Path_243760" data-name="Path 243760" d="M46,90h9.48v4.74H46Z" transform="translate(0 -75.78)" fill="#9ed0ff"/>
    <path id="Path_243761" data-name="Path 243761" d="M376,90h9.48v4.74H376Z" transform="translate(-277.86 -75.78)" fill="#73bcff"/>
    <path id="Path_243762" data-name="Path 243762" d="M66.988,167.485l-2.37-4.106,8.212-3.872,2.37,4.106Z" transform="translate(-15.676 -134.305)" fill="#9ed0ff"/>
    <path id="Path_243763" data-name="Path 243763" d="M352.779,7.978l-2.37-4.106L358.621,0l2.37,4.106Z" transform="translate(-256.313)" fill="#73bcff"/>
    <path id="Path_243764" data-name="Path 243764" d="M72.83,7.978,64.618,4.106,66.988,0,75.2,3.872Z" transform="translate(-15.676)" fill="#9ed0ff"/>
    <path id="Path_243765" data-name="Path 243765" d="M358.621,167.485l-8.212-3.872,2.37-4.106,8.212,3.872Z" transform="translate(-256.313 -134.305)" fill="#73bcff"/>
    <path id="Path_243766" data-name="Path 243766" d="M162.816,123.749v10.523c0,10.428-1.754,11.455-4.882,20.793l-.521,1.612H120.157a18.938,18.938,0,0,0-5.309-13.161l-7.537-7.489a4.778,4.778,0,0,1,0-6.731,4.963,4.963,0,0,1,6.731,0l6.114,6.162V95.309A5.3,5.3,0,0,1,125.465,90a4.51,4.51,0,0,1,1.8.332,5.3,5.3,0,0,1,3.634,4.977v18.96a5.243,5.243,0,0,1,5.277-5.309,5.3,5.3,0,0,1,5.309,5.309v4.74A5.3,5.3,0,0,1,146.8,113.7a5.379,5.379,0,0,1,5.435,5.309v4.74a5.243,5.243,0,0,1,5.277-5.309A5.3,5.3,0,0,1,162.816,123.749Z" transform="translate(-50.457 -75.78)" fill="#fed2a4"/>
    <path id="Path_243767" data-name="Path 243767" d="M276.55,125.517v10.523c0,10.428-1.754,11.455-4.882,20.793l-.521,1.612H241V92.1a5.3,5.3,0,0,1,3.634,4.977v18.96a5.243,5.243,0,0,1,5.277-5.309,5.3,5.3,0,0,1,5.309,5.309v4.74a5.3,5.3,0,0,1,5.309-5.309,5.379,5.379,0,0,1,5.435,5.309v4.74a5.243,5.243,0,0,1,5.277-5.309A5.3,5.3,0,0,1,276.55,125.517Z" transform="translate(-164.19 -77.548)" fill="#ffbd86"/>
  </g>
</svg>
