<svg xmlns="http://www.w3.org/2000/svg" width="80" height="80" viewBox="0 0 80 80">
  <g id="Group_169713" data-name="Group 169713" transform="translate(0 0)">
    <path id="Path_243798" data-name="Path 243798" d="M345.471,316.2a1.207,1.207,0,0,0-1.207,1.207v16.967a7.724,7.724,0,0,1-7.729,7.7h-10.12a1.207,1.207,0,0,0,0,2.414h10.12a10.141,10.141,0,0,0,10.143-10.117V317.41a1.207,1.207,0,0,0-1.207-1.207Z" transform="translate(-274.394 -266.796)" fill="#d9ddff"/>
    <path id="Path_243799" data-name="Path 243799" d="M293.377,474.565h6.41a3.466,3.466,0,1,0,0-6.932h-6.41a3.466,3.466,0,1,0,0,6.932Z" transform="translate(-244.612 -394.565)" fill="#7776d0"/>
    <path id="Path_243800" data-name="Path 243800" d="M95.314,59.145H89.951V36.563a31.174,31.174,0,1,0-62.348,0V59.145H22.24V36.563a36.537,36.537,0,1,1,73.074,0Z" transform="translate(-18.765)" fill="#d9ddff"/>
    <path id="Path_243801" data-name="Path 243801" d="M12.277,230.17H6.825A6.826,6.826,0,0,0,0,237v11.666a6.826,6.826,0,0,0,6.825,6.825h5.452Z" transform="translate(0 -194.206)" fill="#7776d0"/>
    <path id="Path_243802" data-name="Path 243802" d="M60.463,207.36a3.354,3.354,0,0,1,3.354,3.354v25.323a3.354,3.354,0,1,1-6.708,0V210.714A3.354,3.354,0,0,1,60.463,207.36Z" transform="translate(-48.186 -174.96)" fill="#e8f3ff"/>
    <path id="Path_243803" data-name="Path 243803" d="M433.426,252.835h5.452a6.826,6.826,0,0,0,6.825-6.825V234.344a6.826,6.826,0,0,0-6.825-6.825h-5.452Z" transform="translate(-365.703 -191.968)" fill="#7776d0"/>
    <path id="Path_243804" data-name="Path 243804" d="M415.315,239.39a3.354,3.354,0,0,1-3.354-3.354V210.714a3.354,3.354,0,0,1,6.708,0v25.323A3.354,3.354,0,0,1,415.315,239.39Z" transform="translate(-347.592 -174.96)" fill="#e8f3ff"/>
    <path id="Path_243805" data-name="Path 243805" d="M164.628,203.713a16.916,16.916,0,0,1,11.453,29.37v4.461l-4.035-1.7a16.92,16.92,0,1,1-7.418-32.127Z" transform="translate(-124.628 -171.883)" fill="#ff8ccc"/>
    <path id="Path_243806" data-name="Path 243806" d="M238.364,203.713a17.008,17.008,0,0,0-3.219.306,16.924,16.924,0,0,1,13.7,16.612,17.237,17.237,0,0,1-13.748,16.6,16.993,16.993,0,0,0,10.684-1.394l4.035,1.7v-4.461a16.917,16.917,0,0,0-11.453-29.371Z" transform="translate(-198.364 -171.883)" fill="#ff78c2"/>
    <g id="Group_169711" data-name="Group 169711" transform="translate(32.109 40.77)">
      <path id="Path_243807" data-name="Path 243807" d="M210.158,263.339h6.458a1.207,1.207,0,1,0,0-2.414h-6.458a1.207,1.207,0,0,0,0,2.414Zm6.458,11.128h-6.458a1.207,1.207,0,0,0,0,2.414h6.458a1.207,1.207,0,1,0,0-2.414Zm3.455-6.771H206.7a1.207,1.207,0,0,0,0,2.414h13.368a1.207,1.207,0,0,0,0-2.414Z" transform="translate(-205.496 -260.925)" fill="#fff"/>
    </g>
    <g id="Group_169715" data-name="Group 169715" transform="translate(46.827 0)">
      <path id="Path_243808" data-name="Path 243808" d="M28.563,14.281q0-.26-.009-.518a14.281,14.281,0,0,0-28.544,0Q0,14.021,0,14.281c0,7.887,7.336,13.763,14.281,13.763C21.352,28.044,28.563,22.169,28.563,14.281Z" transform="translate(0)" fill="#ff5876"/>
      <path id="Path_243809" data-name="Path 243809" d="M14.281,260.472A14.281,14.281,0,0,1,.01,246.709q-.01.259-.01.518a14.281,14.281,0,0,0,28.563,0c0-.174,0-.346-.01-.518A14.281,14.281,0,0,1,14.281,260.472Z" transform="translate(0 -232.946)" fill="#e6485d"/>
      <path id="Path_243810" data-name="Path 243810" d="M66.387,53.781a11.917,11.917,0,0,0-23.812,0c-.007.172,0,11.677,11.906,11.677S66.394,53.953,66.387,53.781Z" transform="translate(-40.2 -40.018)" fill="#e4eef9"/>
      <path id="Path_243811" data-name="Path 243811" d="M54.3,258.108a11.917,11.917,0,0,1-11.905-11.4q-.012.259-.012.518a11.917,11.917,0,0,0,23.834,0c0-.174,0-.346-.012-.518A11.917,11.917,0,0,1,54.3,258.108Z" transform="translate(-40.018 -232.946)" fill="#d5e0f2"/>
      <path id="Path_243812" data-name="Path 243812" d="M137.482,144.264a.864.864,0,0,0-1.222.008l-2.027,2.055.2.978.947.315,2.106-2.136A.864.864,0,0,0,137.482,144.264Zm-5.551,2.142-4.6-4.1a.864.864,0,1,0-1.149,1.29l4.687,4.177.977-.326Z" transform="translate(-118.872 -134.164)" fill="#405b6c"/>
      <path id="Path_243813" data-name="Path 243813" d="M265.727,263.434a.43.43,0,0,1-.278-.1l-5.471-4.6a.432.432,0,1,1,.556-.661l5.471,4.6a.432.432,0,0,1-.278.763Z" transform="translate(-245.33 -243.583)" fill="#86dcff"/>
      <path id="Path_243814" data-name="Path 243814" d="M215.1,219.487l.807.719,1.036-.352-.056-1.089-.728-.648A2.382,2.382,0,0,0,215.1,219.487Zm3.362-1.449-.686.7V220.1h1.08l.756-.766A2.385,2.385,0,0,0,218.465,218.038Z" transform="translate(-203.103 -205.874)" fill="#2d4456"/>
      <path id="Path_243815" data-name="Path 243815" d="M233.724,230.5a1.477,1.477,0,0,0-2.765,0,1.386,1.386,0,1,0,2.765,0Z" transform="translate(-218.06 -216.734)" fill="#ff5876"/>
      <path id="Path_243816" data-name="Path 243816" d="M231.015,247.668a1.476,1.476,0,0,1-1.382-.958,1.476,1.476,0,1,0,2.765,0A1.476,1.476,0,0,1,231.015,247.668Z" transform="translate(-216.734 -232.947)" fill="#e6485d"/>
      <g id="Group_169714" data-name="Group 169714" transform="translate(3.447 3.447)">
        <path id="Path_243817" data-name="Path 243817" d="M73.056,63.562v-1.34a.433.433,0,1,0-.865,0v1.34a.433.433,0,1,0,.865,0Zm-.865,18.122v1.34a.433.433,0,1,0,.865,0v-1.34a.433.433,0,1,0-.865,0Zm10.834-8.628a.433.433,0,1,0,0-.865h-1.34a.433.433,0,1,0,0,.865Zm-20.8-.865a.433.433,0,1,0,0,.865h1.34a.433.433,0,1,0,0-.865Z" transform="translate(-61.789 -61.789)" fill="#405b6c"/>
      </g>
    </g>
  </g>
</svg>
