<svg xmlns="http://www.w3.org/2000/svg" width="80" height="73.1" viewBox="0 0 80 73.1">
  <g id="Group_169701" data-name="Group 169701" transform="translate(0 -6.9)">
    <path id="Path_234717" data-name="Path 234717" d="M75.313,99.095H4.688A4.687,4.687,0,0,1,0,94.407V48.845a4.687,4.687,0,0,1,4.688-4.687H75.313A4.687,4.687,0,0,1,80,48.845V94.407A4.687,4.687,0,0,1,75.313,99.095Z" transform="translate(0 -37.258)" fill="#e5edfc"/>
    <g id="Group_163747" data-name="Group 163747" transform="translate(22.759 6.9)">
      <path id="Path_234718" data-name="Path 234718" d="M177.887,117.258H147.912a.8.8,0,0,1-.551-1.391l1.815-1.707a12.581,12.581,0,0,0,2.981-14.037L150.71,96.68h24.379l-1.446,3.443a12.581,12.581,0,0,0,2.981,14.037l1.815,1.707a.8.8,0,0,1-.551,1.391Zm20.184-73.1h-4.829a4.829,4.829,0,0,1,4.829,4.829V94.266a4.829,4.829,0,0,1-4.829,4.829h4.829a4.829,4.829,0,0,0,4.829-4.829V48.987A4.829,4.829,0,0,0,198.071,44.158Z" transform="translate(-145.659 -44.158)" fill="#d1d9fc"/>
    </g>
    <path id="Path_234719" data-name="Path 234719" d="M70.1,172.322c0-3.263,2.4-5.96,3.411-8.741,3.97-10.889,13.183-18.071,25.962-18.071,7.331,0,13.7.481,18.811,4.962a28.978,28.978,0,0,1,9.908,21.85Z" transform="translate(-59.15 -122.774)" fill="#fd4755"/>
    <path id="Path_234720" data-name="Path 234720" d="M242.962,133.1c-.813,0-1.618-1.325-2.415-1.259a29.048,29.048,0,0,1,26.632,28.946h4.829a28.977,28.977,0,0,0-9.908-21.85C256.989,134.455,250.293,133.1,242.962,133.1Z" transform="translate(-202.962 -111.237)" fill="#fd4755"/>
    <path id="Path_234721" data-name="Path 234721" d="M99.15,178.767H70.1a28.977,28.977,0,0,1,9.906-21.849c5.111-4.481,11.484-3.72,18.816-3.72Z" transform="translate(-59.15 -129.219)" fill="#8fd674"/>
    <path id="Path_234722" data-name="Path 234722" d="M152.976,143.836c-4.711,0-9.486-1.113-13.421.878a29.108,29.108,0,0,0-6.046,4.086l8.207,8.207h21.865l8.205-8.208C166.676,144.318,160.308,143.836,152.976,143.836Z" transform="translate(-112.649 -121.1)" fill="#ffc344"/>
    <path id="Path_234723" data-name="Path 234723" d="M185.3,131.208a28.913,28.913,0,0,0-13.092,3.114c1.886,2.2.388.62.388.62s2.379-1.9,14.289-1.375a20.836,20.836,0,0,1,10.758,3.263,29.2,29.2,0,0,1,4.4,3.973l2.4-2.4A28.934,28.934,0,0,0,185.3,131.208Z" transform="translate(-145.298 -110.707)" fill="#ffc344"/>
    <path id="Path_234724" data-name="Path 234724" d="M144.12,222.705a17.481,17.481,0,0,1,34.962,0Z" transform="translate(-121.601 -173.158)" fill="#fff"/>
    <path id="Path_234725" data-name="Path 234725" d="M255.134,257.571a1.207,1.207,0,0,1-.854-2.061l6.781-6.781a1.207,1.207,0,0,1,1.708,1.708l-6.781,6.781a1.2,1.2,0,0,1-.854.354Z" transform="translate(-214.25 -209.567)" fill="#564e57"/>
    <path id="Path_234726" data-name="Path 234726" d="M220.79,287.4a5.5,5.5,0,0,1,11,0Z" transform="translate(-186.292 -237.848)" fill="#695d69"/>
    <path id="Path_234730" data-name="Path 234730" d="M200.337,400.879h4.829a.8.8,0,0,0,.551-1.391l-1.815-1.707a12.58,12.58,0,0,1-2.981-14.037l1.446-3.443H177.989l1.446,3.443a12.562,12.562,0,0,1,.935,3.8h13.615a1.122,1.122,0,0,1,1.126,1.112,12.576,12.576,0,0,0,3.962,9.125l1.815,1.707A.8.8,0,0,1,200.337,400.879Z" transform="translate(-150.178 -320.879)" fill="#b6c9fd"/>
    <path id="Path_234731" data-name="Path 234731" d="M4.829,329.394H75.171A4.829,4.829,0,0,0,80,324.565V317.1H0v7.46A4.829,4.829,0,0,0,4.829,329.394Z" transform="translate(0 -267.557)" fill="#d1d9fc"/>
    <path id="Path_234732" data-name="Path 234732" d="M455.019,317.1v7.46a4.829,4.829,0,0,1-4.829,4.829h4.829a4.829,4.829,0,0,0,4.829-4.829V317.1Z" transform="translate(-379.848 -267.557)" fill="#b6c9fd"/>
  </g>
</svg>
