<svg xmlns="http://www.w3.org/2000/svg" width="77.501" height="80" viewBox="0 0 77.501 80">
  <g id="Group_169702" data-name="Group 169702" transform="translate(-0.265)">
    <path id="Path_243702" data-name="Path 243702" d="M5.074,0A3.742,3.742,0,0,0,1.323,3.751v42.5A3.738,3.738,0,0,0,5.074,50h65a3.741,3.741,0,0,0,3.751-3.747V3.751A3.742,3.742,0,0,0,70.074,0Z" transform="translate(3.941 0)" fill="#549ad4"/>
    <path id="Path_243703" data-name="Path 243703" d="M3.038,6.433a2.863,2.863,0,0,0-1.167.227,5.864,5.864,0,0,1,3.841,5.632v5.773c0,2.225,4.819,4,4.819,6.161A7.723,7.723,0,0,0,10.7,26.04h2.495v-.161c0-6.085-4.98-6.52-4.98-8.958v-4.63C8.093,8.385,5.2,6.433,3.038,6.433Z" transform="translate(5.982 23.959)" fill="#3588cb"/>
    <path id="Path_243704" data-name="Path 243704" d="M65.653,0C69.5,47.632,2.723,48.752,2.723,48.752l-.77,1.167a3.78,3.78,0,0,0,.775.08h65a3.741,3.741,0,0,0,3.751-3.747V3.751A3.742,3.742,0,0,0,67.728,0Z" transform="translate(6.287 0)" fill="#3588cb"/>
    <path id="Path_243705" data-name="Path 243705" d="M5.353,1.1A2.966,2.966,0,0,0,2.381,4.075v33.7a2.97,2.97,0,0,0,2.976,2.976H61.91a2.97,2.97,0,0,0,2.976-2.976V4.07A2.973,2.973,0,0,0,61.91,1.094Z" transform="translate(7.881 4.075)" fill="#e4eff8"/>
    <path id="Path_243706" data-name="Path 243706" d="M60.926,1.1C59.532,31.053,21.344,37.757,2.465,39.241a2.966,2.966,0,0,0,2.58,1.512H61.6a2.97,2.97,0,0,0,2.976-2.976V4.067A2.969,2.969,0,0,0,61.6,1.1Z" transform="translate(8.194 4.078)" fill="#c4dcf0"/>
    <path id="Path_243707" data-name="Path 243707" d="M10.776,6.35a1.252,1.252,0,0,0,0,2.5h22.5a1.252,1.252,0,0,0,0-2.5Z" transform="translate(34.49 23.651)" fill="#ecb200"/>
    <path id="Path_243708" data-name="Path 243708" d="M20,42.074,10.785,23.6a3.188,3.188,0,0,1,1.143-4.271,3.118,3.118,0,0,1,4.266,1.143L20,27.074V8.322a2.5,2.5,0,0,1,5,0V19.566a2.5,2.5,0,1,1,5,0v1.257a2.5,2.5,0,1,1,5,0V22.07a2.5,2.5,0,1,1,5,0V33.324c0,3.747-2.5,6.251-2.5,8.75Z" transform="translate(37.76 21.678)" fill="#ffd1b5"/>
    <path id="Path_243709" data-name="Path 243709" d="M27.583,8.735c.472,18.6-12.884,22.13-14.471,22.484H27.418c0-2.5,2.5-5,2.5-8.75V11.215a2.485,2.485,0,0,0-2.334-2.48Z" transform="translate(47.849 32.534)" fill="#ffb98d"/>
    <path id="Path_243710" data-name="Path 243710" d="M3.44,15.411a12.5,12.5,0,1,1,25,0l0,3.751h-25Z" transform="translate(11.825 10.838)" fill="#ff5151"/>
    <path id="Path_243711" data-name="Path 243711" d="M12.068,4.76a1.252,1.252,0,0,0-.86.378l-5,5a1.253,1.253,0,1,0,1.772,1.772L12.971,6.9a1.252,1.252,0,0,0-.9-2.135Z" transform="translate(20.673 17.729)" fill="#ecb200"/>
    <path id="Path_243712" data-name="Path 243712" d="M9.039,5.556A3.751,3.751,0,0,1,12.79,9.307h-7.5A3.75,3.75,0,0,1,9.039,5.556Z" transform="translate(18.723 20.693)" fill="#ffca28"/>
    <path id="Path_243713" data-name="Path 243713" d="M10.776,2.646a1.252,1.252,0,0,0,0,2.5h22.5a1.252,1.252,0,0,0,0-2.5Z" transform="translate(34.49 9.855)" fill="#ecb200"/>
    <path id="Path_243714" data-name="Path 243714" d="M14.939,2.117a2.495,2.495,0,0,0-2.5,2.5v2.5a2.5,2.5,0,0,0,5,0v-2.5a2.495,2.495,0,0,0-2.5-2.495Z" transform="translate(45.327 7.885)" fill="#ffca28"/>
    <path id="Path_243715" data-name="Path 243715" d="M10.776,4.5a1.252,1.252,0,0,0,0,2.5h22.5a1.252,1.252,0,0,0,0-2.5Z" transform="translate(34.49 16.753)" fill="#ecb200"/>
    <path id="Path_243716" data-name="Path 243716" d="M12.822,3.973a2.5,2.5,0,0,1,2.5,2.5v2.5a2.5,2.5,0,1,1-5.008,0v-2.5a2.5,2.5,0,0,1,2.5-2.5Z" transform="translate(37.442 14.779)" fill="#ffca28"/>
    <path id="Path_243717" data-name="Path 243717" d="M8.055,2.91a12.493,12.493,0,0,0-2.5.255,12.5,12.5,0,0,1,10,12.246v3.751h4.994V15.411A12.5,12.5,0,0,0,8.055,2.91Z" transform="translate(19.706 10.838)" fill="#ff2929"/>
    <path id="Path_243718" data-name="Path 243718" d="M7.058,2.907A1.252,1.252,0,0,0,5.82,4.173V5.425a1.252,1.252,0,0,0,2.5,0V4.173A1.252,1.252,0,0,0,7.058,2.907Z" transform="translate(20.69 10.827)" fill="#e4eff8"/>
    <path id="Path_243719" data-name="Path 243719" d="M9.445,3.606a1.252,1.252,0,0,0-.86.378L7.7,4.867A1.253,1.253,0,0,0,9.474,6.639l.883-.883a1.252,1.252,0,0,0-.912-2.15Zm1.946,7.97a1.254,1.254,0,0,0,.128,2.5h1.247a1.252,1.252,0,0,0,0-2.5Z" transform="translate(26.249 13.426)" fill="#c4dcf0"/>
    <path id="Path_243720" data-name="Path 243720" d="M8.02,3.605a1.252,1.252,0,0,0-.865,2.15l.883.883A1.25,1.25,0,1,0,9.8,4.866l-.883-.883a1.252,1.252,0,0,0-.9-.378Zm-3.4,7.97a1.253,1.253,0,0,0,.118,2.5H5.994a1.252,1.252,0,0,0,0-2.5Z" transform="translate(11.771 13.427)" fill="#e4eff8"/>
    <path id="Path_243721" data-name="Path 243721" d="M5.216,5.406C1.352,6.186.265,9.582.265,11.935v10.64c0,3.543,3.747,11.046,3.747,13.545v5H22.985c0-1.852,3.217-7.876,3.217-11.254H17.769l-1.252-1.247c-1.337-1.342-3.751-6.251-3.751-7.871v-4.63c-.189-6.251-7.5-7.5-7.5-3.751V5.406Z" transform="translate(0 20.135)" fill="#ffd1b5"/>
    <path id="Path_243722" data-name="Path 243722" d="M2.381,6.48V8.162a6.325,6.325,0,0,1,1.432,3.954V17.89c0,1,.978,1.909,2.05,2.8H9.581c-1.441-1.71-3.269-2.466-3.269-3.945v-4.63A5.8,5.8,0,0,0,2.381,6.48Z" transform="translate(7.881 24.135)" fill="#c4dcf0"/>
    <path id="Path_243723" data-name="Path 243723" d="M9.808,16.922v-4.63C9.69,8.385,6.794,6.433,4.634,6.433a2.863,2.863,0,0,0-1.167.227,5.858,5.858,0,0,1,3.841,5.632v5.773c0,2.221,4.819,4,4.819,6.161,0,3.132.85,3.066,2.674,3.066l-.009-1.417c0-6.085-4.984-6.515-4.984-8.953Zm10.1,9.118C15.6,34.719,1.058,37.294,1.058,37.294H20.032c0-2.495,3.529-7.5,3.529-11.254Z" transform="translate(2.954 23.959)" fill="#ffb98d"/>
    <path id="Path_243724" data-name="Path 243724" d="M.794,12.965h22.5V31.712H.794Z" transform="translate(1.97 48.288)" fill="#427096"/>
    <path id="Path_243725" data-name="Path 243725" d="M21.9,12.965C20.193,26.543,5.178,29.666.794,30.3v1.408h22.5V12.965Z" transform="translate(1.97 48.288)" fill="#365b7a"/>
    <path id="Path_243726" data-name="Path 243726" d="M11.906,13.23H33.157V30.725H11.906Z" transform="translate(43.357 49.275)" fill="#427096"/>
    <path id="Path_243727" data-name="Path 243727" d="M31.768,13.23C30.053,26.808,16.29,28.684,11.906,29.317v1.408H33.157V13.23Z" transform="translate(43.357 49.275)" fill="#365b7a"/>
  </g>
</svg>
