<svg xmlns="http://www.w3.org/2000/svg" xmlns:xlink="http://www.w3.org/1999/xlink" width="80" height="80" viewBox="0 0 80 80">
  <defs>
    <clipPath id="clip-path">
      <path id="Path_243675" data-name="Path 243675" d="M0-682.665H80v80H0Z" transform="translate(0 682.665)"/>
    </clipPath>
  </defs>
  <g id="Group_169697" data-name="Group 169697" transform="translate(0 -0.002)">
    <g id="Group_169696" data-name="Group 169696" transform="translate(0 0.002)" clip-path="url(#clip-path)">
      <path id="Path_243665" data-name="Path 243665" d="M-17.656,0A2.342,2.342,0,0,0-20,2.344V7.031a2.342,2.342,0,0,0,2.344,2.344,2.342,2.342,0,0,0,2.344-2.344V2.344A2.342,2.342,0,0,0-17.656,0" transform="translate(38.906 70.625)" fill="#cdc0ba"/>
      <path id="Path_243666" data-name="Path 243666" d="M-30.139-5.172a2.343,2.343,0,0,0-3.314,0,2.343,2.343,0,0,0,0,3.314l4.688,4.688a2.336,2.336,0,0,0,1.657.687,2.336,2.336,0,0,0,1.657-.687,2.343,2.343,0,0,0,0-3.314Z" transform="translate(62.422 71.796)" fill="#cdc0ba"/>
      <path id="Path_243667" data-name="Path 243667" d="M-40.485-5.172-45.172-.485a2.343,2.343,0,0,0,0,3.314,2.343,2.343,0,0,0,3.314,0l4.688-4.688a2.343,2.343,0,0,0,0-3.314,2.343,2.343,0,0,0-3.314,0" transform="translate(50.703 71.796)" fill="#cdc0ba"/>
      <path id="Path_243668" data-name="Path 243668" d="M-17.656-70.625a2.342,2.342,0,0,0,2.344-2.344v-4.687A2.342,2.342,0,0,0-17.656-80,2.342,2.342,0,0,0-20-77.656v4.688a2.342,2.342,0,0,0,2.344,2.344" transform="translate(76.406 80)" fill="#efe2dd"/>
      <path id="Path_243669" data-name="Path 243669" d="M-30.139-65.452l4.688-4.687a2.343,2.343,0,0,0,0-3.314,2.343,2.343,0,0,0-3.314,0l-4.687,4.688a2.343,2.343,0,0,0,0,3.314,2.343,2.343,0,0,0,3.314,0" transform="translate(99.922 78.828)" fill="#efe2dd"/>
      <path id="Path_243670" data-name="Path 243670" d="M-40.485-65.452a2.343,2.343,0,0,0,3.314,0,2.343,2.343,0,0,0,0-3.314l-4.687-4.687a2.343,2.343,0,0,0-3.314,0,2.343,2.343,0,0,0,0,3.314Z" transform="translate(88.203 78.828)" fill="#efe2dd"/>
      <path id="Path_243671" data-name="Path 243671" d="M-308.984-158.906a4.7,4.7,0,0,0,4.688,4.688h2.5a2.321,2.321,0,0,1,2.344,2.344v11.719a2.321,2.321,0,0,1-2.344,2.344h-11.875v2.344a7.022,7.022,0,0,1-7.031,7.031,7.022,7.022,0,0,1-7.031-7.031v-2.344h-11.719L-350-143.531l1.922-15.375,1.313-10.547L-339.452-180h11.719a2.321,2.321,0,0,1,2.344,2.344v2.344a4.7,4.7,0,0,0,4.688,4.688,4.7,4.7,0,0,0,4.688-4.687v-2.344A2.321,2.321,0,0,1-313.671-180H-301.8a2.321,2.321,0,0,1,2.344,2.344v11.719a2.321,2.321,0,0,1-2.344,2.344h-2.5a4.7,4.7,0,0,0-4.688,4.688" transform="translate(379.452 198.906)" fill="#ff637b"/>
      <path id="Path_243672" data-name="Path 243672" d="M-380.785-52.969V-41.25a2.321,2.321,0,0,1-2.344,2.344H-395v2.344a7.022,7.022,0,0,1-7.031,7.031,7.022,7.022,0,0,1-7.031-7.031v-2.344h-11.719l-10.547-5.719L-429.411-60h39.094a4.7,4.7,0,0,0,4.688,4.688h2.5a2.321,2.321,0,0,1,2.344,2.344" transform="translate(460.785 100)" fill="#e63950"/>
      <path id="Path_243673" data-name="Path 243673" d="M-371.957-229.531a4.7,4.7,0,0,1-4.687,4.688h-2.344a2.321,2.321,0,0,0-2.344,2.344v14.063h-11.719a2.321,2.321,0,0,1-2.344-2.344v-2.344a4.7,4.7,0,0,0-4.688-4.687,4.7,4.7,0,0,0-4.687,4.688v2.344a2.321,2.321,0,0,1-2.344,2.344h-11.875a2.321,2.321,0,0,1-2.344-2.344V-222.5a2.321,2.321,0,0,1,2.344-2.344h2.5a4.7,4.7,0,0,0,4.688-4.687,4.7,4.7,0,0,0-4.688-4.687h-2.5a2.321,2.321,0,0,1-2.344-2.344v-11.719a2.321,2.321,0,0,1,2.344-2.344h11.875v-2.344A7.022,7.022,0,0,1-400.082-260a7.022,7.022,0,0,1,7.031,7.031v2.344h11.719v14.063a2.321,2.321,0,0,0,2.344,2.344h2.344a4.7,4.7,0,0,1,4.687,4.688" transform="translate(421.332 269.531)" fill="#7ed8f6"/>
      <path id="Path_243674" data-name="Path 243674" d="M-371.957,0a4.7,4.7,0,0,1-4.687,4.688h-2.344a2.321,2.321,0,0,0-2.344,2.344V21.094h-11.719a2.321,2.321,0,0,1-2.344-2.344V16.406a4.7,4.7,0,0,0-4.688-4.687,4.7,4.7,0,0,0-4.687,4.687V18.75a2.321,2.321,0,0,1-2.344,2.344h-11.875a2.321,2.321,0,0,1-2.344-2.344V7.031a2.321,2.321,0,0,1,2.344-2.344h2.5A4.7,4.7,0,0,0-411.8,0Z" transform="translate(421.332 40)" fill="#6aa9ff"/>
    </g>
  </g>
</svg>
