<svg xmlns="http://www.w3.org/2000/svg" viewBox="0 0 512.007 512.007"><circle cx="256.003" cy="256.003" r="256.003" fill="#114379"/><path d="M511.891 248.709l-86.884-86.884H89.333v188.349l161.763 161.763c1.633.031 3.265.062 4.905.062 141.385 0 256-114.615 256-256a263.492 263.492 0 0 0-.11-7.29z" fill="#0f2d4e"/><path fill="#18b35c" d="M89.331 161.822h335.672v188.352H89.331z"/><path fill="#1b904e" d="M256.496 161.822h168.507v188.352H256.496z"/><path d="M343.747 161.822h13.145v30.093h-13.145zm0 52.666h13.145v30.093h-13.145zm0 52.666h13.145v30.093h-13.145zm0 52.665h13.145v30.093h-13.145zm-196.611-72.822c-13.699 0-23.957-10.169-23.957-22.069 0-12.204 10.651-21.924 23.957-21.924 12.872 0 23.957 9.361 23.957 21.924 0 12.072-10.5 22.069-23.957 22.069zm-15.827 53.723l78.695-97.425 8.857 7.841-78.695 97.425-8.857-7.841zm15.827-63.45c5.059 0 10.309-5.085 10.309-12.341 0-6.362-4.293-12.196-10.309-12.196-5.048 0-10.308 5.124-10.308 12.196-.002 6.485 4.381 12.341 10.308 12.341zm56.045 71.725c-13.128 0-23.957-9.527-23.957-21.924 0-11.823 10.194-22.07 23.957-22.07 12.649 0 23.957 9.029 23.957 22.07 0 13.363-11.729 21.924-23.957 21.924zm0-9.727c5.029 0 10.308-5.079 10.308-12.196 0-6.128-4.236-12.341-10.308-12.341-5.043 0-10.308 5.069-10.308 12.341 0 6.363 4.288 12.196 10.308 12.196z" fill="#fff"/></svg>