<svg xmlns="http://www.w3.org/2000/svg" viewBox="0 0 511.992 511.992"><circle cx="255.996" cy="255.996" r="255.996" fill="#114379"/><path d="M508.785 296.576c-19.288 121.083-123.467 213.846-249.616 215.381L132.677 385.466l15.019-11.512-47.215-47.215 248.203-190.264 160.101 160.101z" fill="#0f2d4e"/><g fill="#18b35c"><path d="M249.942 239.346h12.097v147.1h-12.097z"/><path d="M132.681 373.368h246.64v12.097h-246.64z"/></g><circle cx="255.996" cy="379.421" r="19.525" fill="#00cc96"/><path d="M255.997 359.891c10.783 0 19.525 8.743 19.525 19.525 0 10.7-8.606 19.392-19.274 19.522h-.252v-39.051l.001.004z" fill="#07b587"/><path d="M134.091 238.331c2.165 0 4.302.137 6.398.399a62.648 62.648 0 0 1-2.558-17.742c0-34.598 28.045-62.643 62.64-62.643 6.341 0 12.462.946 18.23 2.701 12.344-28.246 40.525-47.991 73.322-47.991 44.175 0 79.989 35.81 79.989 79.986 0 14.383-3.798 27.873-10.44 39.536a54.142 54.142 0 0 1 12.613-1.478c29.937 0 54.21 24.269 54.21 54.21 0 26.901-19.594 49.218-45.284 53.48v.733H134.087c-27.945 0-50.592-22.651-50.592-50.592 0-27.945 22.651-50.595 50.592-50.595l.004-.004z" fill="#f7f7f8"/></svg>