<svg xmlns="http://www.w3.org/2000/svg" viewBox="0 0 512 512"><circle cx="256" cy="256" r="256" fill="#164a81"/><path d="M293.484 509.24c116.608-17.116 207.603-112.835 217.544-231.629l-141.28-141.273-1.098 1.101-1.088-1.083-6.925-6.925-.94-.942a2.614 2.614 0 0 0-1.293-.346H153.582a2.63 2.63 0 0 0-2.619 2.619v5.591h-8.73v43.589l17.405 17.405h-6.057a2.63 2.63 0 0 0-2.619 2.619v5.594h-8.73v43.587l17.405 17.408h-6.057c-1.418 0-2.619 1.203-2.619 2.619v5.583h-8.73V318.4l52.823 52.82-32.991 6.602L293.484 509.24z" fill="#1a3f66"/><path d="M251.469 335.795h9.052v30.011h-9.052zm-89.395 32.973h187.853v9.044H162.074z" fill="#cee2f2"/><path d="M245.427 362.726h21.125v21.125h-21.125zM162.074 188.16h187.853v147.638H162.074z" fill="#5d6d7e"/><path d="M361.024 185.539a2.625 2.625 0 0 1-2.614 2.614H153.582a2.628 2.628 0 0 1-2.619-2.614v-54.792a2.631 2.631 0 0 1 2.619-2.616H358.41a2.626 2.626 0 0 1 2.614 2.616v54.792z" fill="#cee2f2"/><path fill="#f2f9ff" d="M157.056 134.246h197.862v47.803H157.056z"/><path d="M341.619 158.136c0 3.044-2.465 5.509-5.501 5.509s-5.507-2.465-5.507-5.509c0-3.034 2.47-5.501 5.507-5.501s5.501 2.468 5.501 5.501zM177.92 146.278h4.838v4.828h-4.838zm14.925 0h4.826v4.828h-4.826zm14.925 0h4.846v4.828h-4.846zm14.904 0h4.844v4.828h-4.844zm14.945 0h4.828v4.828h-4.828zm-59.699 18.893h4.838v4.841h-4.838zm14.925 0h4.826v4.841h-4.826zm14.925 0h4.846v4.841h-4.846zm14.904 0h4.844v4.841h-4.844zm14.945 0h4.828v4.841h-4.828zm-52.454-9.451h4.838v4.844h-4.838zm14.899 0h4.836v4.844h-4.836zm14.93 0h4.844v4.844h-4.844zm14.945 0h4.833v4.844h-4.833zm14.899 0h4.831v4.844h-4.831zm24.653 0h41.318v4.844h-41.318zm91.546-19.374h8.727v43.597h-8.727z" fill="#5d6d7e"/><path d="M366.771 140.654a1.39 1.39 0 0 1-1.388 1.385c-.748 0-1.375-.62-1.375-1.385 0-.755.627-1.377 1.375-1.377.758 0 1.388.622 1.388 1.377zm0 34.965a1.39 1.39 0 0 1-1.388 1.38 1.388 1.388 0 0 1-1.375-1.38 1.38 1.38 0 0 1 1.375-1.375c.758 0 1.388.612 1.388 1.375z" fill="#f2f9ff"/><path fill="#5d6d7e" d="M142.234 136.346h8.717v43.597h-8.717z"/><g fill="#f2f9ff"><path d="M147.991 140.654c0 .765-.625 1.385-1.388 1.385a1.38 1.38 0 0 1 0-2.762c.763 0 1.388.622 1.388 1.377z"/><circle cx="146.611" cy="175.616" r="1.385"/></g><path d="M361.024 254.751a2.622 2.622 0 0 1-2.614 2.614H153.582a2.626 2.626 0 0 1-2.619-2.614v-54.779a2.627 2.627 0 0 1 2.619-2.619H358.41a2.621 2.621 0 0 1 2.614 2.619v54.779z" fill="#cee2f2"/><path fill="#f2f9ff" d="M157.056 203.443h197.862v47.803H157.056z"/><g fill="#5d6d7e"><circle cx="336.102" cy="227.354" r="5.504"/><path d="M177.92 215.501h4.838v4.838h-4.838zm14.925 0h4.826v4.838h-4.826zm14.925 0h4.846v4.838h-4.846zm14.904 0h4.844v4.838h-4.844zm14.945 0h4.828v4.838h-4.828zm-59.699 18.867h4.838v4.838h-4.838zm14.925 0h4.826v4.838h-4.826zm14.925 0h4.846v4.838h-4.846zm14.904 0h4.844v4.838h-4.844zm14.945 0h4.828v4.838h-4.828zm-52.454-9.421h4.838v4.836h-4.838zm14.899 0h4.836v4.836h-4.836zm14.93 0h4.844v4.836h-4.844zm14.945 0h4.833v4.836h-4.833zm14.899 0h4.831v4.836h-4.831zm24.653 0h41.318v4.836h-41.318zm91.546-19.379h8.727v43.597h-8.727z"/></g><path d="M366.771 209.876c0 .758-.627 1.377-1.388 1.377-.748 0-1.375-.62-1.375-1.377 0-.763.627-1.388 1.375-1.388a1.398 1.398 0 0 1 1.388 1.388zm0 34.96c0 .758-.627 1.385-1.388 1.385-.748 0-1.375-.625-1.375-1.385s.627-1.377 1.375-1.377c.758 0 1.388.617 1.388 1.377z" fill="#f2f9ff"/><path fill="#5d6d7e" d="M142.234 205.568h8.717v43.597h-8.717z"/><g fill="#f2f9ff"><circle cx="146.611" cy="209.876" r="1.385"/><circle cx="146.611" cy="244.838" r="1.385"/></g><path d="M361.024 323.971a2.625 2.625 0 0 1-2.614 2.606H153.582c-1.434 0-2.619-1.18-2.619-2.606v-54.787a2.635 2.635 0 0 1 2.619-2.619H358.41a2.631 2.631 0 0 1 2.614 2.619v54.787z" fill="#cee2f2"/><path fill="#f2f9ff" d="M157.056 272.666h197.862v47.823H157.056z"/><path d="M341.619 296.573c0 3.036-2.465 5.499-5.501 5.499s-5.507-2.465-5.507-5.499c0-3.046 2.47-5.499 5.507-5.499s5.501 2.45 5.501 5.499zm-163.699-11.85h4.838v4.833h-4.838zm14.925 0h4.826v4.833h-4.826zm14.925 0h4.846v4.833h-4.846zm14.904 0h4.844v4.833h-4.844zm14.945 0h4.828v4.833h-4.828zM177.92 303.59h4.838v4.849h-4.838zm14.925 0h4.826v4.849h-4.826zm14.925 0h4.846v4.849h-4.846zm14.904 0h4.844v4.849h-4.844zm14.945 0h4.828v4.849h-4.828zm-52.454-9.42h4.838v4.823h-4.838zm14.899 0h4.836v4.823h-4.836zm14.93 0h4.844v4.823h-4.844zm14.945 0h4.833v4.823h-4.833zm14.899 0h4.831v4.823h-4.831zm24.653 0h41.318v4.823h-41.318zm91.546-19.405h8.727v43.622h-8.727z" fill="#5d6d7e"/><path d="M366.771 279.094c0 .758-.627 1.375-1.388 1.375a1.383 1.383 0 0 1-1.375-1.375 1.381 1.381 0 1 1 2.763 0zm0 34.959c0 .76-.627 1.385-1.388 1.385a1.39 1.39 0 0 1-1.375-1.385c0-.765.627-1.375 1.375-1.375.758 0 1.388.61 1.388 1.375z" fill="#f2f9ff"/><path fill="#5d6d7e" d="M142.234 274.765h8.717v43.622h-8.717z"/><g fill="#f2f9ff"><path d="M147.991 279.094a1.385 1.385 0 0 1-2.768 0c0-.768.614-1.377 1.38-1.377a1.378 1.378 0 0 1 1.388 1.377z"/><circle cx="146.611" cy="314.061" r="1.385"/></g></svg>