<svg xmlns="http://www.w3.org/2000/svg" viewBox="0 0 512 512"><circle cx="256" cy="256" r="256" fill="#114379"/><path d="M366.999 155.564v-.044h-.044c-41.477-.269-79.803-13.85-110.95-36.69-31.201 22.843-69.535 36.421-111.04 36.69v64.392c0 50.314 19.482 96.036 51.297 130.112.084.092.169.174.266.31l8.983 8.94c.166.174.351.31.484.484l137.021 137.047c86.067-31.112 150.661-107.039 165.632-199.611l-141.649-141.63z" fill="#12355a"/><path d="M256.008 118.833c-31.183 22.812-69.522 36.388-111.022 36.692v64.371c0 76.859 45.489 143.114 111.022 173.274 65.526-30.157 111.007-96.412 111.007-173.274v-64.371c-41.501-.305-79.852-13.88-111.007-36.692z" fill="#cee2f2"/><path d="M256.008 118.833c-31.183 22.812-69.522 36.388-111.022 36.692v64.371c0 76.859 45.489 143.114 111.022 173.274V118.833z" fill="#fff"/><path d="M256.008 137.382c-28.795 18.826-61.473 30.003-95.767 32.745v49.769c0 65.91 37.356 126.507 95.767 156.326 58.399-29.819 95.744-90.417 95.744-156.326v-49.769c-34.284-2.744-66.965-13.921-95.744-32.745z" fill="#148646"/><path d="M164.214 256.801c11.034 50.972 44.513 95.288 91.791 119.419V256.801h-91.791zm183.593 0a175.277 175.277 0 0 0 3.945-36.908v-49.766c-34.286-2.742-66.965-13.921-95.744-32.745v119.421h91.799v-.002z" fill="#18b35c"/><path d="M340.71 256.794c-10.752 47.027-41.574 88.499-84.71 111.718v7.706c47.258-24.141 80.742-68.454 91.776-119.424h-7.066zm-173.644-36.89v-43.571c31.514-3.482 62.029-14.054 88.934-30.848v-8.115c-28.8 18.842-61.466 30.003-95.77 32.768v49.766c0 12.57 1.408 24.909 4.019 36.89h7.014a164.392 164.392 0 0 1-4.197-36.89z" fill="#148646"/><path d="M256 368.512v7.706a130.395 130.395 0 0 1-5.35-2.867c-.077-.026-.154-.077-.205-.102a145.76 145.76 0 0 1-4.326-2.506 31.94 31.94 0 0 1-1.587-.947c-.691-.41-1.382-.845-2.048-1.254-.691-.435-1.357-.87-2.022-1.28-.154-.102-.307-.205-.435-.282a176.958 176.958 0 0 1-4.89-3.328c-.614-.435-1.254-.87-1.869-1.331-1.024-.717-2.022-1.485-3.021-2.227-.742-.563-1.485-1.152-2.227-1.715-.717-.566-1.434-1.126-2.15-1.715a8.196 8.196 0 0 1-.742-.589c-.717-.586-1.434-1.178-2.15-1.764a165.713 165.713 0 0 1-2.099-1.818c-.666-.589-1.331-1.152-1.971-1.743a61.058 61.058 0 0 1-1.946-1.792 93.013 93.013 0 0 1-2.406-2.253c-.947-.845-1.843-1.741-2.765-2.662-.64-.666-1.306-1.331-1.946-1.994-.64-.668-1.306-1.357-1.92-2.022a135.992 135.992 0 0 1-3.226-3.561 33.19 33.19 0 0 1-1.357-1.536l-.026-.026a117.02 117.02 0 0 1-3.277-3.894c-.614-.768-1.254-1.536-1.869-2.33a51.925 51.925 0 0 1-1.843-2.355 110.692 110.692 0 0 1-2.816-3.812c-.538-.742-1.075-1.459-1.562-2.202-.051-.077-.102-.156-.154-.23-.563-.796-1.126-1.587-1.664-2.406-.154-.205-.282-.435-.435-.64-.179-.256-.333-.512-.512-.794-.026-.028-.026-.054-.051-.077a110.167 110.167 0 0 1-2.33-3.661 143.876 143.876 0 0 1-3.635-6.067c-.768-1.408-1.536-2.819-2.304-4.224-1.51-2.839-2.97-5.734-4.301-8.653a197.975 197.975 0 0 1-3.738-8.627.896.896 0 0 1-.102-.279c-.128-.282-.23-.589-.333-.873a87.496 87.496 0 0 1-1.382-3.635c-.307-.845-.614-1.661-.896-2.506-.589-1.641-1.101-3.277-1.638-4.943-.205-.691-.435-1.38-.666-2.074-.128-.435-.256-.87-.358-1.306a95.344 95.344 0 0 1-1.254-4.429c-.128-.461-.256-.919-.358-1.382a126.9 126.9 0 0 1-1.434-5.99c-.051-.256-.128-.486-.179-.717h7.04c10.751 47.023 41.599 88.495 84.735 111.714zm95.744-198.374v49.766c0 1.229-.028 2.458-.054 3.686 0 .563-.026 1.152-.026 1.741a99.375 99.375 0 0 1-.128 2.79 117.185 117.185 0 0 1-.384 6.016c-.102 1.331-.23 2.688-.384 4.019a153.418 153.418 0 0 1-1.203 9.165c-.077.563-.177 1.126-.279 1.715-.131.768-.259 1.51-.384 2.253l-.384 1.997c-.205.973-.407 1.971-.612 2.944a3.572 3.572 0 0 1-.131.563h-7.066a164.324 164.324 0 0 0 4.201-36.89v-43.571c-31.491-3.482-62.006-14.054-88.911-30.848v-8.115c28.801 18.842 61.467 30.004 95.745 32.769z" fill="#18b35c"/></svg>