<svg xmlns="http://www.w3.org/2000/svg" viewBox="0 0 491.52 491.52"><circle cx="245.76" cy="245.76" r="245.76" fill="#114379"/><path d="M358.042 131.727H133.478c-3.789 0-6.861 3.226-6.861 7.167v181.811c0 2.304 1.024 4.352 2.662 5.633l161.07 161.07c109.272-20.039 193.234-112.297 200.584-225.503L363.059 134.031a6.562 6.562 0 0 0-5.017-2.304z" opacity=".3"/><path d="M364.898 138.898c0-3.952-3.069-7.156-6.856-7.156H133.478c-3.786 0-6.856 3.204-6.856 7.156V294.33h238.276V138.898z" fill="#1b904e"/><path fill="#18b35c" d="M140.216 145.93h211.098v134.195H140.216z"/><path d="M126.622 294.33v26.372c0 3.952 3.07 7.156 6.856 7.156h224.563c3.787 0 6.856-3.204 6.856-7.156V294.33H126.622z" fill="#ebf0f3"/><ellipse cx="245.76" cy="311.096" rx="9.308" ry="9.713" fill="#64798a"/><path fill="#e1e6e9" d="M211.763 327.834h67.968v20.393h-67.968z"/><path fill="#d5d6db" d="M279.745 348.249l-67.97-20.391h67.97z"/><path fill="#ebf0f3" d="M279.745 348.249h-67.97l-8.719 11.529h85.408z"/><path d="M181.988 229.379h-7.865l-11.305-32.685h7.13l8.11 24.7 8.11-24.7h7.125l8.11 24.7 8.11-24.7h7.125l-11.305 32.685h-7.86l-7.745-22.365-7.74 22.365zm56.035 0h-7.865l-11.305-32.685h7.13l8.11 24.7 8.11-24.7h7.125l8.11 24.7 8.11-24.7h7.125l-11.305 32.685h-7.86l-7.745-22.365-7.74 22.365zm56.03 0h-7.865l-11.305-32.685h7.13l8.11 24.7 8.11-24.7h7.125l8.11 24.7 8.11-24.7h7.125l-11.305 32.685h-7.86l-7.745-22.365-7.74 22.365z" fill="#fff"/></svg>