<svg xmlns="http://www.w3.org/2000/svg" viewBox="0 0 512.004 512.004" width="512" height="512"><path d="M128.571 310.938a7.499 7.499 0 0 0-7.5 7.5v84.835H20.604c-4.143 0-7.5 3.357-7.5 7.5s3.357 7.5 7.5 7.5h107.968c4.143 0 7.5-3.357 7.5-7.5v-92.335a7.501 7.501 0 0 0-7.501-7.5zm362.825 92.335H390.929v-84.835c0-4.143-3.357-7.5-7.5-7.5s-7.5 3.357-7.5 7.5v92.335c0 4.143 3.357 7.5 7.5 7.5h107.968c4.143 0 7.5-3.357 7.5-7.5s-3.358-7.5-7.501-7.5zm-314.205-92.335a7.499 7.499 0 0 0-7.5 7.5v172.958c0 4.143 3.357 7.5 7.5 7.5s7.5-3.357 7.5-7.5V318.438a7.5 7.5 0 0 0-7.5-7.5zm157.618 0a7.499 7.499 0 0 0-7.5 7.5v172.958c0 4.143 3.357 7.5 7.5 7.5s7.5-3.357 7.5-7.5V318.438a7.5 7.5 0 0 0-7.5-7.5zm-78.809 0a7.499 7.499 0 0 0-7.5 7.5v132.266c0 4.143 3.357 7.5 7.5 7.5s7.5-3.357 7.5-7.5V318.438a7.5 7.5 0 0 0-7.5-7.5z" data-original="#444B66" fill="#444b66"/><circle cx="177.19" cy="491.4" r="20.604" data-original="#EC5569" class="active-path" data-old_color="#115baa" fill="#115baa"/><circle cx="334.81" cy="491.4" r="20.604" data-original="#EC5569" class="active-path" data-old_color="#115baa" fill="#115baa"/><path d="M242.093 318.439H108.169V4a4 4 0 0 1 4-4h125.924a4 4 0 0 1 4 4v314.439z" data-original="#6E6B87" data-old_color="#18b35c" fill="#18b35c"/><path d="M242.093 318.439h-30.905V0h26.905a4 4 0 0 1 4 4v314.439z" data-original="#625F78" data-old_color="#18B35C" fill="#04a44a"/><path d="M405.891 318.439H271.968V4a4 4 0 0 1 4-4h125.924a4 4 0 0 1 4 4v314.439h-.001z" data-original="#6E6B87" data-old_color="#18b35c" fill="#18b35c"/><path d="M405.891 318.439h-30.905V0h26.905a4 4 0 0 1 4 4v314.439z" data-original="#625F78" data-old_color="#18B35C" fill="#04a44a"/><path data-original="#FAD87C" fill="#fad87c" d="M108.17 43.849h133.92v100.96H108.17z"/><path data-original="#FEBE40" fill="#febe40" d="M211.19 43.849h30.905v100.96H211.19z"/><path data-original="#FAD87C" fill="#fad87c" d="M271.97 43.849h133.92v100.96H271.97z"/><path data-original="#FEBE40" fill="#febe40" d="M374.99 43.849h30.905v100.96H374.99z"/><g fill="#444b66"><circle cx="303.06" cy="73.34" r="8.403" data-original="#444B66"/><circle cx="303.06" cy="94.33" r="8.403" data-original="#444B66"/><circle cx="303.06" cy="115.31" r="8.403" data-original="#444B66"/><circle cx="139.25" cy="73.34" r="8.403" data-original="#444B66"/><circle cx="139.25" cy="94.33" r="8.403" data-original="#444B66"/><circle cx="139.25" cy="115.31" r="8.403" data-original="#444B66"/></g><path d="M446.583 309.632c0 18.171-14.77 32.903-32.997 32.903H98.403c-18.218 0-32.987-14.732-32.987-32.903s14.77-32.903 32.987-32.903c5.62 0 10.91 1.407 15.531 3.881a38.396 38.396 0 0 1-.402-5.585c0-21.436 17.425-38.817 38.915-38.817a38.76 38.76 0 0 1 25.69 9.671 41.277 41.277 0 0 1-.051-2.259c0-30.716 24.969-55.612 55.764-55.612 23.785 0 44.103 14.865 52.11 35.798 6.587-10.389 18.218-17.288 31.453-17.288 20.544 0 37.197 16.611 37.197 37.102 0 4.363-.752 8.552-2.141 12.443a28.069 28.069 0 0 1 12.032-2.69c15.572 0 28.201 12.597 28.201 28.13 0 .934-.041 1.868-.134 2.782a32.835 32.835 0 0 1 21.017-7.556c18.229 0 32.998 14.732 32.998 32.903z" data-original="#CAEEFC" fill="#caeefc"/><path d="M413.586 276.889a32.835 32.835 0 0 0-21.017 7.556c.092-.914.134-1.848.134-2.782 0-15.533-12.629-28.13-28.201-28.13-4.302 0-8.388.965-12.032 2.69a36.939 36.939 0 0 0 2.141-12.443c0-20.491-16.653-37.102-37.197-37.102-13.236 0-24.866 6.899-31.453 17.288-8.008-20.933-28.325-35.798-52.11-35.798-19.471 0-36.604 9.96-46.578 25.044a55.728 55.728 0 0 1 20.137-3.754c19.3 0 36.316 9.788 46.326 24.662 3.144 4.673 9.528 5.57 13.918 2.042a37.105 37.105 0 0 1 23.32-8.194c20.543 0 37.197 16.611 37.197 37.102v.131c-.018 5.345 4.227 9.643 9.571 9.622l.319.001c15.258.119 22.352 10.975 25.56 19.792 1.799 4.944 7.219 7.382 12.159 5.571a32.954 32.954 0 0 1 11.365-2.007c18.228 0 32.997 14.732 32.997 32.903 0 3.968-.704 7.771-1.995 11.293 16.067-2.216 28.436-15.956 28.436-32.583 0-18.172-14.769-32.904-32.997-32.904z" data-original="#89CEEA" fill="#89ceea"/><circle cx="20.604" cy="410.77" r="20.604" data-original="#EC5569" class="active-path" data-old_color="#115baa" fill="#115baa"/><circle cx="491.4" cy="410.77" r="20.604" data-original="#EC5569" class="active-path" data-old_color="#115baa" fill="#115baa"/><circle cx="256" cy="450.7" r="20.604" data-original="#EC5569" class="active-path" data-old_color="#115baa" fill="#115baa"/></svg>