<svg xmlns="http://www.w3.org/2000/svg" width="331.338" height="70" viewBox="0 0 331.338 70">
  <g id="Group_19240" data-name="Group 19240" transform="translate(-200.625 -3637.413)">
    <g id="Group_18977" data-name="Group 18977" transform="translate(200.625 3637.413)">
      <path id="Path_73175" data-name="Path 73175" d="M432.585,322.023q.411-1.561.842-3.256a10.71,10.71,0,0,1,1.252-3.129,7.166,7.166,0,0,1,6.4-3.35q2.161-.012,4.16.036a9.362,9.362,0,0,0,9.316-5.962,5.358,5.358,0,0,0,.375-1.41,12.016,12.016,0,0,0,.229-1.983,9.209,9.209,0,0,0-5.271-8.238,9.334,9.334,0,0,0-4.054-.924q-4.674.02-9.407,0a.279.279,0,0,0-.3.225q-6.215,23.137-12.6,46.906a7.334,7.334,0,0,1-4.346,5.16,7.25,7.25,0,0,1-2.924.553q-6.412-.04-11.849-.016a.217.217,0,0,1-.194-.324,10.272,10.272,0,0,0,.644-2.331q.482-1.616.841-3.1c.407-1.691.913-3.3,1.347-4.958q2.9-11.062,5.551-20.663a.513.513,0,0,0,.012-.067,1.749,1.749,0,0,1,.036-.336q5.82-21.635,7.669-28.676.466-1.778.976-3.607a8.367,8.367,0,0,1,1.557-3.331,7.043,7.043,0,0,1,5.286-2.58q8.929.079,18.878,0a23.328,23.328,0,0,1,5.618.577,25.752,25.752,0,0,1,12.434,6.977,26.417,26.417,0,0,1,7.3,14.227,19.477,19.477,0,0,1,.249,4.342q-.012.34-.024.68a30.709,30.709,0,0,1-1.841,8.771,25.816,25.816,0,0,1-3.7,7.005,25.461,25.461,0,0,1-14.891,9.68,23.974,23.974,0,0,1-5.077.514q-8.1-.008-16.215.008a.227.227,0,0,1-.184-.092.236.236,0,0,1-.038-.2l.885-2.971a.718.718,0,0,0,.012-.387.551.551,0,0,1,.051-.367,2.311,2.311,0,0,0,.146-.371Q432.2,323.513,432.585,322.023Z" transform="translate(-368.054 -276.658)" fill="#f76a1e"/>
      <path id="Path_73176" data-name="Path 73176" d="M1044.748,276.886a5.061,5.061,0,0,1,1.4-.182q4.942.04,10.181,0a2.169,2.169,0,0,1,1.3.415,3.357,3.357,0,0,1,1.407,3.761q-6.507,24.128-12.932,48.1a25.775,25.775,0,0,1-2,5.385,22.81,22.81,0,0,1-14.757,11.62,18.991,18.991,0,0,1-5.484.664q-.225,0-.166-.217,4.077-15.353,8.293-31.181c.383-1.45.885-2.947,1.161-4.421.17-.913.494-1.766.731-2.651q3.315-12.394,7.226-27.3A5.264,5.264,0,0,1,1044.748,276.886Z" transform="translate(-742.793 -276.683)" fill="#f76a1e"/>
      <path id="Path_73177" data-name="Path 73177" d="M1132.753,282.866a6.076,6.076,0,1,1-6.076-6.076A6.076,6.076,0,0,1,1132.753,282.866Zm-.944.012a5.128,5.128,0,1,0-5.128,5.128A5.128,5.128,0,0,0,1131.808,282.878Z" transform="translate(-801.415 -276.738)" fill="#f76a1e"/>
      <path id="Path_73179" data-name="Path 73179" d="M1131.395,287.6l.008,2.533a.106.106,0,0,1-.111.119l-.877.079a.352.352,0,0,1-.383-.352l-.012-6.673a.215.215,0,0,1,.241-.241q1.233-.032,2.422-.04a2.137,2.137,0,0,1,1.106,4,.18.18,0,0,0-.067.281l1.632,2.643q.134.217-.115.257l-.806.134a.436.436,0,0,1-.5-.237l-1.324-2.355a.348.348,0,0,0-.158-.146,2.061,2.061,0,0,0-.869-.194A.168.168,0,0,0,1131.395,287.6Zm0-3.319-.008,1.865a.174.174,0,0,0,.174.174l.862,0a1.08,1.08,0,0,0,1.118-1.039v-.126a1.081,1.081,0,0,0-1.11-1.047l-.861,0a.174.174,0,0,0-.174.174Z" transform="translate(-807.114 -280.506)" fill="#f76a1e"/>
      <path id="Path_73181" data-name="Path 73181" d="M576.561,331.531a7.8,7.8,0,0,1-.458-5.282q.636-2.548,1.339-5.065a7.007,7.007,0,0,1,.3-1.312.321.321,0,0,1,.308-.19q17.827.059,37.715-.012a15.676,15.676,0,0,1,4.473.537,14.454,14.454,0,0,1,9.139,7.6,14.2,14.2,0,0,1,1.553,6.167,21.421,21.421,0,0,1-.948,5.93q-2.576,9.273-5.4,20.079-.462,1.766-.972,3.591a12.582,12.582,0,0,1-1.422,3.382,11.9,11.9,0,0,1-6.479,5.081,15.451,15.451,0,0,1-4.8.557q-12.153-.091-24.832-.071a26.369,26.369,0,0,1-6.942-.6,15.222,15.222,0,0,1-10.814-14.682,18.579,18.579,0,0,1,2.892-9.755,15.314,15.314,0,0,1,10.28-6.555,9.747,9.747,0,0,1,1.723-.146q11.434,0,24.231,0,.407,0,.288.391-.68,2.252-1.233,4.67c-.7,3.062-2.094,5.4-5.006,6.48a9.284,9.284,0,0,1-3.271.466q-5.093-.055-9.944-.016a2.034,2.034,0,0,0-1.5.652.6.6,0,0,0-.166.348,2.107,2.107,0,0,1-.257.8.49.49,0,0,0-.044.379,2.134,2.134,0,0,0,2.327,1.608l17.088-.008c1.6,0,2.114-1,2.5-2.465q1.032-3.884,2.106-7.748.036-.123.585-2.323.2-.79.446-1.545.253-.774.435-1.541.426-1.81,1-3.655a1.264,1.264,0,0,0-1.2-1.64q-13.042-.063-27.285-.008a10.724,10.724,0,0,1-4.034-.565A6.861,6.861,0,0,1,576.561,331.531Z" transform="translate(-467.337 -302.676)" fill="#f76a1e"/>
      <path id="Path_73182" data-name="Path 73182" d="M357.058,326.582c-.249,1.177-.719,2.292-.929,3.493-.537,3.05-1.881,5.472-4.808,6.713a8.687,8.687,0,0,1-3.489.533q-4.828-.087-9.028.008a8.108,8.108,0,0,0-5.03,1.861,9.415,9.415,0,0,0-2.671,11.462c1.746,3.5,4.816,5.022,8.68,5.109q2.4.051,4.844-.02a3.429,3.429,0,0,1,3.6,2.544,4.94,4.94,0,0,1-.225,2.224q-1.371,5.053-2.572,9.431-.2.731-.36,1.462a12.646,12.646,0,0,1-.336,1.253.216.216,0,0,1-.217.166q-3.588.087-7.238,0a23.858,23.858,0,0,1-11.537-3.319,25.711,25.711,0,0,1-11.892-14.859.62.62,0,0,1-.032-.166.661.661,0,0,0-.028-.194,25.006,25.006,0,0,1-.419-12.872,5.715,5.715,0,0,1,.292-.924c.2-.5.126-.98.284-1.5a25.856,25.856,0,0,1,17.183-17.748,22.21,22.21,0,0,1,4.9-.992,45.734,45.734,0,0,1,4.737-.245q8.957.016,17.692.016.225,0,.182.221C358.247,322.382,357.516,324.421,357.058,326.582Z" transform="translate(-312.727 -302.876)" fill="#f76a1e"/>
      <path id="Path_73183" data-name="Path 73183" d="M723.316,340.183c0-.016-.005-.033-.008-.051a.173.173,0,0,1,0-.083q2.628-9.838,5.259-19.739a.377.377,0,0,1,.364-.28q12.038-.083,23.828.008a26.507,26.507,0,0,1,7.135,1.031,23.6,23.6,0,0,1,6.187,2.785,25.583,25.583,0,0,1,11.644,16.14,26.761,26.761,0,0,1,.209,10.45q-.237,1.509-1.964,7.645-1.414,5.014-2.532,9.644a8.1,8.1,0,0,1-1.343,3.244,5.453,5.453,0,0,1-4.323,1.885q-4.9-.048-9.5-.012a3.011,3.011,0,0,1-3-2.722,6.948,6.948,0,0,1,.245-2.244q2.62-9.869,5.112-19.281a7.693,7.693,0,0,0,.19-3.346,9.476,9.476,0,0,0-5.895-7.42,4.209,4.209,0,0,0-1.138-.308,11.457,11.457,0,0,0-1.616-.245q-5.081.008-9.9,0a.427.427,0,0,0-.455.352q-4.148,15.594-8.4,31.422a5.114,5.114,0,0,1-5.243,3.793q-4.228-.047-9.225.012a3.4,3.4,0,0,1-1.853-.51q-2.114-1.3-1.288-4.247,1.454-5.18,2.932-10.766,1.679-6.341,3.3-12.631.612-2.375,1.272-4.417A.164.164,0,0,0,723.316,340.183Z" transform="translate(-556.411 -302.87)" fill="#f76a1e"/>
      <path id="Path_73184" data-name="Path 73184" d="M878.944,360.881a13.149,13.149,0,0,1,.19-5.76q2.552-9.49,5.334-19.952a20.009,20.009,0,0,1,8.526-12c4-2.631,8.317-3.323,13.184-3.256q8.167.115,16.274,0a41.871,41.871,0,0,1,7.44.371,14.169,14.169,0,0,1,8.182,4.789,13.831,13.831,0,0,1,3.429,8.214,15.947,15.947,0,0,1-.505,5.429q-.782,3.034-1.517,5.745a11.446,11.446,0,0,1-2.082,4.113,11.615,11.615,0,0,1-5.812,3.967,25.673,25.673,0,0,1-6.622.525q-11.94-.059-21.939-.051a2.4,2.4,0,0,0-1.079.059.221.221,0,0,1-.235-.027.211.211,0,0,1-.07-.222q.7-2.529,1.517-5.776a8.135,8.135,0,0,1,1.521-3.232,7.264,7.264,0,0,1,5.851-2.675q5.041-.02,10.561,0c1.505,0,1.841-1.264,2.133-2.446a2.57,2.57,0,0,0-.036-1.505c-.529-1.482-1.865-1.268-3.413-1.268q-7.294,0-14.484-.012a3.967,3.967,0,0,0-3.169,1.466,6.863,6.863,0,0,0-1.185,2.754q-.68,2.75-1.43,5.606a21.9,21.9,0,0,0-.711,2.556,6.636,6.636,0,0,1-.209.992q-.482,1.659-1.039,3.69a3.762,3.762,0,0,0-.032,2.438,2.756,2.756,0,0,0,2.8,1.659q17.68.02,35.539.008.257,0,.19.249-1.253,4.567-2.544,9.466a8.54,8.54,0,0,1-1.576,3.382,7.308,7.308,0,0,1-5.563,2.627q-15.507-.055-31.532.016a21.154,21.154,0,0,1-5.713-.561,14.132,14.132,0,0,1-5.756-3.323A14.855,14.855,0,0,1,878.944,360.881Z" transform="translate(-655.095 -302.817)" fill="#f76a1e"/>
    </g>
  </g>
</svg>
