<svg xmlns="http://www.w3.org/2000/svg" width="84.806" height="80" viewBox="0 0 84.806 80">
  <g id="Group_19364" data-name="Group 19364" transform="translate(0 -14.508)">
    <path id="Path_73624" data-name="Path 73624" d="M317.351,108.85H335.1a2.485,2.485,0,1,0,0-4.969H317.351a2.485,2.485,0,1,0,0,4.969Zm4.671-49.075a2.485,2.485,0,0,0,2.485-2.485V49.477H335.1a2.485,2.485,0,1,0,0-4.969H322.022a2.485,2.485,0,0,0-2.485,2.485v10.3a2.485,2.485,0,0,0,2.485,2.485Zm10.566,19.241h12.446a2.485,2.485,0,1,0,0-4.969H332.588a2.485,2.485,0,1,0,0,4.969Zm-3.657,11.768h10.454a2.485,2.485,0,1,0,0-4.969H328.931a2.485,2.485,0,1,0,0,4.969Z" transform="translate(-262.713 -25.031)" fill="#cfdbfd"/>
    <circle id="Ellipse_87" data-name="Ellipse 87" cx="4.516" cy="4.516" r="4.516" transform="translate(72.837 17.446)" fill="#ffe370"/>
    <circle id="Ellipse_88" data-name="Ellipse 88" cx="4.516" cy="4.516" r="4.516" transform="translate(72.837 76.819)" fill="#ffe370"/>
    <path id="Path_73625" data-name="Path 73625" d="M422,21.962a7.454,7.454,0,1,1,7.454,7.454A7.462,7.462,0,0,1,422,21.962Zm4.969,0a2.485,2.485,0,1,0,2.485-2.485A2.487,2.487,0,0,0,426.969,21.962ZM422,81.335a7.454,7.454,0,1,1,7.454,7.454A7.462,7.462,0,0,1,422,81.335Zm4.969,0a2.485,2.485,0,1,0,2.485-2.485A2.487,2.487,0,0,0,426.969,81.335Z" transform="translate(-352.101)" fill="#ffb54c"/>
    <path id="Path_73626" data-name="Path 73626" d="M30.168,108.85H12.423a2.485,2.485,0,1,1,0-4.969H30.168a2.485,2.485,0,1,1,0,4.969ZM25.5,59.775a2.485,2.485,0,0,1-2.485-2.485V49.477H12.423a2.485,2.485,0,1,1,0-4.969H25.5a2.485,2.485,0,0,1,2.485,2.485v10.3A2.485,2.485,0,0,1,25.5,59.775ZM14.931,79.016H2.485a2.485,2.485,0,1,1,0-4.969H14.931a2.485,2.485,0,1,1,0,4.969Zm3.657,11.768H8.134a2.485,2.485,0,1,1,0-4.969H18.588a2.485,2.485,0,1,1,0,4.969Z" transform="translate(0 -25.031)" fill="#e8f1fd"/>
    <circle id="Ellipse_89" data-name="Ellipse 89" cx="4.516" cy="4.516" r="4.516" transform="translate(2.938 17.446)" fill="#ffefb2"/>
    <circle id="Ellipse_90" data-name="Ellipse 90" cx="4.516" cy="4.516" r="4.516" transform="translate(2.938 76.819)" fill="#ffefb2"/>
    <path id="Path_73627" data-name="Path 73627" d="M7.454,29.415a7.454,7.454,0,1,1,7.454-7.454A7.462,7.462,0,0,1,7.454,29.415Zm0-9.938a2.485,2.485,0,1,0,2.485,2.485A2.487,2.487,0,0,0,7.454,19.477Zm0,69.311a7.454,7.454,0,1,1,7.454-7.454A7.462,7.462,0,0,1,7.454,88.789Zm0-9.938a2.485,2.485,0,1,0,2.485,2.485A2.487,2.487,0,0,0,7.454,78.85Z" transform="translate(0 0)" fill="#ffe370"/>
    <path id="Path_73628" data-name="Path 73628" d="M136.527,92.429c-2.915,10.407-9.892,25.21-26.568,37.431-13.354-9.768-22.263-22.272-26.5-37.2A63.088,63.088,0,0,1,80.99,73.878C98.1,68.427,106.432,62.6,109.959,59.512c3.526,3.092,11.861,8.916,28.972,14.366a62.624,62.624,0,0,1-2.4,18.551Z" transform="translate(-67.556 -37.55)" fill="#94e671"/>
    <path id="Path_73629" data-name="Path 73629" d="M282.568,92.429c-2.915,10.407-9.892,25.21-26.568,37.431V59.512c3.526,3.092,11.861,8.916,28.972,14.366A62.624,62.624,0,0,1,282.568,92.429Z" transform="translate(-213.597 -37.55)" fill="#52cc7b"/>
    <path id="Path_73630" data-name="Path 73630" d="M100.3,114.8l-1.536-1.854c-12.085-8.84-20.15-20.158-23.986-33.667a57.107,57.107,0,0,1-2.231-17c15.482-4.934,23.025-10.2,26.217-13l1.536-1.527V45.56l-1.536-2.318a2.423,2.423,0,0,0-1.976,1.024c-.26.315-6.264,7.328-27.342,13.776a2.483,2.483,0,0,0-1.741,2.092,57.53,57.53,0,0,0,2.228,20.274,65.328,65.328,0,0,0,8.64,18.758,71.771,71.771,0,0,0,18.77,18.869,2.481,2.481,0,0,0,1.421.447l1.536-2Z" transform="translate(-56.361 -23.975)" fill="#52cc7b"/>
    <path id="Path_73631" data-name="Path 73631" d="M203.851,146.031l-1.434-2.039a10.649,10.649,0,0,0-10.637,10.637v3.848a2.485,2.485,0,1,0,4.969,0v-3.848a5.674,5.674,0,0,1,5.668-5.668l1.434-1.588Z" transform="translate(-160.014 -108.037)" fill="#404a80"/>
    <path id="Path_73632" data-name="Path 73632" d="M284.831,80.408a65.329,65.329,0,0,1-8.64,18.758,71.771,71.771,0,0,1-18.77,18.869,2.481,2.481,0,0,1-1.421.447v-5.537c15.093-11.061,21.407-24.458,24.046-33.878a56.673,56.673,0,0,0,2.175-16.789c-15.485-4.933-23.029-10.2-26.22-13V43.242a2.423,2.423,0,0,1,1.976,1.024c.26.315,6.264,7.328,27.342,13.776a2.483,2.483,0,0,1,1.741,2.092A57.53,57.53,0,0,1,284.831,80.408Z" transform="translate(-213.597 -23.975)" fill="#3d997a"/>
    <path id="Path_73633" data-name="Path 73633" d="M266.637,154.629v3.848a2.485,2.485,0,1,1-4.969,0v-3.848A5.674,5.674,0,0,0,256,148.961v-4.969A10.649,10.649,0,0,1,266.637,154.629Z" transform="translate(-213.597 -108.037)" fill="#283366"/>
    <path id="Path_73634" data-name="Path 73634" d="M189.355,221.41l-2.223-4.968h-9.143a4.533,4.533,0,0,0-4.529,4.529V235.2a4.533,4.533,0,0,0,4.529,4.529h9.143l2.223-5.93Z" transform="translate(-144.729 -168.486)" fill="#ffe370"/>
    <path id="Path_73635" data-name="Path 73635" d="M269.672,220.971V235.2a4.533,4.533,0,0,1-4.529,4.529H256V216.442h9.143A4.533,4.533,0,0,1,269.672,220.971Z" transform="translate(-213.597 -168.486)" fill="#ffb54c"/>
    <path id="Path_73636" data-name="Path 73636" d="M245.969,266.927v2.415a2.485,2.485,0,1,1-4.969,0v-2.415a2.485,2.485,0,1,1,4.969,0Z" transform="translate(-201.081 -208.536)" fill="#404a80"/>
    <path id="Path_73637" data-name="Path 73637" d="M258.485,266.927v2.415A2.484,2.484,0,0,1,256,271.826v-7.384A2.484,2.484,0,0,1,258.485,266.927Z" transform="translate(-213.597 -208.536)" fill="#283366"/>
  </g>
</svg>
