<svg xmlns="http://www.w3.org/2000/svg" width="400" height="400"><path fill="#40596B" d="M383.622 57.401H16.378C7.323 57.401 0 64.725 0 73.779v225.275h400V73.779c0-9.054-7.323-16.378-16.378-16.378z"/><path fill="#F2F2F2" d="M0 299.055v28.031c0 9.056 7.323 16.379 16.378 16.379h371.339c6.771 0 12.204-5.512 12.204-12.205v-32.205H0z"/><g fill="#CDD6E0"><circle cx="200" cy="321.26" r="8.74"/><path d="M279.134 376.142H120.866l15.197-21.181 5.906-11.418h116.062l5.907 11.418z"/></g><path fill="#40596B" d="M321.103 399.37H78.897v-21.023c0-1.181.945-2.205 2.205-2.205h237.795a2.2 2.2 0 0 1 2.205 2.205v21.023z"/><path fill="#84DBFF" d="M24.41 80.394h351.181v201.024H24.41z"/><path fill="#ACB3BA" d="M263.938 354.961H136.063l5.906-11.418h116.062z"/><path fill="#F1543F" d="M155.669 157.323c0-24.488 19.842-44.331 44.331-44.331s44.33 19.842 44.33 44.331c0 3.937-.551 7.717-1.496 11.339 9.844-10.473 15.906-24.567 15.906-40.079 0-32.441-26.299-58.74-58.74-58.74s-58.74 26.299-58.74 58.74c0 15.512 6.063 29.606 15.906 40.079-.945-3.622-1.497-7.402-1.497-11.339z"/><path fill="#FFF" d="M334.331 281.338c7.244-8.504 11.653-19.448 11.653-31.496 0-26.85-21.812-48.66-48.662-48.66-7.716 0-15.039 1.889-21.574 5.117-8.897-11.653-22.914-19.212-38.662-19.212-14.252 0-27.008 6.142-35.904 15.906-4.095-1.103-8.347-1.732-12.756-1.732-2.047 0-4.095.158-6.142.394-8.898-10.079-21.89-16.457-36.457-16.457-22.834 0-41.89 15.749-47.165 36.929-25.04 2.048-44.725 22.913-44.725 48.425 0 3.701.473 7.323 1.26 10.867h279.134v-.081z"/><path fill="#FF7058" d="M218.504 152.126h-37.008c-24.173-33.779-27.48-77.953-9.685-114.488 5.275-11.023 12.52-21.338 21.653-30.472L200.078.63l6.536 6.536c9.134 9.134 16.378 19.449 21.653 30.472 17.638 36.535 14.411 80.709-9.763 114.488z"/><path fill="#FFF" d="M234.725 221.182h-69.45l16.457-69.056h36.536z"/><path fill="#40596B" d="M228.189 37.638h-56.3c5.276-11.023 12.52-21.338 21.654-30.472L200.157.63l6.536 6.536c8.977 9.055 16.221 19.448 21.496 30.472z"/><circle fill="#FFD15C" cx="200" cy="91.103" r="21.26"/></svg>