<svg xmlns="http://www.w3.org/2000/svg" width="400" height="400"><path fill="#F9BA48" d="M116.13 135.484c-49.884 0-90.322 40.438-90.322 90.323 0 28.678 13.407 54.181 34.239 70.722l33.896-59.316a9.834 9.834 0 0 1 8.542-4.954c6.717 0 11.451 6.574 9.329 12.948l-22.309 66.921a90.256 90.256 0 0 0 26.625 4c49.884 0 90.322-40.438 90.322-90.322 0-49.885-40.438-90.322-90.322-90.322z"/><path fill="#183651" d="M122.583 354.031c0-13.174-9.432-24.205-22.432-26.231-2.703-.419-5.542-1.052-8.477-1.793l20.593-61.768c1.311.155 2.6.278 3.865.278 21.349 0 38.709-17.361 38.709-38.71s-17.361-38.709-38.709-38.709c-21.348 0-38.711 17.36-38.711 38.708 0 6.574 1.762 12.922 4.955 18.657l-33.755 59.058c-4.038-3.479-7.852-7.091-11.117-10.923l-1.923-2.278H19.357v90.322h76.612c14.671.003 26.614-11.94 26.614-26.611zM105.697 243.16l-30.123 90.361a12.285 12.285 0 0 1-11.671 8.414c-6.781 0-12.291-5.51-12.291-12.291v-2.084c0-2.137.562-4.244 1.62-6.098l46.322-81.051a3.363 3.363 0 0 1 2.929-1.704c1.503 0 2.368.884 2.749 1.407.381.524.937 1.62.465 3.046zM116.13 200c14.233 0 25.807 11.574 25.807 25.807 0 14.109-11.387 25.573-25.444 25.768l1.445-4.328a16.297 16.297 0 0 0-2.239-14.678 16.335 16.335 0 0 0-13.213-6.761c-4.432 0-8.599 1.827-11.626 4.909-.316-1.613-.535-3.245-.535-4.909C90.324 211.574 101.897 200 116.13 200zM32.26 306.006c3.02 3.129 6.354 6.083 9.826 8.954l-.058.097a25.313 25.313 0 0 0-3.315 12.497v2.083c0 13.897 11.302 25.2 25.194 25.2 10.632 0 20.019-6.659 23.639-16.601 3.67.961 7.226 1.787 10.625 2.311 6.671 1.039 11.509 6.709 11.509 13.483 0 7.562-6.148 13.71-13.71 13.71H32.26v-61.734zm251.611-241.49C327.007 64.516 400 57.722 400 32.257S327.007 0 283.871 0 167.743 6.793 167.743 32.259c0 25.465 72.992 32.257 116.128 32.257zm0-51.613c64.458 0 102.006 12.807 103.226 19.322-1.22 6.58-38.768 19.387-103.226 19.387-64.354 0-101.883-12.769-103.218-19.355 1.335-6.586 38.864-19.354 103.218-19.354z"/><path fill="#183651" d="M387.096 103.194c-1.22 6.58-38.768 19.387-103.226 19.387-18.091 0-35.735-1.129-51.612-3.181v-9.723h-41.936c-7.355-3.162-9.529-5.8-9.677-6.452V64.516h-12.903v38.709c0 2.413.742 4.529 1.82 6.452H.001V400h206.451c14.233 0 25.807-11.574 25.807-25.807v-99.857c15.974 1.988 33.579 3.084 51.612 3.084 43.136 0 116.129-6.793 116.129-32.258v-38.711h-12.903v38.678c-1.22 6.58-38.768 19.387-103.226 19.387-18.115 0-35.762-1.135-51.612-3.181v-57.962c15.993 1.98 33.599 3.078 51.612 3.078 43.136 0 116.129-6.794 116.129-32.259v-38.708h-12.903v38.678c-1.22 6.58-38.768 19.387-103.226 19.387-18.09 0-35.734-1.129-51.612-3.181V132.4c15.993 1.987 33.599 3.084 51.612 3.084 43.136 0 116.129-6.793 116.129-32.258v-38.71h-12.903l-.001 38.678zM219.355 374.192c0 7.116-5.787 12.903-12.903 12.903H12.905V122.581h206.451v251.611z"/><path fill="#183651" d="M309.678 335.482c0 10.671-8.684 19.355-19.355 19.355h-27.317l13.491-22.483-11.064-6.638-21.341 35.572 21.349 35.581 11.064-6.638-13.496-22.491h27.316c17.786 0 32.257-14.471 32.257-32.259V290.32h-12.903v45.162zM90.324 64.516c0-10.671 8.683-19.355 19.354-19.355h27.316l-13.491 22.484 11.064 6.638 21.342-35.574-21.347-35.58-11.064 6.638 13.497 22.491H109.68c-17.787 0-32.257 14.471-32.257 32.259v32.258h12.903V64.516h-.002z"/></svg>