<svg xmlns="http://www.w3.org/2000/svg" width="83.592" height="80" viewBox="0 0 83.592 80">
  <g id="Group_19355" data-name="Group 19355" transform="translate(0 -11)">
    <path id="Path_73593" data-name="Path 73593" d="M40,11A40.01,40.01,0,0,0,4.5,69.449V63.083a1.272,1.272,0,0,1,1.27-1.27h24.3a1.271,1.271,0,0,1,1.27,1.27V83.036a1.271,1.271,0,0,1-1.27,1.27H17.844A40,40,0,1,0,40,11Z" fill="#d4f2f6"/>
    <path id="Path_73594" data-name="Path 73594" d="M90.931,428.192H72.356l-.618.163a40.223,40.223,0,0,0,6.38,5.193H90.1a1.433,1.433,0,0,0,1.433-1.433v-3.76Z" transform="translate(-60.026 -349.079)" fill="#ffe177"/>
    <path id="Path_73595" data-name="Path 73595" d="M307.666,45.555a19.51,19.51,0,0,0-16.534,9.137l5.029,2.831a13.755,13.755,0,0,0,12.893,21.255,36.283,36.283,0,0,1-1.067,5.824,19.525,19.525,0,0,0-.32-39.048Z" transform="translate(-243.6 -28.913)" fill="#a6e7f0"/>
    <path id="Path_73596" data-name="Path 73596" d="M136.862,104.764a13.6,13.6,0,0,1-11.272-21.22l-11.534-6.494a2.568,2.568,0,0,0-2.52,0L88.308,90.128A2.568,2.568,0,0,0,87,92.365v8.884c0,.51.012,1.019.033,1.525a10.048,10.048,0,0,1,13.742,9.351V116.8h2.1a1.271,1.271,0,0,1,1.27,1.27v14.184q.576.362,1.165.7l6.2,3.582a2.568,2.568,0,0,0,2.568,0l6.2-3.582a36.617,36.617,0,0,0,18.147-28.289A13.674,13.674,0,0,1,136.862,104.764Z" transform="translate(-72.796 -54.99)" fill="#00f2a6"/>
    <path id="Path_73597" data-name="Path 73597" d="M146.107,116.235a13.574,13.574,0,0,1,.463-3.515L136.048,106.8a.817.817,0,0,0-.8,0l-20.521,11.554a.816.816,0,0,0-.416.711v7.519c0,.2.006.4.01.6a10.066,10.066,0,0,1,9.306,10.024v4.678h2.1a1.271,1.271,0,0,1,1.27,1.27v8.764a31.658,31.658,0,0,0,3.144,2.079l5.1,2.945a.816.816,0,0,0,.816,0l5.1-2.945a31.756,31.756,0,0,0,15.686-24.46A13.629,13.629,0,0,1,146.107,116.235Z" transform="translate(-95.648 -80.067)" fill="#0ed290"/>
    <path id="Path_73598" data-name="Path 73598" d="M137.863,189.369a31.656,31.656,0,0,1-15.828-27.415V152.9l-7.309,4.115a.816.816,0,0,0-.416.711v7.519c0,.2.006.4.01.6a10.065,10.065,0,0,1,9.306,10.024v4.678h2.1a1.271,1.271,0,0,1,1.27,1.27v8.764a31.658,31.658,0,0,0,3.144,2.079l5.1,2.945a.816.816,0,0,0,.816,0l5.1-2.945c.4-.229.783-.468,1.167-.712Z" transform="translate(-95.648 -118.729)" fill="#00c285"/>
    <g id="Group_19352" data-name="Group 19352" transform="translate(23.366 43.691)">
      <path id="Path_73599" data-name="Path 73599" d="M150.18,221.585a1.82,1.82,0,0,1-1.818,1.818h1.378a1.818,1.818,0,1,0,0-3.635h-.976a4.267,4.267,0,0,1,0-8.533h-1.378a4.262,4.262,0,0,0-4.194,5.043,10.127,10.127,0,0,1,3.184,3.368,4.259,4.259,0,0,0,1.01.122h.976A1.82,1.82,0,0,1,150.18,221.585Zm5.177,3.042a1.224,1.224,0,0,1,1.224-1.224H155.2a1.224,1.224,0,0,0,0,2.449h1.378A1.224,1.224,0,0,1,155.357,224.627Zm2.529-4.86h.976a1.818,1.818,0,1,1,0,3.635h1.378a1.818,1.818,0,1,0,0-3.635h-.976a4.267,4.267,0,0,1,0-8.533h-1.378a4.267,4.267,0,0,0,0,8.533Zm7.612,4.86V212.458a1.223,1.223,0,0,1,.536-1.012,1.224,1.224,0,0,0-1.913,1.012v12.169a1.224,1.224,0,0,0,1.224,1.224h1.378A1.224,1.224,0,0,1,165.5,224.627Z" transform="translate(-143.119 -211.234)" fill="#07b27b"/>
    </g>
    <path id="Path_73600" data-name="Path 73600" d="M156.8,217.318h-.976a1.818,1.818,0,1,1,0-3.635h3.66a1.224,1.224,0,0,0,0-2.449h-3.66a4.267,4.267,0,0,0,0,8.533h.976a1.818,1.818,0,1,1,0,3.635h-2.092a10.1,10.1,0,0,1,.084,1.276v1.173H156.8a4.267,4.267,0,1,0,0-8.533Zm10.5,8.533h-3.659a1.224,1.224,0,0,1,0-2.449H167.3a1.818,1.818,0,1,0,0-3.635h-.976a4.267,4.267,0,0,1,0-8.533h3.66a1.224,1.224,0,0,1,0,2.449h-3.66a1.818,1.818,0,0,0,0,3.635h.976a4.267,4.267,0,1,1,0,8.533Zm13.543,0h-7.061a1.224,1.224,0,0,1-1.224-1.224V212.458a1.224,1.224,0,1,1,2.449,0V223.4h5.836a1.224,1.224,0,0,1,0,2.449Z" transform="translate(-126.816 -167.543)" fill="#fff"/>
    <path id="Path_73601" data-name="Path 73601" d="M51.348,245.894v-4.678a6.075,6.075,0,0,1,12.15,0v4.678H67.64v-4.678a10.218,10.218,0,0,0-20.435,0v4.678Z" transform="translate(-39.498 -184.081)" fill="#0681af"/>
    <g id="Group_19353" data-name="Group 19353" transform="translate(7.707 46.918)">
      <path id="Path_73602" data-name="Path 73602" d="M63.5,241.217v4.678h2.4v-4.678a6.076,6.076,0,0,0-7.275-5.956A6.085,6.085,0,0,1,63.5,241.217Zm-13.893,4.677v-4.678a10.232,10.232,0,0,1,9.018-10.147,10.217,10.217,0,0,0-11.418,10.147v4.678Z" transform="translate(-47.206 -230.999)" fill="#017297"/>
    </g>
    <path id="Path_73603" data-name="Path 73603" d="M52.314,321.232h-24.3a1.433,1.433,0,0,0-1.433,1.433v6.052a40.119,40.119,0,0,0,7.369,10.141h19.8V322.665A1.433,1.433,0,0,0,52.314,321.232Z" transform="translate(-22.237 -259.582)" fill="#ffc344"/>
    <path id="Path_73604" data-name="Path 73604" d="M26.577,322.665v6.052a40.065,40.065,0,0,0,5.29,7.894V322.665a1.433,1.433,0,0,1,1.433-1.433H28.01a1.433,1.433,0,0,0-1.433,1.433Z" transform="translate(-22.238 -259.582)" fill="#feb137"/>
    <path id="Path_73605" data-name="Path 73605" d="M97.247,351.8a3.041,3.041,0,1,0-4.653,2.577.481.481,0,0,1,.23.406v3.577a.955.955,0,0,0,.955.955h.854a.955.955,0,0,0,.955-.955v-3.574a.485.485,0,0,1,.232-.409A3.038,3.038,0,0,0,97.247,351.8Z" transform="translate(-76.281 -282.612)" fill="#3692bc"/>
    <path id="Path_73606" data-name="Path 73606" d="M94.387,358.356v-3.577a.481.481,0,0,0-.23-.406,3.04,3.04,0,0,1,.831-5.515,3.04,3.04,0,0,0-2.394,5.515.481.481,0,0,1,.23.406v3.577a.955.955,0,0,0,.955.955h.854a.952.952,0,0,0,.355-.069A.955.955,0,0,1,94.387,358.356Z" transform="translate(-76.281 -282.611)" fill="#017297"/>
    <circle id="Ellipse_80" data-name="Ellipse 80" cx="13.77" cy="13.77" r="13.77" transform="translate(50.296 22.398)" fill="#3692bc"/>
    <path id="Path_73607" data-name="Path 73607" d="M316.595,94.581a13.773,13.773,0,0,1,9.5-13.093,13.77,13.77,0,1,0,0,26.186,13.774,13.774,0,0,1-9.5-13.093Z" transform="translate(-257.767 -58.413)" fill="#0681af"/>
    <g id="Group_19354" data-name="Group 19354" transform="translate(55.308 31.739)">
      <path id="Path_73608" data-name="Path 73608" d="M346.644,144.616l6.232-6.232a1.22,1.22,0,0,1,.211-.168,1.224,1.224,0,0,0-1.521.168l-5.577,5.577Zm-.866,2.6-5.349-5.349a1.222,1.222,0,0,1,.211-1.9,1.224,1.224,0,0,0-1.521,1.9l5.349,5.349a1.222,1.222,0,0,0,1.521.168A1.223,1.223,0,0,1,345.778,147.214Z" transform="translate(-338.761 -138.026)" fill="#025f80"/>
    </g>
    <path id="Path_73609" data-name="Path 73609" d="M353.358,147.569a1.225,1.225,0,0,1-.866-.359l-5.349-5.349a1.224,1.224,0,0,1,1.732-1.732l4.483,4.483,6.233-6.232a1.224,1.224,0,1,1,1.732,1.732l-7.1,7.1A1.223,1.223,0,0,1,353.358,147.569Z" transform="translate(-290.166 -106.284)" fill="#fff"/>
  </g>
</svg>
