<svg height="200" viewBox="0 0 444 333" width="200" xmlns="http://www.w3.org/2000/svg" fill-rule="evenodd" clip-rule="evenodd" stroke-linejoin="round" stroke-miterlimit="1.414"><path fill="none" d="M.076.766h443.612v331.416H.076z"/><path d="M57.348 132.061a34.203 34.203 0 0 0 5.647 4.764c-13.492 25.447-21.127 54.454-21.127 85.231 0 2.908.068 5.801.21 8.662l-3.21-.162c-1.338 0-2.658.082-3.937.267a182.498 182.498 0 0 1-.226-9.159c0-32.409 8.196-62.923 22.643-89.603zm334.605 2.629c13.583 26.047 21.251 55.623 21.251 86.974 0 2.569-.051 5.126-.169 7.696a29.23 29.23 0 0 0-6.297-.76c.091-2.172.13-4.354.13-6.544 0-30.256-7.379-58.802-20.438-83.926a31.74 31.74 0 0 0 5.523-3.44zM262.726 36.754c33.881 7.048 64.451 23.153 89.05 45.672a31.982 31.982 0 0 0-4.79 4.507c-23.411-21.26-52.359-36.526-84.409-43.351a26.42 26.42 0 0 0 .291-4.026l-.142-2.802zm-61.351-2.636a28.387 28.387 0 0 0-.507 5.438l.075 1.494c-36.339 4.66-69.352 20.031-95.741 42.829a32.123 32.123 0 0 0-5.778-4.394c27.94-24.42 63.158-40.772 101.951-45.367z" fill="#0084ff"/><path fill="#cce6ff" d="M228.868 76.556h7v39h-7z"/><path d="M187.796 176.859c0 31.619 19.226 65.546 42.927 65.546 23.711 0 42.936-33.927 42.936-65.546 0-65.54-85.863-65.67-85.863 0z" fill="url(#_Linear1)" fill-rule="nonzero"/><path d="M209.975 233.306c6.15 5.68 13.224 9.099 20.748 9.099 7.523 0 14.595-3.415 20.744-9.089 4.115 3.405 7.942 6.22 11.434 6.22 26.398 2.387 49.266 19.919 57.92 45.411l4.784 14.1a13.308 13.308 0 0 1-1.773 12.006 13.27 13.27 0 0 1-10.791 5.548H148.397a13.265 13.265 0 0 1-10.782-5.548 13.308 13.308 0 0 1-1.781-12.006l4.784-14.096c8.654-25.496 31.522-43.028 57.936-45.415 3.493 0 7.313-2.82 11.421-6.23z" fill="url(#_Linear2)" fill-rule="nonzero"/><circle cx="231.29" cy="168.297" r="37.017" fill="url(#_Linear3)"/><ellipse cx="231.493" cy="38.712" rx="24.598" ry="24.156" fill="#0bbc00"/><path d="M230.526 16.953c2.727.191 3.933 5.224-.687 5.367-5.56.228-10.763 3.579-13.391 8.622 0 0-.633 1.076-1.699 1.354-2.151.563-4.193-1.871-2.63-4.612 3.702-6.499 10.626-10.894 18.407-10.731zm-18.417 17.615c1.589.094 2.598 1.579 2.535 3.374-.081 2.919 2.286 6.168.097 8.311-2.203 2.156-5.566-1.475-5.463-8.129.027-1.748.851-3.609 2.831-3.556z" fill="#fff" fill-opacity=".451" fill-rule="nonzero"/><ellipse cx="371.942" cy="107.616" rx="24.598" ry="24.156" fill="#0bbc00"/><path d="M370.972 85.856c2.673.184 4.05 5.216-.684 5.368-5.556.221-10.77 3.586-13.39 8.621 0 0-3.621 3.121-4.891-.307-.706-1.906 1.144-4.199 2.808-6.173 3.983-4.725 9.707-7.635 16.157-7.509zm-18.415 17.616c1.598.094 2.6 1.589 2.536 3.374-.081 2.919 2.287 6.168.097 8.311-2.203 2.157-5.566-1.474-5.462-8.13.027-1.797.976-3.604 2.829-3.555z" fill="#fff" fill-opacity=".451" fill-rule="nonzero"/><ellipse cx="81.522" cy="107.616" rx="24.598" ry="24.156" fill="#0bbc00"/><path d="M80.551 85.856c2.779.192 3.958 5.219-.684 5.368-5.548.22-10.763 3.58-13.39 8.622 0 0-.634 1.076-1.699 1.354-2.152.563-4.194-1.866-2.631-4.612 3.702-6.502 10.665-10.884 18.404-10.732zm-18.413 17.616c1.598.095 2.597 1.595 2.535 3.374-.081 2.918 2.286 6.168.097 8.311-2.204 2.157-5.568-1.474-5.463-8.13.028-1.8.978-3.605 2.831-3.555z" fill="#fff" fill-opacity=".451" fill-rule="nonzero"/><ellipse cx="39.466" cy="260.472" rx="24.598" ry="24.156" fill="#0bbc00"/><path d="M38.499 238.713c2.727.191 3.933 5.224-.687 5.367-5.55.227-10.763 3.579-13.391 8.622 0 0-.633 1.076-1.698 1.354-2.152.563-4.193-1.871-2.631-4.612 3.707-6.507 10.626-10.894 18.407-10.731zm-18.416 17.615c1.597.095 2.597 1.594 2.534 3.374-.073 2.647 1.84 5.389.568 7.691-1.55 2.809-6.055.299-5.934-7.51.028-1.798.978-3.604 2.832-3.555z" fill="#fff" fill-opacity=".451" fill-rule="nonzero"/><ellipse cx="405.269" cy="260.472" rx="24.598" ry="24.156" fill="#0bbc00"/><path d="M404.302 238.713c2.845.199 3.676 5.232-.687 5.367-5.55.227-10.763 3.579-13.391 8.622 0 0-.633 1.076-1.698 1.354-2.152.563-4.193-1.871-2.631-4.612 3.707-6.507 10.626-10.894 18.407-10.731zm-18.416 17.615c1.597.095 2.597 1.594 2.534 3.374-.073 2.647 1.84 5.389.568 7.691-1.55 2.809-6.057.301-5.933-7.51.028-1.8.977-3.604 2.831-3.555z" fill="#fff" fill-opacity=".451" fill-rule="nonzero"/><defs><linearGradient gradientTransform="rotate(90 37.887 172.516) scale(289.375)" gradientUnits="userSpaceOnUse" id="_Linear1" x2="1"><stop offset="0" stop-color="#70d1ff"/><stop offset="1" stop-color="#009dff"/></linearGradient><linearGradient gradientTransform="rotate(-90 254.085 49.82) scale(83.3678)" gradientUnits="userSpaceOnUse" id="_Linear2" x2="1"><stop offset="0" stop-color="#70d1ff"/><stop offset="1" stop-color="#009dff"/></linearGradient><linearGradient gradientTransform="rotate(91.546 53.274 179.246) scale(62.03727)" gradientUnits="userSpaceOnUse" id="_Linear3" x2="1"><stop offset="0" stop-color="#fff" stop-opacity=".459"/><stop offset="1" stop-color="#fff" stop-opacity="0"/></linearGradient></defs></svg>