<svg viewBox="0 0 128 128" height="200" width="200" xmlns="http://www.w3.org/2000/svg"><circle cx="64" cy="64" fill="#4B5F83" r="64"/><path d="M34 84h10v3H34zm49.9 0h10v3h-10z" fill="#22313F"/><path fill="#E6E6E6" d="M34 61h60v3H34z"/><path d="M95 84H33c-2.2 0-4-1.8-4-4V68c0-2.2 1.8-4 4-4h62c2.2 0 4 1.8 4 4v12c0 2.2-1.8 4-4 4z" fill="#FFF"/><circle cx="90.9" cy="74" fill="#26A65B" r="3"/><circle cx="81.9" cy="74" fill="#CF000F" r="3"/><path d="M34 69h3v10h-3zm6 0h3v10h-3zm6 0h3v10h-3z" fill="#E6E6E6"/><path d="M95 61H33c-2.2 0-4-1.8-4-4V45c0-2.2 1.8-4 4-4h62c2.2 0 4 1.8 4 4v12c0 2.2-1.8 4-4 4z" fill="#FFF"/><circle cx="90.9" cy="51" fill="#26A65B" r="3"/><circle cx="81.9" cy="51" fill="#CF000F" r="3"/><path d="M34 46h3v10h-3zm6 0h3v10h-3zm6 0h3v10h-3z" fill="#E6E6E6"/></svg>