<svg xmlns="http://www.w3.org/2000/svg" width="73" height="79.322" viewBox="0 0 73 79.322">
  <g id="Group_19335" data-name="Group 19335" transform="translate(-20.401)">
    <path id="Path_73546" data-name="Path 73546" d="M78.269,23.132H74.906a24.794,24.794,0,0,0-2.273-5.447L75,15.339a2.441,2.441,0,0,0,0-3.465l-6.26-6.219a2.441,2.441,0,0,0-3.442,0L62.911,8.025a25.172,25.172,0,0,0-5.48-2.258V2.442A2.442,2.442,0,0,0,54.99,0H46.123a2.442,2.442,0,0,0-2.442,2.442V5.767A25.19,25.19,0,0,0,38.2,8.025L35.815,5.655a2.442,2.442,0,0,0-3.442,0l-6.26,6.219a2.443,2.443,0,0,0,0,3.465l2.363,2.346A24.957,24.957,0,0,0,26.2,23.132h-3.36A2.441,2.441,0,0,0,20.4,25.574v8.775a2.442,2.442,0,0,0,2.442,2.442H26.2a24.953,24.953,0,0,0,2.274,5.445l-2.363,2.346a2.443,2.443,0,0,0,0,3.465l6.26,6.219a2.441,2.441,0,0,0,3.442,0L38.2,51.9a25.372,25.372,0,0,0,5.483,2.261v3.324a2.447,2.447,0,0,0,2.442,2.442H54.99a2.442,2.442,0,0,0,2.442-2.442V54.157a25.359,25.359,0,0,0,5.48-2.261l2.374,2.358.011.011a2.442,2.442,0,0,0,3.442,0l3.176-3.154L75,48.047a2.44,2.44,0,0,0,0-3.465l-2.363-2.346a24.782,24.782,0,0,0,2.273-5.445H78.27a2.44,2.44,0,0,0,2.442-2.442V25.574a2.441,2.441,0,0,0-2.442-2.442ZM50.556,41.168A11.027,11.027,0,0,1,49.3,41.1a11.263,11.263,0,1,1,1.259.07Z" fill="#3c6eaa"/>
    <path id="Path_73547" data-name="Path 73547" d="M210.993,203.393l-.323.322q-.313-.135-.631-.259v-.414a4.821,4.821,0,0,0-4.816-4.816h-6.756a4.822,4.822,0,0,0-4.816,4.816v.414q-.317.125-.631.259l-.323-.32a4.807,4.807,0,0,0-.8-.642,11.24,11.24,0,0,1-9.92,5.931,11.026,11.026,0,0,1-1.259-.07,4.814,4.814,0,0,0,.424,6.351l.289.287q-.128.3-.25.6h-.45a4.822,4.822,0,0,0-4.816,4.816v6.146a2.417,2.417,0,0,0,1.629.626h8.867A2.442,2.442,0,0,0,188.851,225v-3.323a25.358,25.358,0,0,0,5.48-2.261l2.374,2.358a5.625,5.625,0,0,1,6.629-3.143l3.082-3.064a2.44,2.44,0,0,0,0-3.465l-2.363-2.346a24.783,24.783,0,0,0,2.273-5.445h3.363a2.442,2.442,0,0,0,2.322-1.685,4.778,4.778,0,0,0-1.018.772Z" transform="translate(-131.419 -167.516)" fill="#365889"/>
    <path id="Path_73548" data-name="Path 73548" d="M119.67,80.532a17.483,17.483,0,0,0-.862,34.945q.429.022.862.021a17.482,17.482,0,0,0,17.467-16.733c.011-.248.016-.5.016-.749A17.483,17.483,0,0,0,119.67,80.532Zm9.879,22.833a11.234,11.234,0,0,1-9.879,5.859,10.981,10.981,0,0,1-1.258-.07h0a11.217,11.217,0,1,1,11.179-5.861C129.577,103.317,129.562,103.342,129.548,103.365Z" transform="translate(-69.114 -68.056)" fill="#ffcb39"/>
    <path id="Path_73549" data-name="Path 73549" d="M219.219,198.224a4.822,4.822,0,0,0-4.816,4.816v.414q-.317.125-.631.259l-.323-.32a4.808,4.808,0,0,0-.8-.642c-.013.025-.028.049-.041.072a11.234,11.234,0,0,1-9.879,5.859,10.979,10.979,0,0,1-1.258-.07h0a4.812,4.812,0,0,0,.4,6.324q.429.022.862.021a17.482,17.482,0,0,0,17.467-16.733h-.975Z" transform="translate(-152.172 -167.514)" fill="#efb82e"/>
    <path id="Path_73550" data-name="Path 73550" d="M240.945,243.479v-6.686a1.861,1.861,0,0,0-1.861-1.861h-2.562a18.893,18.893,0,0,0-1.732-4.149l1.8-1.788a1.86,1.86,0,0,0,0-2.64l-4.769-4.739a1.86,1.86,0,0,0-2.622,0l-1.818,1.806a19.152,19.152,0,0,0-4.175-1.719v-2.534a1.861,1.861,0,0,0-1.861-1.86h-6.756a1.861,1.861,0,0,0-1.86,1.86V221.7a19.179,19.179,0,0,0-4.177,1.719l-1.816-1.8a1.86,1.86,0,0,0-2.623,0l-4.769,4.738a1.86,1.86,0,0,0,0,2.64l1.8,1.788a18.991,18.991,0,0,0-1.733,4.149h-2.56a1.861,1.861,0,0,0-1.86,1.86v6.686a1.861,1.861,0,0,0,1.86,1.86h2.56a19,19,0,0,0,1.733,4.149l-1.8,1.788a1.86,1.86,0,0,0,0,2.64l4.768,4.737a1.86,1.86,0,0,0,2.623,0l1.816-1.805a19.27,19.27,0,0,0,4.177,1.723V261.1a1.861,1.861,0,0,0,1.86,1.861h6.756a1.861,1.861,0,0,0,1.861-1.861v-2.532a19.255,19.255,0,0,0,4.175-1.723l1.818,1.806a1.861,1.861,0,0,0,2.622,0l4.769-4.737a1.86,1.86,0,0,0,0-2.64l-1.8-1.788a18.911,18.911,0,0,0,1.732-4.149h2.562a1.861,1.861,0,0,0,1.86-1.861Zm-22.976,5.2a8.54,8.54,0,1,1,8.566-8.54A8.554,8.554,0,0,1,217.969,248.675Z" transform="translate(-147.543 -183.642)" fill="#4e8ad1"/>
    <path id="Path_73551" data-name="Path 73551" d="M270.628,278.664a13.321,13.321,0,1,0,13.32,13.322A13.322,13.322,0,0,0,270.628,278.664Zm0,21.862a8.54,8.54,0,1,1,8.566-8.54A8.554,8.554,0,0,1,270.628,300.526Z" transform="translate(-200.202 -235.492)" fill="#efeadd"/>
  </g>
</svg>
