<svg xmlns="http://www.w3.org/2000/svg" width="85.333" height="80" viewBox="0 0 85.333 80">
  <g id="Group_19348" data-name="Group 19348" transform="translate(0 -16)">
    <circle id="Ellipse_65" data-name="Ellipse 65" cx="17.333" cy="17.333" r="17.333" transform="translate(25.333 16)" fill="#6ed5a1"/>
    <path id="Path_73580" data-name="Path 73580" d="M200.627,36.835a17.334,17.334,0,0,1-23.566,25.146,17.334,17.334,0,1,0,23.566-25.146Z" transform="translate(-147.551 -17.362)" fill="#46cc8d"/>
    <path id="Path_73581" data-name="Path 73581" d="M352,300c0,3.314-7.164,6-16,6s-16-2.686-16-6V268c0,3.314,32,3.314,32,0Z" transform="translate(-266.667 -210)" fill="#b3dafe"/>
    <ellipse id="Ellipse_66" data-name="Ellipse 66" cx="16" cy="6" rx="16" ry="6" transform="translate(53.333 52)" fill="#d8ecfe"/>
    <g id="Group_19345" data-name="Group 19345" transform="translate(57.378 66.083)">
      <path id="Path_73582" data-name="Path 73582" d="M353.56,320.941q-.047,0-.094,0c-5.135-.369-7.822-1.641-8.523-2.022a1.288,1.288,0,1,1,1.23-2.263,20.421,20.421,0,0,0,7.477,1.716,1.288,1.288,0,0,1-.091,2.572Zm0,10.669q-.047,0-.094,0c-5.135-.369-7.822-1.641-8.523-2.022a1.288,1.288,0,1,1,1.23-2.263,20.421,20.421,0,0,0,7.477,1.716,1.288,1.288,0,0,1-.091,2.572Zm0,10.653q-.047,0-.094,0c-5.135-.369-7.822-1.641-8.523-2.022a1.288,1.288,0,1,1,1.23-2.263,20.419,20.419,0,0,0,7.477,1.716,1.288,1.288,0,0,1-.091,2.572Z" transform="translate(-344.271 -316.496)" fill="#60b7ff"/>
    </g>
    <g id="Group_19346" data-name="Group 19346" transform="translate(53.333 67.371)">
      <path id="Path_73583" data-name="Path 73583" d="M352,334.892c0,1.579-1.708,3.126-4.686,4.243a37.3,37.3,0,0,1-22.627,0c-2.978-1.117-4.686-2.663-4.686-4.243v4.624a14.273,14.273,0,0,0,3.782,2.03,39.808,39.808,0,0,0,24.436,0,14.279,14.279,0,0,0,3.782-2.03Zm-28.218-4.013a39.808,39.808,0,0,0,24.436,0,14.279,14.279,0,0,0,3.782-2.03v-4.624c0,1.579-1.708,3.126-4.686,4.243a37.3,37.3,0,0,1-22.627,0c-2.978-1.117-4.686-2.663-4.686-4.243v4.624A14.274,14.274,0,0,0,323.782,330.879Z" transform="translate(-320 -324.225)" fill="#8ac9fe"/>
    </g>
    <circle id="Ellipse_67" data-name="Ellipse 67" cx="1.288" cy="1.288" r="1.288" transform="translate(78.712 66.141)" fill="#26a6fe"/>
    <circle id="Ellipse_68" data-name="Ellipse 68" cx="1.288" cy="1.288" r="1.288" transform="translate(73.379 67.637)" fill="#26a6fe"/>
    <circle id="Ellipse_69" data-name="Ellipse 69" cx="1.288" cy="1.288" r="1.288" transform="translate(78.712 76.81)" fill="#26a6fe"/>
    <circle id="Ellipse_70" data-name="Ellipse 70" cx="1.288" cy="1.288" r="1.288" transform="translate(73.379 78.305)" fill="#26a6fe"/>
    <circle id="Ellipse_71" data-name="Ellipse 71" cx="1.288" cy="1.288" r="1.288" transform="translate(78.712 87.462)" fill="#26a6fe"/>
    <circle id="Ellipse_72" data-name="Ellipse 72" cx="1.288" cy="1.288" r="1.288" transform="translate(73.379 88.958)" fill="#26a6fe"/>
    <path id="Path_73584" data-name="Path 73584" d="M140.888,122.5h-2.007a.215.215,0,0,1-.215-.215V112a5.151,5.151,0,0,0-5.151-5.151H85.151A5.151,5.151,0,0,0,80,112v19.707h5.333V113.041a.858.858,0,0,1,.859-.858h46.283a.858.858,0,0,1,.858.859v9.247a.215.215,0,0,1-.215.215h-2.007a.215.215,0,0,0-.167.349l4.888,6.109a.215.215,0,0,0,.335,0l4.888-6.108A.215.215,0,0,0,140.888,122.5Z" transform="translate(-66.667 -75.708)" fill="#26a6fe"/>
    <path id="Path_73585" data-name="Path 73585" d="M32,300c0,3.314-7.163,6-16,6s-16-2.686-16-6V268c0,3.314,32,3.314,32,0Z" transform="translate(0 -210)" fill="#b3dafe"/>
    <ellipse id="Ellipse_73" data-name="Ellipse 73" cx="16" cy="6" rx="16" ry="6" transform="translate(0 52)" fill="#d8ecfe"/>
    <path id="Path_73586" data-name="Path 73586" d="M33.56,320.941q-.047,0-.094,0c-5.135-.369-7.822-1.641-8.523-2.022a1.288,1.288,0,1,1,1.23-2.263,20.421,20.421,0,0,0,7.477,1.716,1.288,1.288,0,0,1-.091,2.572Zm0,10.669q-.047,0-.094,0c-5.135-.369-7.822-1.641-8.523-2.022a1.288,1.288,0,1,1,1.23-2.263,20.421,20.421,0,0,0,7.477,1.716,1.288,1.288,0,0,1-.091,2.572Zm0,10.653q-.047,0-.094,0c-5.135-.369-7.822-1.641-8.523-2.022a1.288,1.288,0,1,1,1.23-2.263,20.419,20.419,0,0,0,7.477,1.716,1.288,1.288,0,0,1-.091,2.572Z" transform="translate(-20.225 -250.413)" fill="#60b7ff"/>
    <g id="Group_19347" data-name="Group 19347" transform="translate(0 67.371)">
      <path id="Path_73587" data-name="Path 73587" d="M32,334.892c0,1.579-1.708,3.126-4.686,4.243A33.391,33.391,0,0,1,16,340.892a33.391,33.391,0,0,1-11.314-1.757C1.708,338.018,0,336.471,0,334.892v4.624a14.273,14.273,0,0,0,3.782,2.03A35.993,35.993,0,0,0,16,343.467a35.993,35.993,0,0,0,12.218-1.921A14.279,14.279,0,0,0,32,339.515ZM3.782,330.879A35.993,35.993,0,0,0,16,332.8a35.993,35.993,0,0,0,12.218-1.921A14.279,14.279,0,0,0,32,328.849v-4.624c0,1.579-1.708,3.126-4.686,4.243A33.391,33.391,0,0,1,16,330.225a33.391,33.391,0,0,1-11.314-1.757C1.708,327.351,0,325.8,0,324.225v4.624A14.274,14.274,0,0,0,3.782,330.879Z" transform="translate(0 -324.225)" fill="#8ac9fe"/>
    </g>
    <circle id="Ellipse_74" data-name="Ellipse 74" cx="1.288" cy="1.288" r="1.288" transform="translate(25.379 66.141)" fill="#26a6fe"/>
    <circle id="Ellipse_75" data-name="Ellipse 75" cx="1.288" cy="1.288" r="1.288" transform="translate(20.046 67.637)" fill="#26a6fe"/>
    <circle id="Ellipse_76" data-name="Ellipse 76" cx="1.288" cy="1.288" r="1.288" transform="translate(25.379 76.81)" fill="#26a6fe"/>
    <circle id="Ellipse_77" data-name="Ellipse 77" cx="1.288" cy="1.288" r="1.288" transform="translate(20.046 78.305)" fill="#26a6fe"/>
    <circle id="Ellipse_78" data-name="Ellipse 78" cx="1.288" cy="1.288" r="1.288" transform="translate(25.379 87.462)" fill="#26a6fe"/>
    <circle id="Ellipse_79" data-name="Ellipse 79" cx="1.288" cy="1.288" r="1.288" transform="translate(20.046 88.958)" fill="#26a6fe"/>
  </g>
</svg>
