<svg xmlns="http://www.w3.org/2000/svg" viewBox="0 0 59 59"><path d="M54.392 19H3.608A3.609 3.609 0 0 1 0 15.392V3.608A3.609 3.609 0 0 1 3.608 0h50.783A3.609 3.609 0 0 1 58 3.608v11.783A3.609 3.609 0 0 1 54.392 19z" fill="#556080"/><path d="M54.392 38H3.608A3.609 3.609 0 0 1 0 34.392V22.608A3.609 3.609 0 0 1 3.608 19h50.783A3.609 3.609 0 0 1 58 22.608v11.783A3.609 3.609 0 0 1 54.392 38z" fill="#38454f"/><path d="M54.392 57H3.608A3.609 3.609 0 0 1 0 53.392V41.608A3.609 3.609 0 0 1 3.608 38h50.783A3.609 3.609 0 0 1 58 41.608v11.783A3.609 3.609 0 0 1 54.392 57z" fill="#556080"/><circle cx="9.5" cy="9.5" r="3.5" fill="#8697cb"/><circle cx="49" cy="8" r="1" fill="#8697cb"/><circle cx="45" cy="8" r="1" fill="#8697cb"/><circle cx="51" cy="11" r="1" fill="#8697cb"/><circle cx="47" cy="11" r="1" fill="#8697cb"/><circle cx="41" cy="8" r="1" fill="#8697cb"/><circle cx="43" cy="11" r="1" fill="#8697cb"/><circle cx="37" cy="8" r="1" fill="#8697cb"/><circle cx="39" cy="11" r="1" fill="#8697cb"/><circle cx="33" cy="8" r="1" fill="#8697cb"/><circle cx="35" cy="11" r="1" fill="#8697cb"/><circle cx="9.5" cy="28.5" r="3.5" fill="#8697cb"/><circle cx="49" cy="27" r="1" fill="#8697cb"/><circle cx="45" cy="27" r="1" fill="#8697cb"/><circle cx="51" cy="30" r="1" fill="#8697cb"/><circle cx="47" cy="30" r="1" fill="#8697cb"/><circle cx="41" cy="27" r="1" fill="#8697cb"/><circle cx="43" cy="30" r="1" fill="#8697cb"/><circle cx="37" cy="27" r="1" fill="#8697cb"/><circle cx="39" cy="30" r="1" fill="#8697cb"/><circle cx="33" cy="27" r="1" fill="#8697cb"/><circle cx="35" cy="30" r="1" fill="#8697cb"/><circle cx="9.5" cy="47.5" r="3.5" fill="#8697cb"/><circle cx="49" cy="46" r="1" fill="#8697cb"/><circle cx="45" cy="46" r="1" fill="#8697cb"/><circle cx="51" cy="49" r="1" fill="#8697cb"/><circle cx="47" cy="49" r="1" fill="#8697cb"/><circle cx="41" cy="46" r="1" fill="#8697cb"/><circle cx="43" cy="49" r="1" fill="#8697cb"/><circle cx="37" cy="46" r="1" fill="#8697cb"/><circle cx="39" cy="49" r="1" fill="#8697cb"/><circle cx="33" cy="46" r="1" fill="#8697cb"/><circle cx="35" cy="49" r="1" fill="#8697cb"/><path fill="#eddcc7" d="M37.566 49.507l-.007.008-1.988 7.289 4.646-4.646z"/><path d="M56.816 35.559l-1.247-1.247a1.985 1.985 0 0 0-2.807 0l-3.582 3.582 2.651 2.651 4.985-4.986z" fill="#d75a4a"/><path fill="#f29c21" d="M49.18 37.893l2.65 2.651-11.613 11.613-2.65-2.65z"/><path fill="#d6c4b1" d="M43.216 55.172l.007-.008-3.006-3.006-4.646 4.646-.134.489z"/><path d="M54.837 43.55l3.582-3.582a1.985 1.985 0 0 0 0-2.807l-1.602-1.602-4.985 4.985 3.005 3.006z" fill="#a34740"/><path fill="#e18c25" d="M43.223 55.165l-3.006-3.006 11.614-11.614 3.005 3.006z"/><path d="M34.73 59a.999.999 0 0 1-.707-1.707l2.207-2.207a.999.999 0 1 1 1.414 1.414l-2.207 2.207a.997.997 0 0 1-.707.293z" fill="#5e5e5e"/></svg>