<svg xmlns="http://www.w3.org/2000/svg" viewBox="0 0 59 59"><path d="M54.892 19H4.108A3.609 3.609 0 0 1 .5 15.392V3.608A3.609 3.609 0 0 1 4.108 0h50.783A3.609 3.609 0 0 1 58.5 3.608v11.783A3.609 3.609 0 0 1 54.892 19z" fill="#556080"/><path d="M54.892 38H4.108A3.609 3.609 0 0 1 .5 34.392V22.608A3.609 3.609 0 0 1 4.108 19h50.783a3.608 3.608 0 0 1 3.608 3.608v11.783A3.608 3.608 0 0 1 54.892 38z" fill="#38454f"/><path d="M54.892 57H4.108A3.609 3.609 0 0 1 .5 53.392V41.608A3.609 3.609 0 0 1 4.108 38h50.783a3.608 3.608 0 0 1 3.608 3.608v11.783A3.608 3.608 0 0 1 54.892 57z" fill="#556080"/><circle cx="10" cy="9.5" r="3.5" fill="#8697cb"/><circle cx="49.5" cy="8" r="1" fill="#8697cb"/><circle cx="45.5" cy="8" r="1" fill="#8697cb"/><circle cx="51.5" cy="11" r="1" fill="#8697cb"/><circle cx="47.5" cy="11" r="1" fill="#8697cb"/><circle cx="41.5" cy="8" r="1" fill="#8697cb"/><circle cx="43.5" cy="11" r="1" fill="#8697cb"/><circle cx="37.5" cy="8" r="1" fill="#8697cb"/><circle cx="39.5" cy="11" r="1" fill="#8697cb"/><circle cx="33.5" cy="8" r="1" fill="#8697cb"/><circle cx="35.5" cy="11" r="1" fill="#8697cb"/><circle cx="10" cy="28.5" r="3.5" fill="#8697cb"/><circle cx="49.5" cy="27" r="1" fill="#8697cb"/><circle cx="45.5" cy="27" r="1" fill="#8697cb"/><circle cx="51.5" cy="30" r="1" fill="#8697cb"/><circle cx="47.5" cy="30" r="1" fill="#8697cb"/><circle cx="41.5" cy="27" r="1" fill="#8697cb"/><circle cx="43.5" cy="30" r="1" fill="#8697cb"/><circle cx="37.5" cy="27" r="1" fill="#8697cb"/><circle cx="39.5" cy="30" r="1" fill="#8697cb"/><circle cx="33.5" cy="27" r="1" fill="#8697cb"/><circle cx="35.5" cy="30" r="1" fill="#8697cb"/><circle cx="10" cy="47.5" r="3.5" fill="#8697cb"/><circle cx="49.5" cy="46" r="1" fill="#8697cb"/><circle cx="45.5" cy="46" r="1" fill="#8697cb"/><circle cx="51.5" cy="49" r="1" fill="#8697cb"/><circle cx="47.5" cy="49" r="1" fill="#8697cb"/><circle cx="41.5" cy="46" r="1" fill="#8697cb"/><circle cx="43.5" cy="49" r="1" fill="#8697cb"/><circle cx="37.5" cy="46" r="1" fill="#8697cb"/><circle cx="39.5" cy="49" r="1" fill="#8697cb"/><circle cx="33.5" cy="46" r="1" fill="#8697cb"/><circle cx="35.5" cy="49" r="1" fill="#8697cb"/><path d="M53.545 48.111C53.494 44.175 50.382 41 46.546 41c-2.568 0-4.806 1.426-6.025 3.546a4.201 4.201 0 0 0-1.337-.22c-2.063 0-3.785 1.492-4.208 3.484A5.382 5.382 0 0 0 32 52.641C32 55.589 34.343 58 37.208 58h10.775c.061 0 .119-.007.18-.009.06.002.119.009.18.009h4.31c2.667 0 4.849-2.245 4.849-4.989-.002-2.43-1.714-4.465-3.957-4.9z" fill="#48a0dc"/><path d="M52.651 59h-4.31c-.063 0-.126-.004-.188-.008a2.05 2.05 0 0 1-.171.008H37.208C33.785 59 31 56.147 31 52.642c0-2.262 1.209-4.372 3.116-5.503.686-2.235 2.746-3.813 5.066-3.813.296 0 .592.025.884.076C41.562 41.286 43.98 40 46.546 40c4.102 0 7.524 3.225 7.954 7.332 2.358.806 4 3.079 4 5.679 0 3.302-2.624 5.989-5.849 5.989zm-4.537-2.009l.186.006 4.351.003c2.122 0 3.849-1.79 3.849-3.989 0-1.917-1.323-3.564-3.146-3.919l-.799-.155-.011-.813C52.501 44.747 49.811 42 46.546 42c-2.135 0-4.063 1.139-5.158 3.045l-.409.711-.777-.261a3.184 3.184 0 0 0-1.019-.169c-1.54 0-2.898 1.133-3.229 2.692l-.102.475-.435.214C33.948 49.432 33 50.976 33 52.642 33 55.045 34.888 57 37.208 57l10.906-.009z" fill="#b1d3ef"/></svg>