<svg xmlns="http://www.w3.org/2000/svg" width="80" height="80" viewBox="0 0 80 80">
  <g id="Group_19344" data-name="Group 19344" transform="translate(0.002 -0.002)">
    <g id="Group_19343" data-name="Group 19343" transform="translate(-0.002 0.002)">
      <path id="Path_73567" data-name="Path 73567" d="M46.017,96.9c0-3.145-7.534-5.694-16.827-5.694S12.362,93.756,12.362,96.9v41.2c0,7.46,33.655,7.46,33.655,0Z" transform="translate(-10.487 -77.372)" fill="#ffe177" fill-rule="evenodd"/>
      <path id="Path_73568" data-name="Path 73568" d="M140.132,96.9c0-3.145-7.534-5.694-16.827-5.694V143.69c8.414,0,16.827-1.865,16.827-5.595Z" transform="translate(-103.882 -77.372)" fill="#ffd064" fill-rule="evenodd"/>
      <path id="Path_73569" data-name="Path 73569" d="M46.017,127.074v9.839c0,7.127-33.655,7.127-33.655,0v-9.839C12.362,134.2,46.017,134.2,46.017,127.074Z" transform="translate(-10.487 -107.078)" fill="#ffd064" fill-rule="evenodd"/>
      <path id="Path_73570" data-name="Path 73570" d="M140.132,127.074v9.839c0,3.564-8.414,5.345-16.827,5.345v-9.84C131.719,132.419,140.132,130.638,140.132,127.074Z" transform="translate(-103.882 -107.078)" fill="#ffc344" fill-rule="evenodd"/>
      <path id="Path_73571" data-name="Path 73571" d="M46.017,256.814v9.84c0,7.127-33.655,7.127-33.655,0v-9.84C12.362,263.941,46.017,263.941,46.017,256.814Z" transform="translate(-10.487 -216.402)" fill="#ffd064" fill-rule="evenodd"/>
      <path id="Path_73572" data-name="Path 73572" d="M140.132,256.814v9.84c0,3.564-8.414,5.345-16.827,5.345v-9.84C131.719,262.159,140.132,260.378,140.132,256.814Z" transform="translate(-103.882 -216.402)" fill="#ffc344" fill-rule="evenodd"/>
      <path id="Path_73573" data-name="Path 73573" d="M369.064,8h13.49a2.264,2.264,0,0,1,2.259,2.259V22.392a2.264,2.264,0,0,1-2.259,2.259h-13.49a2.264,2.264,0,0,1-2.259-2.259V10.261A2.264,2.264,0,0,1,369.064,8Z" transform="translate(-308.827 -6.789)" fill="#8ac9fe" fill-rule="evenodd"/>
      <path id="Path_73574" data-name="Path 73574" d="M426.169,8h6.745a2.264,2.264,0,0,1,2.259,2.259V22.391a2.264,2.264,0,0,1-2.259,2.259h-6.745Z" transform="translate(-359.187 -6.788)" fill="#60b7ff" fill-rule="evenodd"/>
      <path id="Path_73575" data-name="Path 73575" d="M369.064,201.117h13.49a2.264,2.264,0,0,1,2.259,2.259v12.131a2.264,2.264,0,0,1-2.259,2.259h-13.49a2.264,2.264,0,0,1-2.259-2.259V203.376A2.264,2.264,0,0,1,369.064,201.117Z" transform="translate(-308.827 -169.442)" fill="#8ac9fe" fill-rule="evenodd"/>
      <path id="Path_73576" data-name="Path 73576" d="M426.169,201.117h6.745a2.264,2.264,0,0,1,2.259,2.259v12.131a2.264,2.264,0,0,1-2.259,2.259h-6.745Z" transform="translate(-359.187 -169.442)" fill="#60b7ff" fill-rule="evenodd"/>
      <path id="Path_73577" data-name="Path 73577" d="M369.064,394.233h13.49a2.264,2.264,0,0,1,2.259,2.259v12.131a2.264,2.264,0,0,1-2.259,2.259h-13.49a2.264,2.264,0,0,1-2.259-2.259V396.492A2.264,2.264,0,0,1,369.064,394.233Z" transform="translate(-308.827 -332.096)" fill="#8ac9fe" fill-rule="evenodd"/>
      <path id="Path_73578" data-name="Path 73578" d="M426.169,394.233h6.745a2.264,2.264,0,0,1,2.259,2.259v12.131a2.264,2.264,0,0,1-2.259,2.259h-6.745Z" transform="translate(-359.187 -332.096)" fill="#60b7ff" fill-rule="evenodd"/>
      <path id="Path_73579" data-name="Path 73579" d="M35.4,60.753V54.191a15.434,15.434,0,0,1-3.942,1.631,48.124,48.124,0,0,1-12.51,1.453A48.135,48.135,0,0,1,6.44,55.822,15.427,15.427,0,0,1,2.5,54.191v6.562c0,2.111,6.611,4.372,16.451,4.372S35.4,62.864,35.4,60.753ZM2.5,50.4V43.841A15.422,15.422,0,0,0,6.44,45.472a48.2,48.2,0,0,0,12.51,1.453,48.191,48.191,0,0,0,12.51-1.453A15.428,15.428,0,0,0,35.4,43.841V50.4c0,2.112-6.612,4.372-16.452,4.372A46.308,46.308,0,0,1,7.12,53.416C4.226,52.6,2.5,51.472,2.5,50.4Zm0-10.35c0,2.111,6.611,4.373,16.451,4.373a46.277,46.277,0,0,0,11.83-1.359c2.893-.817,4.62-1.942,4.622-3.013V33.489a15.373,15.373,0,0,1-3.942,1.631,48.115,48.115,0,0,1-12.51,1.453A48.127,48.127,0,0,1,6.44,35.12,15.366,15.366,0,0,1,2.5,33.489v6.563Zm0-10.35V23.139A15.433,15.433,0,0,0,6.44,24.77c.847.239,1.766.45,2.746.633a49.569,49.569,0,0,0,9.764.92,49.589,49.589,0,0,0,9.764-.92c.978-.183,1.9-.394,2.745-.633A15.445,15.445,0,0,0,35.4,23.139V29.7c0,2.112-6.612,4.372-16.452,4.372A46.369,46.369,0,0,1,7.12,32.716C4.226,31.9,2.5,30.772,2.5,29.7Zm0-10.352v0c0,.967,2.172,2.451,6.392,3.442a50.842,50.842,0,0,0,10.059.93,48.855,48.855,0,0,0,10.3-.987c4.058-.991,6.147-2.436,6.149-3.384v0c0-1.561-5.65-4.472-16.452-4.472S2.5,17.789,2.5,19.35Zm35.4,0v41.4c0,2.389-2.167,4.213-6.442,5.42a48.2,48.2,0,0,1-12.51,1.452A48.208,48.208,0,0,1,6.44,66.174C2.165,64.966,0,63.142,0,60.753V19.35c0-4.576,9.534-6.972,18.952-6.972S37.9,14.774,37.9,19.35Zm14.816,21.9a1.25,1.25,0,0,0,0-2.5H47.545V10.867h5.172a1.25,1.25,0,0,0,0-2.5H46.3a1.251,1.251,0,0,0-1.25,1.25V38.752H42.008a1.25,1.25,0,1,0,0,2.5h3.037V70.386a1.25,1.25,0,0,0,1.25,1.25h6.422a1.25,1.25,0,0,0,0-2.5H47.545V41.252Zm25.19,23.939-7.731,7.017-2.705-2.7A1.25,1.25,0,0,0,65.7,71.271l3.546,3.547a1.249,1.249,0,0,0,1.723.041l3.413-3.1V77.5h-15.6V63.271H75.635a1.25,1.25,0,1,0,0-2.5h-18.1a1.25,1.25,0,0,0-1.25,1.25V78.752A1.25,1.25,0,0,0,57.539,80h18.1a1.25,1.25,0,0,0,1.25-1.25V69.494l2.7-2.453a1.25,1.25,0,1,0-1.681-1.85ZM57.539,49.617h18.1a1.25,1.25,0,0,0,1.25-1.25V39.131c0-.006,0-.014,0-.022l2.7-2.453a1.25,1.25,0,1,0-1.681-1.85l-7.731,7.016-2.705-2.7A1.251,1.251,0,0,0,65.7,40.886l3.546,3.547a1.249,1.249,0,0,0,1.723.041l3.413-3.1v5.739h-15.6V32.886H75.635a1.25,1.25,0,1,0,0-2.5h-18.1a1.25,1.25,0,0,0-1.25,1.25V48.367A1.25,1.25,0,0,0,57.539,49.617Zm-1.25-31.634V1.252A1.249,1.249,0,0,1,57.539,0h18.1a1.25,1.25,0,1,1,0,2.5H58.789V16.733h15.6V10.994l-3.413,3.1a1.241,1.241,0,0,1-.839.325,1.255,1.255,0,0,1-.885-.365L65.7,10.5a1.251,1.251,0,0,1,1.768-1.769l2.705,2.7,7.731-7.017a1.251,1.251,0,0,1,1.681,1.852l-2.7,2.453v9.258a1.25,1.25,0,0,1-1.25,1.25h-18.1a1.25,1.25,0,0,1-1.25-1.25Z" transform="translate(0.002 -0.002)" fill="#115baa" fill-rule="evenodd"/>
    </g>
  </g>
</svg>
