<svg xmlns="http://www.w3.org/2000/svg" xmlns:xlink="http://www.w3.org/1999/xlink" width="79.688" height="80" viewBox="0 0 79.688 80">
  <defs>
    <linearGradient id="linear-gradient" x1="0.5" y1="1" x2="0.5" gradientUnits="objectBoundingBox">
      <stop offset="0" stop-color="#ffc2cc"/>
      <stop offset="1" stop-color="#fff2f4"/>
    </linearGradient>
    <linearGradient id="linear-gradient-2" x1="0.5" y1="1" x2="0.5" gradientUnits="objectBoundingBox">
      <stop offset="0" stop-color="#fd3a84"/>
      <stop offset="1" stop-color="#ffa68d"/>
    </linearGradient>
  </defs>
  <g id="Group_19365" data-name="Group 19365" transform="translate(-1)">
    <path id="Path_73638" data-name="Path 73638" d="M119.594,56.719H63.344A2.342,2.342,0,0,0,61,59.063v9.531a2.342,2.342,0,0,0,2.344,2.344h56.25a2.342,2.342,0,0,0,2.344-2.344V59.063A2.342,2.342,0,0,0,119.594,56.719Zm0,28.281H63.344A2.342,2.342,0,0,0,61,87.344v9.531a2.342,2.342,0,0,0,2.344,2.344h56.25a2.342,2.342,0,0,0,2.344-2.344V87.344A2.342,2.342,0,0,0,119.594,85ZM91.469,101.563H68.031a4.688,4.688,0,0,0,0,9.375H91.469a4.688,4.688,0,0,0,0-9.375Zm14.063,0a4.688,4.688,0,1,0,4.688,4.688A4.692,4.692,0,0,0,105.531,101.563Zm9.375,0a4.688,4.688,0,1,0,4.688,4.688A4.692,4.692,0,0,0,114.906,101.563ZM91.469,82.656a4.688,4.688,0,0,0,0-9.375H68.031a4.688,4.688,0,0,0,0,9.375Zm18.75-4.687a4.688,4.688,0,1,0-4.687,4.688A4.692,4.692,0,0,0,110.219,77.969Zm4.688,4.688a4.688,4.688,0,1,0-4.687-4.687A4.692,4.692,0,0,0,114.906,82.656ZM68.031,54.375H91.469a4.688,4.688,0,0,0,0-9.375H68.031a4.688,4.688,0,0,0,0,9.375Zm37.5,0a4.688,4.688,0,1,0-4.687-4.687A4.692,4.692,0,0,0,105.531,54.375Zm9.375,0a4.688,4.688,0,1,0-4.687-4.687A4.692,4.692,0,0,0,114.906,54.375Z" transform="translate(-50.625 -37.969)" fill="url(#linear-gradient)"/>
    <path id="Path_73639" data-name="Path 73639" d="M73.656,56.563H8.031A7.039,7.039,0,0,0,1,63.594v9.375A7.039,7.039,0,0,0,8.031,80H73.656a7.039,7.039,0,0,0,7.031-7.031V63.594A7.039,7.039,0,0,0,73.656,56.563ZM40.844,70.625H17.406a2.344,2.344,0,0,1,0-4.687H40.844a2.344,2.344,0,0,1,0,4.688Zm14.063,0a2.344,2.344,0,1,1,2.344-2.344A2.344,2.344,0,0,1,54.906,70.625Zm9.375,0a2.344,2.344,0,1,1,2.344-2.344A2.344,2.344,0,0,1,64.281,70.625Zm9.375-42.344H8.031A7.039,7.039,0,0,0,1,35.313v9.375a7.039,7.039,0,0,0,7.031,7.031H73.656a7.039,7.039,0,0,0,7.031-7.031V35.313A7.039,7.039,0,0,0,73.656,28.281ZM40.844,42.344H17.406a2.344,2.344,0,0,1,0-4.687H40.844a2.344,2.344,0,0,1,0,4.688Zm14.063,0A2.344,2.344,0,1,1,57.25,40,2.344,2.344,0,0,1,54.906,42.344Zm9.375,0A2.344,2.344,0,1,1,66.625,40,2.344,2.344,0,0,1,64.281,42.344ZM73.656,0H8.031A7.039,7.039,0,0,0,1,7.031v9.375a7.039,7.039,0,0,0,7.031,7.031H73.656a7.039,7.039,0,0,0,7.031-7.031V7.031A7.039,7.039,0,0,0,73.656,0ZM40.844,14.063H17.406a2.344,2.344,0,0,1,0-4.687H40.844a2.344,2.344,0,0,1,0,4.688Zm14.063,0a2.344,2.344,0,1,1,2.344-2.344A2.344,2.344,0,0,1,54.906,14.063Zm9.375,0a2.344,2.344,0,1,1,2.344-2.344A2.344,2.344,0,0,1,64.281,14.063Z" fill="url(#linear-gradient-2)"/>
  </g>
</svg>
