<svg xmlns="http://www.w3.org/2000/svg" width="168.453" height="70" viewBox="0 0 168.453 70">
  <g id="Group_18985" data-name="Group 18985" transform="translate(14843 -3710)">
    <rect id="Rectangle_17936" data-name="Rectangle 17936" width="5.055" height="49.599" rx="0.28" transform="translate(-14800.155 3710)"/>
    <path id="Path_73201" data-name="Path 73201" d="M385.2,208.141a.225.225,0,0,0-.105.093.266.266,0,0,0-.042.143q0,8.632-.008,17.314a.272.272,0,0,1-.308.307h-4.423a.279.279,0,0,1-.316-.316V176.711a.186.186,0,0,1,.211-.211h4.634a.186.186,0,0,1,.211.211v30.541a.122.122,0,0,0,.211.084l16.555-16.682a.474.474,0,0,1,.354-.147h6.239q.265,0,.093.2-1.1,1.255-2.464,2.57-7.6,7.326-14.538,14.154a.23.23,0,0,0-.008.324l17.01,18.055a.11.11,0,0,1-.08.185l-6.239,0a1.247,1.247,0,0,1-.96-.425l-15.919-17.411A.092.092,0,0,0,385.2,208.141Z" transform="translate(-15083.122 3533.605)"/>
    <path id="Path_73202" data-name="Path 73202" d="M306.224,222.651q3.341,1.137,6.925,2.342c3.61,1.209,7.233,3.661,7.9,7.456a9.278,9.278,0,0,1-2.768,8.9c-3.9,3.686-10.658,4.04-15.755,2.755a16,16,0,0,1-8.071-5.16.249.249,0,0,1,.025-.4l3.484-3.071a.247.247,0,0,1,.4.03q5.421,6.47,13.969,4.183a4.848,4.848,0,0,0,3.657-5.106,5.932,5.932,0,0,0-4.053-4.663c-3.269-1.323-6.888-1.946-10.1-3.433q-7.355-3.408-5.245-11.53c.99-3.821,5.257-5.957,8.888-6.479,5.978-.855,11.45.632,15.456,5.358a.284.284,0,0,1-.029.442l-3.265,3a.3.3,0,0,1-.51-.042q-4.112-5.413-11.635-4.162a4.48,4.48,0,0,0-4.027,4.057C301.236,220.111,303.7,221.791,306.224,222.651Z" transform="translate(-15035.457 3516.467)"/>
    <path id="Path_73203" data-name="Path 73203" d="M68.95,244.347v17.8a.186.186,0,0,1-.211.211H64.211a.186.186,0,0,1-.211-.211V210.958a.133.133,0,0,1,.093-.126c5.106-1.613,11.248-2.464,16.56-1.458,9.44,1.786,15.035,9.2,14.605,18.767-.312,6.989-3.821,12.722-10.4,15.368a24.487,24.487,0,0,1-15.637.623Q68.95,244.06,68.95,244.347Zm19.909-22.377c-1.715-5.847-6.525-8.682-12.511-8.665a24.181,24.181,0,0,0-7.166,1.045.308.308,0,0,0-.232.32v24.5a.27.27,0,0,0,.194.274,18.635,18.635,0,0,0,10.687.88,11.7,11.7,0,0,0,9.453-9.946A17.821,17.821,0,0,0,88.859,221.969Z" transform="translate(-14907 3517.64)"/>
    <path id="Path_73204" data-name="Path 73204" d="M201.937,228.022c.27,6.546,3.914,12.12,10.843,12.68q7.048.569,11.462-4.069a.273.273,0,0,1,.451,0l2.683,2.827a.22.22,0,0,1,0,.341,16.231,16.231,0,0,1-9.167,4.95c-7.536,1.285-14.8-.569-18.868-7.418-2.532-4.267-3-9.546-2.216-14.533,1.045-6.652,5.219-12.187,12.115-13.459a18.786,18.786,0,0,1,10.249.754c7.081,2.675,9.171,10.283,8.96,17.423a.191.191,0,0,1-.215.206H202.223A.251.251,0,0,0,201.937,228.022Zm1.521-8.977a13.945,13.945,0,0,0-1.344,4.2q-.029.27.24.27h20.827a.208.208,0,0,0,.236-.244c-.219-7.174-5.291-10.616-12.12-9.9A9.276,9.276,0,0,0,203.458,219.045Z" transform="translate(-14980.934 3516.063)"/>
    <rect id="Rectangle_17937" data-name="Rectangle 17937" width="29.909" height="4.735" rx="0.31" transform="translate(-14812.995 3775.265)" fill="#53bce6"/>
  </g>
</svg>
