<svg xmlns="http://www.w3.org/2000/svg" width="189.729" height="125.145"><path fill="#16A550" d="M146.189 88.831h43.54l-9.552-15.951 9.552-12.714h-43.54z"/><path fill="#008234" d="M170.439 74.635l-20.384 14.193-.053-47.006 20.45-.036z"/><path fill="#16A550" d="M46.373 89.498H0l10.173-16.322L0 60.166h46.373z"/><path fill="#008234" d="M22.112 74.593l19.556 14.938.083-47.667h-19.5z"/><path fill="#334045" d="M41.691 31.288L95.881 0l54.19 31.288v62.569l-54.19 31.288-54.19-31.288z"/><path fill="#FFF" d="M46.081 33.678l50.05-28.897 50.05 28.897v57.789l-50.05 28.897-50.05-28.897z"/><path fill="#334045" d="M47.164 34.303L96.131 6.031l48.967 28.272v56.539l-48.967 28.272-48.967-28.272z"/><path fill="#334045" d="M95.881 0v125.145l54.19-31.288V31.288z" opacity=".3"/><path fill="#18B35C" d="M22.112 41.786h148.34v32.807H22.112z"/><path d="M100.499 96.04l-4.812-2.849-4.806 2.854 1.222-5.456-4.199-3.691 5.566-.523 2.214-5.133 2.217 5.131 5.566.518-4.196 3.695zm14.147-2.013l-3.502-2.072-3.498 2.076.889-3.971-3.056-2.686 4.052-.381 1.611-3.736 1.613 3.734 4.05.378-3.053 2.689zm10.829-1.566l-2.484-1.469-2.479 1.471.63-2.814-2.166-1.904 2.872-.271 1.142-2.649 1.146 2.649 2.87.267-2.165 1.906zm-54.611 0l-2.483-1.469-2.479 1.471.631-2.814-2.168-1.904 2.873-.271 1.142-2.649 1.144 2.649 2.872.267-2.166 1.906zm12.553 1.566l-3.5-2.072-3.499 2.076.889-3.971-3.055-2.686 4.051-.381 1.611-3.736 1.612 3.734 4.051.378-3.054 2.689z" fill="#FFF"/><text transform="translate(31.293 67.05)" fill="#FFF" font-family="'Oswald-Regular'" font-size="22">Recommended</text></svg>