<svg xmlns="http://www.w3.org/2000/svg" height="512" viewBox="0 -31 512 511" width="512"><path d="M370.324 8.074h-228.23c-6.973 0-12.68 5.703-12.68 12.68v174.34c0 6.972 5.707 12.68 12.68 12.68h228.23c6.973 0 12.68-5.708 12.68-12.68V20.754c0-6.977-5.707-12.68-12.68-12.68zm0 0" fill="#54a0ff" data-original="#54A0FF"/><path d="M318.2 334.566H194.222c-3.79 0-6.887 3.098-6.887 6.887v94.703c0 3.79 3.098 6.887 6.887 6.887h123.976c3.785 0 6.887-3.098 6.887-6.887v-94.703c0-3.789-3.102-6.887-6.887-6.887zm0 0" fill="#feca57" data-original="#FECA57"/><path d="M497.82 334.566H373.844c-3.785 0-6.887 3.098-6.887 6.887v94.703c0 3.79 3.102 6.887 6.887 6.887H497.82c3.79 0 6.887-3.098 6.887-6.887v-94.703c0-3.789-3.098-6.887-6.887-6.887zm0 0" fill="#1dd1a1" data-original="#1DD1A1"/><path d="M138.574 334.566H14.598c-3.79 0-6.887 3.098-6.887 6.887v94.703c0 3.79 3.098 6.887 6.887 6.887h123.976c3.79 0 6.887-3.098 6.887-6.887v-94.703c0-3.789-3.098-6.887-6.887-6.887zm0 0" fill="#ff6b6b" data-original="#FF6B6B"/><path d="M159.465 195.094V20.754c0-6.977 5.707-12.68 12.68-12.68h-30.051c-6.973 0-12.68 5.703-12.68 12.68v174.34c0 6.972 5.707 12.68 12.68 12.68h30.05c-6.972 0-12.68-5.708-12.68-12.68zm0 0" fill="#338def" data-original="#338DEF"/><path d="M217.383 436.156v-94.703c0-3.789 3.097-6.887 6.887-6.887h-30.047c-3.79 0-6.887 3.098-6.887 6.887v94.703c0 3.79 3.098 6.887 6.887 6.887h30.047c-3.79 0-6.887-3.098-6.887-6.887zm0 0" fill="#f4b537" data-original="#F4B537"/><path d="M397.008 436.156v-94.703c0-3.789 3.097-6.887 6.887-6.887h-30.051c-3.785 0-6.887 3.098-6.887 6.887v94.703c0 3.79 3.102 6.887 6.887 6.887h30.05c-3.789 0-6.886-3.098-6.886-6.887zm0 0" fill="#15ba8b" data-original="#15BA8B"/><path d="M37.758 436.156v-94.703c0-3.789 3.101-6.887 6.887-6.887H14.598c-3.79 0-6.887 3.098-6.887 6.887v94.703c0 3.79 3.098 6.887 6.887 6.887h30.047c-3.786 0-6.887-3.098-6.887-6.887zm0 0" fill="#ee5253" data-original="#EE5253"/><path d="M497.61 326.992h-54.485V272.86c0-7.828-6.367-14.191-14.191-14.191H263.5v-43.465h106.613c11.125 0 20.18-9.055 20.18-20.18v-69.671a7.5 7.5 0 1 0-15 0v69.671c0 2.805-2.371 5.176-5.18 5.176H141.887a5.183 5.183 0 0 1-5.18-5.176V20.68a5.186 5.186 0 0 1 5.18-5.18h228.226c2.809 0 5.18 2.375 5.18 5.18v69.668a7.5 7.5 0 1 0 15 0V20.68c0-11.125-9.05-20.18-20.18-20.18H141.887c-11.13 0-20.18 9.05-20.18 20.18v174.34c0 11.128 9.05 20.18 20.18 20.18H248.5v43.464H83.066c-7.824 0-14.191 6.367-14.191 14.195v54.133H14.387C6.453 326.992 0 333.45 0 341.382v94.704c0 7.934 6.453 14.387 14.387 14.387h123.976c7.934 0 14.39-6.453 14.39-14.387v-94.703c0-7.934-6.456-14.39-14.39-14.39H83.875v-53.325H248.5v53.324h-54.488c-7.934 0-14.387 6.457-14.387 14.39v94.704c0 7.934 6.453 14.387 14.387 14.387H238.5c4.14 0 7.5-3.36 7.5-7.5s-3.36-7.5-7.5-7.5h-43.875v-93.477h122.75v93.477H273.5c-4.145 0-7.5 3.359-7.5 7.5s3.355 7.5 7.5 7.5h44.488c7.934 0 14.387-6.453 14.387-14.387v-94.703c0-7.934-6.453-14.39-14.387-14.39H263.5v-53.325h164.621v53.324h-54.484c-7.938 0-14.39 6.457-14.39 14.39v94.704c0 7.934 6.452 14.387 14.39 14.387h123.972c7.938 0 14.391-6.453 14.391-14.387v-94.703c0-7.934-6.453-14.39-14.39-14.39zm-359.86 108.48H15v-93.476h122.75zm359.25 0H374.25v-93.476H497zm0 0" data-original="#000000" class="active-path" data-old_color="#115baa" fill="#115baa"/><path d="M342.64 48.488H169.36a7.5 7.5 0 0 0-7.5 7.5c0 4.145 3.355 7.5 7.5 7.5h173.28c4.145 0 7.5-3.355 7.5-7.5a7.5 7.5 0 0 0-7.5-7.5zm0 34.575H169.36a7.5 7.5 0 0 0-7.5 7.5c0 4.144 3.355 7.5 7.5 7.5h173.28c4.145 0 7.5-3.356 7.5-7.5a7.5 7.5 0 0 0-7.5-7.5zm0 34.574H169.36a7.5 7.5 0 0 0-7.5 7.5 7.5 7.5 0 0 0 7.5 7.504h173.28a7.5 7.5 0 0 0 7.5-7.504 7.5 7.5 0 0 0-7.5-7.5zm0 34.573H169.36a7.5 7.5 0 0 0-7.5 7.5 7.5 7.5 0 0 0 7.5 7.505h173.28a7.5 7.5 0 0 0 7.5-7.504 7.5 7.5 0 0 0-7.5-7.5zm79.122 233.087a7.5 7.5 0 1 0-10.879 10.328l10.031 10.566c2.883 3.04 7.695 3.122 10.684.196l28.57-27.946a7.502 7.502 0 0 0 .117-10.609c-2.894-2.957-7.644-3.016-10.605-.117l-23.13 22.625zm-141.215-6.856a7.502 7.502 0 0 0 .113-10.609 7.501 7.501 0 0 0-10.605-.117l-23.13 22.625-4.788-5.043a7.502 7.502 0 0 0-10.602-.277 7.503 7.503 0 0 0-.277 10.605l10.031 10.566a7.498 7.498 0 0 0 10.684.196zm-218.031 6.856a7.5 7.5 0 1 0-10.879 10.328l10.027 10.566a7.502 7.502 0 0 0 10.688.196l28.57-27.946a7.506 7.506 0 0 0 .117-10.609c-2.894-2.957-7.644-3.016-10.605-.117l-23.13 22.625zm0 0" data-original="#000000" class="active-path" data-old_color="#115baa" fill="#115baa"/></svg>