<svg xmlns="http://www.w3.org/2000/svg" width="59.838" height="80" viewBox="0 0 59.838 80">
  <g id="Group_19340" data-name="Group 19340" transform="translate(-64.52)">
    <path id="Path_73559" data-name="Path 73559" d="M64.52,426.667v8.13a5.2,5.2,0,0,0,5.2,5.2h9.106l4.031-4.065h23.157L110.048,440h9.106a5.2,5.2,0,0,0,5.2-5.2v-8.13Z" transform="translate(0 -360)" fill="#0055a3"/>
    <path id="Path_73560" data-name="Path 73560" d="M156.1,449.967h31.22v9.693H156.1Z" transform="translate(-77.269 -379.66)" fill="#ffe177"/>
    <path id="Path_73561" data-name="Path 73561" d="M197.508,452.575h2.344v9.285h-2.344Zm5.2,0h2.344v9.285h-2.344Zm-15.61,0h2.344v9.285H187.1Zm5.2,0h2.344v9.285H192.3Zm-10.407,0h2.344v9.285H181.9Z" transform="translate(-99.038 -381.86)" fill="#feb237"/>
    <path id="Path_73562" data-name="Path 73562" d="M119.154,71.87H69.723a5.2,5.2,0,0,1-5.2-5.2V5.2a5.2,5.2,0,0,1,5.2-5.2h49.431a5.2,5.2,0,0,1,5.2,5.2V66.667A5.2,5.2,0,0,1,119.154,71.87Z" transform="translate(0)" fill="#528fd8"/>
    <path id="Path_73563" data-name="Path 73563" d="M119.154,0H108.38A42.378,42.378,0,0,1,69.4,58.954a42.794,42.794,0,0,1-4.878-.281v7.994a5.2,5.2,0,0,0,5.2,5.2h49.431a5.2,5.2,0,0,0,5.2-5.2V5.2A5.2,5.2,0,0,0,119.154,0Z" fill="#0573ce"/>
    <path id="Path_73564" data-name="Path 73564" d="M166.894,187.253h-32.52A3.252,3.252,0,0,1,131.122,184V168.716a3.252,3.252,0,0,1,3.252-3.252h32.52a3.252,3.252,0,0,1,3.252,3.252V184A3.252,3.252,0,0,1,166.894,187.253Z" transform="translate(-56.195 -139.61)" fill="#ebebeb"/>
    <path id="Path_73565" data-name="Path 73565" d="M292.661,165.476a42.307,42.307,0,0,1-12.528,21.787h12.489a3.252,3.252,0,0,0,3.252-3.252V168.726a3.251,3.251,0,0,0-3.213-3.25Z" transform="translate(-181.923 -139.62)" fill="#e2e2e2"/>
    <circle id="Ellipse_61" data-name="Ellipse 61" cx="2.439" cy="2.439" r="2.439" transform="translate(114.601 4.878)" fill="#c5d3dd"/>
    <circle id="Ellipse_62" data-name="Ellipse 62" cx="2.439" cy="2.439" r="2.439" transform="translate(69.398 4.878)" fill="#c5d3dd"/>
    <circle id="Ellipse_63" data-name="Ellipse 63" cx="2.439" cy="2.439" r="2.439" transform="translate(114.601 62.114)" fill="#c5d3dd"/>
    <circle id="Ellipse_64" data-name="Ellipse 64" cx="2.439" cy="2.439" r="2.439" transform="translate(69.398 62.114)" fill="#c5d3dd"/>
    <path id="Path_73566" data-name="Path 73566" d="M187.154,210.705a1.172,1.172,0,0,1-1.172-1.169l-.018-8.781a1.172,1.172,0,0,1,1.172-1.174h2.487c2.822,0,4.718,2.235,4.718,5.562,0,3.165-1.945,5.5-4.625,5.543-.709.012-2.483.019-2.558.02Zm1.157-8.781.013,6.431c.5,0,1.04-.008,1.352-.013,1.156-.02,2.322-1.017,2.322-3.2,0-.755-.171-3.218-2.374-3.218h-1.312Zm-7.908,8.781a5.283,5.283,0,0,1-3.926-1.686,1.172,1.172,0,1,1,1.737-1.574,2.978,2.978,0,0,0,2.189.916,1.406,1.406,0,0,0,1.459-.936c.109-.613-.816-1.005-1.1-1.111-.335-.123-.627-.227-.885-.318a8.342,8.342,0,0,1-1.911-.84,2.847,2.847,0,0,1-1.265-2.718,3.285,3.285,0,0,1,2.224-2.643c2.117-.768,4.282.744,4.522.919a1.172,1.172,0,1,1-1.378,1.9,3.146,3.146,0,0,0-2.344-.612.959.959,0,0,0-.7.719.488.488,0,0,0,.236.487,7,7,0,0,0,1.4.583c.267.094.568.2.913.329,2.257.833,2.822,2.468,2.6,3.722A3.694,3.694,0,0,1,180.4,210.705Zm-9.86,0a5.284,5.284,0,0,1-3.926-1.685,1.172,1.172,0,1,1,1.737-1.574,2.979,2.979,0,0,0,2.189.916,1.406,1.406,0,0,0,1.459-.936c.109-.613-.816-1.005-1.1-1.111-.335-.123-.627-.227-.885-.318a8.342,8.342,0,0,1-1.911-.84,2.846,2.846,0,0,1-1.265-2.718,3.286,3.286,0,0,1,2.224-2.643c2.117-.768,4.281.744,4.521.919a1.172,1.172,0,1,1-1.378,1.9,3.145,3.145,0,0,0-2.344-.612.959.959,0,0,0-.7.719.488.488,0,0,0,.236.487,7.005,7.005,0,0,0,1.4.583c.267.094.568.2.913.329,2.257.833,2.822,2.468,2.6,3.722a3.694,3.694,0,0,1-3.766,2.868Z" transform="translate(-85.889 -168.395)" fill="#fe646f"/>
  </g>
</svg>
