<svg xmlns="http://www.w3.org/2000/svg" xmlns:xlink="http://www.w3.org/1999/xlink" width="285.407" height="70" viewBox="0 0 285.407 70">
  <defs>
    <clipPath id="clip-path">
      <rect id="Rectangle_17883" data-name="Rectangle 17883" width="285.407" height="70" fill="none"/>
    </clipPath>
  </defs>
  <g id="Group_19237" data-name="Group 19237" transform="translate(-200.186 -3637.684)">
    <g id="Group_19233" data-name="Group 19233" transform="translate(200.186 3637.684)">
      <g id="Group_18950" data-name="Group 18950" clip-path="url(#clip-path)">
        <path id="Path_72732" data-name="Path 72732" d="M42.274,161.267a51.158,51.158,0,0,1-11.707,5.591,28.553,28.553,0,0,1-8.439,1.233c-.708,0-1.418-.026-2.141-.071a13.471,13.471,0,0,1-6.667-2.141l.157-.237c.2.014.4.029.6.037a13.111,13.111,0,0,0,5.954,1.77A28.688,28.688,0,0,0,30.4,166.313a48.157,48.157,0,0,0,10.106-4.646s0,0,0,0q.809-.308,1.613-.642Z" transform="translate(-9.518 -115.067)" fill="#e9ad41"/>
        <path id="Path_72733" data-name="Path 72733" d="M162.253,69.289l-.186.217c-.2-.043-.405-.086-.608-.126a11.672,11.672,0,0,0-5.317-2.32c-6.3-1.05-12.218,1.524-18.477,4.247-.614.265-1.23.534-1.847.8a13.053,13.053,0,0,0-1.179.565q-.736.291-1.47.6l-.18-.223a11.37,11.37,0,0,1,2.606-1.47c.614-.263,1.227-.531,1.841-.8,6.339-2.76,12.327-5.363,18.8-4.29a12.28,12.28,0,0,1,6.019,2.794" transform="translate(-95.034 -47.34)" fill="#00bb9d"/>
        <path id="Path_72734" data-name="Path 72734" d="M588.5,66.05l-.622,2.663a.233.233,0,0,1-.251.2h-3.981a.126.126,0,0,1-.143-.143V31.6a.063.063,0,0,1,.071-.071h5.565a.063.063,0,0,1,.071.071V43.659a.086.086,0,0,0,.085.085.08.08,0,0,0,.052-.019,13.451,13.451,0,0,1,6.27-2.788c10.009-1.678,17.924,5.942,16.79,15.988a13.784,13.784,0,0,1-4.829,9.364,14.653,14.653,0,0,1-18.877-.305q-.157-.137-.2.066m18.257-10.92a9,9,0,1,0-9,9,9,9,0,0,0,9-9" transform="translate(-416.965 -22.527)" fill="#21353f"/>
        <path id="Path_72735" data-name="Path 72735" d="M67.033,44.883a11.942,11.942,0,0,0-5.879-2.728c-7.021-1.167-13.642,2.132-20.481,5.066a11.023,11.023,0,0,0-2.537,1.43A61.984,61.984,0,0,0,32.5,51.733c-6.77,4.081-12.335,7.486-18.774,10.591C9.678,64.279,4.307,66.331.411,62.9a.376.376,0,0,1-.123-.234L0,60.152V55.62l.091-.654a.156.156,0,0,1,.188-.151,13.007,13.007,0,0,0,6.327-1.621,70.214,70.214,0,0,0,7.463-4.127q6.97-4.43,12.615-7.943a105.418,105.418,0,0,1,10.637-5.805C43.716,32.3,51.2,30.4,58,33.061a11.5,11.5,0,0,1,4.94,3.667,34.362,34.362,0,0,1,4.695,8.277.083.083,0,0,1-.086.111q-.5-.057-.514-.234" transform="translate(0 -22.717)" fill="#00ccb0"/>
        <path id="Path_72736" data-name="Path 72736" d="M469.844,80.276a8.034,8.034,0,0,0,7.783,6.913,8.366,8.366,0,0,0,7.814-3.864.24.24,0,0,1,.217-.12l5.814,0a.057.057,0,0,1,.058.058.064.064,0,0,1,0,.022,13.94,13.94,0,0,1-13.876,9.267c-8.99-.285-14.781-8.214-13.417-16.925a13.852,13.852,0,0,1,8.2-10.766,14.992,14.992,0,0,1,10.994-.223c6.282,2.4,9.4,8.856,8.682,15.312a.114.114,0,0,1-.126.111H470.018q-.217,0-.174.211m9.327-11.351a8.208,8.208,0,0,0-9.164,6.313q-.046.188.148.188h16.12q.183,0,.134-.177a8.142,8.142,0,0,0-7.238-6.325" transform="translate(-331.596 -45.523)" fill="#21353f"/>
        <path id="Path_72737" data-name="Path 72737" d="M926.423,76.654v2.991a14.645,14.645,0,0,1-2.492,6.816c-3.73,5.391-10.723,7.261-16.865,5.408a13.883,13.883,0,0,1-9.644-10.292c-1.4-6.253,1.036-12.94,6.89-16.063,5.968-3.182,13.9-2.178,18.494,2.82a14.092,14.092,0,0,1,3.616,8.32m-14.6-7.5a8.539,8.539,0,0,0-8.708,6.764c-1.147,5.114,1.59,10.015,6.887,11.008a8.7,8.7,0,0,0,10.48-6.967c1.068-5.662-2.763-10.808-8.659-10.805" transform="translate(-641.016 -45.513)" fill="#21353f"/>
        <path id="Path_72738" data-name="Path 72738" d="M340.1,84.361l6.165-18.275a.091.091,0,0,1,.086-.063h5.551a.091.091,0,0,1,.09.092.089.089,0,0,1,0,.027L342.835,93.5a.091.091,0,0,1-.086.063h-4.507a.091.091,0,0,1-.083-.057l-6.935-16.388a.091.091,0,0,0-.168,0l-6.9,16.388a.091.091,0,0,1-.083.057l-4.509,0a.091.091,0,0,1-.086-.063l-9.156-27.356a.091.091,0,0,1,.058-.115.089.089,0,0,1,.027,0h5.711a.091.091,0,0,1,.086.063l6.073,18.126a.091.091,0,0,0,.171.006l7.734-17.855a.091.091,0,0,1,.083-.054l1.75,0a.091.091,0,0,1,.083.054l7.837,18a.091.091,0,0,0,.171-.009" transform="translate(-221.748 -47.18)" fill="#21353f"/>
        <path id="Path_72739" data-name="Path 72739" d="M726.894,89.964c-3.151,3.907-8.522,4.912-13.271,3.882-5.745-1.244-9.119-5.8-9.139-11.659q-.029-8.377.02-15.937a.211.211,0,0,1,.211-.211l5.351.017a.121.121,0,0,1,.12.12q0,7.84.011,15.466a8.162,8.162,0,0,0,.257,1.955,6.16,6.16,0,0,0,5.252,5.052c4.618.762,8.031-2.346,8.037-6.944q.006-7.666,0-15.6a.083.083,0,0,1,.083-.083l5.54,0a.135.135,0,0,1,.151.151q.026,7.523-.014,15.355a12.94,12.94,0,0,1-2.611,8.431" transform="translate(-503.412 -47.18)" fill="#21353f"/>
        <path id="Path_72740" data-name="Path 72740" d="M821.679,71.373a.046.046,0,0,0-.017-.062.047.047,0,0,0-.021-.006H809.6a.071.071,0,0,1-.071-.071V66.17a.125.125,0,0,1,.14-.143l20.686,0a.135.135,0,0,1,.154.151,1.85,1.85,0,0,1-.137,1.047Q823.9,77.711,817.5,88.08c-.055.089-.031.134.074.134h12.86a.126.126,0,0,1,.143.143v5.137a.071.071,0,0,1-.071.071H808.613a.139.139,0,0,1-.151-.128,1.3,1.3,0,0,1,.174-.916q6.5-10.552,13.043-21.149" transform="translate(-577.708 -47.18)" fill="#21353f"/>
        <path id="Path_72741" data-name="Path 72741" d="M162.517,70.229c-.2-.043-.405-.086-.608-.126a36.961,36.961,0,0,0-10.486-.631,58.064,58.064,0,0,0-16.334,3.922q-.736.291-1.47.6a10.941,10.941,0,0,1,2.537-1.43c6.838-2.934,13.46-6.233,20.481-5.066a11.931,11.931,0,0,1,5.879,2.728" transform="translate(-95.484 -48.063)" fill="#00aa89"/>
        <path id="Path_72742" data-name="Path 72742" d="M12.566,127.909A13.139,13.139,0,0,0,19.1,130a28.832,28.832,0,0,0,10.477-1.15,50.524,50.524,0,0,0,11.639-5.56l3.02-1.55q1.564-.8,2.988-1.615c5.588-3.188,11.285-6.47,17.1-9.062a37.128,37.128,0,0,1,7.894-2.552,13.651,13.651,0,0,1,6.019.088.3.3,0,0,1,.228.263,31.613,31.613,0,0,1,.134,5.614.152.152,0,0,1-.163.157,11.36,11.36,0,0,0-4.7,1.31,51.68,51.68,0,0,0-5.277,3.048c-6.276,4.173-12.458,8.565-19.214,12.215a62.733,62.733,0,0,1-12.2,5.009,21.16,21.16,0,0,1-17.895-2.406,33.6,33.6,0,0,1-7.032-5.885q-.18-.194.086-.18a.458.458,0,0,1,.362.163" transform="translate(-8.608 -77.334)" fill="#fec144"/>
        <path id="Path_72743" data-name="Path 72743" d="M42.516,161.024a50.561,50.561,0,0,1-11.639,5.56,28.853,28.853,0,0,1-10.477,1.15,13.141,13.141,0,0,1-6.53-2.092c.2.014.4.029.6.037A61.979,61.979,0,0,0,40.9,161.666s0,0,0,0q.809-.308,1.613-.642" transform="translate(-9.911 -115.067)" fill="#d3993d"/>
        <path id="Path_72744" data-name="Path 72744" d="M797.912,196.586q-.009,1.947.017,3.519a1.281,1.281,0,0,0,1.444,1.293,5.064,5.064,0,0,1,.762,0,.058.058,0,0,1,.063.066v.7a.073.073,0,0,1-.071.071c-1.207.043-2.186.083-2.811-.97a2.584,2.584,0,0,1-.274-1.379q.034-1.741.014-3.348a.132.132,0,0,0-.151-.148h-2.985a.126.126,0,0,0-.143.143v5.6a.107.107,0,0,1-.106.106l-.679,0a.125.125,0,0,1-.143-.143v-5.565a.143.143,0,0,0-.143-.143l-1.1,0a.093.093,0,0,1-.106-.106l-.009-.537a.143.143,0,0,1,.14-.146h1.013q.245,0,.222-.243c-.188-2.138,1.167-2.577,2.92-2.375a.059.059,0,0,1,.057.063l0,.625c0,.048-.023.071-.068.071l-1.036.006a.829.829,0,0,0-.865.645q-.18.594-.188.619-.185.616.42.6,1.27-.031,2.783,0a.146.146,0,0,0,.168-.166v-1.7a.063.063,0,0,1,.071-.071h.714a.063.063,0,0,1,.071.071v1.712a.127.127,0,0,0,.143.146l1.927,0a.125.125,0,0,1,.143.143v.5a.128.128,0,0,1-.143.143h-1.878a.172.172,0,0,0-.194.191" transform="translate(-565.593 -137.88)" fill="#374954"/>
        <path id="Path_72745" data-name="Path 72745" d="M681.6,197.15a3.571,3.571,0,0,1,4.789-.049,3.73,3.73,0,0,1,.651,4.3,3.5,3.5,0,0,1-5.554.714q-.146-.149-.16.06l-.057.7a.124.124,0,0,1-.14.128h-.485a.128.128,0,0,1-.143-.143v-8.708a.126.126,0,0,1,.146-.143l.713.009a.068.068,0,0,1,.068.068v2.988q0,.245.171.071m4.946,2.537a2.6,2.6,0,1,0-2.6,2.6,2.6,2.6,0,0,0,2.6-2.6" transform="translate(-486.281 -138.641)" fill="#374954"/>
        <path id="Path_72746" data-name="Path 72746" d="M909.817,194.024h.776a.077.077,0,0,1,.077.077v8.836a.077.077,0,0,1-.077.077h-.776a.077.077,0,0,1-.077-.077V194.1a.077.077,0,0,1,.077-.077" transform="translate(-650.094 -138.648)" fill="#374954"/>
        <path id="Path_72747" data-name="Path 72747" d="M743.845,206.6c.08.916,1.079,1.262,2,1.2,1.792-.12,2.055-1.969.108-2.226-1.15-.151-2.971-.388-2.88-2,.1-1.712,1.946-2.072,3.316-1.772a1.983,1.983,0,0,1,1.664,1.829c.009.059-.015.089-.074.089l-.713,0a.079.079,0,0,1-.077-.063c-.22-1.3-1.947-1.361-2.831-.813a.861.861,0,0,0,.382,1.578q.948.188,1.944.394a1.863,1.863,0,0,1,.291,3.588c-1.535.571-3.9.254-4.007-1.812a.073.073,0,0,1,.083-.088l.694,0a.09.09,0,0,1,.1.091" transform="translate(-530.921 -144.141)" fill="#374954"/>
        <path id="Path_72748" data-name="Path 72748" d="M771.9,205.313a3.545,3.545,0,1,1-3.344-3.694A3.524,3.524,0,0,1,771.9,205.313Zm-.928-.2a2.611,2.611,0,1,0-2.611,2.611A2.612,2.612,0,0,0,770.976,205.112Z" transform="translate(-546.535 -144.071)" fill="#374954"/>
        <path id="Path_72749" data-name="Path 72749" d="M830.445,202.715l.011-.725a.119.119,0,0,1,.134-.134l.5-.006a.126.126,0,0,1,.143.143v6.276a.19.19,0,0,1-.211.214l-.422,0a.14.14,0,0,1-.143-.134l-.032-.665q-.011-.243-.188-.077a3.524,3.524,0,0,1-5.52-.656,3.466,3.466,0,0,1,2.343-5.209,3.559,3.559,0,0,1,3.239,1.033.086.086,0,0,0,.121,0,.085.085,0,0,0,.024-.062m-.094,2.449a2.6,2.6,0,1,0-2.6,2.6,2.6,2.6,0,0,0,2.6-2.6" transform="translate(-588.993 -144.12)" fill="#374954"/>
        <path id="Path_72750" data-name="Path 72750" d="M855.755,203.512a2.6,2.6,0,0,0,2.052,4.235,2.45,2.45,0,0,0,2.186-1.413.128.128,0,0,1,.126-.071l.8.014a.034.034,0,0,1,.033.033.029.029,0,0,1,0,.01,3.2,3.2,0,0,1-2.429,2.223,3.472,3.472,0,0,1-4.016-4.741,3.427,3.427,0,0,1,6.419.186c.01.027,0,.041-.031.043l-.779.031a.093.093,0,0,1-.083-.049,2.526,2.526,0,0,0-4.281-.5" transform="translate(-610.443 -144.11)" fill="#374954"/>
        <path id="Path_72751" data-name="Path 72751" d="M925.489,205.059a3.525,3.525,0,1,1-3.525-3.525A3.525,3.525,0,0,1,925.489,205.059Zm-.91,0a2.611,2.611,0,1,0-2.611,2.612A2.612,2.612,0,0,0,924.579,205.059Z" transform="translate(-656.311 -144.015)" fill="#374954"/>
        <path id="Path_72752" data-name="Path 72752" d="M974.637,206.648c.326,1.373,2.138,1.407,3.04.768.845-.6.257-1.593-.585-1.752-1.473-.277-3.676-.38-3.162-2.583a1.6,1.6,0,0,1,.956-1.076c1.464-.614,3.753-.382,3.919,1.63a.071.071,0,0,1-.08.086h-.7a.068.068,0,0,1-.074-.063c-.211-1.359-2.044-1.373-2.885-.733-.745.562-.2,1.39.556,1.53q.971.177,1.89.382a1.656,1.656,0,0,1,1.364,1.193,1.95,1.95,0,0,1-1.661,2.54c-1.544.291-3.259-.108-3.49-1.909-.014-.1.031-.152.134-.154h.6a.187.187,0,0,1,.183.143" transform="translate(-695.815 -144.137)" fill="#374954"/>
        <path id="Path_72753" data-name="Path 72753" d="M710.029,207.31a.063.063,0,0,0,.083.03.059.059,0,0,0,.029-.03l2.249-4.989a.085.085,0,0,1,.086-.057l.87.011c.03,0,.039.013.026.04q-1.861,4.073-3.456,7.466a2.4,2.4,0,0,1-2.808,1.447.088.088,0,0,1-.083-.1l.023-.614a.058.058,0,0,1,.074-.063c1.544.191,1.9-.733,2.417-1.847a.309.309,0,0,0,0-.274l-2.888-6a.04.04,0,0,1,.018-.055.046.046,0,0,1,.019-.005l.848-.009a.133.133,0,0,1,.128.08Z" transform="translate(-504.962 -144.537)" fill="#374954"/>
        <path id="Path_72754" data-name="Path 72754" d="M886.992,207.035a2,2,0,0,0,.174-.648q0-2.058,0-4.044a.061.061,0,0,1,.069-.068l.776,0a.066.066,0,0,1,.074.074q.02,2.066-.006,4.038a2.613,2.613,0,0,1-1.958,2.552,2.882,2.882,0,0,1-3.879-2.934q0-1.786-.006-3.656a.066.066,0,0,1,.074-.074h.773a.056.056,0,0,1,.063.06q.057,1.3,0,2.92a3.791,3.791,0,0,0,.337,2,1.99,1.99,0,0,0,3.5-.223" transform="translate(-630.443 -144.544)" fill="#374954"/>
        <path id="Path_72755" data-name="Path 72755" d="M949.177,206.3a1.989,1.989,0,0,0,3.65,1,2.952,2.952,0,0,0,.354-1.684q-.051-1.621-.006-3.276a.067.067,0,0,1,.068-.066l.768,0a.063.063,0,0,1,.071.071q.054,3.345-.017,4.261c-.26,3.362-5.788,3.351-5.819-.4q-.017-1.958,0-3.853a.073.073,0,0,1,.083-.083h.759a.076.076,0,0,1,.086.086q-.014,2.095.006,3.936" transform="translate(-677.604 -144.544)" fill="#374954"/>
        <path id="Path_72756" data-name="Path 72756" d="M639.344,209.274h6.376a.094.094,0,0,1,.094.094v.811a.094.094,0,0,1-.094.094h-6.376a.094.094,0,0,1-.094-.094v-.811a.094.094,0,0,1,.094-.094" transform="translate(-456.804 -149.546)" fill="#374954"/>
        <path id="Path_72757" data-name="Path 72757" d="M27.045,12.149c-3.789,2.746-7.435,5.7-11.612,7.882a38.5,38.5,0,0,1-8.867,3.563c6.4-20.086,31.2-29.841,49.988-19.287H54.962c-5.271.033-10.514.207-15.632,1.741a50.212,50.212,0,0,0-12.284,6.1" transform="translate(-4.692 0)" fill="#fd7171"/>
        <path id="Path_72758" data-name="Path 72758" d="M78.32,22.119a29.4,29.4,0,0,1,8.862-5.3c5.908-2.462,12.1-3.064,18.42-2.815a1.987,1.987,0,0,1,.634.274c-3.851.682-7.726,1.227-11.536,2.135A83.864,83.864,0,0,0,78.32,22.119" transform="translate(-55.967 -9.97)" fill="#d25f5f"/>
        <path id="Path_72759" data-name="Path 72759" d="M107.417,160.209a36.443,36.443,0,0,0-6.8,3.681c-6.167,3.917-11.774,8.7-18.465,11.8A28.321,28.321,0,0,1,65.2,179.88a15.451,15.451,0,0,1-4.826-.706l-.035-.007a.923.923,0,0,1-.182.035.11.11,0,0,1-.057-.012.12.12,0,0,1-.045.012c-.472,0-.936-.111-1.408-.131-.231-.009-.464-.011-.7-.008l-.213.048a35.545,35.545,0,0,0,15.837,5l1.434,0,2.057.011,1.715-.017c16.6-1.267,27.807-13.418,30.84-24.378a4.392,4.392,0,0,0-2.208.481" transform="translate(-41.261 -114.123)" fill="#5643c1"/>
        <path id="Path_72760" data-name="Path 72760" d="M65.438,219.214c-.027,0-.057,0-.085.006a.878.878,0,0,1-.131.022.108.108,0,0,1-.043-.008l-.029,0a.136.136,0,0,1-.031.006h-.01a.349.349,0,0,0-.1.034c-.412.226-.045.22.09.243a49.784,49.784,0,0,0,5.068.827,28.248,28.248,0,0,0,15.611-3.418c.512-.279,1.348-.339,1.431-1.193a55.178,55.178,0,0,1-21.777,3.479" transform="translate(-46.323 -154.163)" fill="#453ba3"/>
      </g>
    </g>
  </g>
</svg>
