<svg id="Group_169324" data-name="Group 169324" xmlns="http://www.w3.org/2000/svg" xmlns:xlink="http://www.w3.org/1999/xlink" width="91.706" height="90" viewBox="0 0 91.706 90">
  <defs>
    <clipPath id="clip-path">
      <rect id="Rectangle_24061" data-name="Rectangle 24061" width="91.706" height="90" fill="none"/>
    </clipPath>
  </defs>
  <g id="Group_169323" data-name="Group 169323" clip-path="url(#clip-path)">
    <path id="Path_243065" data-name="Path 243065" d="M24.125,52.552l-10.91,9.8a1.582,1.582,0,0,1-2.594-.76L8.7,54.611a1.6,1.6,0,0,0-.934-1.058L1,50.9A1.581,1.581,0,0,1,.52,48.255l15.82-14.22ZM75.366,34.035l15.82,14.22a1.584,1.584,0,0,1,.112,2.234,1.6,1.6,0,0,1-.587.407l-6.766,2.657a1.6,1.6,0,0,0-.934,1.058L81.083,61.6a1.581,1.581,0,0,1-2.594.758l-10.91-9.8Z" transform="translate(0 27.228)" fill="#feb237"/>
    <path id="Path_243066" data-name="Path 243066" d="M21.852,69.52A21.991,21.991,0,0,1,9.45,45.261l3.818-20.768c12.611-.227,20.527-3.994,25.362-7.875,4.835,3.881,12.753,7.648,25.364,7.875l3.82,20.77a21.992,21.992,0,0,1-12.4,24.257L38.63,76.7Z" transform="translate(7.223 13.294)" fill="#0573ce"/>
    <path id="Path_243067" data-name="Path 243067" d="M21.533,60.283a15.633,15.633,0,0,1-8.671-17.3L15.78,27.109A46.747,46.747,0,0,0,35.821,20.9a46.762,46.762,0,0,0,20.043,6.212l2.918,15.88a15.628,15.628,0,0,1-8.669,17.3L35.821,66.4Z" transform="translate(10.032 16.718)" fill="#ebebeb"/>
    <path id="Path_243068" data-name="Path 243068" d="M37.475,25.555,31.88,22.923a1.587,1.587,0,0,0-1.346,0L24.941,25.56A1.581,1.581,0,0,1,22.7,23.969l.673-6.615a1.576,1.576,0,0,0-.374-1.193l-4.3-4.991a1.581,1.581,0,0,1,.855-2.576L25.7,7.232a1.584,1.584,0,0,0,1.046-.792L29.809.823a1.583,1.583,0,0,1,2.776,0l3.071,5.616a1.582,1.582,0,0,0,1.046.79l6.151,1.355a1.582,1.582,0,0,1,.859,2.576l-4.295,5a1.574,1.574,0,0,0-.374,1.193l.679,6.613a1.58,1.58,0,0,1-2.245,1.591Z" transform="translate(14.648 0)" fill="#ffe177"/>
    <path id="Path_243069" data-name="Path 243069" d="M76.055,28.266l-4.01-3.154a1.582,1.582,0,0,0-1.314-.3l-4.986,1.08a1.579,1.579,0,0,1-1.831-2.056L65.7,18.615a1.581,1.581,0,0,0-.09-1.258L63.052,12.5a1.582,1.582,0,0,1,1.422-2.317l5.218.049a1.575,1.575,0,0,0,1.2-.529L74.4,5.752a1.581,1.581,0,0,1,2.7.623l1.424,5.092a1.581,1.581,0,0,0,.842,1l4.716,2.245a1.58,1.58,0,0,1,.259,2.7L79.92,20.658a1.586,1.586,0,0,0-.632,1.078L78.6,27.213a1.583,1.583,0,0,1-2.545,1.053Zm-64.541,0,4.012-3.154a1.576,1.576,0,0,1,1.312-.3l4.986,1.08a1.584,1.584,0,0,0,1.881-1.211,1.6,1.6,0,0,0-.049-.844l-1.782-5.218a1.573,1.573,0,0,1,.09-1.258L24.518,12.5A1.582,1.582,0,0,0,23.1,10.185l-5.218.049a1.58,1.58,0,0,1-1.2-.529L13.174,5.752a1.581,1.581,0,0,0-2.232-.131,1.6,1.6,0,0,0-.472.754L9.048,11.467a1.584,1.584,0,0,1-.844,1L3.488,14.711a1.581,1.581,0,0,0-.257,2.7l4.426,3.245a1.582,1.582,0,0,1,.634,1.078l.688,5.477a1.581,1.581,0,0,0,2.536,1.053Z" transform="translate(2.068 4.177)" fill="#feb237"/>
    <path id="Path_243070" data-name="Path 243070" d="M23.288,34.2l-1.4,1.46a1.161,1.161,0,0,1-.758.421,1.34,1.34,0,0,1-.814-.365l-.535-.562a1.165,1.165,0,0,1-.421-.758,1.276,1.276,0,0,1,.421-.814l4.127-4.239a1.461,1.461,0,0,1,1.123-.421h.758a.928.928,0,0,1,1.1,1.094V44.672a.928.928,0,0,1-1.1,1.1h-.758a.926.926,0,0,1-1.094-1.1V34.4c0-.205-.067-.328-.2-.364a.466.466,0,0,0-.45.167" transform="translate(15.486 23.139)" fill="#0573ce"/>
    <path id="Path_243071" data-name="Path 243071" d="M23.288,34.2l-1.4,1.46a1.161,1.161,0,0,1-.758.421,1.34,1.34,0,0,1-.814-.365l-.535-.562a1.165,1.165,0,0,1-.421-.758,1.276,1.276,0,0,1,.421-.814l4.127-4.239a1.461,1.461,0,0,1,1.123-.421h.758a.928.928,0,0,1,1.1,1.094V44.672a.928.928,0,0,1-1.1,1.1h-.758a.926.926,0,0,1-1.094-1.1V34.4c0-.205-.067-.328-.2-.364A.466.466,0,0,0,23.288,34.2Z" transform="translate(15.486 23.139)" fill="none" stroke="#0573ce" stroke-width="0.25"/>
    <path id="Path_243072" data-name="Path 243072" d="M29.184,34.2l-1.4,1.46a1.161,1.161,0,0,1-.758.421,1.34,1.34,0,0,1-.814-.365l-.535-.562a1.165,1.165,0,0,1-.421-.758,1.276,1.276,0,0,1,.421-.814L29.8,29.345a1.461,1.461,0,0,1,1.123-.421h.758a.928.928,0,0,1,1.1,1.094V44.672a.928.928,0,0,1-1.1,1.1h-.758a.926.926,0,0,1-1.094-1.1V34.4c0-.205-.067-.328-.2-.364a.466.466,0,0,0-.45.167" transform="translate(20.202 23.139)" fill="#0573ce"/>
    <path id="Path_243073" data-name="Path 243073" d="M29.184,34.2l-1.4,1.46a1.161,1.161,0,0,1-.758.421,1.34,1.34,0,0,1-.814-.365l-.535-.562a1.165,1.165,0,0,1-.421-.758,1.276,1.276,0,0,1,.421-.814L29.8,29.345a1.461,1.461,0,0,1,1.123-.421h.758a.928.928,0,0,1,1.1,1.094V44.672a.928.928,0,0,1-1.1,1.1h-.758a.926.926,0,0,1-1.094-1.1V34.4c0-.205-.067-.328-.2-.364A.466.466,0,0,0,29.184,34.2Z" transform="translate(20.202 23.139)" fill="none" stroke="#0573ce" stroke-width="0.25"/>
  </g>
</svg>
