<svg xmlns="http://www.w3.org/2000/svg" width="101.154" height="101.166" viewBox="0 0 101.154 101.166">
  <g id="Group_169327" data-name="Group 169327" transform="translate(-21.333 -21.333)">
    <path id="Path_243111" data-name="Path 243111" d="M180.569,320.48a7.768,7.768,0,0,0-8.369-4.931l-23.385,3.46a7.565,7.565,0,0,0-5-7.979l-19.272-6.315a16.491,16.491,0,0,0-10.275.027l-16.7,5.565A2.3,2.3,0,0,0,96,312.489v23.457a2.3,2.3,0,0,0,2.677,2.268l11.439-1.907a5.874,5.874,0,0,1,3.616.544l11.163,5.582a16.273,16.273,0,0,0,12.5.888l38.381-12.794a7.73,7.73,0,0,0,4.792-10.047Z" transform="translate(-58.574 -221.671)" fill="#ffd188"/>
    <path id="Path_243112" data-name="Path 243112" d="M118.99,355.906l23.773,4.05a5.261,5.261,0,0,0,6.045-3.9l.01-.012h0a7.49,7.49,0,0,0-1.159-4.925c.01.194.117,5.714-2.946,6.439C141.98,358.205,118.99,355.906,118.99,355.906Zm61.317,3.053a7.662,7.662,0,0,1-4.531,4L137.4,375.757a16.273,16.273,0,0,1-12.5-.888l-11.163-5.582a5.874,5.874,0,0,0-3.616-.544l-11.439,1.907A2.3,2.3,0,0,1,96,368.383v4.6a2.3,2.3,0,0,0,2.677,2.268l11.439-1.907a5.874,5.874,0,0,1,3.616.544l11.163,5.582a16.273,16.273,0,0,0,12.5.888l38.381-12.794a7.713,7.713,0,0,0,4.926-9.628,7.824,7.824,0,0,1-.4,1.026Z" transform="translate(-58.574 -258.706)" fill="#f9a06f"/>
    <rect id="Rectangle_24065" data-name="Rectangle 24065" width="20.691" height="39.083" rx="10.346" transform="translate(21.333 82.257)" fill="#00cf66"/>
    <path id="Path_243113" data-name="Path 243113" d="M35.127,428.23h-6.9a6.9,6.9,0,0,1-6.9-6.9v6.9a6.9,6.9,0,0,0,6.9,6.9h6.9a6.9,6.9,0,0,0,6.9-6.9v-6.9A6.9,6.9,0,0,1,35.127,428.23Z" transform="translate(0 -313.787)" fill="#00b157"/>
    <g id="Group_169326" data-name="Group 169326" transform="translate(28.23 21.333)">
      <path id="Path_243114" data-name="Path 243114" d="M131.5,39.725a2.3,2.3,0,0,0,2.3-2.3V23.632a2.3,2.3,0,1,0-4.6,0V37.426A2.3,2.3,0,0,0,131.5,39.725Zm9.2,9.2a2.3,2.3,0,0,0,2.3-2.3V32.828a2.3,2.3,0,1,0-4.6,0V46.622a2.3,2.3,0,0,0,2.3,2.3ZM64.828,25.931a2.3,2.3,0,0,0-2.3,2.3V42.024a2.3,2.3,0,1,0,4.6,0V28.23a2.3,2.3,0,0,0-2.3-2.3Zm-9.2,13.794a2.3,2.3,0,0,0-2.3,2.3V55.818a2.3,2.3,0,1,0,4.6,0V42.024A2.3,2.3,0,0,0,55.632,39.725Z" transform="translate(-53.333 -21.333)" fill="#d9e1e2"/>
    </g>
    <path id="Path_243115" data-name="Path 243115" d="M412.386,202.7a2.3,2.3,0,0,0-3.251,0l-2.973,2.972V183.632a2.3,2.3,0,1,0-4.6,0V205.67l-2.973-2.972a2.3,2.3,0,1,0-3.251,3.251l6.9,6.9a2.3,2.3,0,0,0,3.251,0l6.9-6.9A2.3,2.3,0,0,0,412.386,202.7Z" transform="translate(-292.869 -125.515)" fill="#00cf66"/>
    <circle id="Ellipse_605" data-name="Ellipse 605" cx="25.289" cy="25.289" r="25.289" transform="translate(48.921 28.23)" fill="#ff9500"/>
    <path id="Path_243116" data-name="Path 243116" d="M179.215,101.014a22.972,22.972,0,0,1-11.984-42.582,25.291,25.291,0,1,0,31.575,31.575,22.952,22.952,0,0,1-19.592,11.007Z" transform="translate(-100.407 -29.103)" fill="#f87600"/>
    <circle id="Ellipse_606" data-name="Ellipse 606" cx="20.691" cy="20.691" r="20.691" transform="translate(53.519 32.828)" fill="#fac100"/>
    <path id="Path_243117" data-name="Path 243117" d="M170.667,130.293a20.667,20.667,0,0,0,31.784,17.446A22.963,22.963,0,0,1,173.911,119.2,20.569,20.569,0,0,0,170.667,130.293Z" transform="translate(-117.148 -76.774)" fill="#ff9500"/>
    <path id="Path_243118" data-name="Path 243118" d="M239.206,110.277c-.327-.125-.633-.241-.9-.357-.29-.128-.636-.261-1.019-.406-2.177-.827-3.358-1.48-3.358-2.562a2.4,2.4,0,0,1,1.483-1.712c.69-.348,3.178-1.3,6.352,1.028a2.3,2.3,0,1,0,2.723-3.7,12.381,12.381,0,0,0-4.81-2.182V98.3a2.3,2.3,0,1,0-4.6,0v2.19a9.2,9.2,0,0,0-1.742.647,6.75,6.75,0,0,0-4.005,5.815c0,4.459,4.27,6.081,6.323,6.86.3.113.569.216.795.315.329.144.707.29,1.114.446,2.256.862,3.263,1.431,3.263,2.522a2.4,2.4,0,0,1-1.483,1.712c-.69.348-3.179,1.3-6.352-1.028a2.3,2.3,0,0,0-2.723,3.7,12.419,12.419,0,0,0,4.81,2.2v2.209a2.3,2.3,0,1,0,4.6,0v-2.324a9.206,9.206,0,0,0,1.742-.656,6.751,6.751,0,0,0,4.005-5.815C245.427,112.654,241.38,111.107,239.206,110.277Z" transform="translate(-163.17 -58.575)" fill="#f87600"/>
  </g>
</svg>
