<svg xmlns="http://www.w3.org/2000/svg" width="36.559" height="23.649" viewBox="0 0 36.559 23.649">
  <g id="Group_167963" data-name="Group 167963" transform="translate(124.783 62.534)">
    <path id="Path_239273" data-name="Path 239273" d="M3.486,0A3.486,3.486,0,1,0,6.973,3.486,3.486,3.486,0,0,0,3.486,0Z" transform="translate(-111.188 -55.721)" fill="#49c3e8"/>
    <g id="Group_167963-2" data-name="Group 167963" transform="translate(-124.783 -62.534)">
      <path id="Path_239299" data-name="Path 239299" d="M88.217,148.448v21.661L98.78,159.235Zm36.559,0v21.661l-10.511-10.83Zm-35.759-.982h34.891l-13.713,14.278a5.176,5.176,0,0,1-7.465,0Z" transform="translate(-88.217 -147.466)" fill="#fff"/>
      <path id="Path_239300" data-name="Path 239300" d="M117.527,265.689a6.272,6.272,0,0,1-9.047,0l-2.326-2.422L95.558,274.3h34.891l-10.6-11.033Z" transform="translate(-94.758 -250.651)" fill="#fff"/>
    </g>
  </g>
</svg>
