<svg xmlns="http://www.w3.org/2000/svg" width="37.52" height="31.101" viewBox="0 0 37.52 31.101">
  <g id="Group_169336" data-name="Group 169336" transform="translate(-13.23 -16.445)">
    <path id="Path_239274" data-name="Path 239274" d="M50.728,23.367V43.148a4.41,4.41,0,0,1-4.4,4.4h-28.7a4.41,4.41,0,0,1-4.4-4.4V23.367Z" fill="#fff"/>
    <path id="Path_239275" data-name="Path 239275" d="M50.75,23.367V20.843a4.41,4.41,0,0,0-4.4-4.4H17.65a4.41,4.41,0,0,0-4.4,4.4v2.524Z" fill="#161c27"/>
    <g id="Group_167953" data-name="Group 167953">
      <path id="Path_239276" data-name="Path 239276" d="M44.7,19.568h2.227v.5H44.7Z" fill="#fff"/>
      <path id="Path_239277" data-name="Path 239277" d="M46.272,21.319l-.376-.328,1-1.148-1-1.147.376-.328,1.288,1.475Zm-5.243.089H28.51a1.565,1.565,0,0,1,0-3.13H41.029a1.565,1.565,0,0,1,0,3.13Z" fill="#fff"/>
    </g>
    <path id="Path_239278" data-name="Path 239278" d="M28.827,20.592l-.345-1.409h.274l.134.64c.035.172.068.352.092.491h0c.023-.148.062-.315.1-.493l.152-.638h.27l.141.648c.035.167.064.324.085.477h0c.024-.155.059-.315.1-.487l.146-.638h.262l-.379,1.409H29.59l-.146-.663a3.7,3.7,0,0,1-.077-.447h0a4.471,4.471,0,0,1-.094.447l-.163.663Zm1.835,0-.345-1.409h.274l.134.64c.035.172.068.352.092.491h0c.023-.148.062-.315.1-.493l.152-.638h.27l.141.648c.035.167.064.324.085.477h0c.024-.155.059-.315.1-.487l.146-.638h.262L31.7,20.592h-.275l-.146-.663a3.706,3.706,0,0,1-.077-.447H31.2a4.471,4.471,0,0,1-.094.447l-.163.663Zm1.835,0-.345-1.409h.274l.134.64c.035.172.068.352.092.491h0c.023-.148.062-.315.1-.493l.152-.638h.27l.141.648c.035.167.064.324.085.477h.005c.024-.155.059-.315.1-.487l.146-.638h.262l-.379,1.409H33.26l-.146-.663a3.7,3.7,0,0,1-.077-.447h-.005a4.47,4.47,0,0,1-.094.447l-.163.663Zm1.413-.142a.157.157,0,0,1,.159-.165.166.166,0,0,1,0,.331A.157.157,0,0,1,33.91,20.45Z"/>
    <circle id="Ellipse_492" data-name="Ellipse 492" cx="0.983" cy="0.983" r="0.983" transform="translate(16.587 18.86)" fill="#fc6f58"/>
    <circle id="Ellipse_493" data-name="Ellipse 493" cx="0.983" cy="0.983" r="0.983" transform="translate(19.389 18.86)" fill="#ffd67f"/>
    <circle id="Ellipse_494" data-name="Ellipse 494" cx="0.983" cy="0.983" r="0.983" transform="translate(22.19 18.86)" fill="#d3d3d3"/>
    <path id="Path_239279" data-name="Path 239279" d="M20.561,37.2a.879.879,0,0,1,.9-.93.926.926,0,1,1-.9.93Zm7.706.62a4.339,4.339,0,0,1-1.729.289,3.2,3.2,0,0,1-3.528-3.368,3.434,3.434,0,0,1,3.678-3.578,3.965,3.965,0,0,1,1.659.3l-.31,1.21a3.286,3.286,0,0,0-1.279-.25,2.026,2.026,0,0,0-2.148,2.229,2.011,2.011,0,0,0,2.158,2.2,3.834,3.834,0,0,0,1.27-.22Zm6.87-3.249a3.212,3.212,0,0,1-3.309,3.549,3.142,3.142,0,0,1-3.168-3.429,3.261,3.261,0,0,1,3.278-3.528A3.14,3.14,0,0,1,35.137,34.571Zm-4.867.09c0,1.319.619,2.249,1.639,2.249s1.619-.979,1.619-2.288c0-1.21-.579-2.249-1.629-2.249-1.03,0-1.629.979-1.629,2.288Zm11.567.77c-.03-.81-.06-1.789-.06-2.769h-.03c-.21.859-.49,1.818-.75,2.608L40.178,37.9H38.989l-.72-2.608q-.362-1.3-.609-2.628h-.02c-.04.909-.07,1.948-.12,2.788l-.12,2.559H35.99l.43-6.736h2.029l.659,2.249c.21.779.42,1.619.569,2.408h.03c.19-.779.42-1.669.64-2.418l.72-2.239h1.989l.369,6.736H41.936Z"/>
  </g>
</svg>
