<svg id="Group_163839" data-name="Group 163839" xmlns="http://www.w3.org/2000/svg" width="80" height="80" viewBox="0 0 80 80">
  <path id="Path_234856" data-name="Path 234856" d="M59.839,35.923l-.3,3.92H20.1V33.467a1.528,1.528,0,0,1,1.159-1.484l1.9-.472c7.177-1.787,9.93-8.434,6.119-14.77l-1.008-1.677A1.527,1.527,0,0,1,28.5,13.2l4.8-4.8a1.529,1.529,0,0,1,1.869-.23l1.677,1.008c6.336,3.811,12.983,1.058,14.769-6.119l.473-1.9A1.528,1.528,0,0,1,53.566,0h3.394Z" transform="translate(-16.959 0)" fill="#4ec3ff"/>
  <path id="Path_234857" data-name="Path 234857" d="M292.859,33.467v6.377H256V0h3.394a1.528,1.528,0,0,1,1.483,1.159l.473,1.9c1.786,7.177,8.433,9.93,14.769,6.119L277.8,8.167a1.529,1.529,0,0,1,1.869.23l4.8,4.8a1.527,1.527,0,0,1,.23,1.869l-1.008,1.677c-3.811,6.336-1.058,12.983,6.119,14.77l1.9.472A1.528,1.528,0,0,1,292.859,33.467Z" transform="translate(-216)" fill="#4ec3ff"/>
  <path id="Path_234858" data-name="Path 234858" d="M175.3,150.972l-.248,2.188H158.938a15.235,15.235,0,0,1,14.8-18.859Z" transform="translate(-133.734 -113.316)" fill="#4da4ff"/>
  <path id="Path_234859" data-name="Path 234859" d="M271.234,149.534a15.16,15.16,0,0,1-.437,3.625H256V134.3A15.252,15.252,0,0,1,271.234,149.534Z" transform="translate(-216 -113.316)" fill="#4da4ff"/>
  <path id="Path_234860" data-name="Path 234860" d="M2.344,242A2.344,2.344,0,0,0,0,244.344v18.75l40,3.424,3.125-11.627L40,242Z" transform="translate(0 -204.188)" fill="#4d5b98"/>
  <path id="Path_234861" data-name="Path 234861" d="M293.656,242H256v24.518l40-3.424v-18.75A2.344,2.344,0,0,0,293.656,242Z" transform="translate(-216 -204.188)" fill="#4d5b98"/>
  <path id="Path_234862" data-name="Path 234862" d="M0,377v18.75a2.344,2.344,0,0,0,2.344,2.344H40l3.125-10.156L40,377Z" transform="translate(0 -318.094)" fill="#33437d"/>
  <path id="Path_234863" data-name="Path 234863" d="M256,377v21.094h37.656A2.344,2.344,0,0,0,296,395.75V377Z" transform="translate(-216 -318.094)" fill="#33437d"/>
  <path id="Path_234864" data-name="Path 234864" d="M63.344,429.473a2.344,2.344,0,0,0,0,4.688H91.469l1.563-2.337-1.562-2.35Z" transform="translate(-51.469 -362.368)" fill="#4d5b98"/>
  <path id="Path_234865" data-name="Path 234865" d="M257.563,429.473H256v4.688h1.563a2.344,2.344,0,0,0,0-4.687Z" transform="translate(-216 -362.368)" fill="#33437d"/>
  <path id="Path_234866" data-name="Path 234866" d="M425.7,431.367a2.343,2.343,0,1,0-2.756,2.756A2.36,2.36,0,0,0,425.7,431.367Z" transform="translate(-355.272 -362.377)" fill="#f15a3c"/>
  <path id="Path_234867" data-name="Path 234867" d="M361.91,430.028a2.344,2.344,0,1,0,3.784,1.355A2.355,2.355,0,0,0,361.91,430.028Z" transform="translate(-304.646 -362.392)" fill="#009b80"/>
  <path id="Path_234868" data-name="Path 234868" d="M63.344,294.5a2.344,2.344,0,0,0,0,4.688H91.469l1.563-2.348L91.469,294.5Z" transform="translate(-51.469 -248.483)" fill="#5a77b2"/>
  <path id="Path_234869" data-name="Path 234869" d="M257.563,294.5H256v4.688h1.563a2.344,2.344,0,0,0,0-4.687Z" transform="translate(-216 -248.483)" fill="#4d5b98"/>
  <path id="Path_234870" data-name="Path 234870" d="M373.462,294.556a2.343,2.343,0,1,0,.62,4.191A2.358,2.358,0,0,0,373.462,294.556Zm-9.356,0a2.343,2.343,0,1,0,.621,4.191A2.358,2.358,0,0,0,364.106,294.556Z" transform="translate(-304.656 -248.439)" fill="#ff7f40"/>
  <path id="Path_234871" data-name="Path 234871" d="M304.227,294.556a2.343,2.343,0,1,0,.62,4.191A2.358,2.358,0,0,0,304.227,294.556Z" transform="translate(-254.133 -248.439)" fill="#ffde41"/>
  <path id="Path_234872" data-name="Path 234872" d="M304.227,429.6a2.343,2.343,0,1,0,.62,4.191A2.358,2.358,0,0,0,304.227,429.6Z" transform="translate(-254.133 -362.383)" fill="#fdbd40"/>
  <path id="Path_234873" data-name="Path 234873" d="M362.1,294.9a2.343,2.343,0,1,0,3.6,1.49A2.351,2.351,0,0,0,362.1,294.9Z" transform="translate(-304.647 -248.492)" fill="#00bb93"/>
</svg>
