<svg id="Group_167952" data-name="Group 167952" xmlns="http://www.w3.org/2000/svg" width="44.999" height="45.06" viewBox="0 0 44.999 45.06">
  <path id="Path_239260" data-name="Path 239260" d="M.5,45.949V70.192a3.9,3.9,0,0,0,3.9,3.9H41.595a3.9,3.9,0,0,0,3.9-3.9V45.949a3.863,3.863,0,0,0-3.863-3.863H4.363A3.862,3.862,0,0,0,.5,45.949Zm0,0" transform="translate(-0.5 -38.382)" fill="#c4e2f2"/>
  <path id="Path_239261" data-name="Path 239261" d="M171.169,382.635l-9.076,2.068-9.077-2.068,1.243-5.209,7.448-2.739,8.218,2.739.4,1.686Zm0,0" transform="translate(-139.593 -341.711)" fill="#2d303b"/>
  <path id="Path_239262" data-name="Path 239262" d="M45.5,356.219v.459a3.905,3.905,0,0,1-3.9,3.9H4.409a3.9,3.9,0,0,1-3.9-3.9v-.459ZM32.08,365.792H18.2l.841-3.523h12.2Zm0,0" transform="translate(-0.505 -324.869)" fill="#3c3f4d"/>
  <path id="Path_239263" data-name="Path 239263" d="M121.1,467.892v1.237H92.245v-1.237a2.9,2.9,0,0,1,2.9-2.9H118.2a2.9,2.9,0,0,1,2.9,2.9Zm0,0" transform="translate(-84.171 -424.069)" fill="#2d303b"/>
  <path id="Path_239264" data-name="Path 239264" d="M172.475,467.892v1.237H148.582v-1.237a2.9,2.9,0,0,1,2.9-2.9h18.091a2.9,2.9,0,0,1,2.9,2.9Zm0,0" transform="translate(-135.549 -424.069)" fill="#3c3f4d"/>
  <path id="Path_239265" data-name="Path 239265" d="M69.06,100.137H87.44l2.342,22.537H66.718Zm0,0" transform="translate(-60.89 -91.324)" fill="#ff491f"/>
  <path id="Path_239266" data-name="Path 239266" d="M179.147,182.934h12.777l1.628,15.251H177.52Zm0,0" transform="translate(-161.941 -166.834)" fill="#ed3618"/>
  <path id="Path_239267" data-name="Path 239267" d="M198.972,182.934h12.776l1.628,15.251H197.344Zm0,0" transform="translate(-180.02 -166.834)" fill="#ffe14d"/>
  <path id="Path_239268" data-name="Path 239268" d="M144.184,20.245a.689.689,0,0,1-.689-.689V15.011a4.27,4.27,0,0,0-8.54,0v4.545a.689.689,0,1,1-1.378,0V15.011a5.648,5.648,0,0,1,11.3,0v4.545a.689.689,0,0,1-.689.689Zm0,0" transform="translate(-121.866 -8.539)" fill="#3c3f4d"/>
  <path id="Path_239269" data-name="Path 239269" d="M250.6,214.008a3.654,3.654,0,0,1-3.65-3.65V207.4a.689.689,0,1,1,1.378,0v2.961a2.273,2.273,0,0,0,4.545,0V207.4a.689.689,0,1,1,1.378,0v2.961A3.654,3.654,0,0,1,250.6,214.008Zm0,0" transform="translate(-225.259 -188.516)" fill="#fff"/>
  <path id="Path_239270" data-name="Path 239270" d="M335.743,6.733A6.733,6.733,0,1,1,329.01,0,6.733,6.733,0,0,1,335.743,6.733Zm0,0" transform="translate(-293.958)" fill="#32cc77"/>
  <path id="Path_239271" data-name="Path 239271" d="M364.59,40.1a.689.689,0,0,1-.6-.354l-1.837-3.306a.689.689,0,0,1,1.2-.669l1.194,2.149,2.635-5.421a.689.689,0,1,1,1.239.6l-3.214,6.612a.689.689,0,0,1-.6.388h-.019Zm0,0" transform="translate(-330.243 -29.281)" fill="#fff"/>
  <g id="Group_167951" data-name="Group 167951" transform="translate(35.179 17.52)">
    <path id="Path_239272" data-name="Path 239272" d="M407.518,200.449h-6.612a.689.689,0,0,1,0-1.378h6.612a.689.689,0,0,1,0,1.378Zm0,3.214h-5.234a.689.689,0,1,1,0-1.378h5.234a.689.689,0,0,1,0,1.378Zm0,0" transform="translate(-400.217 -199.071)" fill="#3c3f4d"/>
  </g>
</svg>
