<svg id="Group_169325" data-name="Group 169325" xmlns="http://www.w3.org/2000/svg" xmlns:xlink="http://www.w3.org/1999/xlink" width="80" height="93.153" viewBox="0 0 80 93.153">
  <defs>
    <clipPath id="clip-path">
      <rect id="Rectangle_24064" data-name="Rectangle 24064" width="80" height="93.153" fill="none"/>
    </clipPath>
  </defs>
  <g id="Group_169325-2" data-name="Group 169325" clip-path="url(#clip-path)">
    <path id="Path_243074" data-name="Path 243074" d="M7.471,51.626H.909A.91.91,0,0,1,0,50.717V45.064a.91.91,0,0,1,.909-.909H7.471Z" transform="translate(0 38.109)" fill="#75cef9"/>
    <path id="Path_243075" data-name="Path 243075" d="M2.763,44.155v4.229a1.236,1.236,0,0,1-1.237,1.237H0v1.1a.91.91,0,0,0,.909.909H7.471V44.155Z" transform="translate(0 38.109)" fill="#5ea5ec"/>
    <path id="Path_243076" data-name="Path 243076" d="M70.6,90.362H10.243A4.061,4.061,0,0,1,6.182,86.3V7.3a4.061,4.061,0,0,1,4.061-4.061H70.6A4.061,4.061,0,0,1,74.665,7.3V86.3A4.061,4.061,0,0,1,70.6,90.362" transform="translate(5.335 2.791)" fill="#108be1"/>
    <path id="Path_243077" data-name="Path 243077" d="M70.6,3.234h-4.3V77.943A4.061,4.061,0,0,1,62.245,82H6.182v4.3a4.061,4.061,0,0,0,4.061,4.061H70.6A4.061,4.061,0,0,0,74.665,86.3V7.3A4.061,4.061,0,0,0,70.6,3.234" transform="translate(5.335 2.791)" fill="#0c6bc3"/>
    <path id="Path_243078" data-name="Path 243078" d="M18.115,33.347a1.743,1.743,0,1,1-1.742,1.744,1.744,1.744,0,0,1,1.742-1.744" transform="translate(14.131 28.781)" fill="#efecef"/>
    <path id="Path_243079" data-name="Path 243079" d="M39.524,46.607a1.742,1.742,0,1,1-1.742,1.742,1.743,1.743,0,0,1,1.742-1.742" transform="translate(32.608 40.225)" fill="#efecef"/>
    <path id="Path_243080" data-name="Path 243080" d="M35.934,46.607a1.742,1.742,0,1,1-1.742,1.742,1.743,1.743,0,0,1,1.742-1.742" transform="translate(29.51 40.225)" fill="#efecef"/>
    <path id="Path_243081" data-name="Path 243081" d="M32.366,46.607a1.742,1.742,0,1,1-1.742,1.742,1.743,1.743,0,0,1,1.742-1.742" transform="translate(26.431 40.225)" fill="#365e7d"/>
    <path id="Path_243082" data-name="Path 243082" d="M35.934,33.347a1.743,1.743,0,1,1-1.742,1.744,1.744,1.744,0,0,1,1.742-1.744" transform="translate(29.51 28.781)" fill="#efecef"/>
    <path id="Path_243083" data-name="Path 243083" d="M18.115,8.737a1.742,1.742,0,1,1-1.742,1.742,1.743,1.743,0,0,1,1.742-1.742" transform="translate(14.131 7.541)" fill="#efecef"/>
    <path id="Path_243084" data-name="Path 243084" d="M37.6,8.737a1.742,1.742,0,1,1-1.742,1.742A1.743,1.743,0,0,1,37.6,8.737" transform="translate(30.944 7.541)" fill="#365e7d"/>
    <path id="Path_243085" data-name="Path 243085" d="M18.115,5.481a1.742,1.742,0,1,1-1.742,1.742,1.743,1.743,0,0,1,1.742-1.742" transform="translate(14.131 4.73)" fill="#efecef"/>
    <path id="Path_243086" data-name="Path 243086" d="M28.08,5.481a1.742,1.742,0,1,1-1.742,1.742A1.743,1.743,0,0,1,28.08,5.481" transform="translate(22.731 4.73)" fill="#efecef"/>
    <path id="Path_243087" data-name="Path 243087" d="M22.83,46.607a1.742,1.742,0,1,1-1.742,1.742,1.743,1.743,0,0,1,1.742-1.742" transform="translate(18.2 40.225)" fill="#efecef"/>
    <path id="Path_243088" data-name="Path 243088" d="M21,14.31H4.425a1.639,1.639,0,0,1-1.639-1.638V1.638A1.639,1.639,0,0,1,4.425,0H21a1.639,1.639,0,0,1,1.639,1.638V12.673A1.639,1.639,0,0,1,21,14.31m0,56.715H4.425a1.639,1.639,0,0,1-1.639-1.638V58.353a1.639,1.639,0,0,1,1.639-1.638H21a1.639,1.639,0,0,1,1.639,1.638V69.388A1.639,1.639,0,0,1,21,71.026m0,22.128H4.425a1.638,1.638,0,0,1-1.639-1.638V80.483a1.638,1.638,0,0,1,1.639-1.638H21a1.638,1.638,0,0,1,1.639,1.638V91.516A1.638,1.638,0,0,1,21,93.153M7.7,26.893v-6.56a.91.91,0,0,1,.909-.911h8.209a.912.912,0,0,1,.911.911v6.56ZM17.73,44.373v6.562a.912.912,0,0,1-.911.909H8.61a.909.909,0,0,1-.909-.909V44.373Z" transform="translate(2.404)" fill="#efecef"/>
    <path id="Path_243089" data-name="Path 243089" d="M14.545,10.425H11.852a.911.911,0,0,1,.909.911V17.9h2.692v-6.56a.911.911,0,0,0-.909-.911m-1.783,24.95v4.034a.91.91,0,0,1-.909.909H5.423v1.619a.911.911,0,0,0,.911.909h8.209a.911.911,0,0,0,.911-.909V35.375Z" transform="translate(4.68 8.997)" fill="#dddaec"/>
    <path id="Path_243090" data-name="Path 243090" d="M21,35.845H4.424a1.636,1.636,0,0,1-1.638-1.638V14.631a1.636,1.636,0,0,1,1.638-1.638H21a1.638,1.638,0,0,1,1.638,1.638V34.208A1.638,1.638,0,0,1,21,35.845" transform="translate(2.404 11.214)" fill="#407093"/>
    <path id="Path_243091" data-name="Path 243091" d="M21,0H19.354V9.569A1.636,1.636,0,0,1,17.718,11.2H2.786v1.466A1.639,1.639,0,0,0,4.424,14.31H21a1.64,1.64,0,0,0,1.638-1.639V1.636A1.638,1.638,0,0,0,21,0m0,56.717H19.354v9.567a1.636,1.636,0,0,1-1.636,1.638H2.786v1.464a1.638,1.638,0,0,0,1.638,1.64H21a1.639,1.639,0,0,0,1.638-1.64V58.355A1.638,1.638,0,0,0,21,56.717m0,22.126H19.354v9.571a1.637,1.637,0,0,1-1.636,1.636H2.786v1.468a1.634,1.634,0,0,0,1.638,1.634H21a1.636,1.636,0,0,0,1.638-1.634V80.483A1.639,1.639,0,0,0,21,78.843Z" transform="translate(2.404)" fill="#dddaec"/>
    <path id="Path_243092" data-name="Path 243092" d="M21,12.993H19.354V31.1a1.636,1.636,0,0,1-1.636,1.638H2.786v1.466a1.638,1.638,0,0,0,1.638,1.638H21a1.639,1.639,0,0,0,1.638-1.638V14.631A1.638,1.638,0,0,0,21,12.993Z" transform="translate(2.404 11.214)" fill="#365e7d"/>
    <path id="Path_243093" data-name="Path 243093" d="M53.163,45.454H18.212a1.638,1.638,0,0,1-1.638-1.638V14.63a1.639,1.639,0,0,1,1.638-1.638H53.163A1.639,1.639,0,0,1,54.8,14.63V43.816a1.638,1.638,0,0,1-1.638,1.638" transform="translate(14.304 11.213)" fill="#efecef"/>
    <path id="Path_243094" data-name="Path 243094" d="M53.163,12.993H51.193V40.211a1.637,1.637,0,0,1-1.638,1.636H16.574v1.971a1.639,1.639,0,0,0,1.638,1.638H53.163A1.639,1.639,0,0,0,54.8,43.817V14.631a1.639,1.639,0,0,0-1.638-1.638" transform="translate(14.304 11.214)" fill="#dddaec"/>
    <path id="Path_243095" data-name="Path 243095" d="M40.759,37.136H22.678a1.506,1.506,0,0,1-1.505-1.505V17.549a1.506,1.506,0,0,1,1.505-1.505H40.759a1.506,1.506,0,0,1,1.505,1.505V35.63a1.506,1.506,0,0,1-1.505,1.505" transform="translate(18.274 13.847)" fill="#fabb53"/>
    <path id="Path_243096" data-name="Path 243096" d="M40.759,16.044H38.74V32.105a1.506,1.506,0,0,1-1.505,1.505H21.173v2.02a1.506,1.506,0,0,0,1.505,1.505H40.759a1.506,1.506,0,0,0,1.505-1.505V17.549a1.506,1.506,0,0,0-1.505-1.505" transform="translate(18.274 13.847)" fill="#f99944"/>
    <path id="Path_243097" data-name="Path 243097" d="M40.759,50.533H22.678a1.5,1.5,0,0,1-1.505-1.5V34.309A1.508,1.508,0,0,1,22.678,32.8H40.759a1.508,1.508,0,0,1,1.505,1.507v14.72a1.5,1.5,0,0,1-1.505,1.5" transform="translate(18.274 28.31)" fill="#fabb53"/>
    <path id="Path_243098" data-name="Path 243098" d="M40.759,32.8H39.12V45.884a1.506,1.506,0,0,1-1.505,1.505H21.173v1.64a1.506,1.506,0,0,0,1.505,1.505H40.759a1.506,1.506,0,0,0,1.505-1.505V34.308A1.506,1.506,0,0,0,40.759,32.8" transform="translate(18.274 28.311)" fill="#fabb53"/>
    <rect id="Rectangle_24062" data-name="Rectangle 24062" width="9.61" height="9.61" rx="0.808" transform="translate(45.187 35.632)" fill="#108be1"/>
    <path id="Path_243099" data-name="Path 243099" d="M32.358,19.126H31.077v5.317a1.506,1.506,0,0,1-1.505,1.505H24.254V27.23a1.506,1.506,0,0,0,1.505,1.505h6.6a1.506,1.506,0,0,0,1.505-1.505v-6.6A1.506,1.506,0,0,0,32.358,19.126Z" transform="translate(20.933 16.507)" fill="#0c6bc3"/>
    <path id="Path_243100" data-name="Path 243100" d="M40.993,69.492a1.363,1.363,0,0,1-1.364-1.364V7.825a1.364,1.364,0,1,1,2.728,0v60.3A1.364,1.364,0,0,1,40.993,69.492Z" transform="translate(34.202 5.575)" fill="#b1e4f9"/>
    <path id="Path_243101" data-name="Path 243101" d="M45.886,12.131h-6.6a1.5,1.5,0,0,1-1.505-1.505v-6.6a1.5,1.5,0,0,1,1.505-1.505h6.6a1.5,1.5,0,0,1,1.505,1.505v6.6a1.506,1.506,0,0,1-1.505,1.505m0,64.566h-6.6a1.506,1.506,0,0,1-1.505-1.505v-6.6a1.506,1.506,0,0,1,1.505-1.505h6.6a1.506,1.506,0,0,1,1.505,1.505v6.6A1.506,1.506,0,0,1,45.886,76.7" transform="translate(32.608 2.178)" fill="#efecef"/>
    <path id="Path_243102" data-name="Path 243102" d="M45.886,2.523H44.215V7.449A1.506,1.506,0,0,1,42.71,8.956H37.782v1.671a1.506,1.506,0,0,0,1.505,1.505h6.6a1.506,1.506,0,0,0,1.505-1.505v-6.6A1.506,1.506,0,0,0,45.886,2.523Zm0,64.566H44.215v4.926a1.5,1.5,0,0,1-1.505,1.505H37.782v1.673A1.506,1.506,0,0,0,39.287,76.7h6.6a1.506,1.506,0,0,0,1.505-1.505v-6.6a1.506,1.506,0,0,0-1.505-1.505" transform="translate(32.608 2.178)" fill="#dddaec"/>
    <rect id="Rectangle_24063" data-name="Rectangle 24063" width="5.103" height="18.811" rx="0.488" transform="translate(29.695 68.736)" fill="#efecef"/>
    <path id="Path_243103" data-name="Path 243103" d="M20.133,36.894H18.462v15.32a.911.911,0,0,1-.911.911H15.939V54.8a.908.908,0,0,0,.909.909h3.285a.908.908,0,0,0,.909-.909V37.8a.909.909,0,0,0-.909-.909" transform="translate(13.756 31.842)" fill="#dddaec"/>
    <path id="Path_243104" data-name="Path 243104" d="M49.544,46.677H21.8a1.365,1.365,0,0,1,0-2.729H49.544a1.365,1.365,0,0,1,0,2.729" transform="translate(17.642 37.93)" fill="#b1e4f9"/>
    <path id="Path_243105" data-name="Path 243105" d="M21.173,34.832H42.265v2.729H21.173Zm0,7.812H42.265v2.729H21.173Z" transform="translate(18.274 30.062)" fill="#f99944"/>
    <path id="Path_243106" data-name="Path 243106" d="M36.4,15.029H31.492a.909.909,0,0,1-.909-.909V6.39a.908.908,0,0,1,.909-.909H36.4a.908.908,0,0,1,.909.909v7.73a.909.909,0,0,1-.909.909" transform="translate(26.395 4.73)" fill="#efecef"/>
    <path id="Path_243107" data-name="Path 243107" d="M36.4,5.481H34.11v5.442a.91.91,0,0,1-.909.909H30.583V14.12a.908.908,0,0,0,.909.909H36.4a.908.908,0,0,0,.909-.909V6.39A.909.909,0,0,0,36.4,5.481Z" transform="translate(26.395 4.73)" fill="#dddaec"/>
    <path id="Path_243108" data-name="Path 243108" d="M26.3,15.029H21.4a.909.909,0,0,1-.909-.909V6.39a.908.908,0,0,1,.909-.909H26.3a.908.908,0,0,1,.909.909v7.73a.909.909,0,0,1-.909.909" transform="translate(17.681 4.73)" fill="#407093"/>
    <path id="Path_243109" data-name="Path 243109" d="M26.3,5.481H24.013v5.442a.91.91,0,0,1-.909.909H20.486V14.12a.908.908,0,0,0,.909.909H26.3a.908.908,0,0,0,.909-.909V6.39A.909.909,0,0,0,26.3,5.481Z" transform="translate(17.681 4.73)" fill="#365e7d"/>
    <path id="Path_243110" data-name="Path 243110" d="M9.99,34.8H6.318a1.364,1.364,0,1,1,0-2.728H9.99a1.364,1.364,0,0,1,0,2.728m0,5.515H6.318a1.365,1.365,0,1,1,0-2.729H9.99a1.365,1.365,0,0,1,0,2.729m0,16.615H6.318a1.365,1.365,0,1,1,0-2.729H9.99a1.365,1.365,0,0,1,0,2.729m0,5.513H6.318a1.365,1.365,0,1,1,0-2.729H9.99a1.365,1.365,0,0,1,0,2.729" transform="translate(4.274 27.679)" fill="#407093"/>
  </g>
</svg>
