<svg xmlns="http://www.w3.org/2000/svg" width="80" height="80" viewBox="0 0 80 80">
  <g id="Group_163761" data-name="Group 163761" transform="translate(-23.75 -23.75)">
    <path id="Path_234741" data-name="Path 234741" d="M56,24H80.744V51.493H56Zm71.482,52.237H108.237a2.749,2.749,0,0,0-2.749,2.749V103.73h20.62a4.124,4.124,0,0,0,4.124-4.124V78.986A2.749,2.749,0,0,0,127.482,76.237Z" transform="translate(-26.616 -0.115)" fill="#dbb057"/>
    <path id="Path_234742" data-name="Path 234742" d="M320.744,391.121V378.749A2.749,2.749,0,0,0,317.994,376H298.749A2.749,2.749,0,0,0,296,378.749v13.918a2.577,2.577,0,0,0,2.577,2.577h26.29A4.124,4.124,0,0,1,320.744,391.121Z" transform="translate(-225.377 -291.63)" fill="#fec753"/>
    <g id="Group_163750" data-name="Group 163750" transform="translate(25.662 27.037)">
      <path id="Path_234743" data-name="Path 234743" d="M73.805,66.684H71.056v-17.3l-5.1-5.1L67.9,42.343l5.5,5.5a1.375,1.375,0,0,1,.4.972ZM36.287,86.9l-1.944-1.944,5.5-5.5a1.375,1.375,0,0,1,.972-.4h17.87v2.749h-17.3Zm37.921,27.493-2.749-2.749a1.375,1.375,0,0,1-.4-.972V91.428h2.749V110.1l2.347,2.347Zm31.214-29.84H87.552V81.805h17.3l5.1-5.1,1.944,1.944-5.5,5.5A1.375,1.375,0,0,1,105.422,84.555Z" transform="translate(-34.343 -42.343)" fill="#dfdfdf"/>
    </g>
    <path id="Path_234744" data-name="Path 234744" d="M179.382,179.123a9.623,9.623,0,1,0-19.025,0,9.622,9.622,0,0,0,1.265,19.16h16.5a9.622,9.622,0,0,0,1.265-19.16Z" transform="translate(-106.12 -119.411)" fill="#00a0c8"/>
    <path id="Path_234745" data-name="Path 234745" d="M24,56H48.744V83.493H24Z" transform="translate(-0.115 -26.616)" fill="#fec753"/>
    <path id="Path_234746" data-name="Path 234746" d="M48,88H64.5v2.749H48Zm0,6.873H64.5v2.749H48Zm0,6.873H64.5V104.5H48Z" transform="translate(-19.991 -53.118)" fill="#dbb057"/>
    <rect id="Rectangle_18710" data-name="Rectangle 18710" width="30.27" height="32.973" rx="4" transform="translate(73.48 23.75)" fill="#fe5d6d"/>
    <path id="Path_234747" data-name="Path 234747" d="M376,64.92v8.4a1.375,1.375,0,0,0,2.174,1.119l5.883-4.2a1.375,1.375,0,0,0,0-2.237l-5.883-4.2A1.375,1.375,0,0,0,376,64.92Z" transform="translate(-291.63 -32.866)" fill="#fff"/>
    <path id="Path_234748" data-name="Path 234748" d="M336,160h21.994v2.749H336Z" transform="translate(-258.504 -112.746)" fill="#fff"/>
    <rect id="Rectangle_18711" data-name="Rectangle 18711" width="32.973" height="24.865" rx="3" transform="translate(23.75 78.885)" fill="#fe5d6d"/>
    <path id="Path_234749" data-name="Path 234749" d="M352,152h2.749v5.5H352Z" transform="translate(-271.754 -106.121)" fill="#7fc9ae"/>
    <path id="Path_234750" data-name="Path 234750" d="M55.526,344H28.033a2.747,2.747,0,0,0-2.483,1.574l14.58,10.935a2.749,2.749,0,0,0,3.3,0l14.58-10.935A2.747,2.747,0,0,0,55.526,344Z" transform="translate(-1.399 -265.129)" fill="#ff919c"/>
    <path id="Path_234751" data-name="Path 234751" d="M195.966,230.548a10.854,10.854,0,0,1-1.733-3.5,1.324,1.324,0,0,1,1.082-1.679l.106-.015a1.331,1.331,0,0,1,1.462.962,8.137,8.137,0,0,0,1.273,2.571,1.331,1.331,0,0,1-.124,1.747l-.076.075a1.325,1.325,0,0,1-1.99-.16ZM203.573,235h-.108a1.316,1.316,0,0,1-1.312-1.477,11.014,11.014,0,0,1,10.9-9.52h.08a1.319,1.319,0,0,1,1.289,1.509l-.015.106a1.33,1.33,0,0,1-1.331,1.134h-.023a8.261,8.261,0,0,0-8.172,7.127A1.312,1.312,0,0,1,203.574,235Z" transform="translate(-141.054 -165.749)" fill="#3079b1"/>
  </g>
</svg>
