<svg xmlns="http://www.w3.org/2000/svg" width="1830.097" height="686.162" viewBox="0 0 1830.097 686.162">
  <g id="Group_169335" data-name="Group 169335" transform="translate(-40.117 -2498.919)">
    <g id="Group_167970" data-name="Group 167970" transform="translate(0 -253.919)">
      <g id="freepik--Cloud--inject-2" transform="translate(121.268 2743.278)">
        <rect id="Rectangle_19526" data-name="Rectangle 19526" width="2.879" height="1.439" transform="translate(29.35 79.584)" fill="#fff" opacity="0.2"/>
        <rect id="Rectangle_19528" data-name="Rectangle 19528" width="2.879" height="1.439" transform="translate(223.503 79.584)" fill="#fff" opacity="0.2"/>
        <g id="Group_165586" data-name="Group 165586" transform="translate(-9.907 9.56)" opacity="0.2">
          <path id="Path_236645" data-name="Path 236645" d="M366.819,139.422a21.712,21.712,0,0,1-20.093,21.647H223.835a25.514,25.514,0,0,1-2.382-50.913,42.969,42.969,0,0,1,83.278-13.442A25.514,25.514,0,0,1,341.6,117.921a20.962,20.962,0,0,1,3.524-.294,21.713,21.713,0,0,1,21.7,21.794Z" transform="translate(-144.791 -68.563)" fill="#a9c1d9"/>
        </g>
        <text id="Hosting" transform="translate(123 81.722)" fill="#fff" font-size="23" font-family="OpenSans-Bold, Open Sans" font-weight="700"><tspan x="-52" y="0">HOSTING</tspan></text>
      </g>
      <line id="Line_76" data-name="Line 76" x1="1139" transform="translate(375.5 3107.5)" fill="none" stroke="#fff" stroke-width="1" stroke-dasharray="4" opacity="0.2"/>
      <g id="Group_165585" data-name="Group 165585" transform="translate(40.117 3117.499)" opacity="0.44">
        <rect id="Rectangle_19335" data-name="Rectangle 19335" width="75.298" height="312.058" transform="translate(138.585 9.443)" fill="#b8cde2"/>
        <rect id="Rectangle_19336" data-name="Rectangle 19336" width="138.586" height="312.058" transform="translate(0 9.443)" fill="#a9c1d9"/>
        <g id="Group_163945" data-name="Group 163945" transform="translate(8.659 30.545)">
          <rect id="Rectangle_19386" data-name="Rectangle 19386" width="119.531" height="29.782" fill="#d4dfeb"/>
          <rect id="Rectangle_19387" data-name="Rectangle 19387" width="68.039" height="2.519" transform="translate(46.463 4.908)" fill="#bcccdd"/>
          <rect id="Rectangle_19388" data-name="Rectangle 19388" width="68.039" height="2.519" transform="translate(46.463 9.27)" fill="#bcccdd"/>
          <rect id="Rectangle_19389" data-name="Rectangle 19389" width="68.039" height="2.519" transform="translate(46.463 13.632)" fill="#bcccdd"/>
          <rect id="Rectangle_19390" data-name="Rectangle 19390" width="68.039" height="2.519" transform="translate(46.463 17.993)" fill="#bcccdd"/>
          <rect id="Rectangle_19391" data-name="Rectangle 19391" width="68.039" height="2.519" transform="translate(46.463 22.34)" fill="#bcccdd"/>
          <ellipse id="Ellipse_385" data-name="Ellipse 385" cx="2.308" cy="2.49" rx="2.308" ry="2.49" transform="translate(34.065 4.923)" fill="#fff"/>
          <path id="Path_236321" data-name="Path 236321" d="M333.72,196.265a2.315,2.315,0,1,0,2.308-2.5,2.227,2.227,0,0,0-1.637.735,2.6,2.6,0,0,0-.671,1.77Z" transform="translate(-307.274 -188.852)" fill="#fff"/>
          <path id="Path_236322" data-name="Path 236322" d="M339.43,196.265a2.315,2.315,0,1,0,2.308-2.5,2.227,2.227,0,0,0-1.637.735,2.6,2.6,0,0,0-.671,1.77Z" transform="translate(-320.603 -188.852)" fill="#fff"/>
          <path id="Path_236323" data-name="Path 236323" d="M345.14,196.265a2.315,2.315,0,1,0,2.308-2.5,2.4,2.4,0,0,0-2.308,2.5Z" transform="translate(-333.932 -188.852)" fill="#fff"/>
          <ellipse id="Ellipse_386" data-name="Ellipse 386" cx="2.308" cy="2.49" rx="2.308" ry="2.49" transform="translate(3.589 4.923)" fill="#fff"/>
          <path id="Path_236324" data-name="Path 236324" d="M328.01,201.45a2.315,2.315,0,1,0,2.308-2.49,2.213,2.213,0,0,0-1.636.725,2.579,2.579,0,0,0-.672,1.765Z" transform="translate(-293.945 -186.567)" fill="#fff"/>
          <path id="Path_236325" data-name="Path 236325" d="M333.72,201.45a2.315,2.315,0,1,0,2.308-2.49,2.213,2.213,0,0,0-1.636.725,2.579,2.579,0,0,0-.672,1.765Z" transform="translate(-307.274 -186.567)" fill="#fff"/>
          <path id="Path_236326" data-name="Path 236326" d="M339.43,201.45a2.315,2.315,0,1,0,2.308-2.49,2.213,2.213,0,0,0-1.636.725A2.579,2.579,0,0,0,339.43,201.45Z" transform="translate(-320.603 -186.567)" fill="#fff"/>
          <path id="Path_236327" data-name="Path 236327" d="M345.14,201.45a2.315,2.315,0,1,0,2.308-2.49,2.4,2.4,0,0,0-2.308,2.49Z" transform="translate(-333.932 -186.567)" fill="#fff"/>
          <path id="Path_236328" data-name="Path 236328" d="M350.83,201.45a2.516,2.516,0,0,0,1.427,2.326,2.2,2.2,0,0,0,2.536-.54,2.651,2.651,0,0,0,.5-2.736,2.325,2.325,0,0,0-2.156-1.54,2.4,2.4,0,0,0-2.308,2.49Z" transform="translate(-347.241 -186.567)" fill="#fff"/>
          <path id="Path_236329" data-name="Path 236329" d="M328.01,206.655a2.315,2.315,0,1,0,2.308-2.5,2.227,2.227,0,0,0-1.637.735,2.6,2.6,0,0,0-.671,1.77Z" transform="translate(-293.945 -184.286)" fill="#fff"/>
          <path id="Path_236330" data-name="Path 236330" d="M333.72,206.655a2.315,2.315,0,1,0,2.308-2.5,2.227,2.227,0,0,0-1.637.734,2.6,2.6,0,0,0-.671,1.77Z" transform="translate(-307.274 -184.286)" fill="#fff"/>
          <path id="Path_236331" data-name="Path 236331" d="M339.43,206.655a2.315,2.315,0,1,0,2.308-2.5,2.227,2.227,0,0,0-1.637.735,2.6,2.6,0,0,0-.671,1.77Z" transform="translate(-320.603 -184.286)" fill="#fff"/>
          <path id="Path_236332" data-name="Path 236332" d="M345.14,206.655a2.315,2.315,0,1,0,2.308-2.5A2.4,2.4,0,0,0,345.14,206.655Z" transform="translate(-333.932 -184.286)" fill="#fff"/>
          <path id="Path_236333" data-name="Path 236333" d="M350.83,206.655a2.514,2.514,0,0,0,1.436,2.315,2.2,2.2,0,0,0,2.532-.549,2.651,2.651,0,0,0,.495-2.734,2.325,2.325,0,0,0-2.154-1.536A2.42,2.42,0,0,0,350.83,206.655Z" transform="translate(-347.241 -184.286)" fill="#fff"/>
          <rect id="Rectangle_19392" data-name="Rectangle 19392" width="1.334" height="19.936" transform="translate(41.725 4.908)" fill="#bcccdd"/>
        </g>
        <g id="Group_163952" data-name="Group 163952" transform="translate(8.659 174.057)">
          <rect id="Rectangle_19386-2" data-name="Rectangle 19386" width="119.531" height="29.782" fill="#d4dfeb"/>
          <rect id="Rectangle_19387-2" data-name="Rectangle 19387" width="68.039" height="2.519" transform="translate(46.463 4.908)" fill="#bcccdd"/>
          <rect id="Rectangle_19388-2" data-name="Rectangle 19388" width="68.039" height="2.519" transform="translate(46.463 9.27)" fill="#bcccdd"/>
          <rect id="Rectangle_19389-2" data-name="Rectangle 19389" width="68.039" height="2.519" transform="translate(46.463 13.632)" fill="#bcccdd"/>
          <rect id="Rectangle_19390-2" data-name="Rectangle 19390" width="68.039" height="2.519" transform="translate(46.463 17.993)" fill="#bcccdd"/>
          <rect id="Rectangle_19391-2" data-name="Rectangle 19391" width="68.039" height="2.519" transform="translate(46.463 22.34)" fill="#bcccdd"/>
          <ellipse id="Ellipse_385-2" data-name="Ellipse 385" cx="2.308" cy="2.49" rx="2.308" ry="2.49" transform="translate(34.065 4.923)" fill="#fff"/>
          <path id="Path_236321-2" data-name="Path 236321" d="M333.72,196.265a2.315,2.315,0,1,0,2.308-2.5,2.227,2.227,0,0,0-1.637.735,2.6,2.6,0,0,0-.671,1.77Z" transform="translate(-307.274 -188.852)" fill="#fff"/>
          <path id="Path_236322-2" data-name="Path 236322" d="M339.43,196.265a2.315,2.315,0,1,0,2.308-2.5,2.227,2.227,0,0,0-1.637.735,2.6,2.6,0,0,0-.671,1.77Z" transform="translate(-320.603 -188.852)" fill="#fff"/>
          <path id="Path_236323-2" data-name="Path 236323" d="M345.14,196.265a2.315,2.315,0,1,0,2.308-2.5,2.4,2.4,0,0,0-2.308,2.5Z" transform="translate(-333.932 -188.852)" fill="#fff"/>
          <ellipse id="Ellipse_386-2" data-name="Ellipse 386" cx="2.308" cy="2.49" rx="2.308" ry="2.49" transform="translate(3.589 4.923)" fill="#fff"/>
          <path id="Path_236324-2" data-name="Path 236324" d="M328.01,201.45a2.315,2.315,0,1,0,2.308-2.49,2.213,2.213,0,0,0-1.636.725,2.579,2.579,0,0,0-.672,1.765Z" transform="translate(-293.945 -186.567)" fill="#fff"/>
          <path id="Path_236325-2" data-name="Path 236325" d="M333.72,201.45a2.315,2.315,0,1,0,2.308-2.49,2.213,2.213,0,0,0-1.636.725,2.579,2.579,0,0,0-.672,1.765Z" transform="translate(-307.274 -186.567)" fill="#fff"/>
          <path id="Path_236326-2" data-name="Path 236326" d="M339.43,201.45a2.315,2.315,0,1,0,2.308-2.49,2.213,2.213,0,0,0-1.636.725A2.579,2.579,0,0,0,339.43,201.45Z" transform="translate(-320.603 -186.567)" fill="#fff"/>
          <path id="Path_236327-2" data-name="Path 236327" d="M345.14,201.45a2.315,2.315,0,1,0,2.308-2.49,2.4,2.4,0,0,0-2.308,2.49Z" transform="translate(-333.932 -186.567)" fill="#fff"/>
          <path id="Path_236328-2" data-name="Path 236328" d="M350.83,201.45a2.516,2.516,0,0,0,1.427,2.326,2.2,2.2,0,0,0,2.536-.54,2.651,2.651,0,0,0,.5-2.736,2.325,2.325,0,0,0-2.156-1.54,2.4,2.4,0,0,0-2.308,2.49Z" transform="translate(-347.241 -186.567)" fill="#fff"/>
          <path id="Path_236329-2" data-name="Path 236329" d="M328.01,206.655a2.315,2.315,0,1,0,2.308-2.5,2.227,2.227,0,0,0-1.637.735,2.6,2.6,0,0,0-.671,1.77Z" transform="translate(-293.945 -184.286)" fill="#fff"/>
          <path id="Path_236330-2" data-name="Path 236330" d="M333.72,206.655a2.315,2.315,0,1,0,2.308-2.5,2.227,2.227,0,0,0-1.637.734,2.6,2.6,0,0,0-.671,1.77Z" transform="translate(-307.274 -184.286)" fill="#fff"/>
          <path id="Path_236331-2" data-name="Path 236331" d="M339.43,206.655a2.315,2.315,0,1,0,2.308-2.5,2.227,2.227,0,0,0-1.637.735,2.6,2.6,0,0,0-.671,1.77Z" transform="translate(-320.603 -184.286)" fill="#fff"/>
          <path id="Path_236332-2" data-name="Path 236332" d="M345.14,206.655a2.315,2.315,0,1,0,2.308-2.5A2.4,2.4,0,0,0,345.14,206.655Z" transform="translate(-333.932 -184.286)" fill="#fff"/>
          <path id="Path_236333-2" data-name="Path 236333" d="M350.83,206.655a2.514,2.514,0,0,0,1.436,2.315,2.2,2.2,0,0,0,2.532-.549,2.651,2.651,0,0,0,.495-2.734,2.325,2.325,0,0,0-2.154-1.536A2.42,2.42,0,0,0,350.83,206.655Z" transform="translate(-347.241 -184.286)" fill="#fff"/>
          <rect id="Rectangle_19392-2" data-name="Rectangle 19392" width="1.334" height="19.936" transform="translate(41.725 4.908)" fill="#bcccdd"/>
        </g>
        <g id="Group_163948" data-name="Group 163948" transform="translate(8.659 102.301)">
          <rect id="Rectangle_19386-3" data-name="Rectangle 19386" width="119.531" height="29.782" fill="#d4dfeb"/>
          <rect id="Rectangle_19387-3" data-name="Rectangle 19387" width="68.039" height="2.519" transform="translate(46.463 4.908)" fill="#bcccdd"/>
          <rect id="Rectangle_19388-3" data-name="Rectangle 19388" width="68.039" height="2.519" transform="translate(46.463 9.27)" fill="#bcccdd"/>
          <rect id="Rectangle_19389-3" data-name="Rectangle 19389" width="68.039" height="2.519" transform="translate(46.463 13.632)" fill="#bcccdd"/>
          <rect id="Rectangle_19390-3" data-name="Rectangle 19390" width="68.039" height="2.519" transform="translate(46.463 17.993)" fill="#bcccdd"/>
          <rect id="Rectangle_19391-3" data-name="Rectangle 19391" width="68.039" height="2.519" transform="translate(46.463 22.34)" fill="#bcccdd"/>
          <ellipse id="Ellipse_385-3" data-name="Ellipse 385" cx="2.308" cy="2.49" rx="2.308" ry="2.49" transform="translate(34.065 4.923)" fill="#fff"/>
          <path id="Path_236321-3" data-name="Path 236321" d="M333.72,196.265a2.315,2.315,0,1,0,2.308-2.5,2.227,2.227,0,0,0-1.637.735,2.6,2.6,0,0,0-.671,1.77Z" transform="translate(-307.274 -188.852)" fill="#fff"/>
          <path id="Path_236322-3" data-name="Path 236322" d="M339.43,196.265a2.315,2.315,0,1,0,2.308-2.5,2.227,2.227,0,0,0-1.637.735,2.6,2.6,0,0,0-.671,1.77Z" transform="translate(-320.603 -188.852)" fill="#fff"/>
          <path id="Path_236323-3" data-name="Path 236323" d="M345.14,196.265a2.315,2.315,0,1,0,2.308-2.5,2.4,2.4,0,0,0-2.308,2.5Z" transform="translate(-333.932 -188.852)" fill="#fff"/>
          <ellipse id="Ellipse_386-3" data-name="Ellipse 386" cx="2.308" cy="2.49" rx="2.308" ry="2.49" transform="translate(3.589 4.923)" fill="#fff"/>
          <path id="Path_236324-3" data-name="Path 236324" d="M328.01,201.45a2.315,2.315,0,1,0,2.308-2.49,2.213,2.213,0,0,0-1.636.725,2.579,2.579,0,0,0-.672,1.765Z" transform="translate(-293.945 -186.567)" fill="#fff"/>
          <path id="Path_236325-3" data-name="Path 236325" d="M333.72,201.45a2.315,2.315,0,1,0,2.308-2.49,2.213,2.213,0,0,0-1.636.725,2.579,2.579,0,0,0-.672,1.765Z" transform="translate(-307.274 -186.567)" fill="#fff"/>
          <path id="Path_236326-3" data-name="Path 236326" d="M339.43,201.45a2.315,2.315,0,1,0,2.308-2.49,2.213,2.213,0,0,0-1.636.725A2.579,2.579,0,0,0,339.43,201.45Z" transform="translate(-320.603 -186.567)" fill="#fff"/>
          <path id="Path_236327-3" data-name="Path 236327" d="M345.14,201.45a2.315,2.315,0,1,0,2.308-2.49,2.4,2.4,0,0,0-2.308,2.49Z" transform="translate(-333.932 -186.567)" fill="#fff"/>
          <path id="Path_236328-3" data-name="Path 236328" d="M350.83,201.45a2.516,2.516,0,0,0,1.427,2.326,2.2,2.2,0,0,0,2.536-.54,2.651,2.651,0,0,0,.5-2.736,2.325,2.325,0,0,0-2.156-1.54,2.4,2.4,0,0,0-2.308,2.49Z" transform="translate(-347.241 -186.567)" fill="#fff"/>
          <path id="Path_236329-3" data-name="Path 236329" d="M328.01,206.655a2.315,2.315,0,1,0,2.308-2.5,2.227,2.227,0,0,0-1.637.735,2.6,2.6,0,0,0-.671,1.77Z" transform="translate(-293.945 -184.286)" fill="#fff"/>
          <path id="Path_236330-3" data-name="Path 236330" d="M333.72,206.655a2.315,2.315,0,1,0,2.308-2.5,2.227,2.227,0,0,0-1.637.734,2.6,2.6,0,0,0-.671,1.77Z" transform="translate(-307.274 -184.286)" fill="#fff"/>
          <path id="Path_236331-3" data-name="Path 236331" d="M339.43,206.655a2.315,2.315,0,1,0,2.308-2.5,2.227,2.227,0,0,0-1.637.735,2.6,2.6,0,0,0-.671,1.77Z" transform="translate(-320.603 -184.286)" fill="#fff"/>
          <path id="Path_236332-3" data-name="Path 236332" d="M345.14,206.655a2.315,2.315,0,1,0,2.308-2.5A2.4,2.4,0,0,0,345.14,206.655Z" transform="translate(-333.932 -184.286)" fill="#fff"/>
          <path id="Path_236333-3" data-name="Path 236333" d="M350.83,206.655a2.514,2.514,0,0,0,1.436,2.315,2.2,2.2,0,0,0,2.532-.549,2.651,2.651,0,0,0,.495-2.734,2.325,2.325,0,0,0-2.154-1.536A2.42,2.42,0,0,0,350.83,206.655Z" transform="translate(-347.241 -184.286)" fill="#fff"/>
          <rect id="Rectangle_19392-3" data-name="Rectangle 19392" width="1.334" height="19.936" transform="translate(41.725 4.908)" fill="#bcccdd"/>
        </g>
        <g id="Group_163950" data-name="Group 163950" transform="translate(8.659 245.813)">
          <rect id="Rectangle_19386-4" data-name="Rectangle 19386" width="119.531" height="29.782" fill="#d4dfeb"/>
          <rect id="Rectangle_19387-4" data-name="Rectangle 19387" width="68.039" height="2.519" transform="translate(46.463 4.908)" fill="#bcccdd"/>
          <rect id="Rectangle_19388-4" data-name="Rectangle 19388" width="68.039" height="2.519" transform="translate(46.463 9.27)" fill="#bcccdd"/>
          <rect id="Rectangle_19389-4" data-name="Rectangle 19389" width="68.039" height="2.519" transform="translate(46.463 13.632)" fill="#bcccdd"/>
          <rect id="Rectangle_19390-4" data-name="Rectangle 19390" width="68.039" height="2.519" transform="translate(46.463 17.993)" fill="#bcccdd"/>
          <rect id="Rectangle_19391-4" data-name="Rectangle 19391" width="68.039" height="2.519" transform="translate(46.463 22.34)" fill="#bcccdd"/>
          <ellipse id="Ellipse_385-4" data-name="Ellipse 385" cx="2.308" cy="2.49" rx="2.308" ry="2.49" transform="translate(34.065 4.923)" fill="#fff"/>
          <path id="Path_236321-4" data-name="Path 236321" d="M333.72,196.265a2.315,2.315,0,1,0,2.308-2.5,2.227,2.227,0,0,0-1.637.735,2.6,2.6,0,0,0-.671,1.77Z" transform="translate(-307.274 -188.852)" fill="#fff"/>
          <path id="Path_236322-4" data-name="Path 236322" d="M339.43,196.265a2.315,2.315,0,1,0,2.308-2.5,2.227,2.227,0,0,0-1.637.735,2.6,2.6,0,0,0-.671,1.77Z" transform="translate(-320.603 -188.852)" fill="#fff"/>
          <path id="Path_236323-4" data-name="Path 236323" d="M345.14,196.265a2.315,2.315,0,1,0,2.308-2.5,2.4,2.4,0,0,0-2.308,2.5Z" transform="translate(-333.932 -188.852)" fill="#fff"/>
          <ellipse id="Ellipse_386-4" data-name="Ellipse 386" cx="2.308" cy="2.49" rx="2.308" ry="2.49" transform="translate(3.589 4.923)" fill="#fff"/>
          <path id="Path_236324-4" data-name="Path 236324" d="M328.01,201.45a2.315,2.315,0,1,0,2.308-2.49,2.213,2.213,0,0,0-1.636.725,2.579,2.579,0,0,0-.672,1.765Z" transform="translate(-293.945 -186.567)" fill="#fff"/>
          <path id="Path_236325-4" data-name="Path 236325" d="M333.72,201.45a2.315,2.315,0,1,0,2.308-2.49,2.213,2.213,0,0,0-1.636.725,2.579,2.579,0,0,0-.672,1.765Z" transform="translate(-307.274 -186.567)" fill="#fff"/>
          <path id="Path_236326-4" data-name="Path 236326" d="M339.43,201.45a2.315,2.315,0,1,0,2.308-2.49,2.213,2.213,0,0,0-1.636.725A2.579,2.579,0,0,0,339.43,201.45Z" transform="translate(-320.603 -186.567)" fill="#fff"/>
          <path id="Path_236327-4" data-name="Path 236327" d="M345.14,201.45a2.315,2.315,0,1,0,2.308-2.49,2.4,2.4,0,0,0-2.308,2.49Z" transform="translate(-333.932 -186.567)" fill="#fff"/>
          <path id="Path_236328-4" data-name="Path 236328" d="M350.83,201.45a2.516,2.516,0,0,0,1.427,2.326,2.2,2.2,0,0,0,2.536-.54,2.651,2.651,0,0,0,.5-2.736,2.325,2.325,0,0,0-2.156-1.54,2.4,2.4,0,0,0-2.308,2.49Z" transform="translate(-347.241 -186.567)" fill="#fff"/>
          <path id="Path_236329-4" data-name="Path 236329" d="M328.01,206.655a2.315,2.315,0,1,0,2.308-2.5,2.227,2.227,0,0,0-1.637.735,2.6,2.6,0,0,0-.671,1.77Z" transform="translate(-293.945 -184.286)" fill="#fff"/>
          <path id="Path_236330-4" data-name="Path 236330" d="M333.72,206.655a2.315,2.315,0,1,0,2.308-2.5,2.227,2.227,0,0,0-1.637.734,2.6,2.6,0,0,0-.671,1.77Z" transform="translate(-307.274 -184.286)" fill="#fff"/>
          <path id="Path_236331-4" data-name="Path 236331" d="M339.43,206.655a2.315,2.315,0,1,0,2.308-2.5,2.227,2.227,0,0,0-1.637.735,2.6,2.6,0,0,0-.671,1.77Z" transform="translate(-320.603 -184.286)" fill="#fff"/>
          <path id="Path_236332-4" data-name="Path 236332" d="M345.14,206.655a2.315,2.315,0,1,0,2.308-2.5A2.4,2.4,0,0,0,345.14,206.655Z" transform="translate(-333.932 -184.286)" fill="#fff"/>
          <path id="Path_236333-4" data-name="Path 236333" d="M350.83,206.655a2.514,2.514,0,0,0,1.436,2.315,2.2,2.2,0,0,0,2.532-.549,2.651,2.651,0,0,0,.495-2.734,2.325,2.325,0,0,0-2.154-1.536A2.42,2.42,0,0,0,350.83,206.655Z" transform="translate(-347.241 -184.286)" fill="#fff"/>
          <rect id="Rectangle_19392-4" data-name="Rectangle 19392" width="1.334" height="19.936" transform="translate(41.725 4.908)" fill="#bcccdd"/>
        </g>
        <rect id="Rectangle_19393" data-name="Rectangle 19393" width="157.56" height="9.443" transform="translate(28.167)" fill="#a9c1d9"/>
        <g id="Group_163946" data-name="Group 163946" transform="translate(8.659 66.423)">
          <rect id="Rectangle_19386-5" data-name="Rectangle 19386" width="119.531" height="29.782" fill="#d4dfeb"/>
          <rect id="Rectangle_19387-5" data-name="Rectangle 19387" width="68.039" height="2.519" transform="translate(46.463 4.908)" fill="#bcccdd"/>
          <rect id="Rectangle_19388-5" data-name="Rectangle 19388" width="68.039" height="2.519" transform="translate(46.463 9.27)" fill="#bcccdd"/>
          <rect id="Rectangle_19389-5" data-name="Rectangle 19389" width="68.039" height="2.519" transform="translate(46.463 13.632)" fill="#bcccdd"/>
          <rect id="Rectangle_19390-5" data-name="Rectangle 19390" width="68.039" height="2.519" transform="translate(46.463 17.993)" fill="#bcccdd"/>
          <rect id="Rectangle_19391-5" data-name="Rectangle 19391" width="68.039" height="2.519" transform="translate(46.463 22.34)" fill="#bcccdd"/>
          <ellipse id="Ellipse_385-5" data-name="Ellipse 385" cx="2.308" cy="2.49" rx="2.308" ry="2.49" transform="translate(34.065 4.923)" fill="#fff"/>
          <path id="Path_236321-5" data-name="Path 236321" d="M333.72,196.265a2.315,2.315,0,1,0,2.308-2.5,2.227,2.227,0,0,0-1.637.735,2.6,2.6,0,0,0-.671,1.77Z" transform="translate(-307.274 -188.852)" fill="#fff"/>
          <path id="Path_236322-5" data-name="Path 236322" d="M339.43,196.265a2.315,2.315,0,1,0,2.308-2.5,2.227,2.227,0,0,0-1.637.735,2.6,2.6,0,0,0-.671,1.77Z" transform="translate(-320.603 -188.852)" fill="#fff"/>
          <path id="Path_236323-5" data-name="Path 236323" d="M345.14,196.265a2.315,2.315,0,1,0,2.308-2.5,2.4,2.4,0,0,0-2.308,2.5Z" transform="translate(-333.932 -188.852)" fill="#fff"/>
          <ellipse id="Ellipse_386-5" data-name="Ellipse 386" cx="2.308" cy="2.49" rx="2.308" ry="2.49" transform="translate(3.589 4.923)" fill="#fff"/>
          <path id="Path_236324-5" data-name="Path 236324" d="M328.01,201.45a2.315,2.315,0,1,0,2.308-2.49,2.213,2.213,0,0,0-1.636.725,2.579,2.579,0,0,0-.672,1.765Z" transform="translate(-293.945 -186.567)" fill="#fff"/>
          <path id="Path_236325-5" data-name="Path 236325" d="M333.72,201.45a2.315,2.315,0,1,0,2.308-2.49,2.213,2.213,0,0,0-1.636.725,2.579,2.579,0,0,0-.672,1.765Z" transform="translate(-307.274 -186.567)" fill="#fff"/>
          <path id="Path_236326-5" data-name="Path 236326" d="M339.43,201.45a2.315,2.315,0,1,0,2.308-2.49,2.213,2.213,0,0,0-1.636.725A2.579,2.579,0,0,0,339.43,201.45Z" transform="translate(-320.603 -186.567)" fill="#fff"/>
          <path id="Path_236327-5" data-name="Path 236327" d="M345.14,201.45a2.315,2.315,0,1,0,2.308-2.49,2.4,2.4,0,0,0-2.308,2.49Z" transform="translate(-333.932 -186.567)" fill="#fff"/>
          <path id="Path_236328-5" data-name="Path 236328" d="M350.83,201.45a2.516,2.516,0,0,0,1.427,2.326,2.2,2.2,0,0,0,2.536-.54,2.651,2.651,0,0,0,.5-2.736,2.325,2.325,0,0,0-2.156-1.54,2.4,2.4,0,0,0-2.308,2.49Z" transform="translate(-347.241 -186.567)" fill="#fff"/>
          <path id="Path_236329-5" data-name="Path 236329" d="M328.01,206.655a2.315,2.315,0,1,0,2.308-2.5,2.227,2.227,0,0,0-1.637.735,2.6,2.6,0,0,0-.671,1.77Z" transform="translate(-293.945 -184.286)" fill="#fff"/>
          <path id="Path_236330-5" data-name="Path 236330" d="M333.72,206.655a2.315,2.315,0,1,0,2.308-2.5,2.227,2.227,0,0,0-1.637.734,2.6,2.6,0,0,0-.671,1.77Z" transform="translate(-307.274 -184.286)" fill="#fff"/>
          <path id="Path_236331-5" data-name="Path 236331" d="M339.43,206.655a2.315,2.315,0,1,0,2.308-2.5,2.227,2.227,0,0,0-1.637.735,2.6,2.6,0,0,0-.671,1.77Z" transform="translate(-320.603 -184.286)" fill="#fff"/>
          <path id="Path_236332-5" data-name="Path 236332" d="M345.14,206.655a2.315,2.315,0,1,0,2.308-2.5A2.4,2.4,0,0,0,345.14,206.655Z" transform="translate(-333.932 -184.286)" fill="#fff"/>
          <path id="Path_236333-5" data-name="Path 236333" d="M350.83,206.655a2.514,2.514,0,0,0,1.436,2.315,2.2,2.2,0,0,0,2.532-.549,2.651,2.651,0,0,0,.495-2.734,2.325,2.325,0,0,0-2.154-1.536A2.42,2.42,0,0,0,350.83,206.655Z" transform="translate(-347.241 -184.286)" fill="#fff"/>
          <rect id="Rectangle_19392-5" data-name="Rectangle 19392" width="1.334" height="19.936" transform="translate(41.725 4.908)" fill="#bcccdd"/>
        </g>
        <g id="Group_163951" data-name="Group 163951" transform="translate(8.659 209.935)">
          <rect id="Rectangle_19386-6" data-name="Rectangle 19386" width="119.531" height="29.782" fill="#d4dfeb"/>
          <rect id="Rectangle_19387-6" data-name="Rectangle 19387" width="68.039" height="2.519" transform="translate(46.463 4.908)" fill="#bcccdd"/>
          <rect id="Rectangle_19388-6" data-name="Rectangle 19388" width="68.039" height="2.519" transform="translate(46.463 9.27)" fill="#bcccdd"/>
          <rect id="Rectangle_19389-6" data-name="Rectangle 19389" width="68.039" height="2.519" transform="translate(46.463 13.632)" fill="#bcccdd"/>
          <rect id="Rectangle_19390-6" data-name="Rectangle 19390" width="68.039" height="2.519" transform="translate(46.463 17.993)" fill="#bcccdd"/>
          <rect id="Rectangle_19391-6" data-name="Rectangle 19391" width="68.039" height="2.519" transform="translate(46.463 22.34)" fill="#bcccdd"/>
          <ellipse id="Ellipse_385-6" data-name="Ellipse 385" cx="2.308" cy="2.49" rx="2.308" ry="2.49" transform="translate(34.065 4.923)" fill="#fff"/>
          <path id="Path_236321-6" data-name="Path 236321" d="M333.72,196.265a2.315,2.315,0,1,0,2.308-2.5,2.227,2.227,0,0,0-1.637.735,2.6,2.6,0,0,0-.671,1.77Z" transform="translate(-307.274 -188.852)" fill="#fff"/>
          <path id="Path_236322-6" data-name="Path 236322" d="M339.43,196.265a2.315,2.315,0,1,0,2.308-2.5,2.227,2.227,0,0,0-1.637.735,2.6,2.6,0,0,0-.671,1.77Z" transform="translate(-320.603 -188.852)" fill="#fff"/>
          <path id="Path_236323-6" data-name="Path 236323" d="M345.14,196.265a2.315,2.315,0,1,0,2.308-2.5,2.4,2.4,0,0,0-2.308,2.5Z" transform="translate(-333.932 -188.852)" fill="#fff"/>
          <ellipse id="Ellipse_386-6" data-name="Ellipse 386" cx="2.308" cy="2.49" rx="2.308" ry="2.49" transform="translate(3.589 4.923)" fill="#fff"/>
          <path id="Path_236324-6" data-name="Path 236324" d="M328.01,201.45a2.315,2.315,0,1,0,2.308-2.49,2.213,2.213,0,0,0-1.636.725,2.579,2.579,0,0,0-.672,1.765Z" transform="translate(-293.945 -186.567)" fill="#fff"/>
          <path id="Path_236325-6" data-name="Path 236325" d="M333.72,201.45a2.315,2.315,0,1,0,2.308-2.49,2.213,2.213,0,0,0-1.636.725,2.579,2.579,0,0,0-.672,1.765Z" transform="translate(-307.274 -186.567)" fill="#fff"/>
          <path id="Path_236326-6" data-name="Path 236326" d="M339.43,201.45a2.315,2.315,0,1,0,2.308-2.49,2.213,2.213,0,0,0-1.636.725A2.579,2.579,0,0,0,339.43,201.45Z" transform="translate(-320.603 -186.567)" fill="#fff"/>
          <path id="Path_236327-6" data-name="Path 236327" d="M345.14,201.45a2.315,2.315,0,1,0,2.308-2.49,2.4,2.4,0,0,0-2.308,2.49Z" transform="translate(-333.932 -186.567)" fill="#fff"/>
          <path id="Path_236328-6" data-name="Path 236328" d="M350.83,201.45a2.516,2.516,0,0,0,1.427,2.326,2.2,2.2,0,0,0,2.536-.54,2.651,2.651,0,0,0,.5-2.736,2.325,2.325,0,0,0-2.156-1.54,2.4,2.4,0,0,0-2.308,2.49Z" transform="translate(-347.241 -186.567)" fill="#fff"/>
          <path id="Path_236329-6" data-name="Path 236329" d="M328.01,206.655a2.315,2.315,0,1,0,2.308-2.5,2.227,2.227,0,0,0-1.637.735,2.6,2.6,0,0,0-.671,1.77Z" transform="translate(-293.945 -184.286)" fill="#fff"/>
          <path id="Path_236330-6" data-name="Path 236330" d="M333.72,206.655a2.315,2.315,0,1,0,2.308-2.5,2.227,2.227,0,0,0-1.637.734,2.6,2.6,0,0,0-.671,1.77Z" transform="translate(-307.274 -184.286)" fill="#fff"/>
          <path id="Path_236331-6" data-name="Path 236331" d="M339.43,206.655a2.315,2.315,0,1,0,2.308-2.5,2.227,2.227,0,0,0-1.637.735,2.6,2.6,0,0,0-.671,1.77Z" transform="translate(-320.603 -184.286)" fill="#fff"/>
          <path id="Path_236332-6" data-name="Path 236332" d="M345.14,206.655a2.315,2.315,0,1,0,2.308-2.5A2.4,2.4,0,0,0,345.14,206.655Z" transform="translate(-333.932 -184.286)" fill="#fff"/>
          <path id="Path_236333-6" data-name="Path 236333" d="M350.83,206.655a2.514,2.514,0,0,0,1.436,2.315,2.2,2.2,0,0,0,2.532-.549,2.651,2.651,0,0,0,.495-2.734,2.325,2.325,0,0,0-2.154-1.536A2.42,2.42,0,0,0,350.83,206.655Z" transform="translate(-347.241 -184.286)" fill="#fff"/>
          <rect id="Rectangle_19392-6" data-name="Rectangle 19392" width="1.334" height="19.936" transform="translate(41.725 4.908)" fill="#bcccdd"/>
        </g>
        <g id="Group_163947" data-name="Group 163947" transform="translate(8.659 138.179)">
          <rect id="Rectangle_19386-7" data-name="Rectangle 19386" width="119.531" height="29.782" fill="#d4dfeb"/>
          <rect id="Rectangle_19387-7" data-name="Rectangle 19387" width="68.039" height="2.519" transform="translate(46.463 4.908)" fill="#bcccdd"/>
          <rect id="Rectangle_19388-7" data-name="Rectangle 19388" width="68.039" height="2.519" transform="translate(46.463 9.27)" fill="#bcccdd"/>
          <rect id="Rectangle_19389-7" data-name="Rectangle 19389" width="68.039" height="2.519" transform="translate(46.463 13.632)" fill="#bcccdd"/>
          <rect id="Rectangle_19390-7" data-name="Rectangle 19390" width="68.039" height="2.519" transform="translate(46.463 17.993)" fill="#bcccdd"/>
          <rect id="Rectangle_19391-7" data-name="Rectangle 19391" width="68.039" height="2.519" transform="translate(46.463 22.34)" fill="#bcccdd"/>
          <ellipse id="Ellipse_385-7" data-name="Ellipse 385" cx="2.308" cy="2.49" rx="2.308" ry="2.49" transform="translate(34.065 4.923)" fill="#fff"/>
          <path id="Path_236321-7" data-name="Path 236321" d="M333.72,196.265a2.315,2.315,0,1,0,2.308-2.5,2.227,2.227,0,0,0-1.637.735,2.6,2.6,0,0,0-.671,1.77Z" transform="translate(-307.274 -188.852)" fill="#fff"/>
          <path id="Path_236322-7" data-name="Path 236322" d="M339.43,196.265a2.315,2.315,0,1,0,2.308-2.5,2.227,2.227,0,0,0-1.637.735,2.6,2.6,0,0,0-.671,1.77Z" transform="translate(-320.603 -188.852)" fill="#fff"/>
          <path id="Path_236323-7" data-name="Path 236323" d="M345.14,196.265a2.315,2.315,0,1,0,2.308-2.5,2.4,2.4,0,0,0-2.308,2.5Z" transform="translate(-333.932 -188.852)" fill="#fff"/>
          <ellipse id="Ellipse_386-7" data-name="Ellipse 386" cx="2.308" cy="2.49" rx="2.308" ry="2.49" transform="translate(3.589 4.923)" fill="#fff"/>
          <path id="Path_236324-7" data-name="Path 236324" d="M328.01,201.45a2.315,2.315,0,1,0,2.308-2.49,2.213,2.213,0,0,0-1.636.725,2.579,2.579,0,0,0-.672,1.765Z" transform="translate(-293.945 -186.567)" fill="#fff"/>
          <path id="Path_236325-7" data-name="Path 236325" d="M333.72,201.45a2.315,2.315,0,1,0,2.308-2.49,2.213,2.213,0,0,0-1.636.725,2.579,2.579,0,0,0-.672,1.765Z" transform="translate(-307.274 -186.567)" fill="#fff"/>
          <path id="Path_236326-7" data-name="Path 236326" d="M339.43,201.45a2.315,2.315,0,1,0,2.308-2.49,2.213,2.213,0,0,0-1.636.725A2.579,2.579,0,0,0,339.43,201.45Z" transform="translate(-320.603 -186.567)" fill="#fff"/>
          <path id="Path_236327-7" data-name="Path 236327" d="M345.14,201.45a2.315,2.315,0,1,0,2.308-2.49,2.4,2.4,0,0,0-2.308,2.49Z" transform="translate(-333.932 -186.567)" fill="#fff"/>
          <path id="Path_236328-7" data-name="Path 236328" d="M350.83,201.45a2.516,2.516,0,0,0,1.427,2.326,2.2,2.2,0,0,0,2.536-.54,2.651,2.651,0,0,0,.5-2.736,2.325,2.325,0,0,0-2.156-1.54,2.4,2.4,0,0,0-2.308,2.49Z" transform="translate(-347.241 -186.567)" fill="#fff"/>
          <path id="Path_236329-7" data-name="Path 236329" d="M328.01,206.655a2.315,2.315,0,1,0,2.308-2.5,2.227,2.227,0,0,0-1.637.735,2.6,2.6,0,0,0-.671,1.77Z" transform="translate(-293.945 -184.286)" fill="#fff"/>
          <path id="Path_236330-7" data-name="Path 236330" d="M333.72,206.655a2.315,2.315,0,1,0,2.308-2.5,2.227,2.227,0,0,0-1.637.734,2.6,2.6,0,0,0-.671,1.77Z" transform="translate(-307.274 -184.286)" fill="#fff"/>
          <path id="Path_236331-7" data-name="Path 236331" d="M339.43,206.655a2.315,2.315,0,1,0,2.308-2.5,2.227,2.227,0,0,0-1.637.735,2.6,2.6,0,0,0-.671,1.77Z" transform="translate(-320.603 -184.286)" fill="#fff"/>
          <path id="Path_236332-7" data-name="Path 236332" d="M345.14,206.655a2.315,2.315,0,1,0,2.308-2.5A2.4,2.4,0,0,0,345.14,206.655Z" transform="translate(-333.932 -184.286)" fill="#fff"/>
          <path id="Path_236333-7" data-name="Path 236333" d="M350.83,206.655a2.514,2.514,0,0,0,1.436,2.315,2.2,2.2,0,0,0,2.532-.549,2.651,2.651,0,0,0,.495-2.734,2.325,2.325,0,0,0-2.154-1.536A2.42,2.42,0,0,0,350.83,206.655Z" transform="translate(-347.241 -184.286)" fill="#fff"/>
          <rect id="Rectangle_19392-7" data-name="Rectangle 19392" width="1.334" height="19.936" transform="translate(41.725 4.908)" fill="#bcccdd"/>
        </g>
        <g id="Group_163949" data-name="Group 163949" transform="translate(8.659 281.691)">
          <rect id="Rectangle_19386-8" data-name="Rectangle 19386" width="119.531" height="29.782" fill="#d4dfeb"/>
          <rect id="Rectangle_19387-8" data-name="Rectangle 19387" width="68.039" height="2.519" transform="translate(46.463 4.908)" fill="#bcccdd"/>
          <rect id="Rectangle_19388-8" data-name="Rectangle 19388" width="68.039" height="2.519" transform="translate(46.463 9.27)" fill="#bcccdd"/>
          <rect id="Rectangle_19389-8" data-name="Rectangle 19389" width="68.039" height="2.519" transform="translate(46.463 13.632)" fill="#bcccdd"/>
          <rect id="Rectangle_19390-8" data-name="Rectangle 19390" width="68.039" height="2.519" transform="translate(46.463 17.993)" fill="#bcccdd"/>
          <rect id="Rectangle_19391-8" data-name="Rectangle 19391" width="68.039" height="2.519" transform="translate(46.463 22.34)" fill="#bcccdd"/>
          <ellipse id="Ellipse_385-8" data-name="Ellipse 385" cx="2.308" cy="2.49" rx="2.308" ry="2.49" transform="translate(34.065 4.923)" fill="#fff"/>
          <path id="Path_236321-8" data-name="Path 236321" d="M333.72,196.265a2.315,2.315,0,1,0,2.308-2.5,2.227,2.227,0,0,0-1.637.735,2.6,2.6,0,0,0-.671,1.77Z" transform="translate(-307.274 -188.852)" fill="#fff"/>
          <path id="Path_236322-8" data-name="Path 236322" d="M339.43,196.265a2.315,2.315,0,1,0,2.308-2.5,2.227,2.227,0,0,0-1.637.735,2.6,2.6,0,0,0-.671,1.77Z" transform="translate(-320.603 -188.852)" fill="#fff"/>
          <path id="Path_236323-8" data-name="Path 236323" d="M345.14,196.265a2.315,2.315,0,1,0,2.308-2.5,2.4,2.4,0,0,0-2.308,2.5Z" transform="translate(-333.932 -188.852)" fill="#fff"/>
          <ellipse id="Ellipse_386-8" data-name="Ellipse 386" cx="2.308" cy="2.49" rx="2.308" ry="2.49" transform="translate(3.589 4.923)" fill="#fff"/>
          <path id="Path_236324-8" data-name="Path 236324" d="M328.01,201.45a2.315,2.315,0,1,0,2.308-2.49,2.213,2.213,0,0,0-1.636.725,2.579,2.579,0,0,0-.672,1.765Z" transform="translate(-293.945 -186.567)" fill="#fff"/>
          <path id="Path_236325-8" data-name="Path 236325" d="M333.72,201.45a2.315,2.315,0,1,0,2.308-2.49,2.213,2.213,0,0,0-1.636.725,2.579,2.579,0,0,0-.672,1.765Z" transform="translate(-307.274 -186.567)" fill="#fff"/>
          <path id="Path_236326-8" data-name="Path 236326" d="M339.43,201.45a2.315,2.315,0,1,0,2.308-2.49,2.213,2.213,0,0,0-1.636.725A2.579,2.579,0,0,0,339.43,201.45Z" transform="translate(-320.603 -186.567)" fill="#fff"/>
          <path id="Path_236327-8" data-name="Path 236327" d="M345.14,201.45a2.315,2.315,0,1,0,2.308-2.49,2.4,2.4,0,0,0-2.308,2.49Z" transform="translate(-333.932 -186.567)" fill="#fff"/>
          <path id="Path_236328-8" data-name="Path 236328" d="M350.83,201.45a2.516,2.516,0,0,0,1.427,2.326,2.2,2.2,0,0,0,2.536-.54,2.651,2.651,0,0,0,.5-2.736,2.325,2.325,0,0,0-2.156-1.54,2.4,2.4,0,0,0-2.308,2.49Z" transform="translate(-347.241 -186.567)" fill="#fff"/>
          <path id="Path_236329-8" data-name="Path 236329" d="M328.01,206.655a2.315,2.315,0,1,0,2.308-2.5,2.227,2.227,0,0,0-1.637.735,2.6,2.6,0,0,0-.671,1.77Z" transform="translate(-293.945 -184.286)" fill="#fff"/>
          <path id="Path_236330-8" data-name="Path 236330" d="M333.72,206.655a2.315,2.315,0,1,0,2.308-2.5,2.227,2.227,0,0,0-1.637.734,2.6,2.6,0,0,0-.671,1.77Z" transform="translate(-307.274 -184.286)" fill="#fff"/>
          <path id="Path_236331-8" data-name="Path 236331" d="M339.43,206.655a2.315,2.315,0,1,0,2.308-2.5,2.227,2.227,0,0,0-1.637.735,2.6,2.6,0,0,0-.671,1.77Z" transform="translate(-320.603 -184.286)" fill="#fff"/>
          <path id="Path_236332-8" data-name="Path 236332" d="M345.14,206.655a2.315,2.315,0,1,0,2.308-2.5A2.4,2.4,0,0,0,345.14,206.655Z" transform="translate(-333.932 -184.286)" fill="#fff"/>
          <path id="Path_236333-8" data-name="Path 236333" d="M350.83,206.655a2.514,2.514,0,0,0,1.436,2.315,2.2,2.2,0,0,0,2.532-.549,2.651,2.651,0,0,0,.495-2.734,2.325,2.325,0,0,0-2.154-1.536A2.42,2.42,0,0,0,350.83,206.655Z" transform="translate(-347.241 -184.286)" fill="#fff"/>
          <rect id="Rectangle_19392-8" data-name="Rectangle 19392" width="1.334" height="19.936" transform="translate(41.725 4.908)" fill="#bcccdd"/>
        </g>
      </g>
    </g>
    <g id="Group_168043" data-name="Group 168043" transform="translate(-8 -233.919)">
      <g id="Group_168006" data-name="Group 168006" opacity="0.3">
        <g id="Group_168005" data-name="Group 168005" transform="translate(1764.392 2745.665)">
          <path id="Path_239385" data-name="Path 239385" d="M412.3,115.051H323.819a4.192,4.192,0,0,1-4.192-4.192V54.669a4.192,4.192,0,0,1,4.192-4.192H412.3a4.192,4.192,0,0,1,4.192,4.192v56.191A4.191,4.191,0,0,1,412.3,115.051Z" transform="translate(-319.627 -50.477)" fill="#90aed1" opacity="0.7"/>
          <path id="Path_239386" data-name="Path 239386" d="M412.3,105.7H323.819a4.192,4.192,0,0,1-4.192-4.192V93.007a4.192,4.192,0,0,1,4.192-4.192H412.3a4.192,4.192,0,0,1,4.192,4.192v8.505A4.191,4.191,0,0,1,412.3,105.7Z" transform="translate(-319.627 -41.13)" fill="#e2eaf2"/>
          <path id="Path_239387" data-name="Path 239387" d="M331.006,57.537a4.021,4.021,0,1,1-4.021-4.021A4.021,4.021,0,0,1,331.006,57.537Z" transform="translate(-318.814 -49.736)" fill="#fff"/>
        </g>
        <g id="Group_168007" data-name="Group 168007" transform="translate(41.691 166.404)">
          <rect id="Rectangle_23776" data-name="Rectangle 23776" width="62.622" height="37.818" transform="translate(1681.31 2768.255)" fill="#e2eaf2"/>
          <g id="Group_168004" data-name="Group 168004" transform="translate(1681.31 2768.255)">
            <path id="Path_239401" data-name="Path 239401" d="M212.255,48.944l31.311,18.909,31.311-18.909" transform="translate(-212.255 -48.944)" fill="none" stroke="#8496a5" stroke-linecap="round" stroke-width="1"/>
            <line id="Line_61" data-name="Line 61" x1="25.59" y2="22.365" transform="translate(0 15.453)" fill="none" stroke="#8496a5" stroke-linecap="round" stroke-width="1"/>
            <line id="Line_62" data-name="Line 62" x2="24.75" y2="22.365" transform="translate(37.872 15.453)" fill="none" stroke="#8496a5" stroke-linecap="round" stroke-width="1"/>
          </g>
        </g>
      </g>
      <g id="Group_168042" data-name="Group 168042" transform="translate(1614.141 3015.219)" opacity="0.2">
        <g id="Group_168030" data-name="Group 168030" transform="translate(45.165 0)">
          <g id="Group_168013" data-name="Group 168013" transform="translate(38.163 203.985)">
            <g id="Group_168008" data-name="Group 168008" transform="translate(0)">
              <path id="Path_239408" data-name="Path 239408" d="M57.4,329.006H222.763a1.3,1.3,0,0,0,1.3-1.3V296.384a1.3,1.3,0,0,0-1.3-1.3H57.4a1.3,1.3,0,0,0-1.3,1.3v31.325A1.3,1.3,0,0,0,57.4,329.006Z" transform="translate(-49.707 -295.086)" fill="#d2dfee"/>
              <rect id="Rectangle_23778" data-name="Rectangle 23778" width="146.384" height="6.04" transform="translate(17.181 33.92)" fill="#9bb0c4"/>
              <path id="Path_239409" data-name="Path 239409" d="M86.335,322.486h26.717a3.655,3.655,0,0,0,3.655-3.655v-9.979a3.655,3.655,0,0,0-3.655-3.655H86.335a3.655,3.655,0,0,0-3.655,3.655v9.979A3.655,3.655,0,0,0,86.335,322.486Z" transform="translate(36.94 -297.321)" fill="#9bb0c4"/>
              <rect id="Rectangle_23779" data-name="Rectangle 23779" width="23.376" height="2.904" transform="translate(124.704 12.359)" fill="#d2dfee"/>
              <rect id="Rectangle_23780" data-name="Rectangle 23780" width="23.376" height="2.904" transform="translate(124.704 18.658)" fill="#d2dfee"/>
              <path id="Path_239410" data-name="Path 239410" d="M72.365,322.486h2.791a.645.645,0,0,0,.645-.645v-16a.645.645,0,0,0-.645-.645H72.365a.645.645,0,0,0-.645.645v16A.645.645,0,0,0,72.365,322.486Z" transform="translate(86.384 -297.321)" fill="#9bb0c4"/>
              <path id="Path_239411" data-name="Path 239411" d="M166.422,315.126a4.115,4.115,0,1,0,4.115-4.115A4.116,4.116,0,0,0,166.422,315.126Z" transform="translate(-86.24 -298.606)" fill="#fff"/>
              <ellipse id="Ellipse_505" data-name="Ellipse 505" cx="4.115" cy="4.115" rx="4.115" ry="4.115" transform="translate(64.945 12.406)" fill="#fff"/>
              <ellipse id="Ellipse_506" data-name="Ellipse 506" cx="4.115" cy="4.115" rx="4.115" ry="4.115" transform="translate(49.706 12.406)" fill="#fff"/>
              <ellipse id="Ellipse_507" data-name="Ellipse 507" cx="4.115" cy="4.115" rx="4.115" ry="4.115" transform="translate(34.467 12.406)" fill="#fff"/>
              <ellipse id="Ellipse_508" data-name="Ellipse 508" cx="4.115" cy="4.115" rx="4.115" ry="4.115" transform="translate(19.229 12.406)" fill="#fff"/>
              <path id="Path_239412" data-name="Path 239412" d="M47.894,326.232h3.055a3.336,3.336,0,0,0,3.336-3.336V304.97a3.337,3.337,0,0,0-3.336-3.336H47.894Z" transform="translate(126.46 -296.533)" fill="#9bb0c4"/>
              <path id="Path_239413" data-name="Path 239413" d="M278.106,301.634H275.05a3.337,3.337,0,0,0-3.336,3.336V322.9a3.337,3.337,0,0,0,3.336,3.336h3.055Z" transform="translate(-271.714 -296.533)" fill="#9bb0c4"/>
            </g>
            <g id="Group_168009" data-name="Group 168009" transform="translate(0 39.959)">
              <path id="Path_239414" data-name="Path 239414" d="M57.4,380.3H222.763a1.3,1.3,0,0,0,1.3-1.3V347.68a1.3,1.3,0,0,0-1.3-1.3H57.4a1.3,1.3,0,0,0-1.3,1.3V379A1.3,1.3,0,0,0,57.4,380.3Z" transform="translate(-49.707 -346.382)" fill="#d2dfee"/>
              <rect id="Rectangle_23781" data-name="Rectangle 23781" width="146.384" height="6.04" transform="translate(17.181 33.92)" fill="#9bb0c4"/>
              <path id="Path_239415" data-name="Path 239415" d="M86.335,373.782h26.717a3.655,3.655,0,0,0,3.655-3.655v-9.979a3.655,3.655,0,0,0-3.655-3.655H86.335a3.655,3.655,0,0,0-3.655,3.655v9.979A3.655,3.655,0,0,0,86.335,373.782Z" transform="translate(36.94 -348.617)" fill="#9bb0c4"/>
              <rect id="Rectangle_23782" data-name="Rectangle 23782" width="23.376" height="2.904" transform="translate(124.704 12.359)" fill="#d2dfee"/>
              <rect id="Rectangle_23783" data-name="Rectangle 23783" width="23.376" height="2.904" transform="translate(124.704 18.658)" fill="#d2dfee"/>
              <path id="Path_239416" data-name="Path 239416" d="M72.365,373.782h2.791a.645.645,0,0,0,.645-.645v-16a.645.645,0,0,0-.645-.645H72.365a.645.645,0,0,0-.645.645v16A.645.645,0,0,0,72.365,373.782Z" transform="translate(86.384 -348.617)" fill="#9bb0c4"/>
              <path id="Path_239417" data-name="Path 239417" d="M166.422,366.422a4.115,4.115,0,1,0,4.115-4.115A4.116,4.116,0,0,0,166.422,366.422Z" transform="translate(-86.24 -349.902)" fill="#fff"/>
              <ellipse id="Ellipse_509" data-name="Ellipse 509" cx="4.115" cy="4.115" rx="4.115" ry="4.115" transform="translate(64.945 12.406)" fill="#fff"/>
              <ellipse id="Ellipse_510" data-name="Ellipse 510" cx="4.115" cy="4.115" rx="4.115" ry="4.115" transform="translate(49.706 12.406)" fill="#fff"/>
              <ellipse id="Ellipse_511" data-name="Ellipse 511" cx="4.115" cy="4.115" rx="4.115" ry="4.115" transform="translate(34.467 12.406)" fill="#fff"/>
              <ellipse id="Ellipse_512" data-name="Ellipse 512" cx="4.115" cy="4.115" rx="4.115" ry="4.115" transform="translate(19.229 12.406)" fill="#fff"/>
              <path id="Path_239418" data-name="Path 239418" d="M47.894,377.528h3.055a3.337,3.337,0,0,0,3.336-3.336V356.266a3.337,3.337,0,0,0-3.336-3.336H47.894Z" transform="translate(126.46 -347.829)" fill="#9bb0c4"/>
              <path id="Path_239419" data-name="Path 239419" d="M278.106,352.931H275.05a3.336,3.336,0,0,0-3.336,3.336v17.925a3.337,3.337,0,0,0,3.336,3.336h3.055Z" transform="translate(-271.714 -347.829)" fill="#9bb0c4"/>
            </g>
            <g id="Group_168010" data-name="Group 168010" transform="translate(0 79.918)">
              <path id="Path_239420" data-name="Path 239420" d="M57.4,431.6H222.763a1.3,1.3,0,0,0,1.3-1.3V398.976a1.3,1.3,0,0,0-1.3-1.3H57.4a1.3,1.3,0,0,0-1.3,1.3V430.3A1.3,1.3,0,0,0,57.4,431.6Z" transform="translate(-49.707 -397.678)" fill="#d2dfee"/>
              <rect id="Rectangle_23784" data-name="Rectangle 23784" width="146.384" height="6.04" transform="translate(17.181 33.92)" fill="#9bb0c4"/>
              <path id="Path_239421" data-name="Path 239421" d="M86.335,425.078h26.717a3.655,3.655,0,0,0,3.655-3.655v-9.979a3.655,3.655,0,0,0-3.655-3.655H86.335a3.655,3.655,0,0,0-3.655,3.655v9.979A3.655,3.655,0,0,0,86.335,425.078Z" transform="translate(36.94 -399.913)" fill="#9bb0c4"/>
              <rect id="Rectangle_23785" data-name="Rectangle 23785" width="23.376" height="2.904" transform="translate(124.704 12.359)" fill="#d2dfee"/>
              <rect id="Rectangle_23786" data-name="Rectangle 23786" width="23.376" height="2.904" transform="translate(124.704 18.658)" fill="#d2dfee"/>
              <path id="Path_239422" data-name="Path 239422" d="M72.365,425.078h2.791a.645.645,0,0,0,.645-.645v-16a.645.645,0,0,0-.645-.645H72.365a.645.645,0,0,0-.645.645v16A.645.645,0,0,0,72.365,425.078Z" transform="translate(86.384 -399.913)" fill="#9bb0c4"/>
              <path id="Path_239423" data-name="Path 239423" d="M166.422,417.719a4.115,4.115,0,1,0,4.115-4.115A4.116,4.116,0,0,0,166.422,417.719Z" transform="translate(-86.24 -401.198)" fill="#fff"/>
              <ellipse id="Ellipse_513" data-name="Ellipse 513" cx="4.115" cy="4.115" rx="4.115" ry="4.115" transform="translate(64.945 12.407)" fill="#fff"/>
              <ellipse id="Ellipse_514" data-name="Ellipse 514" cx="4.115" cy="4.115" rx="4.115" ry="4.115" transform="translate(49.706 12.407)" fill="#fff"/>
              <ellipse id="Ellipse_515" data-name="Ellipse 515" cx="4.115" cy="4.115" rx="4.115" ry="4.115" transform="translate(34.467 12.407)" fill="#fff"/>
              <ellipse id="Ellipse_516" data-name="Ellipse 516" cx="4.115" cy="4.115" rx="4.115" ry="4.115" transform="translate(19.229 12.407)" fill="#fff"/>
              <path id="Path_239424" data-name="Path 239424" d="M47.894,428.824h3.055a3.337,3.337,0,0,0,3.336-3.336V407.562a3.337,3.337,0,0,0-3.336-3.336H47.894Z" transform="translate(126.46 -399.125)" fill="#9bb0c4"/>
              <path id="Path_239425" data-name="Path 239425" d="M278.106,404.227H275.05a3.337,3.337,0,0,0-3.336,3.336v17.925a3.337,3.337,0,0,0,3.336,3.336h3.055Z" transform="translate(-271.714 -399.125)" fill="#9bb0c4"/>
            </g>
            <g id="Group_168011" data-name="Group 168011" transform="translate(0 119.877)">
              <path id="Path_239426" data-name="Path 239426" d="M57.4,482.894H222.763a1.3,1.3,0,0,0,1.3-1.3V450.272a1.3,1.3,0,0,0-1.3-1.3H57.4a1.3,1.3,0,0,0-1.3,1.3V481.6A1.3,1.3,0,0,0,57.4,482.894Z" transform="translate(-49.707 -448.974)" fill="#d2dfee"/>
              <rect id="Rectangle_23787" data-name="Rectangle 23787" width="146.384" height="6.04" transform="translate(17.181 33.92)" fill="#9bb0c4"/>
              <path id="Path_239427" data-name="Path 239427" d="M86.335,476.374h26.717a3.655,3.655,0,0,0,3.655-3.655V462.74a3.655,3.655,0,0,0-3.655-3.655H86.335a3.655,3.655,0,0,0-3.655,3.655v9.979A3.655,3.655,0,0,0,86.335,476.374Z" transform="translate(36.94 -451.209)" fill="#9bb0c4"/>
              <rect id="Rectangle_23788" data-name="Rectangle 23788" width="23.376" height="2.904" transform="translate(124.704 12.359)" fill="#d2dfee"/>
              <rect id="Rectangle_23789" data-name="Rectangle 23789" width="23.376" height="2.904" transform="translate(124.704 18.658)" fill="#d2dfee"/>
              <path id="Path_239428" data-name="Path 239428" d="M72.365,476.374h2.791a.645.645,0,0,0,.645-.645v-16a.645.645,0,0,0-.645-.645H72.365a.645.645,0,0,0-.645.645v16A.645.645,0,0,0,72.365,476.374Z" transform="translate(86.384 -451.209)" fill="#9bb0c4"/>
              <path id="Path_239429" data-name="Path 239429" d="M166.422,469.014a4.115,4.115,0,1,0,4.115-4.115A4.115,4.115,0,0,0,166.422,469.014Z" transform="translate(-86.24 -452.494)" fill="#fff"/>
              <ellipse id="Ellipse_517" data-name="Ellipse 517" cx="4.115" cy="4.115" rx="4.115" ry="4.115" transform="translate(64.945 12.406)" fill="#fff"/>
              <ellipse id="Ellipse_518" data-name="Ellipse 518" cx="4.115" cy="4.115" rx="4.115" ry="4.115" transform="translate(49.706 12.406)" fill="#fff"/>
              <ellipse id="Ellipse_519" data-name="Ellipse 519" cx="4.115" cy="4.115" rx="4.115" ry="4.115" transform="translate(34.467 12.406)" fill="#fff"/>
              <ellipse id="Ellipse_520" data-name="Ellipse 520" cx="4.115" cy="4.115" rx="4.115" ry="4.115" transform="translate(19.229 12.406)" fill="#fff"/>
              <path id="Path_239430" data-name="Path 239430" d="M47.894,480.12h3.055a3.337,3.337,0,0,0,3.336-3.336V458.859a3.337,3.337,0,0,0-3.336-3.336H47.894Z" transform="translate(126.46 -450.421)" fill="#9bb0c4"/>
              <path id="Path_239431" data-name="Path 239431" d="M278.106,455.523H275.05a3.337,3.337,0,0,0-3.336,3.336v17.925a3.337,3.337,0,0,0,3.336,3.336h3.055Z" transform="translate(-271.714 -450.421)" fill="#9bb0c4"/>
            </g>
            <g id="Group_168012" data-name="Group 168012" transform="translate(0 159.836)">
              <path id="Path_239432" data-name="Path 239432" d="M57.4,534.19H222.763a1.3,1.3,0,0,0,1.3-1.3V501.568a1.3,1.3,0,0,0-1.3-1.3H57.4a1.3,1.3,0,0,0-1.3,1.3v31.325A1.3,1.3,0,0,0,57.4,534.19Z" transform="translate(-49.707 -500.27)" fill="#d2dfee"/>
              <rect id="Rectangle_23790" data-name="Rectangle 23790" width="146.384" height="6.04" transform="translate(17.181 33.92)" fill="#5f799e"/>
              <path id="Path_239433" data-name="Path 239433" d="M86.335,527.671h26.717a3.655,3.655,0,0,0,3.655-3.655v-9.979a3.655,3.655,0,0,0-3.655-3.655H86.335a3.655,3.655,0,0,0-3.655,3.655v9.979A3.655,3.655,0,0,0,86.335,527.671Z" transform="translate(36.94 -502.505)" fill="#9bb0c4"/>
              <rect id="Rectangle_23791" data-name="Rectangle 23791" width="23.376" height="2.904" transform="translate(124.704 12.359)" fill="#d2dfee"/>
              <rect id="Rectangle_23792" data-name="Rectangle 23792" width="23.376" height="2.904" transform="translate(124.704 18.658)" fill="#d2dfee"/>
              <path id="Path_239434" data-name="Path 239434" d="M72.365,527.671h2.791a.645.645,0,0,0,.645-.645v-16a.645.645,0,0,0-.645-.645H72.365a.645.645,0,0,0-.645.645v16A.645.645,0,0,0,72.365,527.671Z" transform="translate(86.384 -502.505)" fill="#9bb0c4"/>
              <path id="Path_239435" data-name="Path 239435" d="M166.422,520.312a4.115,4.115,0,1,0,4.115-4.115A4.115,4.115,0,0,0,166.422,520.312Z" transform="translate(-86.24 -503.79)" fill="#fff"/>
              <ellipse id="Ellipse_521" data-name="Ellipse 521" cx="4.115" cy="4.115" rx="4.115" ry="4.115" transform="translate(64.945 12.407)" fill="#fff"/>
              <ellipse id="Ellipse_522" data-name="Ellipse 522" cx="4.115" cy="4.115" rx="4.115" ry="4.115" transform="translate(49.706 12.407)" fill="#fff"/>
              <ellipse id="Ellipse_523" data-name="Ellipse 523" cx="4.115" cy="4.115" rx="4.115" ry="4.115" transform="translate(34.467 12.407)" fill="#fff"/>
              <ellipse id="Ellipse_524" data-name="Ellipse 524" cx="4.115" cy="4.115" rx="4.115" ry="4.115" transform="translate(19.229 12.407)" fill="#fff"/>
              <path id="Path_239436" data-name="Path 239436" d="M47.894,531.416h3.055a3.336,3.336,0,0,0,3.336-3.336V510.154a3.337,3.337,0,0,0-3.336-3.336H47.894Z" transform="translate(126.46 -501.717)" fill="#9bb0c4"/>
              <path id="Path_239437" data-name="Path 239437" d="M278.106,506.819H275.05a3.337,3.337,0,0,0-3.336,3.336v17.925a3.337,3.337,0,0,0,3.336,3.336h3.055Z" transform="translate(-271.714 -501.717)" fill="#9bb0c4"/>
            </g>
            <line id="Line_63" data-name="Line 63" x1="149.515" transform="translate(23.344 33.92)" fill="none" stroke="#708699" stroke-linecap="round" stroke-width="1"/>
            <line id="Line_64" data-name="Line 64" x1="149.515" transform="translate(23.344 73.879)" fill="none" stroke="#708699" stroke-linecap="round" stroke-width="1"/>
            <line id="Line_65" data-name="Line 65" x1="149.515" transform="translate(23.344 113.839)" fill="none" stroke="#708699" stroke-linecap="round" stroke-width="1"/>
            <line id="Line_66" data-name="Line 66" x1="149.515" transform="translate(23.344 153.798)" fill="none" stroke="#708699" stroke-linecap="round" stroke-width="1"/>
            <line id="Line_67" data-name="Line 67" x1="149.515" transform="translate(23.344 193.757)" fill="none" stroke="#708699" stroke-linecap="round" stroke-width="1"/>
            <line id="Line_68" data-name="Line 68" y2="22.678" transform="translate(105.626 3.923)" fill="none" stroke="#708699" stroke-linecap="round" stroke-width="1"/>
            <line id="Line_69" data-name="Line 69" y2="22.677" transform="translate(105.626 43.883)" fill="none" stroke="#708699" stroke-linecap="round" stroke-width="1"/>
            <line id="Line_70" data-name="Line 70" y2="22.677" transform="translate(105.626 83.842)" fill="none" stroke="#708699" stroke-linecap="round" stroke-width="1"/>
            <line id="Line_71" data-name="Line 71" y2="22.677" transform="translate(105.626 123.801)" fill="none" stroke="#708699" stroke-linecap="round" stroke-width="1"/>
            <line id="Line_72" data-name="Line 72" y2="22.677" transform="translate(105.626 163.76)" fill="none" stroke="#708699" stroke-linecap="round" stroke-width="1"/>
          </g>
          <g id="Group_168029" data-name="Group 168029" transform="translate(0)">
            <g id="Group_168015" data-name="Group 168015" transform="translate(56.344 259.578)">
              <g id="Group_168014" data-name="Group 168014" transform="translate(0)">
                <path id="Path_239438" data-name="Path 239438" d="M221.11,368.3l2.786,22.666-19.5,2.4-3.307-26.907Z" transform="translate(-180.67 -366.451)" fill="#f9d5bf"/>
                <path id="Path_239439" data-name="Path 239439" d="M235.973,394.431l-21.4,2.63s4.425,14.5-2.286,16.744c-11.226,3.745-17.587,4.506-20.878,15.867l50.765-6.239Z" transform="translate(-191.411 -372.635)" fill="#5a2402"/>
              </g>
              <path id="Path_239440" data-name="Path 239440" d="M199.319,396.716c3.541,12.39,4.851,27.98,4.851,27.98" transform="translate(-159.565 -373.14)" fill="none" stroke="#a34133" stroke-linecap="round" stroke-width="1"/>
              <path id="Path_239441" data-name="Path 239441" d="M221.85,418.309a6.352,6.352,0,0,1,4.77,5.154" transform="translate(-199.566 -377.912)" fill="none" stroke="#f7c272" stroke-linecap="round" stroke-width="1"/>
              <path id="Path_239442" data-name="Path 239442" d="M229.445,421.058a10.164,10.164,0,0,1,4.485,4.357" transform="translate(-212.792 -378.52)" fill="none" stroke="#f7c272" stroke-linecap="round" stroke-width="1"/>
              <path id="Path_239443" data-name="Path 239443" d="M236.695,423.855c3.5,2.179,4.034,4.774,4.034,4.774" transform="translate(-225.24 -379.138)" fill="none" stroke="#f7c272" stroke-linecap="round" stroke-width="1"/>
            </g>
            <g id="Group_168017" data-name="Group 168017" transform="translate(0 258.809)">
              <g id="Group_168016" data-name="Group 168016" transform="translate(0)">
                <path id="Path_239444" data-name="Path 239444" d="M284.618,371.607l-2.2,22.729-19.554-1.888,2.607-26.984Z" transform="translate(-233.174 -365.464)" fill="#f9d5bf"/>
                <path id="Path_239445" data-name="Path 239445" d="M314.4,398.911l-21.459-2.073s1.175,15.119-5.863,15.849c-11.771,1.222-18.145.586-23.822,10.963l50.91,4.918Z" transform="translate(-263.256 -372.398)" fill="#5a2402"/>
              </g>
              <path id="Path_239446" data-name="Path 239446" d="M270.892,400.391c.77,12.863-1.332,28.366-1.332,28.366" transform="translate(-224.828 -373.183)" fill="none" stroke="#a34133" stroke-linecap="round" stroke-width="1"/>
              <path id="Path_239447" data-name="Path 239447" d="M291.8,416.607a6.35,6.35,0,0,1,3.538,6.065" transform="translate(-266.436 -376.767)" fill="none" stroke="#f7c272" stroke-linecap="round" stroke-width="1"/>
              <path id="Path_239448" data-name="Path 239448" d="M299.6,417.723a10.164,10.164,0,0,1,3.433,5.225" transform="translate(-280.2 -377.014)" fill="none" stroke="#f7c272" stroke-linecap="round" stroke-width="1"/>
              <path id="Path_239449" data-name="Path 239449" d="M307.4,419.006c2.941,2.885,2.9,5.535,2.9,5.535" transform="translate(-293.546 -377.297)" fill="none" stroke="#f7c272" stroke-linecap="round" stroke-width="1"/>
            </g>
            <path id="Path_239450" data-name="Path 239450" d="M106.787,350.869l84.761-4.531-3.831-57.246s31.435,2.656,52.123,0c14.381-1.848,19.494-15.62,19.826-32.853a138.282,138.282,0,0,0-1.9-23.927l-84.672,1.758s-4.495,1.418-11.106,3.741c-16.1,5.67-44.767,16.723-51.576,25.792C100.821,276.4,106.787,350.869,106.787,350.869Z" transform="translate(-85.226 -77.228)" fill="#7597c9"/>
            <path id="Path_239451" data-name="Path 239451" d="M187.816,232.691c3.261,35.037-.412,55.9-65.419,53.452l4.933,60.278" transform="translate(-27.76 -77.311)" fill="none" stroke="#fff" stroke-linecap="round" stroke-width="1"/>
            <path id="Path_239452" data-name="Path 239452" d="M104.952,237.813l97.68,18.427a138.281,138.281,0,0,0-1.9-23.927l-84.672,1.758S111.564,235.49,104.952,237.813Z" transform="translate(-28.191 -77.228)" fill="#115baa" opacity="0.27"/>
            <g id="Group_168028" data-name="Group 168028" transform="translate(46.982)">
              <g id="Group_168026" data-name="Group 168026" transform="translate(43.442)">
                <path id="Path_239453" data-name="Path 239453" d="M183.881,108.053s-20.215,2.463-28.642,10.759c-5.113,5.033-11.152,60.405-11.152,60.405l21.58,2.442,31.971-53.015-4.577-18.092Z" transform="translate(-144.087 -49.765)" fill="#ffe0a1"/>
                <path id="Path_239454" data-name="Path 239454" d="M98.808,125.775s46.089-8.8,75.821,0c0,0,1.024,28.484-7.742,44.018l.522,38.11h-60.6s.493-28.82-.57-39.542C94.718,150.054,98.808,125.775,98.808,125.775Z" transform="translate(-85.293 -52.818)" fill="#ffe0a1"/>
                <path id="Path_239455" data-name="Path 239455" d="M132.746,183.39c-5.583,11.016-22.979,8.764-22.979,8.764l-2.348,28.178,25.849,1.168Z" transform="translate(-51.153 -66.415)" fill="#ffe0a1" opacity="0.57"/>
                <path id="Path_239456" data-name="Path 239456" d="M187.339,137.516c-2.045,9.409,1.622,23.829,1.622,23.829" transform="translate(-168.62 -56.277)" fill="none" stroke="#c47e2a" stroke-linecap="round" stroke-width="1"/>
                <path id="Path_239457" data-name="Path 239457" d="M164.144,105.15c-2.434,24.41-8.73,101.97-8.73,101.97H130.428l2.388-98.623A69.033,69.033,0,0,1,164.144,105.15Z" transform="translate(-99.953 -49.016)" fill="#7597c9"/>
                <path id="Path_239458" data-name="Path 239458" d="M159.129,105.065c-.156,8.045-7.1,23.14-7.1,23.14l-9.14-7.37-8.071,5.739s-2.453-13.23-1.179-19.307C133.639,107.267,146.428,102.991,159.129,105.065Z" transform="translate(-97.154 -48.979)" fill="#fff"/>
                <path id="Path_239459" data-name="Path 239459" d="M165.912,205.15s-11.154,1.455-12.553,2.121-10.974,14.252-10.974,15.128,27.311-.068,27.311-.068Z" transform="translate(-114.821 -71.224)" fill="#f9d5bf"/>
                <path id="Path_239460" data-name="Path 239460" d="M101.555,115.187c5.178,6.429,26.233,66.318,26.233,71.063s-2.762,9.578-8.284,12.339-60.291,1.38-60.291,1.38V181.331s35.866-5.416,38.281-6.452l-15.53-37.385L71.07,118.545l.977-13.319S96.377,108.758,101.555,115.187Z" transform="translate(-8.122 -49.14)" fill="#ffe0a1"/>
                <path id="Path_239461" data-name="Path 239461" d="M135.865,221.855l8.865-.541V201l-8.865,1.933Z" transform="translate(-84.774 -70.308)" fill="#efba5b"/>
                <g id="Group_168018" data-name="Group 168018" transform="translate(51.091 79.226)">
                  <path id="Path_239462" data-name="Path 239462" d="M89.471,134.932a17.867,17.867,0,0,0-4.5,12.323l14.2,34.189a18.492,18.492,0,0,1,10.241,6.156" transform="translate(-60.89 -134.932)" fill="none" stroke="#c47e2a" stroke-linecap="round" stroke-width="1"/>
                  <line id="Line_73" data-name="Line 73" x1="38.281" y2="6.452" transform="translate(0 46.512)" fill="none" stroke="#c47e2a" stroke-linecap="round" stroke-width="1"/>
                  <path id="Path_239463" data-name="Path 239463" d="M125.416,222.308c-3.31,2.157-4.933,3.815-25.32,3.815H65.6" transform="translate(-61.816 -154.243)" fill="none" stroke="#c47e2a" stroke-linecap="round" stroke-width="1"/>
                </g>
                <g id="Group_168025" data-name="Group 168025" transform="translate(13.18)">
                  <g id="Group_168024" data-name="Group 168024" transform="translate(0)">
                    <path id="Path_239464" data-name="Path 239464" d="M111.023,36.709c6.7-5.165,19.536-1.109,17.834,9.466s4.058,11.925,5.9,9.913c0,0-3.6,15.5-17.534,4.325S111.023,36.709,111.023,36.709Z" transform="translate(-66.959 -33.504)" fill="#5a2402"/>
                    <path id="Path_239465" data-name="Path 239465" d="M126.663,37.392c6.325-4.256,15.06,2.522,15.613,9.06s-4.952,6.522-4.952,6.522Z" transform="translate(-88.371 -33.855)" fill="#f7c272"/>
                    <path id="Path_239466" data-name="Path 239466" d="M134.251,68.248c-7.724-8.642-4.887-18-1.2-19.365,0,0-1.774-9.169,9.287-13.037s23.575-4.337,33.332,4.77c9.163,8.553,6.007,29.846-2.655,39.179S134.251,68.248,134.251,68.248Z" transform="translate(-129.35 -33.228)" fill="#5a2402"/>
                    <path id="Path_239467" data-name="Path 239467" d="M144.563,67.668a24.842,24.842,0,0,1-6.836,19.32l2.333,1.124s-1.4,2.612-6.921.4S129.929,76.7,129.929,76.7Z" transform="translate(-92.9 -40.84)" fill="#5a2402"/>
                    <g id="Group_168023" data-name="Group 168023" transform="translate(4.062 10.866)">
                      <g id="Group_168022" data-name="Group 168022" transform="translate(0)">
                        <g id="Group_168019" data-name="Group 168019" transform="translate(23.453 28.589)">
                          <path id="Path_239468" data-name="Path 239468" d="M138.059,101.241v5.553c0,5.732,2.9,8.585,10.241,6.173,4.782-1.572,7.086-5.43,7.086-8.938s.225-20.15.225-20.15L138.086,98.2Z" transform="translate(-138.059 -83.878)" fill="#f9d5bf"/>
                          <path id="Path_239469" data-name="Path 239469" d="M157.053,88.59c-.969,9.829-6.235,16-12.464,16-.006-.085-.006-.177-.006-.262V86.408Z" transform="translate(-144.583 -84.437)" fill="#fca695"/>
                        </g>
                        <path id="Path_239470" data-name="Path 239470" d="M138.729,59.931c-2.418,9.709.844,22.458,6.621,27.7s13.288,6.121,19.11,2.645S175.951,80.724,178,75.366s1-17.425-2.787-22.662-14.648-5.888-21.381-5.388S142.259,51.338,138.729,59.931Z" transform="translate(-137.923 -47.177)" fill="#f9d5bf"/>
                        <path id="Path_239471" data-name="Path 239471" d="M180.318,71.769c.062,1.067-.432,1.963-1.1,2s-1.261-.8-1.322-1.863.432-1.963,1.1-2S180.257,70.7,180.318,71.769Z" transform="translate(-170.348 -52.2)" fill="#5a2402"/>
                        <path id="Path_239472" data-name="Path 239472" d="M162.465,70.744c.062,1.067-.432,1.963-1.1,2s-1.261-.8-1.322-1.863.432-1.963,1.1-2S162.4,69.678,162.465,70.744Z" transform="translate(-138.587 -51.974)" fill="#5a2402"/>
                        <path id="Path_239473" data-name="Path 239473" d="M155.97,60.012c2.811-1.394,7.362-.219,7.886,1.625s-.152,2.82-.986,2.867-3-2.215-6.858-1.012C154.648,63.919,153.476,61.249,155.97,60.012Z" transform="translate(-135.852 -49.879)" fill="#5a2402"/>
                        <path id="Path_239474" data-name="Path 239474" d="M181.291,60.768c-2.47-1.09-6.109.555-6.349,2.442s.421,2.787,1.116,2.747,2.249-2.516,5.563-1.725C182.794,64.513,183.482,61.735,181.291,60.768Z" transform="translate(-170.409 -50.104)" fill="#5a2402"/>
                        <path id="Path_239475" data-name="Path 239475" d="M168.205,70.079a16.867,16.867,0,0,1-1.028,8.417,1.029,1.029,0,0,0,.933,1.417,9.617,9.617,0,0,0,3.611-.381" transform="translate(-153.337 -52.239)" fill="none" stroke="#db7665" stroke-linecap="round" stroke-width="1"/>
                        <path id="Path_239476" data-name="Path 239476" d="M6.333,2.959A5.465,5.465,0,0,0,0,.2" transform="translate(22.642 31.748) rotate(135)" fill="none" stroke="#db7665" stroke-linecap="round" stroke-width="1"/>
                        <g id="Group_168020" data-name="Group 168020" transform="translate(19.245 33.649)">
                          <path id="Path_239477" data-name="Path 239477" d="M159.744,87.743c.831-.051,2.977-1.845,3.28-1.309s-.453,1.757-1.23,2.346S158.913,87.794,159.744,87.743Z" transform="translate(-159.553 -86.334)" fill="#fca695" opacity="0.39"/>
                        </g>
                        <g id="Group_168021" data-name="Group 168021" transform="translate(37.386 16.164)">
                          <path id="Path_239478" data-name="Path 239478" d="M131.128,72.72c2.443-5.594,7.023-6.025,8.6-2.671s-1.413,10.565-6.549,11.37" transform="translate(-131.128 -67.928)" fill="#f9d5bf"/>
                          <path id="Path_239479" data-name="Path 239479" d="M138.111,72.472c1.051.54,2.068,2.568-.136,4.638a6.958,6.958,0,0,1-4.545,2.009s-.549-2.681.834-4.324S137.4,72.055,138.111,72.472Z" transform="translate(-131.977 -68.912)" fill="#fca695"/>
                          <path id="Path_239480" data-name="Path 239480" d="M133.883,75.767c2.174-4.249,4.624-3.7,5.142-2.692" transform="translate(-132.153 -68.908)" fill="none" stroke="#db7665" stroke-linecap="round" stroke-width="1"/>
                          <path id="Path_239481" data-name="Path 239481" d="M136.608,74.559c1.813-.676,2.069,1.771,1.415,2.42" transform="translate(-133.601 -69.367)" fill="none" stroke="#db7665" stroke-linecap="round" stroke-width="1"/>
                        </g>
                        <path id="Path_239482" data-name="Path 239482" d="M141.978,101.1a24.346,24.346,0,0,0,15.848-14.343" transform="translate(-119.874 -55.924)" fill="none" stroke="#db7665" stroke-linecap="round" stroke-width="1"/>
                      </g>
                      <path id="Path_239483" data-name="Path 239483" d="M155.869,75.438a2.6,2.6,0,1,1-2.632-1.823A2.3,2.3,0,0,1,155.869,75.438Z" transform="translate(-124.813 -53.019)" fill="#fca695"/>
                      <path id="Path_239484" data-name="Path 239484" d="M184.193,77.064a2.6,2.6,0,1,1-2.632-1.823A2.3,2.3,0,0,1,184.193,77.064Z" transform="translate(-175.201 -53.379)" fill="#fca695"/>
                    </g>
                  </g>
                  <path id="Path_239485" data-name="Path 239485" d="M178.848,62.7c-4.227,2.328-4.474,6.9-5.111,7.629s-2.987-13.984-2.987-13.984S155.1,59.422,148.4,51.771c-.251-.3.129,1.821,1.8,3.291a11.937,11.937,0,0,1-9.686-.571l-3.17,10.375S135.9,55.2,140.236,49.694s11.129-6.919,19.837-6.74S181.49,50.358,178.848,62.7Z" transform="translate(-133.399 -35.374)" fill="#5a2402"/>
                </g>
              </g>
              <g id="Group_168027" data-name="Group 168027" transform="translate(0 105.068)">
                <path id="Path_239486" data-name="Path 239486" d="M123.443,235.7h28.883a3.652,3.652,0,0,0,3.652-3.652v-1.108a3.651,3.651,0,0,0-3.652-3.651H123.443Z" transform="translate(-42.903 -181.186)" fill="#91abe5"/>
                <path id="Path_239487" data-name="Path 239487" d="M133.174,233.739h11.58a1.27,1.27,0,0,0,1.271-1.271v-.386a1.27,1.27,0,0,0-1.271-1.271h-11.58a1.27,1.27,0,0,0-1.271,1.271v.386A1.271,1.271,0,0,0,133.174,233.739Z" transform="translate(-39.54 -181.964)" fill="none" stroke="#a8c5e2" stroke-width="1"/>
                <path id="Path_239488" data-name="Path 239488" d="M159.758,235.7H232.4a3.652,3.652,0,0,0,3.652-3.652v-1.108a3.651,3.651,0,0,0-3.652-3.651H159.758a3.652,3.652,0,0,0-3.652,3.651v1.108A3.652,3.652,0,0,0,159.758,235.7Z" transform="translate(-148.426 -181.186)" fill="#a8bbef"/>
                <path id="Path_239489" data-name="Path 239489" d="M164.15,214.144h71.361a4.488,4.488,0,0,0,4.439-5.152l-5.143-34.424a7.582,7.582,0,0,0-7.5-6.462H162.461a4.472,4.472,0,0,0-4.423,5.133Z" transform="translate(-153.836 -168.105)" fill="#91abe5"/>
                <path id="Path_239490" data-name="Path 239490" d="M175.281,214.144h65.37a4.687,4.687,0,0,0,4.636-5.38l-5.109-34.2a7.582,7.582,0,0,0-7.5-6.462H167.832a4.472,4.472,0,0,0-4.423,5.133l5.261,35.207A6.686,6.686,0,0,0,175.281,214.144Z" transform="translate(-163.359 -168.105)" fill="#a8bbef"/>
                <line id="Line_74" data-name="Line 74" x1="64.308" transform="translate(12.984 46.039)" fill="none" stroke="#708699" stroke-linecap="round" stroke-width="1"/>
                <path id="Path_239491" data-name="Path 239491" d="M208.756,197.478c.632,4.174,3.659,7.182,6.752,6.706s5.085-4.238,4.447-8.412-3.659-7.182-6.752-6.713S208.118,193.3,208.756,197.478Z" transform="translate(-173.366 -172.725)" fill="#fff"/>
              </g>
            </g>
          </g>
        </g>
        <g id="Group_168033" data-name="Group 168033" transform="translate(0 102.426)">
          <rect id="Rectangle_23796" data-name="Rectangle 23796" width="3.576" height="6.294" transform="translate(96.963 49.807)" fill="#5f799e"/>
          <rect id="Rectangle_23797" data-name="Rectangle 23797" width="3.576" height="7.95" transform="translate(79.708 236.12)" fill="#5f799e"/>
        </g>
      </g>
      <g id="Group_168182" data-name="Group 168182" opacity="0.5">
        <path id="Path_239407" data-name="Path 239407" d="M226.691,120.629l-124.585.115,1.076,87.338" transform="translate(1467.907 2726.668)" fill="none" stroke="#90aed1" stroke-width="1" stroke-dasharray="4"/>
        <path id="Path_239404" data-name="Path 239404" d="M228.546,133.814l116.267.023V105.664" transform="translate(1469.269 2713.575)" fill="none" stroke="#90aed1" stroke-width="1" stroke-dasharray="4"/>
        <path id="Path_239405" data-name="Path 239405" d="M176.646,130.3h51.333" transform="translate(1494.655 2823.266)" fill="none" stroke="#90aed1" stroke-width="1" stroke-dasharray="4"/>
        <ellipse id="Ellipse_525" data-name="Ellipse 525" cx="2.706" cy="2.706" rx="2.706" ry="2.706" transform="translate(1811.375 2816.533)" fill="#90aed1" opacity="0.61"/>
        <ellipse id="Ellipse_526" data-name="Ellipse 526" cx="2.706" cy="2.706" rx="2.706" ry="2.706" transform="translate(1724.941 2950.862)" fill="#fff" opacity="0.6"/>
        <ellipse id="Ellipse_527" data-name="Ellipse 527" cx="3.206" cy="3.206" rx="3.206" ry="3.206" transform="translate(1567.941 2931.216)" fill="#90aed1" opacity="0.7"/>
        <path id="Path_239511" data-name="Path 239511" d="M301.538,285.645H262.069V232.691" transform="translate(1409.432 2884.953)" fill="none" stroke="#90aed1" stroke-width="1" stroke-dasharray="4"/>
        <line id="Line_75" data-name="Line 75" y2="281.913" transform="translate(1671.5 2847.5)" fill="none" stroke="#90aed1" stroke-width="1" stroke-dasharray="4"/>
      </g>
      <text id="SSD" transform="translate(1813.009 2782.941)" fill="#fff" font-size="32" font-family="OpenSans-Bold, Open Sans" font-weight="700"><tspan x="-29" y="0">SSD</tspan></text>
    </g>
    <g id="Group_168183" data-name="Group 168183" opacity="0.3">
      <path id="Path_236648" data-name="Path 236648" d="M334.95,117.029h1.439v-2.159h2.159V113.43h-3.6Z" transform="translate(-211.696 2455.512)" fill="#90aed1"/>
      <path id="Path_236649" data-name="Path 236649" d="M336.45,171.818h1.439v-5.441H336.45Zm0-9.515h1.439v-5.441H336.45Zm0-9.529h1.439v-5.441H336.45Zm0-9.515h1.439v-5.441H336.45Zm0-9.529h1.439v-5.441H336.45Zm0-9.529h1.439V118.76H336.45Z" transform="translate(-213.196 2457.854)" fill="#90aed1"/>
      <path id="Path_239303" data-name="Path 239303" d="M336.45,171.818h1.439v-5.441H336.45Zm0-9.515h1.439v-5.441H336.45Zm0-9.529h1.439v-5.441H336.45Zm0-9.515h1.439v-5.441H336.45Zm0-9.529h1.439v-5.441H336.45Zm0-9.529h1.439V118.76H336.45Z" transform="translate(-213.196 2571.97)" fill="#90aed1"/>
      <path id="Path_239301" data-name="Path 239301" d="M336.45,171.818h1.439v-5.441H336.45Zm0-9.515h1.439v-5.441H336.45Zm0-9.529h1.439v-5.441H336.45Zm0-9.515h1.439v-5.441H336.45Zm0-9.529h1.439v-5.441H336.45Zm0-9.529h1.439V118.76H336.45Z" transform="translate(-213.196 2514.912)" fill="#90aed1"/>
      <path id="Path_239302" data-name="Path 239302" d="M336.45,171.818h1.439v-5.441H336.45Zm0-9.515h1.439v-5.441H336.45Zm0-9.529h1.439v-5.441H336.45Zm0-9.515h1.439v-5.441H336.45Zm0-9.529h1.439v-5.441H336.45Zm0-9.529h1.439V118.76H336.45Z" transform="translate(-213.196 2629.029)" fill="#90aed1"/>
      <path id="Path_239304" data-name="Path 239304" d="M336.45,171.818h1.439v-5.441H336.45Zm0-9.515h1.439v-5.441H336.45Zm0-9.529h1.439v-5.441H336.45Zm0-9.515h1.439v-5.441H336.45Zm0-9.529h1.439v-5.441H336.45Zm0-9.529h1.439V118.76H336.45Z" transform="translate(-213.196 2686.087)" fill="#90aed1"/>
      <path id="Path_239743" data-name="Path 239743" d="M317.366,117.462a2.706,2.706,0,1,0-2.706-2.706A2.706,2.706,0,0,0,317.366,117.462Z" transform="translate(-193.393 2744.906)" fill="#90aed1"/>
      <path id="Path_236647" data-name="Path 236647" d="M321.32,114.869h5.6V113.43h-5.6Zm9.788,0h5.585V113.43h-5.585Z" transform="translate(-190.221 2455.512)" fill="#90aed1"/>
      <path id="Path_236650" data-name="Path 236650" d="M317.366,117.462a2.706,2.706,0,1,0-2.706-2.706A2.706,2.706,0,0,0,317.366,117.462Z" transform="translate(-164.014 2454.906)" fill="#90aed1"/>
      <path id="Path_236652" data-name="Path 236652" d="M168,114.869h5.585V113.43H168Zm9.774,0h5.542V113.43h-5.6Z" transform="translate(183.853 2455.512)" fill="#90aed1"/>
      <path id="Path_236653" data-name="Path 236653" d="M164.709,117.029h1.439v-3.6h-3.6v1.439h2.159Z" transform="translate(208.865 2455.512)" fill="#90aed1"/>
      <path id="Path_236654" data-name="Path 236654" d="M162.55,171.818h1.439v-5.441H162.55Zm0-9.515h1.439v-5.441H162.55Zm0-9.529h1.439v-5.441H162.55Zm0-9.515h1.439v-5.441H162.55Zm0-9.529h1.439v-5.441H162.55Zm0-9.529h1.439V118.76H162.55Z" transform="translate(211.024 2457.854)" fill="#90aed1"/>
      <ellipse id="Ellipse_416" data-name="Ellipse 416" cx="2.706" cy="2.706" rx="2.706" ry="2.706" transform="translate(342.209 2566.956)" fill="#90aed1"/>
      <path id="Path_236655" data-name="Path 236655" d="M166.582,161.186a2.706,2.706,0,1,1-2.706-2.706A2.706,2.706,0,0,1,166.582,161.186Z" transform="translate(210.418 2541.31)" fill="#90aed1"/>
      <path id="Path_237410" data-name="Path 237410" d="M162.55,162.3h1.439v-5.441H162.55Zm0-9.529h1.439v-5.441H162.55Zm0-9.515h1.439v-5.441H162.55Zm0-9.529h1.439v-5.441H162.55Zm0-9.529h1.439V118.76H162.55Z" transform="translate(211.024 2513.854)" fill="#90aed1"/>
      <path id="Path_239306" data-name="Path 239306" d="M162.55,162.3h1.439v-5.441H162.55Zm0-9.529h1.439v-5.441H162.55Z" transform="translate(211.024 2532.854)" fill="#90aed1"/>
    </g>
  </g>
</svg>
