<svg xmlns="http://www.w3.org/2000/svg" width="119.168" height="106.915" viewBox="0 0 119.168 106.915">
  <g id="Group_163766" data-name="Group 163766" transform="translate(-476.416 -5649)">
    <g id="Group_163765" data-name="Group 163765" transform="translate(483.879 5649)">
      <g id="Group_163764" data-name="Group 163764" transform="translate(0 0)">
        <g id="Group_163762" data-name="Group 163762" transform="translate(3.789 12.72)">
          <path id="Path_234761" data-name="Path 234761" d="M64.607,122.748l14.062-19.355M36.923,115.9l6.928-21.322m12.54-5.515,17.685,5.746M51.534,59.63h20.2m11.1,10.122V91.237m18.178,31.442-14.05-19.339m42.976,7.1-16.609,12.067m-4.985-33.138-16.988,5.52m17.9-38.979,6.614,20.356M86,146.962,67.861,133.783" transform="translate(-36.923 -55.91)" fill="rgba(0,0,0,0)" stroke="#c7e0ec" stroke-linejoin="round" stroke-width="2"/>
        </g>
        <path id="Path_234762" data-name="Path 234762" d="M76.3,132.875a3.143,3.143,0,1,0,.7,4.39A3.143,3.143,0,0,0,76.3,132.875ZM117.313,95.8a3.143,3.143,0,1,0,4.39.7A3.143,3.143,0,0,0,117.313,95.8ZM94.722,45.337a3.143,3.143,0,1,0,2.018-3.961A3.143,3.143,0,0,0,94.722,45.337ZM39.751,51.229a3.143,3.143,0,1,0-3.143-3.143A3.143,3.143,0,0,0,39.751,51.229Zm-11.383,54.1a3.143,3.143,0,1,0-3.961,2.018A3.143,3.143,0,0,0,28.368,105.33Z" transform="translate(-21.589 -31.646)" fill="#c7e0ec" fill-rule="evenodd"/>
        <g id="Group_163763" data-name="Group 163763" transform="translate(0 0)">
          <ellipse id="Ellipse_226" data-name="Ellipse 226" cx="12.262" cy="12.262" rx="12.262" ry="12.262" transform="translate(33.25 10.97) rotate(-26.57)" fill="#636c77"/>
          <path id="Path_234763" data-name="Path 234763" d="M231.931,36.975a4.174,4.174,0,1,0,4.174-4.174A4.174,4.174,0,0,0,231.931,36.975Z" transform="translate(-186.403 -25.028)" fill="#efc7a4" fill-rule="evenodd"/>
          <path id="Path_234764" data-name="Path 234764" d="M228.212,89.606a12.261,12.261,0,0,1-17.381,0,9.035,9.035,0,0,1,17.381,0Z" transform="translate(-169.819 -64.516)" fill="#fdcd56" fill-rule="evenodd"/>
          <circle id="Ellipse_227" data-name="Ellipse 227" cx="12.262" cy="12.262" r="12.262" transform="translate(72.94 31.174) rotate(-3.15)" fill="#636c77"/>
          <path id="Path_234765" data-name="Path 234765" d="M400.9,159.741a4.174,4.174,0,1,0,4.174-4.174A4.174,4.174,0,0,0,400.9,159.741Z" transform="translate(-319.21 -121.517)" fill="#efc7a4" fill-rule="evenodd"/>
          <path id="Path_234766" data-name="Path 234766" d="M397.185,212.372a12.261,12.261,0,0,1-17.381,0,9.035,9.035,0,0,1,17.381,0Z" transform="translate(-302.626 -161.006)" fill="#c7e0ec" fill-rule="evenodd"/>
          <ellipse id="Ellipse_228" data-name="Ellipse 228" cx="12.262" cy="12.262" rx="12.262" ry="12.262" transform="translate(0 31.87) rotate(-6.28)" fill="#636c77"/>
          <path id="Path_234767" data-name="Path 234767" d="M62.957,159.741a4.174,4.174,0,1,0,4.174-4.174A4.174,4.174,0,0,0,62.957,159.741Z" transform="translate(-53.596 -121.517)" fill="#efc7a4" fill-rule="evenodd"/>
          <path id="Path_234768" data-name="Path 234768" d="M59.238,212.372a12.261,12.261,0,0,1-17.381,0,9.035,9.035,0,0,1,17.381,0Z" transform="translate(-37.012 -161.006)" fill="#c6ea94" fill-rule="evenodd"/>
          <circle id="Ellipse_229" data-name="Ellipse 229" cx="12.262" cy="12.262" r="12.262" transform="translate(12.602 76.102) rotate(-13.34)" fill="#636c77"/>
          <path id="Path_234769" data-name="Path 234769" d="M127.5,358.382a4.174,4.174,0,1,0,4.174-4.174A4.174,4.174,0,0,0,127.5,358.382Z" transform="translate(-104.323 -277.642)" fill="#efc7a4" fill-rule="evenodd"/>
          <path id="Path_234770" data-name="Path 234770" d="M123.78,411.013a12.261,12.261,0,0,1-17.381,0,9.035,9.035,0,0,1,17.381,0Z" transform="translate(-87.74 -317.13)" fill="#66d4f1" fill-rule="evenodd"/>
          <circle id="Ellipse_230" data-name="Ellipse 230" cx="12.262" cy="12.262" r="12.262" transform="translate(59.792 72.97)" fill="#636c77"/>
          <path id="Path_234771" data-name="Path 234771" d="M336.363,358.381a4.174,4.174,0,1,0,4.174-4.174A4.174,4.174,0,0,0,336.363,358.381Z" transform="translate(-268.483 -277.641)" fill="#efc7a4" fill-rule="evenodd"/>
          <path id="Path_234772" data-name="Path 234772" d="M332.643,411.012a12.261,12.261,0,0,1-17.381,0,9.035,9.035,0,0,1,17.381,0Z" transform="translate(-251.898 -317.129)" fill="#b3a4ee" fill-rule="evenodd"/>
          <circle id="Ellipse_231" data-name="Ellipse 231" cx="14.911" cy="14.911" r="14.911" transform="translate(32.019 42.961) rotate(-12.04)" fill="#636c77"/>
          <path id="Path_234773" data-name="Path 234773" d="M227.719,206.8a5.076,5.076,0,1,0,5.076-5.075A5.076,5.076,0,0,0,227.719,206.8Z" transform="translate(-183.093 -157.796)" fill="#efc7a4" fill-rule="evenodd"/>
          <path id="Path_234774" data-name="Path 234774" d="M223.2,270.8a14.909,14.909,0,0,1-21.134,0,10.986,10.986,0,0,1,21.134,0Z" transform="translate(-162.926 -205.813)" fill="#f76c82" fill-rule="evenodd"/>
        </g>
      </g>
    </g>
    <g id="Rectangle_18712" data-name="Rectangle 18712" transform="translate(482.16 5664.74) rotate(30)" fill="#595959" stroke="#fff" stroke-width="2">
      <rect width="130.971" height="11.487" rx="4" stroke="none"/>
      <rect x="1" y="1" width="128.971" height="9.487" rx="3" fill="none"/>
    </g>
  </g>
</svg>
