<svg xmlns="http://www.w3.org/2000/svg" width="39.635" height="35.441" viewBox="0 0 39.635 35.441">
  <g id="Group_167962" data-name="Group 167962" transform="translate(-37.2 -60.3)">
    <path id="Path_239294" data-name="Path 239294" d="M75.667,88.242h-37.3A1.171,1.171,0,0,1,37.2,87.074V61.468A1.171,1.171,0,0,1,38.368,60.3h37.3a1.171,1.171,0,0,1,1.168,1.168v25.6A1.173,1.173,0,0,1,75.667,88.242Z" fill="#e8f3ff"/>
    <g id="Group_167957" data-name="Group 167957" transform="translate(41.158 64.14)">
      <path id="Path_239295" data-name="Path 239295" d="M84.985,112.754a8.688,8.688,0,0,1-2.292-.3,5.9,5.9,0,0,1-1.793-.77l.9-2.02a6.214,6.214,0,0,0,1.5.688,5.561,5.561,0,0,0,1.694.272,3.555,3.555,0,0,0,.915-.1,1.165,1.165,0,0,0,.507-.281.6.6,0,0,0-.145-.933,2.794,2.794,0,0,0-.788-.317c-.326-.082-.679-.163-1.078-.245a11.339,11.339,0,0,1-1.177-.317,4.473,4.473,0,0,1-1.069-.507,2.423,2.423,0,0,1-.788-.815,2.467,2.467,0,0,1-.308-1.277,2.764,2.764,0,0,1,.48-1.576,3.265,3.265,0,0,1,1.431-1.132,5.749,5.749,0,0,1,2.382-.426,8.158,8.158,0,0,1,1.875.217,5.888,5.888,0,0,1,1.639.634l-.842,2.038a6.415,6.415,0,0,0-1.368-.562,4.847,4.847,0,0,0-1.313-.19,2.84,2.84,0,0,0-.915.118,1.046,1.046,0,0,0-.5.308.714.714,0,0,0-.154.444.581.581,0,0,0,.3.507,2.7,2.7,0,0,0,.788.308c.326.082.688.163,1.078.245s.788.19,1.177.308a4.69,4.69,0,0,1,1.078.5,2.4,2.4,0,0,1,.779.815,2.456,2.456,0,0,1,.3,1.268,2.749,2.749,0,0,1-.48,1.558,3.219,3.219,0,0,1-1.431,1.141A6.373,6.373,0,0,1,84.985,112.754Zm8.958,0a8.687,8.687,0,0,1-2.292-.3,5.9,5.9,0,0,1-1.793-.77l.9-2.02a6.215,6.215,0,0,0,1.5.688,5.56,5.56,0,0,0,1.694.272,3.556,3.556,0,0,0,.915-.1,1.165,1.165,0,0,0,.507-.281.6.6,0,0,0-.145-.933,2.8,2.8,0,0,0-.788-.317c-.326-.082-.679-.163-1.078-.245a11.343,11.343,0,0,1-1.177-.317,4.473,4.473,0,0,1-1.069-.507,2.423,2.423,0,0,1-.788-.815,2.467,2.467,0,0,1-.308-1.277,2.764,2.764,0,0,1,.48-1.576,3.265,3.265,0,0,1,1.431-1.132,5.75,5.75,0,0,1,2.382-.426,8.158,8.158,0,0,1,1.875.217,5.887,5.887,0,0,1,1.639.634l-.842,2.038a6.415,6.415,0,0,0-1.368-.562,4.847,4.847,0,0,0-1.313-.19,2.84,2.84,0,0,0-.915.118,1.046,1.046,0,0,0-.5.308.714.714,0,0,0-.154.444.581.581,0,0,0,.3.507,2.7,2.7,0,0,0,.788.308c.326.082.688.163,1.078.245s.788.19,1.177.308a4.69,4.69,0,0,1,1.078.5,2.4,2.4,0,0,1,.779.815,2.456,2.456,0,0,1,.3,1.268,2.749,2.749,0,0,1-.48,1.558,3.218,3.218,0,0,1-1.431,1.141A6.373,6.373,0,0,1,93.943,112.754Zm5.552-.19v-9.691h2.744v7.518h4.628v2.174Z" transform="translate(-80.9 -102.7)" fill="#272361"/>
    </g>
    <g id="Group_167958" data-name="Group 167958" transform="translate(41.149 77.509)">
      <path id="Path_239296" data-name="Path 239296" d="M94.911,250.3H81.633a.833.833,0,0,0,0,1.667H94.911a.833.833,0,0,0,0-1.667Zm0,4.094H81.633a.833.833,0,0,0,0,1.667H94.911a.833.833,0,1,0,0-1.667Z" transform="translate(-80.8 -250.3)" fill="#707789"/>
    </g>
    <path id="Path_239297" data-name="Path 239297" d="M328.573,347.471l-3.686-2.074-3.686,2.074V337.1h7.373Z" transform="translate(-258.277 -251.729)" fill="#ec2027"/>
    <circle id="Ellipse_496" data-name="Ellipse 496" cx="6.268" cy="6.268" r="6.268" transform="translate(60.342 77.509)" fill="#fbb03a"/>
    <circle id="Ellipse_497" data-name="Ellipse 497" cx="4.61" cy="4.61" r="4.61" transform="translate(61.999 79.166)" fill="#faa332"/>
  </g>
</svg>
