<svg version="1.2" xmlns="http://www.w3.org/2000/svg" viewBox="0 0 637 510" width="637" height="510">
	<title>web_hosting_banner_img-svg</title>
	<defs>
		<clipPath clipPathUnits="userSpaceOnUse" id="cp1">
			<path d="m0-36h757.12v580.72h-757.12z"/>
		</clipPath>
		<clipPath clipPathUnits="userSpaceOnUse" id="cp2">
			<path d="m-4.49-36h757.13v580.72h-757.13z"/>
		</clipPath>
		<clipPath clipPathUnits="userSpaceOnUse" id="cp3">
			<path d="m379.76 442.48h48.62v3.38h-48.62z"/>
		</clipPath>
		<clipPath clipPathUnits="userSpaceOnUse" id="cp4">
			<path d="m376.24 476.59h55.66v2.36h-55.66z"/>
		</clipPath>
		<clipPath clipPathUnits="userSpaceOnUse" id="cp5">
			<path d="m392.11 412.42h20.16v20.16h-20.16z"/>
		</clipPath>
		<clipPath clipPathUnits="userSpaceOnUse" id="cp6">
			<path d="m163.3 486.23h124.81v42.13h-124.81z"/>
		</clipPath>
		<clipPath clipPathUnits="userSpaceOnUse" id="cp7">
			<path d="m163.3 437.73h124.81v42.14h-124.81z"/>
		</clipPath>
		<clipPath clipPathUnits="userSpaceOnUse" id="cp8">
			<path d="m163.3 390.39h124.81v42.13h-124.81z"/>
		</clipPath>
		<clipPath clipPathUnits="userSpaceOnUse" id="cp9">
			<path d="m538.57 411.21h122.97v1.59h-122.97z"/>
		</clipPath>
		<clipPath clipPathUnits="userSpaceOnUse" id="cp10">
			<path d="m533.16 403.28h132.05v1.57h-132.05z"/>
		</clipPath>
		<clipPath clipPathUnits="userSpaceOnUse" id="cp11">
			<path d="m622.53 379.69h34.98v8.66h-34.98z"/>
		</clipPath>
		<clipPath clipPathUnits="userSpaceOnUse" id="cp12">
			<path d="m522.21 355.51h155.69v55.7h-155.69z"/>
		</clipPath>
		<clipPath clipPathUnits="userSpaceOnUse" id="cp13">
			<path d="m623.84 380.1h6.04v6.04h-6.04z"/>
		</clipPath>
		<clipPath clipPathUnits="userSpaceOnUse" id="cp14">
			<path d="m636.69 380.1h6.03v6.04h-6.03z"/>
		</clipPath>
		<clipPath clipPathUnits="userSpaceOnUse" id="cp15">
			<path d="m650.16 380.1h6.04v6.04h-6.04z"/>
		</clipPath>
		<clipPath clipPathUnits="userSpaceOnUse" id="cp16">
			<path d="m533.16 470.09h132.05v1.57h-132.05z"/>
		</clipPath>
		<clipPath clipPathUnits="userSpaceOnUse" id="cp17">
			<path d="m622.53 446.5h34.98v8.66h-34.98z"/>
		</clipPath>
		<clipPath clipPathUnits="userSpaceOnUse" id="cp18">
			<path d="m522.21 422.32h155.69v55.7h-155.69z"/>
		</clipPath>
		<clipPath clipPathUnits="userSpaceOnUse" id="cp19">
			<path d="m623.84 446.91h6.04v6.04h-6.04z"/>
		</clipPath>
		<clipPath clipPathUnits="userSpaceOnUse" id="cp20">
			<path d="m636.69 446.91h6.03v6.04h-6.03z"/>
		</clipPath>
		<clipPath clipPathUnits="userSpaceOnUse" id="cp21">
			<path d="m650.16 446.91h6.04v6.04h-6.04z"/>
		</clipPath>
		<clipPath clipPathUnits="userSpaceOnUse" id="cp22">
			<path d="m538.57 477.91h122.97v1.59h-122.97z"/>
		</clipPath>
		<clipPath clipPathUnits="userSpaceOnUse" id="cp23">
			<path d="m533.16 536.79h132.05v1.57h-132.05z"/>
		</clipPath>
		<clipPath clipPathUnits="userSpaceOnUse" id="cp24">
			<path d="m622.53 513.2h34.98v8.66h-34.98z"/>
		</clipPath>
		<clipPath clipPathUnits="userSpaceOnUse" id="cp25">
			<path d="m522.21 489.02h155.69v55.7h-155.69z"/>
		</clipPath>
		<clipPath clipPathUnits="userSpaceOnUse" id="cp26">
			<path d="m623.84 513.61h6.04v6.04h-6.04z"/>
		</clipPath>
		<clipPath clipPathUnits="userSpaceOnUse" id="cp27">
			<path d="m636.69 513.61h6.03v6.04h-6.03z"/>
		</clipPath>
		<clipPath clipPathUnits="userSpaceOnUse" id="cp28">
			<path d="m650.16 513.61h6.04v6.04h-6.04z"/>
		</clipPath>
		<clipPath clipPathUnits="userSpaceOnUse" id="cp29">
			<path d="m546.61 71.05h23.57v13.4h-23.57z"/>
		</clipPath>
		<clipPath clipPathUnits="userSpaceOnUse" id="cp30">
			<path d="m594.29 74.47h16.34v19.85h-16.34z"/>
		</clipPath>
		<clipPath clipPathUnits="userSpaceOnUse" id="cp31">
			<path d="m200.11 143.3h95.94v61.91h-95.94z"/>
		</clipPath>
		<clipPath clipPathUnits="userSpaceOnUse" id="cp32">
			<path d="m245.73 203.27h14.01v14.01h-14.01z"/>
		</clipPath>
		<clipPath clipPathUnits="userSpaceOnUse" id="cp33">
			<path d="m249.21 178.1h32.81v35.43h-32.81z"/>
		</clipPath>
		<clipPath clipPathUnits="userSpaceOnUse" id="cp34">
			<path d="m236.81 143.3h60.66v97.35h-60.66z"/>
		</clipPath>
		<clipPath clipPathUnits="userSpaceOnUse" id="cp35">
			<path d="m369.11 332.97h87.92v26.49h-87.92z"/>
		</clipPath>
		<clipPath clipPathUnits="userSpaceOnUse" id="cp36">
			<path d="m337.62 141.42h139.36v27.08h-139.36z"/>
		</clipPath>
		<clipPath clipPathUnits="userSpaceOnUse" id="cp37">
			<path d="m324.06 72.66h23.47v9.41h-23.47z"/>
		</clipPath>
		<clipPath clipPathUnits="userSpaceOnUse" id="cp38">
			<path d="m421.69 46.18h59.27v105.14h-59.27z"/>
		</clipPath>
		<clipPath clipPathUnits="userSpaceOnUse" id="cp39">
			<path d="m102.35 255.17h36.57v78.9h-36.57z"/>
		</clipPath>
		<clipPath clipPathUnits="userSpaceOnUse" id="cp40">
			<path d="m139.7 245.04h38.83v79.48h-38.83z"/>
		</clipPath>
		<clipPath clipPathUnits="userSpaceOnUse" id="cp41">
			<path d="m119.54 254.64h18.93v72.34h-18.93z"/>
		</clipPath>
		<clipPath clipPathUnits="userSpaceOnUse" id="cp42">
			<path d="m159.15 244.51h18.94v72.34h-18.94z"/>
		</clipPath>
		<clipPath clipPathUnits="userSpaceOnUse" id="cp43">
			<path d="m139.34 249.57h18.94v72.34h-18.94z"/>
		</clipPath>
		<clipPath clipPathUnits="userSpaceOnUse" id="cp44">
			<path d="m163.25 215.5h52.79v118.68h-52.79z"/>
		</clipPath>
		<clipPath clipPathUnits="userSpaceOnUse" id="cp45">
			<path d="m412.97 441.71h57.42v67.79h-57.42z"/>
		</clipPath>
		<clipPath clipPathUnits="userSpaceOnUse" id="cp46">
			<path d="m435.75 434.83h12.83v8.04h-12.83z"/>
		</clipPath>
		<clipPath clipPathUnits="userSpaceOnUse" id="cp47">
			<path d="m432.92 466.4h19.24v30.84h-19.24z"/>
		</clipPath>
		<clipPath clipPathUnits="userSpaceOnUse" id="cp48">
			<path d="m528.28 230.54h103.92v107.04h-103.92z"/>
		</clipPath>
		<clipPath clipPathUnits="userSpaceOnUse" id="cp49">
			<path d="m527.57 227.71h99.58v39.22h-99.58z"/>
		</clipPath>
		<clipPath clipPathUnits="userSpaceOnUse" id="cp50">
			<path d="m563.34 246.15h51.15v70.64h-51.15z"/>
		</clipPath>
		<clipPath clipPathUnits="userSpaceOnUse" id="cp51">
			<path d="m566.26 273.45h4.99v3.13h-4.99z"/>
		</clipPath>
		<clipPath clipPathUnits="userSpaceOnUse" id="cp52">
			<path d="m594.36 265.05h4.99v3.13h-4.99z"/>
		</clipPath>
		<clipPath clipPathUnits="userSpaceOnUse" id="cp53">
			<path d="m597.05 238.57h42.75v40.95h-42.75z"/>
		</clipPath>
	</defs>
	<style>
		.s0 { fill: #ecf2ff } 
		.s1 { fill: #18b362 } 
		.s2 { fill: #12a558 } 
		.s3 { fill: none;stroke: #12a558 } 
		.s4 { fill: none;stroke: #12a558;stroke-dasharray: 4.046 } 
		.s5 { fill: none;stroke: #ffc82e } 
		.s6 { fill: #b6d7ff } 
		.s7 { fill: #ffffff } 
		.s8 { mix-blend-mode: soft-light;fill: #000000 } 
		.s9 { fill: #407aff } 
		.s10 { fill: #2c6ace } 
		.s11 { mix-blend-mode: multiply;fill: #000000 } 
		.s12 { fill: #789bf4 } 
		.s13 { fill: none;stroke: #b6d7ff;stroke-width: 3.2 } 
		.s14 { mix-blend-mode: soft-light;fill: #ffffff } 
		.s15 { fill: #4b82ff } 
		.s16 { fill: none;stroke: #afcaef } 
		.s17 { fill: none;stroke: #afcaef;stroke-width: .7 } 
	</style>
	<g id="Group_167829">
		<g id="Clip-Path: Group_167828" clip-path="url(#cp1)">
			<g id="Group_167828">
				<g id="Group_167827">
					<g id="Clip-Path: Group_167826" clip-path="url(#cp2)">
						<g id="Group_167826">
							<path id="Path_239007" class="s0" d="m497.3 88.5c-30.4-22.2-71.4-29.1-107.4-18.2-56.2 17-96.6 73-154.8 81-38.3 5.2-76.3-11.8-115-11.9-58-0.2-114.3 44-124 101.2-9.7 57.2 32.1 119.4 89.4 128.3 19.5 3 39.8 0.6 58.6 6.3 26.8 8.1 45.8 31 67.7 48.3 54.4 42.9 135.4 51 195 15.6 18.6-11.1 35.3-26.1 56.1-32.3 19.9-5.9 41.3-3 61.9-5.8 49.7-6.7 91.9-50.4 97.1-100.2 4.7-45.9-20.2-82.2-54.9-108.6-22.1-16.7-17.4-21.6-27.7-48.4q-3.2-8.2-7.4-15.9-4.3-7.7-9.6-14.8-5.4-7-11.7-13.2-6.2-6.2-13.3-11.4z"/>
							<g id="Group_167832">
								<g id="Group_167831">
									<path id="Path_239008" class="s1" d="m100.8 46l-71.5-4.2 59.7 13.5z"/>
									<path id="Path_239009" class="s2" d="m89 55.3l-5.6 21.7-54.1-35.2z"/>
									<path id="Path_239010" class="s2" d="m82 61l1.4 16-16.4-10.7z"/>
									<path id="Path_239011" class="s1" d="m82 61l-52.7-19.2 32.1 34.8z"/>
								</g>
								<g id="Group_167830">
									<path id="Path_239012" fill-rule="evenodd" class="s3" d="m85.4 80.1q0.2 0.4 0.5 0.8"/>
									<path id="Path_239013" fill-rule="evenodd" class="s4" d="m87 82.5q1.9 2.8 3.9 5.6"/>
									<path id="Path_239014" fill-rule="evenodd" class="s4" d="m91.5 88.9q1.9 2.7 4 5.3 2.2 2.6 4.5 5 2.3 2.5 4.7 4.7 2.5 2.3 5.1 4.4c9.8 7.7 22 12.9 34.5 12.7 3 0 6.2-0.4 8.8-1.9 7-4.1 7.2-15.1 1.7-21.1-5.4-5.9-14.4-7.4-22.4-6.1q-0.8 0.1-1.6 0.2-0.8 0.2-1.6 0.5-0.8 0.2-1.6 0.5-0.7 0.4-1.5 0.8c-6.5 3.8-7.5 12.9-5.9 20.4 3 14.1 12.3 26.1 23.2 35.6 10.8 9.6 23.3 17 35 25.4 10.7 7.6 20.7 16 30.7 24.5 5.8 4.9 11.7 9.8 16.5 15.8 4.4 5.5 7.8 11.7 11.1 18l8.7 16.2"/>
								</g>
							</g>
							<path id="Path_239015" fill-rule="evenodd" class="s5" d="m269.3 293l0.7 1.3"/>
							<path id="Path_239016" class="s6" d="m444.2 416h-255.9c-1.4 0-2.7-0.3-3.9-0.8-1.2-0.5-2.3-1.2-3.3-2.2-0.9-0.9-1.6-2-2.2-3.3-0.5-1.2-0.7-2.5-0.7-3.8v-196.5c0-1.4 0.2-2.7 0.7-3.9 0.6-1.2 1.3-2.3 2.2-3.3 1-0.9 2.1-1.6 3.3-2.1 1.2-0.6 2.5-0.8 3.9-0.8h255.9c1.3 0 2.6 0.2 3.9 0.8 1.2 0.5 2.3 1.2 3.2 2.1 1 1 1.7 2.1 2.2 3.3 0.5 1.2 0.8 2.5 0.8 3.9v196.5c0 1.3-0.3 2.6-0.8 3.8-0.5 1.3-1.2 2.4-2.2 3.3-0.9 1-2 1.7-3.2 2.2-1.3 0.5-2.6 0.8-3.9 0.8z"/>
							<path id="Rectangle_23564" class="s7" d="m192.8 214.4h246.9v163.6h-246.9z"/>
							<path id="Path_239017" class="s6" d="m342.4 455.1h-52.4l0.6-5.6 0.3-2.2 3-28.2 0.3-3.1 1.4-13.3h41.2l1.5 13.3 0.3 3.1 3 28.2 0.2 2.2z"/>
							<path id="Path_239018" class="s6" d="m361.5 460h-90.5v-1.2c0-1.2 0.2-2.4 0.7-3.6 0.4-1.1 1.1-2.1 2-3 0.8-0.8 1.9-1.5 3-2 1.1-0.4 2.3-0.7 3.5-0.7h72c1.2 0 2.5 0.3 3.6 0.7 1.1 0.5 2.1 1.2 3 2 0.8 0.9 1.5 1.9 2 3 0.5 1.2 0.7 2.4 0.7 3.6z"/>
							<g id="Group_167675" style="opacity: .2">
								<g id="Group_167674">
									<g id="Clip-Path: Group_167673" clip-path="url(#cp3)">
										<g id="Group_167673">
											<path id="Path_239019" class="s8" d="m338.6 419.1h-44.7l0.3-3.1h44.1z"/>
										</g>
									</g>
								</g>
							</g>
							<g id="Group_167678" style="opacity: .2">
								<g id="Group_167677">
									<g id="Clip-Path: Group_167676" clip-path="url(#cp4)">
										<g id="Group_167676">
											<path id="Path_239020" class="s8" d="m341.8 449.5h-51.2l0.3-2.2h50.7z"/>
										</g>
									</g>
								</g>
							</g>
							<g id="Group_167681" style="opacity: .2">
								<g id="Group_167680">
									<g id="Clip-Path: Group_167679" clip-path="url(#cp5)">
										<g id="Group_167679">
											<path id="Path_239021" class="s8" d="m323.8 397.6c0 3.8-2.3 7.1-5.8 8.6-3.4 1.4-7.4 0.6-10.1-2-2.6-2.7-3.4-6.7-2-10.1 1.5-3.5 4.9-5.8 8.6-5.8 1.2 0 2.4 0.3 3.5 0.7 1.2 0.5 2.2 1.2 3.1 2.1 0.8 0.8 1.5 1.8 2 3 0.4 1.1 0.7 2.3 0.7 3.5z"/>
										</g>
									</g>
								</g>
							</g>
							<path id="Path_239022" class="s9" d="m209.6 488.3c0 2.4-1.9 4.6-5.2 6.7-9.1 5.5-29 9.3-52.2 9.3-31.7 0-57.4-7.2-57.4-16 0-4.6 7-8.8 18.2-11.7 10.3-2.7 24.1-4.4 39.2-4.4q4.2 0 8.4 0.2 4.3 0.2 8.5 0.5 4.2 0.4 8.3 1 4.2 0.6 8.4 1.4c8.7 1.7 15.5 4.1 19.6 7 2.7 1.8 4.2 3.8 4.2 6z"/>
							<path id="Rectangle_23568" class="s9" d="m94.8 456.2h114.8v32.1h-114.8z"/>
							<g id="Group_167684" style="opacity: .2">
								<g id="Group_167683">
									<g id="Clip-Path: Group_167682" clip-path="url(#cp6)">
										<g id="Group_167682">
											<path id="Path_239023" class="s8" d="m209.6 456.2v32.1c0 2.4-1.9 4.6-5.2 6.7 0.2-2.2 0.6-5.1 0.7-6.7 0.1-0.7 0.2-1.2 0.2-1.3q0.1-0.6 0.1-1.2 0.1-0.6 0.1-1.2 0-0.6 0-1.2 0-0.6-0.1-1.1c-0.3-2.7-1.2-5.2-3.3-6.8-3.1-2.4-7.5-1.7-11.4-1.1q-2.5 0.5-4.9 0.9-5.4 0.8-10.8 1.5-5.3 0.6-10.7 1.1-5.4 0.5-10.8 0.7-5.4 0.3-10.8 0.4c-9.8 0.2-20-0.2-29.7-2.4q-2.2-0.5-4.4-1.2-2.1-0.6-4.2-1.4-2.1-0.8-4.1-1.8-2.1-0.9-4-2-0.8-0.4-1.5-0.9v-13.1z"/>
										</g>
									</g>
								</g>
							</g>
							<path id="Path_239024" class="s10" d="m152.2 472.2c-31.7 0-57.4-7.1-57.4-16 0-8.9 25.7-16 57.4-16 31.7 0 57.4 7.1 57.4 16 0 8.9-25.7 16-57.4 16z"/>
							<path id="Path_239025" class="s6" d="m152.2 468c-23.4 0-42.2-5.3-42.2-11.8 0-6.5 18.8-11.8 42.2-11.8 23.4 0 42.3 5.3 42.3 11.8 0 6.5-18.9 11.8-42.3 11.8z"/>
							<path id="Path_239026" class="s9" d="m209.6 443.7c0 2.4-1.9 4.6-5.2 6.7-9.1 5.5-29 9.3-52.2 9.3-31.7 0-57.4-7.2-57.4-16 0-4.6 7-8.8 18.2-11.7 10.3-2.7 24.1-4.4 39.2-4.4q4.2 0 8.4 0.2 4.3 0.2 8.5 0.5 4.2 0.4 8.3 1 4.2 0.6 8.4 1.4c8.7 1.7 15.5 4.1 19.6 7 2.7 1.8 4.2 3.8 4.2 6z"/>
							<path id="Rectangle_23570" class="s9" d="m94.8 411.6h114.8v32.1h-114.8z"/>
							<g id="Group_167687" style="opacity: .2">
								<g id="Group_167686">
									<g id="Clip-Path: Group_167685" clip-path="url(#cp7)">
										<g id="Group_167685">
											<path id="Path_239027" class="s8" d="m209.6 411.6v32.1c0 2.4-1.9 4.6-5.2 6.7 0.2-2.2 0.6-5.1 0.7-6.7 0.1-0.7 0.2-1.2 0.2-1.3q0.1-0.6 0.1-1.2 0.1-0.6 0.1-1.1 0-0.6 0-1.2 0-0.6-0.1-1.2c-0.3-2.7-1.2-5.2-3.3-6.8-3.1-2.4-7.5-1.7-11.4-1.1q-2.5 0.5-4.9 0.9-5.4 0.8-10.8 1.5-5.3 0.6-10.7 1.1-5.4 0.5-10.8 0.7-5.4 0.3-10.8 0.4c-9.8 0.2-20-0.2-29.7-2.4q-2.2-0.5-4.4-1.2-2.1-0.6-4.2-1.4-2.1-0.8-4.1-1.8-2.1-0.9-4-2-0.8-0.4-1.5-0.9v-13.1z"/>
										</g>
									</g>
								</g>
							</g>
							<path id="Path_239028" class="s10" d="m152.2 427.6c-31.7 0-57.4-7.1-57.4-16 0-8.8 25.7-16 57.4-16 31.7 0 57.4 7.2 57.4 16 0 8.9-25.7 16-57.4 16z"/>
							<path id="Path_239029" class="s6" d="m152.2 423.4c-23.4 0-42.2-5.3-42.2-11.8 0-6.5 18.8-11.8 42.2-11.8 23.4 0 42.3 5.3 42.3 11.8 0 6.5-18.9 11.8-42.3 11.8z"/>
							<path id="Path_239030" class="s9" d="m209.6 400.1c0 2.4-1.9 4.7-5.2 6.7-9.1 5.5-29 9.4-52.2 9.4-31.7 0-57.4-7.2-57.4-16.1 0-4.6 7-8.7 18.2-11.7 10.3-2.7 24.1-4.3 39.2-4.3q4.2 0 8.4 0.1 4.3 0.2 8.5 0.6 4.2 0.4 8.3 1 4.2 0.5 8.4 1.3c8.7 1.8 15.5 4.2 19.6 7 2.7 1.9 4.2 3.9 4.2 6z"/>
							<path id="Rectangle_23572" class="s9" d="m94.8 368.1h114.8v32h-114.8z"/>
							<g id="Group_167690" style="opacity: .2">
								<g id="Group_167689">
									<g id="Clip-Path: Group_167688" clip-path="url(#cp8)">
										<g id="Group_167688">
											<path id="Path_239031" class="s8" d="m209.6 368.1v32c0 2.4-1.9 4.7-5.2 6.7 0.2-2.2 0.6-5 0.7-6.7 0.1-0.7 0.2-1.1 0.2-1.2q0.1-0.6 0.1-1.2 0.1-0.6 0.1-1.2 0-0.6 0-1.2 0-0.6-0.1-1.2c-0.3-2.7-1.2-5.1-3.3-6.7-3.1-2.4-7.5-1.8-11.4-1.1q-2.5 0.4-4.9 0.8-5.4 0.9-10.8 1.5-5.3 0.7-10.7 1.2-5.4 0.4-10.8 0.7-5.4 0.3-10.8 0.4c-9.8 0.1-20-0.2-29.7-2.5q-2.2-0.4-4.4-1.1-2.1-0.6-4.2-1.4-2.1-0.8-4.1-1.8-2.1-0.9-4-2-0.8-0.5-1.5-0.9v-13.1z"/>
										</g>
									</g>
								</g>
							</g>
							<path id="Path_239032" class="s10" d="m152.2 384.1c-31.7 0-57.4-7.2-57.4-16 0-8.9 25.7-16.1 57.4-16.1 31.7 0 57.4 7.2 57.4 16.1 0 8.8-25.7 16-57.4 16z"/>
							<path id="Path_239033" class="s6" d="m152.2 379.9c-23.4 0-42.2-5.3-42.2-11.8 0-6.5 18.8-11.8 42.2-11.8 23.4 0 42.3 5.3 42.3 11.8 0 6.5-18.9 11.8-42.3 11.8z"/>
							<path id="Path_239034" class="s10" d="m108.6 397.4c0 1-0.6 1.9-1.5 2.2-0.9 0.4-2 0.2-2.7-0.5-0.7-0.7-0.9-1.7-0.5-2.6 0.4-1 1.2-1.5 2.2-1.5q0.5 0 1 0.1 0.4 0.2 0.7 0.6 0.4 0.3 0.6 0.8 0.2 0.4 0.2 0.9z"/>
							<path id="Path_239035" class="s7" d="m117.4 399.9c0 1.4-0.8 2.6-2.1 3.2-1.2 0.5-2.7 0.2-3.7-0.8-0.9-0.9-1.2-2.4-0.7-3.7 0.5-1.2 1.8-2.1 3.1-2.1q0.7 0 1.3 0.3 0.6 0.3 1.1 0.7 0.5 0.5 0.8 1.1 0.2 0.7 0.2 1.3z"/>
							<path id="Path_239036" class="s10" d="m126.8 401.8c0 1.5-0.9 2.8-2.2 3.4-1.4 0.5-2.9 0.2-4-0.8-1-1.1-1.3-2.6-0.7-4 0.5-1.3 1.8-2.2 3.3-2.2q0.7 0 1.4 0.3 0.6 0.3 1.2 0.8 0.5 0.5 0.7 1.1 0.3 0.7 0.3 1.4z"/>
							<path id="Path_239037" class="s10" d="m108.6 441.6c0 1-0.6 1.9-1.5 2.2-0.9 0.4-2 0.2-2.7-0.5-0.7-0.7-0.9-1.7-0.5-2.6 0.4-0.9 1.2-1.5 2.2-1.5q0.5 0 1 0.2 0.4 0.1 0.7 0.5 0.4 0.3 0.6 0.8 0.2 0.4 0.2 0.9z"/>
							<path id="Path_239038" class="s7" d="m117.4 444.2c0 1.3-0.8 2.6-2.1 3.1-1.2 0.5-2.7 0.2-3.7-0.8-0.9-0.9-1.2-2.4-0.7-3.6 0.5-1.3 1.8-2.1 3.1-2.1q0.7 0 1.3 0.2 0.6 0.3 1.1 0.8 0.5 0.4 0.8 1.1 0.2 0.6 0.2 1.3z"/>
							<path id="Path_239039" class="s10" d="m126.8 446c0 1.5-0.9 2.8-2.2 3.4-1.4 0.5-2.9 0.2-4-0.8-1-1-1.3-2.6-0.7-3.9 0.5-1.4 1.8-2.3 3.3-2.3q0.7 0 1.4 0.3 0.6 0.3 1.2 0.8 0.5 0.5 0.7 1.2 0.3 0.6 0.3 1.3z"/>
							<path id="Path_239040" class="s10" d="m108.6 485.5c0 0.9-0.6 1.8-1.5 2.2-0.9 0.4-2 0.2-2.7-0.5-0.7-0.7-0.9-1.8-0.5-2.7 0.4-0.9 1.2-1.5 2.2-1.5q0.5 0 1 0.2 0.4 0.2 0.7 0.5 0.4 0.4 0.6 0.8 0.2 0.5 0.2 1z"/>
							<path id="Path_239041" class="s7" d="m187.9 520.8c0 1.5-0.9 2.8-2.3 3.4-1.4 0.6-3 0.3-4-0.8-1.1-1-1.4-2.6-0.8-4 0.6-1.4 1.9-2.3 3.4-2.3q0.7 0 1.4 0.3 0.7 0.3 1.2 0.8 0.5 0.5 0.8 1.2 0.3 0.7 0.3 1.4z"/>
							<path id="Path_239042" class="s10" d="m198.1 522.9c0 1.5-1 3-2.4 3.6-1.5 0.6-3.2 0.3-4.3-0.9-1.1-1.1-1.5-2.8-0.9-4.2 0.6-1.5 2.1-2.5 3.7-2.5q0.7 0 1.5 0.3 0.7 0.3 1.2 0.9 0.6 0.5 0.9 1.2 0.3 0.8 0.3 1.6z"/>
							<path id="Rectangle_23574" class="s6" d="m439.9 387.2h113.1v10.2h-113.1z"/>
							<g id="Group_167693" style="opacity: .1">
								<g id="Group_167692">
									<g id="Clip-Path: Group_167691" clip-path="url(#cp9)">
										<g id="Group_167691">
											<path id="Rectangle_23575" class="s11" d="m439.9 387.2h113.1v1.5h-113.1z"/>
										</g>
									</g>
								</g>
							</g>
							<path id="Path_239043" class="s9" d="m568.1 343.2v36.8q0 1.4-0.6 2.8-0.5 1.3-1.6 2.3-1 1-2.3 1.6-1.3 0.5-2.8 0.5h-128.7q-1.4 0-2.8-0.5-1.3-0.6-2.3-1.6-1-1-1.6-2.3-0.5-1.4-0.5-2.8v-36.8q0-1.4 0.5-2.7 0.6-1.4 1.6-2.4 1-1 2.3-1.5 1.4-0.6 2.8-0.6h128.7q1.5 0 2.8 0.5 1.3 0.6 2.3 1.6 1.1 1 1.6 2.4 0.6 1.3 0.6 2.7z"/>
							<path id="Rectangle_23577" class="s6" d="m434.9 342.9h121.5v37h-121.5z"/>
							<g id="Group_167696" style="opacity: .1">
								<g id="Group_167695">
									<g id="Clip-Path: Group_167694" clip-path="url(#cp10)">
										<g id="Group_167694">
											<path id="Rectangle_23578" class="s11" d="m434.9 379.9h121.5v1.5h-121.5z"/>
										</g>
									</g>
								</g>
							</g>
							<g id="Group_167699" style="opacity: .1">
								<g id="Group_167698">
									<g id="Clip-Path: Group_167697" clip-path="url(#cp11)">
										<g id="Group_167697">
											<path id="Path_239044" class="s11" d="m525.1 362.2c0 1.6-1 3.1-2.5 3.7-1.4 0.6-3.2 0.3-4.3-0.9-1.1-1.1-1.5-2.8-0.9-4.3 0.7-1.5 2.1-2.5 3.7-2.5q0.8 0 1.5 0.3 0.8 0.3 1.3 0.9 0.6 0.6 0.9 1.3 0.3 0.7 0.3 1.5z"/>
											<path id="Path_239045" class="s11" d="m536.9 362.2c0 1.6-1 3.1-2.4 3.7-1.5 0.6-3.2 0.3-4.4-0.9-1.1-1.1-1.5-2.8-0.8-4.3 0.6-1.5 2-2.5 3.6-2.5q0.8 0 1.6 0.3 0.7 0.3 1.2 0.9 0.6 0.6 0.9 1.3 0.3 0.7 0.3 1.5z"/>
											<path id="Path_239046" class="s11" d="m549.3 362.2c0 1.6-1 3.1-2.5 3.7-1.4 0.6-3.2 0.3-4.3-0.9-1.1-1.1-1.5-2.8-0.9-4.3 0.7-1.5 2.1-2.5 3.7-2.5q0.8 0 1.5 0.3 0.8 0.3 1.3 0.9 0.6 0.6 0.9 1.3 0.3 0.7 0.3 1.5z"/>
										</g>
									</g>
								</g>
							</g>
							<g id="Group_167702" style="opacity: .2">
								<g id="Group_167701">
									<g id="Clip-Path: Group_167700" clip-path="url(#cp12)">
										<g id="Group_167700">
											<path id="Path_239047" class="s8" d="m568.1 343.2v36.8q0 1.4-0.6 2.8-0.5 1.3-1.6 2.3-1 1-2.3 1.6-1.3 0.5-2.8 0.5h-0.3q-0.5-1.3-0.9-2.7-0.4-1.5-0.7-2.9-0.2-1.4-0.3-2.9 0-1.5 0.1-2.9c0.2-6.5 1.4-13.3-1.5-19.2-2.3-4.6-7-7.8-12-9.4-4.9-1.6-10.3-1.8-15.5-1.8-11.1-0.1-22.2 0.5-33.4 1.1-19.7 1.1-39.6 2.4-59.3 0.2-3.1-0.3-8.2-0.5-12.1-2v-1.5q0-1.4 0.5-2.7 0.6-1.4 1.6-2.4 1-1 2.3-1.5 1.4-0.6 2.8-0.6h128.7q1.5 0 2.8 0.5 1.3 0.6 2.3 1.6 1.1 1 1.6 2.4 0.6 1.3 0.6 2.7z"/>
										</g>
									</g>
								</g>
							</g>
							<path id="Rectangle_23582" class="s9" d="m439.1 355.4h55.3v1.7h-55.3z"/>
							<path id="Rectangle_23583" class="s9" d="m439.1 360.1h55.3v1.7h-55.3z"/>
							<path id="Rectangle_23584" class="s9" d="m439.1 364.6h55.3v1.6h-55.3z"/>
							<path id="Rectangle_23585" class="s9" d="m439.1 369.2h55.3v1.7h-55.3z"/>
							<path id="Path_239048" class="s9" d="m525.1 361.4c0 1.6-1 3.1-2.5 3.7-1.4 0.6-3.2 0.2-4.3-0.9-1.1-1.1-1.5-2.8-0.9-4.3 0.7-1.5 2.1-2.5 3.7-2.5q0.8 0 1.5 0.3 0.8 0.3 1.3 0.9 0.6 0.5 0.9 1.3 0.3 0.7 0.3 1.5z"/>
							<g id="Group_167705" style="opacity: .1">
								<g id="Group_167704">
									<g id="Clip-Path: Group_167703" clip-path="url(#cp13)">
										<g id="Group_167703">
											<path id="Path_239049" class="s7" d="m523.9 361.4c0 1.1-0.7 2.1-1.7 2.6-1.1 0.4-2.2 0.1-3-0.6-0.8-0.8-1.1-2-0.6-3.1 0.4-1 1.4-1.7 2.5-1.7q0.6 0 1.1 0.2 0.5 0.2 0.9 0.6 0.4 0.4 0.6 0.9 0.2 0.5 0.2 1.1z"/>
										</g>
									</g>
								</g>
							</g>
							<path id="Path_239050" class="s7" d="m536.9 361.4c0 1.6-1 3.1-2.4 3.7-1.5 0.6-3.2 0.2-4.4-0.9-1.1-1.1-1.5-2.8-0.8-4.3 0.6-1.5 2-2.5 3.6-2.5q0.8 0 1.6 0.3 0.7 0.3 1.2 0.9 0.6 0.5 0.9 1.3 0.3 0.7 0.3 1.5z"/>
							<path id="Path_239051" class="s9" d="m549.3 361.4c0 1.6-1 3.1-2.5 3.7-1.4 0.6-3.2 0.2-4.3-0.9-1.1-1.1-1.5-2.8-0.9-4.3 0.7-1.5 2.1-2.5 3.7-2.5q0.8 0 1.5 0.3 0.8 0.3 1.3 0.9 0.6 0.5 0.9 1.3 0.3 0.7 0.3 1.5z"/>
							<g id="Group_167708" style="opacity: .2">
								<g id="Group_167707">
									<g id="Clip-Path: Group_167706" clip-path="url(#cp14)">
										<g id="Group_167706">
											<path id="Path_239052" class="s7" d="m535.7 361.4c0 1.1-0.7 2.1-1.7 2.6-1 0.4-2.2 0.1-3-0.6-0.8-0.8-1.1-2-0.6-3.1 0.4-1 1.4-1.7 2.5-1.7q0.6 0 1.1 0.2 0.5 0.2 0.9 0.6 0.4 0.4 0.6 0.9 0.2 0.5 0.2 1.1z"/>
										</g>
									</g>
								</g>
							</g>
							<g id="Group_167711" style="opacity: .1">
								<g id="Group_167710">
									<g id="Clip-Path: Group_167709" clip-path="url(#cp15)">
										<g id="Group_167709">
											<path id="Path_239053" class="s7" d="m548.1 361.4c0 1.1-0.7 2.1-1.7 2.6-1.1 0.4-2.2 0.1-3-0.6-0.8-0.8-1.1-2-0.6-3.1 0.4-1 1.4-1.7 2.5-1.7q0.6 0 1.1 0.2 0.5 0.2 0.9 0.6 0.4 0.4 0.6 0.9 0.2 0.5 0.2 1.1z"/>
										</g>
									</g>
								</g>
							</g>
							<path id="Path_239054" class="s9" d="m568.1 404.7v36.7q0 1.5-0.6 2.8-0.5 1.3-1.6 2.3-1 1.1-2.3 1.6-1.3 0.6-2.8 0.6h-128.7q-1.4 0-2.8-0.6-1.3-0.5-2.3-1.6-1-1-1.6-2.3-0.5-1.3-0.5-2.8v-36.7q0-1.5 0.5-2.8 0.6-1.3 1.6-2.3 1-1.1 2.3-1.6 1.4-0.6 2.8-0.6h128.7q1.5 0 2.8 0.6 1.3 0.5 2.3 1.6 1.1 1 1.6 2.3 0.6 1.3 0.6 2.8z"/>
							<path id="Rectangle_23589" class="s6" d="m434.9 404.3h121.5v37.1h-121.5z"/>
							<g id="Group_167714" style="opacity: .1">
								<g id="Group_167713">
									<g id="Clip-Path: Group_167712" clip-path="url(#cp16)">
										<g id="Group_167712">
											<path id="Rectangle_23590" class="s11" d="m434.9 441.4h121.5v1.4h-121.5z"/>
										</g>
									</g>
								</g>
							</g>
							<g id="Group_167717" style="opacity: .1">
								<g id="Group_167716">
									<g id="Clip-Path: Group_167715" clip-path="url(#cp17)">
										<g id="Group_167715">
											<path id="Path_239055" class="s11" d="m525.1 423.7c0 1.6-1 3-2.5 3.6-1.4 0.7-3.2 0.3-4.3-0.8-1.1-1.2-1.5-2.9-0.9-4.4 0.7-1.5 2.1-2.4 3.7-2.4q0.8 0 1.5 0.3 0.8 0.3 1.3 0.8 0.6 0.6 0.9 1.3 0.3 0.8 0.3 1.6z"/>
											<path id="Path_239056" class="s11" d="m536.9 423.7c0 1.6-1 3-2.4 3.6-1.5 0.7-3.2 0.3-4.4-0.8-1.1-1.2-1.5-2.9-0.8-4.4 0.6-1.5 2-2.4 3.6-2.4q0.8 0 1.6 0.3 0.7 0.3 1.2 0.8 0.6 0.6 0.9 1.3 0.3 0.8 0.3 1.6z"/>
											<path id="Path_239057" class="s11" d="m549.3 423.7c0 1.6-1 3-2.5 3.6-1.4 0.7-3.2 0.3-4.3-0.8-1.1-1.2-1.5-2.9-0.9-4.4 0.7-1.5 2.1-2.4 3.7-2.4q0.8 0 1.5 0.3 0.8 0.3 1.3 0.8 0.6 0.6 0.9 1.3 0.3 0.8 0.3 1.6z"/>
										</g>
									</g>
								</g>
							</g>
							<g id="Group_167720" style="opacity: .2">
								<g id="Group_167719">
									<g id="Clip-Path: Group_167718" clip-path="url(#cp18)">
										<g id="Group_167718">
											<path id="Path_239058" class="s8" d="m568.1 404.7v36.7q0 1.5-0.6 2.8-0.5 1.3-1.6 2.3-1 1.1-2.3 1.6-1.3 0.6-2.8 0.6h-0.3q-0.5-1.4-0.9-2.8-0.4-1.4-0.7-2.9-0.2-1.4-0.3-2.9 0-1.4 0.1-2.9c0.2-6.5 1.4-13.3-1.5-19.1-2.3-4.7-7-7.9-12-9.5-4.9-1.6-10.3-1.8-15.5-1.8-11.1-0.1-22.2 0.5-33.4 1.1-19.7 1.2-39.6 2.4-59.3 0.2-3.1-0.3-8.2-0.5-12.1-1.9v-1.5q0-1.5 0.5-2.8 0.6-1.3 1.6-2.3 1-1.1 2.3-1.6 1.4-0.6 2.8-0.6h128.7q1.5 0 2.8 0.6 1.3 0.5 2.3 1.6 1.1 1 1.6 2.3 0.6 1.3 0.6 2.8z"/>
										</g>
									</g>
								</g>
							</g>
							<path id="Rectangle_23594" class="s9" d="m439.1 416.9h55.3v1.6h-55.3z"/>
							<path id="Rectangle_23595" class="s9" d="m439.1 421.6h55.3v1.6h-55.3z"/>
							<path id="Rectangle_23596" class="s9" d="m439.1 426h55.3v1.6h-55.3z"/>
							<path id="Rectangle_23597" class="s9" d="m439.1 430.7h55.3v1.6h-55.3z"/>
							<path id="Path_239059" class="s9" d="m525.1 422.8c0 1.6-1 3.1-2.5 3.7-1.4 0.6-3.2 0.3-4.3-0.9-1.1-1.1-1.5-2.8-0.9-4.3 0.7-1.5 2.1-2.4 3.7-2.4q0.8 0 1.5 0.3 0.8 0.3 1.3 0.8 0.6 0.6 0.9 1.3 0.3 0.7 0.3 1.5z"/>
							<g id="Group_167723" style="opacity: .1">
								<g id="Group_167722">
									<g id="Clip-Path: Group_167721" clip-path="url(#cp19)">
										<g id="Group_167721">
											<path id="Path_239060" class="s7" d="m523.9 422.8c0 1.2-0.7 2.2-1.7 2.6-1.1 0.4-2.2 0.2-3-0.6-0.8-0.8-1.1-2-0.6-3 0.4-1.1 1.4-1.7 2.5-1.7q0.6 0 1.1 0.2 0.5 0.2 0.9 0.6 0.4 0.4 0.6 0.9 0.2 0.5 0.2 1z"/>
										</g>
									</g>
								</g>
							</g>
							<path id="Path_239061" class="s7" d="m536.9 422.8c0 1.6-1 3.1-2.4 3.7-1.5 0.6-3.2 0.3-4.4-0.9-1.1-1.1-1.5-2.8-0.8-4.3 0.6-1.5 2-2.4 3.6-2.4q0.8 0 1.6 0.3 0.7 0.3 1.2 0.8 0.6 0.6 0.9 1.3 0.3 0.7 0.3 1.5z"/>
							<path id="Path_239062" class="s9" d="m549.3 422.8c0 1.6-1 3.1-2.5 3.7-1.4 0.6-3.2 0.3-4.3-0.9-1.1-1.1-1.5-2.8-0.9-4.3 0.7-1.5 2.1-2.4 3.7-2.4q0.8 0 1.5 0.3 0.8 0.3 1.3 0.8 0.6 0.6 0.9 1.3 0.3 0.7 0.3 1.5z"/>
							<g id="Group_167726" style="opacity: .2">
								<g id="Group_167725">
									<g id="Clip-Path: Group_167724" clip-path="url(#cp20)">
										<g id="Group_167724">
											<path id="Path_239063" class="s7" d="m535.7 422.8c0 1.2-0.7 2.2-1.7 2.6-1 0.4-2.2 0.2-3-0.6-0.8-0.8-1.1-2-0.6-3 0.4-1.1 1.4-1.7 2.5-1.7q0.6 0 1.1 0.2 0.5 0.2 0.9 0.6 0.4 0.4 0.6 0.9 0.2 0.5 0.2 1z"/>
										</g>
									</g>
								</g>
							</g>
							<g id="Group_167729" style="opacity: .1">
								<g id="Group_167728">
									<g id="Clip-Path: Group_167727" clip-path="url(#cp21)">
										<g id="Group_167727">
											<path id="Path_239064" class="s7" d="m548.1 422.8c0 1.2-0.7 2.2-1.7 2.6-1.1 0.4-2.2 0.2-3-0.6-0.8-0.8-1.1-2-0.6-3 0.4-1.1 1.4-1.7 2.5-1.7q0.6 0 1.1 0.2 0.5 0.2 0.9 0.6 0.4 0.4 0.6 0.9 0.2 0.5 0.2 1z"/>
										</g>
									</g>
								</g>
							</g>
							<path id="Rectangle_23601" class="s12" d="m439.9 448.6h113.1v10.2h-113.1z"/>
							<g id="Group_167732" style="opacity: .1">
								<g id="Group_167731">
									<g id="Clip-Path: Group_167730" clip-path="url(#cp22)">
										<g id="Group_167730">
											<path id="Rectangle_23602" class="s11" d="m439.9 448.6h113.1v1.4h-113.1z"/>
										</g>
									</g>
								</g>
							</g>
							<path id="Path_239065" class="s9" d="m568.1 466v36.8q0 1.4-0.6 2.7-0.5 1.4-1.6 2.4-1 1-2.3 1.6-1.3 0.5-2.8 0.5h-128.7q-1.4 0-2.8-0.6-1.3-0.5-2.3-1.5-1-1-1.6-2.4-0.5-1.3-0.5-2.7v-36.8q0-1.4 0.5-2.8 0.6-1.3 1.6-2.3 1-1 2.3-1.6 1.4-0.5 2.8-0.5h128.7q1.5 0 2.8 0.5 1.3 0.6 2.3 1.6 1.1 1 1.6 2.3 0.6 1.4 0.6 2.8z"/>
							<path id="Rectangle_23604" class="s6" d="m434.9 465.6h121.5v37.1h-121.5z"/>
							<g id="Group_167735" style="opacity: .1">
								<g id="Group_167734">
									<g id="Clip-Path: Group_167733" clip-path="url(#cp23)">
										<g id="Group_167733">
											<path id="Rectangle_23605" class="s11" d="m533.2 536.8h132v1.6h-132z"/>
										</g>
									</g>
								</g>
							</g>
							<g id="Group_167738" style="opacity: .1">
								<g id="Group_167737">
									<g id="Clip-Path: Group_167736" clip-path="url(#cp24)">
										<g id="Group_167736">
											<path id="Path_239066" class="s11" d="m525.1 485c0 1.6-1 3.1-2.5 3.7-1.4 0.6-3.2 0.3-4.3-0.9-1.1-1.1-1.5-2.8-0.9-4.3 0.7-1.5 2.1-2.5 3.7-2.5q0.8 0 1.5 0.3 0.8 0.3 1.3 0.9 0.6 0.5 0.9 1.3 0.3 0.7 0.3 1.5z"/>
											<path id="Path_239067" class="s11" d="m536.9 485c0 1.6-1 3.1-2.4 3.7-1.5 0.6-3.2 0.3-4.4-0.9-1.1-1.1-1.5-2.8-0.8-4.3 0.6-1.5 2-2.5 3.6-2.5q0.8 0 1.6 0.3 0.7 0.3 1.2 0.9 0.6 0.5 0.9 1.3 0.3 0.7 0.3 1.5z"/>
											<path id="Path_239068" class="s11" d="m549.3 485c0 1.6-1 3.1-2.5 3.7-1.4 0.6-3.2 0.3-4.3-0.9-1.1-1.1-1.5-2.8-0.9-4.3 0.7-1.5 2.1-2.5 3.7-2.5q0.8 0 1.5 0.3 0.8 0.3 1.3 0.9 0.6 0.5 0.9 1.3 0.3 0.7 0.3 1.5z"/>
										</g>
									</g>
								</g>
							</g>
							<g id="Group_167741" style="opacity: .2">
								<g id="Group_167740">
									<g id="Clip-Path: Group_167739" clip-path="url(#cp25)">
										<g id="Group_167739">
											<path id="Path_239069" class="s8" d="m568.1 466v36.8q0 1.4-0.6 2.7-0.5 1.4-1.6 2.4-1 1-2.3 1.6-1.3 0.5-2.8 0.5h-0.3q-0.5-1.4-0.9-2.8-0.4-1.4-0.7-2.8-0.2-1.5-0.3-2.9 0-1.5 0.1-2.9c0.2-6.5 1.4-13.4-1.5-19.2-2.3-4.7-7-7.8-12-9.5-4.9-1.6-10.3-1.7-15.5-1.8-11.1 0-22.2 0.6-33.4 1.2-19.7 1.1-39.6 2.4-59.3 0.2-3.1-0.4-8.2-0.5-12.1-2v-1.5q0-1.4 0.5-2.8 0.6-1.3 1.6-2.3 1-1 2.3-1.6 1.4-0.5 2.8-0.5h128.7q1.5 0 2.8 0.5 1.3 0.6 2.3 1.6 1.1 1 1.6 2.3 0.6 1.4 0.6 2.8z"/>
										</g>
									</g>
								</g>
							</g>
							<path id="Rectangle_23609" class="s9" d="m439.1 478.2h55.3v1.6h-55.3z"/>
							<path id="Rectangle_23610" class="s9" d="m439.1 482.9h55.3v1.6h-55.3z"/>
							<path id="Rectangle_23611" class="s9" d="m537.7 520.1h60.1v1.8h-60.1z"/>
							<path id="Rectangle_23612" class="s9" d="m537.7 525.2h60.1v1.8h-60.1z"/>
							<path id="Path_239070" class="s9" d="m525.1 484.2c0 1.6-1 3-2.5 3.7-1.4 0.6-3.2 0.2-4.3-0.9-1.1-1.1-1.5-2.9-0.9-4.4 0.7-1.4 2.1-2.4 3.7-2.4q0.8 0 1.5 0.3 0.8 0.3 1.3 0.9 0.6 0.5 0.9 1.2 0.3 0.8 0.3 1.6z"/>
							<g id="Group_167744" style="opacity: .1">
								<g id="Group_167743">
									<g id="Clip-Path: Group_167742" clip-path="url(#cp26)">
										<g id="Group_167742">
											<path id="Path_239071" class="s7" d="m523.9 484.2c0 1.1-0.7 2.1-1.7 2.5-1.1 0.5-2.2 0.2-3-0.6-0.8-0.8-1.1-2-0.6-3 0.4-1 1.4-1.7 2.5-1.7q0.6 0 1.1 0.2 0.5 0.2 0.9 0.6 0.4 0.4 0.6 0.9 0.2 0.5 0.2 1.1z"/>
										</g>
									</g>
								</g>
							</g>
							<path id="Path_239072" class="s7" d="m536.9 484.2c0 1.6-1 3-2.4 3.7-1.5 0.6-3.2 0.2-4.4-0.9-1.1-1.1-1.5-2.9-0.8-4.4 0.6-1.4 2-2.4 3.6-2.4q0.8 0 1.6 0.3 0.7 0.3 1.2 0.9 0.6 0.5 0.9 1.2 0.3 0.8 0.3 1.6z"/>
							<path id="Path_239073" class="s9" d="m549.3 484.2c0 1.6-1 3-2.5 3.7-1.4 0.6-3.2 0.2-4.3-0.9-1.1-1.1-1.5-2.9-0.9-4.4 0.7-1.4 2.1-2.4 3.7-2.4q0.8 0 1.5 0.3 0.8 0.3 1.3 0.9 0.6 0.5 0.9 1.2 0.3 0.8 0.3 1.6z"/>
							<g id="Group_167747" style="opacity: .2">
								<g id="Group_167746">
									<g id="Clip-Path: Group_167745" clip-path="url(#cp27)">
										<g id="Group_167745">
											<path id="Path_239074" class="s7" d="m535.7 484.2c0 1.1-0.7 2.1-1.7 2.5-1 0.5-2.2 0.2-3-0.6-0.8-0.8-1.1-2-0.6-3 0.4-1 1.4-1.7 2.5-1.7q0.6 0 1.1 0.2 0.5 0.2 0.9 0.6 0.4 0.4 0.6 0.9 0.2 0.5 0.2 1.1z"/>
										</g>
									</g>
								</g>
							</g>
							<g id="Group_167750" style="opacity: .1">
								<g id="Group_167749">
									<g id="Clip-Path: Group_167748" clip-path="url(#cp28)">
										<g id="Group_167748">
											<path id="Path_239075" class="s7" d="m548.1 484.2c0 1.1-0.7 2.1-1.7 2.5-1.1 0.5-2.2 0.2-3-0.6-0.8-0.8-1.1-2-0.6-3 0.4-1 1.4-1.7 2.5-1.7q0.6 0 1.1 0.2 0.5 0.2 0.9 0.6 0.4 0.4 0.6 0.9 0.2 0.5 0.2 1.1z"/>
										</g>
									</g>
								</g>
							</g>
							<path id="Path_239076" class="s6" d="m506.2 80.1c0 8.3-3.5 16.2-9.7 21.8-6.1 5.6-14.4 8.3-22.6 7.5-8.3-0.8-15.8-5.1-20.8-11.7-4.9-6.7-6.8-15.2-5.2-23.3q0.2-1.2 0.5-2.3c1.9-6.6 6-12.4 11.7-16.3 5.7-3.9 12.6-5.6 19.4-5 6.9 0.7 13.3 3.7 18.1 8.6 4.9 4.9 7.9 11.3 8.5 18.1q0.1 1.3 0.1 2.6z"/>
							<path id="Path_239077" class="s6" d="m512.4 129.1h-60.1c-3.2 0-6.4-0.6-9.4-1.9-3-1.2-5.7-3-7.9-5.3-2.3-2.3-4.1-5-5.4-7.9-1.2-3-1.8-6.2-1.8-9.4h109.1c0 3.2-0.6 6.4-1.8 9.4-1.3 2.9-3.1 5.6-5.4 7.9-2.2 2.3-4.9 4.1-7.9 5.3-3 1.3-6.2 1.9-9.4 1.9z"/>
							<g id="Group_167753" style="opacity: .5">
								<g id="Group_167752">
									<g id="Clip-Path: Group_167751" clip-path="url(#cp29)">
										<g id="Group_167751">
											<path id="Path_239078" class="s8" d="m469 86.7l-21.4-2.6q-0.1-0.5-0.1-1-0.1-0.5-0.1-1-0.1-0.5-0.1-1 0-0.5 0-1 0-0.7 0-1.4 0.1-0.7 0.1-1.5 0.1-0.7 0.2-1.4 0.1-0.7 0.3-1.4c7.1 3.2 17.9 7.8 21.1 12.3z"/>
										</g>
									</g>
								</g>
							</g>
							<g id="Group_167756" style="opacity: .5">
								<g id="Group_167755">
									<g id="Clip-Path: Group_167754" clip-path="url(#cp30)">
										<g id="Group_167754">
											<path id="Path_239079" class="s8" d="m506.2 80.1q0 1.2-0.1 2.3-0.1 1.2-0.3 2.3-0.1 1.2-0.4 2.3-0.3 1.1-0.6 2.2l-13.6 6.6c2.7-6.7 9.5-13.6 14.9-18.3q0.1 1.3 0.1 2.6z"/>
										</g>
									</g>
								</g>
							</g>
							<path id="Path_239080" class="s6" d="m536.9 103.7c0 9.5-5.7 18.1-14.5 21.7-8.8 3.7-19 1.7-25.7-5.1-6.7-6.7-8.7-16.8-5.1-25.6 3.6-8.8 12.2-14.6 21.8-14.6 3.1 0 6.1 0.6 9 1.8 2.8 1.2 5.4 2.9 7.6 5.1 2.2 2.2 3.9 4.8 5.1 7.7 1.2 2.8 1.8 5.9 1.8 9z"/>
							<path id="Path_239081" class="s6" d="m476.8 104.6c0 9.9-6 18.8-15.2 22.6-9.1 3.8-19.6 1.7-26.6-5.3-7-7-9.1-17.5-5.4-26.7 3.8-9.1 12.8-15.1 22.7-15.1 3.2 0 6.4 0.7 9.3 1.9 3 1.2 5.7 3 8 5.3 2.3 2.3 4.1 5 5.3 7.9 1.2 3 1.9 6.2 1.9 9.4z"/>
							<path id="Path_239082" fill-rule="evenodd" class="s13" d="m509.5 120.5v43.5h47.9"/>
							<path id="Ellipse_479" class="s13" d="m563.5 168.5c-2.5 1-5.4-0.2-6.4-2.7-1-2.5 0.1-5.3 2.6-6.3 2.5-1.1 5.4 0.1 6.4 2.6 1 2.5-0.2 5.3-2.6 6.4z"/>
							<path id="Path_239083" class="s9" d="m566.2 164c0 1.8-1.1 3.5-2.9 4.2-1.7 0.7-3.6 0.3-4.9-1-1.4-1.3-1.8-3.3-1-5 0.7-1.7 2.3-2.8 4.2-2.8q0.9 0 1.7 0.3 0.9 0.4 1.5 1 0.7 0.7 1 1.5 0.4 0.8 0.4 1.8z"/>
							<path id="Path_239084" fill-rule="evenodd" class="s13" d="m450.4 120.5v43.5h-47.9"/>
							<path id="Ellipse_480" class="s13" d="m400.2 168.5c-2.5 1-5.4-0.2-6.4-2.7-1-2.5 0.2-5.3 2.6-6.3 2.5-1.1 5.4 0.1 6.4 2.6 1 2.5-0.1 5.3-2.6 6.4z"/>
							<path id="Path_239085" class="s9" d="m393.7 164c0 1.8 1.1 3.5 2.9 4.2 1.7 0.7 3.6 0.3 5-1 1.3-1.3 1.7-3.3 0.9-5-0.7-1.7-2.3-2.8-4.2-2.8q-0.9 0-1.7 0.3-0.9 0.4-1.5 1-0.7 0.7-1 1.5-0.4 0.8-0.4 1.8z"/>
							<path id="Line_51" class="s13" d="m480.2 116v66.2"/>
							<path id="Ellipse_481" class="s13" d="m482 186.7c-2.5 1-5.3-0.2-6.3-2.6-1.1-2.5 0.1-5.4 2.6-6.4 2.5-1 5.3 0.1 6.4 2.6 1 2.5-0.2 5.4-2.7 6.4z"/>
							<path id="Path_239086" class="s9" d="m484.7 182.2c0 1.8-1.1 3.5-2.8 4.2-1.7 0.7-3.7 0.3-5-1-1.3-1.3-1.7-3.2-1-5 0.7-1.7 2.4-2.8 4.3-2.8q0.9 0 1.7 0.4 0.9 0.3 1.5 1 0.6 0.6 1 1.4 0.3 0.9 0.3 1.8z"/>
							<path id="Path_239087" class="s9" d="m216.7 174.2c4.7 18-2.2 37-17.3 47.8-15.2 10.7-35.4 11-50.9 0.6-15.4-10.3-22.8-29.2-18.5-47.3 4.2-18.1 19.2-31.7 37.6-34.1 5.4-0.7 10.8-0.4 16.1 0.8 5.2 1.3 10.2 3.4 14.7 6.5 4.5 3 8.4 6.8 11.5 11.1 3.1 4.4 5.4 9.4 6.8 14.6z"/>
							<g id="Group_167759" style="opacity: .6">
								<g id="Group_167758">
									<g id="Clip-Path: Group_167757" clip-path="url(#cp31)">
										<g id="Group_167757">
											<path id="Path_239088" class="s14" d="m162.4 143.8c5.6-1.5 11.5-1.8 17.2-1.1 5.8 0.8 11.4 2.6 16.4 5.5 5.1 2.9 9.5 6.7 13.1 11.3 3.6 4.6 6.2 9.8 7.8 15.4q-0.1-0.3-0.2-0.7c-3-11.5-10.5-21.3-20.8-27.3-10.2-5.9-22.4-7.6-33.9-4.6-11.5 3.1-21.3 10.5-27.2 20.8-6 10.2-7.7 22.5-4.6 33.9q0.1 0.4 0.2 0.8c-1.4-5.7-1.7-11.5-0.8-17.3 0.8-5.7 2.8-11.3 5.7-16.3 3-5 6.9-9.3 11.6-12.8 4.6-3.5 9.9-6.1 15.5-7.6z"/>
										</g>
									</g>
								</g>
							</g>
							<path id="Path_239089" class="s7" d="m209.1 192.4c2.4-12.2-1.7-24.8-10.9-33.3-9.1-8.6-22-11.8-34-8.6-12.1 3.2-21.7 12.3-25.4 24.3-3.8 11.9-1.1 24.9 7 34.4z"/>
							<path id="Path_239090" class="s2" d="m147 205.7c-20.2-28.2 9.2-64 41.1-50.3q3.7 1.7 6.9 4.2 3.3 2.5 5.9 5.7 2.5 3.2 4.3 6.9 1.8 3.7 2.6 7.7l-4.7 1.3c-0.6-3.5-1.8-6.8-3.6-9.9-1.7-3.1-4-5.8-6.7-8.1-2.6-2.3-5.7-4.1-9-5.3-3.3-1.3-6.8-1.9-10.3-2-25.2-0.2-40 28.5-25.5 49.1l0.4 0.5-1 0.7z"/>
							<g id="Group_167762" style="opacity: .2">
								<g id="Group_167761">
									<g id="Clip-Path: Group_167760" clip-path="url(#cp32)">
										<g id="Group_167760">
											<path id="Path_239091" class="s8" d="m182.8 205.3c-1.1 2.3-3.6 3.7-6.2 3.6-2.6-0.2-4.8-1.9-5.6-4.4-0.9-2.5-0.1-5.2 1.8-6.9 2-1.7 4.8-2.1 7.1-0.9q1.2 0.5 2 1.5 0.8 1 1.3 2.2 0.4 1.2 0.3 2.5-0.1 1.3-0.7 2.4z"/>
										</g>
									</g>
								</g>
							</g>
							<g id="Group_167765" style="opacity: .6">
								<g id="Group_167764">
									<g id="Clip-Path: Group_167763" clip-path="url(#cp33)">
										<g id="Group_167763">
											<path id="Path_239092" class="s8" d="m204 172.8l-30.2 27.7 5.2 4.9z"/>
										</g>
									</g>
								</g>
							</g>
							<path id="Path_239093" class="s6" d="m182.4 203.7c-1.1 2.4-3.6 3.8-6.2 3.6-2.6-0.2-4.8-1.9-5.7-4.4-0.8-2.5 0-5.2 1.9-6.9 2-1.7 4.8-2.1 7.1-0.9q1.1 0.6 2 1.5 0.8 1 1.2 2.2 0.5 1.2 0.4 2.5-0.1 1.3-0.7 2.4z"/>
							<path id="Path_239094" class="s6" d="m203.8 171.8l-30.4 27.3 5.2 5z"/>
							<path id="Path_239095" class="s9" d="m177.8 205.1c-2 0.5-4.1-0.4-5.1-2.2-0.9-1.9-0.4-4.1 1.2-5.5 1.6-1.3 3.9-1.3 5.5 0 1.6 1.3 2.1 3.6 1.2 5.4q-0.2 0.4-0.5 0.8-0.3 0.4-0.7 0.7-0.3 0.3-0.8 0.5-0.4 0.2-0.8 0.3z"/>
							<g id="Group_167768" style="opacity: .2">
								<g id="Group_167767">
									<g id="Clip-Path: Group_167766" clip-path="url(#cp34)">
										<g id="Group_167766">
											<path id="Path_239096" class="s8" d="m216.7 174.2c2 7.5 2 15.4 0 23-2.1 7.5-6 14.4-11.5 19.9-5.5 5.5-12.3 9.5-19.8 11.6-7.5 2.1-15.4 2.2-23 0.3q0.7-0.3 1.4-0.6 0.6-0.3 1.3-0.5 0.7-0.3 1.4-0.5 0.7-0.3 1.4-0.5 3.5-1.2 7-2.5 3.4-1.4 6.8-3 3.3-1.5 6.6-3.2 3.3-1.7 6.5-3.6c5.6-3.3 11.2-7.2 14.3-12.9 3-5.4 3.4-11.9 3.2-18.1-0.4-9.2-2-19-8.2-25.8q-1.2-1.3-2.5-2.4-1.3-1.1-2.7-2.1-1.4-0.9-2.9-1.8-1.5-0.8-3.1-1.4c-7.8-3.4-16.5-4.6-24.3-8.3q-0.1-0.1-0.2-0.2-0.1 0-0.3-0.1-0.1-0.1-0.2-0.1-0.1-0.1-0.3-0.2c5.4-0.7 10.8-0.4 16.1 0.8 5.2 1.3 10.2 3.4 14.7 6.5 4.5 3 8.4 6.8 11.5 11.1 3.1 4.4 5.4 9.4 6.8 14.6z"/>
										</g>
									</g>
								</g>
							</g>
							<path id="Path_239097" class="s9" d="m365.1 291.7c-0.8 0.7-3.1 1.1-4.2 1.1h-72.8c-1.1 0-3.4-0.4-4.2-1.1l40.6-36.4z"/>
							<path id="Path_239098" class="s10" d="m365.1 291.7v43.8q0 0.1 0 0.2 0 0.1-0.1 0.3 0 0.1 0 0.2 0 0.2-0.1 0.3 0 0.3-0.1 0.6-0.2 0.2-0.3 0.5-0.2 0.3-0.4 0.5-0.2 0.2-0.4 0.5-0.3 0.2-0.6 0.4-0.3 0.2-0.7 0.4-0.4 0.1-0.7 0.2-0.4 0-0.8 0h-72.8q-0.7 0-1.3-0.2-0.7-0.2-1.2-0.6-0.6-0.4-1-1-0.3-0.6-0.5-1.2-0.1-0.2-0.1-0.3 0-0.1 0-0.3 0-0.1-0.1-0.3 0-0.1 0-0.2v-43.8z"/>
							<path id="Rectangle_23622" class="s7" d="m294.3 256.7h61.8v68.9h-61.8z"/>
							<path id="Path_239099" class="s9" d="m365.1 291.7v43.8q0 0.1 0 0.2 0 0.1-0.1 0.3 0 0.1 0 0.2 0 0.2-0.1 0.3 0 0.2-0.1 0.4 0 0.1-0.1 0.3-0.1 0.2-0.2 0.4-0.1 0.2-0.2 0.3 0 0-0.1 0.1 0 0 0 0 0 0 0 0.1-0.1 0-0.1 0-0.1 0.1-0.2 0.2-0.1 0.2-0.2 0.3-0.1 0.1-0.3 0.2-0.1 0.1-0.3 0.2 0 0 0 0-0.1 0.1-0.3 0.2-0.1 0-0.3 0.1-0.1 0-0.2 0.1 0 0-0.1 0 0 0 0 0-0.1 0-0.1 0.1 0 0-0.1 0 0 0 0 0-0.1 0-0.1 0-0.1 0-0.1 0 0 0-0.1 0 0 0.1-0.1 0.1 0 0-0.1 0 0 0-0.1 0 0 0-0.1 0-0.2 0-0.4 0h-72.8q-0.2 0-0.4 0 0 0-0.1 0 0 0-0.1 0 0 0-0.1 0 0 0-0.1 0 0 0-0.1-0.1 0 0-0.1 0 0 0 0 0-0.1 0-0.1 0-0.1 0-0.1 0-0.1-0.1-0.3-0.1 0-0.1-0.1-0.1 0 0 0 0-0.1 0-0.1 0 0 0-0.1-0.1 0 0 0 0h-0.1q0 0-0.1-0.1 0 0 0 0-0.1 0-0.1 0 0 0-0.1-0.1 0 0 0 0 0 0-0.1 0 0-0.1-0.1-0.1 0 0 0-0.1-0.1 0-0.1 0-0.2-0.1-0.3-0.2-0.1-0.1-0.1-0.2-0.1 0-0.2-0.1 0-0.1-0.1-0.2 0 0-0.1-0.1-0.1-0.1-0.2-0.2 0-0.1-0.1-0.2-0.1-0.2-0.1-0.3-0.1-0.1-0.1-0.2-0.1-0.2-0.1-0.3-0.1-0.1-0.1-0.2-0.1-0.2-0.1-0.3 0-0.1 0-0.3 0-0.1-0.1-0.3 0-0.1 0-0.2v-43.8l30 23.6 0.5 0.4 4.9 3.9q1.1 0.9 2.5 1.3 1.3 0.5 2.7 0.5 1.4 0 2.7-0.5 1.4-0.4 2.5-1.3l4.9-3.9 0.6-0.4z"/>
							<g id="Group_167771" style="opacity: .2">
								<g id="Group_167770">
									<g id="Clip-Path: Group_167769" clip-path="url(#cp35)">
										<g id="Group_167769">
											<path id="Path_239100" class="s8" d="m364.9 336.5q0 0.2-0.1 0.4 0 0.1-0.1 0.3-0.1 0.2-0.2 0.4-0.1 0.2-0.2 0.3 0 0-0.1 0.1 0 0 0 0 0 0 0 0.1-0.1 0-0.1 0-0.1 0.1-0.2 0.2-0.1 0.2-0.2 0.3-0.1 0.1-0.3 0.2-0.1 0.1-0.3 0.2 0 0 0 0-0.1 0.1-0.3 0.2-0.1 0-0.3 0.1-0.1 0-0.2 0.1 0 0-0.1 0 0 0 0 0-0.1 0-0.1 0.1 0 0-0.1 0 0 0 0 0-0.1 0-0.1 0-0.1 0-0.1 0 0 0-0.1 0 0 0.1-0.1 0.1 0 0-0.1 0 0 0-0.1 0 0 0-0.1 0-0.2 0-0.4 0h-72.8q-0.2 0-0.4 0 0 0-0.1 0 0 0-0.1 0 0 0-0.1 0 0 0-0.1 0 0 0-0.1-0.1 0 0-0.1 0 0 0 0 0-0.1 0-0.1 0-0.1 0-0.1 0-0.1-0.1-0.3-0.1 0-0.1-0.1-0.1 0 0 0 0-0.1 0-0.1 0 0 0-0.1-0.1 0 0 0 0h-0.1q-0.1-0.1-0.3-0.2 0 0 0 0 0 0-0.1 0 0-0.1-0.1-0.1 0 0 0-0.1-0.1 0-0.1 0-0.2-0.1-0.3-0.2-0.1-0.1-0.1-0.2-0.1 0-0.2-0.1 0-0.1-0.1-0.2 0 0-0.1-0.1-0.1-0.1-0.2-0.2 0-0.1-0.1-0.2-0.1-0.2-0.1-0.3-0.1-0.1-0.1-0.2-0.1-0.2-0.1-0.3-0.1-0.1-0.1-0.2l29.8-21.3 0.5 0.4 4.9 3.9q1.1 0.9 2.5 1.3 1.3 0.5 2.7 0.5 1.4 0 2.7-0.5 1.4-0.4 2.5-1.3l4.9-3.9 0.6-0.4z"/>
										</g>
									</g>
								</g>
							</g>
							<path id="Path_239101" class="s9" d="m363.7 338.6q-0.1 0.1-0.3 0.2-0.1 0.1-0.3 0.2 0 0 0 0-0.1 0.1-0.3 0.2-0.1 0-0.2 0.1-0.2 0-0.3 0.1 0 0-0.1 0 0 0 0 0-0.1 0-0.1 0.1 0 0-0.1 0 0 0 0 0-0.1 0-0.1 0 0 0-0.1 0 0 0-0.1 0 0 0.1-0.1 0.1 0 0-0.1 0 0 0-0.1 0 0 0-0.1 0-0.2 0-0.4 0h-72.8q-0.2 0-0.4 0 0 0-0.1 0 0 0-0.1 0 0 0-0.1 0 0 0-0.1 0 0 0-0.1-0.1 0 0-0.1 0 0 0 0 0-0.1 0-0.1 0-0.1 0-0.1 0-0.1-0.1-0.3-0.1 0-0.1-0.1-0.1 0 0 0 0-0.1 0-0.1 0 0 0-0.1-0.1 0 0 0 0h-0.1q0 0-0.1-0.1 0 0 0 0-0.1 0-0.1 0 0 0-0.1-0.1 0 0-0.1 0 0-0.1-0.1-0.1 0 0 0-0.1-0.1 0-0.1 0-0.2-0.1-0.3-0.2l29.1-22.9 4.9 3.9q1.1 0.9 2.5 1.3 1.3 0.5 2.7 0.5 1.4 0 2.7-0.5 1.4-0.4 2.5-1.3l4.9-3.9z"/>
							<path id="Path_239102" fill-rule="evenodd" class="s9" d="m331.2 299.8q-0.9 0.5-1.9 0.8-0.9 0.3-1.9 0.5-1 0.2-2 0.3-1 0.1-2 0.1c-7 0-13.2-5.1-13.2-13.5 0-8.7 6.3-16.3 15.9-16.3 7.5 0 12.7 5.2 12.7 12.3 0 6.4-3.6 10.2-7.9 10.2-1.9 0-3.4-1-3.5-3.5h-0.1q-0.4 0.8-1 1.5-0.6 0.6-1.4 1.1-0.7 0.4-1.6 0.7-0.8 0.2-1.7 0.2c-2.7 0-4.8-2-4.8-5.4 0-1.4 0.3-2.7 0.8-3.9 0.5-1.3 1.2-2.4 2.2-3.3 0.9-1 2-1.7 3.3-2.2 1.2-0.5 2.5-0.7 3.8-0.7q0.7 0 1.3 0 0.6 0.1 1.2 0.2 0.6 0.1 1.2 0.3 0.6 0.2 1.2 0.5l-1.4 7.8c-0.5 2.9-0.1 4.2 1.2 4.2 2 0.1 4.4-2.5 4.4-7.4 0-6-3.7-10.3-10.3-10.3-6.8 0-12.6 5.3-12.6 13.7 0 7.2 4.7 11.4 11 11.4q0.8 0 1.6-0.1 0.9-0.1 1.7-0.3 0.8-0.1 1.5-0.4 0.8-0.3 1.5-0.6zm-3.1-18.1q-0.2 0-0.4-0.1-0.2 0-0.4-0.1-0.2 0-0.5 0-0.2 0-0.4 0c-3.3 0-5.8 3.1-5.8 6.8 0 1.7 0.8 2.9 2.4 2.9 2 0 3.9-2.5 4.3-5.1z"/>
							<path id="Path_239103" class="s9" d="m371.1 53.9l15.8 85.4q0.1 0.6 0 1.1-0.1 0.6-0.5 1.1-0.3 0.4-0.8 0.7-0.4 0.3-1 0.4l-129.9 24q-0.6 0.1-1.1 0-0.6-0.1-1.1-0.5-0.4-0.3-0.7-0.8-0.3-0.4-0.4-1l-15.8-85.5q-0.1-0.5 0-1.1 0.1-0.5 0.5-1 0.3-0.5 0.8-0.8 0.4-0.3 1-0.4l129.9-23.9q0.6-0.1 1.1 0 0.6 0.1 1.1 0.4 0.4 0.4 0.7 0.8 0.3 0.5 0.4 1.1z"/>
							<path id="Path_239104" class="s7" d="m254.8 162.5l-13.5-73.3q0 0 0-0.1 0.1 0 0.1-0.1 0 0 0 0 0.1-0.1 0.1-0.1l127.7-23.5q0.1 0 0.1 0 0 0 0.1 0 0 0.1 0.1 0.1 0 0 0 0.1l13.5 73.3q0 0 0 0.1 0 0 0 0.1-0.1 0-0.1 0-0.1 0-0.1 0.1l-127.7 23.5q0 0-0.1 0 0 0-0.1-0.1 0 0 0 0 0-0.1-0.1-0.1z"/>
							<g id="Group_167774" style="opacity: .2">
								<g id="Group_167773">
									<g id="Clip-Path: Group_167772" clip-path="url(#cp36)">
										<g id="Group_167772">
											<path id="Rectangle_23624" class="s8" d="m255.1 162.7l127.9-23.6 0.3 1.3-127.9 23.6z"/>
										</g>
									</g>
								</g>
							</g>
							<g id="Group_167777" style="opacity: .2">
								<g id="Group_167776">
									<g id="Clip-Path: Group_167775" clip-path="url(#cp37)">
										<g id="Group_167775">
											<path id="Path_239105" class="s8" d="m248.3 81.1c0.3 1.2-0.2 2.3-1.2 3-1 0.6-2.2 0.6-3.2-0.1-1-0.6-1.4-1.8-1.2-2.9 0.3-1.2 1.2-2 2.3-2.3q0.6-0.1 1.1 0.1 0.6 0.1 1.1 0.4 0.4 0.3 0.7 0.8 0.3 0.5 0.4 1z"/>
											<path id="Path_239106" class="s8" d="m256.3 79.7c0.2 1.1-0.3 2.3-1.3 2.9-1 0.6-2.2 0.6-3.2 0-0.9-0.7-1.4-1.9-1.2-3 0.3-1.1 1.2-2 2.3-2.2q0.6-0.1 1.1 0 0.6 0.1 1.1 0.4 0.4 0.4 0.8 0.8 0.3 0.5 0.4 1.1z"/>
											<path id="Path_239107" class="s8" d="m264.2 78.2c0.2 1.2-0.3 2.3-1.3 3-0.9 0.6-2.2 0.6-3.2-0.1-0.9-0.6-1.4-1.8-1.1-2.9 0.2-1.2 1.1-2.1 2.2-2.3q0.6-0.1 1.2 0 0.5 0.2 1 0.5 0.5 0.3 0.8 0.8 0.3 0.5 0.4 1z"/>
										</g>
									</g>
								</g>
							</g>
							<path id="Path_239108" class="s6" d="m248.2 80.3c0.2 1.2-0.3 2.3-1.3 3-0.9 0.6-2.2 0.6-3.1-0.1-1-0.6-1.5-1.8-1.2-2.9 0.2-1.2 1.1-2 2.3-2.3q0.5-0.1 1.1 0.1 0.5 0.1 1 0.4 0.5 0.3 0.8 0.8 0.3 0.5 0.4 1z"/>
							<path id="Path_239109" class="s7" d="m256.1 78.9c0.2 1.1-0.3 2.3-1.2 2.9-1 0.7-2.3 0.6-3.2 0-1-0.7-1.5-1.9-1.2-3 0.2-1.1 1.1-2 2.3-2.2q0.5-0.1 1.1 0 0.6 0.1 1 0.4 0.5 0.4 0.8 0.8 0.3 0.5 0.4 1.1z"/>
							<path id="Path_239110" class="s6" d="m264 77.4c0.3 1.2-0.2 2.3-1.2 3-1 0.6-2.3 0.6-3.2-0.1-1-0.6-1.4-1.8-1.2-2.9 0.2-1.2 1.2-2.1 2.3-2.3q0.6-0.1 1.1 0 0.6 0.2 1 0.5 0.5 0.3 0.8 0.8 0.3 0.5 0.4 1z"/>
							<g id="Group_167780" style="opacity: .4">
								<g id="Group_167779">
									<g id="Clip-Path: Group_167778" clip-path="url(#cp38)">
										<g id="Group_167778">
											<path id="Path_239111" class="s8" d="m371.1 53.9l15.8 85.4q0.1 0.6 0 1.1-0.1 0.6-0.5 1.1-0.3 0.4-0.8 0.7-0.4 0.3-1 0.4l-30.3 5.6c5.4-10 9.3-21.1 9.3-32.4-0.1-12.8-5.2-25.2-12.4-35.8-5.2-7.7-11.6-15.8-18.8-21.9l35.4-6.5q0.6-0.1 1.1 0 0.6 0.1 1.1 0.4 0.4 0.4 0.7 0.8 0.3 0.5 0.4 1.1z"/>
										</g>
									</g>
								</g>
							</g>
							<path id="Path_239112" class="s9" d="m276.7 112l3.2 7.2c0.7 1.7 1.4 3.4 2 5.2h0.1c0-1.9 0.2-3.8 0.4-5.6l0.7-8 3.4-0.6 3.4 7c0.9 1.8 1.7 3.5 2.4 5.3h0.1c-0.1-1.9-0.1-3.8 0-5.8l0.5-7.7 4.1-0.7-2.1 17.5-3.9 0.7-3.2-6.4q-0.3-0.6-0.6-1.2-0.3-0.6-0.6-1.3-0.3-0.6-0.6-1.2-0.2-0.7-0.5-1.3 0 0.7 0 1.4-0.1 0.7-0.1 1.4 0 0.6-0.1 1.3 0 0.7-0.1 1.4l-0.9 7.1-3.9 0.8-7.9-15.7z"/>
							<path id="Path_239113" class="s9" d="m302.8 107.2l3.1 7.2c0.7 1.7 1.4 3.4 2 5.2h0.1c0-1.9 0.2-3.8 0.4-5.6l0.7-8 3.4-0.6 3.5 7c0.8 1.8 1.6 3.5 2.3 5.3h0.1c-0.1-1.9 0-3.8 0-5.8l0.5-7.7 4.1-0.7-2.1 17.5-3.9 0.7-3.2-6.4q-0.3-0.6-0.6-1.2-0.3-0.6-0.6-1.3-0.3-0.6-0.5-1.2-0.3-0.7-0.5-1.3h-0.1q0 0.7 0 1.4 0 0.7-0.1 1.4 0 0.7-0.1 1.3 0 0.7-0.1 1.4l-0.9 7.1-3.9 0.8-7.9-15.7z"/>
							<path id="Path_239114" class="s9" d="m328.8 102.4l3.1 7.2c0.7 1.7 1.4 3.4 2.1 5.2 0-1.9 0.2-3.8 0.4-5.6l0.7-8 3.5-0.6 3.4 7c0.8 1.8 1.6 3.5 2.3 5.3h0.1c-0.1-1.9 0-3.8 0.1-5.8l0.4-7.7 4.2-0.7-2.2 17.5-3.9 0.7-3.2-6.4q-0.3-0.6-0.6-1.2-0.3-0.6-0.6-1.3-0.3-0.6-0.5-1.2-0.3-0.7-0.5-1.3h-0.1q0 0.7 0 1.4 0 0.7 0 1.4-0.1 0.7-0.1 1.3-0.1 0.7-0.2 1.4l-0.8 7.1-3.9 0.8-8-15.7z"/>
							<path id="Path_239115" class="s6" d="m119.8 210.4l23.4 91.6q0.2 0.8 0.1 1.7-0.2 0.8-0.6 1.5-0.4 0.8-1.1 1.3-0.7 0.5-1.5 0.7l-94.4 24.1q-0.8 0.2-1.7 0.1-0.8-0.1-1.5-0.5-0.8-0.5-1.3-1.1-0.5-0.7-0.7-1.5l-23.4-91.6q-0.2-0.8-0.1-1.7 0.1-0.8 0.6-1.5 0.4-0.8 1.1-1.3 0.7-0.5 1.5-0.7l94.4-24.1q0.8-0.2 1.6-0.1 0.9 0.1 1.6 0.5 0.7 0.5 1.3 1.1 0.5 0.7 0.7 1.5z"/>
							<g id="Group_167783" style="opacity: .2">
								<g id="Group_167782">
									<g id="Clip-Path: Group_167781" clip-path="url(#cp39)">
										<g id="Group_167781">
											<path id="Rectangle_23628" class="s7" d="m38.8 247.8l16.1-4.1 17.5 68.5-16.1 4.1z"/>
										</g>
									</g>
								</g>
							</g>
							<g id="Group_167786" style="opacity: .2">
								<g id="Group_167785">
									<g id="Clip-Path: Group_167784" clip-path="url(#cp40)">
										<g id="Group_167784">
											<path id="Rectangle_23630" class="s7" d="m73.1 239.1l18.2-4.7 17.5 68.4-18.2 4.7z"/>
										</g>
									</g>
								</g>
							</g>
							<path id="Path_239116" class="s9" d="m125.4 298.8l-69.3 17.8-18-70.5 0.4-0.1 17.9 70 68.9-17.6z"/>
							<path id="Path_239117" class="s9" d="m37.2 241.7l-1 6.3 4.9-1.2z"/>
							<path id="Path_239118" class="s9" d="m130.6 297.3l-6.3-1 1.2 4.9z"/>
							<g id="Group_167789" style="opacity: .5">
								<g id="Group_167788">
									<g id="Clip-Path: Group_167787" clip-path="url(#cp41)">
										<g id="Group_167787">
											<path id="Rectangle_23632" class="s9" d="m54.6 243.3l0.4-0.1 0.2 0.9-0.4 0.1z"/>
											<path id="Path_239119" class="s9" d="m57.1 251.5l-0.4 0.1-0.5-1.8 0.4-0.2zm-0.9-3.7l-0.4 0.2-0.5-1.9 0.4-0.1z"/>
											<path id="Path_239120" class="s9" d="m71.3 306.9l-0.4 0.1-0.5-1.8 0.4-0.1zm-0.9-3.7l-0.5 0.1-0.4-1.8 0.4-0.2zm-0.9-3.7l-0.5 0.2-0.5-1.9 0.5-0.1zm-1-3.7l-0.4 0.1-0.5-1.8 0.5-0.1zm-1-3.7l-0.4 0.1-0.5-1.9 0.4-0.1zm-0.9-3.7l-0.4 0.1-0.5-1.8 0.4-0.1zm-0.9-3.7l-0.4 0.1-0.5-1.9 0.4-0.1zm-0.9-3.7l-0.5 0.1-0.4-1.8 0.4-0.1zm-0.9-3.7l-0.5 0.1-0.5-1.9 0.5-0.1zm-1-3.7l-0.4 0.1-0.5-1.8 0.5-0.1zm-1-3.7l-0.4 0.1-0.5-1.8 0.4-0.2zm-0.9-3.7l-0.4 0.2-0.5-1.9 0.4-0.1zm-0.9-3.7l-0.4 0.1-0.5-1.8 0.4-0.1zm-0.9-3.7l-0.5 0.1-0.4-1.9 0.4-0.1zm-0.9-3.7l-0.5 0.1-0.5-1.8 0.5-0.1z"/>
											<path id="Rectangle_23633" class="s9" d="m71.3 308.9l0.5-0.1 0.2 0.8-0.5 0.2z"/>
										</g>
									</g>
								</g>
							</g>
							<g id="Group_167792" style="opacity: .5">
								<g id="Group_167791">
									<g id="Clip-Path: Group_167790" clip-path="url(#cp42)">
										<g id="Group_167790">
											<path id="Rectangle_23635" class="s9" d="m91 234l0.4-0.1 0.2 0.9-0.4 0.1z"/>
											<path id="Path_239121" class="s9" d="m93.5 242.2l-0.4 0.1-0.5-1.9 0.5-0.1zm-1-3.7l-0.4 0.1-0.5-1.8 0.5-0.1z"/>
											<path id="Path_239122" class="s9" d="m107.7 297.6l-0.4 0.1-0.5-1.8 0.4-0.1zm-0.9-3.7l-0.4 0.1-0.5-1.9 0.4-0.1zm-0.9-3.7l-0.5 0.1-0.4-1.8 0.4-0.1zm-0.9-3.7l-0.5 0.1-0.4-1.8 0.4-0.2zm-1-3.7l-0.4 0.2-0.5-1.9 0.5-0.1zm-1-3.7l-0.4 0.1-0.5-1.8 0.5-0.1zm-1-3.7l-0.4 0.1-0.5-1.9 0.4-0.1zm-0.9-3.7l-0.4 0.1-0.5-1.8 0.4-0.1zm-0.9-3.7l-0.5 0.1-0.4-1.9 0.4-0.1zm-0.9-3.7l-0.5 0.1-0.4-1.8 0.4-0.1zm-1-3.7l-0.4 0.1-0.5-1.9 0.5-0.1zm-1-3.7l-0.4 0.1-0.5-1.8 0.5-0.1zm-1-3.7l-0.4 0.1-0.5-1.8 0.4-0.2zm-0.9-3.6l-0.4 0.1-0.5-1.9 0.4-0.1zm-0.9-3.7l-0.5 0.1-0.4-1.8 0.4-0.1z"/>
											<path id="Rectangle_23636" class="s9" d="m107.8 299.6l0.4-0.1 0.2 0.8-0.4 0.1z"/>
										</g>
									</g>
								</g>
							</g>
							<g id="Group_167795" style="opacity: .5">
								<g id="Group_167794">
									<g id="Clip-Path: Group_167793" clip-path="url(#cp43)">
										<g id="Group_167793">
											<path id="Rectangle_23638" class="s9" d="m72.8 238.7l0.4-0.1 0.2 0.8-0.4 0.2z"/>
											<path id="Path_239123" class="s9" d="m75.3 246.8l-0.4 0.1-0.5-1.8 0.5-0.1zm-1-3.7l-0.4 0.1-0.5-1.8 0.4-0.2z"/>
											<path id="Path_239124" class="s9" d="m89.5 302.3l-0.4 0.1-0.5-1.9 0.4-0.1zm-0.9-3.7l-0.4 0.1-0.5-1.8 0.4-0.1zm-0.9-3.7l-0.5 0.1-0.4-1.8 0.4-0.2zm-0.9-3.7l-0.5 0.2-0.5-1.9 0.5-0.1zm-1-3.7l-0.4 0.1-0.5-1.8 0.5-0.1zm-1-3.7l-0.4 0.1-0.5-1.9 0.4-0.1zm-0.9-3.7l-0.4 0.1-0.5-1.8 0.4-0.1zm-0.9-3.7l-0.4 0.1-0.5-1.9 0.4-0.1zm-0.9-3.7l-0.5 0.1-0.4-1.8 0.4-0.1zm-0.9-3.7l-0.5 0.1-0.5-1.9 0.5-0.1zm-1-3.7l-0.4 0.1-0.5-1.8 0.5-0.1zm-1-3.7l-0.4 0.1-0.5-1.8 0.4-0.2zm-0.9-3.7l-0.4 0.2-0.5-1.9 0.4-0.1zm-0.9-3.7l-0.4 0.1-0.5-1.8 0.4-0.1zm-0.9-3.7l-0.5 0.1-0.4-1.9 0.4-0.1z"/>
											<path id="Rectangle_23639" class="s9" d="m89.5 304.2l0.5-0.1 0.2 0.9-0.4 0.1z"/>
										</g>
									</g>
								</g>
							</g>
							<path id="Path_239125" fill-rule="evenodd" class="s9" d="m65.7 289.1c-0.8 0.2-1.7-0.1-2.2-0.7-0.5-0.7-0.5-1.6-0.1-2.3 0.4-0.7 1.2-1.1 2.1-1 0.8 0.1 1.4 0.7 1.6 1.5q0.1 0.4 0.1 0.8-0.1 0.4-0.3 0.8-0.2 0.3-0.5 0.6-0.3 0.2-0.7 0.3zm-0.9-3.5c-0.7 0.2-1.1 0.7-1.2 1.3-0.1 0.7 0.2 1.3 0.7 1.6 0.6 0.4 1.3 0.3 1.8-0.1 0.6-0.3 0.8-1 0.6-1.6q-0.1-0.4-0.2-0.6-0.2-0.3-0.5-0.4-0.3-0.2-0.6-0.2-0.3-0.1-0.6 0z"/>
							<path id="Path_239126" fill-rule="evenodd" class="s9" d="m78.1 264.9c-0.8 0.2-1.7 0-2.2-0.7-0.5-0.7-0.5-1.6-0.1-2.3 0.4-0.7 1.2-1.1 2.1-1 0.8 0.2 1.4 0.8 1.6 1.6q0.1 0.4 0.1 0.8-0.1 0.4-0.3 0.7-0.2 0.4-0.5 0.6-0.3 0.2-0.7 0.3zm-0.9-3.5c-0.7 0.2-1.1 0.7-1.2 1.3-0.1 0.7 0.2 1.3 0.7 1.7 0.6 0.3 1.3 0.2 1.8-0.1 0.6-0.4 0.8-1.1 0.6-1.7q0-0.3-0.2-0.6-0.2-0.3-0.5-0.4-0.3-0.2-0.6-0.2-0.3-0.1-0.6 0z"/>
							<path id="Path_239127" fill-rule="evenodd" class="s9" d="m90.9 242.4c-0.8 0.2-1.6-0.1-2.1-0.7-0.5-0.7-0.6-1.6-0.2-2.3 0.5-0.7 1.3-1.1 2.1-1 0.8 0.2 1.5 0.8 1.7 1.6q0.1 0.3 0 0.7 0 0.4-0.2 0.8-0.3 0.3-0.6 0.6-0.3 0.2-0.7 0.3zm-0.9-3.5c-0.6 0.2-1.1 0.7-1.2 1.3-0.1 0.7 0.2 1.3 0.8 1.6 0.5 0.4 1.2 0.3 1.8-0.1 0.5-0.3 0.7-1 0.6-1.6q-0.1-0.4-0.3-0.6-0.2-0.3-0.5-0.4-0.3-0.2-0.6-0.2-0.3-0.1-0.6 0z"/>
							<path id="Rectangle_23641" class="s9" d="m56 316.4l8.6-27.5 0.4 0.1-8.6 27.5z"/>
							<path id="Rectangle_23642" class="s9" d="m65.8 285.4l10.8-20.9 0.4 0.2-10.8 20.9z"/>
							<path id="Rectangle_23643" class="s9" d="m78.2 261.2l11.4-19.1 0.4 0.2-11.4 19.1z"/>
							<g id="Group_167798" style="opacity: .4">
								<g id="Group_167797">
									<g id="Clip-Path: Group_167796" clip-path="url(#cp44)">
										<g id="Group_167796">
											<path id="Path_239128" class="s8" d="m119.8 210.4l23.4 91.6q0.2 0.8 0.1 1.7-0.1 0.8-0.6 1.5-0.4 0.8-1.1 1.3-0.7 0.5-1.5 0.7l-35.9 9.2q0.5-1 1.1-1.9c5.2-8.2 10.6-16.3 14.5-25.1 3.9-8.8 6.4-18.6 5.3-28.2-1-9.6-5.5-18.4-11.5-25.9-5.1-6.4-14.8-11.7-17.8-19.3q-0.2-0.4-0.3-0.9-0.2-0.4-0.3-0.9-0.1-0.4-0.2-0.8-0.2-0.5-0.2-1l19.8-5q0.8-0.2 1.6-0.1 0.9 0.1 1.6 0.5 0.7 0.5 1.3 1.1 0.5 0.7 0.7 1.5z"/>
										</g>
									</g>
								</g>
							</g>
							<path id="Path_239129" class="s9" d="m377.2 471c0 1.1-0.8 2.1-2.4 3-2.6 1.6-7.1 2.9-12.7 3.6q-1.4 0.2-2.8 0.3-1.4 0.2-2.8 0.3-1.4 0-2.8 0.1-1.5 0-2.9 0c-14.6 0-26.4-3.3-26.4-7.3 0-2.2 3.2-4.1 8.4-5.4q2.2-0.6 4.4-0.9 2.3-0.4 4.5-0.7 2.3-0.2 4.6-0.3 2.2-0.1 4.5-0.1 2 0 3.9 0 1.9 0.1 3.9 0.3 1.9 0.2 3.8 0.4 2 0.3 3.9 0.7 2.1 0.4 3.8 0.9 0.7 0.2 1.4 0.4 0.7 0.3 1.3 0.6 0.7 0.2 1.3 0.6 0.6 0.3 1.2 0.7c1.2 0.8 1.9 1.8 1.9 2.8z"/>
							<path id="Rectangle_23645" class="s9" d="m324.4 415.3h52.8v55.7h-52.8z"/>
							<g id="Group_167801" style="opacity: .2">
								<g id="Group_167800">
									<g id="Clip-Path: Group_167799" clip-path="url(#cp45)">
										<g id="Group_167799">
											<path id="Path_239130" class="s8" d="m377.2 415.3v55.7c0 1.1-0.8 2.1-2.4 3-2.6 1.6-7.1 2.9-12.7 3.6q0.4-0.3 0.7-0.6 0.4-0.4 0.7-0.7 0.4-0.3 0.7-0.6 0.4-0.3 0.7-0.6 0.5-0.4 1-0.9 0.5-0.5 0.9-1 0.4-0.5 0.8-1.1 0.3-0.6 0.6-1.1 0.3-0.6 0.6-1.3 0.3-0.6 0.5-1.2 0.3-0.6 0.5-1.3 0.2-0.6 0.3-1.3 0.3-1 0.5-2 0.2-1 0.3-2.1 0.2-1 0.3-2.1 0.1-1 0.1-2 0.2-3.1 0.3-6.1 0.1-3.1 0-6.1-0.1-3.1-0.2-6.1-0.2-3.1-0.5-6.1c-0.3-2.2-0.6-4.5-2.2-5.9-1.9-1.8-5-1.6-7.6-1.4q-1.6 0.1-3.2 0.2-1.7 0.1-3.3 0.1-1.6 0-3.2 0-1.6 0-3.2-0.1c-4.3-0.1-16.7-0.4-23.8-3.7v-7.2z"/>
										</g>
									</g>
								</g>
							</g>
							<path id="Path_239131" class="s10" d="m350.8 422.6c-14.6 0-26.4-3.3-26.4-7.3 0-4.1 11.8-7.4 26.4-7.4 14.6 0 26.4 3.3 26.4 7.4 0 4-11.8 7.3-26.4 7.3z"/>
							<path id="Path_239132" class="s6" d="m350.8 420.7c-10.7 0-19.4-2.4-19.4-5.4 0-3 8.7-5.5 19.4-5.5 10.8 0 19.5 2.5 19.5 5.5 0 3-8.7 5.4-19.5 5.4z"/>
							<path id="Path_239133" class="s10" d="m351.3 417.6c-4.7 0-8.5-1-8.5-2.3 0-1.3 3.8-2.4 8.5-2.4 4.7 0 8.5 1.1 8.5 2.4 0 1.3-3.8 2.3-8.5 2.3z"/>
							<path id="Path_239134" class="s9" d="m357.2 415.3q0 0.4-0.6 0.7-0.1 0.1-0.1 0.1-0.1 0-0.2 0.1-0.1 0-0.2 0.1-0.1 0-0.2 0-0.2 0.1-0.5 0.2-0.3 0.1-0.5 0.1-0.3 0.1-0.6 0.1-0.2 0.1-0.5 0.1-0.3 0-0.6 0.1-0.4 0-0.7 0-0.3 0-0.6 0.1-0.3 0-0.6 0c-3.3 0-5.9-0.8-5.9-1.7 0-0.5 0.7-0.9 1.8-1.2q0.5-0.1 1-0.2 0.5-0.1 1-0.1 0.5-0.1 1-0.1 0.6 0 1.1 0 0.4 0 0.8 0 0.5 0 0.9 0 0.4 0.1 0.9 0.1 0.4 0.1 0.8 0.2 0.5 0.1 0.9 0.2 0.1 0 0.2 0.1 0.2 0 0.3 0.1 0.1 0 0.2 0.1 0.1 0 0.2 0.1 0.1 0 0.2 0.1 0.1 0 0.2 0.1 0.1 0.1 0.1 0.2 0.1 0 0.1 0.1 0.1 0.1 0.1 0.2z"/>
							<path id="Rectangle_23647" class="s9" d="m345.4 408.9h11.8v6.4h-11.8z"/>
							<g id="Group_167804" style="opacity: .2">
								<g id="Group_167803">
									<g id="Clip-Path: Group_167802" clip-path="url(#cp46)">
										<g id="Group_167802">
											<path id="Path_239135" class="s8" d="m357.2 408.9v6.4q0 0.4-0.6 0.7-0.1 0.1-0.1 0.1-0.1 0-0.2 0.1-0.1 0-0.2 0.1-0.1 0-0.2 0 0-0.5 0-1 0-0.5-0.1-1 0-0.7-0.1-1.3 0-0.2 0-0.4 0-0.2-0.1-0.3 0-0.2-0.1-0.4-0.1-0.1-0.2-0.3-0.2-0.1-0.4-0.2-0.2 0-0.5-0.1-0.2 0-0.4 0-0.2 0-0.4 0-0.4 0.1-0.8 0.1-0.3 0-0.7 0-0.3 0-0.7 0-0.4 0-0.7 0c-1 0-3.8-0.1-5.3-0.8v-1.7z"/>
										</g>
									</g>
								</g>
							</g>
							<path id="Path_239136" class="s10" d="m351.3 410.6c-3.3 0-5.9-0.7-5.9-1.7 0-0.9 2.6-1.6 5.9-1.6 3.2 0 5.9 0.7 5.9 1.6 0 1-2.7 1.7-5.9 1.7z"/>
							<path id="Path_239137" class="s6" d="m351.3 410.2c-2.4 0-4.4-0.6-4.4-1.3 0-0.6 2-1.2 4.4-1.2 2.4 0 4.3 0.6 4.3 1.2 0 0.7-1.9 1.3-4.3 1.3z"/>
							<path id="Path_239138" class="s9" d="m351.4 409.5c-1.1 0-1.9-0.3-1.9-0.6 0-0.3 0.8-0.5 1.9-0.5 1 0 1.9 0.2 1.9 0.5 0 0.3-0.9 0.6-1.9 0.6z"/>
							<g id="Group_167807" style="opacity: .2">
								<g id="Group_167806">
									<g id="Clip-Path: Group_167805" clip-path="url(#cp47)">
										<g id="Group_167805">
											<path id="Path_239139" class="s8" d="m348.4 438l-5.6 15.4h7l-5.9 12.9 16.6-17.9h-7.3l7.3-10.4z"/>
										</g>
									</g>
								</g>
							</g>
							<path id="Path_239140" class="s7" d="m347.7 437.5l-5.6 15.4h7l-5.9 12.9 16.6-18h-7.3l7.3-10.4z"/>
							<path id="Path_239141" class="s9" d="m522.5 210.4c-37.3 14.2-54.6-2.7-54.6-2.7 0 0-7.2 23.1-46.7 28.4 0 0 8.2 90.8 76.2 88.4 61.1-30.2 25.1-114.1 25.1-114.1z"/>
							<g id="Group_167810" style="opacity: .2">
								<g id="Group_167809">
									<g id="Clip-Path: Group_167808" clip-path="url(#cp48)">
										<g id="Group_167808">
											<path id="Path_239142" class="s8" d="m496.2 319.5c-24.1 0.3-42.5-12.8-54.8-39q-2-4.2-3.6-8.6-1.7-4.3-3-8.8-1.4-4.5-2.5-9-1.1-4.5-1.8-9.1 2.1-0.5 4.1-1c20.7-5.2 31.4-15.5 36.7-22.9 8.1 4 22.4 7.9 43.1 2.7q2-0.5 4.1-1.1 1.6 4.4 2.8 9 1.2 4.5 2.1 9.2 0.9 4.6 1.6 9.3 0.6 4.6 0.9 9.3c1.5 28.7-8.5 48.8-29.7 60z"/>
										</g>
									</g>
								</g>
							</g>
							<path id="Path_239143" class="s7" d="m495.5 316.9c-24 0.3-42.5-12.8-54.8-39q-1.9-4.2-3.6-8.6-1.6-4.3-3-8.8-1.4-4.5-2.4-9-1.1-4.5-1.9-9.1 2.1-0.5 4.2-1c20.7-5.2 31.4-15.5 36.6-22.9 8.2 4 22.5 7.9 43.1 2.7q2.1-0.5 4.2-1.1 1.5 4.4 2.7 9 1.2 4.5 2.2 9.2 0.9 4.6 1.5 9.3 0.6 4.6 0.9 9.3c1.5 28.7-8.5 48.8-29.7 60z"/>
							<g id="Group_167813" style="opacity: .2">
								<g id="Group_167812">
									<g id="Clip-Path: Group_167811" clip-path="url(#cp49)">
										<g id="Group_167811">
											<path id="Path_239144" class="s8" d="m430.2 243.9q2.1-0.5 4.2-1c20.7-5.2 31.4-15.5 36.6-22.9 8.1 4 22.5 8 43.1 2.8q2.1-0.6 4.2-1.2c0.9 2.8 2 6.4 3.1 10.5-1.2-4.8-2.5-8.9-3.5-12q-2.1 0.6-4.1 1.1c-20.7 5.2-35 1.3-43.2-2.7-5.2 7.4-15.9 17.7-36.6 22.9q-2.1 0.5-4.2 0.9c0.6 3.3 1.4 7.5 2.6 12.2-1-4.1-1.7-7.7-2.2-10.6z"/>
										</g>
									</g>
								</g>
							</g>
							<g id="Group_167816" style="opacity: .2">
								<g id="Group_167815">
									<g id="Clip-Path: Group_167814" clip-path="url(#cp50)">
										<g id="Group_167814">
											<path id="Path_239145" fill-rule="evenodd" class="s8" d="m498.4 256.2q0.6 0 1.2 0.3 0.5 0.3 0.9 0.8 0.4 0.5 0.5 1l8.6 28.7q0.2 0.6 0.1 1.2 0 0.6-0.3 1.1-0.3 0.6-0.8 1-0.5 0.4-1 0.5l-10 3-21.6 6.5q-0.5 0.1-1.2 0.1-0.6-0.1-1.1-0.4-0.5-0.3-0.9-0.7-0.4-0.5-0.6-1.1l-8.6-28.7q-0.1-0.6-0.1-1.2 0.1-0.6 0.4-1.1 0.3-0.6 0.7-0.9 0.5-0.4 1.1-0.6l0.8-0.2-0.5-1.7-2.7-9c-0.5-1.8-0.7-3.7-0.5-5.7 0.2-1.9 0.8-3.7 1.7-5.4 0.9-1.7 2.1-3.2 3.6-4.4 1.5-1.2 3.2-2.1 5-2.7l1.9-0.6c1.9-0.5 3.8-0.7 5.7-0.5 1.9 0.2 3.8 0.8 5.5 1.7 1.7 0.9 3.2 2.1 4.4 3.6 1.2 1.5 2.1 3.2 2.6 5.1l3.2 10.6 0.8-0.2q0.6-0.2 1.2-0.1zm-28.3 6.4l0.5 1.6 21.7-6.5-0.5-1.6-2.6-9c-0.4-1.3-1.1-2.5-1.9-3.6-0.9-1-2-1.9-3.2-2.6-1.2-0.6-2.5-1-3.8-1.1-1.4-0.2-2.7-0.1-4 0.3l-1.9 0.6c-1.3 0.4-2.5 1-3.6 1.9-1.1 0.9-1.9 1.9-2.6 3.1-0.6 1.2-1 2.5-1.2 3.9-0.1 1.3 0 2.7 0.4 4zm20.4 15.8q0 0 0 0zm0 0c1.1-1.9 0.9-4.2-0.4-5.9-1.4-1.7-3.6-2.4-5.7-1.8-2.1 0.6-3.6 2.4-3.8 4.6-0.2 2.2 0.9 4.3 2.9 5.2l1.5 5.1c0.2 0.9 0.9 1.7 1.8 2.1 0.8 0.5 1.8 0.6 2.8 0.3 0.9-0.2 1.7-0.9 2.2-1.8 0.4-0.8 0.5-1.8 0.2-2.8z"/>
										</g>
									</g>
								</g>
							</g>
							<path id="Path_239146" fill-rule="evenodd" class="s15" d="m480.1 233.5c1.9 0.2 3.8 0.7 5.5 1.6 1.7 1 3.1 2.2 4.4 3.7 1.2 1.5 2.1 3.2 2.6 5l5.8 19.3-29.9 9-5.8-19.3c-0.5-1.9-0.7-3.8-0.5-5.7 0.2-1.9 0.7-3.8 1.7-5.5 0.9-1.6 2.1-3.1 3.6-4.4 1.5-1.2 3.2-2.1 5-2.6l1.9-0.6c1.9-0.5 3.8-0.7 5.7-0.5zm8.4 11.6c-0.3-1.3-1-2.6-1.8-3.6-0.9-1.1-2-1.9-3.2-2.6-1.2-0.6-2.5-1-3.8-1.2-1.4-0.1-2.8 0-4.1 0.4l-1.8 0.6c-1.3 0.3-2.6 1-3.6 1.8-1.1 0.9-1.9 2-2.6 3.2-0.6 1.2-1 2.5-1.2 3.8-0.1 1.4 0 2.8 0.4 4.1l4.5 15.2 21.8-6.5z"/>
							<path id="Path_239147" fill-rule="evenodd" class="s1" d="m497.8 254.1q0.6 0.1 1.1 0.4 0.6 0.3 1 0.7 0.3 0.5 0.5 1.1l8.6 28.7q0.2 0.6 0.1 1.2-0.1 0.6-0.3 1.1-0.3 0.5-0.8 0.9-0.5 0.4-1.1 0.6l-31.5 9.4q-0.6 0.2-1.2 0.1-0.6 0-1.1-0.3-0.5-0.3-0.9-0.8-0.4-0.5-0.6-1l-8.6-28.7q-0.1-0.6-0.1-1.2 0.1-0.6 0.4-1.2 0.3-0.5 0.7-0.9 0.5-0.4 1.1-0.5l31.5-9.5q0.6-0.1 1.2-0.1zm-8.4 16.3c-1.3-1.7-3.6-2.4-5.7-1.8-2 0.6-3.5 2.5-3.7 4.6-0.2 2.2 0.9 4.3 2.8 5.3l1.5 5c0.3 0.9 1 1.7 1.8 2.2 0.9 0.5 1.9 0.6 2.8 0.3 1-0.3 1.8-0.9 2.2-1.8 0.5-0.9 0.6-1.9 0.3-2.8l-1.5-5c1.1-1.9 0.9-4.3-0.5-6z"/>
							<g id="Group_167819" style="opacity: .2">
								<g id="Group_167818">
									<g id="Clip-Path: Group_167817" clip-path="url(#cp51)">
										<g id="Group_167817">
											<path id="Rectangle_23653" class="s8" d="m465.4 261.8l4.1-1.3 0.5 1.7-4.1 1.2z"/>
										</g>
									</g>
								</g>
							</g>
							<g id="Group_167822" style="opacity: .2">
								<g id="Group_167821">
									<g id="Clip-Path: Group_167820" clip-path="url(#cp52)">
										<g id="Group_167820">
											<path id="Rectangle_23655" class="s8" d="m491.2 254l4.1-1.2 0.5 1.7-4.1 1.2z"/>
										</g>
									</g>
								</g>
							</g>
							<g id="Group_167825" style="opacity: .2">
								<g id="Group_167824">
									<g id="Clip-Path: Group_167823" clip-path="url(#cp53)">
										<g id="Group_167823">
											<path id="Path_239148" class="s8" d="m524.3 230.7l8.6 28.6q0.2 0.6 0.1 1.2-0.1 0.6-0.3 1.2-0.3 0.5-0.8 0.9-0.5 0.4-1.1 0.5l-9.9 3q0.2-0.5 0.3-1 0.2-0.4 0.4-0.9 0.2-0.5 0.4-0.9 0.2-0.5 0.4-1c2.9-6.6 3.4-14.3 0.8-21q-0.2-0.7-0.6-1.5-0.4-0.7-0.8-1.3-0.4-0.7-0.9-1.3-0.6-0.6-1.2-1.1c-3.5-2.9-8.6-2.4-13.1-1.3-1.3 0.3-9 2.4-12.9 1.8l26.8-8q0.6-0.2 1.2-0.1 0.6 0 1.1 0.3 0.6 0.3 1 0.8 0.3 0.5 0.5 1.1z"/>
										</g>
									</g>
								</g>
							</g>
							<path id="Path_239149" class="s6" d="m218.2 0c-5.7 0-11.1 2.2-15.1 6.2-3.9 4-6.2 9.4-6.2 15.1 0 5.6 2.3 11.1 6.2 15 4 4 9.4 6.3 15.1 6.3z"/>
							<path id="Path_239150" class="s1" d="m609.3 388.7l27.5 15.9v-31.8z"/>
							<path id="Ellipse_482" class="s16" d="m19.6 437.5c-9.2 0-16.6-7.4-16.6-16.6 0-9.2 7.4-16.6 16.6-16.6 9.1 0 16.5 7.4 16.5 16.6 0 9.2-7.4 16.6-16.5 16.6z"/>
							<path id="Ellipse_483" class="s17" d="m419.7 37.6c-5.6 2.3-11.9-0.3-14.2-5.9-2.4-5.6 0.3-12 5.9-14.3 5.5-2.3 11.9 0.4 14.2 5.9 2.4 5.6-0.3 12-5.9 14.3z"/>
							<path id="Path_239151" fill-rule="evenodd" class="s3" d="m-34 174.2l9.4 10.2 9.3-10.2 9.4 10.2 9.3-10.2 9.4 10.2 9.3-10.2 9.4 10.2 9.3-10.2 9.4 10.2"/>
						</g>
					</g>
				</g>
			</g>
		</g>
	</g>
</svg>