<svg id="Group_167950" data-name="Group 167950" xmlns="http://www.w3.org/2000/svg" width="53.002" height="53" viewBox="0 0 53.002 53">
  <path id="Path_239255" data-name="Path 239255" d="M8.708,49.124A22.737,22.737,0,0,0,21.52,69.584L10.676,39.872a22.647,22.647,0,0,0-1.968,9.252Z" transform="translate(-4.941 -22.624)" fill="#21759b"/>
  <path id="Path_239256" data-name="Path 239256" d="M51.693,30.293a11.969,11.969,0,0,0-1.875-6.27c-1.152-1.873-2.233-3.458-2.233-5.331A3.937,3.937,0,0,1,51.4,14.658c.1,0,.2.013.295.018a22.728,22.728,0,0,0-34.346,4.279c.533.016,1.036.027,1.463.027,2.378,0,6.059-.289,6.059-.289a.939.939,0,0,1,.146,1.873s-1.232.145-2.6.217L30.7,45.407l4.975-14.921-3.542-9.7c-1.224-.072-2.384-.217-2.384-.217a.939.939,0,0,1,.144-1.873s3.754.289,5.988.289c2.377,0,6.059-.289,6.059-.289a.939.939,0,0,1,.146,1.873s-1.234.145-2.6.217L47.695,45.22l2.268-7.577C50.945,34.5,51.693,32.239,51.693,30.293Z" transform="translate(-9.846 -4.941)" fill="#21759b"/>
  <path id="Path_239257" data-name="Path 239257" d="M53.237,65.857l-6.821,19.82a22.744,22.744,0,0,0,13.971-.363A2,2,0,0,1,60.225,85Z" transform="translate(-26.338 -37.369)" fill="#21759b"/>
  <path id="Path_239258" data-name="Path 239258" d="M96.2,36.046a17.443,17.443,0,0,1,.153,2.338,21.445,21.445,0,0,1-1.729,8.143L87.681,66.6A22.737,22.737,0,0,0,96.2,36.046Z" transform="translate(-49.753 -20.454)" fill="#21759b"/>
  <path id="Path_239259" data-name="Path 239259" d="M26.5,0A26.5,26.5,0,1,0,53,26.5,26.53,26.53,0,0,0,26.5,0Zm0,51.785A25.285,25.285,0,1,1,51.784,26.5,25.315,25.315,0,0,1,26.5,51.785Z" transform="translate(0 0)" fill="#21759b"/>
</svg>
