<svg xmlns="http://www.w3.org/2000/svg" width="400" height="400"><path fill="#FFC10D" d="M249.26 312.795a11.054 11.054 0 0 1-10.381-7.26l-30.42-83.328-28.605 83.134a11.053 11.053 0 0 1-10.449 7.454h-16.641a11.048 11.048 0 0 1-10.384-7.275L80.556 135.438a11.05 11.05 0 0 1 10.385-14.824h34.177c4.746 0 8.96 3.03 10.474 7.528l38.429 114.282 19.968-59.883-17.192-47.088a11.05 11.05 0 0 1 10.379-14.84h34.42a11.05 11.05 0 0 1 10.474 7.528l37.661 112.04s5.871-19.601 5.883-19.645l.976-3.117c4.897-15.636 8.435-26.931 8.435-36.099 0-13.612-4.667-23.003-9.477-31.442l-1.505-2.437c-6.29-10.151-12.242-19.754-12.242-31.706 0-14.39 10.977-30.155 28.708-30.529l.234-.002c14.663 0 32.829 7.611 36.106 43.855.36 3.751.529 7.044.529 10.306 0 15.699-3.254 31.184-10.241 48.712L276.97 305.325a11.05 11.05 0 0 1-10.453 7.469H249.26v.001z"/><path fill="#184F82" d="M290.739 97.254c14.811.001 23.045 11.058 25.103 33.801.332 3.458.484 6.413.484 9.312 0 14.304-3.027 28.541-9.527 44.803l-.059.155-40.224 117.422H249.26l-41.11-112.604-38.744 112.604h-16.641L90.941 132.663h34.177l48.947 145.558 31.626-94.848-18.517-50.711h34.42l48.742 145.008 15.819-52.835.976-3.117c5.189-16.57 8.938-28.542 8.938-39.397 0-16.404-5.689-27.742-11.024-37.083l-1.605-2.601c-5.686-9.173-10.595-17.096-10.595-25.901.003-9.188 6.843-19.249 17.894-19.482m.002-22.099c-.155 0-.312 0-.467.004-11.558.245-22.059 5.32-29.57 14.292-6.42 7.669-9.956 17.358-9.956 27.284 0 15.099 7.391 27.023 13.91 37.544l1.383 2.24c4.356 7.656 7.931 14.938 7.931 25.802 0 5.624-1.882 13.026-4.772 22.604l-26.658-79.304a22.097 22.097 0 0 0-20.948-15.058h-34.419a22.099 22.099 0 0 0-20.759 29.679l15.87 43.462-8.31 24.919-27.912-83.004a22.1 22.1 0 0 0-20.947-15.055H90.939a22.095 22.095 0 0 0-20.77 29.648l61.824 170.083a22.101 22.101 0 0 0 20.77 14.55h16.641a22.096 22.096 0 0 0 20.897-14.909l18.464-53.664 19.733 54.052a22.1 22.1 0 0 0 20.759 14.521h17.258a22.098 22.098 0 0 0 20.907-14.938L327.5 192.912c7.451-18.769 10.924-35.478 10.924-52.548 0-3.608-.185-7.222-.581-11.37-1.419-15.61-5.356-27.568-12.034-36.553-8.284-11.146-20.738-17.286-35.068-17.286z"/><path fill="#FFC10D" d="M47.47 109.284c-6.102 0-11.05-4.949-11.05-11.05V47.47c0-6.102 4.949-11.05 11.05-11.05h50.765c6.102 0 11.05 4.949 11.05 11.05s-4.948 11.05-11.05 11.05H58.52v39.715c0 6.102-4.949 11.049-11.05 11.049zM352.53 363.58h-50.765c-6.102 0-11.05-4.948-11.05-11.05s4.948-11.05 11.05-11.05h39.715v-39.715c0-6.102 4.948-11.05 11.05-11.05s11.05 4.948 11.05 11.05v50.765c0 6.103-4.947 11.05-11.05 11.05z"/><path fill="#184F82" d="M388.95 400H11.05C4.948 400 0 395.053 0 388.95V11.05C0 4.948 4.948 0 11.05 0h377.901C395.053 0 400 4.948 400 11.05v377.901c0 6.102-4.947 11.049-11.05 11.049zM22.099 377.9H377.9V22.099H22.099V377.9z"/></svg>