<svg xmlns="http://www.w3.org/2000/svg" viewBox="0 0 474 474" width="474" height="474">
	<style>
		tspan { white-space:pre }
		.shp0 { fill: #0f4090 } 
	</style>
	<path id="Layer" class="shp0" d="M385.51 301.21C358.07 301.21 333.87 314.29 318.06 334.3L171.4 259.3C173.32 252.14 174.7 244.74 174.7 236.95C174.7 228.48 173.06 220.5 170.78 212.73L316.79 138.07C332.51 159 357.34 172.67 385.53 172.67C433.29 172.67 471.93 134.04 471.93 86.33C471.93 38.66 433.29 0 385.54 0C337.89 0 299.21 38.66 299.21 86.33C299.21 94.13 300.59 101.55 302.53 108.74L155.89 183.74C140.06 163.7 115.81 150.59 88.33 150.59C40.62 150.59 2.01 189.26 2.01 236.96C2.01 284.65 40.62 323.3 88.33 323.3C116.57 323.3 141.38 309.58 157.16 288.64L303.11 363.3C300.82 371.04 299.16 379.09 299.16 387.58C299.16 435.28 337.84 473.93 385.49 473.93C433.25 473.93 471.88 435.28 471.88 387.58C471.9 339.85 433.27 301.21 385.51 301.21L385.51 301.21Z" />
</svg>