<svg xmlns="http://www.w3.org/2000/svg" viewBox="0 0 504.4 504.4"><circle cx="252.2" cy="252.2" r="252.2" fill="#114379"/><path d="M377.4 130.2H127c-16.3 0-29.6 13.2-29.6 29.6v184.8c0 16.3 13.2 29.6 29.6 29.6h250.5c16.3 0 29.6-13.2 29.6-29.6V159.8c-.1-16.3-13.3-29.6-29.7-29.6z" fill="#fff"/><path d="M97.4 183.8v-23.5c0-16.7 13.5-30.2 30.2-30.2h249.3c16.7 0 30.2 13.5 30.2 30.2v23.5H97.4z" fill="#18b35c"/><g fill="#fff"><circle cx="369" cy="158.6" r="10.1"/><circle cx="331" cy="158.6" r="10.1"/><circle cx="293.1" cy="158.6" r="10.1"/></g><path d="M219.8 280.5c-.8-.8-1.2-1.8-1.2-3s.4-2.2 1.2-3 1.8-1.2 3-1.2 2.2.4 3 1.2c.8.8 1.2 1.8 1.2 3s-.4 2.2-1.2 3-1.8 1.2-3 1.2-2.2-.4-3-1.2z" fill="#4cdbc4"/><path d="M245.1 275.5c2.4 0 4.5-1.2 6.4-3.5l4.2 4.7c-3.3 3.4-6.8 5.1-10.6 5.1s-7-1.2-9.7-3.6c-2.6-2.4-3.9-5.6-3.9-9.5 0-3.9 1.3-7.1 4-9.5 2.7-2.4 5.8-3.7 9.5-3.7 1.8 0 3.7.4 5.6 1.1 1.9.8 3.5 1.9 4.9 3.4l-3.7 4.8c-.8-1-1.8-1.7-3-2.3-1.2-.5-2.4-.8-3.5-.8-1.9 0-3.5.6-4.8 1.8s-2 2.9-2 5.1.7 3.8 2 5c1.3 1.3 2.8 1.9 4.6 1.9zm40.4-6.9c0 3.7-1.3 6.8-3.8 9.3-2.6 2.5-5.8 3.8-9.6 3.8-3.9 0-7.1-1.3-9.6-3.8-2.6-2.5-3.8-5.6-3.8-9.3s1.3-6.8 3.8-9.3c2.6-2.5 5.8-3.8 9.6-3.8 3.9 0 7.1 1.3 9.6 3.8s3.8 5.7 3.8 9.3zm-19.8 0c0 2.1.6 3.8 1.8 5.1 1.2 1.3 2.7 2 4.5 2s3.4-.7 4.5-2c1.2-1.3 1.8-3 1.8-5.1 0-2.1-.6-3.8-1.8-5.1-1.2-1.3-2.7-2-4.5-2s-3.4.7-4.5 2c-1.2 1.4-1.8 3.1-1.8 5.1zm48.4-1v13.7H307v-13.9c0-2-.3-3.5-.9-4.4-.6-.9-1.6-1.4-3-1.4s-2.6.5-3.6 1.5c-1.1 1-1.6 2.5-1.6 4.5v13.7h-7.1v-25.4h7.1v2.9c2-2.2 4.2-3.3 6.7-3.3 1.6 0 3.1.5 4.4 1.4 1.3.9 2.3 2.1 3 3.5 1-1.5 2.3-2.7 3.9-3.6 1.7-.9 3.3-1.3 5-1.3 3 0 5.4.9 7.2 2.7 1.8 1.8 2.7 4.4 2.7 7.7v15.5h-7.1v-13.9c0-3.9-1.4-5.9-4.3-5.9-1.4 0-2.6.5-3.7 1.5-1.1 1.1-1.6 2.6-1.6 4.5zM219.8 333c-.8-.8-1.2-1.8-1.2-3s.4-2.2 1.2-3 1.8-1.2 3-1.2 2.2.4 3 1.2c.8.8 1.2 1.8 1.2 3s-.4 2.2-1.2 3-1.8 1.2-3 1.2-2.2-.4-3-1.2zm20.2-13.4v14.2h-7.1v-25.4h7.1v2.8c2.1-2.2 4.6-3.3 7.2-3.3 2.7 0 4.9.9 6.7 2.8 1.8 1.9 2.7 4.4 2.7 7.6v15.5h-7.1v-14.4c0-3.9-1.4-5.9-4.3-5.9-1.4 0-2.7.5-3.7 1.5-.9 1.1-1.5 2.6-1.5 4.6zm45.2 10.5c-2.9 2.7-6.2 4.1-10.1 4.1-3.9 0-7.1-1.2-9.6-3.6-2.5-2.4-3.8-5.6-3.8-9.6s1.3-7.2 3.9-9.6c2.6-2.4 5.6-3.5 9.1-3.5s6.5 1.1 8.9 3.2c2.4 2.1 3.7 5 3.7 8.7v3.8h-18.5c.2 1.4.9 2.5 2.2 3.4 1.2.9 2.6 1.3 4.2 1.3 2.5 0 4.5-.8 6.1-2.5l3.9 4.3zm-6.8-15.1c-1-.8-2.2-1.2-3.6-1.2s-2.7.4-3.9 1.3c-1.2.9-1.8 2-2 3.5h11.2c-.2-1.6-.7-2.8-1.7-3.6zm22.2-1.6v11.4c0 1 .3 1.7.8 2.3.5.6 1.1.8 1.8.8 1.3 0 2.4-.6 3.4-1.8l2.6 5c-2.2 2-4.5 3-7 3s-4.5-.8-6.2-2.4c-1.7-1.6-2.5-3.8-2.5-6.6v-11.7h-3v-5.1h3v-7.6h7.1v7.6h6.1v5.1h-6.1z" fill="#18b35c"/><path fill="#ff7058" d="M173.6 252.2h29.7v29.7h-29.7z"/><path d="M173.6 307.9h29.7v29.7h-29.7zm31.2-79.4h-7.3l-8.7-25.4h7.3l5 15.4 5-15.4h6.9l5 15.4 5-15.4h7.4l-8.7 25.4h-7.5l-4.7-13.9-4.7 13.9zm42.7 0h-7.3l-8.7-25.4h7.3l5 15.4 5-15.4h6.9l5 15.4 5-15.4h7.4l-8.7 25.4H257l-4.7-13.9-4.8 13.9zm42.6 0h-7.3l-8.7-25.4h7.3l5 15.4 5-15.4h6.9l5 15.4 5-15.4h7.4l-8.7 25.4h-7.4l-4.7-13.9-4.8 13.9z" fill="#54c0eb"/></svg>