<svg xmlns="http://www.w3.org/2000/svg" width="512" height="512"><circle cx="256" cy="256" r="256" data-original="#FFDC00" data-old_color="#FFDC00" fill="#114379"/><path d="M511.993 256.545L337.133 80.478 253 48.333l-67.333 36-53.638 87.049 142.026 142.026-187.781 74.545 119.015 119.015A257.189 257.189 0 0 0 256 512c141.203 0 255.698-114.322 255.993-255.455z" data-original="#FFC000" data-old_color="#0f2d4e" fill="#0f2d4e"/><circle cx="256.16" cy="156.87" r="86.66" data-original="#008CC3" data-old_color="#10AC54" fill="#0ba04c"/><path d="M256.163 70.217c-.166 0-.33.005-.496.006v173.298c.166.001.33.006.496.006 47.858 0 86.655-38.797 86.655-86.655s-38.797-86.655-86.655-86.655z" data-original="#0074A3" data-old_color="#18b35c" fill="#18b35c"/><path d="M363.15 150.336h-17c0-49.619-40.368-89.988-89.988-89.988-49.619 0-89.987 40.368-89.987 89.988h-17c0-58.993 47.994-106.988 106.987-106.988S363.15 91.343 363.15 150.336z" data-original="#005C83" data-old_color="#18B35C" fill="#0ba04c"/><path d="M256.162 43.348c-.166 0-.33.006-.495.006v17c.165-.001.33-.006.495-.006 49.62 0 89.988 40.368 89.988 89.988h17c0-58.993-47.995-106.988-106.988-106.988z" data-original="#00263F" data-old_color="#00263F" fill="#0ba04c"/><path d="M256.163 257.12c-81.524 0-150.059 55.536-169.889 130.833h339.778c-19.83-75.297-88.365-130.833-169.889-130.833z" data-original="#0074A3" data-old_color="#18b35c" fill="#18b35c"/><path d="M256.163 257.12c-.166 0-.33.005-.496.005v130.827h170.385c-19.83-75.296-88.365-130.832-169.889-130.832z" data-original="#005C83" data-old_color="#18B35C" fill="#0ba04c"/><path d="M318.111 219.833H257v-17h61.111c13.54 0 24.556-11.015 24.556-24.555v-34.945h17v34.945c0 22.914-18.642 41.555-41.556 41.555z" data-original="#00263F" data-old_color="#00263F" fill="#0ba04c"/><path data-original="#FFD863" data-old_color="#FFD863" fill="#114379" d="M230.33 197.67h53.33v27.333h-53.33z"/><path data-original="#FFCF35" data-old_color="#06356E" fill="#06356d" d="M255.67 197.67h28v27.333h-28z"/><path d="M356.077 182.667h-14.259v-59.103h14.259c16.321 0 29.551 13.231 29.551 29.551.001 16.321-13.23 29.552-29.551 29.552z" data-original="#AE4E32" data-old_color="#AE4E32" fill="#ffc000"/><path d="M155.248 123.564h14.259v59.103h-14.259c-16.321 0-29.551-13.231-29.551-29.551 0-16.322 13.231-29.552 29.551-29.552z" data-original="#FF6838" class="active-path" data-old_color="#FF6838" fill="#ffc000"/></svg>