<svg xmlns="http://www.w3.org/2000/svg" viewBox="0 0 491.52 491.52"><circle cx="245.76" cy="245.76" r="245.76" fill="#164a81"/><path d="M379.717 104.96H111.804a6.844 6.844 0 0 0-6.844 6.843v40.031h281.6v-40.031a6.843 6.843 0 0 0-6.843-6.843z" fill="#3a556a"/><circle cx="314.266" cy="128.41" r="7.731" fill="#fcd462"/><circle cx="341.837" cy="128.41" r="7.731" fill="#44c4a1"/><circle cx="369.408" cy="128.41" r="7.731" fill="#e56353"/><path d="M166.487 146.714h47.71l-2.808-8.304a3.36 3.36 0 0 0-3.184-2.284h-45.422c.099.226.259.411.339.648l3.365 9.94z" fill="#ebf0f3"/><path d="M386.56 151.834H165.224a3.363 3.363 0 0 1-3.184-2.284l-3.766-11.14a3.36 3.36 0 0 0-3.183-2.284h-34.81a3.36 3.36 0 0 0-3.184 2.284l-3.766 11.14a3.363 3.363 0 0 1-3.184 2.284h-5.186v23.453h281.6v-23.453z" fill="#64798a"/><path d="M104.96 379.717a6.843 6.843 0 0 0 6.842 6.843h267.915a6.843 6.843 0 0 0 6.842-6.843v-204.43h-281.6v204.43z" fill="#ebf0f3"/><path d="M104.96 369.477a6.843 6.843 0 0 0 6.842 6.843h267.915a6.843 6.843 0 0 0 6.842-6.843v-194.19h-281.6v194.19zm51.165-202.844h-30.7a3.071 3.071 0 0 1-3.07-3.073 3.071 3.071 0 0 1 3.07-3.073h30.7a3.071 3.071 0 0 1 3.07 3.073 3.071 3.071 0 0 1-3.07 3.073zm52.495 0h-30.7a3.071 3.071 0 0 1-3.07-3.073 3.071 3.071 0 0 1 3.07-3.073h30.7a3.071 3.071 0 0 1 3.07 3.073 3.071 3.071 0 0 1-3.07 3.073zm52.49 0h-30.695a3.071 3.071 0 0 1-3.07-3.073 3.071 3.071 0 0 1 3.07-3.073h30.695a3.071 3.071 0 0 1 3.07 3.073 3.071 3.071 0 0 1-3.07 3.073zm52.495 0h-30.7a3.071 3.071 0 0 1-3.07-3.073 3.071 3.071 0 0 1 3.07-3.073h30.7a3.071 3.071 0 0 1 3.07 3.073 3.071 3.071 0 0 1-3.07 3.073zm52.49 0H335.4a3.071 3.071 0 0 1-3.07-3.073 3.071 3.071 0 0 1 3.07-3.073h30.695a3.071 3.071 0 0 1 3.07 3.073 3.071 3.071 0 0 1-3.07 3.073z" fill="#fff"/><path d="M148.05 282.254v18.705h-7.278v-48.125h7.278v19.873c1.036-2.12 2.606-3.787 4.704-5a13.396 13.396 0 0 1 6.792-1.818c3.895 0 7.046 1.192 9.445 3.573 2.405 2.381 3.604 5.822 3.604 10.325v21.173h-7.273v-18.964c0-6.366-2.642-9.548-7.923-9.548-2.51 0-4.699.835-6.559 2.5-1.859 1.666-2.79 4.103-2.79 7.306zm43.641-10.003v17.537c0 1.647.433 2.955 1.3 3.93.867.973 2.077 1.462 3.637 1.462 1.559 0 3.049-.759 4.482-2.273l2.986 5.129c-2.553 2.296-5.381 3.443-8.478 3.443-3.092 0-5.734-1.073-7.923-3.216-2.183-2.143-3.277-5.035-3.277-8.671v-17.341h-4.35v-5.843h4.35V255.56h7.272v10.848h9.091v5.843h-9.09zm27.145 0v17.537c0 1.647.434 2.955 1.3 3.93.867.973 2.077 1.462 3.636 1.462 1.559 0 3.049-.759 4.482-2.273l2.986 5.129c-2.553 2.296-5.381 3.443-8.478 3.443-3.092 0-5.734-1.073-7.923-3.216-2.183-2.143-3.277-5.035-3.277-8.671v-17.341h-4.35v-5.843h4.35V255.56h7.272v10.848h9.091v5.843h-9.089zm36.696-6.363c4.635 0 8.594 1.602 11.887 4.807 3.293 3.203 4.937 7.468 4.937 12.793 0 5.325-1.633 9.656-4.905 12.989-3.266 3.335-7.077 5.002-11.427 5.002-4.355 0-8.261-1.905-11.723-5.716v17.796h-7.278v-47.15h7.278v6.039c2.854-4.375 6.601-6.56 11.231-6.56zm-11.363 17.859c0 3.293.994 5.988 2.986 8.087 1.993 2.101 4.419 3.15 7.278 3.15 2.854 0 5.343-1.039 7.468-3.119 2.12-2.077 3.182-4.772 3.182-8.084 0-3.314-1.041-6.062-3.118-8.25-2.077-2.185-4.567-3.279-7.468-3.279-2.902 0-5.349 1.094-7.342 3.279-1.992 2.188-2.986 4.926-2.986 8.216zm37.309.391c-.93-.951-1.395-2.101-1.395-3.443 0-1.34.465-2.477 1.395-3.409.93-.93 2.066-1.395 3.409-1.395 1.342 0 2.489.465 3.441 1.395.952.933 1.432 2.07 1.432 3.409 0 1.342-.481 2.492-1.432 3.443-.951.951-2.098 1.427-3.441 1.427s-2.479-.476-3.409-1.427zm0 15.911c-.93-.951-1.395-2.101-1.395-3.443 0-1.34.465-2.477 1.395-3.409.93-.93 2.066-1.395 3.409-1.395 1.342 0 2.489.465 3.441 1.395.952.933 1.432 2.07 1.432 3.409 0 1.342-.481 2.492-1.432 3.443-.951.951-2.098 1.43-3.441 1.43s-2.479-.478-3.409-1.43zm42.901-51.761h6.496l-28.123 60.269h-6.496l28.123-60.269zm19.873 0h6.496l-28.123 60.269h-6.496l28.123-60.269z" fill="#18b35c"/></svg>