<svg xmlns="http://www.w3.org/2000/svg" viewBox="0 0 509.287 509.287"><circle cx="254.644" cy="254.644" r="254.644" fill="#164a81"/><path d="M172.588 206.156v-53.913c0-45.097 36.62-82.056 82.056-82.056s82.056 36.62 82.056 82.056v53.913h33.907v-53.913c0-63.746-51.878-115.963-115.963-115.963-63.746 0-115.963 51.878-115.963 115.963v53.913h33.907z" fill="#f1f3f7"/><path fill="#fff" d="M108.164 202.087h292.959v241.42H108.164z"/><path d="M279.396 340.768c0-13.563-11.189-24.752-24.752-24.752-13.563 0-24.752 11.189-24.752 24.752 0 10.85 6.781 19.666 16.276 23.396v34.585c0 4.747 3.73 8.477 8.477 8.477s8.477-3.73 8.477-8.477v-34.924c9.493-3.391 16.274-12.546 16.274-23.057z" fill="#393d47"/></svg>