<svg xmlns="http://www.w3.org/2000/svg" viewBox="0 0 512 512"><circle cx="256" cy="256" r="256" fill="#114379"/><path d="M159.856 403.52c5.64 3.472 13.872 6.36 22.544 6.36 12.856 0 20.376-6.792 20.376-16.616 0-9.112-5.2-14.312-18.352-19.376-15.896-5.632-25.728-13.872-25.728-27.6 0-15.176 12.576-26.448 31.504-26.448 9.976 0 17.192 2.312 21.536 4.768l-3.472 10.264c-3.184-1.736-9.688-4.624-18.496-4.624-13.296 0-18.36 7.944-18.36 14.592 0 9.112 5.92 13.584 19.368 18.792 16.48 6.36 24.856 14.304 24.856 28.616 0 15.032-11.136 28.04-34.112 28.04-9.4 0-19.656-2.744-24.856-6.208l3.192-10.56zm71.28 0c5.632 3.472 13.872 6.36 22.544 6.36 12.864 0 20.384-6.792 20.384-16.616 0-9.112-5.2-14.312-18.36-19.376-15.896-5.632-25.728-13.872-25.728-27.6 0-15.176 12.568-26.448 31.504-26.448 9.968 0 17.2 2.312 21.528 4.768l-3.472 10.264c-3.168-1.736-9.68-4.624-18.496-4.624-13.296 0-18.352 7.944-18.352 14.592 0 9.112 5.928 13.584 19.368 18.792 16.48 6.36 24.856 14.304 24.856 28.616 0 15.032-11.128 28.04-34.112 28.04-9.392 0-19.656-2.744-24.856-6.208l3.192-10.56zm73.008-82.088h12.576v86.864h41.624v10.544h-54.2v-97.408zm.24-153.352h-15.68v-56.488c.176-18.056-14.32-32.84-32.376-33.024s-32.84 14.32-33.024 32.376v57.128h-15.68v-56.488c-.216-26.72 21.272-48.552 47.992-48.768s48.552 21.272 48.768 47.992v57.272z" fill="#fff"/><path d="M288.72 151.536h15.68v6.272h-15.68zm-81.096 0h15.68v6.272h-15.68z" opacity=".25"/><path fill="#18b35c" d="M193.12 157.808h125.768v79.864H193.12z"/><path fill="#125baa" d="M185.84 237.672h140.248v26.136H185.84z"/><g fill="#fff"><circle cx="256" cy="199.512" r="15.696"/><path d="M249.28 207.952h13.384v28.672H249.28z"/></g></svg>