<svg xmlns="http://www.w3.org/2000/svg" viewBox="0 0 511.999 511.999"><path fill="#ff4719" d="M329.194 359.108v58.826l-73.195 32.68-73.194-32.68v-58.826z"/><path fill="#111449" d="M394.163 8.443h-46.221l63.782 376.81h32.681V58.684z"/><path fill="#27467a" d="M347.942 8.443l-91.943 32.68-91.947-32.68H67.594v376.81h65.362l123.043-43.575 123.044 43.575h32.681V72.225z"/><path fill="#a0f6fa" d="M118.74 223.134h274.519v162.119H118.74z"/><path fill="#ff754f" d="M329.194 417.934v52.529l-73.195 33.639-73.194-33.639v-52.529z"/><path fill="#50d1dd" d="M350.131 8.443V163.35H318.54l-32.681-77.454L318.54 8.443z"/><path fill="#78e3ec" d="M318.534 129.86L255.999 8.443h-94.131V163.35H318.54z"/><path fill="#111449" d="M255.999 8.443h62.54v121.42h-62.54z"/><path d="M159.112 222.859a8.169 8.169 0 0 0-8.17-8.17h-32.681a8.169 8.169 0 0 0-8.17 8.17V352.3a8.169 8.169 0 0 0 8.17 8.17 8.169 8.169 0 0 0 8.17-8.17V231.03h24.511a8.17 8.17 0 0 0 8.17-8.171zm16.34 0a8.169 8.169 0 0 0 8.17 8.17h201.946V352.3a8.17 8.17 0 0 0 8.17 8.17 8.169 8.169 0 0 0 8.17-8.17V222.86a8.169 8.169 0 0 0-8.17-8.17H183.622a8.168 8.168 0 0 0-8.17 8.169z"/><path d="M450.183 52.638L399.941 2.393A8.174 8.174 0 0 0 394.163 0H67.594a8.169 8.169 0 0 0-8.17 8.17v376.81a8.169 8.169 0 0 0 8.17 8.17h376.81a8.169 8.169 0 0 0 8.17-8.17V58.415a8.17 8.17 0 0 0-2.391-5.777zM169.58 16.34h78.249v113.247a8.169 8.169 0 0 0 8.17 8.17h61.908a8.169 8.169 0 0 0 8.17-8.17V40.851a8.169 8.169 0 0 0-8.17-8.17 8.169 8.169 0 0 0-8.17 8.17v80.566H264.17V16.34h78.249v138.571H169.58V16.34zm266.654 360.47H75.765V16.34h77.475v146.741a8.169 8.169 0 0 0 8.17 8.17h189.179a8.169 8.169 0 0 0 8.17-8.17V16.34h32.02l45.456 45.458V376.81z"/><path d="M361.058 311.448H150.941a8.169 8.169 0 0 0-8.17 8.17 8.169 8.169 0 0 0 8.17 8.17h210.116a8.169 8.169 0 0 0 8.17-8.17 8.169 8.169 0 0 0-8.169-8.17zm0-32.68H150.941a8.169 8.169 0 0 0-8.17 8.17 8.169 8.169 0 0 0 8.17 8.17h210.116a8.169 8.169 0 0 0 8.17-8.17 8.168 8.168 0 0 0-8.169-8.17zm-8.921 171.885l-14.772 6.789-.001-39.78a8.17 8.17 0 0 0-16.34 0l.001 47.29L256 494.839l-65.025-29.887v-47.29a8.169 8.169 0 0 0-8.17-8.17 8.169 8.169 0 0 0-8.17 8.17v39.78l-14.772-6.789c-4.099-1.886-8.95-.087-10.835 4.012a8.169 8.169 0 0 0 4.012 10.835l99.549 45.753c1.083.498 2.247.746 3.412.746s2.329-.248 3.412-.746l99.549-45.753a8.17 8.17 0 0 0-6.825-14.847z"/></svg>