<svg xmlns="http://www.w3.org/2000/svg" viewBox="0 0 512 512"><circle cx="256" cy="256" r="256" fill="#18b35c"/><path d="M512 256c0-4.918-.153-9.8-.426-14.65L369.778 99.556l-20.423 49.25-207.133 267.086 95.447 95.448a259.3 259.3 0 0 0 18.33.66C397.384 512 512 397.384 512 256z" fill="#158e4a"/><g fill="#e6f3ff"><path d="M369.778 415.892l-16.265 6.896-16.265-6.896-16.253 6.896-16.26-6.896-16.253 6.896-16.25-6.896-16.248 6.896-16.252-6.896-16.253 6.896-16.253-6.896-16.252 6.896-16.251-6.896-16.25 6.896-16.251-6.896V99.556l16.251 6.895 16.25-6.895 16.251 6.895 16.252-6.895 16.253 6.895 16.253-6.895 16.252 6.895 16.248-6.895 16.25 6.895 16.253-6.895 16.26 6.895 16.253-6.895 16.265 6.895 16.265-6.895z"/><path d="M239.732 99.556l-16.253 6.895-16.253-6.895-16.252 6.895-16.251-6.895-16.25 6.895-16.251-6.895v316.336l16.251 6.896 16.25-6.896 16.251 6.896 16.252-6.896 16.253 6.896 16.253-6.896 14.832 6.292V105.848z"/></g><path fill="#cfdbe6" d="M353.513 106.451l-16.265-6.895-16.253 6.895-16.26-6.895-16.253 6.895-16.25-6.895-16.248 6.895-1.42-.603v316.336l1.42.604 16.248-6.896 16.25 6.896 16.253-6.896 16.26 6.896 16.253-6.896 16.265 6.896 16.265-6.896V99.556z"/><path fill="#125baa" d="M173.684 134.672h68.442v50.424h-68.442z"/><path d="M250.07 134.249h91.257v6.896H250.07zm0 21.971h91.257v6.896H250.07zm0 21.98h91.257v6.896H250.07zm-76.042 21.98h167.305v6.896H174.028zm0 21.98h167.305v6.896H174.028zm0 21.98h167.305v6.896H174.028z" fill="#b8c9d9"/><path fill="#125baa" d="M272.894 263.102h68.442v50.424h-68.442z"/><path d="M173.684 262.672h91.257v6.896h-91.257zm0 21.979h91.257v6.896h-91.257zm0 21.98h91.257v6.896h-91.257zm0 21.98h167.305v6.896H173.684zm0 21.98h167.305v6.896H173.684zm0 21.979h167.305v6.896H173.684z" fill="#b8c9d9"/><path d="M254.569 134.249h86.764v6.896h-86.764zm0 21.971h86.764v6.896h-86.764zm0 21.98h86.764v6.896h-86.764zm0 21.98h86.764v6.896h-86.764zm0 21.98h86.764v6.896h-86.764zm0 21.98h86.764v6.896h-86.764zm0 18.532h10.378v6.896h-10.378zm0 21.979h10.378v6.896h-10.378zm0 21.98h10.378v6.896h-10.378zm0 21.98h86.419v6.896h-86.419zm0 21.98h86.419v6.896h-86.419zm0 21.979h86.419v6.896h-86.419z" fill="#9db0c1"/></svg>