<svg xmlns="http://www.w3.org/2000/svg" viewBox="0 0 512 512"><circle cx="256" cy="256" r="256" fill="#18b35c"/><path d="M510.967 233.072L381.695 103.781 134.787 405.187l106.68 106.394c4.812.269 9.654.419 14.533.419 141.384 0 256-114.616 256-256 0-7.73-.362-15.372-1.033-22.928z" fill="#158e4a"/><path d="M377.108 410.128h-35.357a6.46 6.46 0 0 1-6.461-6.461V368.31a6.46 6.46 0 0 1 6.461-6.461h35.357a6.461 6.461 0 0 1 6.461 6.461v35.357a6.461 6.461 0 0 1-6.461 6.461z" fill="#125baa"/><path d="M377.108 374.655h-35.357a6.46 6.46 0 0 1-6.461-6.461v-35.357a6.461 6.461 0 0 1 6.461-6.461h35.357a6.461 6.461 0 0 1 6.461 6.461v35.357a6.461 6.461 0 0 1-6.461 6.461z" fill="#0d3e73"/><path d="M377.108 342.583h-35.357a6.46 6.46 0 0 1-6.461-6.461v-35.357a6.46 6.46 0 0 1 6.461-6.461h35.357a6.461 6.461 0 0 1 6.461 6.461v35.357a6.461 6.461 0 0 1-6.461 6.461z" fill="#125baa"/><path d="M377.108 310.512h-35.357a6.46 6.46 0 0 1-6.461-6.461v-35.357a6.461 6.461 0 0 1 6.461-6.461h35.357a6.461 6.461 0 0 1 6.461 6.461v35.357a6.461 6.461 0 0 1-6.461 6.461z" fill="#0d3e73"/><path d="M377.108 278.44h-35.357a6.46 6.46 0 0 1-6.461-6.461v-35.357a6.46 6.46 0 0 1 6.461-6.461h35.357a6.461 6.461 0 0 1 6.461 6.461v35.357a6.462 6.462 0 0 1-6.461 6.461z" fill="#125baa"/><path d="M377.108 246.367h-35.357a6.46 6.46 0 0 1-6.461-6.461v-35.357a6.461 6.461 0 0 1 6.461-6.461h35.357a6.461 6.461 0 0 1 6.461 6.461v35.357a6.461 6.461 0 0 1-6.461 6.461z" fill="#0d3e73"/><path d="M377.108 214.295h-35.357a6.46 6.46 0 0 1-6.461-6.461v-35.357a6.461 6.461 0 0 1 6.461-6.461h35.357a6.461 6.461 0 0 1 6.461 6.461v35.357a6.46 6.46 0 0 1-6.461 6.461z" fill="#125baa"/><path d="M377.108 182.224h-35.357a6.46 6.46 0 0 1-6.461-6.461v-35.357a6.461 6.461 0 0 1 6.461-6.461h35.357a6.461 6.461 0 0 1 6.461 6.461v35.357a6.461 6.461 0 0 1-6.461 6.461z" fill="#0d3e73"/><path d="M377.108 101.872H147.654c-10.618 0-19.223 8.607-19.223 19.223v269.808c0 10.618 8.607 19.223 19.223 19.223h201.037V150.15h28.415a6.461 6.461 0 0 0 6.461-6.461v-35.357a6.458 6.458 0 0 0-6.459-6.46z" fill="#fff"/><path d="M377.108 101.872H257.724v308.257h90.967V150.15h28.415a6.461 6.461 0 0 0 6.461-6.461v-35.357a6.457 6.457 0 0 0-6.459-6.46z" fill="#d8d8d8"/><path d="M281.681 173.194h-80.415c-2.381 0-4.31-1.929-4.31-4.31s1.929-4.31 4.31-4.31h80.415a4.31 4.31 0 1 1 0 8.62zm0 26.805h-80.415c-2.381 0-4.31-1.929-4.31-4.31s1.929-4.31 4.31-4.31h80.415a4.31 4.31 0 1 1 0 8.62zm0 26.803h-80.415c-2.381 0-4.31-1.929-4.31-4.31s1.929-4.31 4.31-4.31h80.415a4.31 4.31 0 1 1 0 8.62zm0 26.805h-80.415a4.31 4.31 0 0 1-4.31-4.31 4.31 4.31 0 0 1 4.31-4.31h80.415a4.31 4.31 0 1 1 0 8.62z" fill="#158e4a"/></svg>