<svg xmlns="http://www.w3.org/2000/svg" width="400" height="400"><path fill="#FFC10D" d="M309.962 341.841c3.359-1.713 7.509-1.581 10.735.462l21.209 12.91 13.37-13.371-12.91-21.209c-1.976-3.227-2.107-7.311-.461-10.735 1.515-3.095 2.832-6.125 3.886-9.222 1.186-3.623 4.149-6.389 7.904-7.244l24.041-5.797v-18.969l-24.041-5.797c-3.688-.922-6.719-3.623-7.904-7.244a69.01 69.01 0 0 0-3.886-9.223c-1.713-3.359-1.582-7.509.461-10.735l12.91-21.208-13.37-13.371-21.209 12.91c-3.228 1.976-7.311 2.107-10.735.461-3.096-1.58-6.191-2.832-9.222-3.885-3.623-1.187-6.389-4.15-7.312-7.97l-5.796-24.041h-18.969l-5.797 24.041c-.855 3.688-3.623 6.718-7.244 7.904-3.096 1.054-6.192 2.306-9.223 3.886-3.359 1.713-7.509 1.581-10.802-.461l-21.208-12.91-13.371 13.37 12.91 21.208c1.976 3.229 2.107 7.312.462 10.736-1.581 3.095-2.833 6.191-3.886 9.221-1.187 3.623-4.15 6.39-7.904 7.246l-24.041 5.796v18.969l24.041 5.796c3.688.923 6.718 3.623 7.969 7.246a68.995 68.995 0 0 0 3.887 9.221c1.713 3.359 1.581 7.51-.462 10.736l-12.91 21.208 13.37 13.37 21.209-12.909c3.228-1.976 7.311-2.108 10.736-.462 3.095 1.516 6.191 2.832 9.221 3.887 3.623 1.186 6.39 4.149 7.245 7.904l5.796 24.04h18.904l5.797-24.04a10.97 10.97 0 0 1 7.244-7.904c3.099-.988 6.26-2.24 9.356-3.821z"/><path fill="#FFF" d="M278.149 252.988c-13.832 0-25.095 11.264-25.095 25.095 0 13.832 11.264 25.095 25.095 25.095s25.095-11.264 25.095-25.095c-.066-13.831-11.329-25.095-25.095-25.095z"/><g fill="#194F82"><path d="M278.149 230.792c-26.083 0-47.292 21.274-47.292 47.291 0 26.083 21.275 47.291 47.292 47.291s47.291-21.274 47.291-47.291c0-26.147-21.208-47.291-47.291-47.291zm0 72.32c-13.832 0-25.095-11.264-25.095-25.095 0-13.832 11.264-25.094 25.095-25.094s25.095 11.263 25.095 25.094c-.066 13.832-11.329 25.095-25.095 25.095z"/><path d="M391.438 249.037l-26.873-6.521c-.066-.131-.132-.395-.264-.526l14.358-23.515c2.7-4.412 1.976-10.011-1.646-13.634l-25.754-25.754c-3.623-3.623-9.286-4.347-13.634-1.646l-13.437 8.167c1.91-4.018 3.095-8.431 3.095-12.975v-51.968c0-7.509-2.701-14.228-7.179-19.496 4.479-5.401 7.179-12.383 7.179-20.023V31.417C327.284 14.095 313.189 0 295.867 0H31.352C14.095 0 0 14.095 0 31.417v49.728c0 7.574 2.701 14.557 7.179 20.023C2.701 106.373 0 113.222 0 120.665v51.968c0 7.245 2.568 13.963 6.85 19.232A29.961 29.961 0 0 0 0 210.967v51.968c0 16.665 13.634 30.298 30.298 30.298h126v3.096c0 5.137 3.557 9.615 8.496 10.801l26.874 6.521c.066.131.131.328.264.526l-14.425 23.515c-2.7 4.412-1.976 10.011 1.646 13.634l25.753 25.753c3.623 3.623 9.287 4.348 13.635 1.646l23.514-14.357c.132.065.396.131.527.264l6.521 26.873c1.187 4.939 5.665 8.496 10.802 8.496h36.424c5.137 0 9.615-3.557 10.802-8.496l6.521-26.873c.131-.066.395-.132.526-.264l23.515 14.357c4.412 2.701 10.011 1.977 13.634-1.646l25.754-25.753c3.623-3.623 4.347-9.286 1.646-13.634l-14.359-23.515c.066-.132.132-.329.265-.526l26.873-6.521c4.939-1.186 8.496-5.664 8.496-10.801v-36.49c-.068-5.138-3.625-9.55-8.564-10.802zM22.197 31.352a9.206 9.206 0 0 1 9.222-9.222h264.515c5.006 0 9.221 4.15 9.221 9.222v49.729a9.207 9.207 0 0 1-9.221 9.222H31.417a9.207 9.207 0 0 1-9.222-9.222l.002-49.729zm0 89.248a8.096 8.096 0 0 1 8.102-8.102h266.754a8.096 8.096 0 0 1 8.102 8.102v40.046c-2.041-2.701-5.27-4.413-8.826-4.413h-36.424c-5.137 0-9.615 3.557-10.802 8.497l-6.521 26.873c-.131.066-.396.131-.527.264l-23.514-14.359c-4.412-2.701-10.012-1.976-13.635 1.646l-1.646 1.646H30.298a8.096 8.096 0 0 1-8.102-8.102c.001.001.001-52.098.001-52.098zm142.597 128.437c-4.939 1.186-8.496 5.664-8.496 10.801v11.197h-126a8.096 8.096 0 0 1-8.102-8.102v-51.968a8.096 8.096 0 0 1 8.102-8.102h150.766l-1.91 1.91c-3.623 3.623-4.348 9.286-1.646 13.634l14.358 23.515c-.066.132-.131.329-.264.526l-26.808 6.589zm212.943 38.465l-24.041 5.797a10.971 10.971 0 0 0-7.904 7.244 69.01 69.01 0 0 1-3.886 9.223c-1.713 3.359-1.582 7.508.461 10.735l12.91 21.208-13.37 13.371-21.077-12.91c-3.228-1.976-7.312-2.107-10.735-.461-3.096 1.514-6.192 2.832-9.222 3.885-3.623 1.187-6.39 4.15-7.246 7.904l-5.795 24.041h-18.97l-5.796-24.041c-.855-3.688-3.623-6.718-7.246-7.904a68.848 68.848 0 0 1-9.221-3.885c-3.359-1.713-7.51-1.582-10.736.461l-21.208 12.91-13.37-13.371 12.91-21.208c1.975-3.228 2.107-7.312.461-10.735a68.77 68.77 0 0 1-3.886-9.223c-1.187-3.623-4.149-6.389-7.97-7.244l-23.909-5.797v-18.969l24.04-5.797c3.689-.922 6.719-3.623 7.904-7.244a69.137 69.137 0 0 1 3.887-9.222c1.713-3.359 1.515-7.509-.462-10.735l-13.041-21.145 13.37-13.369 21.209 12.909c3.293 1.976 7.311 2.108 10.802.462 3.095-1.516 6.125-2.832 9.222-3.887 3.623-1.186 6.389-4.149 7.244-7.904l5.797-24.04h18.969l5.797 24.04c.855 3.689 3.623 6.719 7.311 7.971 2.965 1.053 6.126 2.305 9.222 3.885 3.359 1.713 7.51 1.582 10.736-.461l21.208-12.91 13.371 13.371-12.91 21.208c-1.976 3.228-2.108 7.312-.462 10.735 1.516 3.096 2.833 6.125 3.886 9.222 1.187 3.623 4.15 6.39 7.904 7.245l24.041 5.797v18.838h-.199z"/></g><path fill="#56ACE0" d="M30.298 270.971h126v-11.197c0-5.137 3.557-9.616 8.496-10.803l26.874-6.52c.066-.132.131-.33.264-.527l-14.358-23.514c-2.7-4.413-1.976-10.012 1.646-13.635l1.911-1.91H30.298a8.096 8.096 0 0 0-8.102 8.102v51.968c.001 4.413 3.623 8.036 8.102 8.036z"/><path fill="#FFF" d="M259.904 156.232h36.424c3.557 0 6.784 1.713 8.826 4.413v-40.046a8.097 8.097 0 0 0-8.103-8.102H30.297a8.096 8.096 0 0 0-8.102 8.102v51.968a8.096 8.096 0 0 0 8.102 8.102H203.26l1.582-1.582c3.623-3.623 9.287-4.347 13.635-1.646l23.118 14.095h.922l6.521-26.741c1.316-5.071 5.73-8.563 10.866-8.563z"/><path fill="#FFC10D" d="M295.934 22.13H31.417c-5.072 0-9.222 4.15-9.222 9.222v49.729a9.206 9.206 0 0 0 9.222 9.222h264.514c5.006 0 9.221-4.084 9.221-9.222V31.352a9.203 9.203 0 0 0-9.218-9.222z"/><path d="M52.824 67.314h6.191c6.125 0 11.131-4.939 11.131-11.131s-4.939-11.065-11.131-11.065h-6.191c-6.125 0-11.131 4.939-11.131 11.131-.001 6.191 5.005 11.065 11.131 11.065zm43.866 0h6.191c6.125 0 11.131-4.939 11.131-11.131s-4.939-11.131-11.131-11.131H96.69c-6.125 0-11.131 4.939-11.131 11.131s5.006 11.131 11.131 11.131zm43.932 0h6.192c6.125 0 11.131-4.939 11.131-11.131s-4.939-11.131-11.131-11.131h-6.192c-6.125 0-11.131 4.939-11.131 11.131s5.006 11.131 11.131 11.131zm-87.798 90.368h6.191c6.125 0 11.131-4.939 11.131-11.131 0-6.125-4.939-11.131-11.131-11.131h-6.191c-6.125 0-11.131 4.939-11.131 11.131-.001 6.192 5.005 11.131 11.131 11.131zm43.866 0h6.191c6.125 0 11.131-4.939 11.131-11.131 0-6.125-4.939-11.131-11.131-11.131H96.69c-6.125 0-11.131 4.939-11.131 11.131s5.006 11.131 11.131 11.131zm43.932 0h6.192c6.125 0 11.131-4.939 11.131-11.131 0-6.125-4.939-11.131-11.131-11.131h-6.192c-6.125 0-11.131 4.939-11.131 11.131s5.006 11.131 11.131 11.131zm-81.607 68.104h-6.191c-6.125 0-11.131 4.939-11.131 11.131s5.006 11.065 11.131 11.065h6.191c6.125 0 11.131-4.939 11.131-11.131s-4.939-11.065-11.131-11.065zm43.932 0h-6.192c-6.125 0-11.131 4.939-11.131 11.131s5.005 11.065 11.131 11.065h6.192c6.125 0 11.131-4.939 11.131-11.131s-4.939-11.065-11.131-11.065zm43.867 0h-6.192c-6.125 0-11.131 4.939-11.131 11.131a11.075 11.075 0 0 0 11.131 11.132h6.192c6.125 0 11.131-4.939 11.131-11.132 0-6.19-5.006-11.131-11.131-11.131z" fill="#194F82"/></svg>