<svg xmlns="http://www.w3.org/2000/svg" viewBox="0 0 479.924 479.924" width="512" height="512"><path d="M396.791 139.784C381.287 70.867 312.85 27.567 243.933 43.072A127.906 127.906 0 0 0 161.183 104h-1.192c-50.189.125-93.158 36.006-102.232 85.368-45.636 16.715-69.082 67.26-52.367 112.897C18.089 336.93 51.073 359.986 87.991 360h40v-16h-40c-39.765-.004-71.997-32.242-71.993-72.007.003-31.748 20.8-59.746 51.193-68.921a8 8 0 0 0 5.6-6.616c5.841-43.714 43.097-76.38 87.2-76.456 1.256 0 2.488.088 3.72.168l1.6.104a7.897 7.897 0 0 0 7.552-4.264c28.665-54.758 96.293-75.911 151.051-47.246a111.911 111.911 0 0 1 58.189 79.046 8 8 0 0 0 6.184 6.4c51.8 11.305 84.627 62.462 73.322 114.262C452 312.5 413.057 343.918 367.991 344h-16v16h16c61.856-.037 111.97-50.211 111.933-112.067-.03-50.714-34.133-95.079-83.133-108.149z" fill="#FFF"/><path d="M359.039 428.208l-112.008-208a8.32 8.32 0 0 0-14.08 0l-112 208a8 8 0 0 0 7.04 11.792h224a8 8 0 0 0 7.048-11.792zM141.383 424l98.608-183.128L338.599 424H141.383z" fill="#FFF"/><path fill="#FFF" d="M231.991 296h16v80h-16zm0 96h16v16h-16z"/></svg>