<svg xmlns="http://www.w3.org/2000/svg" xmlns:xlink="http://www.w3.org/1999/xlink" width="612" height="612"><path fill="#FFC10D" d="M49.355 444.193h98.709v157.936H49.355zm414.581 0h98.711v157.936h-98.711zM39.484 394.839h19.742v19.742H39.484zm49.355 0h19.742v19.742H88.839zm49.354 0h19.742v19.742h-19.742zm315.871 0h19.741v19.742h-19.741zm49.355 0h19.742v19.742h-19.742zm49.355 0h19.74v19.742h-19.74z"/><defs><path id="a" d="M0 0h612v612H0z"/></defs><clipPath id="b"><use xlink:href="#a" overflow="visible"/></clipPath><path clip-path="url(#b)" fill="none" stroke="#184F82" stroke-width="20" stroke-miterlimit="10" d="M454.258 286.258c0-81.746-66.512-148.257-148.258-148.257-81.745 0-148.258 66.511-148.258 148.257S224.255 434.516 306 434.516c81.746 0 148.258-66.512 148.258-148.258z"/><path clip-path="url(#b)" fill="#184F82" d="M177.677 582.387c0 5.449-4.422 9.871-9.87 9.871h-9.871V434.322H39.484v157.936h-9.871c-5.449 0-9.871-4.422-9.871-9.871V306c0-5.439 4.422-9.871 9.871-9.871h98.71v-19.742h-98.71C13.286 276.387 0 289.673 0 306v276.387C0 598.714 13.286 612 29.613 612h138.194c16.326 0 29.612-13.286 29.612-29.613V424.451h-19.742v157.936zM59.226 454.064h78.968v138.192H59.226V454.064z"/><path clip-path="url(#b)" fill="#184F82" d="M128.323 335.613v-19.742H39.484v59.226h108.581v-19.743H59.226v-19.741zM78.968 473.807h39.484v19.742H78.968zm0 39.483h39.484v19.742H78.968zm0 39.484h39.484v19.74H78.968zm503.419-276.387h-98.709v19.742h98.709c5.449 0 9.871 4.432 9.871 9.871v276.387c0 5.449-4.422 9.871-9.871 9.871h-9.871V434.322H454.064v157.936h-9.871c-5.448 0-9.871-4.422-9.871-9.871V424.451h-19.741v157.936c0 16.327 13.286 29.613 29.612 29.613h138.193C598.714 612 612 598.714 612 582.387V306c0-16.327-13.286-29.613-29.613-29.613m-108.58 177.677h78.969v138.192h-78.969V454.064z"/><path clip-path="url(#b)" fill="#184F82" d="M463.936 355.354v19.743h108.58v-59.226h-88.838v19.742h69.096v19.741zm29.613 118.453h39.483v19.742h-39.483zm0 39.483h39.483v19.742h-39.483zm0 39.484h39.483v19.74h-39.483zM134.482 250.13l7.423-18.301c-26.237-10.631-43.195-35.762-43.195-64.023 0-38.102 31.004-69.097 69.097-69.097 6.465 0 12.98.948 19.366 2.804l9.486 2.763 2.754-9.485c6.091-20.937 25.566-35.566 47.361-35.566 7.868 0 15.429 1.837 22.486 5.469l9.17 4.708 4.314-9.367c11.263-24.47 35.891-40.293 62.74-40.293 38.092 0 69.097 30.994 69.047 69.916l-.523 14.668 12.793-3.317c45.485-11.805 86.489 23.039 86.489 66.797 0 28.261-16.958 53.392-43.195 64.023l7.423 18.301c33.72-13.662 55.515-45.979 55.515-82.324 0-52.395-45.86-94.692-99.184-88.197C429.209 34.943 391.354 0 345.484 0c-31.312 0-60.263 16.701-76.185 43.274-7.226-2.517-14.767-3.79-22.526-3.79-27.352 0-52.079 16.435-63.065 40.944a88.212 88.212 0 0 0-15.902-1.461c-48.99 0-88.839 39.859-88.839 88.839.001 36.345 21.796 68.662 55.515 82.324"/><path clip-path="url(#b)" fill="#FFC10D" d="M229.188 270.91l1.489 5.83 16.375 64.119h97.599l2.428-12.952a68.373 68.373 0 0 0 27.857-16.923 68.297 68.297 0 0 0 14.695-21.797c3.576-8.457 5.391-17.439 5.391-26.695 0-9.255-1.814-18.236-5.391-26.695a68.315 68.315 0 0 0-14.695-21.796 68.357 68.357 0 0 0-21.795-14.694c-8.29-3.506-17.086-5.315-26.146-5.383-.183-.002-.364-.008-.549-.008-.184 0-.366.006-.55.008-9.062.07-17.855 1.877-26.146 5.383a68.35 68.35 0 0 0-21.796 14.694 68.36 68.36 0 0 0-14.694 21.796c-3.578 8.459-5.391 17.442-5.391 26.695 0 4.241.385 8.424 1.142 12.525l-15.998.007-4.212-16.491h-28.619v12.377h19.006zm41.396-2.229h17.478c.103 2.132.26 4.242.468 6.327l-16.892.006a56.136 56.136 0 0 1-1.054-6.333m10.388-39.227c3.222 1.572 6.704 2.965 10.394 4.167-1.795 7.09-2.918 14.749-3.303 22.684h-17.478a55.6 55.6 0 0 1 10.387-26.851m18.349-16.208a67.065 67.065 0 0 0-1.241 2.283 73.967 73.967 0 0 0-2.905 6.337 71.437 71.437 0 0 1-5.372-1.99 56.207 56.207 0 0 1 9.518-6.63m63.793 6.653a72.967 72.967 0 0 1-5.39 1.99 74.524 74.524 0 0 0-2.914-6.36 63.729 63.729 0 0 0-1.241-2.283 56.105 56.105 0 0 1 9.545 6.653m19.193 36.406h-17.479c-.384-7.927-1.503-15.577-3.296-22.661 3.694-1.199 7.183-2.591 10.408-4.161a55.624 55.624 0 0 1 10.367 26.822m-10.503 39.384c-3.2-1.554-6.649-2.931-10.329-4.123 1.825-7.148 2.965-14.876 3.353-22.885h17.479a55.606 55.606 0 0 1-10.503 27.008m-71.35-27.008h19.802v6.316l-19.286.007a111.28 111.28 0 0 1-.516-6.323m2.886-31.979c5.421 1.061 11.106 1.75 16.916 2.039v17.564h-19.802c.367-6.897 1.346-13.512 2.886-19.603m49.097 19.603h-19.803v-17.561a119.421 119.421 0 0 0 16.921-2.027c1.538 6.087 2.516 12.696 2.882 19.588m-.514 18.681l-19.289.006v-6.311h19.803a112.431 112.431 0 0 1-.514 6.305m-6.36-50.098a107.74 107.74 0 0 1-12.929 1.468v-18.267c4.034 2.326 7.924 6.839 11.188 13.136a60.735 60.735 0 0 1 1.741 3.663m-25.307-16.799v18.264a107.933 107.933 0 0 1-12.925-1.477 64.186 64.186 0 0 1 1.735-3.651c3.268-6.297 7.156-10.81 11.19-13.136m33.313 103.65c.423-.74.837-1.504 1.241-2.283a73.943 73.943 0 0 0 2.82-6.127 72.356 72.356 0 0 1 5.274 1.934 56.122 56.122 0 0 1-9.335 6.476m-84.341-24.347l6.805-.003 14.408-.005 6.338-.002 6.337-.002 7.269-.003 9.871-.003 12.378-.004 9.452-.004-2.275 12.143-2.57 13.714-.862 4.599-.856 4.566-.353 1.883-.788 4.212h-77.714L246.173 287.4l16.36-.007 6.695-.001zm59.659 93.536c10.075 0 18.272-8.198 18.272-18.273 0-10.077-8.197-18.274-18.272-18.274H262.64c-10.076 0-18.273 8.197-18.273 18.274 0 10.075 8.197 18.273 18.273 18.273 10.077 0 18.274-8.198 18.274-18.273 0-2.063-.343-4.047-.976-5.896h31.65a18.21 18.21 0 0 0-.976 5.896c0 10.074 8.198 18.273 18.275 18.273m-60.35-18.274a5.902 5.902 0 0 1-5.897 5.896c-3.251 0-5.897-2.645-5.897-5.896s2.646-5.896 5.897-5.896a5.902 5.902 0 0 1 5.897 5.896m66.246 0a5.903 5.903 0 0 1-5.896 5.896c-3.253 0-5.898-2.645-5.898-5.896s2.646-5.896 5.898-5.896a5.901 5.901 0 0 1 5.896 5.896"/></svg>