<svg xmlns="http://www.w3.org/2000/svg" width="400" height="400"><g fill="#55ACDF"><circle cx="200" cy="200" r="200"/><path d="M6.25 73.125h387.5v266.25H6.25z"/></g><g fill="#FFF"><path d="M393.75 339.375L200 148.125 6.25 339.375"/><path d="M6.25 73.125L200 264.375l193.75-191.25"/></g><path fill="#FFC10D" d="M66.875 98.125h266.25L200 229.375z"/><g fill="#184F82"><path d="M393.75 66.875H6.25c-3.75 0-6.25 2.5-6.25 6.25v266.25c0 3.75 2.5 6.25 6.25 6.25h387.5c3.75 0 6.25-2.5 6.25-6.25V73.125c0-3.125-2.5-6.25-6.25-6.25zM200 255.625L21.25 79.375h356.875L200 255.625zm-68.125-49.375L12.5 324.375V88.125L131.875 206.25zm9.375 8.75l54.375 53.75c1.25 1.25 2.5 1.875 4.375 1.875s3.125-.625 4.375-1.875L258.75 215l119.375 118.125H21.25L141.25 215zm126.875-8.75L387.5 88.125v236.25L268.125 206.25z"/><path d="M227.5 123.125H240v12.5h-12.5zm-33.75 0h12.5v12.5h-12.5zm-33.75 0h12.5v12.5H160zm67.5 175H240v12.5h-12.5zm-33.75 0h12.5v12.5h-12.5zm-33.75 0h12.5v12.5H160z"/></g></svg>