<svg xmlns="http://www.w3.org/2000/svg" viewBox="0 0 60 60" width="512" height="512"><g fill="#FFF"><path d="M53 41c0-3.859-3.14-7-7-7s-7 3.141-7 7v1h-4v18h22V42h-4v-1zm-12 0c0-2.757 2.243-5 5-5s5 2.243 5 5v1H41v-1zm14 3v14H37V44h18z"/><path d="M45 54.858V56a1 1 0 1 0 2 0v-1.142c1.72-.447 3-1.999 3-3.858 0-2.206-1.794-4-4-4s-4 1.794-4 4c0 1.859 1.28 3.411 3 3.858zM46 49c1.103 0 2 .897 2 2s-.897 2-2 2-2-.897-2-2 .897-2 2-2zM10.5 6C8.019 6 6 8.019 6 10.5S8.019 15 10.5 15s4.5-2.019 4.5-4.5S12.981 6 10.5 6zm0 7C9.122 13 8 11.879 8 10.5S9.122 8 10.5 8 13 9.121 13 10.5 11.878 13 10.5 13z"/><circle cx="50" cy="9" r="1"/><circle cx="46" cy="9" r="1"/><circle cx="52" cy="12" r="1"/><circle cx="48" cy="12" r="1"/><circle cx="42" cy="9" r="1"/><circle cx="44" cy="12" r="1"/><circle cx="38" cy="9" r="1"/><circle cx="40" cy="12" r="1"/><circle cx="34" cy="9" r="1"/><circle cx="36" cy="12" r="1"/><path d="M60 16.392V4.608A4.613 4.613 0 0 0 55.392 0H4.608A4.613 4.613 0 0 0 0 4.608v11.783C0 17.86.703 19.155 1.777 20 .703 20.845 0 22.14 0 23.608v11.783C0 36.86.703 38.155 1.777 39 .703 39.845 0 41.14 0 42.608v11.783A4.613 4.613 0 0 0 4.608 59H30v-2H4.608A2.611 2.611 0 0 1 2 54.392V42.608A2.611 2.611 0 0 1 4.608 40H33v-2H4.608A2.611 2.611 0 0 1 2 35.392V23.608A2.611 2.611 0 0 1 4.608 21h50.783A2.611 2.611 0 0 1 58 23.608V38h2V23.608c0-1.469-.703-2.764-1.777-3.608C59.297 19.155 60 17.86 60 16.392zM4.608 19A2.611 2.611 0 0 1 2 16.392V4.608A2.611 2.611 0 0 1 4.608 2h50.783A2.611 2.611 0 0 1 58 4.608v11.783A2.611 2.611 0 0 1 55.392 19H4.608z"/><path d="M6 29.5c0 2.481 2.019 4.5 4.5 4.5s4.5-2.019 4.5-4.5-2.019-4.5-4.5-4.5S6 27.019 6 29.5zm7 0c0 1.379-1.122 2.5-2.5 2.5S8 30.879 8 29.5 9.122 27 10.5 27s2.5 1.121 2.5 2.5z"/><circle cx="50" cy="28" r="1"/><circle cx="46" cy="28" r="1"/><circle cx="52" cy="31" r="1"/><circle cx="48" cy="31" r="1"/><circle cx="42" cy="28" r="1"/><circle cx="44" cy="31" r="1"/><circle cx="38" cy="28" r="1"/><circle cx="40" cy="31" r="1"/><circle cx="34" cy="28" r="1"/><circle cx="36" cy="31" r="1"/><path d="M6 48.5c0 2.481 2.019 4.5 4.5 4.5s4.5-2.019 4.5-4.5-2.019-4.5-4.5-4.5S6 46.019 6 48.5zm7 0c0 1.379-1.122 2.5-2.5 2.5S8 49.879 8 48.5 9.122 46 10.5 46s2.5 1.121 2.5 2.5z"/></g></svg>