<svg xmlns="http://www.w3.org/2000/svg" viewBox="0 0 496.941 496.941" width="512" height="512"><g fill="#FFF"><path d="M476.612 128.753H442.73V98.635c0-12.047-9.788-21.835-21.835-21.835H21.835C9.788 76.8 0 86.588 0 98.635v247.718c0 12.047 9.788 21.835 21.835 21.835h32.376v31.624a20.244 20.244 0 0 0 20.329 20.329h402.071a20.244 20.244 0 0 0 20.329-20.329v-250.73a20.243 20.243 0 0 0-20.328-20.329zM21.835 353.129a6.748 6.748 0 0 1-6.776-6.776V98.635a6.748 6.748 0 0 1 6.776-6.776h399.059a6.748 6.748 0 0 1 6.776 6.776v247.718a6.748 6.748 0 0 1-6.776 6.776H21.835zm460.047 46.683c0 3.012-2.259 5.271-5.271 5.271H74.541c-3.012 0-5.271-2.259-5.271-5.271v-31.624h351.624c12.047 0 21.835-9.788 21.835-21.835V143.812h33.882c3.012 0 5.271 2.259 5.271 5.271v250.729z"/><path d="M153.6 192.753h-27.859c16.565-6.024 28.612-21.835 28.612-40.659 0-24.094-19.576-42.918-42.918-42.918S67.765 128 67.765 152.094c0 18.824 12.047 34.635 28.612 40.659H68.518c-12.047 0-22.588 9.788-22.588 22.588v54.212c0 3.765 3.765 7.529 7.529 7.529h115.2c4.518 0 7.529-3.012 7.529-7.529v-54.212c0-12.047-9.788-22.588-22.588-22.588zm-70.776-40.659c0-15.812 12.8-27.859 27.859-27.859 15.812 0 27.859 12.8 27.859 27.859 0 15.812-12.8 27.859-27.859 27.859-15.059 0-27.859-12.8-27.859-27.859zm78.305 109.929H60.988v-46.682c0-3.765 3.012-7.529 7.529-7.529H153.6c3.765 0 7.529 3.012 7.529 7.529v46.682zm7.53 45.177h-115.2c-4.518 0-7.529 3.012-7.529 7.529 0 4.518 3.012 7.529 7.529 7.529h115.2c4.518 0 7.529-3.012 7.529-7.529 0-4.517-3.012-7.529-7.529-7.529zM371.2 204.8H228.894c-4.518 0-7.529 3.012-7.529 7.529s3.765 7.529 7.529 7.529H371.2c4.518 0 7.529-3.012 7.529-7.529s-3.011-7.529-7.529-7.529zm0 51.2H228.894c-4.518 0-7.529 3.012-7.529 7.529s3.765 7.529 7.529 7.529H371.2c4.518 0 7.529-3.012 7.529-7.529S375.718 256 371.2 256zm0 51.2H228.894c-4.518 0-7.529 3.012-7.529 7.529 0 4.518 3.765 7.529 7.529 7.529H371.2c4.518 0 7.529-3.012 7.529-7.529 0-4.517-3.011-7.529-7.529-7.529zM228.894 169.412h51.953c4.518 0 7.529-3.012 7.529-7.529 0-4.518-3.012-7.529-7.529-7.529h-51.953c-4.518 0-7.529 3.012-7.529 7.529 0 4.517 3.764 7.529 7.529 7.529zM371.2 154.353h-49.694c-4.518 0-7.529 3.012-7.529 7.529 0 4.518 3.765 7.529 7.529 7.529H371.2c4.518 0 7.529-3.012 7.529-7.529 0-4.517-3.011-7.529-7.529-7.529z"/></g></svg>