<svg xmlns="http://www.w3.org/2000/svg" viewBox="0 0 92 92" width="512" height="512"><path d="M45.385.004C19.983.344-.333 21.215.004 46.619c.34 25.393 21.209 45.715 46.611 45.377 25.398-.342 45.719-21.213 45.381-46.615C91.656 19.986 70.785-.335 45.385.004zm5.099 15.329c4.676 0 6.057 2.714 6.057 5.815 0 3.877-3.104 7.461-8.396 7.461-4.43 0-6.537-2.229-6.414-5.91 0-3.102 2.599-7.366 8.753-7.366zM38.497 74.75c-3.195 0-5.537-1.938-3.301-10.467l3.666-15.125c.637-2.424.744-3.393 0-3.393-.959 0-5.107 1.674-7.557 3.322l-1.598-2.617c7.773-6.491 16.712-10.299 20.544-10.299 3.195 0 3.727 3.779 2.131 9.594l-4.199 15.9c-.744 2.811-.424 3.779.318 3.779.961 0 4.102-1.166 7.188-3.59l1.811 2.424c-7.561 7.56-15.81 10.472-19.003 10.472z" fill="#FFF"/></svg>