<svg xmlns="http://www.w3.org/2000/svg" viewBox="0 0 511.998 511.998"><path d="M274.546 311.425L232.255 44.912a7.904 7.904 0 0 0-9.046-6.569L6.666 72.703a7.901 7.901 0 0 0-6.568 9.046l42.291 266.514a7.901 7.901 0 0 0 9.046 6.569l216.544-34.361a7.908 7.908 0 0 0 5.159-3.162 7.915 7.915 0 0 0 1.408-5.884z" fill="#e6eaea"/><path d="M68.439 147.117a7.907 7.907 0 0 1-1.229-15.715l116.6-18.503c4.312-.689 8.363 2.257 9.047 6.569a7.905 7.905 0 0 1-6.569 9.047L69.687 147.018a7.792 7.792 0 0 1-1.248.099zm10.573 66.63a7.905 7.905 0 0 1-1.229-15.714l116.6-18.503c4.308-.688 8.362 2.257 9.047 6.569a7.905 7.905 0 0 1-6.569 9.046l-116.6 18.503c-.42.066-.837.099-1.249.099zm10.572 66.628a7.905 7.905 0 0 1-1.229-15.714l116.6-18.503c4.31-.686 8.362 2.257 9.046 6.569a7.905 7.905 0 0 1-6.569 9.046L90.833 280.276a8.032 8.032 0 0 1-1.249.099z" fill="#f0353d"/><path d="M508.736 132.551L331.321 3.729a7.907 7.907 0 0 0-11.042 1.752L161.73 223.84a7.904 7.904 0 0 0 1.753 11.043L340.9 363.704a7.872 7.872 0 0 0 4.638 1.509 7.9 7.9 0 0 0 6.404-3.261L510.49 143.594a7.906 7.906 0 0 0-1.754-11.043z" fill="#cdd4d5"/><path d="M423.506 171.716a7.865 7.865 0 0 1-4.638-1.509l-95.531-69.366a7.907 7.907 0 0 1 9.29-12.795l95.532 69.366a7.905 7.905 0 0 1-4.653 14.304zm-39.637 54.589a7.865 7.865 0 0 1-4.638-1.509L283.7 155.43a7.907 7.907 0 0 1 9.29-12.795l95.532 69.366a7.906 7.906 0 0 1-4.653 14.304zm-39.638 54.59a7.865 7.865 0 0 1-4.638-1.509l-95.532-69.366a7.906 7.906 0 1 1 9.291-12.795l95.53 69.366a7.905 7.905 0 0 1-4.651 14.304z" fill="#f0353d"/><path d="M328.349 154.01H109.098a7.906 7.906 0 0 0-7.906 7.906v269.848a7.906 7.906 0 0 0 7.906 7.906H328.35a7.906 7.906 0 0 0 7.906-7.906V161.916a7.907 7.907 0 0 0-7.907-7.906z" fill="#e6eaea"/><path d="M109.098 154.01a7.906 7.906 0 0 0-7.906 7.906v269.848a7.906 7.906 0 0 0 7.906 7.906h109.626V154.01H109.098z" fill="#cdd4d5"/><path d="M277.753 237.283H159.694a7.906 7.906 0 0 1 0-15.812h118.059a7.906 7.906 0 1 1 0 15.812zm0 67.463H159.694a7.906 7.906 0 0 1 0-15.812h118.059a7.906 7.906 0 1 1 0 15.812zm0 67.462H159.694a7.906 7.906 0 0 1 0-15.812h118.059a7.906 7.906 0 1 1 0 15.812z" fill="#f0353d"/><path d="M378.946 422.804a7.883 7.883 0 0 1-5.591-2.316l-33.731-33.731a7.906 7.906 0 0 1 11.181-11.18l33.731 33.731a7.906 7.906 0 0 1-5.59 13.496z" fill="#365558"/><g fill="#4acfd9"><path d="M286.185 221.472c-55.508 0-100.666 45.158-100.666 100.666s45.158 100.666 100.666 100.666 100.666-45.158 100.666-100.666-45.158-100.666-100.666-100.666z"/><path d="M215.037 250.99c-18.228 18.228-29.518 43.395-29.518 71.148 0 55.508 45.158 100.666 100.666 100.666 27.753 0 52.92-11.289 71.148-29.518L215.037 250.99z"/></g><path d="M286.185 255.203c-36.908 0-66.935 30.027-66.935 66.935s30.027 66.935 66.935 66.935 66.935-30.027 66.935-66.935-30.026-66.935-66.935-66.935z" fill="#e6eaea"/><path d="M471.51 472.43l-71.555-71.554a7.905 7.905 0 0 0-11.182 0l-23.851 23.851a7.907 7.907 0 0 0 0 11.181l71.554 71.554a7.881 7.881 0 0 0 5.591 2.316 7.887 7.887 0 0 0 5.591-2.316l23.852-23.852a7.906 7.906 0 0 0 0-11.18z" fill="#ff8c29"/><path d="M442.191 473.401a7.883 7.883 0 0 1-5.591-2.316l-37.947-37.947a7.906 7.906 0 0 1 11.181-11.18l37.947 37.947a7.906 7.906 0 0 1-5.59 13.496z" fill="#fff"/><path d="M281.969 355.342a7.906 7.906 0 0 1-5.591-13.496l21.082-21.082c3.088-3.087 8.093-3.087 11.181 0s3.087 8.093 0 11.18l-21.082 21.082a7.879 7.879 0 0 1-5.59 2.316zm-10.541-31.623a7.906 7.906 0 0 1-5.591-13.496l23.19-23.19a7.906 7.906 0 0 1 11.181 11.18l-23.19 23.19a7.875 7.875 0 0 1-5.59 2.316z" fill="#365558"/></svg>