<svg xmlns="http://www.w3.org/2000/svg" viewBox="0 0 58 58"><path d="M57.645 35.568c-1.252-1.745-2.292-2.159-6.645.13l-8.674 5.301c-.99.527-2.579.799-4.34.934.002.023.014.044.014.066a1 1 0 0 1-1 1H20c-3 0-3 1.506-3 2a1 1 0 1 1-2 0c0-2.504 1.869-4 5-4h14.236c.535-.558.622-1.418-.263-2.738-1.405-2.099-3.829-3.29-6.354-3.29h-3.901c-2.274 0-4.517-.676-6.332-2.044C13.149 29.733 5 29.999 5 29.999v24h14c1.997 0 3.992-.15 5.966-.451L38 51.567a5.956 5.956 0 0 0 1.315-.149c1.056-.148 2.02-.682 2.789-1.419L57.3 38.165a1.925 1.925 0 0 0 .345-2.597" fill="#fac176"/><path d="M30.725 42.011A54.073 54.073 0 0 0 29.718 42s.417.027 1.007.011" fill="#2c91d0"/><path d="M15 45a1 1 0 1 0 2 0c0-.495 0-2 3-2h17a1 1 0 0 0 1-1c0-.024-.012-.043-.013-.066-2.488.191-5.309.108-7.263.076-.59.019-1.007-.01-1.007-.01.296 0 .642.005 1.007.01 1.083-.031 2.75-.216 3.512-1.01H20c-3.131 0-5 1.495-5 4" fill="#e2ac69"/><path d="M49 9a8 8 0 1 1-16 0 8 8 0 0 1 16 0M21.806 34.803c.629.109 1.268.17 1.912.17h3.9c.634 0 1.261.075 1.867.22C32.154 33.896 34 31.167 34 28a8 8 0 0 0-16 0 7.984 7.984 0 0 0 3.806 6.803" fill="#e4af18"/><path d="M30 28a4 4 0 1 1-8 0 4 4 0 0 1 8 0M45 9a4 4 0 1 1-8 0 4 4 0 0 1 8 0" fill="#fcc62d"/><path fill="#556180" d="M0 26.972h5V57H0z"/></svg>