<svg xmlns="http://www.w3.org/2000/svg" viewBox="0 0 481.882 481.882"><path d="M412.009 129.205C405.986 56.922 345.148.301 271.059.301c-39.153 0-74.089 15.661-99.991 40.96-10.24-4.819-21.082-7.228-33.129-7.228-42.767 0-77.704 34.936-77.704 77.704 0 6.024.602 12.649 2.409 18.071C27.106 137.035 0 168.96 0 206.908c0 42.767 34.936 77.704 77.704 77.704h326.475c42.767 0 77.704-34.936 77.704-77.704-.001-40.357-30.721-73.487-69.874-77.703z" fill="#125baa"/><path d="M53.609 170.767l27.106-5.421-3.012-11.445-9.638 1.807c-13.854 2.409-25.901 10.842-33.129 22.287 5.422-3.011 11.445-6.023 18.673-7.228zM409.6 155.708l-21.685-2.409-1.807-21.685c-5.421-59.031-55.416-104.809-114.447-104.809-30.72 0-59.633 12.047-81.318 33.732l-13.252 13.252-16.866-7.831c-7.228-3.012-14.456-4.819-21.685-4.819-18.071 0-33.732 9.035-42.767 23.492 7.831-5.421 18.071-8.433 28.311-8.433 7.228 0 15.059 1.807 21.685 4.819l16.866 7.831 13.252-13.252c21.685-21.685 50.598-33.732 81.318-33.732 59.031 0 109.628 46.381 114.447 104.809l1.807 21.685 21.685 2.409c26.504 3.012 46.381 24.696 46.381 51.2 0 10.24-3.012 19.878-8.433 28.311 13.854-9.035 23.492-25.299 23.492-42.767-1.205-27.106-21.083-49.393-46.984-51.803z" fill="#163c65"/><path fill="#18b35c" d="M113.242 277.384H368.64v119.868H113.242z"/><path d="M377.073 192.452H104.809c-4.819 0-9.035 4.216-9.035 9.035v66.259c0 5.421 3.614 9.035 9.035 9.035h272.264c4.819 0 9.035-4.216 9.035-9.035V202.09c-.602-5.422-4.216-9.638-9.035-9.638zm0 204.8H104.809c-4.819 0-9.035 4.216-9.035 9.035v66.259c0 5.421 3.614 9.035 9.035 9.035h272.264c4.819 0 9.035-4.216 9.035-9.035V406.89c-.602-5.422-4.216-9.638-9.035-9.638zm0-102.4H104.809c-4.819 0-9.035 4.216-9.035 9.035v66.259c0 5.421 3.614 9.035 9.035 9.035h272.264c4.819 0 9.035-4.216 9.035-9.035V304.49c-.602-5.422-4.216-9.638-9.035-9.638z" fill="#ebf0f3"/><circle cx="130.108" cy="235.219" r="16.866" fill="#3a556a"/><circle cx="130.711" cy="234.616" r="12.047" fill="#64798a"/><circle cx="171.671" cy="235.219" r="8.433" fill="#e56353"/><circle cx="206.005" cy="235.219" r="8.433" fill="#44c4a1"/><circle cx="130.108" cy="337.619" r="16.866" fill="#3a556a"/><circle cx="130.711" cy="337.016" r="12.047" fill="#64798a"/><circle cx="171.671" cy="337.619" r="8.433" fill="#e56353"/><circle cx="206.005" cy="337.619" r="8.433" fill="#44c4a1"/><circle cx="130.108" cy="440.019" r="16.866" fill="#3a556a"/><circle cx="130.711" cy="439.416" r="12.047" fill="#64798a"/><circle cx="171.671" cy="440.019" r="8.433" fill="#e56353"/><circle cx="206.005" cy="440.019" r="8.433" fill="#44c4a1"/><g fill="#d5d6db"><path d="M242.748 206.306h14.456v14.456h-14.456zm28.913 0h14.456v14.456h-14.456zm28.913 0h14.456v14.456h-14.456zm28.311 0h14.456v14.456h-14.456zm28.913 0h14.456v14.456h-14.456zm-100.593 14.456h14.456v14.456h-14.456zm28.913 0h14.456v14.456h-14.456zm28.913 0h14.456v14.456h-14.456zm28.31 0h14.456v14.456h-14.456zm-100.593 14.457h14.456v14.456h-14.456zm28.913 0h14.456v14.456h-14.456zm28.913 0h14.456v14.456h-14.456zm28.311 0h14.456v14.456h-14.456zm28.913 0h14.456v14.456h-14.456zm-100.593 14.456h14.456v14.456h-14.456zm28.913 0h14.456v14.456h-14.456zm28.913 0h14.456v14.456h-14.456zm28.31 0h14.456v14.456h-14.456zm-100.593 59.031h14.456v14.456h-14.456zm28.913 0h14.456v14.456h-14.456zm28.913 0h14.456v14.456h-14.456zm28.311 0h14.456v14.456h-14.456zm28.913 0h14.456v14.456h-14.456zm-100.593 14.456h14.456v14.456h-14.456zm28.913 0h14.456v14.456h-14.456zm28.913 0h14.456v14.456h-14.456zm28.31 0h14.456v14.456h-14.456zm-100.593 14.457h14.456v14.456h-14.456zm28.913 0h14.456v14.456h-14.456zm28.913 0h14.456v14.456h-14.456zm28.311 0h14.456v14.456h-14.456zm28.913 0h14.456v14.456h-14.456zm-100.593 14.456h14.456v14.456h-14.456zm28.913 0h14.456v14.456h-14.456zm28.913 0h14.456v14.456h-14.456zm28.31 0h14.456v14.456h-14.456zm-100.593 59.031h14.456v14.456h-14.456zm28.913 0h14.456v14.456h-14.456zm28.913 0h14.456v14.456h-14.456zm28.311 0h14.456v14.456h-14.456zm28.913 0h14.456v14.456h-14.456zm-100.593 14.456h14.456v14.456h-14.456zm28.913 0h14.456v14.456h-14.456zm28.913 0h14.456v14.456h-14.456zm28.31 0h14.456v14.456h-14.456zm-100.593 14.457h14.456v14.456h-14.456zm28.913 0h14.456v14.456h-14.456zm28.913 0h14.456v14.456h-14.456zm28.311 0h14.456v14.456h-14.456zm28.913 0h14.456v14.456h-14.456zm-100.593 13.854h14.456v14.456h-14.456zm28.913 0h14.456v14.456h-14.456z"/><path d="M315.031 453.873h14.456v14.456h-14.456zm28.31 0h14.456v14.456h-14.456z"/></g></svg>