<svg xmlns="http://www.w3.org/2000/svg" viewBox="0 0 510.969 510.969"><g transform="translate(0 -1)"><g fill="#802f34"><path d="M346.088 100.287a8.678 8.678 0 0 1-8.678-8.678V56.897a8.678 8.678 0 0 1 8.678-8.678 8.678 8.678 0 0 1 8.678 8.678v34.712a8.679 8.679 0 0 1-8.678 8.678zm104.135 0a8.678 8.678 0 0 1-8.678-8.678V56.897a8.678 8.678 0 0 1 8.678-8.678 8.678 8.678 0 0 1 8.678 8.678v34.712a8.678 8.678 0 0 1-8.678 8.678z"/><path d="M502.291 82.931a8.678 8.678 0 0 1-8.678-8.678V63.837c-.123-18.304-15.039-33.055-33.343-32.975H336.041c-18.304-.081-33.22 14.67-33.343 32.975v10.415c0 4.793-3.885 8.678-8.678 8.678s-8.678-3.885-8.678-8.678V63.837c.132-27.886 22.813-50.402 50.699-50.33H460.27c27.886-.071 50.567 22.445 50.699 50.33v10.415a8.679 8.679 0 0 1-8.678 8.679z"/></g><path d="M493.613 169.71v17.356H302.698V169.71l18.148-75.587a22.332 22.332 0 0 1 19.609-11.193h115.403a22.176 22.176 0 0 1 19.609 11.193l18.146 75.587z" fill="#cc4b4c"/><path d="M496.452 303.82l-36.513-44.881c-.283-.347-.629-.608-.925-.937a26.073 26.073 0 0 0-1.78-1.801 25.722 25.722 0 0 0-1.941-1.602 25.96 25.96 0 0 0-1.986-1.358 25.948 25.948 0 0 0-2.227-1.209 25.594 25.594 0 0 0-2.204-.964 25.978 25.978 0 0 0-2.455-.762c-.757-.202-1.509-.397-2.292-.531a26.13 26.13 0 0 0-2.849-.288c-.518-.031-1.009-.155-1.535-.155-.205 0-.396.056-.601.061a25.921 25.921 0 0 0-3.033.306c-.669.094-1.349.139-2 .283a26.13 26.13 0 0 0-2.668.828c-.705.239-1.43.423-2.106.718-.716.314-1.388.749-2.084 1.131a25.84 25.84 0 0 0-2.309 1.323c-.08.056-.169.086-.249.143l-46.627 33.038c-11.087 7.825-14.285 22.864-7.343 34.524s21.687 16.015 33.85 9.998c-26.206 81.117-105.42 132.989-190.25 124.581s-152.32-74.82-162.093-159.503 40.816-164.723 121.5-192.232c-4.807 12.074.049 25.842 11.367 32.228 11.318 6.386 25.614 3.425 33.464-6.931l34.542-45.466c.148-.194.236-.414.377-.611.505-.703.927-1.453 1.362-2.207.411-.714.833-1.417 1.17-2.156.331-.723.58-1.479.844-2.236.305-.828.566-1.671.784-2.526.172-.721.273-1.46.383-2.203.148-.944.244-1.896.288-2.851.012-.326.097-.631.097-.96 0-.428-.105-.826-.126-1.249a25.87 25.87 0 0 0-.283-2.805 25.611 25.611 0 0 0-.452-2.261 26.055 26.055 0 0 0-.777-2.503 25.365 25.365 0 0 0-.878-2.18 25.767 25.767 0 0 0-1.236-2.276c-.406-.679-.812-1.347-1.276-1.984-.496-.683-1.05-1.323-1.62-1.963-.556-.626-1.115-1.235-1.728-1.804-.244-.226-.427-.493-.681-.712l-43.885-37.749a26.035 26.035 0 1 0-33.958 39.475l.051.045C62.953 80.285-8.898 183.38.89 295.536S99.301 496.782 211.403 507.16c112.102 10.378 215.575-60.929 245.786-169.381 9.488 10.377 25.513 11.316 36.148 2.118s12.016-25.192 3.115-36.077z" fill="#e4af18"/><path d="M302.698 169.71h190.915v26.034c0 9.585-7.771 17.356-17.356 17.356H320.054c-9.585 0-17.356-7.771-17.356-17.356V169.71z" fill="#802f34"/><circle cx="398.155" cy="143.676" r="26.034" fill="#ecf0f1"/><path d="M320.054 291.202H294.02v-21.695a8.678 8.678 0 0 0-8.678-8.678 8.678 8.678 0 0 0-8.678 8.678v21.695h-38.055l37.135-74.22a8.675 8.675 0 1 0-15.517-7.764l-43.424 86.78a8.677 8.677 0 0 0 7.758 12.56h52.102v26.034a8.678 8.678 0 0 0 8.678 8.678 8.678 8.678 0 0 0 8.678-8.678v-26.034h26.034c4.793 0 8.678-3.885 8.678-8.678s-3.885-8.678-8.677-8.678zm-130.17 34.712h-48.288c21.424-16.093 48.288-43.22 48.288-78.102a43.39 43.39 0 0 0-75.932-28.699 8.679 8.679 0 0 0 .767 12.25 8.679 8.679 0 0 0 12.25-.767 26.032 26.032 0 1 1 45.56 17.216c0 46.034-63.987 78.695-64.631 79.022a8.678 8.678 0 0 0 3.886 16.436h78.102a8.678 8.678 0 1 0-.002-17.356z" fill="#363838"/></g></svg>