<svg xmlns="http://www.w3.org/2000/svg" xmlns:xlink="http://www.w3.org/1999/xlink" width="400.001" height="293.333"><defs><path id="a" d="M0 0h400.001v293.333H0z"/></defs><clipPath id="b"><use xlink:href="#a" overflow="visible"/></clipPath><path clip-path="url(#b)" fill="#184F82" d="M226.934 80H20C8.959 79.988.013 71.041 0 60V20C.013 8.959 8.959.012 20 0h253.334c11.04.012 19.988 8.959 20 20v21.068a6.666 6.666 0 1 1-13.333 0V20a6.674 6.674 0 0 0-6.667-6.667H20A6.674 6.674 0 0 0 13.333 20v40A6.673 6.673 0 0 0 20 66.667h206.934c3.683 0 6.666 2.985 6.666 6.667S230.616 80 226.934 80"/><path clip-path="url(#b)" fill="#184F82" d="M46.667 46.667H40c-3.682 0-6.667-2.984-6.667-6.667s2.985-6.667 6.667-6.667h6.667a6.667 6.667 0 0 1 0 13.334"/><path clip-path="url(#b)" fill="#FFC10D" d="M80 46.667h-6.667c-3.682 0-6.667-2.984-6.667-6.667s2.985-6.667 6.667-6.667H80a6.667 6.667 0 0 1 0 13.334"/><path clip-path="url(#b)" fill="#184F82" d="M113.333 46.667h-6.667c-3.682 0-6.666-2.984-6.666-6.667s2.985-6.667 6.666-6.667h6.667a6.667 6.667 0 0 1 0 13.334m120.001 0h-26.667c-3.683 0-6.666-2.984-6.666-6.667s2.985-6.667 6.666-6.667h26.667c3.682 0 6.666 2.985 6.666 6.667s-2.984 6.667-6.666 6.667m-6.667 60H53.333a6.67 6.67 0 0 1-4.713-1.953L21.954 78.047a6.667 6.667 0 1 1 4.714-11.381h200.267c3.683 0 6.666 2.985 6.666 6.667S230.617 80 226.934 80H42.76l13.333 13.334h170.572a6.666 6.666 0 0 1 .002 13.333"/><path clip-path="url(#b)" fill="#184F82" d="M237.334 173.333H20c-11.041-.012-19.988-8.959-20-20v-40c.012-11.041 8.959-19.988 20-20h206.666a6.667 6.667 0 0 1 0 13.333H20a6.674 6.674 0 0 0-6.667 6.667v40A6.673 6.673 0 0 0 20 159.999h217.334a6.665 6.665 0 0 1 6.667 6.666 6.667 6.667 0 0 1-6.667 6.668"/><path clip-path="url(#b)" fill="#184F82" d="M46.667 140H40a6.666 6.666 0 1 1 0-13.333h6.667a6.667 6.667 0 1 1 0 13.333"/><path clip-path="url(#b)" fill="#FFC10D" d="M80 140h-6.667a6.666 6.666 0 1 1 0-13.333H80A6.667 6.667 0 1 1 80 140"/><path clip-path="url(#b)" fill="#184F82" d="M113.333 140h-6.667a6.666 6.666 0 0 1-6.666-6.667 6.666 6.666 0 0 1 6.666-6.666h6.667a6.667 6.667 0 1 1 0 13.333m113.334 0h-20a6.666 6.666 0 0 1-6.666-6.667 6.665 6.665 0 0 1 6.666-6.666h20a6.666 6.666 0 1 1 0 13.333M240 200.001H53.333a6.67 6.67 0 0 1-4.713-1.953L21.954 171.38A6.665 6.665 0 1 1 26.668 160h210.667c3.682 0 6.666 2.983 6.666 6.666s-2.984 6.667-6.666 6.667H42.76l13.334 13.334H240a6.665 6.665 0 0 1 6.666 6.666 6.665 6.665 0 0 1-6.666 6.668"/><path clip-path="url(#b)" fill="#184F82" d="M273.334 266.667H20c-11.041-.012-19.988-8.959-20-20v-40c.012-11.041 8.959-19.988 20-20h233.532a6.665 6.665 0 0 1 6.666 6.666 6.666 6.666 0 0 1-6.666 6.667H20a6.673 6.673 0 0 0-6.667 6.666v40.001A6.671 6.671 0 0 0 20 253.333h253.334a6.671 6.671 0 0 0 6.666-6.666v-22.402a6.665 6.665 0 0 1 6.666-6.666 6.665 6.665 0 0 1 6.667 6.666v22.402c-.012 11.041-8.958 19.988-19.999 20"/><path clip-path="url(#b)" fill="#184F82" d="M46.667 233.333H40a6.666 6.666 0 1 1 0-13.332h6.667a6.666 6.666 0 1 1 0 13.332"/><path clip-path="url(#b)" fill="#FFC10D" d="M80 233.333h-6.667a6.666 6.666 0 1 1 0-13.332H80a6.666 6.666 0 1 1 0 13.332"/><path clip-path="url(#b)" fill="#184F82" d="M113.333 233.333h-6.667a6.666 6.666 0 0 1 0-13.332h6.667a6.666 6.666 0 1 1 0 13.332m120.001 0h-26.667a6.666 6.666 0 0 1 0-13.332h26.667c3.682 0 6.666 2.984 6.666 6.666s-2.984 6.666-6.666 6.666m-180.001 60H40c-11.041-.012-19.988-8.959-20-20V260a6.665 6.665 0 0 1 6.667-6.667h40A6.662 6.662 0 0 1 73.335 260v13.333c-.014 11.041-8.96 19.988-20.002 20m-20-26.666v6.666A6.672 6.672 0 0 0 40 280h13.333A6.672 6.672 0 0 0 60 273.333v-6.666H33.333zm220.001 26.666H240c-11.041-.012-19.988-8.959-20-20V260a6.66 6.66 0 0 1 6.667-6.667h40a6.66 6.66 0 0 1 6.667 6.667v13.333c-.013 11.041-8.959 19.988-20 20m-20-26.666v6.666A6.67 6.67 0 0 0 240 280h13.334a6.672 6.672 0 0 0 6.666-6.667v-6.666h-26.666z"/><path clip-path="url(#b)" fill="#FFF" d="M386.5 70.167l-72-38-87 38-2 64 30 60 28 25 27 23 34-26 34-35 18-55z"/><path clip-path="url(#b)" fill="#184F82" d="M310 246.642a16.562 16.562 0 0 1-10.296-3.541l-27.452-21.731A132.435 132.435 0 0 1 220 117.62V75.178a14.638 14.638 0 0 1 8.365-13.229l71.27-34.57a23.946 23.946 0 0 1 20.724-.007l71.27 34.577a14.637 14.637 0 0 1 8.373 13.229v42.441a132.44 132.44 0 0 1-52.26 103.756l-27.453 21.726A16.545 16.545 0 0 1 310 246.642m0-208.302a10.467 10.467 0 0 0-4.551 1.035l-71.268 34.57a1.409 1.409 0 0 0-.849 1.23v42.441a119.186 119.186 0 0 0 47.185 93.287l27.465 21.739a3.33 3.33 0 0 0 4.028.008l27.467-21.738a119.193 119.193 0 0 0 47.188-93.294V75.176a1.4 1.4 0 0 0-.847-1.224l-.007-.007-71.27-34.577A10.496 10.496 0 0 0 310 38.34"/><path clip-path="url(#b)" fill="#90C300" d="M302.183 80.614l56.317-8.447v50.121h-56.317z"/><path clip-path="url(#b)" fill="#F8672C" d="M251.5 87.935l43.176-6.382v41.298H251.5z"/><path clip-path="url(#b)" fill="#FFC400" d="M302.183 170.72l56.317 8.447V130.36h-56.317z"/><path clip-path="url(#b)" fill="#00B4F2" d="M251.5 163.399l43.176 6.383v-39.423H251.5z"/></svg>