<svg xmlns="http://www.w3.org/2000/svg" viewBox="0 0 464 464"><path d="M368 368l41.728-47.944c7.253-8.16 6.517-20.655-1.644-27.908a19.671 19.671 0 0 0-1.268-1.036c-8.333-6.251-20.087-4.959-26.864 2.952L344 336c-29.416 14.71-47.998 44.775-48 77.664V464h88l80-128V200c0-11.046-8.954-20-20-20s-20 8.954-20 20v104l-56 64z" fill="#f2bb80"/><circle cx="232" cy="160" r="160" fill="#174f82"/><path d="M96 368l-41.728-47.944c-7.253-8.16-6.517-20.655 1.644-27.908.408-.363.831-.708 1.268-1.036 8.333-6.251 20.087-4.959 26.864 2.952L120 336c29.416 14.71 47.998 44.775 48 77.664V464H80L0 336V200c0-11.046 8.954-20 20-20s20 8.954 20 20v104l56 64z" fill="#f2bb80"/><path d="M96 376a7.94 7.94 0 0 1-6.032-2.752L48.24 325.304a8.001 8.001 0 1 1 12.065-10.496l41.728 47.944A8 8 0 0 1 96 376zm272 0a8 8 0 0 1-6.032-13.248l41.728-47.944a8 8 0 1 1 12.063 10.496l-41.728 47.944A7.937 7.937 0 0 1 368 376z" fill="#e8a16d"/><path d="M346.064 47.888c-42.24 125.6-138.528 191.496-226.312 226.056 63.038 61.88 164.305 60.941 226.185-2.097 61.021-62.163 61.078-161.727.127-223.959z" fill="#174f82"/><path d="M168 184h64v88l-40-16v-32l-24-8v-32zm136-88l-32 40 24 24v64h32l40-56h-24V96h-40zm-24-24l43.296-43.296A159.014 159.014 0 0 0 248 .8V48l32 24zm-152 80l40 32v-48h56V96l-32-32v24h-32V17.256A160.336 160.336 0 0 0 79.344 112H128v40z" fill="#18b35c"/></svg>