<svg xmlns="http://www.w3.org/2000/svg" viewBox="0 -31 512 511" width="512" height="512"><g fill-rule="evenodd"><path d="M256 439.809c118.316 0 214.816-96.5 214.816-214.817 0-118.32-96.5-214.82-214.816-214.82s-214.82 96.5-214.82 214.82C41.18 343.31 137.684 439.81 256 439.81zm0 0" fill="#115baa" data-original="#B0E7FF" data-old_color="#B0E7FF"/><path d="M220.516 315.281c4.98 4.977 7.761 11.696 7.761 18.739s-2.78 13.761-7.761 18.742-11.696 7.758-18.739 7.758a26.446 26.446 0 0 1-18.742-7.758c-4.98-4.98-7.762-11.7-7.762-18.742s2.782-13.762 7.762-18.739a26.454 26.454 0 0 1 18.742-7.765 26.46 26.46 0 0 1 18.739 7.765zm134.78-.031c4.985 4.988 7.75 11.719 7.75 18.77a26.441 26.441 0 0 1-7.76 18.738c-4.977 4.98-11.696 7.762-18.74 7.762s-13.76-2.778-18.741-7.762a26.437 26.437 0 0 1-7.758-18.738c0-7.051 2.765-13.782 7.75-18.77a26.505 26.505 0 0 1 37.5 0zm0 0" fill="#18b35c" data-original="#FFE169" class="active-path" data-old_color="#18b35c"/><path d="M160.086 161.04h211.992l-35.512 108.75H195.598zm0 0" fill="#18b35c" data-original="#6DC992" data-old_color="#18b35c"/><path d="M439.316 264.191l19.903-16.699c-5.2 47.469-26.64 90.055-58.653 122.067-36.996 36.996-88.109 59.878-144.566 59.878-48.453 0-92.945-16.828-127.95-44.953-35.706-28.687-61.573-69.129-71.734-115.445-1.168-5.406-6.496-8.84-11.902-7.672-5.406 1.164-8.84 6.492-7.672 11.899 11.16 50.879 39.567 95.293 78.781 126.8 38.48 30.918 87.329 49.414 140.477 49.414 61.988 0 118.113-25.125 158.738-65.75 34.914-34.914 58.383-81.277 64.29-132.972l15.292 18.226c3.547 4.235 9.86 4.797 14.094 1.25 4.238-3.543 4.8-9.855 1.254-14.093l-31.152-37.13a10.012 10.012 0 0 0-8.047-4.042 10 10 0 0 0-6.875 2.73l-37.117 31.145c-4.235 3.547-4.797 9.86-1.25 14.094 3.546 4.238 9.855 4.796 14.09 1.253zM0 187.312a9.98 9.98 0 0 1 3.586-7.566c4.234-3.543 10.547-2.984 14.094 1.254l15.293 18.227c5.906-51.7 29.375-98.059 64.289-132.973C137.887 25.629 194.012.5 256 .5 309.148.5 358 19 396.477 49.918c39.214 31.508 67.62 75.922 78.785 126.797 1.164 5.406-2.27 10.734-7.676 11.902-5.406 1.168-10.734-2.27-11.902-7.676-10.16-46.312-36.028-86.754-71.735-115.445C348.945 37.371 304.453 20.543 256 20.543c-56.457 0-107.57 22.883-144.566 59.883-32.016 32.011-53.457 74.594-58.653 122.066l19.903-16.699c4.234-3.547 10.546-2.984 14.09 1.25 3.546 4.238 2.988 10.55-1.25 14.094L48.405 232.28a9.992 9.992 0 0 1-6.875 2.73c-3.293 0-6.219-1.59-8.043-4.042l-31.16-37.13A9.956 9.956 0 0 1 0 187.54zm213.43 135.055c2.98 2.98 4.824 7.102 4.824 11.653s-1.844 8.671-4.824 11.652a16.432 16.432 0 0 1-11.653 4.828 16.434 16.434 0 0 1-11.656-4.828 16.429 16.429 0 0 1-4.824-11.652c0-4.555 1.844-8.672 4.824-11.653a16.418 16.418 0 0 1 11.656-4.828 16.42 16.42 0 0 1 11.653 4.828zm123.804-4.851a16.39 16.39 0 0 1 10.973 4.82 16.467 16.467 0 0 1 4.82 11.684 16.44 16.44 0 0 1-4.828 11.656c-2.98 2.98-7.101 4.824-11.652 4.824s-8.672-1.844-11.652-4.824a16.432 16.432 0 0 1-4.829-11.656 16.48 16.48 0 0 1 4.817-11.684 16.428 16.428 0 0 1 10.515-4.797 11.98 11.98 0 0 1 1.836-.023zm-71.152-166.5c-5.535 0-10.023 4.484-10.023 10.023 0 5.535 4.488 10.02 10.023 10.02 5.535 0 10.023-4.485 10.023-10.02 0-5.539-4.488-10.023-10.023-10.023zm74.754 73.41l-11.54 35.34H202.872l-11.543-35.34zm-156.05-20.031h162.593l10.887-33.336h-52.094c-5.535 0-10.024-4.485-10.024-10.02 0-5.535 4.489-10.023 10.024-10.023h65.887c5.535 0 10.023 4.488 10.023 10.023 0 1.316-.254 2.57-.715 3.723l-35.308 108.12c-1.372 4.227-5.297 6.915-9.512 6.915l-127.133.015 5.774 17.684h121.335c9.622 0 19.067 3.953 25.856 10.746 6.605 6.61 10.687 15.727 10.687 25.778 0 10.085-4.086 19.218-10.695 25.828s-15.742 10.695-25.824 10.695c-10.086 0-19.219-4.086-25.828-10.695s-10.7-15.743-10.7-25.828a36.235 36.235 0 0 1 3.942-16.477h-69.586a36.36 36.36 0 0 1 3.922 16.477c0 10.085-4.09 19.218-10.695 25.828-6.61 6.609-15.743 10.695-25.825 10.695-10.086 0-19.218-4.086-25.828-10.695s-10.695-15.743-10.695-25.828c0-10.083 4.086-19.215 10.695-25.825a36.44 36.44 0 0 1 18.438-9.949c-17.95-54.973-35.903-109.941-53.852-164.914h-30.293c-5.535 0-10.02-4.488-10.02-10.023s4.485-10.02 10.02-10.02l37.543.016c4.219 0 8.14 2.687 9.512 6.914l10.058 30.8h58.641c5.535 0 10.02 4.485 10.02 10.024 0 5.535-4.485 10.02-10.02 10.02h-52.098zm0 0" data-original="#000000" data-old_color="#18B35C"/></g></svg>