<svg xmlns="http://www.w3.org/2000/svg" viewBox="0 0 511.814 511.814" width="512" height="512"><path d="M511.814 108.644v191.003a13.639 13.639 0 0 1-13.639 13.639H129.818c-7.532 0-13.639-6.106-13.639-13.639V26.786c0-7.532 6.106-13.639 13.639-13.639h368.358c7.532 0 13.639 6.106 13.639 13.639v81.858z" data-original="#FF5364" data-old_color="#115baa" fill="#115baa"/><path d="M508.407 17.852L327.159 172.627c-7.601 6.418-18.723 6.418-26.324 0L119.587 17.852a13.498 13.498 0 0 1 10.231-4.705h368.358a13.506 13.506 0 0 1 10.231 4.705z" data-original="#FB7B76" class="active-path" data-old_color="#066CDC" fill="#056ddf"/><path d="M506.968 310.01a13.457 13.457 0 0 1-8.828 3.275H129.818a13.49 13.49 0 0 1-8.828-3.275l151.12-161.871 28.725 24.488c7.601 6.418 18.723 6.418 26.324 0l28.654-24.488L506.968 310.01z" data-original="#DF4D60" data-old_color="#025FBD" fill="#0261c0"/><path d="M111.695 153.859l25.335 38.003c5.048 7.571 3.396 17.754-3.787 23.34l-31.197 24.267a17.293 17.293 0 0 0-4.573 22.069c9.154 16.437 17.814 35.858 60.796 78.848s62.42 51.633 78.857 60.787a17.275 17.275 0 0 0 22.069-4.573l24.258-31.188c5.589-7.184 15.776-8.836 23.349-3.787l39.203 26.138 44.138 29.405c7.728 5.129 10.06 15.426 5.297 23.384l-20.904 34.834a42.511 42.511 0 0 1-25.017 19.332c-34.737 9.534-111.351 11.476-234.161-111.351S-5.597 183.944 3.937 149.207a42.508 42.508 0 0 1 19.324-25.017l34.816-20.904c7.959-4.758 18.252-2.427 23.384 5.297l30.234 45.276z" data-original="#4FBA6F" fill="#4fba6f"/></svg>