<svg xmlns="http://www.w3.org/2000/svg" viewBox="0 0 385.6 385.6" width="512" height="512"><circle cx="192" cy="192.8" r="192" data-original="#F68C29" data-old_color="#18b35c" fill="#18b35c"/><circle cx="192" cy="192.8" r="148" data-original="#EAEBC2" fill="#eaebc2"/><path d="M184 44.8v28c0 4.4 3.6 8 8 8s8-3.6 8-8v-28c0-4.4-3.6-8-8-8s-8 3.6-8 8zm127.6 140c-4.4 0-8 3.6-8 8s3.6 8 8 8H340c4.4 0 8-3.6 8-8s-3.6-8-8-8h-28.4zm-239.6 0H43.6c-4.4 0-8 3.6-8 8s3.6 8 8 8H72c4.4 0 8-3.6 8-8s-3.6-8-8-8zm137.6-10c-2.8-2.8-6-4.8-10-6V104c0-4.4-3.6-8-8-8s-8 3.6-8 8v64.8c-3.6 1.2-6.8 3.2-9.2 5.6l-.4.4c-2.8 2.8-4.8 6-6 10h-48.8c-4.4 0-8 3.6-8 8s3.6 8 8 8H168c1.2 3.6 3.2 7.2 6 10 4.4 4.4 10.8 7.2 18 7.2 6.8 0 13.2-2.8 18-7.2 4.4-4.4 7.2-10.8 7.2-18 0-6.8-2.8-13.2-7.6-18zm-11.2 24.4c-1.6 1.6-4 2.8-6.4 2.8s-4.8-1.2-6.4-2.8c-1.6-1.6-2.8-4-2.8-6.4 0-2.4 1.2-4.8 2.8-6.4 0 0 0-.4.4-.4 1.6-1.6 4-2.4 6.4-2.4 2.4 0 4.8 1.2 6.4 2.8 1.6 1.6 2.8 4 2.8 6.4-.4 2.4-1.6 4.8-3.2 6.4zM192 304.8c-4.4 0-8 3.6-8 8v28.4c0 4.4 3.6 8 8 8s8-3.6 8-8v-28.4c0-4.4-3.6-8-8-8z" data-original="#402810" class="active-path" data-old_color="#115baa" fill="#115baa"/><circle cx="312.4" cy="311.6" r="73.2" data-original="#402810" class="active-path" data-old_color="#115baa" fill="#115baa"/><path d="M282.8 348.4c-10.8-8.8-17.6-22-17.6-36.8 0-22 15.2-40.4 35.6-45.6v-12c-26.8 5.6-47.2 29.2-47.2 58 0 17.6 7.6 33.6 20 44.4 9.2 8.4 15.2-3.6 9.2-8zm68.4-81.6c-6-5.6-14.8 3.2-9.2 7.6 10.8 8.8 18 22 18 37.2 0 22-15.2 40.4-35.6 45.6v12c26.8-5.6 47.2-29.2 47.2-58 0-17.6-8-33.6-20.4-44.4zM306 276l19.2-11.6c2.8-1.6 2.8-4.4 0-6l-19.6-11.6c-2.8-2-4.8-.8-4.8 2.8v23.6c0 3.2 2.4 4.4 5.2 2.8zm13.2 71.2l-19.6 11.6c-2.8 1.6-2.8 4.4 0 6l19.2 11.6c2.8 1.6 5.2.4 5.2-2.8V350c.4-3.2-2-4.4-4.8-2.8z" data-original="#F68C29" data-old_color="#18b35c" fill="#18b35c"/></svg>