<svg xmlns="http://www.w3.org/2000/svg" width="512" height="512"><path d="M392 26.1V135l-31 15H30L0 120V45C0 20.099 20.099 0 45 0h316l31 26.1z" data-original="#FD3C65" data-old_color="#18b35c" fill="#18b35c"/><path data-original="#FD003A" data-old_color="#18b35c" fill="#18b35c" d="M392 26.1V135l-31 15H256V0h105z"/><path d="M467 0H361v150h121l30-30V45c0-24.814-20.186-45-45-45z" data-original="#004A7B" data-old_color="#115baa" fill="#115baa"/><path d="M512 120v345c0 24.901-20.099 47-45 47H46c-24.901 0-46-22.099-46-47V120h512z" data-original="#E1E4FB" fill="#e1e4fb"/><path d="M512 120v345c0 24.901-20.099 47-45 47H256V120h256z" data-original="#C5C9F7" fill="#c5c9f7"/><path d="M105 90H75c-8.291 0-15-6.709-15-15s6.709-15 15-15h30c8.291 0 15 6.709 15 15s-6.709 15-15 15zm91 0h-31c-8.291 0-15-6.709-15-15s6.709-15 15-15h31c8.291 0 15 6.709 15 15s-6.709 15-15 15zm105-15c0 8.401-6.599 15-15 15h-30c-8.401 0-15-6.599-15-15s6.599-15 15-15h30c8.401 0 15 6.599 15 15z" data-original="#004A7B" data-old_color="#115baa" fill="#115baa"/><path d="M301 75c0 8.401-6.599 15-15 15h-30V60h30c8.401 0 15 6.599 15 15z" data-original="#00345B" data-old_color="#115baa" fill="#115baa"/><path d="M407 301H301v-45c0-8.401-6.599-15-15-15H75c-8.401 0-15 6.599-15 15v180c0 8.399 6.599 15 15 15h332c8.401 0 15-6.601 15-15V316c0-8.401-6.599-15-15-15z" data-original="#FE8821" data-old_color="#18b35c" fill="#18b35c"/><path d="M422 316v120c0 8.399-6.599 15-15 15H256V241h30c8.401 0 15 6.599 15 15v45h106c8.401 0 15 6.599 15 15z" data-original="#E5741A" data-old_color="#18b35c" fill="#18b35c"/><path d="M437 271h-91c-8.291 0-15-6.709-15-15v-60c0-8.291 6.709-15 15-15h91c8.291 0 15 6.709 15 15v60c0 8.291-6.709 15-15 15z" data-original="#E5741A" data-old_color="#18b35c" fill="#18b35c"/><path d="M180 271v30h91v-30h-91z" data-original="#B35C4B" class="active-path" data-old_color="#B35C4B" fill="#494949"/><path data-original="#A24F3D" data-old_color="#494848" fill="#494949" d="M256 271h15v30h-15zm15 60h121v30H271zm30 60h91v30h-91z"/><path data-original="#B35C4B" class="active-path" data-old_color="#B35C4B" fill="#494949" d="M90 271h60v30H90zm0 60h151v30H90zm0 60h60v30H90zm90 0h91v30h-91z"/><path data-original="#A24F3D" data-old_color="#494848" fill="#494949" d="M256 391h15v30h-15zm105-180h61v30h-61z"/></svg>