<svg xmlns="http://www.w3.org/2000/svg" viewBox="0 0 480.032 480.032" width="512" height="512"><path d="M370.256 48.032c-36.32-24.72-80.08-39.36-127.28-39.92-.96-.08-1.92-.08-2.96-.08-.96 0-2 0-2.96.08-47.2.56-90.96 15.2-127.28 39.92a235.113 235.113 0 0 0-44.96 40c-35.44 40.72-56.8 93.84-56.8 152s21.36 111.28 56.8 152c13.2 15.2 28.32 28.64 44.96 40 36.32 24.72 80.08 39.36 127.28 39.92.96.08 2 .08 2.96.08 1.04 0 2 0 2.96-.08 47.2-.56 90.96-15.2 127.28-39.92a235.113 235.113 0 0 0 44.96-40c35.44-40.72 56.8-93.84 56.8-152s-21.36-111.28-56.8-152a235.113 235.113 0 0 0-44.96-40zm5.76 280c0 34.48-27.2 62.48-61.28 63.92-1.2 3.84-2.56 7.52-3.92 11.12-22.32-7.2-46.08-11.04-70.8-11.04s-48.48 3.84-70.8 11.04c-1.36-3.6-2.72-7.28-3.92-11.12-34.08-1.44-61.28-29.44-61.28-63.92v-176c0-34.48 27.2-62.48 61.28-63.92 1.2-3.84 2.56-7.52 3.92-11.12 22.32 7.2 46.08 11.04 70.8 11.04s48.48-3.84 70.8-11.04c1.36 3.6 2.72 7.28 3.92 11.12 34.08 1.44 61.28 29.44 61.28 63.92v176z" data-original="#61DBDB" data-old_color="#115baa" fill="#115baa"/><path d="M165.296 391.952c1.2 3.84 2.56 7.52 3.92 11.12 22.32-7.2 46.08-11.04 70.8-11.04h-72c-.88 0-1.84 0-2.72-.08zm74.72-303.92c-24.72 0-48.48-3.84-70.8-11.04-1.36 3.6-2.72 7.28-3.92 11.12.88-.08 1.84-.08 2.72-.08h72zm0 304c24.72 0 48.48 3.84 70.8 11.04 1.36-3.6 2.72-7.28 3.92-11.12-.88.08-1.84.08-2.72.08h-72zm74.72-303.92c-1.2-3.84-2.56-7.52-3.92-11.12-22.32 7.2-46.08 11.04-70.8 11.04h72c.88 0 1.84 0 2.72.08z" data-original="#F7EEDA" fill="#f7eeda"/><path d="M314.736 88.112c-.88-.08-1.84-.08-2.72-.08h-144c-.88 0-1.84 0-2.72.08-34.08 1.44-61.28 29.44-61.28 63.92v176c0 34.48 27.2 62.48 61.28 63.92.88.08 1.84.08 2.72.08h144c.88 0 1.84 0 2.72-.08 34.08-1.44 61.28-29.44 61.28-63.92v-176c0-34.48-27.2-62.48-61.28-63.92zm21.28 239.92c0 17.672-14.328 32-32 32h-128v-24l-32-32v-40l32-32v-92c0-11.048 8.952-20 20-20s20 8.952 20 20v96c0-11.048 8.952-20 20-20s20 8.952 20 20c0-11.048 8.952-20 20-20s20 8.952 20 20c0-11.048 8.952-20 20-20s20 8.952 20 20v92z" data-original="#EFC062" data-old_color="#18b35c" fill="#18b35c"/><path d="M316.016 216.032c-11.048 0-20 8.952-20 20 0-11.048-8.952-20-20-20s-20 8.952-20 20c0-11.048-8.952-20-20-20s-20 8.952-20 20v-96c0-11.048-8.952-20-20-20s-20 8.952-20 20v92l-32 32v40l32 32v24h128c17.672 0 32-14.328 32-32v-92c0-11.048-8.952-20-20-20z" data-original="#F7EEDA" fill="#f7eeda"/><path d="M374.76 41.416C335.888 14.96 290.344.672 243.624.136c-1.016-.08-2.2-.12-3.312-.128-.136 0-.256-.008-.384-.008-1.224 0-2.32.04-2.968.112-.064 0-.128.008-.192.008-.048.008-.12 0-.168.008h-.032c-47.136.64-92.528 14.904-131.296 41.288-.008 0-.008.008-.016.016a243.46 243.46 0 0 0-46.48 41.352C20.88 126.32.016 182.168.016 240.032s20.864 113.712 58.76 157.24a243.406 243.406 0 0 0 46.496 41.376c38.872 26.456 84.416 40.744 131.136 41.28 1.168.096 2.44.104 3.608.104 1.264 0 2.44-.008 3.056-.08.096 0 .184-.016.28-.016h.112c5.776-.08 11.528-.344 17.248-.832 6.992-.592 13.912-1.592 20.784-2.784 33.336-5.792 65.064-18.48 93.264-37.672.008 0 .008-.008.016-.016a243.46 243.46 0 0 0 46.48-41.352c37.896-43.536 58.76-99.384 58.76-157.248s-20.864-113.712-58.76-157.24a243.406 243.406 0 0 0-46.496-41.376zm34.424 51.864c33.6 38.624 52.824 87.624 54.648 138.752h-79.816v-80c0-35.872-26.056-65.6-60.368-71.024 2.96-1.104 5.92-2.264 8.848-3.496 12.792-5.256 25.36-11.944 37.48-19.784 14.408 10.328 27.616 22.208 39.208 35.552zm-55.672 339.824c-1.864 1.096-3.76 2.112-5.648 3.152-2.68 1.472-5.36 2.928-8.096 4.288-2 .992-4.024 1.928-6.048 2.864a217.318 217.318 0 0 1-8.16 3.584c-2.096.864-4.2 1.696-6.32 2.496a234.45 234.45 0 0 1-8.344 2.952 217.593 217.593 0 0 1-6.472 2.064c-2.864.856-5.752 1.624-8.648 2.36-2.152.552-4.304 1.12-6.48 1.6-.952.216-1.92.36-2.872.56 10.968-11.088 20.688-26.48 28.936-45.936 3.664 1.312 7.352 2.704 11.048 4.264 9.8 4.032 19.48 8.928 28.912 14.616-.608.368-1.192.776-1.808 1.136zm-169.344 23.76c-2.904-.744-5.8-1.512-8.672-2.376a248.75 248.75 0 0 1-6.408-2.048 220.092 220.092 0 0 1-14.648-5.448 221.061 221.061 0 0 1-8.12-3.568c-2.04-.936-4.072-1.88-6.088-2.888-2.704-1.344-5.36-2.784-8.008-4.248-1.92-1.056-3.848-2.088-5.736-3.2-.608-.36-1.184-.76-1.784-1.12 9.432-5.688 19.136-10.592 28.984-14.64 3.648-1.544 7.32-2.928 10.984-4.24 8.24 19.472 17.968 34.872 28.928 45.96-1.008-.208-2.032-.368-3.04-.6-2.144-.472-4.264-1.032-6.392-1.584zm47.848-56.48v62.904c-24.688-4.664-41.448-30.584-51.976-54.936 16.88-4.688 34.36-7.352 51.976-7.968zm16 0c17.6.616 35.08 3.272 51.976 7.968-10.52 24.32-27.248 50.16-51.976 54.912v-62.88zm66.008-16.4c-.656.056-1.384.048-2.008.048h-144c-.6 0-1.288 0-1.92-.048-.16-.008-.288-.008-.464-.024-30.064-1.272-53.616-25.84-53.616-55.928v-176c0-30.088 23.552-54.656 53.992-55.952.656-.056 1.384-.048 2.008-.048h144c.544 0 1.168.008 1.744.04.208.008.392.008.64.032 30.064 1.272 53.616 25.84 53.616 55.928v176c0 30.088-23.552 54.656-53.992 55.952zM126.52 46.96c1.864-1.096 3.768-2.12 5.664-3.16 2.672-1.472 5.352-2.92 8.072-4.28 2.008-1 4.04-1.936 6.072-2.872 2.696-1.24 5.408-2.44 8.144-3.576a225.708 225.708 0 0 1 6.328-2.496 219.08 219.08 0 0 1 8.336-2.944 233.659 233.659 0 0 1 6.472-2.064c2.856-.856 5.752-1.616 8.648-2.36 2.16-.552 4.312-1.12 6.488-1.608.952-.208 1.912-.36 2.864-.56-10.968 11.088-20.688 26.48-28.936 45.936-3.664-1.312-7.352-2.704-11.048-4.264-9.8-4.032-19.48-8.928-28.912-14.616.608-.368 1.192-.776 1.808-1.136zM295.864 23.2c2.904.744 5.8 1.512 8.672 2.376a248.75 248.75 0 0 1 6.408 2.048c2.808.936 5.592 1.912 8.36 2.96 2.104.8 4.208 1.624 6.288 2.488a215.579 215.579 0 0 1 8.128 3.568c2.04.944 4.08 1.888 6.088 2.888 2.696 1.344 5.352 2.784 8 4.24 1.92 1.056 3.848 2.088 5.736 3.208.608.36 1.184.76 1.784 1.12-9.432 5.688-19.136 10.592-28.984 14.64-3.648 1.544-7.32 2.928-10.984 4.24-8.24-19.472-17.968-34.872-28.928-45.96 1.008.208 2.032.368 3.032.6 2.152.472 4.272 1.032 6.4 1.584zm-47.848 56.48V16.776c24.688 4.664 41.448 30.584 51.976 54.936-16.88 4.688-34.36 7.352-51.976 7.968zm-16-62.888V79.68c-17.6-.616-35.08-3.272-51.976-7.968 10.52-24.328 27.24-50.168 51.976-54.92zM70.848 93.272c11.592-13.336 24.8-25.224 39.208-35.544 12.12 7.84 24.68 14.52 37.408 19.76a226.818 226.818 0 0 0 8.976 3.544c-34.488 5.544-60.424 35.208-60.424 71v80H16.2c1.824-51.128 21.04-100.128 54.648-138.76zm0 293.512C37.24 348.16 18.024 299.16 16.2 248.032h79.816v80c0 35.872 26.056 65.6 60.368 71.024a230.673 230.673 0 0 0-8.848 3.496c-12.792 5.256-25.36 11.944-37.48 19.784-14.408-10.328-27.616-22.208-39.208-35.552zm338.336.008c-11.592 13.336-24.8 25.224-39.208 35.544-12.12-7.84-24.68-14.52-37.408-19.76a226.818 226.818 0 0 0-8.976-3.544c34.488-5.544 60.424-35.208 60.424-71v-80h79.816c-1.824 51.128-21.04 100.128-54.648 138.76z" data-original="#122333" class="active-path" data-old_color="#115BAA" fill="#122333"/><path d="M316.016 208.032c-7.84 0-14.912 3.256-20 8.464-5.088-5.208-12.16-8.464-20-8.464s-14.912 3.256-20 8.464c-5.088-5.208-12.16-8.464-20-8.464-4.312 0-8.352 1.064-12 2.808v-70.808c0-15.44-12.56-28-28-28s-28 12.56-28 28v88.688l-29.656 29.656a7.965 7.965 0 0 0-2.344 5.656v40c0 2.128.84 4.16 2.344 5.656l29.656 29.656v20.688c0 4.424 3.576 8 8 8h128c22.056 0 40-17.944 40-40v-92c0-15.44-12.56-28-28-28zm12 120c0 13.232-10.768 24-24 24h-120v-16c0-2.128-.84-4.16-2.344-5.656l-29.656-29.656v-33.376l16-16v12.688h16v-124c0-6.616 5.384-12 12-12s12 5.384 12 12v108h16v-12c0-6.616 5.384-12 12-12s12 5.384 12 12v12h16v-12c0-6.616 5.384-12 12-12s12 5.384 12 12v12h16v-12c0-6.616 5.384-12 12-12s12 5.384 12 12v92z" data-original="#122333" class="active-path" data-old_color="#115BAA" fill="#122333"/></svg>