<svg xmlns="http://www.w3.org/2000/svg" width="512" height="512"><path d="M512 68.149v375.702c0 11.717-9.528 21.245-21.235 21.245H21.235C9.528 465.096 0 455.568 0 443.851V68.149c0-11.717 9.528-21.245 21.235-21.245h469.53c11.707 0 21.235 9.528 21.235 21.245z" data-original="#D9FFFE" data-old_color="#18b35c" fill="#18b35c"/><path d="M512 68.149v375.702c0 11.717-9.528 21.245-21.235 21.245H254.56V46.904h236.205c11.707 0 21.235 9.528 21.235 21.245z" data-original="#9BFCFF" data-old_color="#115baa" fill="#115baa"/><path d="M71.053 126.225c-.49 0-.99-.03-1.479-.08-.49-.04-.971-.12-1.46-.21-.471-.1-.95-.22-1.421-.36-.47-.15-.93-.31-1.38-.5-.449-.19-.899-.4-1.33-.63-.43-.23-.859-.48-1.26-.75-.41-.27-.81-.57-1.189-.87-.38-.32-.75-.65-1.091-.99-.35-.35-.68-.72-.989-1.1-.311-.38-.601-.78-.88-1.19a16.294 16.294 0 0 1-1.381-2.58c-.18-.46-.35-.92-.489-1.39-.141-.46-.271-.94-.36-1.42-.1-.48-.17-.97-.22-1.46-.05-.49-.08-.98-.08-1.47s.03-.99.08-1.48c.05-.48.12-.97.22-1.45.09-.48.22-.96.36-1.43.14-.46.31-.93.489-1.38a15.844 15.844 0 0 1 1.381-2.59c.279-.41.569-.81.88-1.18.31-.38.64-.75.989-1.1.341-.34.711-.68 1.091-.99.38-.31.779-.6 1.189-.87.4-.27.83-.53 1.26-.76.431-.23.881-.44 1.33-.62.45-.19.91-.36 1.38-.5.471-.14.95-.26 1.421-.36.489-.1.97-.17 1.46-.22.979-.1 1.97-.1 2.948 0 .49.05.98.12 1.46.22.471.1.95.22 1.421.36.47.14.93.31 1.38.5.449.18.899.39 1.33.62.43.23.859.49 1.26.76.41.27.81.56 1.189.87a14.44 14.44 0 0 1 2.08 2.09c.311.37.61.77.88 1.18a15.481 15.481 0 0 1 1.381 2.59c.18.45.35.92.489 1.38.141.47.271.95.36 1.43.1.48.17.97.22 1.45.05.49.08.99.08 1.48s-.03.98-.08 1.47-.12.98-.22 1.46c-.09.48-.22.96-.36 1.42-.14.47-.31.93-.489 1.39-.19.45-.4.89-.631 1.32-.229.43-.479.86-.75 1.26-.27.41-.569.81-.88 1.19-.31.38-.64.75-.989 1.1-.341.34-.711.67-1.091.99-.38.3-.779.6-1.189.87-.4.27-.83.52-1.26.75-.431.23-.881.44-1.33.63-.45.19-.91.35-1.38.5-.471.14-.95.26-1.421.36-.479.09-.97.17-1.46.21-.489.05-.989.08-1.469.08z" data-original="#FF52A0" fill="#ff52a0"/><path d="M113.044 126.225c-.49 0-.99-.03-1.479-.08-.49-.04-.971-.12-1.46-.21-.471-.1-.95-.22-1.421-.36-.47-.15-.93-.31-1.38-.5-.449-.19-.899-.4-1.33-.63-.43-.23-.85-.48-1.26-.75a14.945 14.945 0 0 1-2.28-1.87c-.35-.34-.68-.71-.989-1.09-.311-.38-.601-.78-.88-1.19-.261-.4-.521-.83-.75-1.26-.23-.43-.44-.87-.62-1.32-.19-.46-.36-.92-.5-1.39-.141-.46-.261-.94-.36-1.42a14.56 14.56 0 0 1-.29-2.93c0-.49.021-.99.07-1.48.05-.48.12-.97.22-1.45s.22-.96.36-1.43c.14-.46.31-.93.5-1.38.18-.45.39-.9.62-1.33.229-.43.489-.85.75-1.26.279-.41.569-.8.88-1.18.31-.38.64-.75.989-1.1.351-.34.711-.68 1.091-.99s.779-.6 1.189-.87c.41-.27.83-.53 1.26-.76.431-.22.881-.44 1.33-.62.45-.19.91-.36 1.38-.5.471-.14.95-.26 1.421-.36.489-.09.97-.17 1.46-.22.979-.1 1.97-.1 2.948 0 .49.05.98.13 1.46.22.471.1.95.22 1.421.36.47.14.93.31 1.38.5.449.18.899.4 1.33.62.43.23.859.49 1.26.76.41.27.81.56 1.189.87.379.31.74.65 1.091.99.35.35.68.72.989 1.1.311.38.601.77.88 1.18a15.481 15.481 0 0 1 1.381 2.59c.18.45.35.92.489 1.38.141.47.271.95.36 1.43.1.48.17.97.22 1.45.05.49.08.99.08 1.48s-.03.98-.08 1.47-.12.98-.22 1.46c-.09.48-.22.96-.36 1.42-.14.47-.31.93-.489 1.39-.19.45-.4.89-.631 1.32-.229.43-.479.86-.75 1.26-.279.41-.569.81-.88 1.19-.31.38-.64.75-.989 1.09a14.74 14.74 0 0 1-3.54 2.62c-.431.23-.881.44-1.33.63-.45.19-.91.35-1.38.5-.471.14-.95.26-1.421.36-.479.09-.97.17-1.46.21-.49.05-.99.08-1.469.08z" data-original="#FFA81F" fill="#ffa81f"/><path d="M156.033 126.225c-.49 0-.99-.03-1.479-.07-.49-.05-.971-.13-1.46-.22-.471-.1-.95-.22-1.421-.36-.47-.15-.93-.31-1.38-.5-.449-.19-.899-.4-1.33-.63-.43-.23-.85-.48-1.26-.75-.41-.27-.81-.57-1.189-.88-.379-.31-.75-.64-1.091-.99-.35-.34-.68-.71-.989-1.09-.311-.38-.601-.78-.88-1.19a16.294 16.294 0 0 1-1.381-2.58c-.18-.46-.35-.92-.489-1.39-.141-.46-.271-.94-.36-1.42-.1-.48-.17-.97-.22-1.46-.05-.49-.08-.98-.08-1.47s.03-.99.08-1.48c.05-.48.12-.97.22-1.45.09-.48.22-.96.36-1.43.14-.46.31-.93.489-1.38a15.844 15.844 0 0 1 1.381-2.59c.279-.41.569-.8.88-1.18.31-.38.64-.75.989-1.1.341-.34.711-.68 1.091-.99.38-.31.779-.6 1.189-.87.41-.27.83-.53 1.26-.76.431-.23.881-.44 1.33-.62.45-.19.91-.36 1.38-.5.471-.14.95-.26 1.421-.36.489-.1.97-.17 1.46-.22.979-.1 1.97-.1 2.948 0 .49.05.98.12 1.46.22.471.1.95.22 1.421.36.47.14.93.31 1.38.5.449.18.899.39 1.33.62.43.23.859.49 1.26.76.41.27.81.56 1.189.87a14.44 14.44 0 0 1 2.08 2.09c.311.38.601.77.88 1.18a15.481 15.481 0 0 1 1.381 2.59c.18.45.35.92.489 1.38.15.47.271.95.36 1.43.1.48.17.97.22 1.45.05.49.08.99.08 1.48s-.03.98-.08 1.47-.12.98-.22 1.46c-.09.48-.21.96-.36 1.42-.14.47-.31.93-.489 1.39-.19.45-.4.89-.631 1.32-.229.43-.479.86-.75 1.26-.279.41-.569.81-.88 1.19-.31.38-.64.75-.989 1.09-.341.35-.711.68-1.091.99a14.597 14.597 0 0 1-2.449 1.63c-.431.23-.881.44-1.33.63-.45.19-.91.35-1.38.5-.471.14-.95.26-1.421.36-.479.09-.97.17-1.46.22-.489.04-.989.07-1.469.07zm283.009-.002H261.963c-8.282 0-14.996-6.714-14.996-14.996s6.714-14.996 14.996-14.996h177.079c8.282 0 14.996 6.714 14.996 14.996s-6.714 14.996-14.996 14.996z" data-original="#00E7F0" fill="#00e7f0"/><path d="M68.179 227.457c0-2.279.794-4.223 2.381-5.826 1.589-1.604 3.574-2.404 5.957-2.404 2.237 0 4.168.82 5.794 2.458 1.624 1.641 2.437 3.563 2.437 5.772s-.813 4.134-2.437 5.772c-1.626 1.641-3.556 2.458-5.794 2.458-2.31 0-4.277-.818-5.901-2.458-1.626-1.638-2.437-3.563-2.437-5.772zm23.728-16.996v-28.325c0-8.693 2.368-15.071 7.108-19.135 4.738-4.062 10.919-6.093 18.546-6.093 7.838 0 14.27 1.89 19.293 5.665 5.024 3.778 7.536 8.979 7.536 15.606 0 3.064-.642 5.149-1.925 6.253-1.283 1.106-3.42 1.657-6.413 1.657-5.345 0-8.124-1.674-8.338-5.023-.213-6.413-3.385-9.621-9.513-9.621-6.413 0-9.621 3.564-9.621 10.689v28.325c0 7.127 3.242 10.688 9.727 10.688 1.995 0 3.651-.32 4.971-.962 1.318-.642 2.261-1.62 2.832-2.939.57-1.317.944-2.404 1.123-3.26.177-.855.337-2.031.48-3.527.284-3.349 3.028-5.023 8.231-5.023 3.062 0 5.237.553 6.519 1.657 1.283 1.105 1.925 3.189 1.925 6.253 0 6.913-2.512 12.364-7.536 16.354-5.023 3.991-11.455 5.986-19.293 5.986-7.626 0-13.808-2.031-18.546-6.094-4.737-4.059-7.106-10.435-7.106-19.131zm60.072 0v-28.325c0-8.693 2.387-15.071 7.161-19.135 4.773-4.062 11.117-6.093 19.027-6.093 7.98 0 14.359 2.031 19.134 6.093 4.773 4.062 7.162 10.441 7.162 19.135v28.325c0 8.695-2.389 15.071-7.162 19.134-4.774 4.062-11.152 6.094-19.134 6.094-7.909 0-14.254-2.031-19.027-6.094-4.773-4.062-7.161-10.438-7.161-19.134zm16.675 0c0 7.127 3.17 10.688 9.514 10.688 6.413 0 9.62-3.562 9.62-10.688v-28.325c0-7.125-3.206-10.689-9.62-10.689-6.344 0-9.514 3.564-9.514 10.689v28.325zm46.498 19.454v-64.669c0-2.85.802-4.953 2.404-6.308 1.604-1.354 3.581-2.031 5.934-2.031 3.206 0 5.646.481 7.321 1.443 1.674.962 3.544 3.26 5.612 6.894l11.009 19.24 11.01-19.24c2.066-3.635 3.937-5.934 5.612-6.894 1.674-.962 4.115-1.443 7.321-1.443 2.352 0 4.329.678 5.934 2.031 1.604 1.354 2.404 3.457 2.404 6.308v64.669c0 1.641-.82 2.904-2.458 3.794-1.641.893-3.6 1.337-5.88 1.337s-4.24-.444-5.879-1.337c-1.641-.89-2.458-2.154-2.458-3.794V189.83l-10.262 17.53c-1.213 2.068-3.065 3.1-5.56 3.1-2.423 0-4.168-1.032-5.237-3.1l-10.155-18.6v41.153c0 1.641-.82 2.904-2.458 3.794-1.641.893-3.599 1.337-5.879 1.337-2.281 0-4.241-.444-5.88-1.337-1.638-.887-2.455-2.151-2.455-3.792zm27.697 88.3c0-2.279.794-4.223 2.381-5.826 1.589-1.604 3.574-2.404 5.957-2.404 2.237 0 4.168.82 5.794 2.458 1.624 1.641 2.437 3.563 2.437 5.772s-.813 4.134-2.437 5.772c-1.626 1.641-3.556 2.458-5.794 2.458-2.31 0-4.277-.818-5.901-2.458-1.626-1.638-2.437-3.562-2.437-5.772zm23.729-16.996v-28.325c0-8.693 2.387-15.071 7.161-19.135 4.773-4.062 11.117-6.093 19.027-6.093 7.98 0 14.359 2.031 19.134 6.093 4.773 4.062 7.162 10.441 7.162 19.135v28.325c0 8.695-2.389 15.072-7.162 19.134-4.774 4.062-11.152 6.094-19.134 6.094-7.909 0-14.254-2.031-19.027-6.094-4.774-4.062-7.161-10.439-7.161-19.134zm16.675 0c0 7.127 3.17 10.689 9.514 10.689 6.413 0 9.62-3.562 9.62-10.689v-28.325c0-7.125-3.206-10.689-9.62-10.689-6.344 0-9.514 3.564-9.514 10.689v28.325zm46.497 19.455v-67.982c0-1.354.481-2.528 1.443-3.527.962-.998 2.19-1.497 3.687-1.497h22.127c17.53 0 26.295 7.626 26.295 22.875 0 11.116-4.312 18.35-12.934 21.699l13.041 23.622c.355.5.534 1.142.534 1.925 0 2.068-1.122 4.026-3.366 5.879-2.245 1.854-4.615 2.779-7.108 2.779-2.495 0-4.275-1.032-5.345-3.1l-14.644-28.432h-7.055v25.761c0 1.641-.82 2.904-2.458 3.794-1.641.893-3.599 1.337-5.879 1.337-2.281 0-4.241-.444-5.88-1.337-1.64-.892-2.458-2.157-2.458-3.796zm16.674-38.588h10.582c3.135 0 5.521-.765 7.161-2.298 1.639-1.531 2.458-4.078 2.458-7.643 0-3.562-.82-6.109-2.458-7.643-1.641-1.531-4.026-2.298-7.161-2.298h-10.582v19.882zm44.894 19.133v-28.325c0-8.693 2.368-15.071 7.108-19.135 4.738-4.062 10.919-6.093 18.546-6.093 7.838 0 14.27 1.89 19.293 5.665 5.024 3.778 7.536 8.979 7.536 15.606 0 3.064-.642 5.149-1.925 6.253-1.283 1.106-3.42 1.657-6.414 1.657-5.488 0-8.268-1.674-8.338-5.023 0-.997-.036-1.834-.106-2.512-.072-.677-.286-1.514-.642-2.512-.357-.997-.855-1.78-1.497-2.351-.642-.57-1.587-1.086-2.832-1.551-1.248-.463-2.726-.695-4.436-.695-6.414 0-9.621 3.564-9.621 10.689v28.325c0 7.127 3.17 10.689 9.514 10.689 6.413 0 9.62-3.562 9.62-10.689v-3.634h-6.307c-1.568 0-2.797-.623-3.687-1.871-.893-1.246-1.337-2.761-1.337-4.543 0-1.639.463-3.116 1.391-4.437.925-1.317 2.138-1.978 3.634-1.978h17.958c1.567 0 2.796.518 3.687 1.551s1.337 2.262 1.337 3.687v11.223c0 8.695-2.389 15.072-7.162 19.134-4.774 4.062-11.152 6.094-19.134 6.094-7.909 0-14.254-2.031-19.027-6.094-4.772-4.058-7.159-10.435-7.159-19.13zM68.355 410.414c0-2.279.794-4.223 2.381-5.826 1.589-1.604 3.574-2.404 5.957-2.404 2.237 0 4.168.82 5.794 2.458 1.624 1.641 2.437 3.563 2.437 5.772s-.813 4.134-2.437 5.772c-1.626 1.641-3.556 2.458-5.794 2.458-2.31 0-4.277-.818-5.901-2.458-1.626-1.638-2.437-3.563-2.437-5.772zm23.728-16.996v-28.325c0-8.693 2.387-15.071 7.161-19.135 4.773-4.062 11.117-6.093 19.027-6.093 7.98 0 14.359 2.031 19.134 6.093 4.773 4.062 7.162 10.441 7.162 19.135v28.325c0 8.695-2.389 15.072-7.162 19.134-4.774 4.062-11.152 6.094-19.134 6.094-7.909 0-14.254-2.031-19.027-6.094-4.773-4.062-7.161-10.438-7.161-19.134zm16.676 0c0 7.127 3.17 10.689 9.514 10.689 6.413 0 9.62-3.562 9.62-10.689v-28.325c0-7.125-3.206-10.689-9.62-10.689-6.344 0-9.514 3.564-9.514 10.689v28.325zm46.497 19.454V344.89c0-1.354.481-2.528 1.443-3.527.962-.998 2.19-1.497 3.687-1.497h22.127c17.53 0 26.295 7.626 26.295 22.875 0 11.116-4.312 18.35-12.934 21.699l13.041 23.622c.355.5.534 1.142.534 1.925 0 2.068-1.122 4.026-3.366 5.879-2.245 1.854-4.615 2.779-7.108 2.779-2.495 0-4.275-1.032-5.345-3.1l-14.644-28.432h-7.055v25.761c0 1.641-.82 2.904-2.458 3.794-1.641.893-3.599 1.337-5.879 1.337-2.281 0-4.241-.444-5.88-1.337-1.641-.89-2.458-2.155-2.458-3.796zm16.674-38.587h10.583c3.135 0 5.521-.765 7.161-2.298 1.639-1.531 2.458-4.078 2.458-7.643 0-3.562-.82-6.109-2.458-7.643-1.641-1.531-4.026-2.298-7.161-2.298H171.93v19.882zm44.894 19.133v-28.325c0-8.693 2.368-15.071 7.108-19.135 4.738-4.062 10.919-6.093 18.546-6.093 7.838 0 14.27 1.89 19.293 5.665 5.024 3.778 7.536 8.979 7.536 15.606 0 3.064-.642 5.149-1.925 6.253-1.283 1.106-3.42 1.657-6.414 1.657-5.488 0-8.268-1.674-8.338-5.023 0-.997-.036-1.834-.106-2.512-.072-.677-.286-1.514-.642-2.512-.357-.997-.855-1.78-1.497-2.351-.642-.57-1.587-1.086-2.832-1.551-1.248-.463-2.726-.695-4.436-.695-6.413 0-9.621 3.564-9.621 10.689v28.325c0 7.127 3.17 10.689 9.514 10.689 6.413 0 9.62-3.562 9.62-10.689v-3.634h-6.307c-1.568 0-2.797-.623-3.687-1.871-.893-1.246-1.337-2.761-1.337-4.543 0-1.639.463-3.116 1.391-4.437.925-1.317 2.138-1.978 3.634-1.978h17.958c1.567 0 2.796.518 3.687 1.551s1.337 2.262 1.337 3.687v11.223c0 8.695-2.389 15.072-7.162 19.134-4.774 4.062-11.152 6.094-19.134 6.094-7.909 0-14.254-2.031-19.027-6.094-4.772-4.058-7.159-10.434-7.159-19.13z" data-original="#00A5FF" class="active-path" data-old_color="#ffffff" fill="#fff"/></svg>