<svg xmlns="http://www.w3.org/2000/svg" xmlns:xlink="http://www.w3.org/1999/xlink" width="399.999" height="399.376"><path fill="#174F82" d="M124.805 367.552h146.646v12.48H124.805z"/><path fill="#174F82" d="M189.08 313.885h12.48v59.906h-12.48z"/><defs><path id="a" d="M0 0h399.999v399.376H0z"/></defs><clipPath id="b"><use xlink:href="#a" overflow="visible"/></clipPath><path clip-path="url(#b)" fill="#FFF" d="M321.996 123.558c16.225-29.33-6.864-64.274-41.809-64.274-9.36 0-17.473 2.496-24.961 6.864-3.744-33.697-33.697-59.906-69.892-59.906-36.194 0-65.523 25.585-69.891 58.034-6.24-3.744-13.729-5.616-21.841-5.616-23.713 0-42.434 18.097-42.434 39.938 0 8.112 2.496 15.6 6.865 21.84C29.329 121.686 6.24 144.15 6.24 171.607c0 28.081 24.337 51.171 54.29 51.171h278.315c29.953 0 54.29-23.09 54.29-51.171.001-34.321-36.193-59.282-71.139-48.049"/><path clip-path="url(#b)" fill="#174F82" d="M338.846 229.018H60.53c-33.073 0-60.53-25.585-60.53-57.41 0-27.457 20.593-50.546 48.05-56.162-2.497-5.616-3.12-11.233-3.12-16.849 0-25.585 21.841-46.178 48.674-46.178 5.616 0 11.856 1.248 17.472 3.12C119.188 23.088 149.766 0 185.959 0s66.77 23.712 74.883 56.161c6.24-2.496 13.105-3.743 19.969-3.743 19.345 0 36.817 9.359 46.178 25.584 6.864 11.232 8.736 24.337 5.615 36.193 2.497 0 4.369-.624 6.865-.624 33.074 0 60.53 25.585 60.53 57.411-.623 32.451-27.456 58.036-61.153 58.036M93.604 64.899c-19.969 0-36.193 14.977-36.193 33.697 0 6.24 1.872 13.105 5.615 18.096 1.248 1.873 1.248 4.369.625 6.241-1.248 1.872-3.12 3.119-5.616 3.744-25.585 1.247-45.555 20.593-45.555 44.93 0 24.961 21.841 44.93 48.05 44.93h278.316c26.209 0 48.05-19.969 48.05-44.93s-21.218-44.93-48.05-44.93c-4.993 0-9.984.624-14.978 2.496-2.496.624-4.992 0-6.864-1.872s-1.872-4.992-.624-6.864c6.24-11.233 6.24-24.337-.624-35.57-7.488-12.48-20.594-19.968-35.569-19.968-7.488 0-14.978 1.872-21.841 5.616-1.872 1.247-3.744 1.247-6.24 0-1.872-1.248-3.119-2.496-3.119-4.993-3.744-30.577-31.202-53.666-64.275-53.666-31.825.624-59.282 23.089-63.026 53.666 0 1.872-1.248 3.744-3.12 4.993a8.658 8.658 0 0 1-5.616 0c-6.242-3.744-13.106-5.616-19.346-5.616"/><path clip-path="url(#b)" fill="#E8EDEF" d="M326.989 108.581c3.744-26.209-18.721-49.922-46.802-49.922-9.36 0-17.473 2.497-24.961 6.865-3.744-33.074-33.697-59.283-69.891-59.283-36.195 0-65.523 25.585-69.891 58.034-6.241-3.744-13.729-5.616-21.841-5.616-23.713 0-42.434 18.097-42.434 39.938 0 3.119.624 6.24 1.248 9.359"/><path clip-path="url(#b)" fill="#174F82" d="M52.418 114.821c-2.496 0-4.993-1.872-6.24-4.368-1.248-3.744-1.248-7.488-1.248-11.232 0-25.585 21.841-46.178 48.674-46.178 5.616 0 11.856 1.248 17.472 3.12C119.189 23.714 149.766.624 185.959.624s66.771 23.713 74.883 56.162c6.24-2.496 13.105-3.744 19.969-3.744 15.601 0 30.577 6.865 41.186 18.097 9.36 10.608 13.729 24.337 11.856 38.689-.624 3.12-3.744 5.617-6.864 5.617-3.12-.624-5.616-3.745-5.616-6.865 1.248-10.609-1.872-20.593-8.736-28.705-8.112-8.737-19.345-13.729-31.825-13.729-7.488 0-14.977 1.872-21.84 5.616-1.873 1.248-3.744 1.248-6.24 0-1.873-1.247-3.121-2.496-3.121-4.992-3.744-30.577-31.201-53.667-64.274-53.667-32.449-.624-59.905 21.841-63.65 52.418 0 1.872-1.248 3.744-3.12 4.993a8.658 8.658 0 0 1-5.616 0c-5.616-3.12-12.481-4.993-18.721-4.993-19.969 0-36.193 14.977-36.193 33.697 0 2.497.624 4.993 1.248 8.113.623 3.119-1.248 6.864-4.369 7.488l-2.498.002"/><path clip-path="url(#b)" fill="#2AA0DA" d="M311.388 154.135H84.867c-8.112 0-14.977 6.864-14.977 14.977v49.297c0 8.113 6.865 14.978 14.977 14.978h226.521c8.112 0 14.978-6.864 14.978-14.978v-49.297c-.001-8.113-6.866-14.977-14.978-14.977"/><path clip-path="url(#b)" fill="#174F82" d="M311.389 240.249H84.867c-11.856 0-21.217-9.359-21.217-21.217v-49.298c0-11.856 9.36-21.217 21.217-21.217h226.521c11.855 0 21.217 9.36 21.217 21.217v49.298c0 11.233-9.36 21.217-21.216 21.217M84.867 160.375c-4.993 0-8.736 3.744-8.736 8.736v49.298c0 4.993 3.743 8.736 8.736 8.736h226.521c4.992 0 8.736-3.743 8.736-8.736v-49.298c0-4.992-3.744-8.736-8.736-8.736H84.867z"/><path clip-path="url(#b)" fill="#FFF" d="M89.86 174.728h216.538v39.314H89.86z"/><path clip-path="url(#b)" fill="#2AA0DA" d="M311.388 234.009H84.867c-8.112 0-14.977 6.865-14.977 14.978v49.298c0 8.113 6.865 14.977 14.977 14.977h226.521c8.112 0 14.978-6.863 14.978-14.977v-49.298c-.001-8.113-6.866-14.978-14.978-14.978"/><path clip-path="url(#b)" fill="#174F82" d="M311.389 320.125H84.867c-11.856 0-21.217-9.36-21.217-21.218V249.61c0-11.857 9.36-21.218 21.217-21.218h226.521c11.855 0 21.217 9.36 21.217 21.218v49.297c0 11.234-9.36 21.218-21.216 21.218M84.867 240.249c-4.993 0-8.736 3.744-8.736 8.737v49.298c0 4.992 3.743 8.735 8.736 8.735h226.521c4.992 0 8.736-3.743 8.736-8.735v-49.298c0-4.993-3.744-8.737-8.736-8.737H84.867z"/><path clip-path="url(#b)" fill="#FFF" d="M89.86 253.979h216.538v39.313H89.86z"/><path clip-path="url(#b)" fill="#FFC10D" d="M111.076 265.835a8.113 8.113 0 1 1-.002 16.226 8.113 8.113 0 0 1 .002-16.226m0-79.875a8.113 8.113 0 1 1-.002 16.224 8.113 8.113 0 0 1 .002-16.224m32.449 79.875a8.113 8.113 0 1 1-.002 16.226 8.113 8.113 0 0 1 .002-16.226m0-79.875a8.113 8.113 0 1 1-.002 16.224 8.113 8.113 0 0 1 .002-16.224m32.45 79.875a8.113 8.113 0 1 1-.002 16.226 8.113 8.113 0 0 1 .002-16.226m0-79.875a8.113 8.113 0 1 1-.002 16.224 8.113 8.113 0 0 1 .002-16.224"/><path clip-path="url(#b)" fill="#FFF" d="M195.32 354.447c10.684 0 19.344 8.661 19.344 19.345s-8.66 19.344-19.344 19.344-19.344-8.66-19.344-19.344 8.66-19.345 19.344-19.345"/><path clip-path="url(#b)" fill="#174F82" d="M195.32 399.375c-14.353 0-25.584-11.854-25.584-25.584 0-13.728 11.856-25.584 25.584-25.584 13.729 0 25.583 11.856 25.583 25.584 0 13.73-11.231 25.584-25.583 25.584m0-39.312c-7.488 0-13.105 6.24-13.105 13.104 0 6.866 6.241 13.106 13.105 13.106 6.865 0 13.105-6.24 13.105-13.106 0-6.864-5.616-13.104-13.105-13.104m-55.539-288.3h12.481v12.481h-12.481zm38.066 0h12.481v12.481h-12.481zm38.689 0h12.48v12.481h-12.48z"/></svg>