<svg xmlns="http://www.w3.org/2000/svg" xmlns:xlink="http://www.w3.org/1999/xlink" width="396.91" height="400"><defs><path id="a" d="M0 0h396.91v400H0z"/></defs><clipPath id="b"><use xlink:href="#a" overflow="visible"/></clipPath><path clip-path="url(#b)" fill="#EFF3F4" d="M197.836 4.327c109.262 0 197.837 88.574 197.837 197.837C395.674 311.426 307.099 400 197.836 400S0 311.426 0 202.164C0 92.901 88.574 4.327 197.836 4.327"/><path clip-path="url(#b)" fill="#2AA0DA" d="M342.504 113.138c1.854-5.564 3.092-11.746 3.092-17.929 0-28.439-22.875-51.931-51.933-51.931-7.419 0-14.221 1.235-20.401 4.327-12.984-24.73-38.949-42.04-68.625-42.04-19.783 0-38.332 7.419-51.932 20.402-5.564-4.946-12.983-7.419-21.638-7.419-19.165 0-35.239 16.074-34.003 35.858-26.585 4.328-45.132 30.294-38.95 58.114-29.058 3.091-51.932 27.821-51.932 58.115 0 32.149 25.966 58.113 58.114 58.113h266.461c32.147 0 58.113-25.964 58.113-58.113 1.858-29.058-19.164-52.552-46.366-57.497"/><path clip-path="url(#b)" fill="#174F82" d="M331.994 234.93H65.534c-35.857 0-64.297-29.057-64.297-64.296 0-30.912 21.638-56.878 50.696-63.06-1.236-12.365 1.854-25.348 8.656-35.858C68.007 60.587 79.136 53.167 91.5 49.458c.618-9.273 4.327-17.929 11.128-24.729 7.418-8.038 18.547-12.365 29.057-12.365 7.419 0 14.838 1.854 21.021 6.182C167.542 6.8 186.091 0 205.256 0c29.674 0 56.259 15.455 71.097 40.185 6.183-2.473 11.746-3.091 17.929-3.091 32.148 0 58.114 25.966 58.114 58.114 0 4.328-.618 9.274-1.854 13.602 27.202 8.037 46.366 32.766 46.366 61.823.002 35.24-29.056 64.297-64.914 64.297M132.303 24.729c-7.418 0-14.838 3.091-20.402 8.656-5.564 5.564-8.037 12.983-7.418 21.02 0 3.091-1.855 6.183-4.947 6.183-11.128 1.854-21.638 8.655-27.82 17.929-6.183 9.891-8.656 21.02-6.183 32.767.619 1.854 0 3.709-1.236 4.945-1.236 1.237-2.473 2.474-4.328 2.474-26.584 3.09-46.368 25.347-46.368 51.932 0 29.057 23.493 51.931 51.932 51.931h266.461c29.058 0 51.932-23.492 51.932-51.931 0-25.348-17.929-46.987-43.276-51.314-1.854-.618-3.091-1.236-4.328-3.091-.617-1.854-1.235-3.709-.617-4.946 1.854-4.946 3.091-10.51 3.091-16.074 0-25.347-20.403-45.75-45.75-45.75-6.183 0-12.366 1.237-17.93 3.71-3.091 1.236-6.183 0-8.036-3.091-12.364-23.493-36.477-38.33-63.062-38.33-17.928 0-34.621 6.8-47.604 18.546-2.473 1.855-5.564 1.855-8.037 0-3.71-3.711-9.891-5.566-16.074-5.566"/><path clip-path="url(#b)" fill="#FFF" d="M69.861 223.184h257.806c23.492 0 44.512-19.164 42.04-44.513-1.855-20.402-17.93-36.476-37.713-39.567l-12.364-2.473 4.946-12.983c8.654-23.493-7.419-47.605-30.294-50.078-11.747-1.236-18.549 2.473-29.676 6.802l-4.946-9.893c-10.511-22.256-33.386-35.238-58.113-34.003-23.494 1.237-37.096 15.456-45.133 22.875-8.037-6.182-11.746-11.127-21.02-11.127-11.747 0-21.021 9.273-21.021 21.02l.619 11.128-10.51 1.855C87.789 84.7 76.043 98.918 76.043 116.229c0 5.564 1.235 9.273 3.709 20.402l-11.746 1.236c-21.639 2.473-40.186 20.402-40.805 43.895.002 22.875 19.785 41.422 42.66 41.422"/><path clip-path="url(#b)" fill="#174F82" d="M390.728 183.617h-85.937c-1.854 0-3.709-1.236-4.946-2.473l-19.782-29.058h-38.33c-3.71 0-6.185-2.473-6.185-6.182 0-3.71 2.475-6.183 6.185-6.183h41.421c1.854 0 3.71 1.236 4.945 2.473l19.783 29.058h82.846c3.709 0 6.183 2.473 6.183 6.182-.001 3.71-3.093 6.183-6.183 6.183m-297.374 0H7.419c-3.71 0-6.183-2.473-6.183-6.183 0-3.709 2.473-6.182 6.183-6.182h82.844l19.783-29.058c1.237-1.854 3.091-2.473 4.947-2.473h41.422c3.709 0 6.182 2.473 6.182 6.183 0 3.709-2.473 6.182-6.182 6.182h-38.332L98.3 181.144c-1.237 1.854-3.092 2.473-4.946 2.473"/><path clip-path="url(#b)" fill="#FFF" d="M238.64 132.303c7.513 0 13.602 6.089 13.602 13.601 0 7.512-6.089 13.601-13.602 13.601-7.512 0-13.602-6.089-13.602-13.601 0-7.512 6.09-13.601 13.602-13.601"/><path clip-path="url(#b)" fill="#174F82" d="M238.64 166.306c-11.129 0-19.783-9.273-19.783-19.783 0-11.128 9.272-19.784 19.783-19.784 11.128 0 19.783 9.274 19.783 19.784 0 10.509-8.653 19.783-19.783 19.783m0-27.821c-4.327 0-7.419 3.709-7.419 7.418 0 4.328 3.709 7.419 7.419 7.419 4.327 0 7.419-3.709 7.419-7.419.001-3.709-3.092-7.418-7.419-7.418"/><path clip-path="url(#b)" fill="#FFF" d="M156.414 132.303c7.512 0 13.601 6.089 13.601 13.601 0 7.512-6.089 13.601-13.601 13.601s-13.601-6.089-13.601-13.601c0-7.512 6.089-13.601 13.601-13.601"/><path clip-path="url(#b)" fill="#174F82" d="M156.414 166.306c-11.128 0-19.784-9.273-19.784-19.783 0-11.128 9.274-19.784 19.784-19.784 11.128 0 19.784 9.274 19.784 19.784 0 10.509-8.655 19.783-19.784 19.783m0-27.821c-4.328 0-7.418 3.709-7.418 7.418 0 4.328 3.709 7.419 7.418 7.419 4.328 0 7.418-3.709 7.418-7.419.001-3.709-3.09-7.418-7.418-7.418m42.659-50.077c-3.709 0-6.184-2.473-6.184-6.183V6.182c0-3.709 2.474-6.182 6.184-6.182 3.709 0 6.183 2.473 6.183 6.182v76.662c0 3.091-3.092 5.564-6.183 5.564"/><path clip-path="url(#b)" fill="#FFF" d="M199.073 74.807c7.512 0 13.601 6.089 13.601 13.601 0 7.512-6.089 13.601-13.601 13.601-7.513 0-13.602-6.089-13.602-13.601.001-7.512 6.09-13.601 13.602-13.601"/><path clip-path="url(#b)" fill="#174F82" d="M199.073 108.811c-11.128 0-19.785-9.274-19.785-19.784 0-11.128 9.274-19.783 19.785-19.783 11.128 0 19.782 9.273 19.782 19.783 0 10.509-8.654 19.784-19.782 19.784m0-27.822c-4.329 0-7.418 3.709-7.418 7.419 0 3.709 3.709 7.418 7.418 7.418 4.326 0 7.419-3.709 7.419-7.418 0-3.71-3.093-7.419-7.419-7.419"/><path clip-path="url(#b)" fill="#F05F50" d="M166.306 322.72v-63.06h-33.384v63.06h-18.548l34.622 43.277 35.24-43.277z"/><path clip-path="url(#b)" fill="#174F82" d="M148.996 372.18c-1.855 0-3.709-.619-4.946-2.474l-34.622-43.276c-1.236-1.854-1.854-4.328-.618-6.801 1.236-2.473 3.09-3.709 5.564-3.709h12.983v-56.879c0-3.709 2.473-6.182 6.183-6.182h33.384c3.709 0 6.183 2.473 6.183 6.182v56.879h11.746c2.473 0 4.328 1.236 5.564 3.709 1.236 1.855.618 4.946-.619 6.801l-34.62 43.276c-2.473 1.855-4.327 2.474-6.182 2.474m-21.639-43.278l21.638 27.202 21.638-27.202h-4.946c-3.709 0-6.183-2.473-6.183-6.183v-56.878h-21.02v56.878c0 3.71-2.473 6.183-6.182 6.183h-4.945z"/><path clip-path="url(#b)" fill="#FCBD5E" d="M231.84 302.937v63.06h32.767v-63.06h19.164L248.53 259.66l-34.62 43.277z"/><path clip-path="url(#b)" fill="#174F82" d="M264.607 372.18h-33.386c-3.709 0-6.182-2.474-6.182-6.183v-56.878h-11.747c-2.473 0-4.328-1.236-5.564-3.709-1.235-1.855-.617-4.947.618-6.802l34.622-43.276c2.474-3.09 7.419-3.09 9.893 0l34.003 42.041c1.235 1.235 1.854 3.09 1.854 4.945 0 3.709-3.091 6.184-6.181 6.184h-12.985v56.877c0 1.855-.618 3.092-1.854 4.328-.001 1.854-1.238 2.473-3.091 2.473m-26.585-12.366h21.021v-56.878c0-3.71 2.472-6.183 6.182-6.183h6.184l-21.64-27.202-21.639 27.202h4.948c3.709 0 6.181 2.473 6.181 6.183v56.878h-1.237zm108.192 12.366c-3.71 0-6.184-2.474-6.184-6.183v-30.294l-29.674-36.477c-.619-1.236-1.237-2.473-1.237-3.709v-66.77c0-3.709 2.474-6.183 6.184-6.183 3.709 0 6.182 2.474 6.182 6.183v64.297l29.675 36.477c.618 1.235 1.237 2.473 1.237 3.709v32.148c-.001 4.328-2.474 6.802-6.183 6.802"/><path clip-path="url(#b)" fill="#FFF" d="M346.214 365.997c7.512 0 13.602 6.089 13.602 13.601s-6.09 13.602-13.602 13.602c-7.513 0-13.602-6.09-13.602-13.602s6.089-13.601 13.602-13.601"/><path clip-path="url(#b)" fill="#174F82" d="M346.214 400c-11.129 0-19.783-9.273-19.783-19.783 0-11.129 9.272-19.783 19.783-19.783 11.128 0 19.782 9.272 19.782 19.783.619 10.51-8.654 19.783-19.782 19.783m0-27.82c-4.328 0-7.42 3.709-7.42 7.418s3.71 7.419 7.42 7.419c4.327 0 7.419-3.71 7.419-7.419s-3.092-7.418-7.419-7.418m-294.9 0c-3.709 0-6.182-2.474-6.182-6.183v-32.148c0-1.236.618-3.091 1.236-3.71l29.675-36.476v-64.915c0-3.709 2.473-6.183 6.183-6.183 3.709 0 6.182 2.474 6.182 6.183v66.77c0 1.236-.618 3.091-1.236 3.709l-29.675 36.477v30.294c0 3.708-2.474 6.182-6.183 6.182"/><path clip-path="url(#b)" fill="#FFF" d="M51.314 365.997c7.512 0 13.601 6.089 13.601 13.601S58.826 393.2 51.314 393.2c-7.511 0-13.601-6.09-13.601-13.602s6.09-13.601 13.601-13.601"/><path clip-path="url(#b)" fill="#174F82" d="M51.314 400c-11.128 0-19.783-9.273-19.783-19.783 0-11.129 9.273-19.783 19.783-19.783 10.51 0 19.784 9.272 19.784 19.783.618 10.51-8.656 19.783-19.784 19.783m0-27.82c-4.328 0-7.418 3.709-7.418 7.418s3.709 7.419 7.418 7.419c4.328 0 7.419-3.71 7.419-7.419s-3.091-7.418-7.419-7.418m56.877-179.909h12.365v12.365h-12.365zm34.003 0h12.365v12.365h-12.365zm34.004 0h12.365v12.365h-12.365zm33.385 0h12.364v12.365h-12.364zm34.002 0h12.365v12.365h-12.365zm33.385 0h12.365v12.365H276.97z"/></svg>