<svg xmlns="http://www.w3.org/2000/svg" xmlns:xlink="http://www.w3.org/1999/xlink" width="400" height="400"><defs><path id="a" d="M0 0h400v400H0z"/></defs><clipPath id="b"><use xlink:href="#a" overflow="visible"/></clipPath><path clip-path="url(#b)" fill="#FFC10D" d="M380 193.333H160c-5.606 0-10.387 3.466-12.354 8.374a13.197 13.197 0 0 0-.979 4.959v40c0 1.041.146 2.041.366 3.008.06.266.167.513.24.773.214.706.46 1.399.787 2.054.113.232.24.452.367.673.386.68.826 1.327 1.32 1.926.113.141.22.28.34.414a13.3 13.3 0 0 0 2.126 1.939c2.2 1.587 4.874 2.548 7.787 2.548h220c7.366 0 13.333-5.968 13.333-13.335v-40c0-7.367-5.967-13.333-13.333-13.333"/><path clip-path="url(#b)" fill="#174F82" d="M380 186.667H271.8c5.341-15.014 8.2-30.64 8.2-46.667C280 62.807 217.2 0 140 0S0 62.807 0 140s62.8 140 140 140v33.334c0 5.139 2.007 9.786 5.2 13.332-3.2 3.547-5.2 8.193-5.2 13.334v40c0 11.027 8.973 20 20 20h220c11.026 0 20-8.973 20-20v-40c0-5.141-2.007-9.787-5.2-13.334 3.2-3.546 5.2-8.193 5.2-13.332v-40c0-5.141-2.007-9.787-5.2-13.334 3.2-3.547 5.2-8.193 5.2-13.334v-40c0-11.026-8.974-19.999-20-19.999m6.667 19.999v40a6.674 6.674 0 0 1-6.667 6.668H160c-1.673 0-3.16-.674-4.333-1.701-.187-.16-.374-.313-.541-.492a6.635 6.635 0 0 1-1.166-1.728c-.066-.14-.106-.286-.16-.427-.273-.727-.466-1.5-.466-2.32v-40A6.672 6.672 0 0 1 160 200h220a6.673 6.673 0 0 1 6.667 6.666m0 66.668v40A6.673 6.673 0 0 1 380 320H160a6.672 6.672 0 0 1-6.666-6.666v-40c0-.041.02-.074.02-.113.066-3.614 3.04-6.555 6.646-6.555h220a6.674 6.674 0 0 1 6.667 6.668M140 17.227c7.22 9.333 20.9 28.746 31.586 53.96-10.199 2.853-20.786 4.5-31.586 4.5s-21.387-1.647-31.586-4.5C119.1 45.973 132.78 26.56 140 17.227M95.667 66.833c-13.6-5.56-26.127-13.6-36.874-23.92 18.5-15.5 41.474-25.787 66.68-28.68-8.226 11.18-20.193 29.594-29.806 52.6m58.86-52.6c25.206 2.893 48.18 13.18 66.68 28.68-10.747 10.32-23.274 18.36-36.873 23.92-9.614-23.006-21.581-41.42-29.807-52.6M140 89.027c12.46 0 24.707-1.814 36.433-5.22 5.327 15.146 9.187 31.893 9.987 49.533H93.573c.807-17.633 4.66-34.38 9.987-49.533 11.733 3.4 23.98 5.22 36.44 5.22m46.407 57.64c-.594 12.993-2.807 26.38-6.821 40H160c-6.626 0-12.467 3.273-16.113 8.253-13.34-.373-26.547 1.133-39.234 4.46-5.9-15.96-10.22-33.847-11.086-52.713h92.84zM140 208.334v38.332c0 1.147.126 2.273.32 3.395.027.166.04.34.074.506.066.327.186.627.266.947.147.58.307 1.16.5 1.72.113.327.207.653.333.974.113.273.254.526.374.793.186.4.4.793.613 1.18.247.453.473.906.753 1.334.114.18.227.359.347.533a225.34 225.34 0 0 1-3.58 4.74c-6.914-8.94-19.747-27.174-30.22-50.86 9.826-2.428 19.96-3.588 30.22-3.594m-14.527 57.433a126.136 126.136 0 0 1-66.146-28.193c11.186-9.399 23.84-16.727 37.433-21.693 9.407 21.765 20.8 39.139 28.713 49.886m67.847-79.1c3.713-13.574 5.853-26.954 6.4-40h66.639c-.719 13.733-3.52 27.16-8.626 40H193.32zm73.006-53.334h-66.613c-.8-19.36-4.879-37.566-10.593-53.933a130.496 130.496 0 0 0 41.86-27.327c20.593 21.307 33.7 49.774 35.346 81.26M49.02 52.08a130.73 130.73 0 0 0 41.86 27.327c-5.713 16.36-9.794 34.573-10.593 53.933H13.673c1.647-31.493 14.754-59.96 35.347-81.26m-35.347 94.587h66.614c.846 20.473 5.333 39.7 11.553 56.772A138.08 138.08 0 0 0 49.447 228.4c-20.847-21.353-34.113-50.02-35.774-81.733M386.667 380a6.673 6.673 0 0 1-6.667 6.666H160a6.672 6.672 0 0 1-6.666-6.666v-40a6.672 6.672 0 0 1 6.666-6.666h220a6.673 6.673 0 0 1 6.667 6.666v40z"/><path clip-path="url(#b)" fill="#174F82" d="M360 220h13.333v13.334H360zm-193.333 0H280v13.334H166.667zM360 286.666h13.333V300H360zm-193.333 0H280V300H166.667zM360 353.334h13.333v13.332H360zm-193.333 0H280v13.332H166.667zM280 80h13.334v13.333H280zm26.667 0H320v13.333h-13.333zm26.666 0h13.334v13.333h-13.334zM360 80h13.333v13.333H360zm0 26.667h13.333V120H360zm0 26.666h13.333v13.333H360zM360 160h13.333v13.333H360zM113.333 353.334h13.333v13.332h-13.333zm-26.666 0H100v13.332H86.667zm-26.667 0h13.333v13.332H60zm0-26.668h13.333V340H60zM60 300h13.333v13.334H60zm0-26.666h13.333v13.332H60z"/></svg>