<svg xmlns="http://www.w3.org/2000/svg" xmlns:xlink="http://www.w3.org/1999/xlink" width="400.001" height="400"><defs><path id="a" d="M0 0h400.001v400H0z"/></defs><clipPath id="b"><use xlink:href="#a" overflow="visible"/></clipPath><path clip-path="url(#b)" d="M200.001 112.385c6.126 0 11.132-4.94 11.132-11.133V91.107c0-6.126-4.939-11.133-11.132-11.133s-11.133 4.94-11.133 11.133v10.145c-.001 6.192 5.007 11.133 11.133 11.133"/><path clip-path="url(#b)" fill="#FFF" d="M131.752 69.961c0 6.126-4.94 11.133-11.133 11.133H33.333c-6.126 0-11.133 4.94-11.133 11.133v225.757c0 6.126 4.94 11.133 11.133 11.133h333.333c6.126 0 11.133-4.941 11.133-11.133V92.16c0-6.126-4.94-11.133-11.133-11.133h-91.238c-6.126 0-11.134-4.94-11.134-11.132H131.752v.066z"/><path clip-path="url(#b)" fill="#FFC10D" d="M355.534 103.228v203.558H44.401v-15.02h9.552a11.05 11.05 0 0 0 11.068-11.067c0-6.128-4.941-11.133-11.068-11.133h-9.552v-19.632h32.147c6.126 0 11.132-4.94 11.132-11.133 0-6.126-4.939-11.133-11.132-11.133H44.401V103.162h102.964v34.65l-38.802 22.464a11.045 11.045 0 0 0-5.599 9.618v77.932a11.04 11.04 0 0 0 5.599 9.617c1.713.988 6.456 2.898 11.133 0l41.832-24.111h1.976l26.745 49.539c1.976 3.624 5.666 5.798 9.75 5.798 4.085 0 7.773-2.24 9.751-5.798l26.744-49.539h1.978l41.831 24.111c4.546 2.834 9.354.988 11.133 0a11.046 11.046 0 0 0 5.6-9.617v-77.865c0-4.018-2.109-7.642-5.6-9.618l-38.802-22.463v-34.651l102.9-.001"/><path clip-path="url(#b)" fill="#FFF" d="M252.57 215.811l22.134 12.845v-52.371L252.57 163.57zM147.431 163.57l-22.134 12.714v52.372l22.134-12.845zm52.57 90.711l11.33-20.883h-22.663z"/><path clip-path="url(#b)" fill="#194F82" d="M291.437 160.343l-38.802-22.463v-52.9c0-1.91-.461-3.755-1.449-5.402L209.684 5.667A11.13 11.13 0 0 0 200.001 0a11.133 11.133 0 0 0-9.685 5.666l-41.502 73.912c-.922 1.647-1.449 3.557-1.449 5.402v52.899l-38.801 22.463a11.045 11.045 0 0 0-5.599 9.618v77.931c0 3.952 2.108 7.642 5.599 9.619 1.713 1.052 6.456 2.896 11.133 0l41.831-24.112h1.976l26.745 49.538c1.976 3.624 5.666 5.798 9.75 5.798s7.773-2.174 9.751-5.798l26.743-49.538h1.977l41.83 24.112c4.547 2.832 9.355 1.052 11.133 0a11.047 11.047 0 0 0 5.6-9.619V169.96c.003-4.018-2.171-7.641-5.596-9.617m-16.733 68.313l-22.2-12.846v-52.305l22.2 12.846v52.305zm-44.401-17.457h-60.737V87.878l30.369-54.084 30.302 54.15v123.255h.066zm-105.007-34.915l22.201-12.845v52.305l-22.201 12.846v-52.306zm74.705 77.997l-11.332-20.883h22.596l-11.264 20.883z"/><path clip-path="url(#b)" fill="#194F82" d="M366.667 58.761h-91.238c-6.126 0-11.133 4.941-11.133 11.133 0 6.127 4.94 11.199 11.133 11.199h91.238c6.126 0 11.133 4.941 11.133 11.133v225.758c0 6.126-4.94 11.133-11.133 11.133H33.333c-6.127 0-11.134-4.941-11.134-11.133V92.16c0-6.126 4.941-11.133 11.134-11.133h87.351c6.126 0 11.133-4.94 11.133-11.133 0-6.126-4.94-11.133-11.133-11.133H33.333C14.954 58.695 0 73.65 0 92.095v225.757c0 18.379 14.954 33.333 33.334 33.333h80.896l-21.41 31.357c-2.371 3.359-2.569 7.773-.658 11.528a11.088 11.088 0 0 0 9.815 5.929h196.246c6.126 0 11.132-4.941 11.132-11.133 0-2.833-1.119-5.402-2.832-7.378l-20.619-30.237h80.765c18.379 0 33.333-14.954 33.333-33.333V92.16c-.002-18.446-14.955-33.399-33.335-33.399M122.991 377.734l18.116-26.482h117.722l18.115 26.482H122.991z"/><path clip-path="url(#b)" fill="#194F82" d="M200.001 112.385c-6.126 0-11.133-4.94-11.133-11.133V91.107c0-6.126 4.941-11.133 11.133-11.133 6.126 0 11.132 4.94 11.132 11.133v10.145c0 6.192-5.006 11.133-11.132 11.133"/></svg>