<svg xmlns="http://www.w3.org/2000/svg" xmlns:xlink="http://www.w3.org/1999/xlink" width="400" height="400"><defs><path id="a" d="M0 0h400v400H0z"/></defs><clipPath id="b"><use xlink:href="#a" overflow="visible"/></clipPath><path clip-path="url(#b)" fill="#2AA0DA" d="M180 66.667c0 25.793 41.746 46.667 93.334 46.667v-6.667c0-40.5-32.834-73.333-73.334-73.333s-73.333 32.833-73.333 73.333c29.479 0 53.333-17.894 53.333-40M80 300c0-14.727 11.94-26.666 26.667-26.666H200l-33.333-66.668H140c-51.547 0-93.333 41.787-93.333 93.334v93.334H80V300zm146.666-26.666h66.668C308.06 273.334 320 285.273 320 300v93.334h33.333V300c0-51.547-41.786-93.334-93.333-93.334h-26.666L200 273.334h26.666z"/><path clip-path="url(#b)" fill="#174F82" d="M173.333 140a6.674 6.674 0 0 1 6.667 6.667h13.333c0-11.027-8.974-20-20-20-11.027 0-20 8.973-20 20h13.333a6.674 6.674 0 0 1 6.667-6.667m53.333 0a6.674 6.674 0 0 1 6.668 6.667h13.332c0-11.027-8.973-20-20-20-11.025 0-20 8.973-20 20H220a6.673 6.673 0 0 1 6.666-6.667"/><path clip-path="url(#b)" fill="#FFC10D" d="M200 306.666c-14.707 0-26.667 11.961-26.667 26.668C173.333 348.04 185.293 360 200 360s26.666-11.96 26.666-26.666c0-14.707-11.959-26.668-26.666-26.668m0 40c-7.354 0-13.333-5.979-13.333-13.332 0-7.354 5.979-13.334 13.333-13.334s13.334 5.98 13.334 13.334c0 7.353-5.98 13.332-13.334 13.332"/><path clip-path="url(#b)" fill="#174F82" d="M360 300c0-55.141-44.86-100-100-100h-7.26a80.372 80.372 0 0 0 6.72-6.667h7.206C285.047 193.333 300 178.38 300 160v-11.747c8.033-5.386 13.333-14.546 13.333-24.92 0-10.413-5.34-19.586-13.413-24.966C299.033 43.987 254.594 0 200 0c-54.593 0-99.033 43.987-99.92 98.367-8.073 5.38-13.413 14.553-13.413 24.966 0 16.541 13.459 30 30 30h4.54c3.12 18.474 12.56 34.787 26.06 46.667H140c-55.14 0-100 44.859-100 100v86.666H0V400h400v-13.334h-40V300zm-160-80c7.133 0 14.02-1.027 20.606-2.787L200 258.427l-20.606-41.214C185.98 218.973 192.867 220 200 220m49.213-6.666l-26.666 53.332h-11.76l26.666-53.332h11.76zM286.666 160c0 10.113-7.572 18.407-17.326 19.727a79.285 79.285 0 0 0 9.453-26.394h4.541c1.139 0 2.227-.213 3.332-.34V160zm-3.332-20H280v-33.334h3.334c9.193 0 16.666 7.48 16.666 16.667S292.527 140 283.334 140M200 13.333c45.641 0 83.066 35.487 86.347 80.307-1.007-.107-1.979-.307-3.013-.307h-4.541C272.42 55.56 239.561 26.666 200 26.666c-39.56 0-72.42 28.894-78.793 66.667h-4.54c-1.034 0-2.007.2-3.014.307 3.28-44.82 40.707-80.307 86.347-80.307m66.66 93.167c-48.113-1.693-79.993-21.367-79.993-39.834 0-3.679-2.98-6.666-6.667-6.666s-6.666 2.987-6.666 6.666c0 16.661-17.228 30.467-39.614 32.914C137.273 66.14 165.64 40 200 40c36.7 0 66.566 29.82 66.66 66.5M116.667 140c-9.194 0-16.667-7.48-16.667-16.667s7.473-16.667 16.667-16.667H120V140h-3.333zm16.667 0v-27.04c20.819-1.807 38.486-11.847 47.306-25.907 13.946 18.48 46.54 31.487 86.026 32.814V140c0 15.02-5.053 28.84-13.459 40H200v13.333h39.826a66.327 66.327 0 0 1-67.313 7.333c-23.066-10.493-39.179-33.706-39.179-60.666m55.879 126.666h-11.76l-26.666-53.332h11.76l26.666 53.332zM53.334 300c0-46.434 36.733-84.34 82.646-86.46l26.567 53.126h-55.88c-18.38 0-33.333 14.954-33.333 33.334v86.666h-20V300zm33.333 86.666V300c0-11.027 8.973-20 20-20h186.667c11.025 0 19.999 8.973 19.999 20v86.666H86.667zm240 0V300c0-18.38-14.954-33.334-33.333-33.334h-55.881l26.566-53.126c45.914 2.12 82.647 40.026 82.647 86.46v86.666h-19.999z"/><path clip-path="url(#b)" fill="#FFC10D" d="M286.666 326.666H300v46.668h-13.334zm0-26.666H300v13.334h-13.334z"/><path clip-path="url(#b)" fill="#174F82" d="M346.667 60H360v13.333h-13.333zm0 26.667H360V100h-13.333zm0 26.666H360v13.333h-13.333zM40 140h13.333v13.333H40zm0 26.667h13.333V180H40zm0 26.666h13.333v13.333H40z"/></svg>