<svg xmlns="http://www.w3.org/2000/svg" viewBox="0 0 496 496" width="512" height="512"><path data-original="#92E0C0" data-old_color="#18b35c" fill="#18b35c" d="M392 360h88l-48 64 48 64H312V360zm-288 0H16l48 64-48 64h168V360z"/><path data-original="#FCD770" data-old_color="#18b35c" fill="#18b35c" d="M312 488l80-64v-8h-80zm-128 0l-80-64v-8h80z"/><path data-original="#92E0C0" data-old_color="#18b35c" fill="#18b35c" d="M104 296h288v128H104z"/><path d="M384 144c0-10-4.688-18.824-11.872-24.688 4.392-8.176 5.352-18.112 1.52-27.352s-11.528-15.6-20.416-18.264c.936-9.232-1.992-18.784-9.064-25.856s-16.624-10-25.856-9.064c-2.672-8.888-9.024-16.592-18.264-20.416s-19.184-2.872-27.352 1.52C266.824 12.688 258 8 248 8s-18.824 4.688-24.688 11.872c-8.168-4.392-18.112-5.352-27.352-1.52s-15.6 11.528-18.264 20.416c-9.232-.936-18.784 1.992-25.856 9.064s-10 16.624-9.064 25.856c-8.888 2.672-16.592 9.024-20.416 18.264-3.832 9.24-2.872 19.184 1.52 27.352C116.688 125.176 112 134 112 144s4.688 18.824 11.872 24.688c-4.392 8.168-5.352 18.112-1.52 27.352 3.832 9.24 11.528 15.6 20.416 18.264-.936 9.232 1.992 18.784 9.064 25.856s16.624 10 25.856 9.064c2.672 8.888 9.024 16.592 18.264 20.416s19.184 2.872 27.352-1.52C229.176 275.312 238 280 248 280s18.824-4.688 24.688-11.872c8.176 4.392 18.112 5.352 27.352 1.52s15.6-11.528 18.264-20.416c9.232.936 18.784-1.992 25.856-9.064s10-16.624 9.064-25.856c8.888-2.672 16.592-9.024 20.416-18.264 3.832-9.24 2.872-19.184-1.52-27.352C379.312 162.824 384 154 384 144z" data-original="#FB5968" class="active-path" data-old_color="#115baa" fill="#115baa"/><circle cx="248" cy="144" r="104" data-original="#ECECEC" fill="#ececec"/><path d="M248 232c-54.736 0-99.496-42.312-103.592-96-.208 2.648-.408 5.296-.408 8 0 57.44 46.56 104 104 104s104-46.56 104-104c0-2.704-.2-5.352-.408-8-4.096 53.688-48.856 96-103.592 96z" data-original="#B6C1CE" fill="#b6c1ce"/><path d="M360 144c0-61.76-50.24-112-112-112S136 82.24 136 144s50.24 112 112 112 112-50.24 112-112zm-112 96c-52.936 0-96-43.064-96-96s43.064-96 96-96 96 43.064 96 96-43.064 96-96 96z" data-original="#000000" data-old_color="#18B35C"/><path data-original="#000000" data-old_color="#18B35C" d="M301.662 98.105l-96 96.001-11.314-11.314 96-96zM152 320h-24v80h24c13.232 0 24-10.768 24-24 0-6.168-2.408-11.744-6.24-16 3.84-4.256 6.24-9.832 6.24-16 0-13.232-10.768-24-24-24zm-8 16h8c4.408 0 8 3.584 8 8s-3.592 8-8 8h-8v-16zm8 48h-8v-16h8c4.408 0 8 3.584 8 8s-3.592 8-8 8zm40 16h40v-16h-24v-16h16v-16h-16v-16h24v-16h-40zm80-64c4.408 0 8 3.584 8 8h16c0-13.232-10.768-24-24-24s-24 10.768-24 24 10.768 24 24 24c4.408 0 8 3.584 8 8s-3.592 8-8 8-8-3.584-8-8h-16c0 13.232 10.768 24 24 24s24-10.768 24-24-10.768-24-24-24c-4.408 0-8-3.584-8-8s3.592-8 8-8zm96-16h-64v16h24v64h16v-64h24z"/><path d="M496 352h-96v-64H96v64H0l54 72-54 72h192v-64h112v64h192l-54-72 54-72zM74 424l-42-56h64v59.84L161.192 480H32l42-56zm102 47.352L126.808 432H176v39.352zM112 416V304h272v112H112zm257.192 16L320 471.352V432h49.192zM464 480H334.808L400 427.84V368h64l-42 56 42 56zM280 148.48c-13.232 0-24 10.768-24 24s10.768 24 24 24 24-10.768 24-24-10.768-24-24-24zm0 32c-4.408 0-8-3.584-8-8s3.592-8 8-8 8 3.584 8 8-3.592 8-8 8zm-64-48c13.232 0 24-10.768 24-24s-10.768-24-24-24-24 10.768-24 24 10.768 24 24 24zm0-32c4.408 0 8 3.584 8 8s-3.592 8-8 8-8-3.584-8-8 3.592-8 8-8z" data-original="#000000" data-old_color="#18B35C"/><path d="M303.112 277.04c9.128-3.784 16.4-10.8 20.624-19.696 9.84-.496 19.104-4.528 26.088-11.52 6.984-6.984 11.024-16.248 11.52-26.088 8.896-4.216 15.912-11.504 19.688-20.624 3.784-9.136 3.968-19.24.664-28.512C388.304 163.288 392 153.872 392 144s-3.696-19.288-10.296-26.592c3.304-9.272 3.12-19.384-.664-28.512-3.776-9.128-10.792-16.408-19.688-20.624-.496-9.832-4.536-19.104-11.52-26.088-6.992-6.992-16.256-11.032-26.096-11.52-4.224-8.896-11.504-15.912-20.624-19.696-9.136-3.8-19.24-3.976-28.512-.664C267.288 3.696 257.88 0 248 0s-19.288 3.696-26.592 10.296c-9.288-3.312-19.384-3.136-28.512.664-9.128 3.784-16.4 10.8-20.624 19.696-9.84.496-19.104 4.528-26.088 11.52-6.984 6.984-11.024 16.248-11.52 26.088-8.896 4.216-15.912 11.504-19.688 20.624-3.784 9.136-3.968 19.24-.664 28.512C107.696 124.712 104 134.128 104 144s3.696 19.288 10.296 26.592c-3.304 9.272-3.12 19.384.664 28.512 3.776 9.128 10.792 16.408 19.688 20.624.496 9.832 4.536 19.104 11.52 26.088 6.992 6.992 16.256 11.032 26.096 11.52 4.224 8.896 11.504 15.912 20.624 19.696 9.128 3.784 19.232 3.968 28.512.664C228.712 284.304 238.12 288 248 288s19.288-3.696 26.592-10.296c9.28 3.304 19.384 3.12 28.52-.664zm-36.616-13.976C261.856 268.744 255.12 272 248 272s-13.856-3.256-18.496-8.936l-4.176-5.112-5.816 3.128c-6.448 3.48-13.928 3.904-20.496 1.176-6.576-2.728-11.56-8.312-13.664-15.336l-1.896-6.32-6.568.664c-7.28.72-14.352-1.728-19.392-6.76-5.032-5.032-7.496-12.104-6.76-19.392l.664-6.56-6.32-1.904c-7.016-2.112-12.608-7.088-15.336-13.664s-2.296-14.056 1.176-20.504l3.136-5.816-5.12-4.168C123.256 157.856 120 151.12 120 144s3.256-13.856 8.936-18.496l5.12-4.168-3.136-5.816c-3.472-6.456-3.904-13.928-1.176-20.504 2.72-6.576 8.312-11.552 15.336-13.664l6.32-1.904-.664-6.56c-.736-7.288 1.728-14.36 6.76-19.392s12.104-7.48 19.384-6.76l6.568.664 1.896-6.32c2.112-7.024 7.096-12.608 13.664-15.336 6.568-2.736 14.048-2.304 20.496 1.176l5.816 3.128 4.176-5.112C234.144 19.256 240.88 16 248 16s13.856 3.256 18.496 8.936l4.176 5.112 5.816-3.128c6.448-3.48 13.928-3.904 20.496-1.176s11.56 8.312 13.664 15.336l1.896 6.32 6.568-.664c7.264-.72 14.352 1.728 19.392 6.76 5.032 5.032 7.496 12.104 6.76 19.392l-.664 6.56 6.32 1.904c7.016 2.112 12.608 7.088 15.336 13.664 2.728 6.576 2.296 14.056-1.176 20.504l-3.136 5.816 5.12 4.168C372.744 130.144 376 136.88 376 144s-3.256 13.856-8.936 18.496l-5.12 4.168 3.136 5.816c3.472 6.456 3.904 13.928 1.176 20.504-2.72 6.576-8.312 11.552-15.336 13.664l-6.32 1.904.664 6.56c.736 7.288-1.728 14.36-6.76 19.392s-12.12 7.48-19.384 6.76l-6.568-.664-1.896 6.32c-2.112 7.024-7.096 12.608-13.664 15.336-6.576 2.728-14.056 2.288-20.496-1.176l-5.816-3.128-4.184 5.112z" data-original="#000000" data-old_color="#18B35C"/></svg>