<svg xmlns="http://www.w3.org/2000/svg" xmlns:xlink="http://www.w3.org/1999/xlink" width="398.129" height="400"><defs><path id="a" d="M0 0h398.129v400H0z"/></defs><clipPath id="b"><use xlink:href="#a" overflow="visible"/></clipPath><path clip-path="url(#b)" fill="#E0E4E8" d="M199.064 0c69.961 0 126.677 56.715 126.677 126.677s-56.716 126.677-126.677 126.677c-69.962 0-126.677-56.714-126.677-126.677C72.387 56.715 129.102 0 199.064 0"/><path clip-path="url(#b)" fill="#FFF" d="M367.551 134.79c-6.24 1.248-10.608 7.488-9.984 13.729l4.992 78.626-32.449 54.914c-12.48 3.12-18.721-5.615-16.849-13.727l9.984-34.322c2.496-4.992 2.496-11.232-1.248-14.977-5.616-6.24-15.6-5.617-19.968 1.247l-32.449 63.651 9.359 82.994 66.771-1.871-1.872-21.217 48.05-91.108-9.36-106.085c-.624-7.486-7.488-13.103-14.977-11.854"/><path clip-path="url(#b)" fill="#174F82" d="M279.564 373.167c-3.121 0-5.617-2.497-6.241-5.616l-9.36-82.995c0-1.248 0-2.497.625-3.744l32.449-63.651s0-.624.624-.624c6.864-10.608 21.841-11.856 29.953-2.496 4.992 5.616 6.24 14.353 2.496 21.841l-9.984 33.697c-.624 1.248 0 3.119.624 3.744 1.248 1.871 3.12 2.496 6.24 1.871l29.953-51.17-4.992-76.755c-.624-9.36 6.24-18.721 14.977-20.593 11.232-1.872 21.218 5.616 21.841 16.849l9.36 106.084c0 1.248 0 2.496-.623 3.744l-46.804 89.859 1.248 19.345c0 1.872-.624 3.12-1.872 4.368-1.247 1.248-2.496 1.872-4.368 1.872l-66.146 4.37c.624 0 0 0 0 0m-3.121-87.364l8.736 74.883 54.29-1.871-1.248-14.977c0-1.248 0-2.497.625-3.121l46.802-89.234-9.361-104.837c-.624-3.744-3.744-6.24-7.488-5.616-2.496.625-4.992 4.369-4.992 7.488l4.992 78.627c0 1.248 0 2.496-.624 3.744l-32.449 54.914c-.624 1.248-2.496 2.496-3.744 3.12-8.736 2.497-16.849 0-21.217-6.24-3.12-4.368-4.368-9.984-2.496-14.978l9.984-34.32c0-.625 0-.625.624-1.248 1.248-2.496 1.248-6.24-.624-8.112-2.496-3.12-8.112-2.496-9.984.624l-31.826 61.154z"/><path clip-path="url(#b)" fill="#FFF" d="M352.574 364.43l-82.994 3.121v25.584h82.994z"/><path clip-path="url(#b)" fill="#174F82" d="M269.58 399.376c-1.873 0-3.121-.625-4.369-1.872-1.248-1.248-1.871-2.496-1.871-4.369v-25.584c0-3.119 2.496-6.24 6.24-6.24l82.994-2.496c1.872 0 3.12.624 4.369 1.871 1.247 1.248 1.872 2.497 1.872 4.369v28.705c0 3.744-2.497 6.24-6.241 6.24l-82.994-.624zm6.238-26.209v13.728h70.516v-15.6l-70.516 1.872z"/><path clip-path="url(#b)" fill="#FFF" d="M30.577 134.79c6.241 1.248 10.609 7.488 9.984 13.729l-4.991 78.626 32.449 54.914c12.481 3.12 18.721-5.615 16.849-13.727l-9.984-34.322c-2.496-4.992-2.496-11.232 1.247-14.977 5.616-6.24 15.601-5.617 19.969 1.247l32.449 63.651-9.36 82.994-66.77-1.871 1.872-21.217L6.24 252.729l9.36-106.084c.624-7.487 7.489-13.104 14.977-11.855"/><path clip-path="url(#b)" fill="#174F82" d="M118.565 373.168s-.624 0 0 0l-66.771-1.873c-1.872 0-3.119-.625-4.368-1.872-1.247-1.248-1.872-3.12-1.247-4.993l1.247-19.344L.624 255.227C0 253.979 0 252.729 0 251.482l9.36-106.085c1.248-10.608 11.232-18.721 21.841-16.849 9.36 1.872 15.6 10.609 14.977 20.593l-4.369 76.755 29.953 51.17c2.497 0 4.993-.624 6.241-1.871.624-1.248 1.247-2.497.624-3.744l-9.985-33.697c-3.744-8.113-3.119-16.85 2.497-22.465 8.112-9.36 23.089-8.113 29.953 2.496 0 0 0 .624.624.624l31.825 63.026c.624 1.248.624 2.496.624 3.744l-9.36 82.994c-.624 3.122-3.12 4.995-6.24 4.995m-59.906-14.354l54.29 1.871 8.736-74.883-31.201-61.154c-2.496-3.119-7.488-3.744-9.984-.624-1.872 1.872-1.872 4.993-.625 8.112 0 .624.625.624.625 1.248l9.984 34.32c1.248 4.993.624 10.609-2.496 14.978-4.369 6.24-12.481 8.737-21.218 6.24-1.872-.624-3.119-1.247-3.743-3.12l-32.45-54.914c-.624-1.248-.624-2.496-.624-3.744l4.993-78.626c0-3.12-2.497-6.865-4.993-7.488-4.368-.625-7.488 1.871-8.112 5.616L12.48 251.482l46.803 89.234c.624 1.248.624 2.497.624 3.121l-1.248 14.977z"/><path clip-path="url(#b)" fill="#FFC10D" d="M361.935 309.516l29.953-57.41-9.36-106.084c-.624-7.488-7.487-12.481-14.977-11.232-6.24 1.248-10.608 7.488-9.984 13.728l4.992 78.627-32.449 54.914c-12.48 3.12-18.721-5.615-16.849-13.728l9.984-34.321c2.496-4.992 2.496-11.232-1.249-14.977-5.615-6.24-15.599-5.617-19.967 1.247l-32.448 63.651 3.118 25.584"/><path clip-path="url(#b)" fill="#174F82" d="M361.935 315.756c-1.248 0-1.872 0-3.119-.624-3.12-1.872-4.369-5.616-2.497-8.112l29.33-55.539-9.361-104.834c-.623-3.744-3.744-6.24-7.488-5.616-2.496.624-4.992 4.369-4.992 7.488l4.992 78.626c0 1.248 0 2.496-.624 3.744l-32.449 54.914c-.624 1.248-2.496 2.496-3.744 3.12-8.112 1.872-15.6.624-19.969-4.368-4.368-4.368-5.615-10.608-3.743-16.85l9.983-34.32c0-.625 0-.625.625-1.248 1.247-2.496 1.247-6.24-.625-8.111-2.496-3.121-7.487-3.121-9.983.623l-31.202 61.154 2.497 23.713c.623 3.12-1.873 6.24-5.617 6.865-3.119.624-6.24-1.873-6.864-5.616l-3.12-25.585c0-1.248 0-2.496.625-3.744l32.449-63.65s0-.625.624-.625c6.864-10.607 21.841-11.855 29.953-2.496 4.992 5.616 6.24 14.354 2.496 21.841l-9.984 33.697c-.624 1.247 0 3.12 1.248 4.368 1.247 1.248 3.12 1.873 5.616 1.873l29.953-51.172-4.993-76.754c-.624-9.36 6.24-18.72 14.978-20.593 11.231-1.872 21.217 5.617 21.84 16.85l9.36 106.083c0 1.248 0 2.496-.624 3.744l-29.953 57.41c-1.25 2.496-3.122 3.744-5.618 3.744"/><path clip-path="url(#b)" fill="#FFC10D" d="M124.806 309.516l3.12-25.584-32.45-63.651c-4.368-6.864-14.353-8.112-19.968-1.247-3.744 4.367-3.744 9.984-1.248 14.977l9.984 34.321c2.497 7.487-4.368 16.849-16.849 13.728l-32.449-54.914 4.992-78.627c.625-6.24-4.368-12.48-9.984-13.728-7.488-1.248-14.353 3.744-14.977 11.232L6.241 252.729l29.953 57.411"/><path clip-path="url(#b)" fill="#174F82" d="M36.194 315.756c-2.497 0-4.369-1.248-5.616-3.119L.624 255.227C0 253.979 0 252.729 0 251.482l9.36-106.084c1.248-10.609 11.232-18.721 21.84-16.849 9.361 1.872 15.601 10.608 14.977 20.593l-4.368 76.754 29.953 51.171c2.496 0 4.369-.624 5.616-1.872 1.248-1.248 1.248-3.121 1.248-4.369l-9.984-33.697c-3.744-7.488-3.12-16.225 2.496-21.84 8.112-9.36 23.089-8.113 29.953 2.496 0 0 0 .624.624.624l31.825 63.026c.624 1.248.624 2.496.624 3.744l-3.119 25.585c-.624 3.12-3.745 5.616-6.865 5.616-3.12-.625-5.616-3.744-5.616-6.865l2.496-23.713-31.201-61.154c-2.497-3.119-7.488-3.744-9.985-.623-1.871 1.871-1.871 4.992-.624 8.111 0 .624.624.624.624 1.248l9.985 34.32c1.872 5.617 0 12.481-3.744 16.85-4.993 4.992-11.857 6.865-19.969 4.368-1.872-.624-3.12-1.247-3.744-3.12l-32.449-54.914c-.625-1.248-.625-2.496-.625-3.744l4.993-78.626c0-3.119-2.496-6.865-4.993-7.488-3.743-.624-6.864 1.872-7.488 5.616l-9.36 104.836 29.33 55.538c1.872 3.12.624 6.864-2.496 8.112-1.248.624-2.496.624-3.12.624"/><path clip-path="url(#b)" fill="#FFF" d="M45.554 364.43l82.995 3.121v25.584H45.554z"/><path clip-path="url(#b)" fill="#174F82" d="M128.549 399.376H45.554c-3.744 0-6.24-2.496-6.24-6.241V364.43c0-1.871.624-3.119 1.872-4.367 1.247-1.248 3.119-1.873 4.368-1.873l82.995 2.496c3.12 0 6.24 3.12 6.24 6.24v25.586c0 1.871-.624 3.119-1.871 4.367-1.249 1.872-2.497 2.497-4.369 2.497m-76.755-12.481h70.515v-13.729l-70.515-1.871v15.6z"/><path clip-path="url(#b)" fill="#FFF" d="M199.064 21.841c-58.035 0-104.836 46.802-104.836 104.836s46.802 104.836 104.836 104.836c58.033 0 104.836-46.802 104.836-104.836S257.099 21.841 199.064 21.841"/><path clip-path="url(#b)" fill="#174F82" d="M199.064 237.129c-61.154 0-111.077-49.922-111.077-111.076 0-61.155 49.922-110.452 111.077-110.452S310.14 65.522 310.14 126.677c.001 61.154-49.921 110.452-111.076 110.452m0-209.048c-54.291 0-98.597 44.306-98.597 98.596 0 54.291 44.306 98.596 98.597 98.596 54.289 0 98.596-44.306 98.596-98.596s-44.304-98.596-98.596-98.596"/><path clip-path="url(#b)" fill="#2EA0DA" d="M199.064 207.801c-44.931 0-81.749-36.818-81.749-81.748 0-44.93 36.818-81.123 81.749-81.123 44.93 0 81.747 36.818 81.747 81.747.001 44.931-36.817 81.124-81.747 81.124"/><path clip-path="url(#b)" fill="#174F82" d="M199.064 237.129c-34.321 0-61.154-48.673-61.154-111.076 0-62.402 26.833-110.452 61.154-110.452 34.32 0 61.154 48.673 61.154 111.076.001 62.402-26.833 110.452-61.154 110.452m0-209.048c-26.209 0-48.674 44.93-48.674 98.596 0 53.042 22.465 98.594 48.674 98.594s48.674-44.929 48.674-98.594c0-53.666-22.465-98.596-48.674-98.596"/><path clip-path="url(#b)" fill="#174F82" d="M199.064 237.129c-3.745 0-6.24-2.496-6.24-6.24V21.841c0-3.744 2.496-6.24 6.24-6.24s6.24 2.496 6.24 6.24v209.048c.001 3.744-2.495 6.24-6.24 6.24"/><path clip-path="url(#b)" fill="#174F82" d="M288.924 185.959H109.205c-3.744 0-6.24-2.496-6.24-6.24s2.496-6.24 6.24-6.24h179.719c3.744 0 6.24 2.496 6.24 6.24 0 3.745-2.496 6.24-6.24 6.24m14.976-53.042H94.229c-3.744 0-6.241-2.497-6.241-6.24 0-3.744 2.497-6.24 6.241-6.24h209.048c3.744 0 6.24 2.496 6.24 6.24s-2.496 6.24-5.617 6.24m-14.976-53.666H109.205c-3.744 0-6.24-2.496-6.24-6.24s2.496-6.24 6.24-6.24h179.719c3.744 0 6.24 2.496 6.24 6.24s-2.496 6.24-6.24 6.24M156.63 338.846h12.48v12.48h-12.48zm36.194 0h12.48v12.48h-12.48zm36.194 0h12.48v12.48h-12.48zm-72.388-43.683h12.48v12.48h-12.48zm36.194 0h12.48v12.48h-12.48zm36.194 0h12.48v12.48h-12.48z"/></svg>