<svg xmlns="http://www.w3.org/2000/svg" width="512" height="512"><path d="M132.414 211.862H70.621a8.831 8.831 0 0 1-6.241-2.586l-25.423-25.423A8.828 8.828 0 0 1 51.44 171.37l22.837 22.837h58.138a8.828 8.828 0 1 1-.001 17.655zM45.197 343.217a8.829 8.829 0 0 1-6.241-15.069l25.423-25.423a8.823 8.823 0 0 1 6.241-2.586h61.793a8.828 8.828 0 0 1 0 17.656H74.275L51.438 340.63a8.828 8.828 0 0 1-6.241 2.587zm87.217-78.389H52.966a8.828 8.828 0 0 1 0-17.656h79.448a8.828 8.828 0 0 1 0 17.656zm308.965-52.966h-61.793a8.828 8.828 0 0 1 0-17.656h58.138l22.837-22.837a8.828 8.828 0 0 1 12.483 12.483l-25.423 25.423a8.828 8.828 0 0 1-6.242 2.587zm25.424 131.355a8.827 8.827 0 0 1-6.241-2.586l-22.837-22.837h-58.138a8.828 8.828 0 0 1 0-17.656h61.793c2.341 0 4.586.931 6.241 2.586l25.423 25.423a8.828 8.828 0 0 1-6.241 15.07zm-7.769-78.389h-79.448a8.828 8.828 0 0 1 0-17.656h79.448a8.828 8.828 0 0 1 0 17.656zm-256-88.276a8.828 8.828 0 0 1-8.828-8.828v-49.311l-49.32-49.32a8.828 8.828 0 0 1 12.483-12.483l51.906 51.906a8.823 8.823 0 0 1 2.586 6.241v52.966a8.827 8.827 0 0 1-8.827 8.829zm105.932 0a8.828 8.828 0 0 1-8.828-8.828v-52.966c0-2.341.931-4.586 2.586-6.241l51.906-51.906a8.828 8.828 0 0 1 12.483 12.483l-49.32 49.32v49.311a8.828 8.828 0 0 1-8.827 8.827zm-52.966 0a8.828 8.828 0 0 1-8.828-8.828V70.621a8.828 8.828 0 0 1 17.656 0v97.103a8.829 8.829 0 0 1-8.828 8.828z" data-original="#2C3E50" data-old_color="#115baa" fill="#115baa"/><path d="M361.931 167.724c9.751 0 17.655 7.904 17.655 17.655v113.126s0 116.886-123.586 187.012c-123.586-70.126-123.586-187.012-123.586-187.012V185.379c0-9.751 7.904-17.655 17.655-17.655h211.862z" data-original="#46B29D" class="active-path" data-old_color="#18b35c" fill="#18b35c"/><path d="M256 443.966c-87.208-59.445-88.276-144.561-88.276-145.47v-95.462h176.552v95.462c-.053 3.496-2.375 86.908-88.276 145.47z" data-original="#65DDB9" data-old_color="#115baa" fill="#115baa"/><path d="M256 452.785a8.828 8.828 0 0 1-4.978-16.119c82.176-56.011 84.374-134.974 84.427-138.293v-86.51a8.828 8.828 0 0 1 0-17.656c9.751 0 17.655 7.904 17.655 17.655v86.634c-.062 3.849-2.489 91.648-92.134 152.717a8.833 8.833 0 0 1-4.97 1.572zm-52.966-50.9a8.827 8.827 0 0 1-7.159-3.646 188.199 188.199 0 0 1-36.979-99.743v-86.634c0-9.751 7.904-17.655 17.655-17.655h97.103a8.828 8.828 0 0 1 0 17.656h-97.103v86.634a171.872 171.872 0 0 0 33.633 89.379 8.827 8.827 0 0 1-7.15 14.009z" data-original="#FFFFFF" fill="#fff"/><g fill="#18b35c"><path d="M237.241 344.276A8.827 8.827 0 0 1 231 341.69l-16.552-16.552a8.828 8.828 0 0 1 12.483-12.483l10.311 10.311 65.483-65.483a8.828 8.828 0 0 1 12.483 12.483l-71.724 71.724a8.84 8.84 0 0 1-6.243 2.586z" data-original="#FF5364" data-old_color="#18b35c"/><circle cx="26.483" cy="158.897" r="26.483" data-original="#FF5364" data-old_color="#18b35c"/><circle cx="132.414" cy="44.138" r="26.483" data-original="#FF5364" data-old_color="#18b35c"/><circle cx="256" cy="44.138" r="26.483" data-original="#FF5364" data-old_color="#18b35c"/><circle cx="26.483" cy="256" r="26.483" data-original="#FF5364" data-old_color="#18b35c"/><circle cx="26.483" cy="353.103" r="26.483" data-original="#FF5364" data-old_color="#18b35c"/><circle cx="485.517" cy="158.897" r="26.483" data-original="#FF5364" data-old_color="#18b35c"/><circle cx="485.517" cy="256" r="26.483" data-original="#FF5364" data-old_color="#18b35c"/><circle cx="485.517" cy="353.103" r="26.483" data-original="#FF5364" data-old_color="#18b35c"/><circle cx="379.586" cy="44.138" r="26.483" data-original="#FF5364" data-old_color="#18b35c"/></g><path d="M317.793 494.345H194.207a8.828 8.828 0 0 1 0-17.656h123.586a8.828 8.828 0 0 1 0 17.656z" data-original="#2C3E50" data-old_color="#115baa" fill="#115baa"/></svg>