<svg xmlns="http://www.w3.org/2000/svg" height="512" viewBox="0 -82 512 511" width="512"><path d="M511.906 192.027c-2.02-43.074-37.27-77.851-80.367-79.324a83.569 83.569 0 0 0-24.316 2.723c-1.778.472-3.477-.895-3.473-2.735v-.039C403.75 50.72 353.535.5 291.598.5c-50.672 0-93.47 33.613-107.368 79.75-1.203 3.996-5.253 6.457-9.34 5.59-24.148-5.125-49.792 3.293-66.128 23.32-2.067 2.535-5.371 3.637-8.582 3.028C49.012 102.483 2.45 140.905.094 190.992c-2.274 48.438 36.324 88.43 84.265 88.43h344.262c47.375-.004 85.527-39.52 83.285-87.395zm0 0" fill="#115baa" data-original="#4B98D4" data-old_color="#115baa"/><path d="M20.7 190.992c1.94-41.328 33.987-74.71 73.882-79.672-48.922-6-92.219 31.422-94.488 79.672-2.274 48.438 36.324 88.43 84.265 88.43h20.602c-47.938-.004-86.535-39.992-84.262-88.43zM195.496 85.84c4.086.867 8.133-1.594 9.34-5.594C217.786 37.266 255.82 5.168 301.934.98 298.527.668 295.082.5 291.598.5c-50.672 0-93.47 33.61-107.368 79.746a8.088 8.088 0 0 1-2.875 4.129 67.669 67.669 0 0 1 14.141 1.465zm-74.711 26.348c3.211.609 6.516-.493 8.582-3.028 10.88-13.34 25.89-21.52 41.836-23.988-23.043-3.563-46.933 4.976-62.441 23.988a8.613 8.613 0 0 1-1.672 1.555 85.79 85.79 0 0 1 13.695 1.472zm0 0" data-original="#000000" fill="#2472b2"/><path d="M361.195 243.512v-84.426c0-1.95-2.242-3.035-3.773-1.828-26.442 20.847-65.207 13.457-82.129-16.133a2.288 2.288 0 0 0-2.012-1.164v103.55zm0 0" fill="#ffc964" data-original="#FFC964" data-old_color="#18B35C"/><path d="M271.27 141.125c-16.922 29.586-55.684 36.984-82.13 16.133-1.53-1.207-3.773-.121-3.773 1.828v84.426h87.914V139.96c-.785 0-1.57.387-2.011 1.164zm2.011 205.941c.293 0 .59-.054.867-.164 52.063-20.402 87.047-58.16 87.047-101.406v-1.984h-87.914zm0 0" fill="#18b35c" data-original="#ED5454" data-old_color="#18b35c"/><path d="M185.367 243.512v1.984c0 43.246 34.985 81.008 87.047 101.406.277.11.574.164.867.164V243.512zm0 0" fill="#ffc964" data-original="#FFC964" data-old_color="#18B35C"/><path d="M189.14 157.254c-1.53-1.207-3.773-.117-3.773 1.832v84.426h20.606v-77.188a55.185 55.185 0 0 1-16.832-9.07zm0 0" fill="#18b35c" data-original="#EA3F3F" class="active-path" data-old_color="#18b35c"/><path d="M205.973 245.496v-1.984h-20.606v1.984c0 43.246 34.985 81.004 87.047 101.406.277.11.574.164.867.164v-9.168c-40.969-21.503-67.308-54.882-67.308-92.402zm0 0" fill="#ffc964" data-original="#F3A334" data-old_color="#F3A334"/><path d="M273.281 337.902v9.164c.293 0 .59-.054.867-.164a205.028 205.028 0 0 0 9.438-3.972 192.342 192.342 0 0 1-10.305-5.028zm0 0" fill="#18b35c" data-original="#EA3F3F" class="active-path" data-old_color="#18b35c"/></svg>