<svg xmlns="http://www.w3.org/2000/svg" width="512" height="512"><path d="M451.952 435.112H60.048C27.024 435.112 0 408.088 0 375.056V70.512C0 37.48 27.024 10.464 60.048 10.464h391.896c33.032 0 60.056 27.024 60.056 60.048v304.544c0 33.032-27.024 60.056-60.048 60.056z" data-original="#E9EDF1" fill="#e9edf1"/><path d="M512 104.968V70.512c0-33.032-27.024-60.048-60.048-60.048H60.048C27.024 10.464 0 37.488 0 70.512v34.456h512z" data-original="#000000" class="active-path" data-old_color="#18b35c" fill="#18b35c"/><circle cx="58.4" cy="57.72" r="13.424" data-original="#FC6F58" data-old_color="#115baa" fill="#115baa"/><circle cx="96.64" cy="57.72" r="13.424" data-original="#49C3E8" fill="#49c3e8"/><circle cx="134.904" cy="57.72" r="13.424" data-original="#FFD160" fill="#ffd160"/><g fill="#fff"><path data-original="#FFFFFF" d="M429.392 53.952h30.416v6.824h-30.416z"/><path data-original="#FFFFFF" d="M450.872 77.872l-5.144-4.48 13.648-15.68-13.648-15.664 5.144-4.48 17.576 20.144zm-71.608 1.216H208.336c-11.752 0-21.368-9.616-21.368-21.368 0-11.752 9.616-21.368 21.368-21.368h170.928c11.752 0 21.368 9.616 21.368 21.368 0 11.752-9.616 21.368-21.368 21.368z"/></g><path d="M212.656 67.944l-4.704-19.24h3.744l1.824 8.736c.48 2.344.936 4.8 1.256 6.704h.056c.32-2.024.856-4.304 1.4-6.736l2.08-8.704h3.68l1.92 8.856c.48 2.28.88 4.424 1.16 6.504h.064c.336-2.12.8-4.304 1.304-6.656l2-8.704h3.576l-5.176 19.24h-3.76l-2-9.056c-.496-2.184-.824-4.016-1.056-6.104h-.064c-.336 2.056-.704 3.92-1.28 6.104l-2.224 9.056h-3.8zm25.056 0l-4.704-19.24h3.744l1.824 8.736c.48 2.344.936 4.8 1.256 6.704h.056c.32-2.024.856-4.304 1.4-6.736l2.08-8.704h3.68l1.92 8.856c.48 2.28.88 4.424 1.16 6.504h.064c.336-2.12.8-4.304 1.304-6.656l2-8.704h3.576l-5.176 19.24h-3.76l-2-9.056c-.496-2.184-.824-4.016-1.056-6.104h-.064c-.336 2.056-.704 3.92-1.28 6.104l-2.224 9.056h-3.8zm25.056 0l-4.704-19.24h3.744l1.824 8.736c.48 2.344.936 4.8 1.256 6.704h.056c.32-2.024.856-4.304 1.4-6.736l2.08-8.704h3.68l1.92 8.856c.48 2.28.88 4.424 1.16 6.504h.064c.336-2.12.8-4.304 1.304-6.656l2-8.704h3.576l-5.168 19.24h-3.76l-2-9.056c-.496-2.184-.824-4.016-1.056-6.104h-.064c-.336 2.056-.704 3.92-1.28 6.104l-2.224 9.056h-3.808zm19.296-1.952c0-1.304.92-2.256 2.176-2.256 1.28 0 2.176.92 2.176 2.256 0 1.296-.864 2.264-2.176 2.264-1.28.008-2.176-.968-2.176-2.264z" data-original="#000000" class="active-path" data-old_color="#18b35c" fill="#18b35c"/><path data-original="#32BEA6" data-old_color="#18b35c" fill="#18b35c" d="M409.168 374.368l-45.04 45.92V309.472h-42.016v110.824l-45.048-45.928-29.984 29.256 96.032 97.912 96.04-97.912z"/><path data-original="#FC6F58" data-old_color="#115baa" fill="#115baa" d="M102.384 290.64l45.048-45.92v110.816h42.016V244.72l45.04 45.92 29.984-29.248-96.032-97.92-96.04 97.92z"/></svg>