<svg xmlns="http://www.w3.org/2000/svg" width="512" height="512"><path d="M260.333 147l-44.75-44.75V50c0-22.091-17.909-40-40-40H50c-22.091 0-40 17.909-40 40v88c0 22.091 17.909 40 40 40h125.583c18.995 0 34.886-13.245 38.971-31h45.779z" data-original="#A5DDFF" fill="#a5ddff"/><path d="M251.667 365l44.75 44.75V462c0 22.091 17.909 40 40 40H462c22.091 0 40-17.909 40-40v-88c0-22.091-17.909-40-40-40H336.417c-18.995 0-34.886 13.245-38.971 31h-45.779z" data-original="#BAEE83" fill="#baee83"/><path d="M173.276 376.426H92.85c-45.757 0-82.85 37.093-82.85 82.85V502h246.127v-42.724c0-45.757-37.093-82.85-82.851-82.85z" data-original="#FFBC53" data-old_color="#18b35c" fill="#18b35c"/><path data-original="#FFFFFF" fill="#fff" d="M178.971 376.426l-45.908 45.907-45.907-45.907z"/><path d="M120.139 232.096h67.073v33.286c0 17.264-13.996 31.26-31.26 31.26H78.916V273.32c0-22.767 18.456-41.224 41.223-41.224z" data-original="#5CC1FF" fill="#5cc1ff"/><path d="M187.211 296.642v25.636c0 29.905-24.243 54.148-54.148 54.148-29.905 0-54.148-24.243-54.148-54.148v-25.636h108.296z" data-original="#FFCDAC" fill="#ffcdac"/><path d="M419.15 154.329h-80.426c-45.757 0-82.85 37.093-82.85 82.85v42.724H502V237.18c0-45.757-37.093-82.851-82.85-82.851z" data-original="#5CC1FF" fill="#5cc1ff"/><path data-original="#FFFFFF" fill="#fff" d="M424.844 154.329l-45.907 45.908-45.908-45.908z"/><path d="M366.012 10h67.073v33.286c0 17.264-13.996 31.26-31.26 31.26h-77.036V51.223c0-22.767 18.456-41.223 41.223-41.223z" data-original="#FFC870" class="active-path" data-old_color="#18b35c" fill="#18b35c"/><path d="M433.084 74.546v25.636c0 29.905-24.243 54.148-54.148 54.148-29.905 0-54.148-24.243-54.148-54.148V74.546h108.296z" data-original="#FFCDAC" fill="#ffcdac"/><path d="M181.72 366.814a10.002 10.002 0 0 0-2.208-.362c10.954-11.513 17.7-27.066 17.7-44.174v-52.611c0-.481-.046-.95-.111-1.412.066-.95.111-1.906.111-2.872v-33.286c0-5.523-4.477-10-10-10h-67.073c-28.245 0-51.223 22.979-51.223 51.223v48.958c0 17.108 6.745 32.661 17.7 44.174a9.984 9.984 0 0 0-2.206.362C37.153 371.093 0 410.924 0 459.276V502c0 5.523 4.477 10 10 10h246.127c5.523 0 10-4.477 10-10v-42.724c0-48.351-37.151-88.182-84.407-92.462zm-92.804-60.172h67.036a40.998 40.998 0 0 0 21.26-5.914v21.549c0 24.343-19.805 44.148-44.148 44.148s-44.148-19.805-44.148-44.148v-15.635zm65.913 79.784l-21.765 21.766-21.765-21.766h43.53zM88.916 273.319c0-17.216 14.007-31.223 31.223-31.223h57.073v23.286c0 11.723-9.537 21.26-21.26 21.26H88.916v-13.323zM246.127 492H20v-20h41.5c5.523 0 10-4.477 10-10s-4.477-10-10-10H20.365c3.359-33.716 29.806-60.717 63.255-64.969l42.373 42.373a10.001 10.001 0 0 0 14.142 0l42.373-42.373c35.824 4.553 63.62 35.204 63.62 72.245V492h-.001zm181.468-347.282a10.01 10.01 0 0 0-2.21-.362c10.954-11.513 17.699-27.066 17.699-44.174V47.57c0-.481-.046-.95-.111-1.412.066-.95.111-1.906.111-2.872V10c0-5.523-4.477-10-10-10h-67.073c-28.245 0-51.223 22.979-51.223 51.223v48.958c0 17.108 6.745 32.661 17.699 44.174a10.02 10.02 0 0 0-2.21.362c-47.255 4.281-84.405 44.112-84.405 92.462v42.723c0 5.523 4.477 10 10 10h80.46c5.523 0 10-4.477 10-10s-4.477-10-10-10h-70.46V237.18c0-37.041 27.795-67.692 63.619-72.245l42.373 42.373c1.953 1.953 4.512 2.929 7.071 2.929s5.119-.976 7.071-2.929l42.373-42.373C464.205 169.489 492 200.139 492 237.18v32.723h-73.667c-5.523 0-10 4.477-10 10s4.477 10 10 10H502c5.523 0 10-4.477 10-10V237.18c0-48.35-37.151-88.181-84.405-92.462zm-92.806-44.536V84.546h67.036a41.007 41.007 0 0 0 21.26-5.914v21.549c0 24.343-19.805 44.148-44.148 44.148s-44.148-19.804-44.148-44.147zm0-48.959c0-17.216 14.007-31.223 31.223-31.223h57.073v23.286c0 11.723-9.537 21.26-21.26 21.26h-67.036V51.223zm44.148 134.872l-21.765-21.765h43.53l-21.765 21.765z" data-original="#000000" data-old_color="#115baa" fill="#115baa"/><path d="M386.01 286.97c1.86-1.86 2.93-4.43 2.93-7.07 0-2.63-1.07-5.21-2.93-7.07a10.076 10.076 0 0 0-7.07-2.93c-2.64 0-5.21 1.07-7.07 2.93a10.033 10.033 0 0 0-2.93 7.07c0 2.64 1.06 5.21 2.93 7.07 1.86 1.87 4.43 2.93 7.07 2.93 2.63 0 5.21-1.06 7.07-2.93zM50 188h125.583c20.674 0 38.702-12.407 46.266-31h38.484a10.002 10.002 0 0 0 7.072-17.071l-41.821-41.821V50c0-27.57-22.43-50-50-50H50C22.43 0 0 22.43 0 50v88c0 27.57 22.43 50 50 50zM20 50c0-16.542 13.458-30 30-30h125.583c16.542 0 30 13.458 30 30v52.25c0 2.652 1.054 5.196 2.929 7.071L236.191 137h-21.637a10 10 0 0 0-9.746 7.758C201.66 158.442 189.643 168 175.583 168H50c-16.542 0-30-13.458-30-30V50zm442 274H336.417c-20.674 0-38.702 12.407-46.266 31h-38.484a10.002 10.002 0 0 0-7.072 17.071l41.821 41.821V462c0 27.57 22.43 50 50 50H462c27.57 0 50-22.43 50-50v-88c0-27.57-22.43-50-50-50zm30 138c0 16.542-13.458 30-30 30H336.417c-16.542 0-30-13.458-30-30v-52.25c0-2.652-1.054-5.196-2.929-7.071L275.809 375h21.637a10 10 0 0 0 9.746-7.758C310.34 353.558 322.357 344 336.417 344H462c16.542 0 30 13.458 30 30v88z" data-original="#000000" data-old_color="#115baa" fill="#115baa"/><path d="M430.015 391.392l-26.583 26.583-12.361-12.361c-3.905-3.905-10.237-3.905-14.143 0-3.905 3.905-3.905 10.237 0 14.143l19.432 19.432c1.953 1.953 4.512 2.929 7.071 2.929s5.119-.976 7.071-2.929l33.654-33.654c3.905-3.905 3.905-10.237 0-14.143-3.904-3.905-10.236-3.905-14.141 0zM98.995 78.706c5.523 0 10-4.477 10-10 0-4.111 1.656-7.921 4.664-10.729 3.003-2.804 6.938-4.196 11.069-3.906 7.239.499 13.074 6.334 13.573 13.573.505 7.319-4.293 13.787-11.408 15.379-7.788 1.742-13.227 8.513-13.227 16.465v5.335c0 5.523 4.477 10 10 10s10-4.477 10-10v-2.91c15.494-4.622 25.719-19.229 24.587-35.645-1.182-17.147-15.004-30.969-32.151-32.151-9.723-.669-18.991 2.611-26.091 9.239a34.796 34.796 0 0 0-11.017 25.349c.001 5.524 4.478 10.001 10.001 10.001zm24.675 54.384c-2.64 0-5.21 1.07-7.07 2.93-1.87 1.86-2.93 4.44-2.93 7.07s1.06 5.21 2.93 7.07c1.86 1.86 4.43 2.93 7.07 2.93 2.63 0 5.21-1.07 7.07-2.93 1.86-1.86 2.93-4.44 2.93-7.07s-1.07-5.21-2.93-7.07a10.076 10.076 0 0 0-7.07-2.93zM101.5 452c-2.63 0-5.21 1.07-7.07 2.93s-2.93 4.44-2.93 7.07 1.07 5.21 2.93 7.07c1.86 1.86 4.44 2.93 7.07 2.93s5.21-1.07 7.07-2.93 2.93-4.44 2.93-7.07-1.07-5.21-2.93-7.07a10.076 10.076 0 0 0-7.07-2.93z" data-original="#000000" data-old_color="#115baa" fill="#115baa"/></svg>