<svg xmlns="http://www.w3.org/2000/svg" width="67.257" height="60.531" viewBox="0 0 67.257 60.531">
  <g id="Group_175056" data-name="Group 175056" transform="translate(0 -25.6)" style="isolation: isolate">
    <path id="Path_245171" data-name="Path 245171" d="M62.773,46.9h-.262a29.992,29.992,0,0,0-5.123-9.745s-.007-.012-.012-.017a30.21,30.21,0,0,0-47.5,0s-.007.012-.012.017A29.99,29.99,0,0,0,4.746,46.9H4.484A4.489,4.489,0,0,0,0,51.382V60.35a4.489,4.489,0,0,0,4.484,4.484h.262a29.992,29.992,0,0,0,5.123,9.745s.007.012.012.017a30.21,30.21,0,0,0,47.5,0s.007-.012.012-.017a29.99,29.99,0,0,0,5.123-9.745h.262a4.489,4.489,0,0,0,4.484-4.484V51.382A4.489,4.489,0,0,0,62.773,46.9Zm-6.761-7.847A27.738,27.738,0,0,1,60.157,46.9H47.542A50.31,50.31,0,0,0,45.8,39.051ZM54.145,36.81h-9.12a23.269,23.269,0,0,0-4.982-8.2A28.172,28.172,0,0,1,54.145,36.81Zm-19.4-8.833c2.982.663,5.772,3.923,7.819,8.833H34.75Zm0,11.074h8.657A46.111,46.111,0,0,1,45.276,46.9H34.75V39.051ZM32.508,27.977V36.81H24.688c2.048-4.909,4.838-8.17,7.819-8.833Zm0,11.074V46.9H21.981a46.135,46.135,0,0,1,1.869-7.847ZM27.214,28.605a23.269,23.269,0,0,0-4.982,8.2h-9.12A28.17,28.17,0,0,1,27.214,28.605ZM11.244,39.051H21.46A50.313,50.313,0,0,0,19.716,46.9H7.1A27.741,27.741,0,0,1,11.244,39.051Zm0,33.629A27.738,27.738,0,0,1,7.1,64.833H19.716A50.31,50.31,0,0,0,21.46,72.68Zm1.868,2.242h9.12a23.269,23.269,0,0,0,4.982,8.2,28.172,28.172,0,0,1-14.1-8.2Zm19.4,8.833c-2.982-.663-5.772-3.923-7.819-8.833h7.819Zm0-11.074H23.851a46.11,46.11,0,0,1-1.869-7.847H32.508ZM34.75,83.755V74.922h7.819C40.521,79.831,37.731,83.092,34.75,83.755Zm0-11.074V64.833H45.276a46.123,46.123,0,0,1-1.869,7.847Zm5.293,10.446a23.269,23.269,0,0,0,4.982-8.2h9.12A28.17,28.17,0,0,1,40.043,83.127ZM56.013,72.68H45.8a50.314,50.314,0,0,0,1.744-7.847H60.157a27.741,27.741,0,0,1-4.144,7.847Zm9-12.331a2.244,2.244,0,0,1-2.242,2.242H4.484A2.244,2.244,0,0,1,2.242,60.35V51.382A2.244,2.244,0,0,1,4.484,49.14h58.29a2.244,2.244,0,0,1,2.242,2.242V60.35Z" fill="#fff"/>
    <path id="Path_245172" data-name="Path 245172" d="M89.482,221.916a1.119,1.119,0,0,0-1.418.709l-1.471,4.414-2.109-3.515a1.165,1.165,0,0,0-1.922,0l-2.109,3.515-1.471-4.414a1.121,1.121,0,0,0-2.127.709L79.1,230.06a1.121,1.121,0,0,0,2.025.222l2.4-4,2.4,4a1.121,1.121,0,0,0,2.025-.222l2.242-6.726A1.121,1.121,0,0,0,89.482,221.916Zm16.814,0a1.118,1.118,0,0,0-1.418.709l-1.471,4.414-2.109-3.515a1.165,1.165,0,0,0-1.922,0l-2.109,3.515L95.8,222.625a1.121,1.121,0,0,0-2.127.709l2.242,6.726a1.121,1.121,0,0,0,2.025.222l2.4-4,2.4,4a1.121,1.121,0,0,0,2.025-.222L107,223.334A1.121,1.121,0,0,0,106.3,221.916Zm16.814,0a1.119,1.119,0,0,0-1.418.709l-1.471,4.414-2.109-3.515a1.165,1.165,0,0,0-1.922,0l-2.109,3.515-1.471-4.414a1.121,1.121,0,0,0-2.127.709l2.242,6.726a1.121,1.121,0,0,0,2.025.222l2.4-4,2.4,4a1.121,1.121,0,0,0,2.025-.222l2.242-6.726A1.121,1.121,0,0,0,123.11,221.916Z" transform="translate(-66.708 -170.477)" fill="#fff"/>
  </g>
</svg>
