<svg id="Group_169658" data-name="Group 169658" xmlns="http://www.w3.org/2000/svg" width="35" height="28.443" viewBox="0 0 35 28.443">
  <path id="Path_243675" data-name="Path 243675" d="M219.994,117.812a1.025,1.025,0,0,1,1.025-1.025h1a8.371,8.371,0,0,0-7.266-7.266v1a1.025,1.025,0,0,1-2.051,0v-1a8.372,8.372,0,0,0-7.266,7.266h1a1.025,1.025,0,0,1,0,2.051h-1A8.371,8.371,0,0,0,212.7,126.1v-1a1.025,1.025,0,1,1,2.051,0v1a8.372,8.372,0,0,0,7.266-7.266h-1a1.025,1.025,0,0,1-1.025-1.025Zm-3.336,2.929a1.025,1.025,0,0,1-1.45,0l-2.2-2.2a1.025,1.025,0,0,1-.3-.725V115.1a1.025,1.025,0,0,1,2.051,0v2.282l1.9,1.9a1.025,1.025,0,0,1,0,1.45Zm0,0" transform="translate(-191.393 -102.033)" fill="#e38959"/>
  <path id="Path_243676" data-name="Path 243676" d="M23.36,3.155v-1.1h.221a1.025,1.025,0,1,0,0-2.051H21.089a1.025,1.025,0,1,0,0,2.051h.221v1.1a12.665,12.665,0,1,0,2.051,0ZM22.335,26.183a10.405,10.405,0,1,1,10.405-10.4,10.417,10.417,0,0,1-10.405,10.4ZM6.755,11.654H2.935a1.025,1.025,0,0,1,0-2.051h3.82a1.025,1.025,0,0,1,0,2.051Zm0,4.244H1.025a1.025,1.025,0,0,1,0-2.051h5.73a1.025,1.025,0,0,1,0,2.051Zm0,4.244H2.935a1.025,1.025,0,0,1,0-2.051h3.82a1.025,1.025,0,0,1,0,2.051Zm0,0" fill="#e38959"/>
</svg>
