<svg xmlns="http://www.w3.org/2000/svg" xmlns:xlink="http://www.w3.org/1999/xlink" width="60" height="60" viewBox="0 0 60 60">
  <defs>
    <clipPath id="clip-path">
      <path id="Path_245174" data-name="Path 245174" d="M0-682.665H60v60H0Z" transform="translate(0 682.665)" fill="#115baa"/>
    </clipPath>
  </defs>
  <g id="Group_175060" data-name="Group 175060" transform="translate(0 -0.002)">
    <g id="Group_175057" data-name="Group 175057" transform="translate(0 0.002)" clip-path="url(#clip-path)">
      <path id="Path_245173" data-name="Path 245173" d="M0,0H23.379" transform="translate(35.274 11.483)" fill="none" stroke="#115baa" stroke-linecap="round" stroke-linejoin="round" stroke-miterlimit="10" stroke-width="3"/>
    </g>
    <path id="Path_245175" data-name="Path 245175" d="M0,0H0Z" transform="translate(35.274 11.485)" fill="#115baa"/>
    <g id="Group_175058" data-name="Group 175058" transform="translate(0 0.002)" clip-path="url(#clip-path)">
      <path id="Path_245176" data-name="Path 245176" d="M0,0H23.379" transform="translate(1.348 11.483)" fill="none" stroke="#115baa" stroke-linecap="round" stroke-linejoin="round" stroke-miterlimit="10" stroke-width="3"/>
    </g>
    <path id="Path_245178" data-name="Path 245178" d="M0,0H0Z" transform="translate(1.348 11.485)" fill="#115baa"/>
    <path id="Path_245179" data-name="Path 245179" d="M0,0H0" transform="translate(13.125 6.329)" fill="none" stroke="#115baa" stroke-linecap="round" stroke-linejoin="round" stroke-miterlimit="10" stroke-width="3"/>
    <path id="Path_245180" data-name="Path 245180" d="M0,0H0" transform="translate(7.5 6.329)" fill="none" stroke="#115baa" stroke-linecap="round" stroke-linejoin="round" stroke-miterlimit="10" stroke-width="3"/>
    <path id="Path_245181" data-name="Path 245181" d="M0,0H0" transform="translate(18.75 6.329)" fill="none" stroke="#115baa" stroke-linecap="round" stroke-linejoin="round" stroke-miterlimit="10" stroke-width="3"/>
    <g id="Group_175059" data-name="Group 175059" transform="translate(0 0.002)" clip-path="url(#clip-path)">
      <path id="Path_245182" data-name="Path 245182" d="M-58.375-29.187A2.812,2.812,0,0,0-61.187-32,2.812,2.812,0,0,0-64-29.187a2.812,2.812,0,0,0,2.813,2.813A2.812,2.812,0,0,0-58.375-29.187Z" transform="translate(91.187 85.204)" fill="none" stroke="#115baa" stroke-linecap="round" stroke-linejoin="round" stroke-miterlimit="10" stroke-width="3"/>
      <path id="Path_245183" data-name="Path 245183" d="M0,0V4.688" transform="translate(30 48.517)" fill="none" stroke="#115baa" stroke-linecap="round" stroke-linejoin="round" stroke-miterlimit="10" stroke-width="3"/>
      <path id="Path_245184" data-name="Path 245184" d="M0,0H13.594" transform="translate(32.813 56.017)" fill="none" stroke="#115baa" stroke-linecap="round" stroke-linejoin="round" stroke-miterlimit="10" stroke-width="3"/>
      <path id="Path_245185" data-name="Path 245185" d="M-141.073,0h-13.594" transform="translate(168.26 56.017)" fill="none" stroke="#115baa" stroke-linecap="round" stroke-linejoin="round" stroke-miterlimit="10" stroke-width="3"/>
      <path id="Path_245186" data-name="Path 245186" d="M-316.2-107.021h-28.125a2.344,2.344,0,0,1-2.344-2.344v-5.625a2.344,2.344,0,0,1,2.344-2.344H-316.2a2.344,2.344,0,0,1,2.344,2.344v5.625A2.344,2.344,0,0,1-316.2-107.021Z" transform="translate(360.26 155.537)" fill="none" stroke="#115baa" stroke-linecap="round" stroke-linejoin="round" stroke-miterlimit="10" stroke-width="3"/>
      <path id="Path_245187" data-name="Path 245187" d="M-101.749,0h-9.8" transform="translate(130.528 43.361)" fill="none" stroke="#115baa" stroke-linecap="round" stroke-linejoin="round" stroke-miterlimit="10" stroke-width="3"/>
      <path id="Path_245188" data-name="Path 245188" d="M0,0H0" transform="translate(34.886 43.361)" fill="none" stroke="#115baa" stroke-linecap="round" stroke-linejoin="round" stroke-miterlimit="10" stroke-width="3"/>
      <path id="Path_245189" data-name="Path 245189" d="M0,0H0" transform="translate(41.025 43.361)" fill="none" stroke="#115baa" stroke-linecap="round" stroke-linejoin="round" stroke-miterlimit="10" stroke-width="3"/>
      <path id="Path_245190" data-name="Path 245190" d="M-316.2-107.021h-28.125a2.344,2.344,0,0,1-2.344-2.344v-5.625a2.344,2.344,0,0,1,2.344-2.344H-316.2a2.344,2.344,0,0,1,2.344,2.344v5.625A2.344,2.344,0,0,1-316.2-107.021Z" transform="translate(360.26 134.912)" fill="none" stroke="#115baa" stroke-linecap="round" stroke-linejoin="round" stroke-miterlimit="10" stroke-width="3"/>
      <path id="Path_245191" data-name="Path 245191" d="M-101.749,0h-9.8" transform="translate(130.528 22.736)" fill="none" stroke="#115baa" stroke-linecap="round" stroke-linejoin="round" stroke-miterlimit="10" stroke-width="3"/>
      <path id="Path_245192" data-name="Path 245192" d="M0,0H0" transform="translate(34.886 22.736)" fill="none" stroke="#115baa" stroke-linecap="round" stroke-linejoin="round" stroke-miterlimit="10" stroke-width="3"/>
      <path id="Path_245193" data-name="Path 245193" d="M0,0H0" transform="translate(41.025 22.736)" fill="none" stroke="#115baa" stroke-linecap="round" stroke-linejoin="round" stroke-miterlimit="10" stroke-width="3"/>
      <path id="Path_245194" data-name="Path 245194" d="M-316.2-107.021h-28.125a2.344,2.344,0,0,1-2.344-2.344v-5.625a2.344,2.344,0,0,1,2.344-2.344H-316.2a2.344,2.344,0,0,1,2.344,2.344v5.625A2.344,2.344,0,0,1-316.2-107.021Z" transform="translate(360.26 145.225)" fill="none" stroke="#115baa" stroke-linecap="round" stroke-linejoin="round" stroke-miterlimit="10" stroke-width="3"/>
      <path id="Path_245195" data-name="Path 245195" d="M-101.749,0h-9.8" transform="translate(130.528 33.048)" fill="none" stroke="#115baa" stroke-linecap="round" stroke-linejoin="round" stroke-miterlimit="10" stroke-width="3"/>
      <path id="Path_245196" data-name="Path 245196" d="M0,0H0" transform="translate(34.886 33.048)" fill="none" stroke="#115baa" stroke-linecap="round" stroke-linejoin="round" stroke-miterlimit="10" stroke-width="3"/>
      <path id="Path_245197" data-name="Path 245197" d="M0,0H0" transform="translate(41.025 33.048)" fill="none" stroke="#115baa" stroke-linecap="round" stroke-linejoin="round" stroke-miterlimit="10" stroke-width="3"/>
      <path id="Path_245198" data-name="Path 245198" d="M-128.911-442.615h-8.672a3.75,3.75,0,0,1-3.75-3.75v-35.15a3.75,3.75,0,0,1,3.75-3.75h50.156a3.75,3.75,0,0,1,3.75,3.75v35.15a3.75,3.75,0,0,1-3.75,3.75H-96.1" transform="translate(142.505 486.436)" fill="none" stroke="#115baa" stroke-linecap="round" stroke-linejoin="round" stroke-miterlimit="10" stroke-width="3"/>
      <path id="Path_245199" data-name="Path 245199" d="M0,0H0" transform="translate(30 11.483)" fill="none" stroke="#115baa" stroke-linecap="round" stroke-linejoin="round" stroke-miterlimit="10" stroke-width="3"/>
    </g>
  </g>
</svg>
