<svg xmlns="http://www.w3.org/2000/svg" width="62.609" height="60" viewBox="0 0 62.609 60">
  <g id="Group_175063" data-name="Group 175063" transform="translate(0 0.001)" style="isolation: isolate">
    <path id="Path_245203" data-name="Path 245203" d="M53.477,52.171a2,2,0,0,1-.631-.1L1.325,34.459a1.958,1.958,0,0,1-.277-3.587L59.743.221a1.962,1.962,0,0,1,2.843,2.024L55.412,50.5A1.956,1.956,0,0,1,53.477,52.171ZM6.9,32.228,51.885,47.6,58.149,5.469Z" transform="translate(0 0.002)" fill="#115baa"/>
    <path id="Path_245204" data-name="Path 245204" d="M10.706,60A1.949,1.949,0,0,1,8.75,58.043V40.435A1.969,1.969,0,0,1,9.274,39.1L45.143.622a1.958,1.958,0,0,1,2.864,2.671L12.663,41.2V52.077l6.529-8.888a1.959,1.959,0,0,1,3.154,2.319L12.285,59.2a1.97,1.97,0,0,1-1.578.8Z" transform="translate(14.076 0)" fill="#115baa"/>
  </g>
</svg>
