<svg id="Group_169660" data-name="Group 169660" xmlns="http://www.w3.org/2000/svg" width="35.002" height="35" viewBox="0 0 35.002 35">
  <path id="Path_243656" data-name="Path 243656" d="M17.5,5.382q.636,0,1.27.066c.4.042.789.1,1.171.182q.335.069.666.154a12.294,12.294,0,0,1,1.335.439c.053.021.106.045.162.066.217.091.434.186.649.287.088.046.175.088.263.134.144.074.284.151.424.227.059.036.123.071.186.109q.405.236.789.5c.035.024.066.046.1.07h0c.157.112.311.228.462.351h0a12.3,12.3,0,0,1,2.727,3,11.948,11.948,0,0,1,1.174,2.366c.1.277.2.561.277.849.031.116.063.231.092.346.046.176.084.351.123.526.021.1.039.2.057.3.039.2.066.4.094.6a12.805,12.805,0,0,1,0,3.082c-.028.2-.057.4-.094.6-.018.1-.035.2-.057.294-.042.2-.088.393-.136.585a11.111,11.111,0,0,1-.354,1.14c-.066.186-.14.368-.216.547-.039.092-.078.182-.12.274a12.09,12.09,0,0,1-1.163,2.027,12.478,12.478,0,0,1-1.736,1.955c-.144.13-.291.256-.442.379a12.176,12.176,0,0,1-3.264,1.929q-.552.214-1.125.378a11.843,11.843,0,0,1-3,.455c-.106,0-.211.007-.316.007s-.206,0-.312-.007-.206,0-.308-.011-.206-.011-.309-.021q-.292-.02-.582-.057c-.011,0-.018,0-.029,0h0l-.3-.042c-.1-.018-.2-.031-.3-.049l-.294-.059h0c-.1-.018-.2-.042-.291-.063q-.293-.067-.582-.151c-.025,0-.042-.014-.064-.018q-.5-.146-.984-.333l-.077-.031h0q-.138-.052-.274-.108c-.091-.039-.179-.082-.27-.12s-.179-.081-.267-.123-.175-.088-.263-.133-.171-.092-.259-.136-.171-.095-.256-.144l-.252-.147c-.081-.053-.165-.1-.245-.154q-.246-.156-.484-.326c-.081-.057-.158-.116-.235-.174h0c-.077-.057-.154-.117-.232-.176s-.151-.124-.228-.183c-.147-.127-.294-.249-.438-.382q-.324-.293-.625-.61-.2-.211-.392-.428t-.368-.449v0a11.305,11.305,0,0,1-.831-1.2q-.229-.374-.431-.765v0q-.133-.262-.253-.529a11.828,11.828,0,0,1-.613-1.665v0c-.081-.287-.154-.579-.214-.873s-.109-.6-.147-.9-.066-.61-.08-.919c-.007-.1-.011-.206-.014-.311s0-.206,0-.311c0-.312.011-.624.035-.929v0c.007-.1.018-.2.028-.305a11.915,11.915,0,0,1,1.129-4.011s0,0,0,0A12.106,12.106,0,0,1,8.729,9.144c.066-.071.136-.141.2-.207.14-.136.281-.27.421-.4.217-.193.438-.382.666-.564.154-.119.309-.235.47-.347a10.545,10.545,0,0,1,.981-.631c.169-.1.34-.193.512-.28h0c.172-.092.351-.176.529-.257.088-.039.179-.08.27-.118a12.42,12.42,0,0,1,1.686-.572,12.741,12.741,0,0,1,1.788-.319c.1-.01.2-.021.305-.028.309-.021.617-.035.932-.035ZM17.5,0a17.258,17.258,0,0,0-2.685.221v2.17a.672.672,0,0,1-.529.656A14.856,14.856,0,0,0,9.563,5.01a.672.672,0,0,1-.834-.088L7.176,3.373a17.452,17.452,0,0,0-3.8,3.8l1.545,1.55a.679.679,0,0,1,.1.841,14.8,14.8,0,0,0-1.964,4.715.67.67,0,0,1-.655.526H.221a16.526,16.526,0,0,0,0,5.384H2.394a.673.673,0,0,1,.655.522,14.842,14.842,0,0,0,1.964,4.722.675.675,0,0,1-.1.838L3.386,27.821a17.459,17.459,0,0,0,3.79,3.814l1.553-1.553a.672.672,0,0,1,.834-.094,14.858,14.858,0,0,0,4.719,1.964.674.674,0,0,1,.529.655v2.166A17.771,17.771,0,0,0,17.5,35a17.3,17.3,0,0,0,2.689-.217V32.607a.67.67,0,0,1,.526-.655,14.8,14.8,0,0,0,4.719-1.964.673.673,0,0,1,.835.094l1.549,1.553a17.438,17.438,0,0,0,3.807-3.814l-1.55-1.546a.669.669,0,0,1-.088-.838,14.825,14.825,0,0,0,1.96-4.722.678.678,0,0,1,.659-.522h2.166A17.366,17.366,0,0,0,35,17.5a17.71,17.71,0,0,0-.214-2.689H32.607a.674.674,0,0,1-.659-.526,14.724,14.724,0,0,0-1.956-4.726.673.673,0,0,1,.094-.837l1.539-1.543a17.472,17.472,0,0,0-3.8-3.8L26.28,4.912a.673.673,0,0,1-.838.094,14.868,14.868,0,0,0-4.726-1.959.668.668,0,0,1-.524-.655V.2A18.087,18.087,0,0,0,17.5,0Z" transform="translate(0 -0.001)" fill="#007aff"/>
  <path id="Path_243657" data-name="Path 243657" d="M19.419,18.751a.679.679,0,1,1-.669.673A.665.665,0,0,1,19.419,18.751Z" transform="translate(-1.923 -1.925)" fill="#007aff"/>
  <path id="Path_243658" data-name="Path 243658" d="M18.573,10.5a8.076,8.076,0,0,0-5.707,13.787.673.673,0,0,0,.953-.95,6.732,6.732,0,0,1,9.02-9.973l-3.39,3.39v0a2.064,2.064,0,0,1,.946.949h0l3.39-3.393a6.718,6.718,0,0,1-.455,9.023.673.673,0,0,0,.954.95,8.067,8.067,0,0,0,.451-10.925l.369-.371a.669.669,0,1,0-.946-.946l-.372.368A8.035,8.035,0,0,0,18.573,10.5Z" transform="translate(-1.077 -1.078)" fill="#007aff"/>
</svg>
