<svg xmlns="http://www.w3.org/2000/svg" width="34.955" height="35" viewBox="0 0 34.955 35">
  <g id="Group_169661" data-name="Group 169661" transform="translate(-0.33)">
    <path id="Path_243678" data-name="Path 243678" d="M6.6,11.4H3.557V7.887a7.885,7.885,0,0,1,15.771,0V11.4H16.285V7.887a4.843,4.843,0,0,0-9.687,0Zm7.85,6.509c.128,4.908.777,9.231,3.034,12.6H1.549A1.222,1.222,0,0,1,.33,29.285V13.744a1.222,1.222,0,0,1,1.219-1.219H21.335a1.222,1.222,0,0,1,1.219,1.219v.98a18.022,18.022,0,0,1-6.689,1.658A1.486,1.486,0,0,0,14.448,17.9Zm-1.323,2.488A1.683,1.683,0,1,0,10.5,21.784v1.589a.946.946,0,0,0,1.893,0V21.784A1.679,1.679,0,0,0,13.125,20.393Zm22.16-2.517c-.2,7.883-1.69,14.124-9.732,17.1a.334.334,0,0,1-.244,0c-8.04-2.976-9.528-9.218-9.731-17.1a.352.352,0,0,1,.337-.362,21.416,21.416,0,0,0,9.354-2.851.347.347,0,0,1,.325,0,21.611,21.611,0,0,0,9.354,2.851A.352.352,0,0,1,35.285,17.876ZM33.24,19.722a.352.352,0,0,0-.3-.368,26.3,26.3,0,0,1-7.35-2.466.343.343,0,0,0-.314,0,26.3,26.3,0,0,1-7.35,2.466.352.352,0,0,0-.3.368,19.12,19.12,0,0,0,2.35,8.875A10.588,10.588,0,0,0,25.3,32.857a.346.346,0,0,0,.264,0A10.583,10.583,0,0,0,30.89,28.6,19.1,19.1,0,0,0,33.24,19.722ZM22.711,23.974a1.9,1.9,0,0,0-1.157-.4h-.016a.762.762,0,0,1-.481-.153.264.264,0,0,1,0-.461.762.762,0,0,1,.481-.153.774.774,0,0,1,.448.13.36.36,0,0,1,.165.217.563.563,0,0,0,1.108-.2,1.482,1.482,0,0,0-.632-.94,1.945,1.945,0,0,0-2.277.071,1.38,1.38,0,0,0,0,2.216,1.909,1.909,0,0,0,1.159.4h.016a.766.766,0,0,1,.481.153.309.309,0,0,1,.134.23.313.313,0,0,1-.134.23.778.778,0,0,1-.481.151.8.8,0,0,1-.45-.128.377.377,0,0,1-.165-.217.562.562,0,1,0-1.106.2,1.475,1.475,0,0,0,.632.942,1.918,1.918,0,0,0,1.089.332,1.9,1.9,0,0,0,1.186-.4,1.38,1.38,0,0,0,0-2.217Zm7.8,1.492H28.831V22.239a.565.565,0,1,0-1.13,0v3.792a.565.565,0,0,0,.566.564h2.24a.565.565,0,0,0,0-1.129Zm-3.841-1.492a1.9,1.9,0,0,0-1.159-.4h-.016a.766.766,0,0,1-.481-.153.313.313,0,0,1-.134-.23.309.309,0,0,1,.134-.23.766.766,0,0,1,.481-.153.786.786,0,0,1,.45.13.377.377,0,0,1,.165.217.562.562,0,0,0,1.106-.2,1.474,1.474,0,0,0-.632-.94,1.942,1.942,0,0,0-2.275.071,1.38,1.38,0,0,0,0,2.216,1.907,1.907,0,0,0,1.157.4h.017a.759.759,0,0,1,.479.153.311.311,0,0,1,.135.23.317.317,0,0,1-.135.23.771.771,0,0,1-.479.151.793.793,0,0,1-.45-.128.368.368,0,0,1-.165-.217.563.563,0,0,0-1.108.2,1.482,1.482,0,0,0,.632.942,1.92,1.92,0,0,0,1.091.332,1.9,1.9,0,0,0,1.186-.4,1.381,1.381,0,0,0,0-2.217Z" fill="#d32a2d"/>
  </g>
</svg>
