<svg xmlns="http://www.w3.org/2000/svg" width="70.884" height="60" viewBox="0 0 70.884 60">
  <g id="Group_175062" data-name="Group 175062" transform="translate(0 -39)" style="isolation: isolate">
    <path id="Path_245202" data-name="Path 245202" d="M36.837,97.6a1.4,1.4,0,1,1-1.4-1.4A1.4,1.4,0,0,1,36.837,97.6ZM11.111,63.279a1.4,1.4,0,0,0,0,2.791h2.843V80.023a1.4,1.4,0,1,0,2.791,0V66.07h2.843a1.4,1.4,0,0,0,0-2.791ZM59.442,52.4a5.86,5.86,0,1,1-5.86,5.86A5.867,5.867,0,0,1,59.442,52.4Zm-3.07,5.86a3.07,3.07,0,1,0,3.07-3.07A3.073,3.073,0,0,0,56.372,58.256ZM55.535,99H41.721a1.4,1.4,0,0,1-1.392-1.489,1.428,1.428,0,0,1,1.441-1.3H54.14V93.419H43.814a4.186,4.186,0,0,1-4.186-4.186V85.6a4.186,4.186,0,0,1,4.186-4.186H54.14v-5.86H34.884a1.4,1.4,0,0,1-1.4-1.4V48.209a1.4,1.4,0,0,1,1.4-1.4H54.14V43.186a1.4,1.4,0,0,0-1.4-1.4H18.14a1.4,1.4,0,0,0-1.4,1.4V57H29.3a1.4,1.4,0,0,1,1.4,1.4V86.3a1.4,1.4,0,0,1-1.4,1.4H16.744v8.512h12.37a1.428,1.428,0,0,1,1.441,1.3A1.4,1.4,0,0,1,29.163,99H15.349a1.4,1.4,0,0,1-1.4-1.4V87.7H1.4A1.4,1.4,0,0,1,0,86.3V58.4A1.4,1.4,0,0,1,1.4,57H13.953V43.186A4.186,4.186,0,0,1,18.14,39h34.6a4.186,4.186,0,0,1,4.186,4.186v3.628H69.488a1.4,1.4,0,0,1,1.4,1.4V74.163a1.4,1.4,0,0,1-1.4,1.4H56.93v5.86h3.628A4.186,4.186,0,0,1,64.744,85.6v3.628a4.186,4.186,0,0,1-4.186,4.186H56.93V97.6A1.4,1.4,0,0,1,55.535,99ZM27.907,59.791H2.791V84.907H27.907ZM60.558,84.209H43.814a1.4,1.4,0,0,0-1.4,1.4v3.628a1.4,1.4,0,0,0,1.4,1.4H60.558a1.4,1.4,0,0,0,1.4-1.4V85.6A1.4,1.4,0,0,0,60.558,84.209ZM36.279,72.767H57.892L45.011,60.726a4.2,4.2,0,0,0-5.717,0l-3.015,2.818ZM68.093,49.6H36.279V59.724l1.109-1.036a7,7,0,0,1,9.529,0l15.063,14.08h6.114Z" fill="#115baa"/>
  </g>
</svg>
