<svg xmlns="http://www.w3.org/2000/svg" width="35" height="28.472" viewBox="0 0 35 28.472">
  <g id="Group_169659" data-name="Group 169659" transform="translate(-17.852 -62.084)">
    <path id="Path_243677" data-name="Path 243677" d="M32.214,89.183q-.4.023-.8.023A13.561,13.561,0,1,1,42.651,68.069L40.736,70.68A10.56,10.56,0,1,0,40.3,81.348a9.274,9.274,0,0,1-7.2,6.734,1.181,1.181,0,0,0-.886,1.1ZM30.675,71.651a.738.738,0,0,1,1.476,0v3.568l2.3,1.328a.738.738,0,1,1-.738,1.278l-2.669-1.541a.738.738,0,0,1-.369-.639Zm0-4.413a.738.738,0,1,1,1.476,0v.91a.738.738,0,0,1-1.476,0Zm6.163,1.938a.738.738,0,1,1,1.044,1.044l-.646.646a.738.738,0,0,1-1.044-1.044Zm1.044,11.894a.738.738,0,1,1-1.044,1.044l-.646-.646a.738.738,0,0,1,1.044-1.044ZM25.988,82.114a.738.738,0,0,1-1.044-1.044l.646-.646a.738.738,0,0,1,1.044,1.044ZM24.944,70.22a.738.738,0,1,1,1.044-1.044l.646.646a.738.738,0,0,1-1.044,1.044Zm7.207,13.833a.738.738,0,1,1-1.476,0v-.91a.738.738,0,1,1,1.476,0Zm-9.145-7.669a.738.738,0,0,1,0-1.476h.91a.738.738,0,0,1,0,1.476Zm19.1-.729H39.279a.369.369,0,0,1-.3-.587l6.056-8.255a.517.517,0,0,1,.813-.026l6.915,8.263a.369.369,0,0,1-.283.606h-2.63c0,13.083-9.618,17.373-16.459,13.572C41.581,87.124,42.108,80.259,42.108,75.654Z" fill="#43a048" fill-rule="evenodd"/>
  </g>
</svg>
