<svg xmlns="http://www.w3.org/2000/svg" width="60" height="60" viewBox="0 0 60 60">
  <g id="Group_175061" data-name="Group 175061" style="mix-blend-mode: normal;isolation: isolate">
    <path id="Path_245201" data-name="Path 245201" d="M30,0A30,30,0,1,0,60,30,30.033,30.033,0,0,0,30,0ZM3.025,30A26.756,26.756,0,0,1,5.36,19.025l12.87,35.25A26.985,26.985,0,0,1,3.025,30ZM30,56.975a26.8,26.8,0,0,1-7.62-1.1l8.092-23.515L38.76,55.075a4.058,4.058,0,0,0,.193.375A27.011,27.011,0,0,1,30,56.975Zm3.712-39.613v0q1.544-.084,3.083-.253a1.117,1.117,0,0,0-.17-2.227s-4.368.338-7.185.338c-2.65,0-7.1-.338-7.1-.338a1.117,1.117,0,0,0-.167,2.227s1.377.17,2.83.253l4.2,11.515-5.9,17.7L13.475,17.36c1.623-.085,3.085-.252,3.085-.252a1.117,1.117,0,0,0-.17-2.227s-4.367.338-7.185.338c-.507,0-1.1-.012-1.742-.035A26.978,26.978,0,0,1,48.218,10.1a3.333,3.333,0,0,0-.35-.023,4.668,4.668,0,0,0-4.525,4.79c0,2.225,1.283,4.1,2.65,6.327a14.16,14.16,0,0,1,2.228,7.44c0,2.31-.883,4.983-2.057,8.722l-2.688,8.988Zm19.963-.305A26.979,26.979,0,0,1,43.563,53.313l0,0L51.8,29.49a25.539,25.539,0,0,0,2.057-9.665,19.973,19.973,0,0,0-.18-2.767Z" fill="#fff"/>
  </g>
</svg>
