<svg xmlns="http://www.w3.org/2000/svg" viewBox="0 0 64 64" width="512" height="512"><path d="M22 62H4a2 2 0 0 1-2-2v-9h22v9a2 2 0 0 1-2 2zm38 0H42a2 2 0 0 1-2-2v-9h22v9a2 2 0 0 1-2 2zM48 8c-.782 0-1.562.094-2.33.279A12.946 12.946 0 0 0 34 1a13.022 13.022 0 0 0-10.267 5.037A7.72 7.72 0 0 0 23 6a8.005 8.005 0 0 0-6.958 4.06A9.306 9.306 0 0 0 15 10c-4.963 0-9 4.037-9 9s4.037 9 9 9h7v-2a2 2 0 0 1 2-2v-4a2 2 0 0 1-2-2v-2a2 2 0 0 1 2-2h16a2 2 0 0 1 2 2v2a2 2 0 0 1-2 2v4a2 2 0 0 1 2 2v2h6c5.514 0 10-4.486 10-10S53.514 8 48 8z" data-original="#F0BC5E" data-old_color="#18b35c" fill="#18b35c"/><path data-original="#000000" class="active-path" data-old_color="#115baa" fill="#115baa" d="M15 47h6v2h-6z"/><path d="M60 43h-7.171c-.801 0-1.555.312-2.122.879L47.586 47H42c-1.654 0-3 1.346-3 3v4h-4.184A2.997 2.997 0 0 0 33 52.184V41h7c1.654 0 3-1.346 3-3v-2a2.996 2.996 0 0 0-2-2.816v-2.369a2.996 2.996 0 0 0 2-2.816v-2a2.996 2.996 0 0 0-2-2.816v-2.369a2.996 2.996 0 0 0 2-2.816v-2c0-1.654-1.346-3-3-3H24c-1.654 0-3 1.346-3 3v2c0 1.302.839 2.402 2 2.816v2.369a2.996 2.996 0 0 0-2 2.816v2c0 1.302.839 2.402 2 2.816v2.369A2.996 2.996 0 0 0 21 36v2c0 1.654 1.346 3 3 3h7v11.184A2.997 2.997 0 0 0 29.184 54H25v-8c0-1.654-1.346-3-3-3h-7.171c-.801 0-1.555.312-2.122.879L9.586 47H4c-1.654 0-3 1.346-3 3v10c0 1.654 1.346 3 3 3h18c1.654 0 3-1.346 3-3v-4h4.184c.414 1.161 1.514 2 2.816 2s2.402-.839 2.816-2H39v4c0 1.654 1.346 3 3 3h18c1.654 0 3-1.346 3-3V46c0-1.654-1.346-3-3-3zM39 31v2H25v-2h14zm0-10v2H25v-2h14zm-16-5c0-.551.449-1 1-1h16c.551 0 1 .449 1 1v2c0 .551-.449 1-1 1H24c-.551 0-1-.449-1-1v-2zm0 10c0-.551.449-1 1-1h16c.551 0 1 .449 1 1v2c0 .551-.449 1-1 1H24c-.551 0-1-.449-1-1v-2zm0 12v-2c0-.552.449-1 1-1h16c.551 0 1 .448 1 1v2c0 .552-.449 1-1 1H24c-.551 0-1-.448-1-1zm0 22c0 .552-.449 1-1 1H4c-.551 0-1-.448-1-1V50c0-.552.449-1 1-1h6.414l3.707-3.707a.996.996 0 0 1 .708-.293H22c.551 0 1 .448 1 1v14zm9-4a1.001 1.001 0 0 1 0-2 1.001 1.001 0 0 1 0 2zm29 4c0 .552-.449 1-1 1H42c-.551 0-1-.448-1-1V50c0-.552.449-1 1-1h6.414l3.707-3.707a.996.996 0 0 1 .708-.293H60c.551 0 1 .448 1 1v14z" data-original="#000000" class="active-path" data-old_color="#115baa" fill="#115baa"/><path data-original="#000000" class="active-path" data-old_color="#115baa" fill="#115baa" d="M53 47h6v2h-6zm1-29c0-3.309-2.691-6-6-6v2c2.206 0 4 1.794 4 4s-1.794 4-4 4v2c3.309 0 6-2.691 6-6zm-39-2v-2c-2.757 0-5 2.243-5 5h2c0-1.654 1.346-3 3-3zm19-9c1.87 0 3.627.728 4.95 2.05l1.414-1.414C38.664 5.936 36.404 5 34 5s-4.664.936-6.364 2.636L29.05 9.05A6.956 6.956 0 0 1 34 7zM5 30.414V40h2v-9.586l2.293 2.293 1.414-1.414L6 26.586l-4.707 4.707 1.414 1.414zM5 42h2v2H5zm48.293-5.293L58 41.414l4.707-4.707-1.414-1.414L59 37.586V28h-2v9.586l-2.293-2.293zM57 24h2v2h-2z"/></svg>