<?xml version="1.0"?>
<svg xmlns="http://www.w3.org/2000/svg" viewBox="0 -31 511.99993 511" width="512px" height="512px" class=""><g><g fill-rule="evenodd"><path d="m256 439.808594c118.316406 0 214.816406-96.5 214.816406-214.816406 0-118.320313-96.5-214.820313-214.816406-214.820313s-214.820312 96.5-214.820312 214.820313c0 118.316406 96.503906 214.816406 214.820312 214.816406zm0 0" fill="#b0e7ff" data-original="#B0E7FF" class="" style="fill:#115BAA" data-old_color="#B0E7FF"/><path d="m220.515625 315.28125c4.980469 4.976562 7.761719 11.695312 7.761719 18.738281s-2.78125 13.761719-7.761719 18.742188-11.695313 7.757812-18.738281 7.757812c-7.046875 0-13.761719-2.777343-18.742188-7.757812-4.980468-4.980469-7.761718-11.699219-7.761718-18.742188s2.78125-13.761719 7.761718-18.738281c4.980469-4.980469 11.695313-7.765625 18.742188-7.765625 7.039062 0 13.757812 2.785156 18.738281 7.765625zm134.78125-.03125c4.984375 4.988281 7.75 11.71875 7.75 18.769531 0 7.042969-2.78125 13.761719-7.761719 18.738281-4.976562 4.980469-11.695312 7.761719-18.738281 7.761719s-13.761719-2.777343-18.742187-7.761719c-4.980469-4.976562-7.757813-11.695312-7.757813-18.738281 0-7.050781 2.765625-13.78125 7.75-18.769531 4.523437-4.527344 10.511719-7.253906 16.894531-7.707031 1.003906-.070313 1.957032-.082031 2.957032-.042969 6.660156.277344 12.941406 3.039062 17.648437 7.75zm0 0" fill="#ffe169" data-original="#FFE169" class="active-path" style="fill:#18B35C" data-old_color="#18b35c"/><path d="m160.085938 161.039062h211.992187l-35.511719 108.75h-140.96875zm0 0" fill="#6dc992" data-original="#6DC992" class="" style="fill:#18B35C" data-old_color="#18b35c"/><path d="m439.316406 264.191406 19.902344-16.699218c-5.199219 47.46875-26.640625 90.054687-58.652344 122.066406-36.996094 36.996094-88.109375 59.878906-144.566406 59.878906-48.453125 0-92.945312-16.828125-127.949219-44.953125-35.707031-28.6875-61.574219-69.128906-71.734375-115.445313-1.167968-5.40625-6.496094-8.839843-11.902344-7.671874-5.40625 1.164062-8.839843 6.492187-7.671874 11.898437 11.160156 50.878906 39.566406 95.292969 78.78125 126.800781 38.480468 30.917969 87.328124 49.414063 140.476562 49.414063 61.988281 0 118.113281-25.125 158.738281-65.75 34.914063-34.914063 58.382813-81.277344 64.289063-132.972657l15.292968 18.226563c3.546876 4.234375 9.859376 4.796875 14.09375 1.25 4.238282-3.542969 4.800782-9.855469 1.253907-14.09375l-31.152344-37.128906c-1.828125-2.453125-4.75-4.042969-8.046875-4.042969-2.660156 0-5.078125 1.039062-6.875 2.730469l-37.117188 31.144531c-4.234374 3.546875-4.796874 9.859375-1.25 14.09375 3.546876 4.238281 9.855469 4.796875 14.089844 1.253906zm-439.316406-76.878906c.03125-2.820312 1.25-5.613281 3.585938-7.566406 4.234374-3.542969 10.546874-2.984375 14.09375 1.253906l15.292968 18.226562c5.90625-51.699218 29.375-98.058593 64.289063-132.972656 40.625-40.625 96.75-65.753906 158.738281-65.753906 53.148438 0 102 18.5 140.476562 49.417969 39.214844 31.507812 67.621094 75.921875 78.785157 126.796875 1.164062 5.40625-2.269531 10.734375-7.675781 11.902344-5.40625 1.167968-10.734376-2.269532-11.902344-7.675782-10.160156-46.3125-36.027344-86.753906-71.734375-115.445312-35.003907-28.125-79.496094-44.953125-127.949219-44.953125-56.457031 0-107.570312 22.882812-144.566406 59.882812-32.015625 32.011719-53.457032 74.59375-58.652344 122.066407l19.902344-16.699219c4.234375-3.546875 10.546875-2.984375 14.089844 1.25 3.546874 4.238281 2.988281 10.550781-1.25 14.09375l-37.117188 31.144531c-1.792969 1.691406-4.214844 2.730469-6.875 2.730469-3.292969 0-6.21875-1.589844-8.042969-4.042969l-31.160156-37.128906c-1.539063-1.839844-2.3046875-4.074219-2.328125-6.300782zm213.429688 135.054688c2.980468 2.980468 4.824218 7.101562 4.824218 11.652343s-1.84375 8.671875-4.824218 11.652344c-2.980469 2.980469-7.101563 4.828125-11.652344 4.828125-4.554688 0-8.675782-1.847656-11.65625-4.828125-2.980469-2.980469-4.824219-7.101563-4.824219-11.652344 0-4.554687 1.84375-8.671875 4.824219-11.652343 2.980468-2.984376 7.101562-4.828126 11.65625-4.828126 4.550781 0 8.671875 1.84375 11.652344 4.828126zm123.804687-4.851563c4.277344.171875 8.140625 1.980469 10.972656 4.820313 2.976563 2.976562 4.820313 7.109374 4.820313 11.683593 0 4.554688-1.847656 8.671875-4.828125 11.65625-2.980469 2.980469-7.101563 4.824219-11.652344 4.824219s-8.671875-1.84375-11.652344-4.824219c-2.984375-2.984375-4.828125-7.105469-4.828125-11.65625 0-4.574219 1.84375-8.707031 4.816406-11.683593 2.734376-2.738282 6.421876-4.515626 10.515626-4.796876.703124-.058593 1.117187-.058593 1.835937-.023437zm-71.152344-166.5c-5.535156 0-10.023437 4.484375-10.023437 10.023437 0 5.535157 4.488281 10.019532 10.023437 10.019532 5.535157 0 10.023438-4.484375 10.023438-10.019532 0-5.539062-4.488281-10.023437-10.023438-10.023437zm74.753907 73.410156-11.539063 35.339844h-126.425781l-11.542969-35.339844zm-156.050782-20.03125h162.59375l10.886719-33.335937h-52.09375c-5.535156 0-10.023437-4.484375-10.023437-10.019532 0-5.535156 4.488281-10.023437 10.023437-10.023437h65.886719c5.535156 0 10.023437 4.488281 10.023437 10.023437 0 1.316407-.253906 2.570313-.714843 3.722657l-35.308594 108.121093c-1.371094 4.226563-5.296875 6.914063-9.511719 6.914063l-127.132813.015625 5.773438 17.683594h121.335938c9.621093 0 19.066406 3.953125 25.855468 10.746094 6.605469 6.609374 10.6875 15.726562 10.6875 25.777343 0 10.085938-4.085937 19.21875-10.695312 25.828125s-15.742188 10.695313-25.824219 10.695313c-10.085937 0-19.21875-4.085938-25.828125-10.695313s-10.699219-15.742187-10.699219-25.828125c0-5.925781 1.421875-11.523437 3.941407-16.476562h-69.585938c2.507812 4.949219 3.921875 10.550781 3.921875 16.476562 0 10.085938-4.089844 19.21875-10.695313 25.828125-6.609374 6.609375-15.742187 10.695313-25.824218 10.695313-10.085938 0-19.21875-4.085938-25.828125-10.695313s-10.695313-15.742187-10.695313-25.828125c0-10.082031 4.085938-19.214843 10.695313-25.824219 4.949219-4.949218 11.316406-8.488281 18.4375-9.949218-17.949219-54.972656-35.902344-109.941406-53.851563-164.914063h-30.292968c-5.535157 0-10.019532-4.488281-10.019532-10.023437s4.484375-10.019532 10.019532-10.019532l37.542968.015626c4.21875 0 8.140625 2.6875 9.511719 6.914062l10.058594 30.800781h58.640625c5.535156 0 10.019531 4.484375 10.019531 10.023438 0 5.535156-4.484375 10.019531-10.019531 10.019531h-52.097656zm0 0" data-original="#000000" class="" style="fill:#000000" data-old_color="#18B35C"/></g></g> </svg>
