<svg xmlns="http://www.w3.org/2000/svg" xmlns:xlink="http://www.w3.org/1999/xlink" version="1.1" id="Capa_1" x="0px" y="0px" viewBox="0 0 512 512" style="enable-background:new 0 0 512 512;" xml:space="preserve" width="512" height="512" class=""><g><path style="fill:#18B35C" d="M512,68.149v375.702c0,11.717-9.528,21.245-21.235,21.245H21.235C9.528,465.096,0,455.568,0,443.851  V68.149c0-11.717,9.528-21.245,21.235-21.245h469.53C502.472,46.904,512,56.432,512,68.149z" data-original="#D9FFFE" class="" data-old_color="#18b35c"></path><path style="fill:#115BAA" d="M512,68.149v375.702c0,11.717-9.528,21.245-21.235,21.245H254.56V46.904h236.205  C502.472,46.904,512,56.432,512,68.149z" data-original="#9BFCFF" class="" data-old_color="#115baa"></path><path style="fill:#FF52A0;" d="M71.053,126.225c-0.49,0-0.99-0.03-1.479-0.08c-0.49-0.04-0.971-0.12-1.46-0.21  c-0.471-0.1-0.95-0.22-1.421-0.36c-0.47-0.15-0.93-0.31-1.38-0.5c-0.449-0.19-0.899-0.4-1.33-0.63c-0.43-0.23-0.859-0.48-1.26-0.75  c-0.41-0.27-0.81-0.57-1.189-0.87c-0.38-0.32-0.75-0.65-1.091-0.99c-0.35-0.35-0.68-0.72-0.989-1.1  c-0.311-0.38-0.601-0.78-0.88-1.19c-0.271-0.4-0.521-0.83-0.75-1.26c-0.23-0.43-0.44-0.87-0.631-1.32  c-0.18-0.46-0.35-0.92-0.489-1.39c-0.141-0.46-0.271-0.94-0.36-1.42c-0.1-0.48-0.17-0.97-0.22-1.46c-0.05-0.49-0.08-0.98-0.08-1.47  s0.03-0.99,0.08-1.48c0.05-0.48,0.12-0.97,0.22-1.45c0.09-0.48,0.22-0.96,0.36-1.43c0.14-0.46,0.31-0.93,0.489-1.38  c0.19-0.45,0.4-0.9,0.631-1.33c0.229-0.43,0.479-0.85,0.75-1.26c0.279-0.41,0.569-0.81,0.88-1.18c0.31-0.38,0.64-0.75,0.989-1.1  c0.341-0.34,0.711-0.68,1.091-0.99c0.38-0.31,0.779-0.6,1.189-0.87c0.4-0.27,0.83-0.53,1.26-0.76c0.431-0.23,0.881-0.44,1.33-0.62  c0.45-0.19,0.91-0.36,1.38-0.5c0.471-0.14,0.95-0.26,1.421-0.36c0.489-0.1,0.97-0.17,1.46-0.22c0.979-0.1,1.97-0.1,2.948,0  c0.49,0.05,0.98,0.12,1.46,0.22c0.471,0.1,0.95,0.22,1.421,0.36c0.47,0.14,0.93,0.31,1.38,0.5c0.449,0.18,0.899,0.39,1.33,0.62  c0.43,0.23,0.859,0.49,1.26,0.76c0.41,0.27,0.81,0.56,1.189,0.87c0.379,0.31,0.75,0.65,1.091,0.99c0.35,0.35,0.68,0.72,0.989,1.1  c0.311,0.37,0.61,0.77,0.88,1.18c0.271,0.41,0.521,0.83,0.75,1.26c0.23,0.43,0.44,0.88,0.631,1.33c0.18,0.45,0.35,0.92,0.489,1.38  c0.141,0.47,0.271,0.95,0.36,1.43c0.1,0.48,0.17,0.97,0.22,1.45c0.05,0.49,0.08,0.99,0.08,1.48c0,0.49-0.03,0.98-0.08,1.47  c-0.05,0.49-0.12,0.98-0.22,1.46c-0.09,0.48-0.22,0.96-0.36,1.42c-0.14,0.47-0.31,0.93-0.489,1.39c-0.19,0.45-0.4,0.89-0.631,1.32  c-0.229,0.43-0.479,0.86-0.75,1.26c-0.27,0.41-0.569,0.81-0.88,1.19c-0.31,0.38-0.64,0.75-0.989,1.1  c-0.341,0.34-0.711,0.67-1.091,0.99c-0.38,0.3-0.779,0.6-1.189,0.87c-0.4,0.27-0.83,0.52-1.26,0.75  c-0.431,0.23-0.881,0.44-1.33,0.63c-0.45,0.19-0.91,0.35-1.38,0.5c-0.471,0.14-0.95,0.26-1.421,0.36  c-0.479,0.09-0.97,0.17-1.46,0.21C72.033,126.195,71.533,126.225,71.053,126.225z" data-original="#FF52A0"></path><path style="fill:#FFA81F;" d="M113.044,126.225c-0.49,0-0.99-0.03-1.479-0.08c-0.49-0.04-0.971-0.12-1.46-0.21  c-0.471-0.1-0.95-0.22-1.421-0.36c-0.47-0.15-0.93-0.31-1.38-0.5c-0.449-0.19-0.899-0.4-1.33-0.63c-0.43-0.23-0.85-0.48-1.26-0.75  c-0.41-0.27-0.81-0.57-1.189-0.88c-0.379-0.31-0.74-0.64-1.091-0.99c-0.35-0.34-0.68-0.71-0.989-1.09  c-0.311-0.38-0.601-0.78-0.88-1.19c-0.261-0.4-0.521-0.83-0.75-1.26c-0.23-0.43-0.44-0.87-0.62-1.32c-0.19-0.46-0.36-0.92-0.5-1.39  c-0.141-0.46-0.261-0.94-0.36-1.42s-0.17-0.97-0.22-1.46s-0.07-0.98-0.07-1.47s0.021-0.99,0.07-1.48c0.05-0.48,0.12-0.97,0.22-1.45  c0.1-0.48,0.22-0.96,0.36-1.43c0.14-0.46,0.31-0.93,0.5-1.38c0.18-0.45,0.39-0.9,0.62-1.33c0.229-0.43,0.489-0.85,0.75-1.26  c0.279-0.41,0.569-0.8,0.88-1.18c0.31-0.38,0.64-0.75,0.989-1.1c0.351-0.34,0.711-0.68,1.091-0.99s0.779-0.6,1.189-0.87  c0.41-0.27,0.83-0.53,1.26-0.76c0.431-0.22,0.881-0.44,1.33-0.62c0.45-0.19,0.91-0.36,1.38-0.5c0.471-0.14,0.95-0.26,1.421-0.36  c0.489-0.09,0.97-0.17,1.46-0.22c0.979-0.1,1.97-0.1,2.948,0c0.49,0.05,0.98,0.13,1.46,0.22c0.471,0.1,0.95,0.22,1.421,0.36  c0.47,0.14,0.93,0.31,1.38,0.5c0.449,0.18,0.899,0.4,1.33,0.62c0.43,0.23,0.859,0.49,1.26,0.76c0.41,0.27,0.81,0.56,1.189,0.87  c0.379,0.31,0.74,0.65,1.091,0.99c0.35,0.35,0.68,0.72,0.989,1.1c0.311,0.38,0.601,0.77,0.88,1.18c0.271,0.41,0.521,0.83,0.75,1.26  c0.23,0.43,0.44,0.88,0.631,1.33c0.18,0.45,0.35,0.92,0.489,1.38c0.141,0.47,0.271,0.95,0.36,1.43c0.1,0.48,0.17,0.97,0.22,1.45  c0.05,0.49,0.08,0.99,0.08,1.48c0,0.49-0.03,0.98-0.08,1.47c-0.05,0.49-0.12,0.98-0.22,1.46c-0.09,0.48-0.22,0.96-0.36,1.42  c-0.14,0.47-0.31,0.93-0.489,1.39c-0.19,0.45-0.4,0.89-0.631,1.32c-0.229,0.43-0.479,0.86-0.75,1.26  c-0.279,0.41-0.569,0.81-0.88,1.19c-0.31,0.38-0.64,0.75-0.989,1.09c-0.351,0.35-0.711,0.68-1.091,0.99  c-0.38,0.31-0.779,0.61-1.189,0.88c-0.4,0.27-0.83,0.52-1.26,0.75c-0.431,0.23-0.881,0.44-1.33,0.63c-0.45,0.19-0.91,0.35-1.38,0.5  c-0.471,0.14-0.95,0.26-1.421,0.36c-0.479,0.09-0.97,0.17-1.46,0.21C114.023,126.195,113.523,126.225,113.044,126.225z" data-original="#FFA81F"></path><g>
	<path style="fill:#00E7F0;" d="M156.033,126.225c-0.49,0-0.99-0.03-1.479-0.07c-0.49-0.05-0.971-0.13-1.46-0.22   c-0.471-0.1-0.95-0.22-1.421-0.36c-0.47-0.15-0.93-0.31-1.38-0.5c-0.449-0.19-0.899-0.4-1.33-0.63c-0.43-0.23-0.85-0.48-1.26-0.75   c-0.41-0.27-0.81-0.57-1.189-0.88c-0.379-0.31-0.75-0.64-1.091-0.99c-0.35-0.34-0.68-0.71-0.989-1.09   c-0.311-0.38-0.601-0.78-0.88-1.19c-0.271-0.4-0.521-0.83-0.75-1.26c-0.23-0.43-0.44-0.87-0.631-1.32   c-0.18-0.46-0.35-0.92-0.489-1.39c-0.141-0.46-0.271-0.94-0.36-1.42c-0.1-0.48-0.17-0.97-0.22-1.46c-0.05-0.49-0.08-0.98-0.08-1.47   s0.03-0.99,0.08-1.48c0.05-0.48,0.12-0.97,0.22-1.45c0.09-0.48,0.22-0.96,0.36-1.43c0.14-0.46,0.31-0.93,0.489-1.38   c0.19-0.45,0.4-0.9,0.631-1.33c0.229-0.43,0.479-0.85,0.75-1.26c0.279-0.41,0.569-0.8,0.88-1.18c0.31-0.38,0.64-0.75,0.989-1.1   c0.341-0.34,0.711-0.68,1.091-0.99c0.38-0.31,0.779-0.6,1.189-0.87c0.41-0.27,0.83-0.53,1.26-0.76c0.431-0.23,0.881-0.44,1.33-0.62   c0.45-0.19,0.91-0.36,1.38-0.5c0.471-0.14,0.95-0.26,1.421-0.36c0.489-0.1,0.97-0.17,1.46-0.22c0.979-0.1,1.97-0.1,2.948,0   c0.49,0.05,0.98,0.12,1.46,0.22c0.471,0.1,0.95,0.22,1.421,0.36c0.47,0.14,0.93,0.31,1.38,0.5c0.449,0.18,0.899,0.39,1.33,0.62   c0.43,0.23,0.859,0.49,1.26,0.76c0.41,0.27,0.81,0.56,1.189,0.87c0.379,0.31,0.75,0.65,1.091,0.99c0.35,0.35,0.68,0.72,0.989,1.1   c0.311,0.38,0.601,0.77,0.88,1.18c0.271,0.41,0.521,0.83,0.75,1.26c0.23,0.43,0.44,0.88,0.631,1.33c0.18,0.45,0.35,0.92,0.489,1.38   c0.15,0.47,0.271,0.95,0.36,1.43c0.1,0.48,0.17,0.97,0.22,1.45c0.05,0.49,0.08,0.99,0.08,1.48c0,0.49-0.03,0.98-0.08,1.47   c-0.05,0.49-0.12,0.98-0.22,1.46c-0.09,0.48-0.21,0.96-0.36,1.42c-0.14,0.47-0.31,0.93-0.489,1.39c-0.19,0.45-0.4,0.89-0.631,1.32   c-0.229,0.43-0.479,0.86-0.75,1.26c-0.279,0.41-0.569,0.81-0.88,1.19c-0.31,0.38-0.64,0.75-0.989,1.09   c-0.341,0.35-0.711,0.68-1.091,0.99c-0.38,0.31-0.779,0.61-1.189,0.88c-0.4,0.27-0.83,0.52-1.26,0.75   c-0.431,0.23-0.881,0.44-1.33,0.63c-0.45,0.19-0.91,0.35-1.38,0.5c-0.471,0.14-0.95,0.26-1.421,0.36   c-0.479,0.09-0.97,0.17-1.46,0.22C157.013,126.195,156.513,126.225,156.033,126.225z" data-original="#00E7F0"></path>
	<path style="fill:#00E7F0;" d="M439.042,126.223H261.963c-8.282,0-14.996-6.714-14.996-14.996s6.714-14.996,14.996-14.996h177.079   c8.282,0,14.996,6.714,14.996,14.996S447.324,126.223,439.042,126.223z" data-original="#00E7F0"></path>
</g><g>
	<path style="fill:#FFFFFF" d="M68.179,227.457c0-2.279,0.794-4.223,2.381-5.826c1.589-1.604,3.574-2.404,5.957-2.404   c2.237,0,4.168,0.82,5.794,2.458c1.624,1.641,2.437,3.563,2.437,5.772c0,2.209-0.813,4.134-2.437,5.772   c-1.626,1.641-3.556,2.458-5.794,2.458c-2.31,0-4.277-0.818-5.901-2.458C68.99,231.591,68.179,229.666,68.179,227.457z" data-original="#00A5FF" class="active-path" data-old_color="#ffffff"></path>
	<path style="fill:#FFFFFF" d="M91.907,210.461v-28.325c0-8.693,2.368-15.071,7.108-19.135c4.738-4.062,10.919-6.093,18.546-6.093   c7.838,0,14.27,1.89,19.293,5.665c5.024,3.778,7.536,8.979,7.536,15.606c0,3.064-0.642,5.149-1.925,6.253   c-1.283,1.106-3.42,1.657-6.413,1.657c-5.345,0-8.124-1.674-8.338-5.023c-0.213-6.413-3.385-9.621-9.513-9.621   c-6.413,0-9.621,3.564-9.621,10.689v28.325c0,7.127,3.242,10.688,9.727,10.688c1.995,0,3.651-0.32,4.971-0.962   c1.318-0.642,2.261-1.62,2.832-2.939c0.57-1.317,0.944-2.404,1.123-3.26c0.177-0.855,0.337-2.031,0.48-3.527   c0.284-3.349,3.028-5.023,8.231-5.023c3.062,0,5.237,0.553,6.519,1.657c1.283,1.105,1.925,3.189,1.925,6.253   c0,6.913-2.512,12.364-7.536,16.354c-5.023,3.991-11.455,5.986-19.293,5.986c-7.626,0-13.808-2.031-18.546-6.094   C94.276,225.533,91.907,219.157,91.907,210.461z" data-original="#00A5FF" class="active-path" data-old_color="#ffffff"></path>
	<path style="fill:#FFFFFF" d="M151.979,210.461v-28.325c0-8.693,2.387-15.071,7.161-19.135c4.773-4.062,11.117-6.093,19.027-6.093   c7.98,0,14.359,2.031,19.134,6.093c4.773,4.062,7.162,10.441,7.162,19.135v28.325c0,8.695-2.389,15.071-7.162,19.134   c-4.774,4.062-11.152,6.094-19.134,6.094c-7.909,0-14.254-2.031-19.027-6.094C154.367,225.533,151.979,219.157,151.979,210.461z    M168.654,210.461c0,7.127,3.17,10.688,9.514,10.688c6.413,0,9.62-3.562,9.62-10.688v-28.325c0-7.125-3.206-10.689-9.62-10.689   c-6.344,0-9.514,3.564-9.514,10.689V210.461z" data-original="#00A5FF" class="active-path" data-old_color="#ffffff"></path>
	<path style="fill:#FFFFFF" d="M215.152,229.915v-64.669c0-2.85,0.802-4.953,2.404-6.308c1.604-1.354,3.581-2.031,5.934-2.031   c3.206,0,5.646,0.481,7.321,1.443c1.674,0.962,3.544,3.26,5.612,6.894l11.009,19.24l11.01-19.24   c2.066-3.635,3.937-5.934,5.612-6.894c1.674-0.962,4.115-1.443,7.321-1.443c2.352,0,4.329,0.678,5.934,2.031   c1.604,1.354,2.404,3.457,2.404,6.308v64.669c0,1.641-0.82,2.904-2.458,3.794c-1.641,0.893-3.6,1.337-5.88,1.337   c-2.28,0-4.24-0.444-5.879-1.337c-1.641-0.89-2.458-2.154-2.458-3.794v-40.085l-10.262,17.53c-1.213,2.068-3.065,3.1-5.56,3.1   c-2.423,0-4.168-1.032-5.237-3.1l-10.155-18.6v41.153c0,1.641-0.82,2.904-2.458,3.794c-1.641,0.893-3.599,1.337-5.879,1.337   c-2.281,0-4.241-0.444-5.88-1.337C215.969,232.82,215.152,231.556,215.152,229.915z" data-original="#00A5FF" class="active-path" data-old_color="#ffffff"></path>
	<path style="fill:#FFFFFF" d="M242.849,318.215c0-2.279,0.794-4.223,2.381-5.826c1.589-1.604,3.574-2.404,5.957-2.404   c2.237,0,4.168,0.82,5.794,2.458c1.624,1.641,2.437,3.563,2.437,5.772c0,2.209-0.813,4.134-2.437,5.772   c-1.626,1.641-3.556,2.458-5.794,2.458c-2.31,0-4.277-0.818-5.901-2.458C243.66,322.349,242.849,320.425,242.849,318.215z" data-original="#00A5FF" class="active-path" data-old_color="#ffffff"></path>
	<path style="fill:#FFFFFF" d="M266.578,301.219v-28.325c0-8.693,2.387-15.071,7.161-19.135c4.773-4.062,11.117-6.093,19.027-6.093   c7.98,0,14.359,2.031,19.134,6.093c4.773,4.062,7.162,10.441,7.162,19.135v28.325c0,8.695-2.389,15.072-7.162,19.134   c-4.774,4.062-11.152,6.094-19.134,6.094c-7.909,0-14.254-2.031-19.027-6.094C268.965,316.291,266.578,309.914,266.578,301.219z    M283.253,301.219c0,7.127,3.17,10.689,9.514,10.689c6.413,0,9.62-3.562,9.62-10.689v-28.325c0-7.125-3.206-10.689-9.62-10.689   c-6.344,0-9.514,3.564-9.514,10.689V301.219z" data-original="#00A5FF" class="active-path" data-old_color="#ffffff"></path>
	<path style="fill:#FFFFFF" d="M329.75,320.674v-67.982c0-1.354,0.481-2.528,1.443-3.527c0.962-0.998,2.19-1.497,3.687-1.497   h22.127c17.53,0,26.295,7.626,26.295,22.875c0,11.116-4.312,18.35-12.934,21.699l13.041,23.622c0.355,0.5,0.534,1.142,0.534,1.925   c0,2.068-1.122,4.026-3.366,5.879c-2.245,1.854-4.615,2.779-7.108,2.779c-2.495,0-4.275-1.032-5.345-3.1l-14.644-28.432h-7.055   v25.761c0,1.641-0.82,2.904-2.458,3.794c-1.641,0.893-3.599,1.337-5.879,1.337c-2.281,0-4.241-0.444-5.88-1.337   C330.568,323.578,329.75,322.313,329.75,320.674z M346.424,282.086h10.582c3.135,0,5.521-0.765,7.161-2.298   c1.639-1.531,2.458-4.078,2.458-7.643c0-3.562-0.82-6.109-2.458-7.643c-1.641-1.531-4.026-2.298-7.161-2.298h-10.582V282.086z" data-original="#00A5FF" class="active-path" data-old_color="#ffffff"></path>
	<path style="fill:#FFFFFF" d="M391.318,301.219v-28.325c0-8.693,2.368-15.071,7.108-19.135c4.738-4.062,10.919-6.093,18.546-6.093   c7.838,0,14.27,1.89,19.293,5.665c5.024,3.778,7.536,8.979,7.536,15.606c0,3.064-0.642,5.149-1.925,6.253   c-1.283,1.106-3.42,1.657-6.414,1.657c-5.488,0-8.268-1.674-8.338-5.023c0-0.997-0.036-1.834-0.106-2.512   c-0.072-0.677-0.286-1.514-0.642-2.512c-0.357-0.997-0.855-1.78-1.497-2.351c-0.642-0.57-1.587-1.086-2.832-1.551   c-1.248-0.463-2.726-0.695-4.436-0.695c-6.414,0-9.621,3.564-9.621,10.689v28.325c0,7.127,3.17,10.689,9.514,10.689   c6.413,0,9.62-3.562,9.62-10.689v-3.634h-6.307c-1.568,0-2.797-0.623-3.687-1.871c-0.893-1.246-1.337-2.761-1.337-4.543   c0-1.639,0.463-3.116,1.391-4.437c0.925-1.317,2.138-1.978,3.634-1.978h17.958c1.567,0,2.796,0.518,3.687,1.551   s1.337,2.262,1.337,3.687v11.223c0,8.695-2.389,15.072-7.162,19.134c-4.774,4.062-11.152,6.094-19.134,6.094   c-7.909,0-14.254-2.031-19.027-6.094C393.705,316.291,391.318,309.914,391.318,301.219z" data-original="#00A5FF" class="active-path" data-old_color="#ffffff"></path>
	<path style="fill:#FFFFFF" d="M68.355,410.414c0-2.279,0.794-4.223,2.381-5.826c1.589-1.604,3.574-2.404,5.957-2.404   c2.237,0,4.168,0.82,5.794,2.458c1.624,1.641,2.437,3.563,2.437,5.772c0,2.209-0.813,4.134-2.437,5.772   c-1.626,1.641-3.556,2.458-5.794,2.458c-2.31,0-4.277-0.818-5.901-2.458C69.166,414.548,68.355,412.623,68.355,410.414z" data-original="#00A5FF" class="active-path" data-old_color="#ffffff"></path>
	<path style="fill:#FFFFFF" d="M92.083,393.418v-28.325c0-8.693,2.387-15.071,7.161-19.135c4.773-4.062,11.117-6.093,19.027-6.093   c7.98,0,14.359,2.031,19.134,6.093c4.773,4.062,7.162,10.441,7.162,19.135v28.325c0,8.695-2.389,15.072-7.162,19.134   c-4.774,4.062-11.152,6.094-19.134,6.094c-7.909,0-14.254-2.031-19.027-6.094C94.471,408.49,92.083,402.114,92.083,393.418z    M108.759,393.418c0,7.127,3.17,10.689,9.514,10.689c6.413,0,9.62-3.562,9.62-10.689v-28.325c0-7.125-3.206-10.689-9.62-10.689   c-6.344,0-9.514,3.564-9.514,10.689V393.418z" data-original="#00A5FF" class="active-path" data-old_color="#ffffff"></path>
	<path style="fill:#FFFFFF" d="M155.256,412.872V344.89c0-1.354,0.481-2.528,1.443-3.527c0.962-0.998,2.19-1.497,3.687-1.497   h22.127c17.53,0,26.295,7.626,26.295,22.875c0,11.116-4.312,18.35-12.934,21.699l13.041,23.622c0.355,0.5,0.534,1.142,0.534,1.925   c0,2.068-1.122,4.026-3.366,5.879c-2.245,1.854-4.615,2.779-7.108,2.779c-2.495,0-4.275-1.032-5.345-3.1l-14.644-28.432h-7.055   v25.761c0,1.641-0.82,2.904-2.458,3.794c-1.641,0.893-3.599,1.337-5.879,1.337c-2.281,0-4.241-0.444-5.88-1.337   C156.073,415.778,155.256,414.513,155.256,412.872z M171.93,374.285h10.583c3.135,0,5.521-0.765,7.161-2.298   c1.639-1.531,2.458-4.078,2.458-7.643c0-3.562-0.82-6.109-2.458-7.643c-1.641-1.531-4.026-2.298-7.161-2.298H171.93V374.285z" data-original="#00A5FF" class="active-path" data-old_color="#ffffff"></path>
	<path style="fill:#FFFFFF" d="M216.824,393.418v-28.325c0-8.693,2.368-15.071,7.108-19.135c4.738-4.062,10.919-6.093,18.546-6.093   c7.838,0,14.27,1.89,19.293,5.665c5.024,3.778,7.536,8.979,7.536,15.606c0,3.064-0.642,5.149-1.925,6.253   c-1.283,1.106-3.42,1.657-6.414,1.657c-5.488,0-8.268-1.674-8.338-5.023c0-0.997-0.036-1.834-0.106-2.512   c-0.072-0.677-0.286-1.514-0.642-2.512c-0.357-0.997-0.855-1.78-1.497-2.351c-0.642-0.57-1.587-1.086-2.832-1.551   c-1.248-0.463-2.726-0.695-4.436-0.695c-6.413,0-9.621,3.564-9.621,10.689v28.325c0,7.127,3.17,10.689,9.514,10.689   c6.413,0,9.62-3.562,9.62-10.689v-3.634h-6.307c-1.568,0-2.797-0.623-3.687-1.871c-0.893-1.246-1.337-2.761-1.337-4.543   c0-1.639,0.463-3.116,1.391-4.437c0.925-1.317,2.138-1.978,3.634-1.978h17.958c1.567,0,2.796,0.518,3.687,1.551   s1.337,2.262,1.337,3.687v11.223c0,8.695-2.389,15.072-7.162,19.134c-4.774,4.062-11.152,6.094-19.134,6.094   c-7.909,0-14.254-2.031-19.027-6.094C219.211,408.49,216.824,402.114,216.824,393.418z" data-original="#00A5FF" class="active-path" data-old_color="#ffffff"></path>
</g></g> </svg>