<svg xmlns="http://www.w3.org/2000/svg" width="512" height="512"><path d="M76 163l-66 53v245c0 22.644 18.356 41 41 41h410c22.644 0 41-18.356 41-41V216l-66-51.397" data-original="#72D8FF" data-old_color="#115baa" fill="#115baa"/><path data-original="#EDF2FA" fill="#edf2fa" d="M80 10h352v381.06H80z"/><path d="M323 395.59H183.527L10 216v245c0 22.644 18.356 41 41 41h410c22.644 0 41-18.356 41-41V216L323 395.59z" data-original="#FEDA9B" data-old_color="#07C358" fill="#07c458"/><path d="M44.055 495l144.986-131.709c37.975-34.497 95.944-34.497 133.919 0L467.945 495H44.055z" data-original="#FFB954" data-old_color="#18b35c" fill="#18b35c"/><path d="M357.71 130.09c12.694-12.694 12.694-33.275 0-45.969s-33.275-12.694-45.969 0l45.969 45.969zM251.732 252.317l-37.642 37.642c-17.169 17.169-45.004 17.169-62.173 0-17.169-17.169-17.169-45.004 0-62.173l37.642-37.642 62.173 62.173z" data-original="#FF5D5D" class="active-path" data-old_color="#FF5D5D" fill="#07c458"/><path data-original="#6A80FF" fill="#6a80ff" d="M251.744 252.336l44.056 44.056-26.754 26.755-44.072-44.072z"/><path data-original="#4DBAF6" data-old_color="#115baa" fill="#115baa" d="M251.744 252.336l-62.185-62.192 68.149-160.057 154.036 154.036z"/><path data-original="#FFFFFF" fill="#fff" d="M370.683 201.628l41.061-17.505L257.708 30.087l-17.49 41.077z"/><path d="M190.93 58.93A10.076 10.076 0 0 0 188 66c0 2.63 1.07 5.21 2.93 7.069C192.79 74.93 195.37 76 198 76s5.21-1.07 7.07-2.931C206.93 71.21 208 68.63 208 66s-1.07-5.21-2.93-7.07S200.63 56 198 56s-5.21 1.069-7.07 2.93zM120.875 76h40.173c5.523 0 10-4.478 10-10s-4.477-10-10-10h-40.173c-5.523 0-10 4.478-10 10s4.477 10 10 10zm0 56h48.194c5.523 0 10-4.478 10-10s-4.477-10-10-10h-48.194c-5.523 0-10 4.478-10 10s4.477 10 10 10z" data-original="#000000"/><path d="M508.14 208.118l.004-.008-66-51.397c-.047-.036-.097-.065-.144-.101V146c0-5.522-4.477-10-10-10s-10 4.478-10 10v135.667c0 .061.008.12.009.181l-82.745 82.745-9.581-8.703c-14.974-13.604-33.221-22.673-52.776-26.462l25.964-25.964c3.905-3.905 3.905-10.237 0-14.143l-33.59-33.591 146.384-62.408a10.002 10.002 0 0 0 3.149-16.271l-47.799-47.8c4.046-6.603 6.215-14.207 6.215-22.147 0-11.354-4.421-22.027-12.449-30.056-8.028-8.028-18.702-12.449-30.056-12.449-7.94 0-15.544 2.169-22.147 6.215l-47.8-47.8a10 10 0 0 0-16.272 3.153l-67.391 158.275-36.272 36.271c-10.192 10.192-15.806 23.744-15.806 38.158s5.614 27.965 15.806 38.157c10.192 10.192 23.744 15.806 38.158 15.806s27.965-5.613 38.157-15.806l3.814-3.814 34.254 34.254c-1.074-.031-2.15-.053-3.228-.053-27.305 0-53.473 10.111-73.684 28.472l-9.581 8.703-82.745-82.745c.001-.061.009-.12.009-.182V20h111.987c5.523 0 10-4.478 10-10s-4.477-10-10-10H80c-5.523 0-10 4.478-10 10v145.014c-.086.065-.177.121-.261.189l-66 53 .002.005A9.975 9.975 0 0 0 0 216v245c0 28.121 22.878 51 51 51h410c28.122 0 51-22.879 51-51V216a9.973 9.973 0 0 0-3.86-7.882zM243.618 88.706l109.528 109.528-99.104 42.252-52.637-52.637 42.213-99.143zm91.108-4.105a22.359 22.359 0 0 1 15.914 6.592 22.356 22.356 0 0 1 6.591 15.913c0 2.48-.42 4.891-1.187 7.176L327.55 85.787a22.51 22.51 0 0 1 7.176-1.186zm-73.618-36.972l43.55 43.55.012.014c.004.005.009.008.014.012l45.955 45.955.001.002.002.001 43.566 43.566-21.23 9.051L252.065 68.867l9.043-21.238zm-78.105 245.207c-9.072 0-17.601-3.533-24.016-9.948-6.415-6.414-9.948-14.943-9.948-24.015 0-9.072 3.533-17.601 9.948-24.016l30.571-30.571 48.029 48.034-30.569 30.568c-6.414 6.415-14.943 9.948-24.015 9.948zm68.725-26.373l29.93 29.93-12.612 12.611-29.93-29.93 12.612-12.611zM442 181.949l44.924 34.984L442 261.857v-79.908zM195.765 370.692c34.34-31.195 86.131-31.195 120.471 0L449.77 492H62.23l33.024-30h73.403c5.523 0 10-4.478 10-10s-4.477-10-10-10H117.27l78.495-71.308zM70 180.643v81.215l-45.043-45.043L70 180.643zM20 461V240.143l137.915 137.914L37.331 487.599c-.283.257-.544.53-.791.81C26.713 483.204 20 472.874 20 461zm455.46 27.409a10.055 10.055 0 0 0-.791-.81L354.086 378.057 492 240.143V461c0 11.874-6.713 22.204-16.54 27.409zM392 60.792a9.97 9.97 0 0 0 7.071-2.929l40.396-40.396c3.905-3.905 3.905-10.237 0-14.143-3.905-3.904-10.237-3.904-14.142 0L384.929 43.72c-3.905 3.905-3.905 10.237 0 14.143A9.972 9.972 0 0 0 392 60.792zm-37.588-20.705c5.523 0 10-4.478 10-10V10c0-5.522-4.477-10-10-10s-10 4.478-10 10v20.087c0 5.522 4.477 10 10 10zm78.276 37.434h-20.759c-5.523 0-10 4.478-10 10s4.477 10 10 10h20.759c5.523 0 10-4.478 10-10s-4.477-10-10-10z" data-original="#000000"/><path d="M209.66 462c2.63 0 5.2-1.07 7.07-2.931 1.86-1.859 2.93-4.439 2.93-7.069s-1.07-5.21-2.93-7.07a10.093 10.093 0 0 0-7.07-2.93c-2.64 0-5.21 1.069-7.08 2.93-1.86 1.86-2.92 4.44-2.92 7.07s1.06 5.21 2.92 7.069a10.114 10.114 0 0 0 7.08 2.931z" data-original="#000000"/></svg>