<svg xmlns="http://www.w3.org/2000/svg" xmlns:xlink="http://www.w3.org/1999/xlink" width="400" height="399.995"><path fill="#FFF" d="M63.707 145.849h221.67v166.665H63.707z"/><defs><path id="a" d="M0 0h400v399.995H0z"/></defs><clipPath id="b"><use xlink:href="#a" overflow="visible"/></clipPath><path clip-path="url(#b)" fill="#174F82" d="M400.001 130.302C400.001 58.432 341.568 0 269.698 0c-69.63 0-126.612 54.875-130.104 123.516h-87.02c-6.127 0-11.133 4.94-11.133 11.133V320.22L1.718 382.935c-4.545 7.97.395 17.061 9.355 17.061h326.873c9.685 0 13.703-11.265 9.355-17.061l-39.789-62.648v-65.48c54.873-16.536 92.489-66.469 92.489-124.505m-92.424 72.792V178.59h8.431c-2.304 8.891-5.136 17.126-8.431 24.504m13.373 22.332c7.245-11.989 12.911-26.548 16.862-42.885.328-1.317.726-2.503 1.054-3.886h27.536c-9.881 19.762-25.625 36.165-45.452 46.771m56.849-95.124c0 8.959-1.119 17.72-3.229 26.153h-32.014c.922-8.564 1.514-17.326 1.514-26.153 0-8.959-.461-17.721-1.446-26.153h31.816c2.109 8.367 3.359 17.128 3.359 26.153M366.208 81.95h-27.207c-.265-1.252-.659-2.371-.922-3.624-4.021-16.469-9.75-31.159-16.996-43.148 19.367 10.54 35.108 26.943 45.125 46.772m-85.442-36.825V25.231c8.498 4.348 16.864 13.636 23.715 26.548 4.547 8.497 8.498 18.643 11.397 30.171h-35.112V45.125zM63.707 145.849h221.671v166.665H63.707V145.849zm171.21-94.136c6.851-12.977 15.216-22.2 23.714-26.549v56.719H223.52c2.832-11.461 6.785-21.54 11.397-30.17m23.647 52.436v19.367H217.79c.263-6.719.658-13.241 1.449-19.367h39.325zm-40.116-68.971c-7.246 12.055-12.978 26.68-16.996 43.148-.328 1.252-.658 2.371-.923 3.624h-27.206a107.44 107.44 0 0 1 45.125-46.772m-53.49 68.971h31.883c-.724 6.324-1.12 12.846-1.251 19.367h-33.662c.459-6.587 1.448-13.042 3.03-19.367m152.763 273.647H31.362L58.7 334.713h231.816l27.205 43.083zm-21.278-254.279h-15.678V104.15h39.394c1.055 8.3 1.647 16.93 1.647 26.153 0 8.761-.527 17.457-1.647 26.152h-12.58v-21.738c-.002-6.128-5.009-11.2-11.136-11.2"/><path clip-path="url(#b)" fill="#FFF" d="M307.512 134.715v21.738h12.582c1.119-8.563 1.647-17.325 1.647-26.153 0-9.156-.659-17.786-1.647-26.152H280.7v19.367h15.678c6.126.003 11.134 5.074 11.134 11.2m-26.81-52.765h35.11c-7.378-29.051-21.013-49.538-35.11-56.784V81.95zm61.857 22.199a240.932 240.932 0 0 1 1.448 26.153c0 8.762-.526 17.456-1.515 26.153h32.015c2.042-8.366 3.229-17.061 3.229-26.153 0-9.091-1.251-17.721-3.293-26.153h-31.884m-35.047 98.945c3.294-7.312 6.127-15.481 8.434-24.505h-8.434v24.505zm13.373 22.332c19.828-10.539 35.572-27.008 45.453-46.771h-27.534c-4.085 17.983-10.147 33.86-17.919 46.771m0-190.248c7.772 12.912 13.966 28.787 17.982 46.771h27.338c-10.077-19.828-25.822-36.231-45.32-46.771m-155.993 68.971c-1.582 6.324-2.702 12.779-3.096 19.367h33.728c.132-6.588.527-13.175 1.252-19.367h-31.884zm35.505-22.199c4.02-17.983 10.146-33.859 17.983-46.771-19.433 10.539-35.308 26.942-45.256 46.771h27.273zm22.993 0h35.11V25.165c-14.163 7.247-27.733 27.734-35.11 56.785m-4.151 22.199c-.791 6.192-1.188 12.779-1.449 19.367h40.775v-19.367h-39.326z"/><path clip-path="url(#b)" fill="#56ACE0" d="M58.503 334.713L31.23 377.796h286.427l-27.338-43.083z"/><path clip-path="url(#b)" fill="#FFC10D" d="M262.981 168.049v122.199h-24.44c.856-1.582 1.383-3.426 1.383-5.336a11.047 11.047 0 0 0-11.066-11.067h-9.618l29.578-29.577c4.349-4.349 4.349-11.331 0-15.746-4.413-4.348-11.397-4.348-15.744 0L203.495 258.1v-9.617c0-6.126-4.94-11.133-11.133-11.133-6.126 0-11.132 4.94-11.132 11.133v36.429c0 1.976.526 3.755 1.383 5.335H85.777v-48.022h13.241c6.126 0 11.067-4.94 11.067-11.133 0-6.126-4.94-11.132-11.067-11.132H85.776v-22.201h35.441c6.126 0 11.133-4.94 11.133-11.132 0-6.193-4.941-11.068-11.133-11.068H85.776v-7.575h63.241c-.923 1.582-1.384 3.491-1.384 5.468 0 6.126 4.94 11.133 11.132 11.133h9.618l-29.513 29.644c-4.348 4.349-4.348 11.33 0 15.745 4.348 4.347 11.331 4.347 15.745 0l29.577-29.578v9.617h-.065c0 6.127 4.939 11.067 11.132 11.067s11.068-4.94 11.068-11.067v-36.429c0-1.975-.528-3.82-1.45-5.468h58.102v-.066h.002z"/><path clip-path="url(#b)" fill="#56ACE0" d="M280.702 104.149v19.367h15.678c6.127 0 11.133 5.007 11.133 11.199v21.739h12.582c1.119-8.564 1.646-17.326 1.646-26.153 0-9.157-.657-17.787-1.646-26.153l-39.393.001m57.046 78.26c.923-1.251 1.91-2.503 2.832-3.886h-1.776c-.397 1.384-.791 2.57-1.056 3.886m-153.556-58.892h11.331c.131-6.588.526-13.174 1.251-19.367h-8.893a83.273 83.273 0 0 0-3.689 19.367m120.223-71.738a86.25 86.25 0 0 0-23.716-6.719v36.824h35.112c-2.898-11.462-6.916-21.541-11.396-30.105m-86.692 71.738H258.5V104.15h-39.394c-.724 6.258-1.119 12.779-1.383 19.367m5.667-41.567h35.11V45.125c-8.365 1.12-16.271 3.294-23.715 6.588-4.545 8.63-8.498 18.709-11.395 30.237m-22.993 0c.265-1.251.658-2.371.924-3.624-.924 1.186-1.912 2.372-2.702 3.624h1.778zm107.115 121.144c3.294-7.312 6.127-15.481 8.434-24.505h-8.434v24.505zm43.939-98.945h-8.894a240.925 240.925 0 0 1 1.45 26.153c0 8.762-.528 17.456-1.516 26.153h8.893c2.7-8.3 4.085-17.061 4.085-26.218.001-9.157-1.449-17.853-4.018-26.088m-10.87-22.199c-.855-1.251-1.777-2.438-2.7-3.624.329 1.186.724 2.372.923 3.624h1.777z"/><path clip-path="url(#b)" fill="#174F82" d="M233.073 228.456l-29.578 29.577v-9.617c0-6.126-4.94-11.133-11.133-11.133-6.126 0-11.132 4.94-11.132 11.133v36.429c0 6.126 4.94 11.132 11.132 11.132h36.429c6.126 0 11.133-4.939 11.133-11.132 0-6.126-4.941-11.132-11.133-11.132h-9.617l29.577-29.578c4.348-4.349 4.348-11.33 0-15.745a11.114 11.114 0 0 0-15.678.066m-48.946-18.511c0 6.127 4.94 11.133 11.133 11.133 6.126 0 11.133-4.939 11.133-11.133v-36.428c0-6.127-4.941-11.133-11.133-11.133h-36.429c-6.126 0-11.133 4.94-11.133 11.133 0 6.126 4.941 11.133 11.133 11.133h9.617l-29.512 29.577c-4.348 4.349-4.348 11.33 0 15.745 4.348 4.348 11.33 4.348 15.745 0l29.577-29.578v9.617h-.131v-.066z"/></svg>