<svg xmlns="http://www.w3.org/2000/svg" height="512" viewBox="0 0 480 479" width="512"><path d="M416 152.5c-.02-51.766-41.11-94.18-92.848-95.84-20.16-35.14-60.23-53.812-100.101-46.652-39.875 7.156-70.946 38.605-77.617 78.562-.48 0-.946-.07-1.434-.07-44.184 0-80 35.816-80 80s35.816 80 80 80h176c53.02 0 96-42.98 96-96zm0 0" fill="#115baa" data-original="#66A7F6" data-old_color="#115baa"/><path d="M240 344.5h64v-64H176v64zm0 0" fill="#18b35c" data-original="#FFDA44" data-old_color="#18b35c"/><path d="M104 320.5v-24H8v48h96zm0 104H8v48h96zm88 48h96v-48h-96zm184 0h96v-48h-96zm48-128h48v-48h-96v48zm0 0" data-original="#000000" class="active-path" data-old_color="#18b35c" fill="#18b35c"/><path d="M472 352.5a8 8 0 0 0 8-8v-48a8 8 0 0 0-8-8h-96a8 8 0 0 0-8 8v16h-56v-32a8 8 0 0 0-8-8h-56v-16h72c55.914.035 101.84-44.168 103.938-100.043 2.101-55.875-40.38-103.398-96.137-107.559C305.449 13.516 264.047-5 222.77 1.938c-41.274 6.933-74.352 37.968-83.907 78.714C91.36 83.45 54.683 123.5 56.07 171.07c1.39 47.567 40.344 85.41 87.93 85.43h88v16h-56a8 8 0 0 0-8 8v32h-56v-16a8 8 0 0 0-8-8H8a8 8 0 0 0-8 8v48a8 8 0 0 0 8 8h40v64H8a8 8 0 0 0-8 8v48a8 8 0 0 0 8 8h96a8 8 0 0 0 8-8v-48a8 8 0 0 0-8-8H64v-64h40a8 8 0 0 0 8-8v-16h56v16a8 8 0 0 0 8 8h56v64h-40a8 8 0 0 0-8 8v48a8 8 0 0 0 8 8h96a8 8 0 0 0 8-8v-48a8 8 0 0 0-8-8h-40v-64h56a8 8 0 0 0 8-8v-16h56v16a8 8 0 0 0 8 8h40v64h-40a8 8 0 0 0-8 8v48a8 8 0 0 0 8 8h96a8 8 0 0 0 8-8v-48a8 8 0 0 0-8-8h-40v-64zM72.8 179.355a72.101 72.101 0 0 1 16.665-57.804A72.09 72.09 0 0 1 144.16 96.5c.192 0 1.078.055 1.23.055a7.999 7.999 0 0 0 7.891-6.68c6.102-36.648 34.59-65.504 71.16-72.066 36.57-6.563 73.317 10.578 91.782 42.82a8.01 8.01 0 0 0 6.68 4 87.608 87.608 0 0 1 62.906 29.254 87.608 87.608 0 0 1 21.925 65.816c-4.593 46.281-43.808 81.363-90.308 80.801h-171.13c-36.214.5-67.401-25.445-73.495-61.145zM96 464.5H16v-32h80zm0-128H16v-32h80zm184 128h-80v-32h80zm16-128H184v-48h112zm168 128h-80v-32h80zm-80-160h80v32h-80zm0 0" data-original="#000000" class="active-path" data-old_color="#18b35c" fill="#18b35c"/></svg>