<svg xmlns="http://www.w3.org/2000/svg" viewBox="0 0 59 59" width="512" height="512"><path d="M54.392 19H3.608A3.609 3.609 0 0 1 0 15.392V3.608A3.609 3.609 0 0 1 3.608 0h50.783A3.609 3.609 0 0 1 58 3.608v11.783A3.609 3.609 0 0 1 54.392 19z" data-original="#556080" fill="#556080"/><path d="M54.392 38H3.608A3.609 3.609 0 0 1 0 34.392V22.608A3.609 3.609 0 0 1 3.608 19h50.783A3.609 3.609 0 0 1 58 22.608v11.783A3.609 3.609 0 0 1 54.392 38z" data-original="#38454F" fill="#38454f"/><path d="M54.392 57H3.608A3.609 3.609 0 0 1 0 53.392V41.608A3.609 3.609 0 0 1 3.608 38h50.783A3.609 3.609 0 0 1 58 41.608v11.783A3.609 3.609 0 0 1 54.392 57z" data-original="#556080" fill="#556080"/><circle cx="9.5" cy="9.5" r="3.5" data-original="#8697CB" fill="#8697cb"/><circle cx="49" cy="8" r="1" data-original="#8697CB" fill="#8697cb"/><circle cx="45" cy="8" r="1" data-original="#8697CB" fill="#8697cb"/><circle cx="51" cy="11" r="1" data-original="#8697CB" fill="#8697cb"/><circle cx="47" cy="11" r="1" data-original="#8697CB" fill="#8697cb"/><circle cx="41" cy="8" r="1" data-original="#8697CB" fill="#8697cb"/><circle cx="43" cy="11" r="1" data-original="#8697CB" fill="#8697cb"/><circle cx="37" cy="8" r="1" data-original="#8697CB" fill="#8697cb"/><circle cx="39" cy="11" r="1" data-original="#8697CB" fill="#8697cb"/><circle cx="33" cy="8" r="1" data-original="#8697CB" fill="#8697cb"/><circle cx="35" cy="11" r="1" data-original="#8697CB" fill="#8697cb"/><circle cx="9.5" cy="28.5" r="3.5" data-original="#8697CB" fill="#8697cb"/><circle cx="49" cy="27" r="1" data-original="#8697CB" fill="#8697cb"/><circle cx="45" cy="27" r="1" data-original="#8697CB" fill="#8697cb"/><circle cx="51" cy="30" r="1" data-original="#8697CB" fill="#8697cb"/><circle cx="47" cy="30" r="1" data-original="#8697CB" fill="#8697cb"/><circle cx="41" cy="27" r="1" data-original="#8697CB" fill="#8697cb"/><circle cx="43" cy="30" r="1" data-original="#8697CB" fill="#8697cb"/><circle cx="37" cy="27" r="1" data-original="#8697CB" fill="#8697cb"/><circle cx="39" cy="30" r="1" data-original="#8697CB" fill="#8697cb"/><circle cx="33" cy="27" r="1" data-original="#8697CB" fill="#8697cb"/><circle cx="35" cy="30" r="1" data-original="#8697CB" fill="#8697cb"/><circle cx="9.5" cy="47.5" r="3.5" data-original="#8697CB" fill="#8697cb"/><circle cx="49" cy="46" r="1" data-original="#8697CB" fill="#8697cb"/><circle cx="45" cy="46" r="1" data-original="#8697CB" fill="#8697cb"/><circle cx="51" cy="49" r="1" data-original="#8697CB" fill="#8697cb"/><circle cx="47" cy="49" r="1" data-original="#8697CB" fill="#8697cb"/><circle cx="41" cy="46" r="1" data-original="#8697CB" fill="#8697cb"/><circle cx="43" cy="49" r="1" data-original="#8697CB" fill="#8697cb"/><circle cx="37" cy="46" r="1" data-original="#8697CB" fill="#8697cb"/><circle cx="39" cy="49" r="1" data-original="#8697CB" fill="#8697cb"/><circle cx="33" cy="46" r="1" data-original="#8697CB" fill="#8697cb"/><circle cx="35" cy="49" r="1" data-original="#8697CB" fill="#8697cb"/><circle cx="47" cy="47" r="12" data-original="#26B999" class="active-path" data-old_color="#18b35c" fill="#18b35c"/><path d="M53.571 41.179a.999.999 0 0 0-1.392.25l-5.596 8.04-3.949-3.242a.999.999 0 1 0-1.268 1.546l4.786 3.929a1.003 1.003 0 0 0 1.455-.201l6.214-8.929a1.002 1.002 0 0 0-.25-1.393z" data-original="#FFFFFF" fill="#fff"/></svg>