<svg xmlns="http://www.w3.org/2000/svg" xmlns:xlink="http://www.w3.org/1999/xlink" version="1.1" id="Capa_1" x="0px" y="0px" viewBox="0 0 496 496" style="enable-background:new 0 0 496 496;" xml:space="preserve" width="512" height="512" class=""><g><g>
	<polygon style="fill:#18B35C" points="392,360 480,360 432,424 480,488 312,488 312,360  " data-original="#92E0C0" class="" data-old_color="#18b35c"></polygon>
	<polygon style="fill:#18B35C" points="104,360 16,360 64,424 16,488 184,488 184,360  " data-original="#92E0C0" class="" data-old_color="#18b35c"></polygon>
</g><g>
	<polygon style="fill:#18B35C" points="312,488 392,424 392,416 312,416  " data-original="#FCD770" class="" data-old_color="#18b35c"></polygon>
	<polygon style="fill:#18B35C" points="184,488 104,424 104,416 184,416  " data-original="#FCD770" class="" data-old_color="#18b35c"></polygon>
</g><rect x="104" y="296" style="fill:#18B35C" width="288" height="128" data-original="#92E0C0" class="" data-old_color="#18b35c"></rect><path style="fill:#115BAA" d="M384,144c0-10-4.688-18.824-11.872-24.688c4.392-8.176,5.352-18.112,1.52-27.352  s-11.528-15.6-20.416-18.264c0.936-9.232-1.992-18.784-9.064-25.856s-16.624-10-25.856-9.064  c-2.672-8.888-9.024-16.592-18.264-20.416s-19.184-2.872-27.352,1.52C266.824,12.688,258,8,248,8s-18.824,4.688-24.688,11.872  c-8.168-4.392-18.112-5.352-27.352-1.52s-15.6,11.528-18.264,20.416c-9.232-0.936-18.784,1.992-25.856,9.064  s-10,16.624-9.064,25.856c-8.888,2.672-16.592,9.024-20.416,18.264c-3.832,9.24-2.872,19.184,1.52,27.352  C116.688,125.176,112,134,112,144s4.688,18.824,11.872,24.688c-4.392,8.168-5.352,18.112-1.52,27.352  c3.832,9.24,11.528,15.6,20.416,18.264c-0.936,9.232,1.992,18.784,9.064,25.856s16.624,10,25.856,9.064  c2.672,8.888,9.024,16.592,18.264,20.416s19.184,2.872,27.352-1.52C229.176,275.312,238,280,248,280s18.824-4.688,24.688-11.872  c8.176,4.392,18.112,5.352,27.352,1.52s15.6-11.528,18.264-20.416c9.232,0.936,18.784-1.992,25.856-9.064s10-16.624,9.064-25.856  c8.888-2.672,16.592-9.024,20.416-18.264c3.832-9.24,2.872-19.184-1.52-27.352C379.312,162.824,384,154,384,144z" data-original="#FB5968" class="active-path" data-old_color="#115baa"></path><circle style="fill:#ECECEC;" cx="248" cy="144" r="104" data-original="#ECECEC" class=""></circle><path style="fill:#B6C1CE;" d="M248,232c-54.736,0-99.496-42.312-103.592-96c-0.208,2.648-0.408,5.296-0.408,8  c0,57.44,46.56,104,104,104s104-46.56,104-104c0-2.704-0.2-5.352-0.408-8C347.496,189.688,302.736,232,248,232z" data-original="#B6C1CE" class=""></path><path d="M360,144c0-61.76-50.24-112-112-112S136,82.24,136,144s50.24,112,112,112S360,205.76,360,144z M248,240  c-52.936,0-96-43.064-96-96s43.064-96,96-96s96,43.064,96,96S300.936,240,248,240z" data-original="#000000" class="" style="fill:#000000" data-old_color="#18B35C"></path><rect x="180.119" y="132.45" transform="matrix(-0.7071 0.7071 -0.7071 -0.7071 522.6799 64.3984)" width="135.767" height="16" data-original="#000000" class="" style="fill:#000000" data-old_color="#18B35C"></rect><path d="M152,320h-24v32v16v32h24c13.232,0,24-10.768,24-24c0-6.168-2.408-11.744-6.24-16c3.84-4.256,6.24-9.832,6.24-16  C176,330.768,165.232,320,152,320z M144,336h8c4.408,0,8,3.584,8,8s-3.592,8-8,8h-8V336z M152,384h-8v-16h8c4.408,0,8,3.584,8,8  S156.408,384,152,384z" data-original="#000000" class="" style="fill:#000000" data-old_color="#18B35C"></path><polygon points="192,400 232,400 232,384 208,384 208,368 224,368 224,352 208,352 208,336 232,336 232,320 192,320 " data-original="#000000" class="" style="fill:#000000" data-old_color="#18B35C"></polygon><path d="M272,336c4.408,0,8,3.584,8,8h16c0-13.232-10.768-24-24-24s-24,10.768-24,24s10.768,24,24,24c4.408,0,8,3.584,8,8  s-3.592,8-8,8s-8-3.584-8-8h-16c0,13.232,10.768,24,24,24s24-10.768,24-24s-10.768-24-24-24c-4.408,0-8-3.584-8-8  S267.592,336,272,336z" data-original="#000000" class="" style="fill:#000000" data-old_color="#18B35C"></path><polygon points="368,320 304,320 304,336 328,336 328,400 344,400 344,336 368,336 " data-original="#000000" class="" style="fill:#000000" data-old_color="#18B35C"></polygon><path d="M496,352h-96v-64H248H96v64H0l54,72L0,496h192v-64h112v64h192l-54-72L496,352z M74,424l-42-56h64v59.84L161.192,480H32  L74,424z M176,471.352L126.808,432H176V471.352z M112,416V304h272v112H112z M369.192,432L320,471.352V432H369.192z M464,480H334.808  L400,427.84V368h64l-42,56L464,480z" data-original="#000000" class="" style="fill:#000000" data-old_color="#18B35C"></path><path d="M280,148.48c-13.232,0-24,10.768-24,24s10.768,24,24,24s24-10.768,24-24S293.232,148.48,280,148.48z M280,180.48  c-4.408,0-8-3.584-8-8s3.592-8,8-8s8,3.584,8,8S284.408,180.48,280,180.48z" data-original="#000000" class="" style="fill:#000000" data-old_color="#18B35C"></path><path d="M216,132.48c13.232,0,24-10.768,24-24s-10.768-24-24-24s-24,10.768-24,24S202.768,132.48,216,132.48z M216,100.48  c4.408,0,8,3.584,8,8s-3.592,8-8,8s-8-3.584-8-8S211.592,100.48,216,100.48z" data-original="#000000" class="" style="fill:#000000" data-old_color="#18B35C"></path><path d="M303.112,277.04c9.128-3.784,16.4-10.8,20.624-19.696c9.84-0.496,19.104-4.528,26.088-11.52  c6.984-6.984,11.024-16.248,11.52-26.088c8.896-4.216,15.912-11.504,19.688-20.624c3.784-9.136,3.968-19.24,0.664-28.512  C388.304,163.288,392,153.872,392,144s-3.696-19.288-10.296-26.592c3.304-9.272,3.12-19.384-0.664-28.512  c-3.776-9.128-10.792-16.408-19.688-20.624c-0.496-9.832-4.536-19.104-11.52-26.088c-6.992-6.992-16.256-11.032-26.096-11.52  c-4.224-8.896-11.504-15.912-20.624-19.696c-9.136-3.8-19.24-3.976-28.512-0.664C267.288,3.696,257.88,0,248,0  s-19.288,3.696-26.592,10.296c-9.288-3.312-19.384-3.136-28.512,0.664c-9.128,3.784-16.4,10.8-20.624,19.696  c-9.84,0.496-19.104,4.528-26.088,11.52c-6.984,6.984-11.024,16.248-11.52,26.088c-8.896,4.216-15.912,11.504-19.688,20.624  c-3.784,9.136-3.968,19.24-0.664,28.512C107.696,124.712,104,134.128,104,144s3.696,19.288,10.296,26.592  c-3.304,9.272-3.12,19.384,0.664,28.512c3.776,9.128,10.792,16.408,19.688,20.624c0.496,9.832,4.536,19.104,11.52,26.088  c6.992,6.992,16.256,11.032,26.096,11.52c4.224,8.896,11.504,15.912,20.624,19.696c9.128,3.784,19.232,3.968,28.512,0.664  C228.712,284.304,238.12,288,248,288s19.288-3.696,26.592-10.296C283.872,281.008,293.976,280.824,303.112,277.04z M266.496,263.064  C261.856,268.744,255.12,272,248,272s-13.856-3.256-18.496-8.936l-4.176-5.112l-5.816,3.128c-6.448,3.48-13.928,3.904-20.496,1.176  c-6.576-2.728-11.56-8.312-13.664-15.336l-1.896-6.32l-6.568,0.664c-7.28,0.72-14.352-1.728-19.392-6.76  c-5.032-5.032-7.496-12.104-6.76-19.392l0.664-6.56l-6.32-1.904c-7.016-2.112-12.608-7.088-15.336-13.664  s-2.296-14.056,1.176-20.504l3.136-5.816l-5.12-4.168C123.256,157.856,120,151.12,120,144s3.256-13.856,8.936-18.496l5.12-4.168  l-3.136-5.816c-3.472-6.456-3.904-13.928-1.176-20.504c2.72-6.576,8.312-11.552,15.336-13.664l6.32-1.904l-0.664-6.56  c-0.736-7.288,1.728-14.36,6.76-19.392s12.104-7.48,19.384-6.76l6.568,0.664l1.896-6.32c2.112-7.024,7.096-12.608,13.664-15.336  c6.568-2.736,14.048-2.304,20.496,1.176l5.816,3.128l4.176-5.112C234.144,19.256,240.88,16,248,16s13.856,3.256,18.496,8.936  l4.176,5.112l5.816-3.128c6.448-3.48,13.928-3.904,20.496-1.176s11.56,8.312,13.664,15.336l1.896,6.32l6.568-0.664  c7.264-0.72,14.352,1.728,19.392,6.76c5.032,5.032,7.496,12.104,6.76,19.392l-0.664,6.56l6.32,1.904  c7.016,2.112,12.608,7.088,15.336,13.664c2.728,6.576,2.296,14.056-1.176,20.504l-3.136,5.816l5.12,4.168  C372.744,130.144,376,136.88,376,144s-3.256,13.856-8.936,18.496l-5.12,4.168l3.136,5.816c3.472,6.456,3.904,13.928,1.176,20.504  c-2.72,6.576-8.312,11.552-15.336,13.664l-6.32,1.904l0.664,6.56c0.736,7.288-1.728,14.36-6.76,19.392s-12.12,7.48-19.384,6.76  l-6.568-0.664l-1.896,6.32c-2.112,7.024-7.096,12.608-13.664,15.336c-6.576,2.728-14.056,2.288-20.496-1.176l-5.816-3.128  L266.496,263.064z" data-original="#000000" class="" style="fill:#000000" data-old_color="#18B35C"></path></g> </svg>