<svg xmlns="http://www.w3.org/2000/svg" height="512" width="512"><path d="M256 10c-32.215 0-62.984 6.195-91.184 17.457l-9.953-17.137-39.547 68.93 79.465-.219-9.597-16.52C207.27 54.427 231.114 50 256 50c113.77 0 206 92.23 206 206s-92.23 206-206 206S50 369.77 50 256H10c0 135.863 110.137 246 246 246s246-110.137 246-246S391.863 10 256 10zm0 0" fill="#115baa" data-original="#36D28F" class="active-path" data-old_color="#115baa"/><path d="M420 256c0 90.574-73.426 164-164 164S92 346.574 92 256 165.426 92 256 92s164 73.426 164 164zm0 0" fill="#115baa" data-original="#ADE5FF" data-old_color="#115baa"/><path d="M437.02 74.98C388.668 26.63 324.379 0 256 0c-29.86 0-59.016 5.074-86.8 15.098l-5.692-9.801A10.002 10.002 0 0 0 154.863.32h-.027a10.005 10.005 0 0 0-8.645 5.024L106.645 74.27a9.998 9.998 0 0 0 8.672 14.977h.027l79.465-.216a10.007 10.007 0 0 0 8.648-5.023 10.006 10.006 0 0 0-.027-10l-3.418-5.883C218.117 62.73 236.902 60 256 60c108.074 0 196 87.926 196 196s-87.926 196-196 196S60 364.074 60 256c0-5.523-4.477-10-10-10H10c-5.523 0-10 4.477-10 10 0 68.379 26.629 132.668 74.98 181.02C123.332 485.37 187.621 512 256 512s132.668-26.629 181.02-74.98C485.37 388.668 512 324.379 512 256s-26.629-132.668-74.98-181.02zM256 492C129.223 492 25.469 391.508 20.21 266h20.017c2.441 53.941 24.605 104.305 63.039 142.734C144.062 449.531 198.305 472 256 472s111.937-22.469 152.734-63.266S472 313.695 472 256s-22.469-111.938-63.266-152.734S313.695 40 256 40c-25.488 0-50.473 4.414-74.254 13.121a9.991 9.991 0 0 0-5.965 5.992 9.98 9.98 0 0 0 .758 8.422l.895 1.543-44.825.121 22.305-38.879 1.258 2.16a9.99 9.99 0 0 0 12.351 4.262C196.348 25.632 225.777 20 256 20c130.133 0 236 105.867 236 236S386.133 492 256 492zm0 0" data-original="#000000" data-old_color="#18b35c" fill="#18b35c"/><path d="M379.035 132.965c-3.898-3.899-10.195-3.887-14.101.008-3.91 3.89-3.907 10.234-.024 14.148l.074.074a9.93 9.93 0 0 0 7.04 2.918 9.985 9.985 0 0 0 7.066-2.925c3.91-3.891 3.906-10.235.023-14.153-.011-.008-.066-.062-.078-.07zm0 0" data-original="#000000" data-old_color="#18b35c" fill="#18b35c"/><path d="M344.555 117.559c2.687-4.825.957-10.914-3.868-13.606-32.402-18.07-70.609-25.328-107.585-20.45-38.2 5.048-72.829 22.15-100.137 49.462C100.098 165.828 82 209.523 82 256s18.098 90.172 50.965 123.035C165.828 411.902 209.523 430 256 430s90.172-18.098 123.035-50.965c56.543-56.539 67.367-143.875 26.32-212.379-2.835-4.738-8.98-6.273-13.718-3.437a9.999 9.999 0 0 0-3.438 13.719c36.324 60.62 26.739 137.914-23.304 187.957C335.809 393.98 297.137 410 256 410s-79.809-16.02-108.895-45.105C118.02 335.809 102 297.137 102 256s16.02-79.809 45.105-108.895c48.461-48.46 124.06-59.02 183.844-25.683 4.824 2.687 10.914.957 13.606-3.863zm0 0" data-original="#000000" data-old_color="#18b35c" fill="#18b35c"/><path d="M266.129 136.5V129c0-5.523-4.48-10-10-10-5.524 0-10 4.477-10 10v7.5c0 5.523 4.476 10 10 10 5.52 0 10-4.477 10-10zm-20.258 239v7.5c0 5.523 4.48 10 10 10 5.524 0 10-4.477 10-10v-7.5c0-5.523-4.476-10-10-10-5.52 0-10 4.477-10 10zM365.5 256.129c0 5.52 4.477 10 10 10h7.5c5.523 0 10-4.48 10-10 0-5.524-4.477-10-10-10h-7.5c-5.523 0-10 4.476-10 10zM129 245.871c-5.523 0-10 4.48-10 10 0 5.524 4.477 10 10 10h7.5c5.523 0 10-4.476 10-10 0-5.52-4.477-10-10-10zM316 256c0-5.523-4.477-10-10-10h-45.86l-74.972-74.973c-3.902-3.906-10.234-3.906-14.14 0-3.907 3.903-3.907 10.235 0 14.141l77.902 77.902A10 10 0 0 0 256 266h50c5.523 0 10-4.477 10-10zm0 0" data-original="#000000" data-old_color="#18b35c" fill="#18b35c"/></svg>