<svg xmlns="http://www.w3.org/2000/svg" xmlns:xlink="http://www.w3.org/1999/xlink" width="400" height="399.359"><defs><path id="a" d="M0 0h400v399.359H0z"/></defs><clipPath id="b"><use xlink:href="#a" overflow="visible"/></clipPath><path clip-path="url(#b)" fill="#E1E6E8" d="M200.303 66.767c66.167 0 119.809 53.64 119.809 119.808 0 66.167-53.642 119.807-119.809 119.807S80.495 252.742 80.495 186.575c0-66.168 53.64-119.808 119.808-119.808"/><path clip-path="url(#b)" fill="#FFF" d="M303.887 97.967c-1.247-24.336-21.84-43.68-46.176-43.68h-1.247c-7.487-27.455-32.448-47.424-62.4-47.424-29.951 0-55.536 20.592-62.399 48.672-11.232-2.496-23.089.624-31.824 9.36-9.36 9.36-12.48 22.464-8.736 34.32-19.968 3.119-35.568 21.216-35.568 42.432 0 23.711 19.344 43.056 43.057 43.056h205.918c23.712 0 43.057-19.344 43.057-43.056-1.874-24.335-20.593-43.68-43.682-43.68"/><path clip-path="url(#b)" fill="#174F82" d="M302.64 189.696H96.72c-26.833 0-49.296-21.84-49.296-49.297 0-21.839 14.352-40.559 34.944-46.8-1.248-12.48 3.12-24.96 11.855-33.695 8.737-8.736 19.969-13.104 31.824-11.856C136.031 19.968 162.864 0 192.815 0c30.576 0 57.408 19.344 66.767 47.425 24.336 1.247 44.929 19.967 48.673 44.303 24.336 3.12 43.056 23.712 43.056 48.672.624 27.456-21.216 49.296-48.671 49.296M123.552 59.904c-7.488 0-14.977 3.119-20.592 8.736-7.488 7.488-9.984 18.096-7.488 28.08.624 1.872 0 3.744-.624 4.992-1.248 1.248-2.496 2.496-4.368 2.496-17.472 3.12-30.576 18.096-30.576 36.192 0 19.968 16.224 36.816 36.816 36.816h205.919c19.968 0 36.816-16.224 36.816-36.816 0-19.968-16.225-36.192-36.191-36.816-3.12 0-6.24-2.496-6.24-5.616-1.248-21.216-18.721-38.064-39.936-38.064h-1.248c-3.12 0-5.616-1.872-6.24-4.368-6.864-25.583-29.951-43.056-56.16-43.056-26.832 0-49.919 18.096-56.784 43.68-.624 3.119-4.368 4.992-7.487 4.368-1.873 0-3.745-.624-5.617-.624"/><path clip-path="url(#b)" fill="#2AA0DA" d="M345.071 132.912c-3.744-19.968-20.592-34.944-41.185-34.944-1.247-24.336-21.84-43.68-46.176-43.68h-1.247c-7.487-27.456-32.448-47.424-62.399-47.424-29.952 0-55.536 20.592-62.4 48.672-11.232-2.497-23.088.624-31.823 9.359-9.36 9.36-12.48 22.464-8.737 34.32-18.72 1.872-33.072 16.224-36.192 33.696"/><path clip-path="url(#b)" fill="#174F82" d="M54.912 139.151h-1.248c-3.12-.624-5.616-3.744-4.992-7.488C51.791 113.568 65.52 99.215 82.368 93.6c-1.248-12.48 3.119-24.961 11.855-33.696s19.968-13.105 31.824-11.856C136.031 19.968 162.863.001 192.815.001c30.576 0 57.408 19.343 66.767 47.424 24.336 1.247 44.929 19.968 48.673 44.304 20.592 2.496 38.063 18.719 41.808 39.935.624 3.12-1.872 6.864-4.993 7.488-3.119.624-6.864-1.872-7.487-4.993-3.119-16.848-18.096-29.951-35.567-29.951-3.12 0-6.24-2.496-6.24-5.616-1.247-21.216-18.72-38.064-39.936-38.064h-1.248c-3.119 0-5.617-1.872-6.239-4.368-6.865-25.584-29.952-43.056-56.161-43.056-26.832 0-49.919 18.096-56.783 43.679-.625 3.12-4.369 4.993-7.488 4.368-9.36-1.871-19.344.625-26.208 8.113-7.488 7.488-9.984 18.095-7.488 28.079.624 1.872 0 3.745-.624 4.993-1.248 1.248-2.497 2.496-4.368 2.496-14.977 2.496-27.456 14.352-29.952 29.328 1.247 3.119-1.249 4.991-4.369 4.991"/><path clip-path="url(#b)" fill="#4EBD9E" d="M219.023 362.542h174.72c0 16.849-13.728 30.576-30.576 30.576H249.6c-16.848.001-30.577-13.728-30.577-30.576"/><path clip-path="url(#b)" fill="#174F82" d="M363.792 399.359H249.6c-19.968 0-36.817-16.224-36.817-36.816 0-3.743 2.497-6.239 6.241-6.239h174.72c3.744 0 6.24 2.496 6.24 6.239.622 20.592-16.224 36.816-36.192 36.816m-137.28-30.576c2.496 9.984 11.855 18.096 23.088 18.096h114.192c11.231 0 20.592-7.487 23.088-18.096H226.512z"/><path clip-path="url(#b)" fill="#FFF" d="M239.615 270.815h134.16c5.616 0 9.984 4.368 9.984 9.983v81.745H229.632v-81.745c0-5.615 4.368-9.983 9.983-9.983"/><path clip-path="url(#b)" fill="#174F82" d="M383.76 368.782H229.632c-3.744 0-6.239-2.495-6.239-6.239v-81.744c0-9.359 7.486-16.223 16.223-16.223h134.16c9.359 0 16.224 7.487 16.224 16.223v81.744c-.001 3.744-2.497 6.239-6.24 6.239m-147.889-12.479H377.52v-75.505c0-2.496-1.872-3.743-3.744-3.743h-134.16c-2.496 0-3.744 1.872-3.744 3.743v75.505z"/><path clip-path="url(#b)" fill="#FCBD5E" d="M6.24 362.542h174.72c0 16.849-13.728 30.576-30.576 30.576H36.816c-16.848.001-30.576-13.728-30.576-30.576"/><path clip-path="url(#b)" fill="#174F82" d="M151.008 399.359H36.816C16.848 399.359 0 383.135 0 362.542c0-3.743 2.496-6.239 6.24-6.239h174.72c3.744 0 6.24 2.496 6.24 6.239.623 20.593-16.224 36.817-36.192 36.817m-137.28-30.576c2.496 9.984 11.855 18.096 23.088 18.096h114.192c11.232 0 20.592-7.487 23.088-18.096H13.728z"/><path clip-path="url(#b)" fill="#FFF" d="M26.832 270.815h134.16c5.616 0 9.984 4.368 9.984 9.983v81.745H16.848v-81.745c0-5.615 4.368-9.983 9.984-9.983"/><path clip-path="url(#b)" fill="#174F82" d="M170.977 368.782H16.849c-3.744 0-6.24-2.495-6.24-6.239v-81.744c0-9.359 7.487-16.223 16.224-16.223h134.16c9.359 0 16.223 7.487 16.223 16.223v81.744c-.001 3.744-2.497 6.239-6.239 6.239M23.088 356.303h141.647v-75.505c0-2.496-1.872-3.743-3.743-3.743H26.833c-2.496 0-3.744 1.872-3.744 3.743v75.505zM162.24 84.864h12.48v12.48h-12.48zm31.2 0h12.48v12.48h-12.48zm31.199 0h12.48v12.48h-12.48zm28.705 199.678h12.48v12.48h-12.48zm0 25.585h12.48v12.479h-12.48zm0 26.208h12.48v12.48h-12.48z"/><path clip-path="url(#b)" fill="#174F82" d="M41.808 284.542h12.48v12.48h-12.48zm0 25.585h12.48v12.479h-12.48zm0 26.208h12.48v12.48h-12.48zm327.599-59.28c-3.744 0-6.24-2.496-6.24-6.24V139.151h-18.096c-3.744 0-6.24-2.496-6.24-6.24s2.496-6.24 6.24-6.24h24.336c3.744 0 6.24 2.496 6.24 6.24v137.904c0 3.12-2.496 6.24-6.24 6.24m-339.455 0c-3.744 0-6.24-2.496-6.24-6.24V132.911c0-3.744 2.496-6.24 6.24-6.24h24.336c3.744 0 6.24 2.496 6.24 6.24s-2.496 6.24-6.24 6.24H36.192v131.664c0 3.12-2.496 6.24-6.24 6.24"/><path clip-path="url(#b)" fill="#FFF" d="M267.695 195.311v-17.472l-16.224-3.119c-1.248-5.616-3.744-11.232-6.864-16.224l9.359-13.728-12.48-12.48-13.729 9.359c-4.991-3.119-9.982-5.615-16.223-6.864l-3.119-16.223h-17.472l-3.12 16.223c-5.616 1.248-11.232 3.744-16.224 6.864l-13.728-9.359-12.48 12.48 9.36 13.728c-3.12 4.992-5.616 9.984-6.865 16.224l-14.976 3.119v17.472l16.224 3.12c1.247 5.615 3.744 11.23 6.864 16.224l-9.359 13.104 12.48 12.48 13.727-9.36c4.993 3.119 9.984 5.616 16.224 6.864l3.12 16.225h17.472l3.12-16.225c5.615-1.248 11.23-3.745 16.224-6.864l13.728 9.36 12.48-12.48-9.359-13.729c3.119-4.992 5.615-9.983 6.863-16.224l14.977-2.495z"/><path clip-path="url(#b)" fill="#174F82" d="M209.039 260.207h-17.472c-3.119 0-5.615-1.871-6.239-4.992l-2.497-12.48c-3.744-1.247-6.864-2.496-10.608-4.367l-10.608 7.487c-2.496 1.872-5.616 1.248-8.112-.624l-12.48-12.48c-1.872-1.871-2.496-5.615-.625-8.111l7.488-10.608c-1.871-3.12-3.12-6.864-4.368-10.608l-12.48-2.496c-3.12-.624-4.992-3.119-4.992-6.24V177.84c0-3.12 1.871-5.616 4.992-6.24l12.48-2.496c1.248-3.744 2.497-6.864 4.368-10.608l-7.488-10.609c-1.871-2.496-1.247-5.615.625-8.112l12.48-12.48c1.872-1.872 5.616-2.496 8.112-.624l10.608 7.488c3.12-1.872 6.864-3.12 10.608-4.368l2.497-12.48c.624-3.12 3.119-4.993 6.239-4.993h17.472c3.12 0 5.616 1.872 6.24 4.993l2.496 12.48c3.744 1.248 6.865 2.496 10.608 4.368l10.608-7.488c2.496-1.872 5.615-1.248 8.111.624l12.48 12.48c1.872 1.872 2.496 5.616.625 8.112l-8.112 11.232c1.872 3.12 3.12 6.864 4.368 10.608l12.48 2.496c3.119.625 4.992 3.12 4.992 6.24v17.472c0 3.12-1.873 5.616-4.992 6.24l-12.48 2.496c-1.248 3.743-2.496 6.864-4.368 10.608l7.487 10.607c1.872 2.496 1.248 5.616-.624 8.113l-12.479 12.479c-1.873 1.873-5.616 2.497-8.112.625l-10.608-7.488c-3.119 1.873-6.864 3.12-10.607 4.369l-2.497 12.479c0 1.247-2.496 3.744-5.616 3.744m-11.855-12.48h6.864l1.872-11.231c.625-2.496 2.496-4.369 4.992-4.992 4.992-1.248 9.984-3.12 14.352-5.616 1.873-1.248 4.993-1.248 6.865 0l9.359 6.864 4.992-4.992-6.864-9.359c-1.247-1.873-1.247-4.993 0-6.865 2.497-4.367 4.993-9.359 5.616-14.352.624-2.496 2.496-4.368 4.992-4.992l11.231-1.872v-6.864l-11.231-1.873c-2.496-.624-4.368-2.496-4.992-4.992-1.248-4.992-3.119-9.984-5.616-14.352-1.247-1.872-1.247-4.992 0-6.864l6.864-9.36-5.615-4.992-9.359 6.864c-1.873 1.248-4.993 1.248-6.865 0-4.367-2.496-9.359-4.992-14.352-5.616-2.496-.624-4.368-2.496-4.992-4.992l-1.872-11.232h-6.24l-1.872 11.232c-.624 2.496-2.496 4.368-4.992 4.992-4.992 1.248-9.984 3.12-14.352 5.616-1.872 1.248-4.993 1.248-6.865 0l-9.359-6.864-4.993 4.992 6.865 9.36c1.247 1.872 1.247 4.992 0 6.864-2.496 4.368-4.993 9.36-5.616 14.352-.625 2.496-2.496 4.368-4.993 4.992l-11.231 1.873v6.864l11.231 1.872c2.497.624 4.368 2.496 4.993 4.992 1.247 4.992 3.12 9.984 5.616 14.352 1.247 1.872 1.247 4.992 0 6.865l-6.865 9.359 4.993 4.992 9.359-6.864c1.872-1.248 4.993-1.248 6.865 0 4.368 2.496 9.36 4.992 14.352 5.616 2.496.623 4.368 2.496 4.992 4.992l1.871 11.231z"/><path clip-path="url(#b)" fill="#F05F50" d="M200.303 160.991c14.13 0 25.583 11.454 25.583 25.583 0 14.13-11.453 25.583-25.583 25.583-14.128 0-25.583-11.453-25.583-25.583 0-14.129 11.454-25.583 25.583-25.583"/></svg>