<?xml version="1.0"?>
<svg xmlns="http://www.w3.org/2000/svg" height="512px" viewBox="0 -82 511.99966 511" width="512px" class=""><g><path d="m511.90625 192.027344c-2.019531-43.074219-37.269531-77.851563-80.367188-79.324219-8.433593-.289063-16.59375.675781-24.316406 2.722656-1.777344.472657-3.476562-.894531-3.472656-2.734375 0-.011718 0-.027344 0-.039062 0-61.933594-50.214844-112.152344-112.152344-112.152344-50.671875 0-93.46875 33.613281-107.367187 79.75-1.203125 3.996094-5.253907 6.457031-9.339844 5.589844-24.148437-5.125-49.792969 3.292968-66.128906 23.320312-2.066407 2.535156-5.371094 3.636719-8.582031 3.027344-51.167969-9.703125-97.730469 28.71875-100.085938 78.804688-2.273438 48.4375 36.324219 88.429687 84.265625 88.429687h344.261719c47.375-.003906 85.527344-39.519531 83.285156-87.394531zm0 0" fill="#4b98d4" data-original="#4B98D4" class="" style="fill:#115BAA" data-old_color="#115baa"/><g fill="#2472b2"><path d="m20.699219 190.992188c1.941406-41.328126 33.988281-74.710938 73.882812-79.671876-48.921875-6-92.21875 31.421876-94.488281 79.671876-2.273438 48.4375 36.324219 88.429687 84.265625 88.429687h20.601563c-47.9375-.003906-86.535157-39.992187-84.261719-88.429687zm0 0" data-original="#000000" class=""/><path d="m195.496094 85.839844c4.085937.867187 8.132812-1.59375 9.339844-5.59375 12.949218-42.980469 50.984374-75.078125 97.097656-79.265625-3.40625-.3125-6.851563-.480469-10.335938-.480469-50.671875 0-93.46875 33.609375-107.367187 79.746094-.511719 1.703125-1.546875 3.125-2.875 4.128906 4.71875-.007812 9.457031.472656 14.140625 1.464844zm0 0" data-original="#000000" class=""/><path d="m120.785156 112.1875c3.210938.609375 6.515625-.492188 8.582032-3.027344 10.878906-13.339844 25.890624-21.519531 41.835937-23.988281-23.042969-3.5625-46.933594 4.976563-62.441406 23.988281-.492188.601563-1.058594 1.117188-1.671875 1.554688 4.507812.121094 9.082031.597656 13.695312 1.472656zm0 0" data-original="#000000" class=""/></g><path d="m361.195312 243.511719v-84.425781c0-1.949219-2.242187-3.035157-3.773437-1.828126-26.441406 20.847657-65.207031 13.457032-82.128906-16.132812-.441407-.777344-1.226563-1.164062-2.011719-1.164062v103.550781zm0 0" fill="#ffc964" data-original="#FFC964" class="" style="fill:#FFC964" data-old_color="#18B35C"/><path d="m271.269531 141.125c-16.921875 29.585938-55.683593 36.984375-82.128906 16.132812-1.53125-1.207031-3.773437-.121093-3.773437 1.828126v84.425781h87.914062v-103.550781c-.785156 0-1.570312.386718-2.011719 1.164062zm0 0" fill="#ed5454" data-original="#ED5454" class="" style="fill:#18B35C" data-old_color="#18b35c"/><path d="m273.28125 347.066406c.292969 0 .589844-.054687.867188-.164062 52.0625-20.402344 87.046874-58.160156 87.046874-101.40625v-1.984375h-87.914062zm0 0" fill="#ed5454" data-original="#ED5454" class="" style="fill:#18B35C" data-old_color="#18b35c"/><path d="m185.367188 243.511719v1.984375c0 43.246094 34.984374 81.007812 87.046874 101.40625.277344.109375.574219.164062.867188.164062v-103.554687zm0 0" fill="#ffc964" data-original="#FFC964" class="" style="fill:#FFC964" data-old_color="#18B35C"/><path d="m189.140625 157.253906c-1.53125-1.207031-3.773437-.117187-3.773437 1.832032v84.425781h20.605468v-77.1875c-6.152344-2.039063-11.839844-5.128907-16.832031-9.070313zm0 0" fill="#ea3f3f" data-original="#EA3F3F" class="active-path" style="fill:#18B35C" data-old_color="#18b35c"/><path d="m205.972656 245.496094v-1.984375h-20.605468v1.984375c0 43.246094 34.984374 81.003906 87.046874 101.40625.277344.109375.574219.164062.867188.164062v-9.167968c-40.96875-21.503907-67.308594-54.882813-67.308594-92.402344zm0 0" fill="#f3a334" data-original="#F3A334" class="" style="fill:#FFC964" data-old_color="#F3A334"/><path d="m273.28125 337.902344v9.164062c.292969 0 .589844-.054687.867188-.164062 3.210937-1.257813 6.359374-2.585938 9.4375-3.972656-3.53125-1.59375-6.964844-3.273438-10.304688-5.027344zm0 0" fill="#ea3f3f" data-original="#EA3F3F" class="active-path" style="fill:#18B35C" data-old_color="#18b35c"/></g> </svg>
