<svg xmlns="http://www.w3.org/2000/svg" xmlns:xlink="http://www.w3.org/1999/xlink" version="1.1" id="Layer_1" x="0px" y="0px" viewBox="0 0 512 512" style="enable-background:new 0 0 512 512;" xml:space="preserve" width="512" height="512" class=""><g><path style="fill:#E9EDF1;" d="M451.952,435.112H60.048C27.024,435.112,0,408.088,0,375.056V70.512  C0,37.48,27.024,10.464,60.048,10.464h391.896c33.032,0,60.056,27.024,60.056,60.048v304.544  C512,408.088,484.976,435.112,451.952,435.112z" data-original="#E9EDF1" class=""></path><path d="M512,104.968V70.512c0-33.032-27.024-60.048-60.048-60.048H60.048C27.024,10.464,0,37.488,0,70.512v34.456H512z" data-original="#000000" class="active-path" style="fill:#18B35C" data-old_color="#18b35c"></path><circle style="fill:#115BAA" cx="58.4" cy="57.72" r="13.424" data-original="#FC6F58" class="" data-old_color="#115baa"></circle><circle style="fill:#49C3E8;" cx="96.64" cy="57.72" r="13.424" data-original="#49C3E8"></circle><circle style="fill:#FFD160;" cx="134.904" cy="57.72" r="13.424" data-original="#FFD160"></circle><g>
	<rect x="429.392" y="53.952" style="fill:#FFFFFF;" width="30.416" height="6.824" data-original="#FFFFFF"></rect>
	<polygon style="fill:#FFFFFF;" points="450.872,77.872 445.728,73.392 459.376,57.712 445.728,42.048 450.872,37.568    468.448,57.712  " data-original="#FFFFFF"></polygon>
	<path style="fill:#FFFFFF;" d="M379.264,79.088H208.336c-11.752,0-21.368-9.616-21.368-21.368l0,0   c0-11.752,9.616-21.368,21.368-21.368h170.928c11.752,0,21.368,9.616,21.368,21.368l0,0   C400.632,69.472,391.016,79.088,379.264,79.088z" data-original="#FFFFFF"></path>
</g><path d="M212.656,67.944l-4.704-19.24h3.744l1.824,8.736c0.48,2.344,0.936,4.8,1.256,6.704h0.056c0.32-2.024,0.856-4.304,1.4-6.736  l2.08-8.704h3.68l1.92,8.856c0.48,2.28,0.88,4.424,1.16,6.504h0.064c0.336-2.12,0.8-4.304,1.304-6.656l2-8.704h3.576l-5.176,19.24  h-3.76l-2-9.056c-0.496-2.184-0.824-4.016-1.056-6.104h-0.064c-0.336,2.056-0.704,3.92-1.28,6.104l-2.224,9.056H212.656z" data-original="#000000" class="active-path" style="fill:#18B35C" data-old_color="#18b35c"></path><path d="M237.712,67.944l-4.704-19.24h3.744l1.824,8.736c0.48,2.344,0.936,4.8,1.256,6.704h0.056c0.32-2.024,0.856-4.304,1.4-6.736  l2.08-8.704h3.68l1.92,8.856c0.48,2.28,0.88,4.424,1.16,6.504h0.064c0.336-2.12,0.8-4.304,1.304-6.656l2-8.704h3.576l-5.176,19.24  h-3.76l-2-9.056c-0.496-2.184-0.824-4.016-1.056-6.104h-0.064c-0.336,2.056-0.704,3.92-1.28,6.104l-2.224,9.056H237.712z" data-original="#000000" class="active-path" style="fill:#18B35C" data-old_color="#18b35c"></path><path d="M262.768,67.944l-4.704-19.24h3.744l1.824,8.736c0.48,2.344,0.936,4.8,1.256,6.704h0.056c0.32-2.024,0.856-4.304,1.4-6.736  l2.08-8.704h3.68l1.92,8.856c0.48,2.28,0.88,4.424,1.16,6.504h0.064c0.336-2.12,0.8-4.304,1.304-6.656l2-8.704h3.576l-5.168,19.24  h-3.76l-2-9.056c-0.496-2.184-0.824-4.016-1.056-6.104h-0.064c-0.336,2.056-0.704,3.92-1.28,6.104l-2.224,9.056H262.768z" data-original="#000000" class="active-path" style="fill:#18B35C" data-old_color="#18b35c"></path><path d="M282.064,65.992c0-1.304,0.92-2.256,2.176-2.256c1.28,0,2.176,0.92,2.176,2.256c0,1.296-0.864,2.264-2.176,2.264  C282.96,68.264,282.064,67.288,282.064,65.992z" data-original="#000000" class="active-path" style="fill:#18B35C" data-old_color="#18b35c"></path><polygon style="fill:#18B35C" points="409.168,374.368 364.128,420.288 364.128,309.472 322.112,309.472 322.112,420.296   277.064,374.368 247.08,403.624 343.112,501.536 439.152,403.624 " data-original="#32BEA6" class="" data-old_color="#18b35c"></polygon><polygon style="fill:#115BAA" points="102.384,290.64 147.432,244.72 147.432,355.536 189.448,355.536 189.448,244.72   234.488,290.64 264.472,261.392 168.44,163.472 72.4,261.392 " data-original="#FC6F58" class="" data-old_color="#115baa"></polygon></g> </svg>