<svg id="Group_19338" data-name="Group 19338" xmlns="http://www.w3.org/2000/svg" width="80.409" height="80.409" viewBox="0 0 80.409 80.409">
  <path id="Path_73552" data-name="Path 73552" d="M78.034,24.86c0,.441-.026.869-.052,1.3l-.013.091a9.075,9.075,0,0,1-1.232,18.066H62.471V39.126a1.3,1.3,0,0,0,1.3-1.3V30.048a1.3,1.3,0,0,0-1.3-1.3H31.345a1.3,1.3,0,0,0-1.3,1.3v7.782a1.3,1.3,0,0,0,1.3,1.3v5.188H17.078a9.078,9.078,0,0,1,0-18.157,6.965,6.965,0,0,1,1.284.1l.013-.1A18.16,18.16,0,0,1,52.031,16.69l.065-.039a14.269,14.269,0,0,1,25.938,8.21Zm0,0" transform="translate(-6.703 -6.703)" fill="#e6e9ed"/>
  <path id="Path_73553" data-name="Path 73553" d="M152,231.126h31.126v5.188H152Zm0-15.563h31.126v5.188H152ZM183.126,200v5.188H152V200Zm0,0" transform="translate(-127.358 -167.577)" fill="#ffeaa7"/>
  <g id="Group_19337" data-name="Group 19337" transform="translate(23.345 22.048)">
    <path id="Path_73554" data-name="Path 73554" d="M145.3,182.689h31.126a1.3,1.3,0,0,1,1.3,1.3v7.782a1.3,1.3,0,0,1-1.3,1.3H145.3a1.3,1.3,0,0,1-1.3-1.3v-7.782A1.3,1.3,0,0,1,145.3,182.689Zm0-15.563h31.126a1.3,1.3,0,0,1,1.3,1.3V176.2a1.3,1.3,0,0,1-1.3,1.3H145.3a1.3,1.3,0,0,1-1.3-1.3v-7.782A1.3,1.3,0,0,1,145.3,167.126Zm1.3-15.563h29.829a1.3,1.3,0,0,1,1.3,1.3v7.782a1.3,1.3,0,0,1-1.3,1.3H145.3a1.3,1.3,0,0,1-1.3-1.3V152.86a1.3,1.3,0,0,1,1.3-1.3ZM145.3,136h31.126a1.3,1.3,0,0,1,1.3,1.3v7.782a1.3,1.3,0,0,1-1.3,1.3H145.3a1.3,1.3,0,0,1-1.3-1.3V137.3A1.3,1.3,0,0,1,145.3,136Zm0,0" transform="translate(-144 -136)" fill="#b4dd7f"/>
  </g>
  <path id="Path_73555" data-name="Path 73555" d="M85.815,298.594A2.594,2.594,0,1,1,83.221,296,2.594,2.594,0,0,1,85.815,298.594Zm0,25.938a2.594,2.594,0,1,1-2.594-2.594A2.594,2.594,0,0,1,85.815,324.532Zm-72.628,0a2.594,2.594,0,1,1-2.594-2.594A2.594,2.594,0,0,1,13.188,324.532Zm0-25.938A2.594,2.594,0,1,1,10.594,296,2.594,2.594,0,0,1,13.188,298.594Zm0,0" transform="translate(-6.703 -248.014)" fill="#ef7385"/>
  <path id="Path_73556" data-name="Path 73556" d="M116.1,128H84.969a2.6,2.6,0,0,0-2.594,2.594v7.782a2.585,2.585,0,0,0,1.3,2.233v3.315a2.585,2.585,0,0,0-1.3,2.233v7.782a2.585,2.585,0,0,0,1.3,2.233v3.315a2.585,2.585,0,0,0-1.3,2.233V169.5a2.585,2.585,0,0,0,1.3,2.233v3.315a2.585,2.585,0,0,0-1.3,2.233v7.782a2.6,2.6,0,0,0,2.594,2.594H116.1a2.6,2.6,0,0,0,2.594-2.594v-7.782a2.585,2.585,0,0,0-1.3-2.233v-3.315a2.585,2.585,0,0,0,1.3-2.233V161.72a2.585,2.585,0,0,0-1.3-2.233v-3.315a2.585,2.585,0,0,0,1.3-2.233v-7.782a2.585,2.585,0,0,0-1.3-2.233v-3.315a2.585,2.585,0,0,0,1.3-2.233v-7.782A2.6,2.6,0,0,0,116.1,128Zm-31.126,2.594H116.1v7.782H84.969Zm1.3,44.1V172.1H114.8v2.594Zm-1.3-5.188V161.72H116.1V169.5Zm1.3-10.375v-2.594H114.8v2.594Zm-1.3-5.188v-7.782H116.1v7.782Zm1.3-10.375v-2.594H114.8v2.594Zm-1.3,41.5v-7.782H116.1v7.782ZM72,166.908h2.594V169.5H72Zm0,5.188h2.594v2.594H72Zm54.471-5.188h2.594V169.5h-2.594Zm0,0" transform="translate(-60.328 -107.249)" fill="#115baa"/>
  <path id="Path_73557" data-name="Path 73557" d="M68.737,51.877h4.13a3.891,3.891,0,1,0,0-2.594h-4.13V38.908h1.3a10.369,10.369,0,0,0,2.578-20.414c0-.113.016-.223.016-.337a15.554,15.554,0,0,0-27.221-10.3,19.407,19.407,0,0,0-34.966,10.3c-.022,0-.044,0-.066,0a10.375,10.375,0,0,0,0,20.751h1.3V49.283H7.543a3.891,3.891,0,1,0,0,2.594h4.13v5.188h2.594V45.392H16.86V75.221H14.266V70.034H11.672v5.188H7.543a3.891,3.891,0,1,0,0,2.594H16.86v2.594h2.594V33.72H16.86V42.8H14.266V36.314H10.375a7.782,7.782,0,1,1,5.559-13.228l1.853-1.814a10.28,10.28,0,0,0-4.77-2.765,16.85,16.85,0,0,1,33.5-1.463l2.567-.367A19.162,19.162,0,0,0,46.9,10.144a12.949,12.949,0,0,1,23.137,8.013,10.3,10.3,0,0,0-7.412,3.115l1.853,1.814a7.782,7.782,0,1,1,5.559,13.228H66.143V42.8H63.549V33.72H60.955V80.409h2.594V77.815h9.317a3.891,3.891,0,1,0,0-2.594h-4.13V70.034H66.143v5.188H63.549V45.392h2.594V57.065h2.594Zm7.782-2.594a1.3,1.3,0,1,1-1.3,1.3A1.3,1.3,0,0,1,76.518,49.283ZM3.891,51.877a1.3,1.3,0,1,1,1.3-1.3A1.3,1.3,0,0,1,3.891,51.877Zm0,25.938a1.3,1.3,0,1,1,1.3-1.3A1.3,1.3,0,0,1,3.891,77.815Zm72.628-2.594a1.3,1.3,0,1,1-1.3,1.3A1.3,1.3,0,0,1,76.518,75.221Zm0,0" fill="#115baa"/>
  <path id="Path_73558" data-name="Path 73558" d="M200.2,198.908H202.8V201.5H200.2ZM161.3,160h2.594v2.594H161.3Zm5.188,0h2.594v2.594h-2.594Zm12.969,15.563h2.594v2.594h-2.594Zm5.188,0h2.594v2.594h-2.594ZM160,191.126h2.594v2.594H160Zm5.188,0h2.594v2.594h-2.594Zm14.266,15.563h2.594v2.594h-2.594Zm5.188,0h2.594v2.594h-2.594Zm0,0" transform="translate(-134.062 -134.062)"/>
</svg>
