<svg xmlns="http://www.w3.org/2000/svg" viewBox="0 0 454.189 454.189" width="512" height="512"><path d="M308.568 16.225v169.831c0 7.511-5.104 13.836-12.042 15.676a16.164 16.164 0 0 1-4.18.546H18.68c-8.961 0-16.223-7.262-16.223-16.223V16.225C2.457 7.264 9.719.002 18.68.002h273.666c1.443 0 2.845.189 4.18.546 6.938 1.841 12.042 8.165 12.042 15.677z" data-original="#E6E6E6" fill="#e6e6e6"/><path d="M308.566 16.223v16.142H2.456V16.223C2.456 7.262 9.718 0 18.678 0h273.666c8.961 0 16.222 7.262 16.222 16.223z" data-original="#B3B3B3" fill="#b3b3b3"/><circle cx="24.706" cy="16.182" r="10.114" data-original="#FC7A51" fill="#fc7a51"/><circle cx="51.676" cy="16.182" r="10.114" data-original="#F9DE58" fill="#f9de58"/><path data-original="#808080" fill="gray" d="M32.676 61.817h235v11h-235zm0 24.091h235v11h-235zm0 24.091h235v11h-235zm0 24.092h235v11h-235zm0 24.091h235v11h-235z"/><path d="M307.569 222.203l-40.93 37.75c-18.44 17.01-46.85 17.01-65.29 0l-40.92-37.75a49.261 49.261 0 0 1-15.72-39.89l2.38-49c.25-3.29.67-6.53 1.28-9.7 2.84-15.07 9.53-28.71 18.98-39.91 4.2-4.99 8.95-9.49 14.15-13.41 14.64-11.07 32.85-17.59 52.5-17.59s37.86 6.53 52.5 17.59c2.35 1.77 4.61 3.66 6.77 5.66 2.61 2.43 5.08 5.01 7.38 7.74 9.45 11.2 16.14 24.84 18.98 39.92.61 3.17 1.03 6.41 1.28 9.7l2.37 49a49.258 49.258 0 0 1-15.71 39.89z" data-original="#FCD18B" fill="#fcd18b"/><path d="M263.829 209.692a29.71 29.71 0 0 1-1.357 8.906c-3.79 12.127-15.107 20.925-28.474 20.925-13.375 0-24.692-8.797-28.474-20.925a29.715 29.715 0 0 1-1.357-8.906h59.662z" data-original="#FFFFFF" fill="#fff"/><path d="M345.49 124.923h-13c0-54.31-44.185-98.495-98.494-98.495-54.311 0-98.495 44.185-98.495 98.495h-13c0-61.479 50.017-111.495 111.495-111.495S345.49 63.445 345.49 124.923z" data-original="#F9DE58" fill="#f9de58"/><path d="M319.629 123.613c-2.84-15.08-9.53-28.72-18.98-39.92-2.3-2.73-4.77-5.31-7.38-7.74a87.745 87.745 0 0 0-3.209-2.824c-.219-.184-.446-.357-.667-.538a88.155 88.155 0 0 0-2.72-2.159c-.059-.045-.115-.094-.174-.138l-.007.005c-14.643-11.057-32.847-17.595-52.493-17.595-19.651 0-37.86 6.529-52.498 17.592l-.002-.002c-.022.017-.042.035-.064.051a88.091 88.091 0 0 0-3.549 2.835l-.337.282a88.787 88.787 0 0 0-3.251 2.911c-.127.12-.256.237-.383.357a87.476 87.476 0 0 0-3.117 3.125c-.093.098-.188.193-.28.291a86.936 86.936 0 0 0-3.169 3.557c-9.45 11.2-16.14 24.84-18.98 39.91 12.765-3.477 24.129-10.323 33.119-19.504 13.34 13.625 31.938 22.084 52.511 22.084 20.574 0 39.164-8.459 52.5-22.079 8.994 9.181 20.363 16.027 33.13 19.499z" data-original="#808080" fill="gray"/><circle cx="194.995" cy="163.953" r="10" data-original="#808080" fill="gray"/><circle cx="272.995" cy="163.953" r="10" data-original="#808080" fill="gray"/><path data-original="#E6E6E6" fill="#e6e6e6" d="M180.095 250.953l51 51-24 39-40-80zm107.8 0l-51 51 24 39 40-80z"/><path data-original="#2BE0C6" fill="#2be0c6" d="M248.137 334.953l-14.142-24-14.142 24 14.142 14.142zm24.744 80.351l-38.886-65.991-38.885 65.991 38.885 38.885z"/><path d="M184.959 224.953c0 1.8-.73 3.42-1.9 4.6a6.51 6.51 0 0 1-4.6 1.9h-30.73c-14.42 0-26.11-11.69-26.11-26.11v-17.39h13v17.39c0 7.24 5.87 13.11 13.11 13.11h30.73a6.5 6.5 0 0 1 6.5 6.5z" data-original="#FC7A51" fill="#fc7a51"/><path d="M137.457 113.853c-22.556 0-40.841 18.285-40.841 40.841s18.285 40.841 40.841 40.841m193.076-81.682c22.556 0 40.841 18.285 40.841 40.841s-18.285 40.841-40.841 40.841" data-original="#29ABE2" class="active-path" data-old_color="#115baa" fill="#115baa"/><path d="M184.959 224.953c0 1.8-.73 3.42-1.9 4.6a6.51 6.51 0 0 1-4.6 1.9h-19v-13h19a6.5 6.5 0 0 1 6.5 6.5zm254.887 199.901H319.62c-6.565 0-11.887-5.322-11.887-11.887V257.741c0-6.565 5.322-11.887 11.887-11.887h120.227c6.565 0 11.887 5.322 11.887 11.887v155.227c-.001 6.564-5.323 11.886-11.888 11.886z" data-original="#808080" fill="gray"/><path data-original="#E6E6E6" fill="#e6e6e6" d="M322.733 260.854h114v149h-114z"/><path d="M393.161 237.854h-26.855a7.572 7.572 0 0 0-7.572 7.572v25.428h42v-25.428a7.574 7.574 0 0 0-7.573-7.572zm-56.428 48h86v11h-86zm0 24.092h86v11h-86zm0 24.091h86v11h-86zm0 24.091h86v11h-86zm0 24.092h43v11h-43z" data-original="#29ABE2" class="active-path" data-old_color="#115baa" fill="#115baa"/><path d="M58.285 239.366c-30.369 0-54.987 24.619-54.987 54.987 0 17.057 7.768 32.3 19.958 42.385l-11.133 31.173 28.672-21.413-.013-.02a54.904 54.904 0 0 0 17.504 2.862c30.368 0 54.987-24.619 54.987-54.987s-24.619-54.987-54.988-54.987z" data-original="#FC7A51" fill="#fc7a51"/><path d="M49.943 303.296c0-3.263.533-6.194 1.599-8.792 1.065-2.598 3.263-4.861 6.594-6.794a73.681 73.681 0 0 1 3.697-2.048 30.078 30.078 0 0 0 4.296-2.747 15.764 15.764 0 0 0 3.547-3.747c.965-1.431 1.449-3.08 1.449-4.945 0-1.399-.267-2.63-.799-3.697a8.453 8.453 0 0 0-2.098-2.697c-.867-.732-1.883-1.282-3.047-1.649a11.807 11.807 0 0 0-3.546-.549c-1.466 0-2.798.25-3.997.749s-2.282 1.133-3.247 1.898a15.962 15.962 0 0 0-2.598 2.598 28.504 28.504 0 0 0-1.948 2.748l-8.692-5.995c.865-2.064 2.014-3.896 3.447-5.495a21.097 21.097 0 0 1 4.895-4.046 22.894 22.894 0 0 1 5.945-2.497 25.62 25.62 0 0 1 6.594-.849c2.531 0 5.029.367 7.494 1.099a19.035 19.035 0 0 1 6.644 3.497c1.964 1.599 3.562 3.647 4.795 6.144 1.232 2.498 1.848 5.479 1.848 8.942 0 2.132-.249 4.013-.749 5.645a15.726 15.726 0 0 1-2.148 4.446 18.749 18.749 0 0 1-3.297 3.597 37.629 37.629 0 0 1-4.296 3.097 123.05 123.05 0 0 1-3.997 2.298 24.092 24.092 0 0 0-3.647 2.448 11.912 11.912 0 0 0-2.698 3.097c-.699 1.166-1.049 2.582-1.049 4.246H49.943v-.002zm.2 23.278v-13.787h11.09v13.787h-11.09z" data-original="#FFFFFF" fill="#fff"/><path d="M186.362 321.124l11.133-31.173-28.672 21.413.013.02a54.904 54.904 0 0 0-17.504-2.862c-30.369 0-54.987 24.619-54.987 54.987s24.618 54.987 54.987 54.987c30.368 0 54.987-24.619 54.987-54.987.001-17.057-7.767-32.299-19.957-42.385z" data-original="#29ABE2" class="active-path" data-old_color="#115baa" fill="#115baa"/><path d="M145.49 371.66v-39.244h11.687v39.244H145.49zm0 23.285v-13.168h11.687v13.168H145.49z" data-original="#FFFFFF" fill="#fff"/></svg>