<svg xmlns="http://www.w3.org/2000/svg" width="400" height="281.274" viewBox="0 59.362 400 281.274"><path fill="#FFF" d="M37.5 84.362h325v200h-325z"/><path fill="#FF4F19" d="M37.5 84.362h325v50h-325z"/><path fill="#5C546A" d="M358.697 59.362H41.291c-15.875 0-28.791 12.885-28.791 28.724v227.526a6.246 6.246 0 0 0 6.25 6.25h362.5a6.246 6.246 0 0 0 6.25-6.25V88.086c0-15.838-12.921-28.724-28.803-28.724zM37.5 278.112v-187.5a6.25 6.25 0 0 1 6.25-6.25h312.5a6.251 6.251 0 0 1 6.25 6.25v187.5a6.25 6.25 0 0 1-6.25 6.25H43.75a6.25 6.25 0 0 1-6.25-6.25z"/><path fill="#B9BBC1" d="M393.75 309.362H6.25a6.247 6.247 0 0 0-6.25 6.25c0 13.8 11.224 25.024 25.024 25.024h349.95c13.801 0 25.024-11.225 25.024-25.024a6.244 6.244 0 0 0-6.248-6.25z"/><path fill="#FFD200" d="M112.5 115.612H68.75a6.246 6.246 0 0 1-6.25-6.25 6.246 6.246 0 0 1 6.25-6.25h43.75a6.246 6.246 0 0 1 6.25 6.25 6.246 6.246 0 0 1-6.25 6.25z"/><path fill="#FFF" d="M225 115.612h-6.25a6.246 6.246 0 0 1-6.25-6.25 6.246 6.246 0 0 1 6.25-6.25H225a6.246 6.246 0 0 1 6.25 6.25 6.246 6.246 0 0 1-6.25 6.25zm31.25 0H250a6.246 6.246 0 0 1-6.25-6.25 6.246 6.246 0 0 1 6.25-6.25h6.25a6.246 6.246 0 0 1 6.25 6.25 6.246 6.246 0 0 1-6.25 6.25zm31.25 0h-6.25a6.246 6.246 0 0 1-6.25-6.25 6.246 6.246 0 0 1 6.25-6.25h6.25a6.246 6.246 0 0 1 6.25 6.25 6.246 6.246 0 0 1-6.25 6.25zm31.25 0h-6.25a6.246 6.246 0 0 1-6.25-6.25 6.246 6.246 0 0 1 6.25-6.25h6.25a6.246 6.246 0 0 1 6.25 6.25 6.246 6.246 0 0 1-6.25 6.25z"/><path fill="#53DCFF" d="M175 265.612H68.75a6.25 6.25 0 0 1-6.25-6.25v-100a6.25 6.25 0 0 1 6.25-6.25H175a6.25 6.25 0 0 1 6.25 6.25v100a6.25 6.25 0 0 1-6.25 6.25z"/><path fill="#FF4F19" d="M325 165.612H206.25a6.246 6.246 0 0 1-6.25-6.25 6.246 6.246 0 0 1 6.25-6.25H325a6.246 6.246 0 0 1 6.25 6.25 6.246 6.246 0 0 1-6.25 6.25z"/><path fill="#B9BBC1" d="M256.25 215.612h-50a6.246 6.246 0 0 1-6.25-6.25 6.247 6.247 0 0 1 6.25-6.25h50a6.247 6.247 0 0 1 6.25 6.25 6.246 6.246 0 0 1-6.25 6.25zm0 25h-50a6.246 6.246 0 0 1-6.25-6.25 6.247 6.247 0 0 1 6.25-6.25h50a6.247 6.247 0 0 1 6.25 6.25 6.246 6.246 0 0 1-6.25 6.25zm0 25h-50a6.246 6.246 0 0 1-6.25-6.25 6.247 6.247 0 0 1 6.25-6.25h50a6.247 6.247 0 0 1 6.25 6.25 6.246 6.246 0 0 1-6.25 6.25zm75-50h-50a6.246 6.246 0 0 1-6.25-6.25 6.247 6.247 0 0 1 6.25-6.25h50a6.247 6.247 0 0 1 6.25 6.25 6.246 6.246 0 0 1-6.25 6.25zm0 25h-50a6.246 6.246 0 0 1-6.25-6.25 6.247 6.247 0 0 1 6.25-6.25h50a6.247 6.247 0 0 1 6.25 6.25 6.246 6.246 0 0 1-6.25 6.25zm0 25h-50a6.246 6.246 0 0 1-6.25-6.25 6.247 6.247 0 0 1 6.25-6.25h50a6.247 6.247 0 0 1 6.25 6.25 6.246 6.246 0 0 1-6.25 6.25z"/><path fill="#FF4F19" d="M287.5 190.612h-81.25a6.246 6.246 0 0 1-6.25-6.25 6.246 6.246 0 0 1 6.25-6.25h81.25a6.246 6.246 0 0 1 6.25 6.25 6.246 6.246 0 0 1-6.25 6.25z"/><path fill="#8B8996" d="M175 321.862h50c6.903 0 12.5-5.597 12.5-12.5h-75c0 6.905 5.596 12.5 12.5 12.5z"/></svg>