<svg xmlns="http://www.w3.org/2000/svg" width="400" height="400"><g fill="#FFA64D"><circle cx="358.73" cy="304.762" r="31.746"/><circle cx="41.27" cy="234.92" r="31.746"/></g><g fill="#183651"><path d="M92.063 361.904h12.698v12.699H92.063zm25.397 0h12.698v12.699H117.46z"/><path d="M320.635 203.175c0-17.505-14.241-31.746-31.746-31.746h-86.311c10.635-17.054 16.47-36.902 16.47-57.143 0-59.518-48.419-107.937-107.937-107.937-59.517 0-107.936 48.419-107.936 107.937 0 47.606 31.111 89.251 76.19 103.092v119.13H53.968v31.746c0 17.505 14.241 31.746 31.746 31.746h228.572c17.504 0 31.745-14.241 31.745-31.746v-31.746h-25.396V203.175zm-166.14-31.746c8.127-16.298 12.654-33.321 13.543-50.794h38.051c-1.2 18.534-7.664 35.911-18.876 50.794h-32.718zm-66.305 9.892c-9.917-14.648-19.708-35.384-21.181-60.686h37.752v51.435c-6.469 1.321-12.177 4.647-16.571 9.251zm-45.663-.997c-15.238-15.841-24.87-36.806-26.387-59.689h38c.902 17.543 5.448 33.054 11.391 46.184-10.814 4.318-18.305 9.479-23.004 13.505zm74.933-59.689h37.873c-.991 17.511-6.114 34.546-15.226 50.794H117.46v-50.794zm0-93.543c6.063 6.191 13.854 15.365 20.87 27.143-6.095 1.384-13.022 2.368-20.87 2.724V27.092zm11.721-6.273c15.295 2.953 29.276 9.581 41.028 18.921-3.994 3.225-10.241 7.301-19.174 10.711-7.067-12.521-15.111-22.476-21.854-29.632zm-24.419 6.242v29.892c-7.886-.355-14.838-1.346-20.952-2.743 7.022-11.772 14.869-20.953 20.952-27.149zM71.213 50.457c-8.946-3.409-15.207-7.492-19.2-10.717 11.765-9.346 25.759-15.981 41.073-18.927-6.737 7.162-14.794 17.085-21.873 29.644zm46.247 19.188c10.292-.432 19.314-1.822 27.066-3.848 5.645 12.083 9.797 26.267 10.718 42.14H117.46V69.645zm88.565 38.292h-38.076a127.749 127.749 0 0 0-11.168-46.165c10.724-4.279 18.178-9.435 22.876-13.441 15.111 15.694 24.838 36.532 26.368 59.606zM42.565 48.33c4.705 4.019 12.19 9.188 22.953 13.473-2.673 5.924-5.08 12.235-6.972 19.035l12.235 3.397c1.835-6.603 4.235-12.724 6.908-18.444 7.752 2.025 16.781 3.422 27.073 3.854v38.292H66.927c.223-3.911.578-7.822 1.207-11.676L55.6 94.216c-.743 4.527-1.137 9.118-1.372 13.721H16.197c1.53-23.074 11.257-43.912 26.368-59.607zm9.41 140.654c4.019-3.245 10.349-7.333 19.346-10.794a150.906 150.906 0 0 0 9.778 15.118c-1.035 3.124-1.733 6.4-1.733 9.867v.927a94.738 94.738 0 0 1-27.391-15.118zm40.088 14.191c0-10.502 8.546-19.048 19.048-19.048h177.777c10.502 0 19.048 8.546 19.048 19.048v133.333h-12.698V323.81h-12.699v12.698H117.46V209.523h165.079v101.588h12.699V209.523c0-7.003-5.695-12.698-12.699-12.698H117.46c-7.003 0-12.699 5.695-12.699 12.698v126.984H92.063V203.175zm76.191 146.032h63.492v6.349a6.356 6.356 0 0 1-6.35 6.349h-50.793a6.355 6.355 0 0 1-6.349-6.349v-6.349zm165.079 19.047c0 10.502-8.546 19.048-19.047 19.048H85.714c-10.501 0-19.048-8.546-19.048-19.048v-19.047h88.889v6.349c0 10.501 8.546 19.048 19.047 19.048h50.793c10.502 0 19.048-8.547 19.048-19.048v-6.349h88.889v19.047z"/><path d="M365.079 286.883v-71.01h-12.698v71.01c-7.371 2.629-12.698 9.612-12.698 17.879 0 10.502 8.546 19.048 19.048 19.048 10.501 0 19.047-8.546 19.047-19.048-.001-8.267-5.327-15.25-12.699-17.879zm-6.349 24.228a6.356 6.356 0 0 1-6.35-6.35 6.357 6.357 0 0 1 6.35-6.35 6.357 6.357 0 0 1 6.349 6.35c0 3.506-2.85 6.35-6.349 6.35zm-298.413-76.19c0-10.502-8.546-19.048-19.047-19.048-10.502 0-19.048 8.546-19.048 19.048 0 8.267 5.327 15.251 12.698 17.879v71.01h12.699V252.8c7.371-2.628 12.698-9.612 12.698-17.879zm-19.047-6.35c3.498 0 6.349 2.845 6.349 6.35s-2.851 6.349-6.349 6.349c-3.499 0-6.35-2.844-6.35-6.349s2.851-6.35 6.35-6.35zM200 222.223c-28.006 0-50.793 22.787-50.793 50.793 0 28.007 22.787 50.794 50.793 50.794s50.793-22.787 50.793-50.794c0-28.006-22.787-50.793-50.793-50.793zm37.523 44.443H206.35v-31.174c15.917 2.692 28.482 15.257 31.173 31.174zm-43.872-31.174v34.895l-24.667 24.667c-4.438-6.229-7.08-13.821-7.08-22.038.001-18.838 13.76-34.483 31.747-37.524zM200 311.111c-8.216 0-15.81-2.642-22.038-7.08l24.667-24.666h34.895c-3.042 17.988-18.686 31.746-37.524 31.746z"/></g><path d="M333.333 152.381v19.048l63.492-38.096-63.492-38.095v19.048h-88.889v38.095zM307.937 19.048V0l-63.493 38.095 63.493 38.095V57.143h88.888V19.048z" fill="#FFA64D"/></svg>