<svg xmlns="http://www.w3.org/2000/svg" viewBox="0 0 512.032 512.032" width="512" height="512"><g transform="translate(1 1)"><path d="M24.616 118.499h460.8c9.426 0 17.067 7.641 17.067 17.067v247.467c0 9.426-7.641 17.067-17.067 17.067h-460.8c-9.426 0-17.067-7.641-17.067-17.067V135.566c0-9.426 7.641-17.067 17.067-17.067z" data-original="#6A1B9A" data-old_color="#18b35c" fill="#18b35c"/><path d="M24.616 118.499h435.2c9.426 0 17.067 7.641 17.067 17.067v247.467c0 9.426-7.641 17.067-17.067 17.067h-435.2c-9.426 0-17.067-7.641-17.067-17.067V135.566c0-9.426 7.641-17.067 17.067-17.067z" data-original="#9D27B0" class="active-path" data-old_color="#0CC660" fill="#0bc55f"/><g fill="#ff9801"><circle cx="75.816" cy="229.432" r="34.133" data-original="#FF9801"/><circle cx="434.216" cy="229.432" r="34.133" data-original="#FF9801"/></g><path d="M331.816 24.632v341.333h-153.6V24.632c.028-9.414 7.653-17.039 17.067-17.067H314.75c9.413.029 17.038 7.653 17.066 17.067z" data-original="#AD1457" data-old_color="#115BAA" fill="#2296f3"/><path d="M306.216 24.632v341.333h-128V24.632c.028-9.414 7.653-17.039 17.067-17.067h93.867c9.413.029 17.038 7.653 17.066 17.067z" data-original="#E91E63" data-old_color="#115BAA" fill="#2296f3"/><circle cx="255.016" cy="118.499" r="34.133" data-original="#FFEB3A" fill="#ffeb3a"/><path d="M357.416 400.099c0 56.554-45.846 102.4-102.4 102.4a90.439 90.439 0 0 1-12.8-.853c-51.202-6.414-89.62-49.944-89.62-101.547s38.418-95.133 89.62-101.547a90.439 90.439 0 0 1 12.8-.853c56.554 0 102.4 45.846 102.4 102.4z" data-original="#1566C0" data-old_color="#1566C0" fill="#2296f3"/><ellipse cx="242.216" cy="400.099" rx="89.6" ry="101.547" data-original="#2296F3" fill="#2296f3"/></g><path d="M174.249 475.8c.137.274.291.539.461.794.255.224.526.429.811.614a110.44 110.44 0 0 0 161.041-.059c.239-.213.546-.307.759-.555.17-.255.324-.52.461-.794 38.89-42.208 38.89-107.193 0-149.402a7.386 7.386 0 0 0-.461-.794 6.855 6.855 0 0 0-.802-.606 110.437 110.437 0 0 0-160.998 0 8.22 8.22 0 0 0-.811.614c-.17.255-.324.52-.461.794-38.89 42.208-38.89 107.193 0 149.402v-.008zm8.03-132.6a112.116 112.116 0 0 0 19.285 11.742 194.08 194.08 0 0 0-5.06 37.623h-33.92a93.368 93.368 0 0 1 19.695-49.365zm167.168 49.366h-33.92a194.069 194.069 0 0 0-5.06-37.623 112.116 112.116 0 0 0 19.285-11.742 93.346 93.346 0 0 1 19.695 49.365zm-19.695 66.432a112.116 112.116 0 0 0-19.285-11.742 194.08 194.08 0 0 0 5.06-37.623h33.92a93.349 93.349 0 0 1-19.695 49.365zm-65.203-6.332a111.72 111.72 0 0 1 25.054 4.864c-6.46 17.92-15.616 30.353-25.054 35.157v-40.021zm0-17.067v-25.967h33.92a176.86 176.86 0 0 1-4.087 31.428 128.032 128.032 0 0 0-29.833-5.47v.009zm0-43.033v-25.958a128.056 128.056 0 0 0 29.867-5.478 177.038 177.038 0 0 1 4.053 31.437h-33.92zm0-43.034v-40.021c9.438 4.804 18.594 17.246 25.054 35.157a111.72 111.72 0 0 1-25.054 4.864zm-17.067 0a111.72 111.72 0 0 1-25.054-4.864c6.46-17.92 15.616-30.353 25.054-35.157v40.021zm0 17.067v25.967h-33.92a177.155 177.155 0 0 1 4.087-31.437 127.983 127.983 0 0 0 29.833 5.478v-.008zm0 43.033v25.958a128.011 128.011 0 0 0-29.867 5.47 176.846 176.846 0 0 1-4.053-31.428h33.92zm0 43.034v40.021c-9.438-4.804-18.594-17.246-25.054-35.157a111.742 111.742 0 0 1 25.054-4.864zm-29.866 33.988a93.836 93.836 0 0 1-23.526-15.206 96.69 96.69 0 0 1 12.459-7.45 112.298 112.298 0 0 0 11.067 22.656zm87.893-22.656a96.759 96.759 0 0 1 12.459 7.45 93.852 93.852 0 0 1-23.552 15.206 112.375 112.375 0 0 0 11.093-22.656zm0-125.798a112.427 112.427 0 0 0-11.093-22.656 93.836 93.836 0 0 1 23.526 15.206 96.69 96.69 0 0 1-12.433 7.45zm-98.987 0a96.759 96.759 0 0 1-12.459-7.45 93.852 93.852 0 0 1 23.552-15.206 112.48 112.48 0 0 0-11.093 22.656zm-10.018 71.432a194.069 194.069 0 0 0 5.06 37.623 112.116 112.116 0 0 0-19.285 11.742 93.357 93.357 0 0 1-19.695-49.365h33.92z" data-original="#000000" data-old_color="#0061C8" fill="#0065cf"/><path d="M324.069 281.632a8.721 8.721 0 0 0 8.747 8.533 8.533 8.533 0 0 0 8.533-8.533V22.936C340.547 9.57 329.122-.652 315.749.033H196.282c-13.373-.684-24.798 9.537-25.6 22.903v258.697a8.908 8.908 0 0 0 8.96 8.533 8.353 8.353 0 0 0 8.32-8.533 8.306 8.306 0 0 0-.213-1.852V22.936c0-2.765 3.507-5.837 8.533-5.837h119.467c5.026 0 8.533 3.072 8.533 5.837v256.742a9.238 9.238 0 0 0-.213 1.954z" data-original="#000000" data-old_color="#0061C8" fill="#0065cf"/><path d="M221.882 238.966h8.533a8.533 8.533 0 0 0 0-17.066h-8.533a8.533 8.533 0 0 0 0 17.066zm68.267-17.067h-25.6a8.533 8.533 0 0 0 0 17.066h25.6a8.533 8.533 0 0 0 0-17.066zm-68.267 51.2h68.267a8.533 8.533 0 0 0 0-17.066h-68.267a8.533 8.533 0 0 0 0 17.066zm76.8-153.6c0-23.564-19.103-42.667-42.667-42.667s-42.667 19.103-42.667 42.667 19.103 42.667 42.667 42.667c23.553-.028 42.639-19.114 42.667-42.667zm-68.266 0c0-14.138 11.462-25.6 25.6-25.6 14.138 0 25.6 11.462 25.6 25.6s-11.462 25.6-25.6 25.6c-14.139 0-25.6-11.461-25.6-25.6zm68.266-76.8h-85.333a8.533 8.533 0 0 0 0 17.066h85.333a8.533 8.533 0 0 0 0-17.066zm8.534 145.067a8.533 8.533 0 0 0-8.533-8.533H213.35a8.533 8.533 0 0 0 0 17.066h85.333a8.533 8.533 0 0 0 8.533-8.533zm-264.534 153.6h8.533a8.533 8.533 0 0 0 0-17.066h-8.533a8.533 8.533 0 0 0 0 17.066zm68.267-17.067h-25.6a8.533 8.533 0 0 0 0 17.066h25.6a8.533 8.533 0 0 0 0-17.066zm-68.267 51.2h68.267a8.533 8.533 0 0 0 0-17.066H42.682a8.533 8.533 0 0 0 0 17.066z" data-original="#000000" data-old_color="#0061C8" fill="#0065cf"/><path d="M25.616 409.632h93.867a8.533 8.533 0 0 0 0-17.066H25.616a8.533 8.533 0 0 1-8.533-8.533v-76.8h128a8.533 8.533 0 0 0 0-17.066h-128v-153.6a8.533 8.533 0 0 1 8.533-8.533h119.467a8.533 8.533 0 0 0 0-17.066H25.616c-14.138 0-25.6 11.462-25.6 25.6v247.467c0 14.136 11.461 25.597 25.6 25.597z" data-original="#000000" data-old_color="#0061C8" fill="#0065cf"/><path d="M153.616 162.166a8.533 8.533 0 0 0-8.533-8.533h-102.4a8.533 8.533 0 0 0 0 17.066h102.4a8.533 8.533 0 0 0 8.533-8.533zM34.149 230.432c0 23.564 19.103 42.667 42.667 42.667s42.667-19.103 42.667-42.667-19.103-42.667-42.667-42.667c-23.553.029-42.639 19.115-42.667 42.667zm68.267 0c0 14.139-11.462 25.6-25.6 25.6s-25.6-11.462-25.6-25.6c0-14.138 11.462-25.6 25.6-25.6s25.6 11.462 25.6 25.6zm366.933 110.934a8.533 8.533 0 0 0 0-17.066h-8.533a8.533 8.533 0 0 0 0 17.066h8.533zm-68.267 0h25.6a8.533 8.533 0 0 0 0-17.066h-25.6a8.533 8.533 0 0 0 0 17.066zm0 34.133h68.267c4.713 0 8.533-3.82 8.533-8.533s-3.82-8.533-8.533-8.533h-68.267a8.533 8.533 0 0 0 0 17.066z" data-original="#000000" data-old_color="#0061C8" fill="#0065cf"/><path d="M384.016 401.099a8.533 8.533 0 0 0 8.533 8.533h93.867c14.138 0 25.6-11.462 25.6-25.6V136.566c0-14.138-11.462-25.6-25.6-25.6H366.949a8.533 8.533 0 0 0 0 17.066h119.467a8.533 8.533 0 0 1 8.533 8.533v153.6h-128a8.533 8.533 0 0 0 0 17.066h128v76.8a8.533 8.533 0 0 1-8.533 8.533h-93.867a8.536 8.536 0 0 0-8.533 8.535z" data-original="#000000" data-old_color="#0061C8" fill="#0065cf"/><path d="M469.349 153.632h-102.4a8.533 8.533 0 0 0 0 17.066h102.4c4.713 0 8.533-3.82 8.533-8.533s-3.82-8.533-8.533-8.533zm-34.133 34.134c-23.564 0-42.667 19.103-42.667 42.667s19.103 42.667 42.667 42.667 42.667-19.103 42.667-42.667c-.029-23.553-19.115-42.639-42.667-42.667zm0 68.266c-14.138 0-25.6-11.462-25.6-25.6 0-14.138 11.462-25.6 25.6-25.6 14.138 0 25.6 11.462 25.6 25.6 0 14.139-11.462 25.6-25.6 25.6z" data-original="#000000" data-old_color="#0061C8" fill="#0065cf"/></svg>