<svg xmlns="http://www.w3.org/2000/svg" width="79.944" height="80" viewBox="0 0 79.944 80">
  <g id="Group_19360" data-name="Group 19360" transform="translate(-1.011 -0.998)">
    <path id="Path_73618" data-name="Path 73618" d="M14.788,52.033a13.793,13.793,0,0,1-3.048-27.24.68.68,0,0,0,.524-.814,11.431,11.431,0,0,1-.179-3.379,11.018,11.018,0,0,1,15.172-9.117.69.69,0,0,0,.869-.317,19.34,19.34,0,0,1,36.261,7.158.69.69,0,0,0,.662.621A16.551,16.551,0,0,1,67.186,51.8Z" transform="translate(0 0)" fill="#60dcdd"/>
    <path id="Path_73619" data-name="Path 73619" d="M63.412,35.413V27.138A4.138,4.138,0,0,0,59.274,23H15.138A4.138,4.138,0,0,0,11,27.138v8.276a4.138,4.138,0,0,0,4.138,4.138A4.138,4.138,0,0,0,11,43.689v8.276A4.138,4.138,0,0,0,15.138,56.1,4.138,4.138,0,0,0,11,60.24v8.276a4.138,4.138,0,0,0,4.138,4.138H59.274a4.138,4.138,0,0,0,4.138-4.138V60.24A4.138,4.138,0,0,0,59.274,56.1a4.138,4.138,0,0,0,4.138-4.138V43.689a4.138,4.138,0,0,0-4.138-4.138A4.138,4.138,0,0,0,63.412,35.413Z" transform="translate(3.788 8.345)" fill="#5498c8"/>
    <rect id="Rectangle_18202" data-name="Rectangle 18202" width="52.412" height="16.551" rx="3" transform="translate(14.788 47.896)" fill="#4184a9"/>
    <circle id="Ellipse_81" data-name="Ellipse 81" cx="2.759" cy="2.759" r="2.759" transform="translate(20.305 53.413)" fill="#fde05e"/>
    <circle id="Ellipse_82" data-name="Ellipse 82" cx="2.759" cy="2.759" r="2.759" transform="translate(31.339 53.413)" fill="#60dcdd"/>
    <circle id="Ellipse_83" data-name="Ellipse 83" cx="2.759" cy="2.759" r="2.759" transform="translate(20.305 36.862)" fill="#fde05e"/>
    <circle id="Ellipse_84" data-name="Ellipse 84" cx="2.759" cy="2.759" r="2.759" transform="translate(31.339 36.862)" fill="#60dcdd"/>
    <circle id="Ellipse_85" data-name="Ellipse 85" cx="2.759" cy="2.759" r="2.759" transform="translate(20.305 69.964)" fill="#fde05e"/>
    <circle id="Ellipse_86" data-name="Ellipse 86" cx="2.759" cy="2.759" r="2.759" transform="translate(31.339 69.964)" fill="#60dcdd"/>
    <path id="Path_73620" data-name="Path 73620" d="M26.517,22.035a1.379,1.379,0,0,1-.975-.4L21.4,17.493a1.379,1.379,0,0,1,0-1.95L25.542,11.4a1.379,1.379,0,1,1,1.95,1.95l-3.163,3.162,3.163,3.163a1.379,1.379,0,0,1-.975,2.354Zm13.793,0a1.379,1.379,0,0,1-.975-2.354L42.5,16.518l-3.163-3.163a1.379,1.379,0,1,1,1.95-1.95l4.138,4.138a1.379,1.379,0,0,1,0,1.95l-4.138,4.138a1.379,1.379,0,0,1-.975.4Zm-8.276,0a1.379,1.379,0,0,1-1.308-1.815l2.759-8.276a1.381,1.381,0,0,1,2.621.872l-2.759,8.276A1.379,1.379,0,0,1,32.034,22.035Z" transform="translate(7.581 3.793)" fill="#fff"/>
    <path id="Path_73621" data-name="Path 73621" d="M35.759,40.759H34.379a1.379,1.379,0,1,1,0-2.759h1.379a1.379,1.379,0,1,1,0,2.759Zm0,5.517H34.379a1.379,1.379,0,1,1,0-2.759h1.379a1.379,1.379,0,1,1,0,2.759Zm6.9-5.517H41.276a1.379,1.379,0,1,1,0-2.759h1.379a1.379,1.379,0,1,1,0,2.759Zm0,5.517H41.276a1.379,1.379,0,1,1,0-2.759h1.379a1.379,1.379,0,1,1,0,2.759Zm6.9-5.517H48.172a1.379,1.379,0,1,1,0-2.759h1.379a1.379,1.379,0,1,1,0,2.759Zm0,5.517H48.172a1.379,1.379,0,1,1,0-2.759h1.379a1.379,1.379,0,1,1,0,2.759Z" transform="translate(12.132 14.033)" fill="#255a6b"/>
    <g id="Group_19359" data-name="Group 19359" transform="translate(45.132 35.482)">
      <path id="Path_73622" data-name="Path 73622" d="M35.759,61.861H34.379a1.379,1.379,0,1,1,0-2.759h1.379a1.379,1.379,0,1,1,0,2.759Zm0,5.517H34.379a1.379,1.379,0,0,1,0-2.759h1.379a1.379,1.379,0,0,1,0,2.759Zm6.9-5.517H41.276a1.379,1.379,0,1,1,0-2.759h1.379a1.379,1.379,0,1,1,0,2.759Zm0,5.517H41.276a1.379,1.379,0,0,1,0-2.759h1.379a1.379,1.379,0,0,1,0,2.759Zm6.9-5.517H48.172a1.379,1.379,0,1,1,0-2.759h1.379a1.379,1.379,0,1,1,0,2.759Zm0,5.517H48.172a1.379,1.379,0,0,1,0-2.759h1.379a1.379,1.379,0,0,1,0,2.759ZM35.759,28.759H34.379a1.379,1.379,0,1,1,0-2.759h1.379a1.379,1.379,0,0,1,0,2.759Zm0,5.517H34.379a1.379,1.379,0,1,1,0-2.759h1.379a1.379,1.379,0,0,1,0,2.759Zm6.9-5.517H41.276a1.379,1.379,0,0,1,0-2.759h1.379a1.379,1.379,0,1,1,0,2.759Zm0,5.517H41.276a1.379,1.379,0,0,1,0-2.759h1.379a1.379,1.379,0,1,1,0,2.759Zm6.9-5.517H48.172a1.379,1.379,0,1,1,0-2.759h1.379a1.379,1.379,0,0,1,0,2.759Zm0,5.517H48.172a1.379,1.379,0,1,1,0-2.759h1.379a1.379,1.379,0,0,1,0,2.759Z" transform="translate(-33 -26)" fill="#35718a"/>
    </g>
  </g>
</svg>
