<svg xmlns="http://www.w3.org/2000/svg" width="70.95" height="80" viewBox="0 0 70.95 80">
  <g id="Group_19350" data-name="Group 19350" transform="translate(-8.5 -3.1)">
    <path id="Path_73588" data-name="Path 73588" d="M84.7,53.5a14.059,14.059,0,0,0,0-24.2A14.085,14.085,0,0,0,77.5,3.1H36.3A14.084,14.084,0,0,0,22.2,17.2a14.243,14.243,0,0,0,6.9,12.1,13.948,13.948,0,0,0-2.7,2.1,13.575,13.575,0,0,0-3.9,7.7,2.022,2.022,0,1,0,4,.6,9.715,9.715,0,0,1,2.8-5.5,9.9,9.9,0,0,1,7.1-2.9H77.6a10.1,10.1,0,0,1,0,20.2h-27a2,2,0,0,0,0,4h27a10.1,10.1,0,0,1,0,20.2H48a2,2,0,0,0,0,4H77.5a14.085,14.085,0,0,0,7.2-26.2ZM26.2,17.3A10.136,10.136,0,0,1,36.3,7.2H77.5a10.1,10.1,0,0,1,0,20.2H36.3A10.2,10.2,0,0,1,26.2,17.3Z" transform="translate(-12.15)" fill="#115baa"/>
    <g id="Group_19349" data-name="Group 19349" transform="translate(55.45 15.3)">
      <path id="Path_73589" data-name="Path 73589" d="M77.5,43.4a2,2,0,0,0,0-4H69.6a2,2,0,0,0,0,4ZM69.6,19.3h7.9a2,2,0,0,0,0-4H69.6a2,2,0,0,0,0,4Zm7.9,48.2a2,2,0,0,0,0-4H69.6a2,2,0,0,0,0,4Z" transform="translate(-67.6 -15.3)" fill="#2ad39a"/>
    </g>
    <path id="Path_73590" data-name="Path 73590" d="M89.6,92.8H58.9v-9a2,2,0,0,0-4,0v9H24.2a2,2,0,0,0,0,4H89.6a2,2,0,0,0,0-4Z" transform="translate(-12.15 -13.7)" fill="#ffbd1f"/>
    <path id="Path_73591" data-name="Path 73591" d="M16.1,78c.1,0,0,0,.3-.1L27.9,73l11.6,4.9a1.987,1.987,0,0,0,2.3-.6,19.454,19.454,0,0,0,5.6-13.7,19.784,19.784,0,0,0-5.6-13.7l-.1-.1-.1-.1A19.117,19.117,0,0,0,28,44.1h-.2a19.216,19.216,0,0,0-13.5,5.5l-.2.2c0,.2-.1.2-.1.3A19.4,19.4,0,0,0,8.5,63.6v.2a19.4,19.4,0,0,0,5.6,13.6,2.094,2.094,0,0,0,2,.6ZM12.6,65.7h1.7a2,2,0,0,0,0-4H12.6a15.833,15.833,0,0,1,3.1-7.4l1.2,1.2a1.933,1.933,0,0,0,2.8,0,1.933,1.933,0,0,0,0-2.8l-1.2-1.2a16.279,16.279,0,0,1,7.4-3.1V50a2,2,0,0,0,4,0V48.3a15.833,15.833,0,0,1,7.4,3.1l-1.2,1.2a1.933,1.933,0,0,0,0,2.8,1.933,1.933,0,0,0,2.8,0l1.2-1.2a16.279,16.279,0,0,1,3.1,7.4H41.5a2,2,0,1,0,0,4h1.7a16.043,16.043,0,0,1-3.5,8L28.7,69a2.1,2.1,0,0,0-1.6,0L16,73.7A16.822,16.822,0,0,1,12.6,65.7Z" transform="translate(0 -9.4)" fill="#2ad39a"/>
    <path id="Path_73592" data-name="Path 73592" d="M29.3,65.1l5.8-5.8a1.98,1.98,0,1,0-2.8-2.8l-5.8,5.8a1.933,1.933,0,0,0,0,2.8,1.933,1.933,0,0,0,2.8,0Z" transform="translate(-2.884 -8.622)" fill="#15ea84"/>
  </g>
</svg>
