<svg xmlns="http://www.w3.org/2000/svg" viewBox="0 0 512.017 512.017" width="512" height="512"><path d="M503.466 256a228.187 228.187 0 0 1-2.048 31.573l-23.637 6.741-31.488 8.96a189.562 189.562 0 0 1-22.272 53.845l27.819 50.176a219.132 219.132 0 0 1-20.907 23.637 219.132 219.132 0 0 1-23.637 20.907l-15.189-8.448-34.901-19.456c-4.181 2.56-8.448 4.949-12.8 7.083h-.085a190.073 190.073 0 0 1-41.045 15.275l-15.701 55.125a228.187 228.187 0 0 1-31.573 2.048c-4.267 0-8.533-.085-12.8-.341-6.315-.256-12.544-.853-18.773-1.707l-15.701-55.125a189.562 189.562 0 0 1-53.845-22.272l-12.8 7.083-37.376 20.736c-3.584-2.731-6.997-5.547-10.411-8.448a226.384 226.384 0 0 1-13.227-12.459 219.132 219.132 0 0 1-20.907-23.637l27.904-50.091a193.845 193.845 0 0 1-22.357-53.931l-23.637-6.741-31.488-8.96a244.375 244.375 0 0 1 0-63.147l55.125-15.701a189.562 189.562 0 0 1 22.272-53.845L60.16 104.704a219.132 219.132 0 0 1 20.907-23.637 226.723 226.723 0 0 1 13.227-12.459c3.413-2.901 6.827-5.717 10.411-8.448l37.291 20.821h.085l12.715 7.083a193.845 193.845 0 0 1 53.931-22.357l11.52-40.448 4.181-14.677c6.229-.853 12.459-1.451 18.773-1.707 4.267-.256 8.533-.341 12.8-.341a228.187 228.187 0 0 1 31.573 2.048l15.701 55.125a185.407 185.407 0 0 1 41.045 15.189c4.352 2.133 8.619 4.523 12.8 7.083l34.987-19.371 15.189-8.448a219.132 219.132 0 0 1 23.637 20.907 219.132 219.132 0 0 1 20.907 23.637l-27.904 50.091a193.845 193.845 0 0 1 22.357 53.931l55.125 15.701A228.032 228.032 0 0 1 503.466 256z" data-original="#00838F" data-old_color="#115baa" fill="#115baa"/><path d="M420.693 303.275a189.562 189.562 0 0 1-22.272 53.845l27.819 50.176a219.132 219.132 0 0 1-20.907 23.637 226.723 226.723 0 0 1-13.227 12.459l-34.901-19.456c-4.181 2.56-8.448 4.949-12.8 7.083h-.085l-12.715-7.083a193.845 193.845 0 0 1-53.931 22.357l-15.701 55.125c-6.229.853-12.459 1.451-18.773 1.707-6.315-.256-12.544-.853-18.773-1.707l-15.701-55.125a189.562 189.562 0 0 1-53.845-22.272l-12.8 7.083c-4.352-2.133-33.195 23.296-37.376 20.736l-10.411-8.448a226.384 226.384 0 0 1-13.227-12.459 219.132 219.132 0 0 1-20.907-23.637l27.904-50.091a193.845 193.845 0 0 1-22.357-53.931l-23.637-6.741-31.488-8.96a244.375 244.375 0 0 1 0-63.147l55.125-15.701a189.562 189.562 0 0 1 22.272-53.845L60.16 104.704a219.132 219.132 0 0 1 20.907-23.637 226.723 226.723 0 0 1 13.227-12.459l10.411-8.448c4.181-2.56 32.939 22.955 37.291 20.821h.085l12.715 7.083a193.845 193.845 0 0 1 53.931-22.357l11.52-40.448L243.2 8.875c6.315.256 12.544.853 18.773 1.707l15.701 55.125a189.562 189.562 0 0 1 53.845 22.272l12.8-7.083c4.352 2.133 8.619 4.523 12.8 7.083l34.987-19.371a226.384 226.384 0 0 1 13.227 12.459 219.132 219.132 0 0 1 20.907 23.637l-27.904 50.091a193.845 193.845 0 0 1 22.357 53.931l55.125 15.701a244.375 244.375 0 0 1 0 63.147l-55.125 15.701z" data-original="#00BCD4" data-old_color="#115baa" fill="#115baa"/><path d="M392.533 256C392.472 331.38 331.38 392.472 256 392.533c-4.274.018-8.546-.182-12.8-.597-70.155-6.584-123.776-65.473-123.776-135.936S173.045 126.648 243.2 120.064c4.254-.416 8.526-.615 12.8-.597 75.38.061 136.472 61.153 136.533 136.533z" data-original="#6A1B9A" data-old_color="#115baa" fill="#115baa"/><path d="M366.933 256c-.062 70.423-53.626 129.27-123.733 135.936-70.155-6.584-123.776-65.473-123.776-135.936S173.045 126.648 243.2 120.064C313.307 126.73 366.871 185.577 366.933 256z" data-original="#9D27B0" data-old_color="#115baa" fill="#115baa"/><path d="M358.4 256c0 2.901-.085 5.717-.341 8.533a102.657 102.657 0 0 1-9.301 35.072v.085a108.526 108.526 0 0 1-20.309 28.672 107.596 107.596 0 0 1-13.995 11.776 105.997 105.997 0 0 1-14.763 8.619h-.085a102.657 102.657 0 0 1-35.072 9.301c-2.816.256-5.632.341-8.533.341s-5.717-.085-8.533-.341a36.208 36.208 0 0 1-4.267-.512 100.592 100.592 0 0 1-30.805-8.789h-.085a108.526 108.526 0 0 1-28.672-20.309 102.257 102.257 0 0 1-20.395-28.843 102.657 102.657 0 0 1-9.301-35.072c-.256-2.816-.341-5.632-.341-8.533s.085-5.717.341-8.533a102.657 102.657 0 0 1 9.301-35.072 107.089 107.089 0 0 1 20.309-28.757 107.596 107.596 0 0 1 13.995-11.776 105.997 105.997 0 0 1 14.763-8.619h.085a100.564 100.564 0 0 1 30.805-8.789 36.208 36.208 0 0 1 4.267-.512c2.816-.256 5.632-.341 8.533-.341s5.717.085 8.533.341a102.657 102.657 0 0 1 35.072 9.301h.085a108.526 108.526 0 0 1 28.672 20.309 107.596 107.596 0 0 1 11.776 13.995 105.997 105.997 0 0 1 8.619 14.763v.085a102.657 102.657 0 0 1 9.301 35.072c.255 2.816.341 5.632.341 8.533z" data-original="#CFD8DC" fill="#cfd8dc"/><path d="M332.8 256c0 2.901-.085 5.717-.341 8.533a102.657 102.657 0 0 1-9.301 35.072v.085a108.526 108.526 0 0 1-20.309 28.672 107.596 107.596 0 0 1-13.995 11.776 105.997 105.997 0 0 1-14.763 8.619h-.085a100.564 100.564 0 0 1-30.805 8.789 100.592 100.592 0 0 1-30.805-8.789h-.085a108.526 108.526 0 0 1-28.672-20.309 102.257 102.257 0 0 1-20.395-28.843 102.657 102.657 0 0 1-9.301-35.072c-.256-2.816-.341-5.632-.341-8.533s.085-5.717.341-8.533a102.657 102.657 0 0 1 9.301-35.072 107.089 107.089 0 0 1 20.309-28.757 107.596 107.596 0 0 1 13.995-11.776 105.997 105.997 0 0 1 14.763-8.619h.085a100.564 100.564 0 0 1 30.805-8.789 100.592 100.592 0 0 1 30.805 8.789h.085a108.526 108.526 0 0 1 28.672 20.309 107.596 107.596 0 0 1 11.776 13.995 105.997 105.997 0 0 1 8.619 14.763v.085a102.657 102.657 0 0 1 9.301 35.072c.255 2.816.341 5.632.341 8.533z" data-original="#F4F4F4" fill="#f4f4f4"/><path d="M256 110.933c-69.207.002-128.776 48.89-142.277 116.768s22.828 135.84 86.768 162.323c63.94 26.483 137.683 4.112 176.132-53.432s30.894-134.236-18.044-183.172A144.096 144.096 0 0 0 256 110.933zm90.504 235.571c-43.182 43.178-110.852 49.838-161.624 15.909-50.772-33.929-70.506-98.999-47.134-155.415s83.343-88.465 143.234-76.547C340.872 142.369 384.005 194.934 384 256a127.143 127.143 0 0 1-37.496 90.504z" data-original="#000000" class="active-path" data-old_color="#18b35c" fill="#18b35c"/><path d="M503.791 216.235l-50.423-14.353a202.493 202.493 0 0 0-19.558-47.215l25.455-45.79a8.534 8.534 0 0 0-.666-9.31 224.022 224.022 0 0 0-21.581-24.474 224.817 224.817 0 0 0-24.593-21.709 8.534 8.534 0 0 0-9.301-.666l-45.85 25.446a202.273 202.273 0 0 0-47.155-19.533L295.757 8.2a8.533 8.533 0 0 0-7.074-6.118 258.577 258.577 0 0 0-65.365 0 8.534 8.534 0 0 0-7.074 6.118l-14.362 50.432a202.022 202.022 0 0 0-47.206 19.567l-45.79-25.463a8.533 8.533 0 0 0-9.31.657 223.823 223.823 0 0 0-24.483 21.581 224.923 224.923 0 0 0-21.709 24.593 8.534 8.534 0 0 0-.666 9.301l25.429 45.858a201.481 201.481 0 0 0-19.533 47.155L8.209 216.235a8.534 8.534 0 0 0-6.127 7.074 257.694 257.694 0 0 0 0 65.382 8.535 8.535 0 0 0 6.127 7.066l50.423 14.362a202.285 202.285 0 0 0 19.558 47.215l-25.455 45.781a8.533 8.533 0 0 0 .657 9.31 223.292 223.292 0 0 0 21.589 24.482 224.817 224.817 0 0 0 24.593 21.709 8.534 8.534 0 0 0 9.301.666l45.85-25.438a202.273 202.273 0 0 0 47.155 19.533l14.362 50.423a8.533 8.533 0 0 0 7.074 6.118 256.46 256.46 0 0 0 65.365 0 8.534 8.534 0 0 0 7.074-6.118l14.362-50.423a201.505 201.505 0 0 0 47.215-19.567l45.781 25.455a8.533 8.533 0 0 0 9.31-.657 223.906 223.906 0 0 0 24.482-21.581 224.192 224.192 0 0 0 21.717-24.602 8.534 8.534 0 0 0 .657-9.301l-25.429-45.85a201.687 201.687 0 0 0 19.533-47.155l50.423-14.362a8.533 8.533 0 0 0 6.127-7.066 257.694 257.694 0 0 0 0-65.382 8.529 8.529 0 0 0-6.142-7.074zm-10.121 64.657l-49.673 14.148a8.532 8.532 0 0 0-5.973 6.161 184.74 184.74 0 0 1-21.333 51.533 8.531 8.531 0 0 0-.162 8.533l25.062 45.175a210.706 210.706 0 0 1-16.759 18.517 210.978 210.978 0 0 1-18.355 16.64L361.37 416.52a8.53 8.53 0 0 0-8.533.154 184.842 184.842 0 0 1-51.593 21.333 8.534 8.534 0 0 0-6.17 5.973l-14.14 49.664a245.223 245.223 0 0 1-49.801 0l-14.14-49.664a8.534 8.534 0 0 0-6.17-5.973 185.022 185.022 0 0 1-51.524-21.333 8.531 8.531 0 0 0-8.533-.162L105.532 441.6a211.257 211.257 0 0 1-18.492-16.768 210.32 210.32 0 0 1-16.64-18.364l25.079-45.107a8.53 8.53 0 0 0-.154-8.533 185.335 185.335 0 0 1-21.333-51.593 8.534 8.534 0 0 0-5.973-6.161l-49.69-14.182A234.104 234.104 0 0 1 17.066 256a238.295 238.295 0 0 1 1.263-24.9l49.673-14.14a8.534 8.534 0 0 0 5.973-6.17 184.878 184.878 0 0 1 21.333-51.524 8.531 8.531 0 0 0 .162-8.533l-25.079-45.201A213.192 213.192 0 0 1 87.168 87.04a209.872 209.872 0 0 1 18.364-16.64l45.107 25.079a8.53 8.53 0 0 0 8.533-.154 184.842 184.842 0 0 1 51.584-21.333 8.534 8.534 0 0 0 6.17-5.973l14.14-49.673a244.074 244.074 0 0 1 49.801 0l14.14 49.673a8.534 8.534 0 0 0 6.17 5.973 184.745 184.745 0 0 1 51.524 21.333 8.585 8.585 0 0 0 8.533.162L406.468 70.4a211.257 211.257 0 0 1 18.492 16.768 209.11 209.11 0 0 1 16.64 18.364l-25.079 45.107a8.53 8.53 0 0 0 .154 8.533 185.178 185.178 0 0 1 21.376 51.601 8.534 8.534 0 0 0 5.973 6.161l49.673 14.14A238.493 238.493 0 0 1 494.934 256c.02 8.314-.401 16.623-1.264 24.892z" data-original="#000000" class="active-path" data-old_color="#18b35c" fill="#18b35c"/><path d="M273.066 247.467h-8.533v-34.133a8.533 8.533 0 0 0-17.066 0V256a8.533 8.533 0 0 0 8.533 8.533h17.067a8.533 8.533 0 1 0-.001-17.066z" data-original="#000000" class="active-path" data-old_color="#18b35c" fill="#18b35c"/><path d="M351.795 200.218a108.842 108.842 0 0 0-40.03-40.021c-.111-.077-.179-.196-.299-.265-.119-.068-.222-.06-.324-.111-34.127-19.673-76.15-19.673-110.276 0-.111.051-.23.051-.333.111-.102.06-.188.188-.307.265a108.744 108.744 0 0 0-40.021 40.021c-.077.119-.205.188-.282.316-.077.128-.06.23-.111.341a110.413 110.413 0 0 0 0 110.251c.051.111.051.23.111.341s.282.333.401.521a108.834 108.834 0 0 0 39.91 39.817c.111.077.179.196.299.264.119.068.307.111.452.188a110.454 110.454 0 0 0 110.02 0c.154-.077.316-.111.461-.196s.188-.188.307-.265a108.715 108.715 0 0 0 39.902-39.817c.128-.188.29-.324.401-.521s.06-.23.111-.341a110.413 110.413 0 0 0 0-110.251c-.051-.111-.051-.23-.111-.341s-.204-.188-.281-.307zm-41.702 132.411l-4.036-6.997a8.533 8.533 0 1 0-14.779 8.533l4.045 7.006a92.99 92.99 0 0 1-30.788 8.277v-8.115a8.533 8.533 0 0 0-17.066 0v8.115a93.032 93.032 0 0 1-30.788-8.277l4.045-7.006a8.534 8.534 0 0 0-14.779-8.534l-4.036 6.997a89.9 89.9 0 0 1-22.537-22.536l6.997-4.036a8.533 8.533 0 1 0-8.533-14.779l-7.006 4.036a92.939 92.939 0 0 1-8.277-30.78h8.115a8.533 8.533 0 0 0 0-17.066h-8.115a93.032 93.032 0 0 1 8.277-30.788l7.006 4.045a8.533 8.533 0 1 0 8.533-14.779l-6.997-4.036a94.971 94.971 0 0 1 10.24-12.279 93.931 93.931 0 0 1 12.279-10.24l4.036 6.997a8.533 8.533 0 1 0 14.779-8.533l-4.045-7.006a93.019 93.019 0 0 1 30.805-8.294v8.115a8.533 8.533 0 0 0 17.066 0v-8.115a93.032 93.032 0 0 1 30.788 8.277l-4.045 7.006a8.533 8.533 0 1 0 14.779 8.533l4.036-6.997a89.866 89.866 0 0 1 22.536 22.537l-6.997 4.036a8.533 8.533 0 1 0 8.533 14.779l7.006-4.036a92.939 92.939 0 0 1 8.277 30.78h-8.115a8.533 8.533 0 0 0 0 17.066h8.115a93.032 93.032 0 0 1-8.277 30.788l-7.006-4.045a8.534 8.534 0 0 0-8.534 14.779l6.997 4.036a94.971 94.971 0 0 1-10.24 12.279 93.694 93.694 0 0 1-12.294 10.257z" data-original="#000000" class="active-path" data-old_color="#18b35c" fill="#18b35c"/></svg>