<svg xmlns="http://www.w3.org/2000/svg" width="63.579" height="80" viewBox="0 0 63.579 80">
  <g id="Group_19358" data-name="Group 19358" transform="translate(-52.546)">
    <path id="Path_73610" data-name="Path 73610" d="M132.217,287.638H109.6V267.384h-4.9v20.254H81.966a2.45,2.45,0,1,0,0,4.9h50.252a2.45,2.45,0,0,0,0-4.9Z" transform="translate(-22.756 -225.605)" fill="#eaf6ff"/>
    <path id="Path_73611" data-name="Path 73611" d="M390.715,397.009h-4.831a2.45,2.45,0,1,1,0,4.9h4.831a2.45,2.45,0,1,0,0-4.9Z" transform="translate(-281.254 -334.976)" fill="#d8ecfe"/>
    <path id="Path_73612" data-name="Path 73612" d="M197.423,362.634a.587.587,0,0,1-.352-.116l-5.9-4.378a5.341,5.341,0,0,1-2.149-4.271V342.984a1.777,1.777,0,0,1,1.025-1.608A4.879,4.879,0,0,0,192,339.883a4.564,4.564,0,0,0,.728-1.7,1.785,1.785,0,0,1,1.733-1.4h5.384c.835,0,3.876.919,4.064,1.732.161.7,2.331,2.317,2.659,2.769,0,0,1.835,13.8.483,14.8l-9.281,6.423A.586.586,0,0,1,197.423,362.634Z" transform="translate(-115.151 -284.165)" fill="#bbec6c"/>
    <path id="Path_73613" data-name="Path 73613" d="M250.438,339.884a4.559,4.559,0,0,1-.728-1.7,1.785,1.785,0,0,0-1.733-1.4h-4.659a3.183,3.183,0,0,1,1.7,1.9,4.173,4.173,0,0,0,.591,1.2,5.028,5.028,0,0,0,2.116,1.566,1.452,1.452,0,0,1,.867,1.324v11.1a5.318,5.318,0,0,1-2.149,4.271l-5.9,4.378,2.064,1.531a.591.591,0,0,0,.7,0l7.964-5.909a5.318,5.318,0,0,0,2.149-4.271V342.984a1.777,1.777,0,0,0-1.025-1.608A4.875,4.875,0,0,1,250.438,339.884Z" transform="translate(-158.62 -284.166)" fill="#a2e62e"/>
    <path id="Path_73614" data-name="Path 73614" d="M225.588,402.641a1.2,1.2,0,0,1-.854-.354l-2.755-2.755a1.207,1.207,0,0,1,1.708-1.707l1.9,1.9,4.718-4.718a1.207,1.207,0,0,1,1.708,1.707l-5.572,5.572A1.2,1.2,0,0,1,225.588,402.641Z" transform="translate(-142.661 -332.99)" fill="#eaf6ff"/>
    <path id="Path_73615" data-name="Path 73615" d="M112.552,43.388H56.119a3.573,3.573,0,0,1-3.573-3.573V3.573A3.573,3.573,0,0,1,56.119,0H73.024a3.573,3.573,0,0,1,3.069,1.744l2.93,4.915A3.573,3.573,0,0,0,82.093,8.4h30.459a3.573,3.573,0,0,1,3.573,3.573V39.815A3.573,3.573,0,0,1,112.552,43.388Z" fill="#26a6fe"/>
    <g id="Group_19356" data-name="Group 19356" transform="translate(67.424 0)">
      <path id="Path_73616" data-name="Path 73616" d="M150.834,1.744l2.93,4.915A3.573,3.573,0,0,0,156.833,8.4h5.6a3.573,3.573,0,0,1-3.07-1.744l-2.93-4.915A3.573,3.573,0,0,0,153.365,0h-5.6a3.573,3.573,0,0,1,3.07,1.744ZM192.892,8.4h-5.6a3.573,3.573,0,0,1,3.573,3.573V39.815a3.573,3.573,0,0,1-3.573,3.573h5.6a3.573,3.573,0,0,0,3.573-3.573V11.976A3.573,3.573,0,0,0,192.892,8.4Z" transform="translate(-147.764)" fill="#0593fc"/>
    </g>
    <g id="Group_19357" data-name="Group 19357" transform="translate(60.634 16.977)">
      <path id="Path_73617" data-name="Path 73617" d="M125.41,108.655h-5.747a1.207,1.207,0,0,0-1.207,1.207v14.18a1.207,1.207,0,0,0,2.414,0v-6.017h4.083a1.207,1.207,0,0,0,0-2.414H120.87v-4.541h4.54a1.207,1.207,0,0,0,0-2.415Zm-13.257,7.33c-1.85-.682-3.564-1.427-3.984-1.612a1.555,1.555,0,0,1-.627-1.514,2.043,2.043,0,0,1,1.542-1.616,5.341,5.341,0,0,1,4.465,1.015,1.207,1.207,0,1,0,1.55-1.851,7.713,7.713,0,0,0-6.711-1.476,4.453,4.453,0,0,0-3.235,3.585,3.967,3.967,0,0,0,1.769,3.928,1.211,1.211,0,0,0,.167.091c.082.036,2.032.9,4.23,1.715,1.612.595,2.43,1.538,2.242,2.589a2.948,2.948,0,0,1-3.065,2.1,5.56,5.56,0,0,1-4.083-1.721,1.207,1.207,0,0,0-1.789,1.621,8.009,8.009,0,0,0,5.872,2.514,5.384,5.384,0,0,0,5.442-4.091c.48-2.686-1.64-4.488-3.783-5.279Zm25.661-7.33h-7.889a1.207,1.207,0,0,0,0,2.414h2.721v13.077a1.207,1.207,0,1,0,2.414,0V111.069h2.753a1.207,1.207,0,0,0,0-2.414Zm8.581,0h-3.978a1.194,1.194,0,0,0-.121.006q-.05.005-.1.015l-.017,0a1.2,1.2,0,0,0-.43.178l0,0a1.208,1.208,0,0,0-.184.151h0l-.007.007q-.038.039-.072.08l-.015.02q-.029.036-.055.075l-.012.02q-.026.04-.049.082l-.008.016c-.015.03-.03.06-.043.091l-.005.015c-.012.031-.024.063-.034.1l-.005.019c-.009.031-.017.063-.024.095,0,.012,0,.024-.006.037s-.009.053-.012.08,0,.049,0,.073,0,.03,0,.045v14.285a1.207,1.207,0,1,0,2.414,0v-5c.916,0,2.137-.011,2.77-.011a5.239,5.239,0,1,0,0-10.477Zm0,8.062c-.63,0-1.834.006-2.75.011,0-.941-.011-2.192-.011-2.835,0-.543,0-1.845-.006-2.824h2.767a2.825,2.825,0,1,1,0,5.648Z" transform="translate(-104.309 -108.654)" fill="#bbec6c"/>
    </g>
  </g>
</svg>
