<svg xmlns="http://www.w3.org/2000/svg" viewBox="0 0 480 480" width="512" height="512"><path d="M216 80c0 30.952 50.096 56 112 56v-8c0-48.6-39.4-88-88-88s-88 39.4-88 88c35.376 0 64-21.472 64-48z" data-original="#21BABD" data-old_color="#115baa" fill="#115baa"/><path d="M280 248h-3.496c12.2-5.576 22.944-13.784 31.376-24 12.568-15.216 20.12-34.728 20.12-56v8h12c15.464 0 28-12.536 28-28s-12.536-28-28-28h-12v16c-61.904 0-112-25.048-112-56 0 26.528-28.624 48-64 48v-8h-12c-15.464 0-28 12.536-28 28s12.536 28 28 28h12v-8c0 35.56 21.136 66.12 51.496 80H200l40 80 40-80zm-29.112 7.256c2.68-.336 5.336-.752 7.928-1.328-2.592.584-5.248.992-7.928 1.328zm8.664-1.512zM212.08 251.4zm9.096 2.536c2.6.576 5.256.984 7.928 1.328-2.672-.344-5.328-.752-7.928-1.328zM240 256z" data-original="#FCEADE" fill="#fceade"/><path d="M96 360c0-17.672 14.328-32 32-32h112l-40-80h-32c-61.856 0-112 50.144-112 112v112h40V360z" data-original="#21BABD" data-old_color="#115baa" fill="#115baa"/><path d="M352 328H128c-17.672 0-32 14.328-32 32v112h288V360c0-17.672-14.328-32-32-32zm-112 96c-13.256 0-24-10.744-24-24s10.744-24 24-24 24 10.744 24 24-10.744 24-24 24z" data-original="#FF8A5B" data-old_color="#18b35c" fill="#18b35c"/><circle cx="240" cy="400" r="24" data-original="#FCEADE" fill="#fceade"/><path d="M272 328h80c17.672 0 32 14.328 32 32v112h40V360c0-61.856-50.144-112-112-112h-32l-40 80h32z" data-original="#21BABD" data-old_color="#115baa" fill="#115baa"/><path d="M208 168c4.416 0 8 3.592 8 8h16c0-13.232-10.768-24-24-24s-24 10.768-24 24h16c0-4.408 3.584-8 8-8zm64 0c4.416 0 8 3.592 8 8h16c0-13.232-10.768-24-24-24s-24 10.768-24 24h16c0-4.408 3.584-8 8-8zm-32 200c-17.648 0-32 14.352-32 32s14.352 32 32 32 32-14.352 32-32-14.352-32-32-32zm0 48c-8.824 0-16-7.176-16-16s7.176-16 16-16 16 7.176 16 16-7.176 16-16 16z" data-original="#2B2D42" class="active-path" data-old_color="#18B35C" fill="#2b2d42"/><path d="M432 360c0-66.168-53.832-120-120-120h-8.712a96.32 96.32 0 0 0 8.064-8H320c22.056 0 40-17.944 40-40v-14.096c9.64-6.464 16-17.456 16-29.904 0-12.496-6.408-23.504-16.096-29.96C358.84 52.784 305.512 0 240 0S121.16 52.784 120.096 118.04C110.408 124.496 104 135.504 104 148c0 19.848 16.152 36 36 36h5.448c3.744 22.168 15.072 41.744 31.272 56H168c-66.168 0-120 53.832-120 120v104H0v16h480v-16h-48V360zm-192-96c8.56 0 16.824-1.232 24.728-3.344L240 310.112l-24.728-49.456C223.176 262.768 231.44 264 240 264zm59.056-8l-32 64h-14.112l32-64h14.112zM344 192c0 12.136-9.088 22.088-20.792 23.672A95.14 95.14 0 0 0 334.552 184H340c1.368 0 2.672-.256 4-.408V192zm-4-24h-4v-40h4c11.032 0 20 8.976 20 20s-8.968 20-20 20zM240 16c54.768 0 99.68 42.584 103.616 96.368-1.208-.128-2.376-.368-3.616-.368h-5.448c-7.648-45.328-47.08-80-94.552-80s-86.904 34.672-94.552 80H140c-1.24 0-2.408.24-3.616.368C140.32 58.584 185.232 16 240 16zm79.992 111.8C262.256 125.768 224 102.16 224 80c0-4.416-3.576-8-8-8s-8 3.584-8 8c0 19.992-20.672 36.56-47.536 39.496C164.728 79.368 198.768 48 240 48c44.04 0 79.88 35.784 79.992 79.8zM140 168c-11.032 0-20-8.976-20-20s8.968-20 20-20h4v40h-4zm20 0v-32.448c24.984-2.168 46.184-14.216 56.768-31.088C233.504 126.64 272.616 142.248 320 143.84V168c0 18.024-6.064 34.608-16.152 48H240v16h47.792a79.77 79.77 0 0 1-14.824 8.8c-20.992 9.536-44.952 9.536-65.952 0C179.336 228.208 160 200.352 160 168zm67.056 152h-14.112l-32-64h14.112l32 64zM64 360c0-55.72 44.08-101.208 99.176-103.752L195.056 320H128c-22.056 0-40 17.944-40 40v104H64V360zm40 104V360c0-13.232 10.768-24 24-24h224c13.232 0 24 10.768 24 24v104H104zm288 0V360c0-22.056-17.944-40-40-40h-67.056l31.88-63.752C371.92 258.792 416 304.28 416 360v104h-24z" data-original="#2B2D42" class="active-path" data-old_color="#18B35C" fill="#2b2d42"/><path data-original="#2B2D42" class="active-path" data-old_color="#18B35C" fill="#2b2d42" d="M344 392h16v56h-16zm0-32h16v16h-16zm72-288h16v16h-16zm0 32h16v16h-16zm0 32h16v16h-16zM48 168h16v16H48zm0 32h16v16H48zm0 32h16v16H48z"/></svg>