<svg data-name="Group 19881" xmlns="http://www.w3.org/2000/svg" xmlns:xlink="http://www.w3.org/1999/xlink" width="391.352" height="259.935"><defs><clipPath id="bF"><path data-name="Rectangle 18381" fill="none" d="M0 0h7.98v4.803H0z"/></clipPath><clipPath id="m"><path data-name="Rectangle 18463" fill="none" d="M0 0h391.352v259.935H0z"/></clipPath><clipPath id="ee"><path data-name="Path 74124" d="M432.155 195.128s-5.089-6-12.921-6.518c0 0 10.39 6.918 14.093 16.583 0 0 9.971-25.422 23.411-34.021 0 0-13.035 2.574-24.583 23.957" transform="translate(-419.234 -171.171)" fill="none"/></clipPath><clipPath id="o"><path data-name="Path 73937" d="M406.553 0a3.72 3.72 0 1 0 3.721 3.721A3.72 3.72 0 0 0 406.553 0Z" transform="translate(-402.834)" fill="none"/></clipPath><clipPath id="ec"><path data-name="Path 74122" d="M405.755 174.553s-1.143 32.924 23.371 41.447c24.515-8.522 23.371-41.445 23.371-41.445l-23.371-9.306Z" transform="translate(-405.747 -165.247)" fill="none"/></clipPath><clipPath id="q"><path data-name="Path 73943" d="M288.375 280.34a59.531 59.531 0 0 0 4.217 9.042 19.336 19.336 0 0 1 2.449 8.682 90.221 90.221 0 0 1-.526 14.38l.841.12a92.663 92.663 0 0 0 .471-15.928 19.052 19.052 0 0 1 .685-6.3 22.849 22.849 0 0 0 .521-11.009c-1.876-8.955-12.329-17.8-12.329-17.8s1.727 13.107 3.672 18.813" transform="translate(-284.703 -261.527)" fill="none"/></clipPath><clipPath id="ea"><path data-name="Path 74121" d="M515.707 255.51a4.36 4.36 0 1 0 4.36-4.36 4.36 4.36 0 0 0-4.36 4.36" transform="translate(-515.707 -251.15)" fill="none"/></clipPath><clipPath id="r"><path data-name="Path 73945" d="M306.461 289.137a18.944 18.944 0 0 0-.208 9.69 13.974 13.974 0 0 1 .251 5.764 99.742 99.742 0 0 0-1.207 18.42l.849-.038a99.568 99.568 0 0 1 1.026-17.211 13.349 13.349 0 0 1 2.982-6.572 30.988 30.988 0 0 0 4.458-7.19c3.491-7.875 4.75-17.809 4.75-17.809s-10.5 6.112-12.9 14.941" transform="translate(-305.255 -274.196)" fill="none"/></clipPath><clipPath id="dY"><path data-name="Path 74120" d="m532.542 257.578-6.982 10.386-6.374 9.493h18.6a2.415 2.415 0 0 0 2.408-2.408v-10.643l-4.589-6.828a1.84 1.84 0 0 0-3.06 0" transform="translate(-519.186 -256.76)" fill="none"/></clipPath><clipPath id="t"><path data-name="Path 73953" d="M250.364 52.065a3.892 3.892 0 1 0 3.86-4.393 4.152 4.152 0 0 0-3.86 4.393" transform="translate(-250.364 -47.672)" fill="none"/></clipPath><clipPath id="dW"><path data-name="Path 74119" d="m516.274 267.267-7.832 11.667a2.392 2.392 0 0 0 2.233 1.537h17.895l-6.383-9.493-2.5-3.711a2.065 2.065 0 0 0-3.418 0" transform="translate(-508.442 -266.361)" fill="none"/></clipPath><clipPath id="u"><path data-name="Path 73954" d="M250.535 62.269a10.639 10.639 0 0 0-5.674 2.5 10.44 10.44 0 0 0-1.411 1.485 11.718 11.718 0 0 0 17.206 0 10.6 10.6 0 0 0-7.086-3.988 12.761 12.761 0 0 0-3.035 0" transform="translate(-243.45 -62.178)" fill="none"/></clipPath><clipPath id="dU"><path data-name="Rectangle 18451" d="M6.354 0h18.131a6.352 6.352 0 0 1 6.352 6.352v7.635a6.352 6.352 0 0 1-6.352 6.352H6.353A6.353 6.353 0 0 1 0 13.986V6.354A6.354 6.354 0 0 1 6.354 0Z" fill="none"/></clipPath><clipPath id="w"><path data-name="Path 73956" d="M450.024 152.448a1.946 1.946 0 1 0 1.93-2.2 2.076 2.076 0 0 0-1.93 2.2" transform="translate(-450.024 -150.252)" fill="none"/></clipPath><clipPath id="dS"><path data-name="Path 74103" d="M263.888 135.492a.362.362 0 1 0 0 .725h13.076a.362.362 0 0 0 0-.725Z" transform="translate(-263.525 -135.492)" fill="none"/></clipPath><clipPath id="y"><path data-name="Path 73957" d="M450.11 157.55a5.315 5.315 0 0 0-2.838 1.251 5.208 5.208 0 0 0-.706.743 5.86 5.86 0 0 0 8.6 0 5.291 5.291 0 0 0-3.543-1.994 6.281 6.281 0 0 0-1.517 0" transform="translate(-446.566 -157.504)" fill="none"/></clipPath><clipPath id="dQ"><path data-name="Path 74102" d="M280.622 132.974a.363.363 0 0 0 0 .725h12.725a.363.363 0 1 0 0-.725Z" transform="translate(-280.26 -132.974)" fill="none"/></clipPath><clipPath id="A"><path data-name="Path 73959" d="M37.194 210.908a2.668 2.668 0 1 0 2.645-3.01 2.846 2.846 0 0 0-2.645 3.01" transform="translate(-37.194 -207.897)" fill="none"/></clipPath><clipPath id="dO"><path data-name="Path 74101" d="M263.888 132.974a.363.363 0 1 0 0 .725h10.023a.363.363 0 1 0 0-.725Z" transform="translate(-263.525 -132.974)" fill="none"/></clipPath><clipPath id="C"><path data-name="Path 73960" d="M37.311 217.9a7.282 7.282 0 0 0-3.889 1.715 7.2 7.2 0 0 0-.968 1.018 8.032 8.032 0 0 0 11.794 0 7.26 7.26 0 0 0-4.857-2.733 8.7 8.7 0 0 0-2.081 0" transform="translate(-32.454 -217.84)" fill="none"/></clipPath><clipPath id="dM"><path data-name="Path 74100" d="M263.888 130.457a.363.363 0 1 0 0 .725h24.205a.363.363 0 1 0 0-.725Z" transform="translate(-263.525 -130.457)" fill="none"/></clipPath><clipPath id="E"><rect data-name="Rectangle 18275" width="109.878" height="21.77" rx="8.84" fill="none"/></clipPath><clipPath id="dK"><path data-name="Rectangle 18445" d="M2.494 0h2.17a2.494 2.494 0 0 1 2.494 2.494v2.169a2.5 2.5 0 0 1-2.5 2.5H2.5A2.5 2.5 0 0 1 0 4.664v-2.17A2.494 2.494 0 0 1 2.494 0Z" fill="none"/></clipPath><clipPath id="F"><path data-name="Rectangle 18277" d="M1.294 0h6.127a1.293 1.293 0 0 1 1.293 1.293v9.5a1.293 1.293 0 0 1-1.293 1.293H1.292A1.292 1.292 0 0 1 0 10.792v-9.5A1.294 1.294 0 0 1 1.294 0Z" fill="none"/></clipPath><clipPath id="dI"><path data-name="Path 74098" d="M130.956 187.255c-1.3 1.106-2.23 2.1-2.23 3.194 0 2.079-.071 3.708-.071 3.71-1.731 4.957-5.241 15.045-5.241 15.045l6.247 7.9s1.273-2.129 1.723-12.17a73.336 73.336 0 0 1 1.258-9.748 14.768 14.768 0 0 0 2.046-3.1c.313-.455.6-.863.741-1.055a6.546 6.546 0 0 0 .714-1.937l-4.662.586-.07-.032s.2-.558.374-1.19a4.188 4.188 0 0 0 .582-1.367c0-.447-.129-.61-.317-.61-.31 0-.781.442-1.094.776" transform="translate(-123.414 -186.479)" fill="none"/></clipPath><clipPath id="H"><path data-name="Rectangle 18279" d="M1.294 0H7.42a1.293 1.293 0 0 1 1.293 1.293v9.5a1.293 1.293 0 0 1-1.293 1.291H1.292A1.292 1.292 0 0 1 0 10.792v-9.5A1.294 1.294 0 0 1 1.294 0Z" fill="none"/></clipPath><clipPath id="dG"><path data-name="Path 74097" d="m143.355 183.49-9.94 1.248a.271.271 0 0 0-.235.3v.014a.27.27 0 0 0 .3.235l9.94-1.248a.27.27 0 0 0 .234-.3v-.014a.27.27 0 0 0-.267-.237h-.034" transform="translate(-133.178 -183.488)" fill="none"/></clipPath><clipPath id="J"><path data-name="Path 73967" d="M430.766 356.835a3.107 3.107 0 1 0 3.107-3.107 3.108 3.108 0 0 0-3.107 3.107" transform="translate(-430.766 -353.728)" fill="none"/></clipPath><clipPath id="dE"><path data-name="Path 74096" d="m155.552 180.034-9.674 1.214a.27.27 0 0 0-.234.3v.014a.27.27 0 0 0 .3.235l9.674-1.215a.271.271 0 0 0 .235-.3v-.014a.271.271 0 0 0-.268-.237.184.184 0 0 0-.034 0" transform="translate(-145.642 -180.031)" fill="none"/></clipPath><clipPath id="K"><path data-name="Rectangle 18284" d="M.855 0h6.058a.855.855 0 0 1 .855.855v.992a.855.855 0 0 1-.855.855H.854A.854.854 0 0 1 0 1.848V.855A.855.855 0 0 1 .855 0Z" fill="none"/></clipPath><clipPath id="dC"><path data-name="Path 74095" d="m140.8 182-7.623.957a.27.27 0 0 0-.234.3v.014a.271.271 0 0 0 .3.235l7.623-.957a.27.27 0 0 0 .234-.3v-.014a.269.269 0 0 0-.267-.237h-.034" transform="translate(-132.939 -182.002)" fill="none"/></clipPath><clipPath id="M"><path data-name="Path 73969" d="M473.987 354.144v5.606h1.613a1.049 1.049 0 0 0 1.049-1.05v-3.506a1.05 1.05 0 0 0-1.049-1.05Z" transform="translate(-473.987 -354.144)" fill="none"/></clipPath><clipPath id="dA"><path data-name="Path 74094" d="m151.323 178.123-18.389 2.309a.27.27 0 0 0-.235.3v.014a.27.27 0 0 0 .3.235l18.389-2.309a.27.27 0 0 0 .235-.3v-.014a.27.27 0 0 0-.268-.237h-.034" transform="translate(-132.698 -178.121)" fill="none"/></clipPath><clipPath id="dy"><path data-name="Path 74093" d="m126.257 180.458-2.037.255a1.712 1.712 0 0 0-1.486 1.912l.256 2.037a1.712 1.712 0 0 0 1.912 1.485l2.037-.255a1.714 1.714 0 0 0 1.486-1.913l-.257-2.037a1.712 1.712 0 0 0-1.7-1.5 1.754 1.754 0 0 0-.215.014" transform="translate(-122.72 -180.444)" fill="none"/></clipPath><clipPath id="P"><path data-name="Rectangle 18292" d="M1.294 0H7.42a1.294 1.294 0 0 1 1.294 1.294v9.5a1.293 1.293 0 0 1-1.293 1.293H1.293A1.293 1.293 0 0 1 0 10.792v-9.5A1.294 1.294 0 0 1 1.294 0Z" fill="none"/></clipPath><clipPath id="dw"><path data-name="Path 74091" d="M64.113 197.84c-2.464 4.616-3.831 16.04-3.831 16.04a40.12 40.12 0 0 0 5.013 1.2 30.61 30.61 0 0 0 5.826.32s2.09-8.79 2.045-12.157l-4.03-9.49s-4.007 2.178-5.023 4.084" transform="translate(-60.282 -193.756)" fill="none"/></clipPath><clipPath id="R"><path data-name="Path 73972" d="M430.766 321.328a3.107 3.107 0 1 0 3.107-3.107 3.107 3.107 0 0 0-3.107 3.107" transform="translate(-430.766 -318.221)" fill="none"/></clipPath><clipPath id="du"><path data-name="Path 74090" d="M59.449 229.743c.725 1.236 2.635 1.826 4.582 1.614 2.589-.281 8.117-2.344 16.294-4.66 1.286-.171 2.132-.322 3.79-.534a6.378 6.378 0 0 0 1.466-.368l.037-.016c.038-.015.071-.031.106-.047a13.047 13.047 0 0 0 1.519-.783c.748-.465 1.643-1.048 1.486-1.463-.075-.2-.342-.226-.587-.2.677-.417 1.257-.781 1.113-1.162-.06-.157-.244-.207-.442-.21.558-.349.928-.621.8-.965-.123-.327-.785-.2-.982-.125s-.423.176-.779.327l-.269.115c.541-.316.917-.542.79-.875s-.785-.2-.982-.125-.422.176-.779.327c-.5.213-1.248.541-1.693.737-.792.123-1.758.392-1.752.349.038-.286.226-.646.285-.965.136-.3.613-1.453.31-1.832-.343-.429-.586-.256-.849.293a9.357 9.357 0 0 1-1.328 1.651c-.281.314-.316.633-.685 1.073a2.921 2.921 0 0 1-1.508.873c-.717.154-7.126.4-11.582.53a89.23 89.23 0 0 0 2.142-10.9l-8.38-3.172s-3.13 18.8-2.123 20.518" transform="translate(-59.249 -209.225)" fill="none"/></clipPath><clipPath id="T"><path data-name="Path 73975" d="M473.987 318.638v5.606h1.613a1.049 1.049 0 0 0 1.049-1.05v-3.507a1.049 1.049 0 0 0-1.049-1.049Z" transform="translate(-473.987 -318.638)" fill="none"/></clipPath><clipPath id="dt"><path data-name="Path 74089" d="M96.182 209.786 89.3 230.114a1.063 1.063 0 0 0 .976 1.4l14.806.414a1.849 1.849 0 0 0 1.8-1.255l6.879-20.328a1.062 1.062 0 0 0-.976-1.4l-14.805-.414h-.05a1.846 1.846 0 0 0-1.749 1.256" transform="translate(-89.247 -208.53)" fill="none"/></clipPath><clipPath id="V"><path data-name="Rectangle 18300" d="M8.84 0h92.2a8.839 8.839 0 0 1 8.839 8.839v4.091a8.84 8.84 0 0 1-8.84 8.84H8.84A8.84 8.84 0 0 1 0 12.93V8.84A8.84 8.84 0 0 1 8.84 0Z" fill="none"/></clipPath><clipPath id="dr"><path data-name="Path 74087" d="M84.256 171.682c-1.768.742.181 5.266 1.922 4.01l.037-2.654s-.471-1.459-1.481-1.459a1.228 1.228 0 0 0-.479.1" transform="translate(-83.559 -171.579)" fill="none"/></clipPath><clipPath id="X"><path data-name="Rectangle 18302" d="M1.294 0H7.42a1.294 1.294 0 0 1 1.294 1.294v9.5a1.294 1.294 0 0 1-1.294 1.291H1.292A1.292 1.292 0 0 1 0 10.793v-9.5A1.294 1.294 0 0 1 1.294 0Z" fill="none"/></clipPath><clipPath id="dp"><path data-name="Path 74086" d="M80.318 164.112c-.353 2.494 1.329 6.054 2.362 7.953a10.192 10.192 0 0 0 2.493 3.072 7.494 7.494 0 0 0 7.023 1.628c3.027-1.64.861-12.082.861-12.082a5.753 5.753 0 0 0-5.871-4.617c-3.241 0-6.584 2.042-6.868 4.046" transform="translate(-80.27 -160.066)" fill="none"/></clipPath><clipPath id="Z"><path data-name="Rectangle 18304" d="M1.294 0h6.125a1.294 1.294 0 0 1 1.294 1.294v9.5a1.293 1.293 0 0 1-1.293 1.291H1.292A1.292 1.292 0 0 1 0 10.793v-9.5A1.294 1.294 0 0 1 1.294 0Z" fill="none"/></clipPath><clipPath id="dn"><path data-name="Path 74085" d="M86.88 180.83a9.051 9.051 0 0 0 4.958 4.4c-.279-.923-.607-2.06-.814-2.953l-1.8-1.478Z" transform="translate(-86.88 -180.796)" fill="none"/></clipPath><clipPath id="ab"><path data-name="Path 73977" d="M430.766 285.822a3.107 3.107 0 1 0 3.107-3.107 3.107 3.107 0 0 0-3.107 3.107" transform="translate(-430.766 -282.715)" fill="none"/></clipPath><clipPath id="dm"><path data-name="Rectangle 18428" fill="none" d="M0 0h4.958v4.431H0z"/></clipPath><clipPath id="ad"><path data-name="Path 73978" d="M443.122 285.822a3.107 3.107 0 1 0 3.107-3.107 3.107 3.107 0 0 0-3.107 3.107" transform="translate(-443.122 -282.715)" fill="none"/></clipPath><clipPath id="dk"><path data-name="Path 74084" d="M82.678 185.52s1.367 3.531 6.55 3.028c4.51-.436 1.812-3.1 1.812-3.1s-.235-.711-.521-1.655c-.279-.921-.608-2.06-.813-2.951l-1.8-1.478-3.827-3.133s.5 6.809-1.4 9.29" transform="translate(-82.678 -176.23)" fill="none"/></clipPath><clipPath id="af"><path data-name="Path 73980" d="M473.987 283.131v5.606h1.613a1.049 1.049 0 0 0 1.049-1.049v-3.507a1.05 1.05 0 0 0-1.049-1.05Z" transform="translate(-473.987 -283.131)" fill="none"/></clipPath><clipPath id="di"><path data-name="Path 74082" d="m75.588 214.912-1.5 11.842H73.07a10.381 10.381 0 0 0-.473-2.7c-.748-2.113-1.846-5.077-2.765-8.151Z" transform="translate(-69.832 -214.912)" fill="none"/></clipPath><clipPath id="ah"><path data-name="Rectangle 18313" d="M8.84 0h92.2a8.841 8.841 0 0 1 8.841 8.841v4.089a8.84 8.84 0 0 1-8.84 8.84H8.84A8.84 8.84 0 0 1 0 12.93V8.84A8.84 8.84 0 0 1 8.84 0Z" fill="none"/></clipPath><clipPath id="dh"><path data-name="Rectangle 18424" fill="none" d="M0 0h5.756v11.842H0z"/></clipPath><clipPath id="aj"><path data-name="Rectangle 18315" d="M1.294 0H7.42a1.294 1.294 0 0 1 1.294 1.294v9.5a1.293 1.293 0 0 1-1.293 1.293H1.293A1.293 1.293 0 0 1 0 10.793v-9.5A1.294 1.294 0 0 1 1.294 0Z" fill="none"/></clipPath><clipPath id="df"><path data-name="Path 74081" d="M77.867 189.738s-9.756 2.353-10.449 7.938c-.336 2.717.515 6.586 1.633 10.3.919 3.074 2.017 6.037 2.765 8.15a10.365 10.365 0 0 1 .473 2.7 43.444 43.444 0 0 1-.96 10.634c-.275 1.332.446 1.468.446 1.468 20.136 3.08 25.515.274 25.515.274s.734-.309.892-1.681c.178-1.577-.583-4.013-.4-6.764.631-9.311 1.907-23.135-.762-27.161-3.437-5.187-10.8-5.935-10.8-5.935Z" transform="translate(-67.344 -189.663)" fill="none"/></clipPath><clipPath id="al"><path data-name="Path 73983" d="M430.766 250.316a3.107 3.107 0 1 0 3.107-3.107 3.108 3.108 0 0 0-3.107 3.107" transform="translate(-430.766 -247.209)" fill="none"/></clipPath><clipPath id="dd"><path data-name="Path 74080" d="M50.253 370.3a11.111 11.111 0 0 0-3.541 1.933 2.821 2.821 0 0 0-.829 3.018h11.1a9.639 9.639 0 0 0-.776-5.62 15.36 15.36 0 0 1-5.605-.416Z" transform="translate(-45.738 -369.219)" fill="none"/></clipPath><clipPath id="an"><path data-name="Path 73984" d="M443.122 250.316a3.107 3.107 0 1 0 3.107-3.107 3.108 3.108 0 0 0-3.107 3.107" transform="translate(-443.122 -247.209)" fill="none"/></clipPath><clipPath id="db"><path data-name="Path 74079" d="M61.307 276.39c-1.631 13.279-1.018 10.194-1.558 13.607-.486 3.075-1.238 7.5-2.657 13.885s-3.56 24.067-3.56 24.067a12.949 12.949 0 0 0 6.217.825s7.884-20.266 8.991-25.97a102.061 102.061 0 0 0 1.454-12.019s5.983-12.011 8.323-20.67l1.257-.354-.242 23.663s-3.821 8.658-4.447 15.725-.982 19.839-.982 19.839 4.5 1.367 6.031.309c0 0 7.628-29.133 9.473-36.441s4.779-24.045 4.974-27.387c.686-11.777-1-16.809-1-16.809l-25.769-.571s-4.873 15.021-6.5 28.3" transform="translate(-53.532 -248.089)" fill="none"/></clipPath><clipPath id="ap"><path data-name="Path 73986" d="M473.987 247.625v5.607h1.613a1.05 1.05 0 0 0 1.049-1.05v-3.507a1.05 1.05 0 0 0-1.049-1.05Z" transform="translate(-473.987 -247.625)" fill="none"/></clipPath><clipPath id="cZ"><path data-name="Path 74078" d="m111.694 206.975 2.1 4.7-4.164-.8Z" transform="translate(-109.63 -206.975)" fill="none"/></clipPath><clipPath id="cY"><path data-name="Rectangle 18418" fill="none" d="M0 0h4.164v4.702H0z"/></clipPath><clipPath id="as"><path data-name="Path 73991" d="M443.122 214.81a3.107 3.107 0 1 0 3.107-3.107 3.107 3.107 0 0 0-3.107 3.107" transform="translate(-443.122 -211.703)" fill="none"/></clipPath><clipPath id="cW"><path data-name="Path 74077" d="m102.971 207 6.827 6.592a22.957 22.957 0 0 0 7.138-6.888 90.811 90.811 0 0 0-6.33-8.518 22.9 22.9 0 0 0-7.827-6.234Z" transform="translate(-102.779 -191.95)" fill="none"/></clipPath><clipPath id="au"><path data-name="Path 73993" d="M473.987 212.119v5.606h1.613a1.049 1.049 0 0 0 1.049-1.049v-3.507a1.05 1.05 0 0 0-1.049-1.05Z" transform="translate(-473.987 -212.119)" fill="none"/></clipPath><clipPath id="cU"><path data-name="Path 74076" d="M109.63 212.317s7.305 11.863 12.131 12.394 3.791-3.69 3.791-3.69l-9.964-14.567Z" transform="translate(-109.63 -206.454)" fill="none"/></clipPath><clipPath id="aw"><path data-name="Path 73994" d="M334.018 264.232s-5.218 7-5.375 8 1.457 1.494 2.1 1.489c.862-.008 1.536-.361 3.166-1.363s4.954-3.48 4.954-3.48h.839a6.279 6.279 0 0 0 .115-2.986c-.407-1.066-1.05-2.42-1.05-2.42-1.159.826-4.748.76-4.748.76" transform="translate(-328.633 -263.472)" fill="none"/></clipPath><clipPath id="cS"><path data-name="Path 74075" d="M83.042 370.8a3.913 3.913 0 0 0-.958 1.983 13.675 13.675 0 0 0 .073 2.968h13.708a.264.264 0 0 0 .265-.313c-.127-.565-.935-1.461-2.488-2.267-1.611-.835-5.581-2.372-5.581-2.372a15.1 15.1 0 0 1-5.018 0" transform="translate(-82.019 -370.799)" fill="none"/></clipPath><clipPath id="ax"><path data-name="Path 73995" d="M307.431 229.3s-2.552 3.083-5.153 6.175c-1.983 2.359.229 3.773.229 3.773l12.807-6.085a8.943 8.943 0 0 0-.921-3.72 24.835 24.835 0 0 0-1.616-2.145 11.968 11.968 0 0 1-5.346 2" transform="translate(-301.452 -227.297)" fill="none"/></clipPath><clipPath id="cQ"><path data-name="Path 74074" d="M52.765 365.967s3.123 1.535 5.565.482l2.012-6.415-5.954-1.793Z" transform="translate(-52.765 -358.241)" fill="none"/></clipPath><clipPath id="az"><path data-name="Path 73996" d="m308.417 223.659 1.2 4.031a7.438 7.438 0 0 0 5.346-2l-.8-3.515Z" transform="translate(-308.417 -222.173)" fill="none"/></clipPath><clipPath id="cO"><path data-name="Path 74073" d="M83.516 367.832s2.816 1.189 5.014 0l1.64-6.177-6.391-.312Z" transform="translate(-83.516 -361.34)" fill="none"/></clipPath><clipPath id="aA"><path data-name="Path 73997" d="m326.751 176.472-.341 1.261a41.335 41.335 0 0 0 7.587.332c3.186-.362.23-3.393.23-3.393Z" transform="translate(-326.41 -174.672)" fill="none"/></clipPath><clipPath id="cM"><path data-name="Path 74072" d="M189.535 289.151s-.976 3.962-2.023 7.847v-14.815Z" transform="translate(-187.512 -282.183)" fill="none"/></clipPath><clipPath id="aC"><path data-name="Path 73998" d="M295.8 183.018c1.166 7.2 8.727 27.724 8.727 27.724a10.893 10.893 0 0 0 6.181-1.852s-1-6.771-2.2-16.047a17.483 17.483 0 0 0-1.269-5.516c1.77.878 3.574 1.66 5.276 2.333a83.848 83.848 0 0 0 8.795 2.936h10.168l.864-10.181a109.8 109.8 0 0 0-11.643-3.4c-2.923-.7-10.95-2.772-14.057-3.17a20.954 20.954 0 0 0-2.632-.176c-6.663 0-8.784 3.829-8.215 7.353" transform="translate(-295.714 -175.665)" fill="none"/></clipPath><clipPath id="cL"><path data-name="Rectangle 18410" fill="none" d="M0 0h2.023v14.816H0z"/></clipPath><clipPath id="aE"><path data-name="Rectangle 18337" fill="none" d="M0 0h15.567v2.936H0z"/></clipPath><clipPath id="aF"><path data-name="Path 73999" d="M335.779 199h-6.772a83.943 83.943 0 0 1-8.8-2.936 53.79 53.79 0 0 0 12.839 1.92c1.826.012 2.563.132 2.728 1.017" transform="translate(-320.212 -196.062)" fill="none"/></clipPath><clipPath id="cJ"><path data-name="Path 74070" d="M203.881 177c-1.553.287-1.874 4.742-.439 5.064s2.289-1.159 2.172-2.986c0 0 .009-2.108-1.424-2.108a1.728 1.728 0 0 0-.309.03" transform="translate(-202.523 -176.97)" fill="none"/></clipPath><clipPath id="aG"><path data-name="Path 74000" d="M336.13 262.878s3.593.653 4.748-.76l-.226-2.621-5.292-.339Z" transform="translate(-335.36 -259.157)" fill="none"/></clipPath><clipPath id="cH"><path data-name="Path 74068" d="M198.383 206.47c-.421 4.2 4.053 11.708 4.053 11.708a18.845 18.845 0 0 0 8.522-4.416s-2.974-7.589-4.483-9.744a3.909 3.909 0 0 0-3.229-1.343c-2.189 0-4.6 1.212-4.863 3.8" transform="translate(-198.355 -202.675)" fill="none"/></clipPath><clipPath id="aI"><path data-name="Path 74001" d="M341.17 183.519s-14.249 17.438-14.808 24.012c-.144 1.693 2.164 10.878 3.945 18.7 1.457 6.394 2.443 11.835 2.443 11.835a18.015 18.015 0 0 0 5.447-.743s-.528-22.666-2.3-28.3c4.36-3.1 11.221-7.843 15.249-12.718a3.5 3.5 0 0 1 2.691-1.292s3.473-4.365 1.207-11.645c0 0-9.269 2.618-13.871.153" transform="translate(-326.356 -183.366)" fill="none"/></clipPath><clipPath id="cF"><path data-name="Path 74067" d="M232.725 208.541c-.414.234-1.4.716-1.71.958-.531.41-1.767 1.666-1.87 1.774-.176.185-1.57 3.14-1.874 3.542a7.311 7.311 0 0 1-1.55 1.159c-3.679 1.545-11.121 4.543-11.121 4.543l-2.908-6-8.262 1.826s5.782 10.383 7.53 11.563c3.822 2.586 14.355-8.252 17.685-10.036a11.18 11.18 0 0 0 2.369-1.4 3.122 3.122 0 0 0 .738-1.212l.326-.693s.077.977.154 1.408.516.633.692.469a5.5 5.5 0 0 0 .174-1.236 7.6 7.6 0 0 0 .111-1.662c-.132-.176-.5-.66-.5-.66s.061-.306-.082-.416a2.6 2.6 0 0 0-.63-.394l1.128-.911s.449-.251 1.107-.676.586-1.132.366-1.172a3.742 3.742 0 0 0-.971.387c-.587.256-1.215.5-1.215.5l-1.35.875a9.585 9.585 0 0 1 .848-.8c.468-.385.9-.716 1.005-.821.59-.576.367-.98.038-.98a.469.469 0 0 0-.23.063" transform="translate(-203.431 -208.478)" fill="none"/></clipPath><clipPath id="aK"><path data-name="Path 74002" d="M332.294 137.363c-1.36 1.5-3.2 3.332-6.107 11.484 0 0 1.284 1.623 5.914 2.984.45.134.921.263 1.415.381l-.9-8.625c.252-.134 1.7-6.76.467-6.76-.192 0-.451.162-.789.536" transform="translate(-326.187 -136.827)" fill="none"/></clipPath><clipPath id="cD"><path data-name="Path 74066" d="M240.951 210.116c-.156.673-.535 1.85-.535 1.85l1.658-.606a7.243 7.243 0 0 0 0-1.64c-.117-.513-.41-.921-.644-.965h-.02c-.219 0-.306.709-.458 1.363" transform="translate(-240.416 -208.753)" fill="none"/></clipPath><clipPath id="aL"><path data-name="Rectangle 18343" fill="none" d="M0 0h2.573v4.93H0z"/></clipPath><clipPath id="aM"><path data-name="Path 74003" d="m334.909 147.486-1.065 4.93 2.573-.643Z" transform="translate(-333.844 -147.486)" fill="none"/></clipPath><clipPath id="cB"><path data-name="Path 74065" d="M205.149 219.553a69.943 69.943 0 0 0-1.256 9.413l-.021.508-.034.1-4.138-14.062 2.072.206Z" transform="translate(-199.702 -215.512)" fill="none"/></clipPath><clipPath id="aO"><path data-name="Path 74004" d="M342.145 132.065c-.329.069-5.485 1.71-7.354 3.8-.377 2.49.438 6.522.576 14.583 0 .13.007.261.007.39.075 5.229 1.144 5.909-.125 12.741-.018.1-.818 1.279-.958 1.476-.175.248-.2.508-.053.608a33.424 33.424 0 0 1 6.66 4.206 13.158 13.158 0 0 0 13.284 2.4c3.173-.563 4.419-2.117 4.421-2.48.01-1.513-.775-2-.933-3.314-.679-5.619.563-15.245.631-16.006.391-5.043.182-8.977.312-12.215-2.38-4.052-7.161-5.489-9.862-6.184-.427-.014-1.407-.02-2.486-.02-1.9 0-4.112.016-4.121.02" transform="translate(-334.141 -132.045)" fill="none"/></clipPath><clipPath id="cA"><path data-name="Rectangle 18402" fill="none" d="M0 0h5.447v14.058H0z"/></clipPath><clipPath id="aQ"><path data-name="Path 74006" d="M346.1 125.7c-.042.164-.569 3.6-.569 3.6-.338.427-1.76 3.655 1.407 4.035 4.927.587 6.02-3.644 5.2-4.029-.54-.08-.664-5.949-.664-5.949Z" transform="translate(-344.912 -123.357)" fill="none"/></clipPath><clipPath id="cy"><path data-name="Path 74064" d="M181.839 194.593c-2.065.37-6.745 2.9-8.15 6.627-1.077 2.854.35 7.595.233 12.823a77.549 77.549 0 0 1-.733 10.825c-1.688 9.667-4.919 15.32-4.521 15.649 5.66 4.617 10.806 2.355 15.793.092 3.638-1.651 7.193-3.3 10.8-2.28a2.124 2.124 0 0 0 .295-1.489c-.37-3-1.557-9.173-1.434-14.01l.021-.507a69.958 69.958 0 0 1 1.256-9.414c.892-4.754 1.894-9.049 1.749-11.505 0 0-3.108-5.138-7.067-6.278a19.887 19.887 0 0 0-5.46-.776 13.423 13.423 0 0 0-2.779.242" transform="translate(-168.633 -194.351)" fill="none"/></clipPath><clipPath id="aS"><path data-name="Rectangle 18349" fill="none" d="M0 0h3.933v3.067H0z"/></clipPath><clipPath id="aT"><path data-name="Path 74007" d="M349.95 126.2a5.8 5.8 0 0 1-3.932 3.067l.426-2.674Z" transform="translate(-346.017 -126.203)" fill="none"/></clipPath><clipPath id="cw"><path data-name="Path 74063" d="M178.846 220.709a15.612 15.612 0 0 1-4.034-.782c.357-2.36.707-5.605.707-5.605l.734 1Z" transform="translate(-174.812 -214.322)" fill="none"/></clipPath><clipPath id="aV"><path data-name="Path 74008" d="M338.766 111.786s-1.216 9.256 2.867 10.776a7.669 7.669 0 0 0 6.437-2.8c.682-.919 1.546-1.124 1.827-2.234.458-1.8 1.1-5.124.28-7.126-.625-1.518-3.79-2.995-6.628-3-2.491 0-4.731 1.138-4.783 4.383" transform="translate(-338.597 -107.403)" fill="none"/></clipPath><clipPath id="cv"><path data-name="Rectangle 18398" fill="none" d="M0 0h4.034v6.387H0z"/></clipPath><clipPath id="aX"><path data-name="Path 74010" d="M350.952 118.716s-.34 1.929.712 2.331c1.843.707 2.419-3.829.669-4.03a1.29 1.29 0 0 0-.152-.009c-1.179 0-1.229 1.708-1.229 1.708" transform="translate(-350.9 -117.008)" fill="none"/></clipPath><clipPath id="cu"><path data-name="Path 74062" d="M171.082 215.543a10.4 10.4 0 0 0 2.558 1.221 15.618 15.618 0 0 0 4.035.782c.137.014.281.021.425.028l-3.629-13.33a82.749 82.749 0 0 0-3.389 11.3" transform="translate(-171.082 -204.243)" fill="none"/></clipPath><clipPath id="aZ"><path data-name="Rectangle 18355" fill="none" d="M0 0h6.408v7.587H0z"/></clipPath><clipPath id="ba"><path data-name="Path 74011" d="m358.567 150.113 2.12 6.987 4.288.6Z" transform="translate(-358.567 -150.113)" fill="none"/></clipPath><clipPath id="cs"><path data-name="Path 74061" d="M170.291 226.482c.106 1.06 6.616 3.893 6.616 3.893l1.229-11.066-5.913-3.5s-2.224 7.748-1.932 10.674" transform="translate(-170.264 -215.808)" fill="none"/></clipPath><clipPath id="bc"><path data-name="Path 74012" d="M354.8 149.252s2.739 5.467 4.554 9.287c-1.751.428-6.276 1.562-9.742 2.679a44.584 44.584 0 0 1-8.47 1.809 19.956 19.956 0 0 1 .189 2.584 176.133 176.133 0 0 0 18.066-.088 25.344 25.344 0 0 0 5.43-.749c1.676-.576 2.816-1.028 2.892-2.779a15.33 15.33 0 0 0-.861-5.268 106.506 106.506 0 0 0-4.89-11.591Z" transform="translate(-341.141 -145.136)" fill="none"/></clipPath><clipPath id="cq"><path data-name="Path 74059" d="M191.751 175.268c1.774 6.922 8.137 8.8 9.953 8.387.893-.2 1.721-1.329 2.466-2.835a18.339 18.339 0 0 0 1.481-4.721c.325-1.908.947-3.516 1.043-4.785.33-4.347-5.344-5.607-8.242-6.02a4.906 4.906 0 0 0-.7-.047c-3.04 0-7.939 2.464-6 10.021" transform="translate(-191.311 -165.247)" fill="none"/></clipPath><clipPath id="be"><path data-name="Path 74015" d="M301.912 149.412a.636.636 0 0 0-.613.807l5.091 18.324a.662.662 0 0 0 .638.485h23.737a.351.351 0 0 0 .338-.445l-5.071-18.258a1.248 1.248 0 0 0-1.2-.914Z" transform="translate(-301.275 -149.412)" fill="none"/></clipPath><clipPath id="co"><path data-name="Path 74058" d="M166.345 253.479s-2 4.785-2.16 7.726a17.271 17.271 0 0 0 1.1 5.8l-2.385 23.63a132.623 132.623 0 0 0-5.15 12.989c-3.133 8.887-7.137 22.431-7.137 22.431s.969 1.94 7.088 2.515c0 0 14.914-30.622 16.333-34.479.5-1.342 1.216-3.871 1.9-6.428v-.007c1.047-3.885 2.023-7.847 2.023-7.847s2.772 11.18 4.88 15.043c0 0-.338 3.883-.235 8.4.1 4.164 1.544 27.123 1.544 27.123s2.478 1.626 7.48.278c0 0 3.037-32.207 2.72-37.09s-4.742-37-4.742-37l-2.311-4.14Z" transform="translate(-150.609 -252.423)" fill="none"/></clipPath><clipPath id="bg"><path data-name="Path 74016" d="M313.719 178s.41.919 2.274 1.107l-.13-1.107Z" transform="translate(-313.719 -178.004)" fill="none"/></clipPath><clipPath id="cm"><path data-name="Path 74057" d="M146.487 363.7a13.568 13.568 0 0 0-1.419 2.487c-.106.3 5.69 5.205 7.264 6.632.091.007.189.007.3.014h6.1a1 1 0 0 0 .143-.014 2.942 2.942 0 0 0-2.285-4.124c-.858-.744-2.368-4.777-2.368-4.777a10.038 10.038 0 0 1-5.556-2.15 6.142 6.142 0 0 0-2.178 1.932" transform="translate(-145.067 -361.765)" fill="none"/></clipPath><clipPath id="bi"><path data-name="Path 74017" d="M314.893 171.775a6.655 6.655 0 0 0 .252.786c-.336-.112-.752.078-.793.252-.007.03.33 1.057.41 1.328a14.785 14.785 0 0 0 .7 2.213 3.018 3.018 0 0 0 2.464 1.142 12.727 12.727 0 0 0 4.1-.447 1.593 1.593 0 0 0 1.071-1.121h-1.953c-.1 0-.428-.1-.779-.889a9.932 9.932 0 0 0-1.3-2.267c-.364-.333-.909-.23-.977.058a1.381 1.381 0 0 0 .056.289 10.546 10.546 0 0 0-.879-1.343.712.712 0 0 0-1.07.2 3.178 3.178 0 0 0 .241.591c-.1-.086-.46-.889-.77-1.063a.843.843 0 0 0-.391-.109.362.362 0 0 0-.387.382" transform="translate(-314.352 -171.393)" fill="none"/></clipPath><clipPath id="ck"><path data-name="Path 74056" d="M149.166 363.012s2.371 2.417 5.34 1.94l2.864-6.883-6.511-.673Z" transform="translate(-149.166 -357.396)" fill="none"/></clipPath><clipPath id="bk"><path data-name="Path 74018" d="M357.124 144.818c2.562 6.449 3.653 8.653 3.653 8.653a34 34 0 0 0 9.466-3.533c-2.831-6.872-4.415-8.852-4.415-8.852Z" transform="translate(-357.124 -141.087)" fill="none"/></clipPath><clipPath id="ci"><path data-name="Path 74055" d="M200.161 370.222a8.852 8.852 0 0 0-.611 2.213 16.234 16.234 0 0 0-.049 3.049h15.491a2.855 2.855 0 0 0-1.686-2.613 49.2 49.2 0 0 0-7-2.65 17.73 17.73 0 0 1-6.147 0" transform="translate(-199.45 -370.222)" fill="none"/></clipPath><clipPath id="bm"><path data-name="Rectangle 18364" fill="none" d="M0 0h15.527v95.563H0z"/></clipPath><clipPath id="cg"><path data-name="Path 74054" d="m199.885 360.993.413 6.277s3.741 1.3 6.146 0l.645-6.445Z" transform="translate(-199.885 -360.825)" fill="none"/></clipPath><clipPath id="bn"><path data-name="Rectangle 18366" fill="none" d="M0 0h14.339v95.563H0z"/></clipPath><clipPath id="ce"><path data-name="Path 74053" d="M213.671 204.13h2.924a.424.424 0 0 0 .4-.348.29.29 0 0 0-.293-.348h-2.925a.423.423 0 0 0-.4.348.289.289 0 0 0 .293.348" transform="translate(-213.373 -203.434)" fill="none"/></clipPath><clipPath id="bp"><path data-name="Rectangle 18369" fill="none" d="M0 0h14.339v3.389H0z"/></clipPath><clipPath id="bq"><path data-name="Rectangle 18368" fill="none" d="M0 0h14.339v3.39H0z"/></clipPath><clipPath id="cd"><path data-name="Rectangle 18385" fill="none" d="M0 0h3.629v.696H0z"/></clipPath><clipPath id="bs"><path data-name="Path 74019" d="M253.316 188.645h-51.359a.919.919 0 0 0-.907.775l-7.426 46.821-2.781.33 2.17 1.393a.905.905 0 0 0 .611.24h54.09a.919.919 0 0 0 .907-.775l7.642-48.183a.916.916 0 0 0-.336-.862h-.007c-.019-.015-.043-.027-.063-.041l-2.038-1.292Z" transform="translate(-190.843 -187.04)" fill="none"/></clipPath><clipPath id="cb"><path data-name="Path 74051" d="M208.695 202.227h6.544a.423.423 0 0 0 .4-.349.289.289 0 0 0-.293-.348h-6.544a.424.424 0 0 0-.4.348.29.29 0 0 0 .293.349" transform="translate(-208.398 -201.531)" fill="none"/></clipPath><clipPath id="bu"><path data-name="Path 74020" d="M198.949 186.661a.917.917 0 0 0-.906.775l-7.643 48.182a.919.919 0 0 0 .907 1.063H245.4a.919.919 0 0 0 .907-.775l7.642-48.183a.918.918 0 0 0-.907-1.062Z" transform="translate(-190.388 -186.661)" fill="none"/></clipPath><clipPath id="bZ"><path data-name="Path 74049" d="M209 200.324h6.544a.423.423 0 0 0 .4-.349.289.289 0 0 0-.293-.348h-6.544a.423.423 0 0 0-.4.348.289.289 0 0 0 .293.349" transform="translate(-208.699 -199.628)" fill="none"/></clipPath><clipPath id="bw"><path data-name="Path 74022" d="M222.456 202.362a.738.738 0 0 0-.729.622l-2.318 14.616a.738.738 0 0 0 .729.854h16.5a.739.739 0 0 0 .729-.622l2.318-14.615a.737.737 0 0 0-.729-.853Z" transform="translate(-219.399 -202.362)" fill="none"/></clipPath><clipPath id="bY"><path data-name="Rectangle 18383" fill="none" d="M0 0h7.25v.696H0z"/></clipPath><clipPath id="by"><path data-name="Path 74028" d="M252.085 227.97a.405.405 0 0 0-.4.342l-1.273 8.022a.406.406 0 0 0 .4.469h9.06a.406.406 0 0 0 .4-.342l1.272-8.023a.4.4 0 0 0-.4-.469Z" transform="translate(-250.408 -227.97)" fill="none"/></clipPath><clipPath id="bX"><path data-name="Rectangle 18386" fill="none" d="M0 0h7.456v3.307H0z"/></clipPath><clipPath id="bA"><path data-name="Rectangle 18378" fill="none" d="M0 0h22.945v12.017H0z"/></clipPath><clipPath id="bB"><path data-name="Path 74029" d="M223.765 244.263h20.111a.551.551 0 0 0 .545-.464l1.731-10.915a.55.55 0 0 0-.544-.637H225.5a.552.552 0 0 0-.545.464l-1.731 10.915a.55.55 0 0 0 .544.637" transform="translate(-223.214 -232.246)" fill="none"/></clipPath><clipPath id="bV"><path data-name="Path 74047" d="M212.016 248h4.277a.62.62 0 0 0 .59-.509.424.424 0 0 0-.429-.509h-4.277a.62.62 0 0 0-.59.509.424.424 0 0 0 .429.509" transform="translate(-211.581 -246.979)" fill="none"/></clipPath><clipPath id="bD"><path data-name="Path 74031" d="M255.429 199.64a.27.27 0 0 0-.265.226l-.841 5.3a.269.269 0 0 0 .265.31h9.774a.269.269 0 0 0 .265-.226l.841-5.305a.268.268 0 0 0-.264-.31Z" transform="translate(-254.32 -199.64)" fill="none"/></clipPath><clipPath id="bT"><path data-name="Path 74045" d="M204.738 245.214h9.573a.62.62 0 0 0 .59-.509.424.424 0 0 0-.429-.509H204.9a.62.62 0 0 0-.59.509.424.424 0 0 0 .429.509" transform="translate(-204.303 -244.196)" fill="none"/></clipPath><clipPath id="n"><path data-name="Path 73935" d="M548.023 308.614a7.685 7.685 0 1 0 7.685-7.685 7.685 7.685 0 0 0-7.685 7.685" transform="translate(-548.023 -300.929)" fill="none"/></clipPath><clipPath id="bG"><path data-name="Path 74033" d="M255.955 210.559h6.815a.441.441 0 0 0 .42-.363.3.3 0 0 0-.3-.362h-6.82a.442.442 0 0 0-.42.362.3.3 0 0 0 .305.363" transform="translate(-255.645 -209.834)" fill="none"/></clipPath><clipPath id="bR"><path data-name="Path 74043" d="M205.179 242.431h9.573a.62.62 0 0 0 .59-.509.425.425 0 0 0-.429-.51h-9.573a.62.62 0 0 0-.59.51.424.424 0 0 0 .429.509" transform="translate(-204.744 -241.412)" fill="none"/></clipPath><clipPath id="bI"><path data-name="Path 74035" d="M255.641 212.54h6.815a.442.442 0 0 0 .421-.362.3.3 0 0 0-.305-.363h-6.815a.441.441 0 0 0-.42.363.3.3 0 0 0 .3.362" transform="translate(-255.332 -211.815)" fill="none"/></clipPath><clipPath id="bP"><path data-name="Path 74041" d="M205.62 239.648h9.573a.62.62 0 0 0 .589-.51.424.424 0 0 0-.428-.509h-9.573a.62.62 0 0 0-.59.509.424.424 0 0 0 .429.51" transform="translate(-205.185 -238.629)" fill="none"/></clipPath><clipPath id="bK"><path data-name="Path 74037" d="M255.327 214.521h6.815a.44.44 0 0 0 .42-.362.3.3 0 0 0-.305-.362h-6.815a.441.441 0 0 0-.42.362.3.3 0 0 0 .3.362" transform="translate(-255.018 -213.797)" fill="none"/></clipPath><clipPath id="bO"><path data-name="Rectangle 18382" fill="none" d="M0 0h11.209v6.747H0z"/></clipPath><clipPath id="bM"><path data-name="Path 74039" d="M260.509 216.5h3.045a.441.441 0 0 0 .42-.363.3.3 0 0 0-.305-.362h-3.045a.441.441 0 0 0-.42.362.3.3 0 0 0 .305.363" transform="translate(-260.199 -215.778)" fill="none"/></clipPath><linearGradient id="at" x1="-48.921" y1="18.458" x2="-48.81" y2="18.458" xlink:href="#c"/><linearGradient id="bN" x1="-42.606" y1="27.781" x2="-42.443" y2="27.781" xlink:href="#c"/><linearGradient id="bJ" x1="-21.993" y1="15.946" x2="-21.907" y2="15.946" xlink:href="#c"/><linearGradient id="bQ" x1="-12.427" y1="9.225" x2="-12.366" y2="9.225" xlink:href="#c"/><linearGradient id="bH" x1="-22.02" y1="16.13" x2="-21.934" y2="16.13" xlink:href="#c"/><linearGradient id="bS" x1="-12.4" y1="9.051" x2="-12.34" y2="9.051" xlink:href="#c"/><linearGradient id="bE" x1="-15.582" y1="21.052" x2="-15.521" y2="21.052" xlink:href="#c"/><linearGradient id="bU" x1="-12.373" y1="8.876" x2="-12.313" y2="8.876" xlink:href="#c"/><linearGradient id="bC" x1="-6.645" y1="8.371" x2="-6.616" y2="8.371" xlink:href="#c"/><linearGradient id="bW" x1="-24.118" y1="15.408" x2="-24.004" y2="15.408" xlink:href="#c"/><linearGradient id="bz" x1="-15.321" y1="11.72" x2="-15.26" y2="11.72" xlink:href="#c"/><linearGradient id="bx" x1="-5.834" y1="4.849" x2="-5.807" y2="4.849" xlink:href="#c"/><linearGradient id="bv" x1="-2.049" y1="2.636" x2="-2.038" y2="2.636" xlink:href="#a"/><linearGradient id="ca" x1="-18.518" y1="16.905" x2="-18.429" y2="16.905" xlink:href="#c"/><linearGradient id="bt" x1="-2" y1="2.573" x2="-1.989" y2="2.573" xlink:href="#i"/><linearGradient id="cc" x1="-18.491" y1="16.731" x2="-18.402" y2="16.731" xlink:href="#c"/><linearGradient id="br" x1="-19.358" y1="5.88" x2="-19.272" y2="5.88" xlink:href="#d"/><linearGradient id="bo" x1="-10.632" y1="1.003" x2="-10.585" y2="1.003" xlink:href="#d"/><linearGradient id="cf" x1="-35.659" y1="29.678" x2="-35.492" y2="29.678" xlink:href="#c"/><linearGradient id="i" x1="-9.875" y1="1.003" x2="-9.831" y2="1.003" gradientUnits="objectBoundingBox"><stop offset="0" stop-color="#8bbdf2"/><stop offset="1" stop-color="#92c2e8"/></linearGradient><linearGradient id="ch" x1="-19.037" y1="1.594" x2="-18.941" y2="1.594" xlink:href="#g"/><linearGradient id="bl" x1="-18.675" y1="13.173" x2="-18.623" y2="13.173" xlink:href="#h"/><linearGradient id="cj" x1="-8.726" y1="1.128" x2="-8.682" y2="1.128" xlink:href="#f"/><linearGradient id="bj" x1="-21.221" y1="17.149" x2="-21.154" y2="17.149" xlink:href="#g"/><linearGradient id="cl" x1="-12.474" y1="1.832" x2="-12.391" y2="1.832" xlink:href="#g"/><linearGradient id="bh" x1="-109.299" y1="54.76" x2="-108.95" y2="54.76" xlink:href="#g"/><linearGradient id="cn" x1="-6.618" y1="1.061" x2="-6.573" y2="1.061" xlink:href="#f"/><linearGradient id="bf" x1="-6.892" y1="8.025" x2="-6.869" y2="8.025" xlink:href="#c"/><linearGradient id="cp" x1="-2.346" y1="1.09" x2="-2.33" y2="1.09" xlink:href="#j"/><linearGradient id="bd" x1="-8.068" y1="5.142" x2="-8.044" y2="5.142" xlink:href="#g"/><linearGradient id="cr" x1="-7.428" y1="7.703" x2="-7.389" y2="7.703" xlink:href="#g"/><linearGradient id="bb" x1="-38.39" y1="20.686" x2="-38.283" y2="20.686" xlink:href="#h"/><linearGradient id="ct" x1="-14.322" y1="7.68" x2="-14.238" y2="7.68" xlink:href="#g"/><linearGradient id="aY" x1="-44.45" y1="40.597" x2="-44.323" y2="40.597" xlink:href="#g"/><linearGradient id="k" x1="-16.724" y1="8.988" x2="-16.626" y2="8.988" gradientUnits="objectBoundingBox"><stop offset="0" stop-color="#49a5f7"/><stop offset="1" stop-color="#1c6ceb"/></linearGradient><linearGradient id="aW" x1="-12.647" y1="11.308" x2="-12.61" y2="11.308" xlink:href="#g"/><linearGradient id="aU" x1="-47.532" y1="36.383" x2="-47.394" y2="36.383" xlink:href="#g"/><linearGradient id="cx" x1="-29.73" y1="17.675" x2="-29.56" y2="17.675" xlink:href="#h"/><linearGradient id="aR" x1="-18.999" y1="15.586" x2="-18.943" y2="15.586" xlink:href="#g"/><linearGradient id="cz" x1="-3.974" y1="2.493" x2="-3.95" y2="2.493" xlink:href="#k"/><linearGradient id="aP" x1="-9.315" y1="3.916" x2="-9.287" y2="3.916" xlink:href="#h"/><linearGradient id="aN" x1="-89.025" y1="32.2" x2="-88.758" y2="32.2" xlink:href="#h"/><linearGradient id="cC" x1="-25.151" y1="7.973" x2="-25.025" y2="7.973" xlink:href="#h"/><linearGradient id="h" x1="-27.529" y1="10.794" x2="-27.444" y2="10.794" gradientUnits="objectBoundingBox"><stop offset="0" stop-color="#6ec4f7"/><stop offset="1" stop-color="#398ef6"/></linearGradient><linearGradient id="cE" x1="-48.934" y1="56.734" x2="-48.73" y2="56.734" gradientUnits="objectBoundingBox"><stop offset="0" stop-color="#f4cfb3"/><stop offset="1" stop-color="#f2b091"/></linearGradient><linearGradient id="aJ" x1="-7.198" y1="2.45" x2="-7.176" y2="2.45" xlink:href="#f"/><linearGradient id="cG" x1="-4.436" y1="5.309" x2="-4.414" y2="5.309" xlink:href="#g"/><linearGradient id="aH" x1="-40.285" y1="17.815" x2="-40.165" y2="17.815" xlink:href="#g"/><linearGradient id="cI" x1="-10.441" y1="7.797" x2="-10.388" y2="7.797" xlink:href="#k"/><linearGradient id="j" x1="-14.112" y1="42.713" x2="-14.068" y2="42.713" gradientUnits="objectBoundingBox"><stop offset="0" stop-color="#283770"/><stop offset="1" stop-color="#141a5a"/></linearGradient><linearGradient id="cK" x1="-36.482" y1="25.36" x2="-36.301" y2="25.36" xlink:href="#g"/><linearGradient id="aD" x1="-5.453" y1="3.951" x2="-5.435" y2="3.951" xlink:href="#f"/><linearGradient id="aB" x1="-20.786" y1="37.854" x2="-20.723" y2="37.854" xlink:href="#g"/><linearGradient id="cN" x1="-63.585" y1="4.478" x2="-63.246" y2="4.478" xlink:href="#j"/><linearGradient id="g" x1="-32.322" y1="18.805" x2="-32.217" y2="18.805" gradientUnits="objectBoundingBox"><stop offset="0" stop-color="#f4cfb3"/><stop offset="1" stop-color="#f2bb9b"/></linearGradient><linearGradient id="cP" x1="-8.612" y1="1.562" x2="-8.509" y2="1.562" xlink:href="#g"/><linearGradient id="ay" x1="-13.693" y1="8.701" x2="-13.647" y2="8.701" xlink:href="#f"/><linearGradient id="cR" x1="-3.539" y1="1.635" x2="-3.47" y2="1.635" xlink:href="#g"/><linearGradient id="f" x1="-18.472" y1="7.375" x2="-18.415" y2="7.375" gradientUnits="objectBoundingBox"><stop offset="0" stop-color="#1a2f79"/><stop offset="1" stop-color="#160545"/></linearGradient><linearGradient id="cT" x1="-3.937" y1="1.119" x2="-3.889" y2="1.119" xlink:href="#f"/><linearGradient id="av" x1="-122.225" y1="20.408" x2="-121.967" y2="20.408" xlink:href="#c"/><linearGradient id="cV" x1="-3.562" y1="6.233" x2="-3.529" y2="6.233" xlink:href="#g"/><linearGradient id="bL" x1="-21.967" y1="15.764" x2="-21.881" y2="15.764" xlink:href="#c"/><linearGradient id="cX" x1="-2.787" y1="7.249" x2="-2.758" y2="7.249" xlink:href="#k"/><linearGradient id="ar" x1="-1.96" y1="5.627" x2="-1.953" y2="5.627" xlink:href="#e"/><linearGradient id="aq" x1="-122.225" y1="16.061" x2="-121.967" y2="16.061" xlink:href="#c"/><linearGradient id="da" x1="-18.064" y1="25.084" x2="-17.899" y2="25.084" xlink:href="#h"/><linearGradient id="ao" x1="-35.692" y1="10.779" x2="-35.611" y2="10.779" xlink:href="#d"/><linearGradient id="dc" x1="-.88" y1="1.091" x2="-.864" y2="1.091" xlink:href="#j"/><linearGradient id="am" x1="-34.693" y1="10.779" x2="-34.612" y2="10.779" xlink:href="#d"/><linearGradient id="de" x1="-2.5" y1="1.098" x2="-2.445" y2="1.098" xlink:href="#f"/><linearGradient id="ak" x1="-25.325" y1="7.719" x2="-25.247" y2="7.719" xlink:href="#c"/><linearGradient id="dg" x1="-1.409" y1="2.927" x2="-1.388" y2="2.927" xlink:href="#k"/><linearGradient id="ai" x1="-1.96" y1="4.507" x2="-1.953" y2="4.507" xlink:href="#e"/><linearGradient id="ag" x1="-122.225" y1="11.718" x2="-121.967" y2="11.718" xlink:href="#c"/><linearGradient id="dj" x1="-8.323" y1="9.5" x2="-8.204" y2="9.5" xlink:href="#h"/><linearGradient id="ae" x1="-34.573" y1="7.679" x2="-34.494" y2="7.679" xlink:href="#d"/><linearGradient id="dl" x1="-3.45" y1="9.532" x2="-3.407" y2="9.532" xlink:href="#g"/><linearGradient id="ac" x1="-47.556" y1="10.616" x2="-47.446" y2="10.616" xlink:href="#c"/><linearGradient id="aa" x1="-26.599" y1="5.703" x2="-26.52" y2="5.703" xlink:href="#c"/><linearGradient id="do" x1="-12.023" y1="30.672" x2="-11.885" y2="30.672" xlink:href="#g"/><linearGradient id="Y" x1="-25.325" y1="5.703" x2="-25.247" y2="5.703" xlink:href="#d"/><linearGradient id="dq" x1="-2.518" y1="8.106" x2="-2.484" y2="8.106" xlink:href="#g"/><linearGradient id="W" x1="-1.96" y1="3.389" x2="-1.953" y2="3.389" xlink:href="#e"/><linearGradient id="ds" x1="-9.175" y1="30.019" x2="-9.061" y2="30.019" xlink:href="#g"/><linearGradient id="U" x1="-122.225" y1="7.372" x2="-121.967" y2="7.372" xlink:href="#c"/><linearGradient id="l" x1="-1.747" y1="3.661" x2="-1.726" y2="3.661" gradientUnits="objectBoundingBox"><stop offset="0" stop-color="#6ec4f7"/><stop offset="1" stop-color="#489ff6"/></linearGradient><linearGradient id="S" x1="-47.556" y1="6.696" x2="-47.446" y2="6.696" xlink:href="#c"/><linearGradient id="dv" x1="-1.313" y1="3.383" x2="-1.291" y2="3.383" xlink:href="#g"/><linearGradient id="Q" x1="-15.535" y1="3.086" x2="-15.486" y2="3.086" xlink:href="#d"/><linearGradient id="dx" x1="-3.199" y1="5.839" x2="-3.146" y2="5.839" xlink:href="#k"/><linearGradient id="O" x1="-1.96" y1="2.27" x2="-1.953" y2="2.27" xlink:href="#e"/><linearGradient id="dz" x1="-12.976" y1="20.833" x2="-12.87" y2="20.833" xlink:href="#l"/><linearGradient id="N" x1="-122.225" y1="3.027" x2="-121.967" y2="3.027" xlink:href="#c"/><linearGradient id="dB" x1="-19.494" y1="7.61" x2="-19.358" y2="7.61" xlink:href="#l"/><linearGradient id="L" x1="-40.173" y1="5.743" x2="-40.085" y2="5.743" xlink:href="#d"/><linearGradient id="dD" x1="-38.332" y1="16.646" x2="-38.052" y2="16.646" xlink:href="#l"/><linearGradient id="d" x1="-47.556" y1="2.776" x2="-47.446" y2="2.776" gradientUnits="objectBoundingBox"><stop offset="0" stop-color="#cbe1f2"/><stop offset="1" stop-color="#aed2ed"/></linearGradient><linearGradient id="dF" x1="-35.163" y1="13.551" x2="-34.931" y2="13.551" xlink:href="#l"/><linearGradient id="I" x1="-15.571" y1="1.462" x2="-15.524" y2="1.462" xlink:href="#c"/><linearGradient id="dH" x1="-31.615" y1="12.996" x2="-31.387" y2="12.996" xlink:href="#l"/><linearGradient id="G" x1="-14.817" y1="1.462" x2="-14.77" y2="1.462" xlink:href="#c"/><linearGradient id="dJ" x1="-2.422" y1="8.793" x2="-2.4" y2="8.793" xlink:href="#g"/><linearGradient id="e" x1="-1.96" y1="1.151" x2="-1.953" y2="1.151" gradientUnits="objectBoundingBox"><stop offset="0" stop-color="#256aba"/><stop offset="1" stop-color="#5ca5f7"/></linearGradient><linearGradient id="dL" x1="-18.083" y1="18.344" x2="-18.01" y2="18.344" xlink:href="#d"/><linearGradient id="D" x1="-1.694" y1="10.429" x2="-1.64" y2="10.429" xlink:href="#a"/><linearGradient id="dN" x1="-17.567" y1="7.858" x2="-17.503" y2="7.858" xlink:href="#d"/><linearGradient id="B" x1="-3.161" y1="14.933" x2="-3.072" y2="14.933" xlink:href="#a"/><linearGradient id="dP" x1="-36.813" y1="17.115" x2="-36.676" y2="17.115" xlink:href="#d"/><linearGradient id="z" x1="-32.955" y1="18.842" x2="-32.881" y2="18.842" xlink:href="#c"/><linearGradient id="dR" x1="-32.25" y1="13.856" x2="-32.138" y2="13.856" xlink:href="#d"/><linearGradient id="x" x1="-54.112" y1="27.094" x2="-53.992" y2="27.094" xlink:href="#c"/><linearGradient id="dT" x1="-29.691" y1="13.39" x2="-29.58" y2="13.39" xlink:href="#d"/><linearGradient id="v" x1="-8.957" y1="13.553" x2="-8.92" y2="13.553" xlink:href="#c"/><linearGradient id="dV" x1="-2.438" y1="5.354" x2="-2.419" y2="5.354" xlink:href="#c"/><linearGradient id="c" x1="-14.936" y1="19.658" x2="-14.875" y2="19.658" gradientUnits="objectBoundingBox"><stop offset="0" stop-color="#71d2f9"/><stop offset="1" stop-color="#51b9f8"/></linearGradient><linearGradient id="dX" x1="-14.684" y1="3.358" x2="-14.655" y2="3.358" xlink:href="#d"/><linearGradient id="s" x1="-14.483" y1="1.471" x2="-14.436" y2="1.471" xlink:href="#b"/><linearGradient id="dZ" x1="-12.013" y1="3.001" x2="-11.99" y2="3.001" xlink:href="#d"/><linearGradient id="b" x1="-13.056" y1="1.569" x2="-13.01" y2="1.569" gradientUnits="objectBoundingBox"><stop offset="0" stop-color="#b6dff6"/><stop offset="1" stop-color="#ddeaf7"/></linearGradient><linearGradient id="eb" x1="-28.703" y1="7.289" x2="-28.647" y2="7.289" xlink:href="#d"/><linearGradient id="p" x1="-37.148" y1="34.939" x2="-37.056" y2="34.939" xlink:href="#a"/><linearGradient id="ed" x1="-5.655" y1="2.888" x2="-5.641" y2="2.888" xlink:href="#d"/><linearGradient id="a" x1="-24.463" y1="3.479" x2="-24.418" y2="3.479" gradientUnits="objectBoundingBox"><stop offset="0" stop-color="#dfedf2"/><stop offset="1" stop-color="#e8f8ff"/></linearGradient><linearGradient id="ef" x1="-7.669" y1="4.189" x2="-7.651" y2="4.189" xlink:href="#c"/></defs><g data-name="Group 19880" clip-path="url(#m)"><g data-name="Group 19481"><g data-name="Group 19480" clip-path="url(#n)" transform="translate(375.982 206.458)"><path data-name="Rectangle 18255" fill="url(#a)" d="M0 0h15.369v15.37H0z"/></g></g><g data-name="Group 19483"><g data-name="Group 19482" clip-path="url(#m)"><path data-name="Path 73936" d="M234.047 35.881a3.72 3.72 0 1 1-3.72-3.72 3.72 3.72 0 0 1 3.72 3.72" fill="#fff"/></g></g><g data-name="Group 19485"><g data-name="Group 19484" clip-path="url(#o)" transform="translate(276.372)"><path data-name="Rectangle 18257" fill="url(#p)" d="M0 0h7.44v7.44H0z"/></g></g><g data-name="Group 19487"><g data-name="Group 19486" clip-path="url(#m)" fill="#fff"><path data-name="Path 73938" d="M366.653 125.383a12.578 12.578 0 1 1-12.578-12.578 12.578 12.578 0 0 1 12.578 12.578"/><path data-name="Path 73939" d="M35.283 175.798a2.705 2.705 0 1 1-2.705-2.705 2.7 2.7 0 0 1 2.705 2.705"/><path data-name="Path 73940" d="M108.041 211.904a2.705 2.705 0 1 1-2.705-2.705 2.7 2.7 0 0 1 2.705 2.705"/></g></g><g data-name="Group 19491"><g data-name="Group 19490" clip-path="url(#m)"><path data-name="Path 73942" d="M204.283 223.22a32.583 32.583 0 0 0-.939-8.688 19.272 19.272 0 0 1-.447-6.513 19.606 19.606 0 0 0 0-3.884c-.475-4.914-5.784-15.974-14.969-17.543 0 0 1.592 5.732 3.029 10.123 1.852 5.657 3.848 9.183 6.985 12.271a17.8 17.8 0 0 1 5.465 11.656q.069 1.251.031 2.551Z" fill="#fff"/></g></g><g data-name="Group 19493"><g data-name="Group 19492" clip-path="url(#q)" transform="translate(195.326 179.426)"><path data-name="Rectangle 18261" transform="rotate(-1.858 .838 51.027)" fill="url(#b)" d="M0 0h14.897v51.439H0z"/></g></g><g data-name="Group 19495"><g data-name="Group 19494" clip-path="url(#m)"><path data-name="Path 73944" d="M221.544 172.277s-9.6 6.324-12.127 16.4a16.683 16.683 0 0 0-.09 7.866 22.5 22.5 0 0 1 .115 9.09 96.767 96.767 0 0 0-1.164 25.212l.844-.1a95.7 95.7 0 0 1 .85-23.18 20.739 20.739 0 0 1 4.531-10.015 29.725 29.725 0 0 0 4.915-8.947 43.844 43.844 0 0 0 2.126-16.333" fill="#fff"/></g></g><g data-name="Group 19497"><g data-name="Group 19496" clip-path="url(#r)" transform="translate(209.426 188.117)"><path data-name="Rectangle 18263" transform="translate(-.331)" fill="url(#s)" d="M0 0h14.437v48.814H0z"/></g></g><g data-name="Group 19499"><g data-name="Group 19498" clip-path="url(#m)"><path data-name="Path 73946" d="M219.676 219.08h-23.99s.732 35.79 8.155 40.181h7.679c7.423-4.391 8.155-40.181 8.155-40.181" fill="#fff"/><path data-name="Path 73947" d="M327.848 148.327h6.815a3.763 3.763 0 0 1 3.762 3.762v107.5" fill="none" stroke="#fff"/><path data-name="Path 73948" d="M327.848 172.848h6.815a3.763 3.763 0 0 1 3.762 3.762v82.981" fill="none" stroke="#fff"/><path data-name="Path 73949" d="M327.848 197.366h6.815a3.763 3.763 0 0 1 3.762 3.762v58.462" fill="none" stroke="#fff"/><path data-name="Path 73950" d="M327.848 221.883h6.815a3.763 3.763 0 0 1 3.762 3.762v33.947" fill="none" stroke="#fff"/><path data-name="Path 73951" d="M327.848 246.4h6.815a3.763 3.763 0 0 1 3.762 3.762v9.429" fill="none" stroke="#fff"/><path data-name="Line 76" fill="none" stroke="#fff" d="M176.085 178.734v80.786"/><path data-name="Path 73952" d="M187.352 38.772a11.726 11.726 0 1 1-11.726-11.726 11.726 11.726 0 0 1 11.726 11.726" fill="#fff"/></g></g><g data-name="Group 19501"><g data-name="Group 19500" clip-path="url(#t)" transform="translate(171.767 32.706)"><path data-name="Rectangle 18265" transform="rotate(-35.31 2.541 7.979)" fill="url(#c)" d="M0 0h11.378v11.631H0z"/></g></g><g data-name="Group 19503"><g data-name="Group 19502" clip-path="url(#u)" transform="translate(167.023 42.658)"><path data-name="Rectangle 18266" transform="rotate(-35.324 2.266 7.119)" fill="url(#v)" d="M0 0h18.572v16.345H0z"/></g></g><g data-name="Group 19505"><g data-name="Group 19504" clip-path="url(#m)"><path data-name="Path 73955" d="M316.54 106.116a5.863 5.863 0 1 1-5.863-5.863 5.863 5.863 0 0 1 5.863 5.863" fill="#fff"/></g></g><g data-name="Group 19507"><g data-name="Group 19506" clip-path="url(#w)" transform="translate(308.747 103.083)"><path data-name="Rectangle 18268" transform="rotate(-35.31 1.27 3.989)" fill="url(#x)" d="M0 0h5.689v5.815H0z"/></g></g><g data-name="Group 19509"><g data-name="Group 19508" clip-path="url(#y)" transform="translate(306.375 108.059)"><path data-name="Rectangle 18269" transform="rotate(-35.31 1.134 3.562)" fill="url(#z)" d="M0 0h9.286v8.173H0z"/></g></g><g data-name="Group 19511"><g data-name="Group 19510" clip-path="url(#m)"><path data-name="Path 73958" d="M36.201 146.789a8.038 8.038 0 1 1-8.037-8.037 8.037 8.037 0 0 1 8.037 8.037" fill="#fff"/></g></g><g data-name="Group 19513"><g data-name="Group 19512" clip-path="url(#A)" transform="translate(25.518 142.632)"><path data-name="Rectangle 18271" transform="rotate(-32.388 1.613 5.554)" fill="url(#B)" d="M0 0h7.693v7.919H0z"/></g></g><g data-name="Group 19515"><g data-name="Group 19514" clip-path="url(#C)" transform="translate(22.266 149.453)"><path data-name="Rectangle 18272" transform="rotate(-32.388 1.44 4.956)" fill="url(#D)" d="M0 0h12.838v10.856H0z"/></g></g><g data-name="Group 19517"><g data-name="Group 19516" clip-path="url(#m)" fill="#fff"><path data-name="Path 73961" d="M140.386 43.053a3.377 3.377 0 1 1-3.376-3.376 3.376 3.376 0 0 1 3.376 3.376"/><path data-name="Path 73962" d="M131.924 40.741a.9.9 0 0 1-.764-1.388 6.919 6.919 0 0 1 11.7 0 .904.904 0 1 1-1.527.969 5.11 5.11 0 0 0-8.64 0 .9.9 0 0 1-.765.421"/><path data-name="Path 73963" d="M130.157 38.43a.9.9 0 0 1-.7-1.472 9.707 9.707 0 0 1 15.115 0 .904.904 0 0 1-1.407 1.137 7.9 7.9 0 0 0-12.3 0 .9.9 0 0 1-.7.337"/><path data-name="Path 73964" d="M145.598 36.17a.9.9 0 0 1-.67-.3 10.686 10.686 0 0 0-15.836 0 .905.905 0 0 1-1.34-1.216 12.5 12.5 0 0 1 18.516 0 .9.9 0 0 1-.67 1.512"/><path data-name="Path 73965" d="M147.315 33.929a.9.9 0 0 1-.648-.274 13.478 13.478 0 0 0-19.316 0 .906.906 0 1 1-1.3-1.262 15.285 15.285 0 0 1 21.909 0 .9.9 0 0 1-.648 1.535"/></g></g><g data-name="Group 19519"><g data-name="Group 19518" clip-path="url(#E)" transform="translate(215.31 234.885)"><path data-name="Rectangle 18274" fill="url(#e)" d="M0 0h109.878v21.77H0z"/></g></g><g data-name="Group 19521"><g data-name="Group 19520" clip-path="url(#F)" transform="translate(220.679 239.728)"><path data-name="Rectangle 18276" transform="rotate(-44.68 4.245 10.34)" fill="url(#G)" d="M0 0h14.692v14.72H0z"/></g></g><g data-name="Group 19523"><g data-name="Group 19522" clip-path="url(#H)" transform="translate(231.757 239.728)"><path data-name="Rectangle 18278" transform="rotate(-44.665 4.248 10.34)" fill="url(#I)" d="M0 0h14.692v14.72H0z"/></g></g><g data-name="Group 19525"><g data-name="Group 19524" clip-path="url(#m)"><path data-name="Path 73966" d="M291.539 251.813h-47.818a.887.887 0 0 1-.886-.887v-10.311a.887.887 0 0 1 .886-.887h47.818a.887.887 0 0 1 .887.887v10.311a.887.887 0 0 1-.887.887" fill="#fff"/></g></g><g data-name="Group 19527"><g data-name="Group 19526" clip-path="url(#J)" transform="translate(295.535 242.682)"><path data-name="Rectangle 18281" fill="url(#d)" d="M0 0h6.214v6.214H0z"/></g></g><g data-name="Group 19529"><g data-name="Group 19528" clip-path="url(#m)"><path data-name="Path 73968" d="M310.226 245.789a3.107 3.107 0 1 1-3.107-3.107 3.107 3.107 0 0 1 3.107 3.107" fill="#fff"/></g></g><g data-name="Group 19531"><g data-name="Group 19530" clip-path="url(#K)" transform="translate(312.05 244.42)"><path data-name="Rectangle 18283" fill="url(#L)" d="M0 0h7.768v2.702H0z"/></g></g><g data-name="Group 19533"><g data-name="Group 19532" clip-path="url(#m)" fill="#fff"><path data-name="Rectangle 18285" d="M225.036 256.655h7.771v2.59h-7.771z"/><path data-name="Rectangle 18286" d="M308.164 256.655h7.771v2.59h-7.771z"/></g></g><g data-name="Group 19535"><g data-name="Group 19534" clip-path="url(#M)" transform="translate(325.188 242.967)"><path data-name="Rectangle 18288" fill="url(#N)" d="M0 0h2.661v5.606H0z"/></g></g><g data-name="Group 19537"><g data-name="Group 19536" clip-path="url(#E)" transform="translate(215.31 210.526)"><path data-name="Rectangle 18289" fill="url(#O)" d="M0 0h109.878v21.77H0z"/></g></g><g data-name="Group 19539"><g data-name="Group 19538" clip-path="url(#P)" transform="translate(220.679 215.368)"><path data-name="Rectangle 18291" transform="rotate(-34.592 3.43 11.017)" fill="url(#Q)" d="M0 0h14.034v14.896H0z"/></g></g><g data-name="Group 19541"><g data-name="Group 19540" clip-path="url(#m)" fill="#fff"><path data-name="Path 73970" d="M239.583 227.452h-6.939a.887.887 0 0 1-.887-.887v-10.313a.887.887 0 0 1 .887-.887h6.939a.887.887 0 0 1 .887.887v10.311a.887.887 0 0 1-.887.887"/><path data-name="Path 73971" d="M291.539 227.452h-47.818a.887.887 0 0 1-.886-.887v-10.313a.887.887 0 0 1 .886-.887h47.818a.887.887 0 0 1 .887.887v10.311a.887.887 0 0 1-.887.887"/></g></g><g data-name="Group 19543"><g data-name="Group 19542" clip-path="url(#R)" transform="translate(295.535 218.322)"><path data-name="Rectangle 18294" fill="url(#S)" d="M0 0h6.214v6.214H0z"/></g></g><g data-name="Group 19545"><g data-name="Group 19544" clip-path="url(#m)" fill="#fff"><path data-name="Path 73973" d="M310.226 221.429a3.107 3.107 0 1 1-3.107-3.107 3.107 3.107 0 0 1 3.107 3.107"/><path data-name="Path 73974" d="M319.231 222.761h-6.594a.587.587 0 0 1-.587-.587v-1.529a.587.587 0 0 1 .587-.587h6.594a.587.587 0 0 1 .587.587v1.529a.587.587 0 0 1-.587.587"/><path data-name="Rectangle 18295" d="M225.036 232.295h7.771v2.59h-7.771z"/><path data-name="Rectangle 18296" d="M308.164 232.295h7.771v2.59h-7.771z"/></g></g><g data-name="Group 19547"><g data-name="Group 19546" clip-path="url(#T)" transform="translate(325.188 218.608)"><path data-name="Rectangle 18298" fill="url(#U)" d="M0 0h2.661v5.606H0z"/></g></g><g data-name="Group 19549"><g data-name="Group 19548" clip-path="url(#V)" transform="translate(215.31 186.165)"><path data-name="Rectangle 18299" fill="url(#W)" d="M0 0h109.878v21.77H0z"/></g></g><g data-name="Group 19551"><g data-name="Group 19550" clip-path="url(#X)" transform="translate(220.679 191.008)"><path data-name="Rectangle 18301" fill="url(#Y)" d="M0 0h8.714v12.085H0z"/></g></g><g data-name="Group 19553"><g data-name="Group 19552" clip-path="url(#Z)" transform="translate(231.757 191.008)"><path data-name="Rectangle 18303" fill="url(#aa)" d="M0 0h8.713v12.085H0z"/></g></g><g data-name="Group 19555"><g data-name="Group 19554" clip-path="url(#m)"><path data-name="Path 73976" d="M291.539 203.098h-47.818a.887.887 0 0 1-.886-.887v-10.313a.887.887 0 0 1 .886-.887h47.818a.887.887 0 0 1 .887.887v10.311a.887.887 0 0 1-.887.887" fill="#fff"/></g></g><g data-name="Group 19557"><g data-name="Group 19556" clip-path="url(#ab)" transform="translate(295.535 193.962)"><path data-name="Rectangle 18306" fill="url(#ac)" d="M0 0h6.214v6.214H0z"/></g></g><g data-name="Group 19559"><g data-name="Group 19558" clip-path="url(#ad)" transform="translate(304.012 193.962)"><path data-name="Rectangle 18307" transform="rotate(-49.9 2.374 5.107)" fill="url(#ae)" d="M0 0h8.757v8.757H0z"/></g></g><g data-name="Group 19561"><g data-name="Group 19560" clip-path="url(#m)" fill="#fff"><path data-name="Path 73979" d="M319.231 198.402h-6.594a.587.587 0 0 1-.587-.587v-1.529a.587.587 0 0 1 .587-.587h6.594a.587.587 0 0 1 .587.587v1.529a.587.587 0 0 1-.587.587"/><path data-name="Rectangle 18308" d="M225.036 207.936h7.771v2.59h-7.771z"/><path data-name="Rectangle 18309" d="M308.164 207.936h7.771v2.59h-7.771z"/></g></g><g data-name="Group 19563"><g data-name="Group 19562" clip-path="url(#af)" transform="translate(325.188 194.247)"><path data-name="Rectangle 18311" fill="url(#ag)" d="M0 0h2.661v5.606H0z"/></g></g><g data-name="Group 19565"><g data-name="Group 19564" clip-path="url(#ah)" transform="translate(215.31 161.806)"><path data-name="Rectangle 18312" fill="url(#ai)" d="M0 0h109.878v21.77H0z"/></g></g><g data-name="Group 19567"><g data-name="Group 19566" clip-path="url(#aj)" transform="translate(220.679 166.648)"><path data-name="Rectangle 18314" fill="url(#ak)" d="M0 0h8.714v12.086H0z"/></g></g><g data-name="Group 19569"><g data-name="Group 19568" clip-path="url(#m)" fill="#fff"><path data-name="Path 73981" d="M239.583 178.733h-6.939a.887.887 0 0 1-.887-.887v-10.311a.887.887 0 0 1 .887-.887h6.939a.887.887 0 0 1 .887.887v10.31a.887.887 0 0 1-.887.887"/><path data-name="Path 73982" d="M291.539 178.733h-47.818a.887.887 0 0 1-.886-.887v-10.311a.887.887 0 0 1 .886-.887h47.818a.887.887 0 0 1 .887.887v10.31a.887.887 0 0 1-.887.887"/></g></g><g data-name="Group 19571"><g data-name="Group 19570" clip-path="url(#al)" transform="translate(295.535 169.602)"><path data-name="Rectangle 18317" transform="rotate(-60.081 2.693 4.657)" fill="url(#am)" d="M0 0h8.486v8.486H0z"/></g></g><g data-name="Group 19573"><g data-name="Group 19572" clip-path="url(#an)" transform="translate(304.012 169.602)"><path data-name="Rectangle 18318" transform="rotate(-60.081 2.693 4.657)" fill="url(#ao)" d="M0 0h8.486v8.486H0z"/></g></g><g data-name="Group 19575"><g data-name="Group 19574" clip-path="url(#m)" fill="#fff"><path data-name="Path 73985" d="M319.231 174.042h-6.594a.587.587 0 0 1-.587-.587v-1.529a.587.587 0 0 1 .587-.587h6.594a.587.587 0 0 1 .587.587v1.529a.587.587 0 0 1-.587.587"/><path data-name="Rectangle 18319" d="M225.036 183.576h7.771v2.59h-7.771z"/><path data-name="Rectangle 18320" d="M308.164 183.576h7.771v2.59h-7.771z"/></g></g><g data-name="Group 19577"><g data-name="Group 19576" clip-path="url(#ap)" transform="translate(325.188 169.888)"><path data-name="Rectangle 18322" fill="url(#aq)" d="M0 0h2.661v5.607H0z"/></g></g><g data-name="Group 19579"><g data-name="Group 19578" clip-path="url(#E)" transform="translate(215.31 137.446)"><path data-name="Rectangle 18323" fill="url(#ar)" d="M0 0h109.878v21.77H0z"/></g></g><g data-name="Group 19581"><g data-name="Group 19580" clip-path="url(#m)" fill="#fff"><path data-name="Path 73987" d="M228.506 154.374h-6.939a.887.887 0 0 1-.887-.887v-10.311a.887.887 0 0 1 .887-.887h6.939a.887.887 0 0 1 .887.887v10.316a.887.887 0 0 1-.887.887"/><path data-name="Path 73988" d="M239.583 154.374h-6.939a.887.887 0 0 1-.887-.887v-10.311a.887.887 0 0 1 .887-.887h6.939a.887.887 0 0 1 .887.887v10.316a.887.887 0 0 1-.887.887"/><path data-name="Path 73989" d="M291.539 154.374h-47.818a.887.887 0 0 1-.886-.887v-10.311a.887.887 0 0 1 .886-.887h47.818a.887.887 0 0 1 .887.887v10.316a.887.887 0 0 1-.887.887"/><path data-name="Path 73990" d="M301.749 148.35a3.107 3.107 0 1 1-3.107-3.107 3.107 3.107 0 0 1 3.107 3.107"/></g></g><g data-name="Group 19583"><g data-name="Group 19582" clip-path="url(#as)" transform="translate(304.012 145.243)"><path data-name="Rectangle 18326" fill="url(#at)" d="M0 0h6.214v6.214H0z"/></g></g><g data-name="Group 19585"><g data-name="Group 19584" clip-path="url(#m)" fill="#fff"><path data-name="Path 73992" d="M319.231 149.683h-6.594a.587.587 0 0 1-.587-.587v-1.529a.587.587 0 0 1 .587-.587h6.594a.587.587 0 0 1 .587.587v1.529a.587.587 0 0 1-.587.587"/><path data-name="Rectangle 18327" d="M225.036 159.216h7.771v2.59h-7.771z"/><path data-name="Rectangle 18328" d="M308.164 159.216h7.771v2.59h-7.771z"/></g></g><g data-name="Group 19587"><g data-name="Group 19586" clip-path="url(#au)" transform="translate(325.188 145.528)"><path data-name="Rectangle 18330" fill="url(#av)" d="M0 0h2.661v5.606H0z"/></g></g><g data-name="Group 19589"><g data-name="Group 19588" clip-path="url(#aw)" transform="translate(225.465 180.76)"><path data-name="Rectangle 18331" transform="rotate(-2.56 .167 13.47)" fill="url(#f)" d="M0 0h12.186v10.771H0z"/></g></g><g data-name="Group 19591"><g data-name="Group 19590" clip-path="url(#ax)" transform="translate(206.817 155.941)"><path data-name="Rectangle 18332" transform="translate(-1.158)" fill="url(#ay)" d="M0 0h15.019v11.949H0z"/></g></g><g data-name="Group 19593"><g data-name="Group 19592" clip-path="url(#az)" transform="translate(211.595 152.426)"><path data-name="Rectangle 18333" fill="url(#g)" d="M0 0h6.546v5.717H0z"/></g></g><g data-name="Group 19595"><g data-name="Group 19594" clip-path="url(#aA)" transform="translate(223.94 119.837)"><path data-name="Rectangle 18334" fill="url(#aB)" d="M0 0h10.773v3.705H0z"/></g></g><g data-name="Group 19597"><g data-name="Group 19596" clip-path="url(#aC)" transform="translate(202.88 120.518)"><path data-name="Rectangle 18335" transform="translate(-.481)" fill="url(#aD)" d="M0 0h37.116v35.283H0z"/></g></g><g data-name="Group 19604"><g data-name="Group 19603" clip-path="url(#m)"><g data-name="Group 19602" opacity=".5" style="mix-blend-mode:multiply;isolation:isolate"><g data-name="Group 19601"><g data-name="Group 19600" clip-path="url(#aE)" transform="translate(219.688 134.512)"><g data-name="Group 19599"><g data-name="Group 19598" clip-path="url(#aF)"><path data-name="Rectangle 18336" fill="url(#j)" d="M0 0h15.567v2.936H0z"/></g></g></g></g></g></g></g><g data-name="Group 19606"><g data-name="Group 19605" clip-path="url(#aG)" transform="translate(230.08 177.8)"><path data-name="Rectangle 18339" transform="rotate(-2.573 .102 4.368)" fill="url(#aH)" d="M0 0h5.709v4.617H0z"/></g></g><g data-name="Group 19608"><g data-name="Group 19607" clip-path="url(#aI)" transform="translate(223.902 125.802)"><path data-name="Rectangle 18340" transform="translate(-.138)" fill="url(#aJ)" d="M0 0h31.089v54.752H0z"/></g></g><g data-name="Group 19610"><g data-name="Group 19609" clip-path="url(#aK)" transform="translate(223.787 93.873)"><path data-name="Rectangle 18341" fill="url(#h)" d="M0 0h8.129v15.385H0z"/></g></g><g data-name="Group 19617"><g data-name="Group 19616" clip-path="url(#m)"><g data-name="Group 19615" style="mix-blend-mode:multiply;isolation:isolate"><g data-name="Group 19614"><g data-name="Group 19613" clip-path="url(#aL)" transform="translate(229.04 101.186)"><g data-name="Group 19612"><g data-name="Group 19611" clip-path="url(#aM)"><path data-name="Rectangle 18342" fill="url(#aN)" d="M0 0h2.573v4.93H0z"/></g></g></g></g></g></g></g><g data-name="Group 19619"><g data-name="Group 19618" clip-path="url(#aO)" transform="translate(229.244 90.592)"><path data-name="Rectangle 18345" transform="translate(-.052)" fill="url(#aP)" d="M0 0h24.604v43.248H0z"/></g></g><g data-name="Group 19621"><g data-name="Group 19620" clip-path="url(#m)"><path data-name="Path 74005" d="M231.828 78.202s-.408 2.809.9 3.323l.515-3.109" fill="#192139"/></g></g><g data-name="Group 19623"><g data-name="Group 19622" clip-path="url(#aQ)" transform="translate(236.633 84.631)"><path data-name="Rectangle 18347" transform="rotate(-77.41 4.58 7.15)" fill="url(#aR)" d="M0 0h12.312v11.268H0z"/></g></g><g data-name="Group 19630"><g data-name="Group 19629" clip-path="url(#m)"><g data-name="Group 19628" style="mix-blend-mode:multiply;isolation:isolate"><g data-name="Group 19627"><g data-name="Group 19626" clip-path="url(#aS)" transform="translate(237.391 86.584)"><g data-name="Group 19625"><g data-name="Group 19624" clip-path="url(#aT)"><path data-name="Rectangle 18348" transform="rotate(-35.8 .895 2.775)" fill="url(#aU)" d="M0 0h4.983v4.787H0z"/></g></g></g></g></g></g></g><g data-name="Group 19632"><g data-name="Group 19631" clip-path="url(#aV)" transform="translate(232.301 73.686)"><path data-name="Rectangle 18351" transform="rotate(-77.4 7.061 10.118)" fill="url(#aW)" d="M0 0h18.101v16.514H0z"/></g></g><g data-name="Group 19634"><g data-name="Group 19633" clip-path="url(#m)"><path data-name="Path 74009" d="M235.198 71.569s.951-2.2 3.88-1.155a6.779 6.779 0 0 1 3.1 2.256 1.054 1.054 0 0 1 1.568.352 3.228 3.228 0 0 1 .176 2.076c4.87.893-.047 11.239-.107 11.575l-.52.3c-.139-1.514-.095-2.9-.182-3.957-.026-.32-.532-.5-.65-.729a3.115 3.115 0 0 1-2.442-.316 4.532 4.532 0 0 1-1.245-3.045c-.9.3-8.34 1.479-7.976-2.766a5.24 5.24 0 0 1-.445-1.317c-.875-5.264 4.845-3.279 4.845-3.279" fill="#192139"/></g></g><g data-name="Group 19636"><g data-name="Group 19635" clip-path="url(#aX)" transform="translate(240.741 80.276)"><path data-name="Rectangle 18353" transform="rotate(-77.4 2.172 3.07)" fill="url(#aY)" d="M0 0h5.388v4.422H0z"/></g></g><g data-name="Group 19643"><g data-name="Group 19642" clip-path="url(#m)"><g data-name="Group 19641" style="mix-blend-mode:multiply;isolation:isolate"><g data-name="Group 19640"><g data-name="Group 19639" clip-path="url(#aZ)" transform="translate(246.002 102.988)"><g data-name="Group 19638"><g data-name="Group 19637" clip-path="url(#ba)"><path data-name="Rectangle 18354" fill="url(#bb)" d="M0 0h6.408v7.587H0z"/></g></g></g></g></g></g></g><g data-name="Group 19645"><g data-name="Group 19644" clip-path="url(#bc)" transform="translate(234.046 99.573)"><path data-name="Rectangle 18357" transform="rotate(-69.286 9.716 14.062)" fill="url(#bd)" d="M0 0h28.873v32.314H0z"/></g></g><g data-name="Group 19647"><g data-name="Group 19646" clip-path="url(#m)" fill="#fff"><path data-name="Path 74013" d="M242.46 122.123h-9.933v-.972h9.933a.486.486 0 0 1 0 .972"/><path data-name="Path 74014" d="M237.085 122.123h-23.737a.662.662 0 0 1-.639-.486l-5.09-18.324a.636.636 0 0 1 .613-.807h22.917a1.247 1.247 0 0 1 1.2.914l5.072 18.258a.351.351 0 0 1-.338.445"/></g></g><g data-name="Group 19649"><g data-name="Group 19648" clip-path="url(#be)" transform="translate(206.695 102.507)"><path data-name="Rectangle 18359" transform="translate(-.089)" fill="url(#bf)" d="M0 0h29.978v19.616H0z"/></g></g><g data-name="Group 19651"><g data-name="Group 19650" clip-path="url(#bg)" transform="translate(215.233 122.123)"><path data-name="Rectangle 18360" transform="rotate(-64.778 .5 .79)" fill="url(#bh)" d="M0 0h1.971v2.529H0z"/></g></g><g data-name="Group 19653"><g data-name="Group 19652" clip-path="url(#bi)" transform="translate(215.667 117.587)"><path data-name="Rectangle 18361" transform="rotate(-16.341 .862 6.052)" fill="url(#bj)" d="M0 0h10.13v8.365H0z"/></g></g><g data-name="Group 19655"><g data-name="Group 19654" clip-path="url(#bk)" transform="translate(245.012 96.795)"><path data-name="Rectangle 18362" fill="url(#bl)" d="M0 0h13.12v12.384H0z"/></g></g><g data-name="Group 19657"><g data-name="Group 19656" clip-path="url(#bm)" transform="translate(153.327 164.122)"><path data-name="Rectangle 18363" fill="url(#i)" d="M0 0h15.527v95.563H0z"/></g></g><g data-name="Group 19659"><g data-name="Group 19658" clip-path="url(#bn)" transform="translate(152.456 164.122)"><path data-name="Rectangle 18365" fill="url(#bo)" d="M0 0h14.339v95.563H0z"/></g></g><g data-name="Group 19666"><g data-name="Group 19665" clip-path="url(#m)"><g data-name="Group 19664" opacity=".5" style="mix-blend-mode:multiply;isolation:isolate"><g data-name="Group 19663"><g data-name="Group 19662" clip-path="url(#bp)" transform="translate(152.456 179.48)"><g data-name="Group 19661"><g data-name="Group 19660" clip-path="url(#bq)" transform="translate(0 -.001)"><path data-name="Rectangle 18367" transform="rotate(-70.238 1.595 2.268)" fill="url(#br)" d="M0 0h8.038v14.641H0z"/></g></g></g></g></g></g></g><g data-name="Group 19668"><g data-name="Group 19667" clip-path="url(#bs)" transform="translate(130.931 128.322)"><path data-name="Rectangle 18371" fill="url(#bt)" d="M0 0h65.476v51.158H0z"/></g></g><g data-name="Group 19670"><g data-name="Group 19669" clip-path="url(#bu)" transform="translate(130.619 128.062)"><path data-name="Rectangle 18372" transform="translate(-.077)" fill="url(#bv)" d="M0 0h63.723v50.02H0z"/></g></g><g data-name="Group 19672"><g data-name="Group 19671" clip-path="url(#m)"><path data-name="Path 74021" d="M134.067 175.794h49.653a.583.583 0 0 0 .576-.492l7.024-44.278a.583.583 0 0 0-.576-.674H141.09a.583.583 0 0 0-.576.492l-7.023 44.277a.584.584 0 0 0 .576.674" fill="#fff"/></g></g><g data-name="Group 19674"><g data-name="Group 19673" clip-path="url(#bw)" transform="translate(150.523 138.834)"><path data-name="Rectangle 18374" transform="rotate(-50.916 6.214 13.183)" fill="url(#bx)" d="M0 0h25.366v25.997H0z"/></g></g><g data-name="Group 19676"><g data-name="Group 19675" clip-path="url(#m)" fill="#eef6fd"><path data-name="Path 74023" d="M154.4 152.942h-1.14a.251.251 0 0 1-.254-.3l1.364-8.585a.367.367 0 0 1 .35-.3h1.14a.251.251 0 0 1 .254.3l-1.364 8.585a.368.368 0 0 1-.35.3"/><path data-name="Path 74024" d="M157.343 152.941h-1.14a.251.251 0 0 1-.254-.3l1.081-6.805a.367.367 0 0 1 .349-.3h1.14a.251.251 0 0 1 .254.3l-1.081 6.805a.368.368 0 0 1-.35.3"/><path data-name="Path 74025" d="M160.283 152.941h-1.14a.251.251 0 0 1-.254-.3l1.283-8.076a.368.368 0 0 1 .35-.3h1.14a.251.251 0 0 1 .254.3l-1.283 8.076a.368.368 0 0 1-.35.3"/><path data-name="Path 74026" d="M163.225 152.941h-1.14a.251.251 0 0 1-.254-.3l1.918-12.071a.367.367 0 0 1 .35-.3h1.14a.251.251 0 0 1 .254.3l-1.918 12.071a.368.368 0 0 1-.35.3"/><path data-name="Path 74027" d="M166.167 152.942h-1.14a.251.251 0 0 1-.254-.3l1.52-9.566a.368.368 0 0 1 .35-.3h1.14a.251.251 0 0 1 .254.3l-1.52 9.566a.368.368 0 0 1-.35.3"/></g></g><g data-name="Group 19678"><g data-name="Group 19677" clip-path="url(#by)" transform="translate(171.797 156.403)"><path data-name="Rectangle 18376" transform="translate(-.034)" fill="url(#bz)" d="M0 0h11.211v8.834H0z"/></g></g><g data-name="Group 19685"><g data-name="Group 19684" clip-path="url(#m)"><g data-name="Group 19683" opacity=".5"><g data-name="Group 19682"><g data-name="Group 19681" clip-path="url(#bA)" transform="translate(153.14 159.337)"><g data-name="Group 19680"><g data-name="Group 19679" clip-path="url(#bB)"><path data-name="Rectangle 18377" transform="translate(-.046)" fill="url(#bC)" d="M0 0h23.038v12.017H0z"/></g></g></g></g></g><path data-name="Path 74030" d="m156.056 164.02-.731 4.612h17.69l.9-5.7a2.837 2.837 0 0 0-2.592.23c-1.166.641-2.857 2.489-4.025 2.357s-1.89-3.114-3.479-3.093-2.882 3.289-4.154 3.323-2.783-1.761-3.613-1.725" fill="#fff"/></g></g><g data-name="Group 19687"><g data-name="Group 19686" clip-path="url(#bD)" transform="translate(174.481 136.967)"><path data-name="Rectangle 18380" transform="translate(-.022)" fill="url(#bE)" d="M0 0h11.196v5.841H0z"/></g></g><g data-name="Group 19729"><g data-name="Group 19728" clip-path="url(#m)"><g data-name="Group 19698" opacity=".4"><g data-name="Group 19697"><g data-name="Group 19696" clip-path="url(#bF)" transform="translate(174.96 143.961)"><g data-name="Group 19689"><g data-name="Group 19688" clip-path="url(#bG)" transform="translate(.43)"><path data-name="Path 74032" d="m262.208 204.972-6.858 3.424 1.1 3.973 6.858-3.424Z" transform="translate(-255.552 -208.308)" fill="url(#bH)"/></g></g><g data-name="Group 19691"><g data-name="Group 19690" clip-path="url(#bI)" transform="translate(.216 1.359)"><path data-name="Path 74034" d="m261.894 206.953-6.858 3.424 1.1 3.973 6.858-3.424Z" transform="translate(-255.239 -210.289)" fill="url(#bJ)"/></g></g><g data-name="Group 19693"><g data-name="Group 19692" clip-path="url(#bK)" transform="translate(0 2.719)"><path data-name="Path 74036" d="m261.58 208.935-6.858 3.424 1.1 3.973 6.858-3.424Z" transform="translate(-254.925 -212.271)" fill="url(#bL)"/></g></g><g data-name="Group 19695"><g data-name="Group 19694" clip-path="url(#bM)" transform="translate(3.555 4.078)"><path data-name="Path 74038" d="M263.448 213.327 259.9 215.1l.64 2.319 3.545-1.77Z" transform="translate(-260.107 -215.009)" fill="url(#bN)"/></g></g></g></g></g><g data-name="Group 19709" opacity=".4"><g data-name="Group 19708"><g data-name="Group 19707" clip-path="url(#bO)" transform="translate(140.166 163.716)"><g data-name="Group 19700"><g data-name="Group 19699" clip-path="url(#bP)" transform="translate(.605)"><path data-name="Path 74040" d="m213.842 231.377-9.165 5.15 2.135 5.82 9.165-5.15Z" transform="translate(-205.025 -236.352)" fill="url(#bQ)"/></g></g><g data-name="Group 19702"><g data-name="Group 19701" clip-path="url(#bR)" transform="translate(.302 1.909)"><path data-name="Path 74042" d="m213.4 234.16-9.165 5.15 2.135 5.82 9.165-5.15Z" transform="translate(-204.584 -239.135)" fill="url(#bS)"/></g></g><g data-name="Group 19704"><g data-name="Group 19703" clip-path="url(#bT)" transform="translate(0 3.819)"><path data-name="Path 74044" d="m212.961 236.943-9.165 5.15 2.135 5.82 9.165-5.15Z" transform="translate(-204.144 -241.919)" fill="url(#bU)"/></g></g><g data-name="Group 19706"><g data-name="Group 19705" clip-path="url(#bV)" transform="translate(4.993 5.729)"><path data-name="Path 74046" d="m215.848 243.322-4.774 2.683 1.23 3.353 4.774-2.683Z" transform="translate(-211.421 -245.831)" fill="url(#bW)"/></g></g></g></g></g><g data-name="Group 19727" opacity=".5"><g data-name="Group 19726"><g data-name="Group 19725" clip-path="url(#bX)" transform="translate(142.975 136.959)"><g data-name="Group 19714" opacity=".4"><g data-name="Group 19713"><g data-name="Group 19712" clip-path="url(#bY)" transform="translate(.207)"><g data-name="Group 19711"><g data-name="Group 19710" clip-path="url(#bZ)"><path data-name="Path 74048" d="m214.647 194.688-6.291 3.506 1.429 3.969 6.291-3.506Z" transform="translate(-208.592 -198.077)" fill="url(#ca)"/></g></g></g></g></g><g data-name="Group 19719" opacity=".4"><g data-name="Group 19718"><g data-name="Group 19717" clip-path="url(#bY)" transform="translate(0 1.306)"><g data-name="Group 19716"><g data-name="Group 19715" clip-path="url(#cb)"><path data-name="Path 74050" d="m214.346 196.591-6.291 3.506 1.429 3.969 6.291-3.506Z" transform="translate(-208.29 -199.98)" fill="url(#cc)"/></g></g></g></g></g><g data-name="Group 19724" opacity=".4"><g data-name="Group 19723"><g data-name="Group 19722" clip-path="url(#cd)" transform="translate(3.413 2.611)"><g data-name="Group 19721"><g data-name="Group 19720" clip-path="url(#ce)"><path data-name="Path 74052" d="m216.306 200.943-3.275 1.825.824 2.288 3.275-1.825Z" transform="translate(-213.266 -202.652)" fill="url(#cf)"/></g></g></g></g></g></g></g></g></g></g><g data-name="Group 19731"><g data-name="Group 19730" clip-path="url(#cg)" transform="translate(137.135 247.551)"><path data-name="Rectangle 18388" fill="url(#ch)" d="M0 0h7.204v7.749H0z"/></g></g><g data-name="Group 19733"><g data-name="Group 19732" clip-path="url(#ci)" transform="translate(136.837 253.998)"><path data-name="Rectangle 18389" transform="translate(-.069)" fill="url(#cj)" d="M0 0h15.673v5.262H0z"/></g></g><g data-name="Group 19735"><g data-name="Group 19734" clip-path="url(#ck)" transform="translate(102.338 245.198)"><path data-name="Rectangle 18390" fill="url(#cl)" d="M0 0h8.204v8.033H0z"/></g></g><g data-name="Group 19737"><g data-name="Group 19736" clip-path="url(#cm)" transform="translate(99.526 248.196)"><path data-name="Rectangle 18391" transform="translate(-.104)" fill="url(#cn)" d="M0 0h15.022v11.064H0z"/></g></g><g data-name="Group 19739"><g data-name="Group 19738" clip-path="url(#co)" transform="translate(103.328 173.18)"><path data-name="Rectangle 18392" fill="url(#cp)" d="M0 0h44.047v79.579H0z"/></g></g><g data-name="Group 19741"><g data-name="Group 19740" clip-path="url(#cq)" transform="translate(131.252 113.371)"><path data-name="Rectangle 18393" transform="translate(-1.74 .003)" fill="url(#cr)" d="M0 0h17.451v19.037H0z"/></g></g><g data-name="Group 19743"><g data-name="Group 19742" clip-path="url(#m)"><path data-name="Path 74060" d="M139.085 127.786a30.486 30.486 0 0 0-1.142 6.272s-5.539.923-8.533-.7c0 0 3.109-6.326 3.43-11.844" fill="#e9cdb2"/></g></g><g data-name="Group 19745"><g data-name="Group 19744" clip-path="url(#cs)" transform="translate(116.813 148.059)"><path data-name="Rectangle 18395" transform="translate(-.266)" fill="url(#ct)" d="M0 0h8.137v14.567H0z"/></g></g><g data-name="Group 19747"><g data-name="Group 19746" clip-path="url(#cu)" transform="translate(117.374 140.125)"><path data-name="Rectangle 18396" fill="url(#k)" d="M0 0h7.018v13.33H0z"/></g></g><g data-name="Group 19754"><g data-name="Group 19753" clip-path="url(#m)"><g data-name="Group 19752" style="mix-blend-mode:multiply;isolation:isolate"><g data-name="Group 19751"><g data-name="Group 19750" clip-path="url(#cv)" transform="translate(119.933 147.04)"><g data-name="Group 19749"><g data-name="Group 19748" clip-path="url(#cw)"><path data-name="Rectangle 18397" fill="url(#cx)" d="M0 0h4.034v6.387H0z"/></g></g></g></g></g></g></g><g data-name="Group 19756"><g data-name="Group 19755" clip-path="url(#cy)" transform="translate(115.694 133.338)"><path data-name="Rectangle 18400" transform="translate(-.364)" fill="url(#cz)" d="M0 0h29.021v50.784H0z"/></g></g><g data-name="Group 19763"><g data-name="Group 19762" clip-path="url(#m)"><g data-name="Group 19761" style="mix-blend-mode:multiply;isolation:isolate"><g data-name="Group 19760"><g data-name="Group 19759" clip-path="url(#cA)" transform="translate(137.009 147.856)"><g data-name="Group 19758"><g data-name="Group 19757" clip-path="url(#cB)"><path data-name="Rectangle 18401" fill="url(#cC)" d="M0 0h5.447v14.058H0z"/></g></g></g></g></g></g></g><g data-name="Group 19765"><g data-name="Group 19764" clip-path="url(#cD)" transform="translate(164.942 143.219)"><path data-name="Rectangle 18404" transform="rotate(-85.03 1.6 1.746)" fill="url(#cE)" d="M0 0h3.355v2.047H0z"/></g></g><g data-name="Group 19767"><g data-name="Group 19766" clip-path="url(#cF)" transform="translate(139.568 143.03)"><path data-name="Rectangle 18405" fill="url(#cG)" d="M0 0h31.461v22.017H0z"/></g></g><g data-name="Group 19769"><g data-name="Group 19768" clip-path="url(#cH)" transform="translate(136.085 139.049)"><path data-name="Rectangle 18406" transform="translate(-.393)" fill="url(#cI)" d="M0 0h12.996v15.504H0z"/></g></g><g data-name="Group 19771"><g data-name="Group 19770" clip-path="url(#m)"><path data-name="Path 74069" d="M148.678 118.67c.549-1.471.227-3.08-2.437-3.139-3.1-5.21-9.1-4.1-10.948-3.629-4.976 1.2-7.581 6.82-7.024 10.958.648 4.809 1.936 5.631 2.427 6.3s4.517 1.66 6.543.683c.666-.321 2.661-6.247 2.888-6.89a.968.968 0 0 1 .22-.423 1 1 0 0 1 .722-.118h.162c-.036.609.056 1.376.788 1.2a2.415 2.415 0 0 0 1.374-1.265c3.507-.64 4.939-2.743 5.285-3.67" fill="#192139"/></g></g><g data-name="Group 19773"><g data-name="Group 19772" clip-path="url(#cJ)" transform="translate(138.945 121.414)"><path data-name="Rectangle 18408" transform="rotate(-.739 -.215 45.433)" fill="url(#cK)" d="M0 0h3.794v5.463H0z"/></g></g><g data-name="Group 19780"><g data-name="Group 19779" clip-path="url(#m)"><path data-name="Path 74071" d="M129.113 117.465s-6.841 9.393-4.529 15.875c.987 2.768 13.347 5.959 16.568.98-2.76-.847-2-8.6-2-8.6Z" fill="#192139"/><g data-name="Group 19778" opacity=".5" style="mix-blend-mode:multiply;isolation:isolate"><g data-name="Group 19777"><g data-name="Group 19776" clip-path="url(#cL)" transform="translate(128.646 193.597)"><g data-name="Group 19775"><g data-name="Group 19774" clip-path="url(#cM)"><path data-name="Rectangle 18409" fill="url(#cN)" d="M0 0h2.023v14.816H0z"/></g></g></g></g></g></g></g><g data-name="Group 19782"><g data-name="Group 19781" clip-path="url(#cO)" transform="translate(57.298 247.904)"><path data-name="Rectangle 18412" fill="url(#cP)" d="M0 0h6.653v7.681H0z"/></g></g><g data-name="Group 19784"><g data-name="Group 19783" clip-path="url(#cQ)" transform="translate(36.2 245.778)"><path data-name="Rectangle 18413" transform="rotate(-84.882 4.612 5.044)" fill="url(#cR)" d="M0 0h9.9v8.372H0z"/></g></g><g data-name="Group 19786"><g data-name="Group 19785" clip-path="url(#cS)" transform="translate(56.271 254.394)"><path data-name="Rectangle 18414" transform="translate(-.116)" fill="url(#cT)" d="M0 0h14.262v4.951H0z"/></g></g><g data-name="Group 19788"><g data-name="Group 19787" clip-path="url(#cU)" transform="translate(75.214 141.642)"><path data-name="Rectangle 18415" transform="rotate(-83.441 9.333 10.468)" fill="url(#cV)" d="M0 0h20.603v18.993H0z"/></g></g><g data-name="Group 19790"><g data-name="Group 19789" clip-path="url(#cW)" transform="translate(70.513 131.691)"><path data-name="Rectangle 18416" transform="rotate(-80.9 10.69 12.535)" fill="url(#cX)" d="M0 0h23.606v17.399H0z"/></g></g><g data-name="Group 19797"><g data-name="Group 19796" clip-path="url(#m)"><g data-name="Group 19795" style="mix-blend-mode:multiply;isolation:isolate"><g data-name="Group 19794"><g data-name="Group 19793" clip-path="url(#cY)" transform="translate(75.214 141.999)"><g data-name="Group 19792"><g data-name="Group 19791" clip-path="url(#cZ)"><path data-name="Rectangle 18417" fill="url(#da)" d="M0 0h4.164v4.702H0z"/></g></g></g></g></g></g></g><g data-name="Group 19799"><g data-name="Group 19798" clip-path="url(#db)" transform="translate(36.727 170.206)"><path data-name="Rectangle 18420" fill="url(#dc)" d="M0 0h41.736v82.266H0z"/></g></g><g data-name="Group 19801"><g data-name="Group 19800" clip-path="url(#dd)" transform="translate(31.379 253.31)"><path data-name="Rectangle 18421" transform="translate(-.513)" fill="url(#de)" d="M0 0h12.345v6.035H0z"/></g></g><g data-name="Group 19803"><g data-name="Group 19802" clip-path="url(#df)" transform="translate(46.202 130.122)"><path data-name="Rectangle 18422" transform="translate(-.262)" fill="url(#dg)" d="M0 0h32.609v44.347H0z"/></g></g><g data-name="Group 19810"><g data-name="Group 19809" clip-path="url(#m)"><g data-name="Group 19808" style="mix-blend-mode:multiply;isolation:isolate"><g data-name="Group 19807"><g data-name="Group 19806" clip-path="url(#dh)" transform="translate(47.909 147.444)"><g data-name="Group 19805"><g data-name="Group 19804" clip-path="url(#di)"><path data-name="Rectangle 18423" fill="url(#dj)" d="M0 0h5.756v11.842H0z"/></g></g></g></g></g><path data-name="Path 74083" d="M68.63 111.406s1.372 5.2-.638 6.186c-1.636.8-1.779-1.533-1.779-1.533l-.389-2.536" fill="#192139"/></g></g><g data-name="Group 19812"><g data-name="Group 19811" clip-path="url(#dk)" transform="translate(56.723 120.906)"><path data-name="Rectangle 18426" transform="rotate(-70.665 6.049 8.532)" fill="url(#dl)" d="M0 0h15.759v14.681H0z"/></g></g><g data-name="Group 19819"><g data-name="Group 19818" clip-path="url(#m)"><g data-name="Group 19817" style="mix-blend-mode:multiply;isolation:isolate"><g data-name="Group 19816"><g data-name="Group 19815" clip-path="url(#dm)" transform="translate(59.605 124.039)"><g data-name="Group 19814"><g data-name="Group 19813" clip-path="url(#dn)"><path data-name="Rectangle 18427" fill="url(#do)" d="M0 0h4.958v4.431H0z"/></g></g></g></g></g></g></g><g data-name="Group 19821"><g data-name="Group 19820" clip-path="url(#dp)" transform="translate(55.071 109.816)"><path data-name="Rectangle 18430" transform="rotate(-78.5 8.653 10.978)" fill="url(#dq)" d="M0 0h20.677v18.553H0z"/></g></g><g data-name="Group 19823"><g data-name="Group 19822" clip-path="url(#dr)" transform="translate(57.327 117.715)"><path data-name="Rectangle 18431" transform="rotate(-78.5 2.094 3.878)" fill="url(#ds)" d="M0 0h6.007v4.728H0z"/></g></g><g data-name="Group 19825"><g data-name="Group 19824" clip-path="url(#m)"><path data-name="Path 74088" d="M54.447 110.96c2.257-4.486 6.432-2.346 11.107-2.794 1.586-1.525 3.25-1.6 4.1-1.166 1.165.6 1.1 2.918 1 3.9-.633 6.148-7.41 5.68-9.386 5.4a2.755 2.755 0 0 1-.445 1.286 2.315 2.315 0 0 1-1.246.8 1.359 1.359 0 0 0-1.057-.674 1.171 1.171 0 0 0-.5.1 1.1 1.1 0 0 0-.648.869 3.921 3.921 0 0 0 .849 2.7c.028 1.343-.086 2.525-.091 3.331a26.724 26.724 0 0 0-1.765-2.592 12.4 12.4 0 0 1-2.084-3.748c-.006 0-.006 0-.008-.005-.405-.68-3.022-5.282.17-7.412" fill="#192139"/></g></g><g data-name="Group 19827"><g data-name="Group 19826" clip-path="url(#dt)" transform="translate(61.229 143.066)"><path data-name="Rectangle 18433" transform="rotate(-60.137 10.07 17.69)" fill="url(#l)" d="M0 0h32.719v33.272H0z"/></g></g><g data-name="Group 19829"><g data-name="Group 19828" clip-path="url(#du)" transform="translate(40.649 143.543)"><path data-name="Rectangle 18434" transform="rotate(-72.78 10.272 15.028)" fill="url(#dv)" d="M0 0h30.601v36.508H0z"/></g></g><g data-name="Group 19831"><g data-name="Group 19830" clip-path="url(#dw)" transform="translate(41.358 132.93)"><path data-name="Rectangle 18435" fill="url(#dx)" d="M0 0h12.93v21.752H0z"/></g></g><g data-name="Group 19833"><g data-name="Group 19832" clip-path="url(#m)"><path data-name="Path 74092" d="m110.793 128.868-24.781 3.111a3.253 3.253 0 0 1-3.633-2.822l-.473-3.77a3.253 3.253 0 0 1 2.822-3.633l24.781-3.111a3.252 3.252 0 0 1 3.633 2.822l.474 3.77a3.254 3.254 0 0 1-2.822 3.633" fill="#fff"/></g></g><g data-name="Group 19835"><g data-name="Group 19834" clip-path="url(#dy)" transform="translate(84.195 123.797)"><path data-name="Rectangle 18437" transform="rotate(-83.45 2.84 3.303)" fill="url(#dz)" d="M0 0h6.46v6.552H0z"/></g></g><g data-name="Group 19837"><g data-name="Group 19836" clip-path="url(#dA)" transform="translate(91.04 122.203)"><path data-name="Rectangle 18438" transform="rotate(-83.444 1.423 1.614)" fill="url(#dB)" d="M0 0h5.027v19.169H0z"/></g></g><g data-name="Group 19839"><g data-name="Group 19838" clip-path="url(#dC)" transform="translate(91.205 124.866)"><path data-name="Rectangle 18439" transform="rotate(-83.45 .75 .86)" fill="url(#dD)" d="M0 0h2.454v8.318H0z"/></g></g><g data-name="Group 19841"><g data-name="Group 19840" clip-path="url(#dE)" transform="translate(99.92 123.514)"><path data-name="Rectangle 18440" transform="rotate(-83.45 .88 1.005)" fill="url(#dF)" d="M0 0h2.945v10.385H0z"/></g></g><g data-name="Group 19843"><g data-name="Group 19842" clip-path="url(#dG)" transform="translate(91.369 125.885)"><path data-name="Rectangle 18441" transform="rotate(-83.45 .896 1.024)" fill="url(#dH)" d="M0 0h3.008v10.654H0z"/></g></g><g data-name="Group 19845"><g data-name="Group 19844" clip-path="url(#dI)" transform="translate(84.671 127.937)"><path data-name="Rectangle 18442" transform="rotate(-87.48 15.295 15.99)" fill="url(#dJ)" d="M0 0h31.159v14.07H0z"/></g></g><g data-name="Group 19847"><g data-name="Group 19846" clip-path="url(#m)"><path data-name="Path 74099" d="M206.751 98.327h-34.643a3.253 3.253 0 0 1-3.253-3.253V88.11a3.253 3.253 0 0 1 3.253-3.253h34.643a3.253 3.253 0 0 1 3.253 3.253v6.961a3.253 3.253 0 0 1-3.253 3.253" fill="#fff"/></g></g><g data-name="Group 19849"><g data-name="Group 19848" clip-path="url(#dK)" transform="translate(171.744 88.012)"><path data-name="Rectangle 18444" transform="rotate(-66.27 3.277 5.02)" fill="url(#dL)" d="M0 0h9.435v9.434H0z"/></g></g><g data-name="Group 19851"><g data-name="Group 19850" clip-path="url(#dM)" transform="translate(180.796 89.502)"><path data-name="Rectangle 18446" transform="rotate(-66.27 .332 .509)" fill="url(#dN)" d="M0 0h10.697v23.115H0z"/></g></g><g data-name="Group 19853"><g data-name="Group 19852" clip-path="url(#dO)" transform="translate(180.796 91.229)"><path data-name="Rectangle 18447" transform="rotate(-66.27 .332 .509)" fill="url(#dP)" d="M0 0h4.989v10.132H0z"/></g></g><g data-name="Group 19855"><g data-name="Group 19854" clip-path="url(#dQ)" transform="translate(192.278 91.229)"><path data-name="Rectangle 18448" transform="rotate(-66.27 .332 .509)" fill="url(#dR)" d="M0 0h6.076v12.604H0z"/></g></g><g data-name="Group 19857"><g data-name="Group 19856" clip-path="url(#dS)" transform="translate(180.796 92.957)"><path data-name="Rectangle 18449" transform="rotate(-66.27 .331 .508)" fill="url(#dT)" d="M0 0h6.217v12.926H0z"/></g></g><g data-name="Group 19859"><g data-name="Group 19858" clip-path="url(#dU)" transform="translate(89.911 72.784)"><path data-name="Rectangle 18450" transform="rotate(-47.31 7.484 17.07)" fill="url(#dV)" d="M0 0h35.855v36.46H0z"/></g></g><g data-name="Group 19861"><g data-name="Group 19860" clip-path="url(#m)"><path data-name="Path 74104" d="m103.393 79.167 5.142 2.969a1.268 1.268 0 0 1 0 2.2l-5.142 2.969a1.269 1.269 0 0 1-1.9-1.1v-5.938a1.268 1.268 0 0 1 1.9-1.1" fill="#fff"/></g></g><g data-name="Group 19865"><g data-name="Group 19864" clip-path="url(#m)"><path data-name="Path 74105" d="M28.413 101.078H9.381a4.166 4.166 0 0 1 0-8.332h19.032a4.166 4.166 0 0 1 0 8.332Z" fill="none" stroke="#fff" stroke-width=".5"/><path data-name="Path 74106" d="M34.305 114.493H15.274a4.166 4.166 0 0 1 0-8.332h19.031a4.166 4.166 0 0 1 0 8.332Z" fill="none" stroke="#fff" stroke-width=".5"/><path data-name="Path 74107" d="M29.107 95.313H9.648a.503.503 0 0 1 0-1.006h19.459a.503.503 0 1 1 0 1.006" fill="#fff"/><path data-name="Path 74108" d="M29.108 97.415H9.649a.503.503 0 0 1 0-1.006h19.459a.503.503 0 1 1 0 1.006" fill="#fff"/><path data-name="Path 74109" d="M18.875 99.523H9.649a.503.503 0 1 1 0-1.006h9.226a.503.503 0 1 1 0 1.006" fill="#fff"/><path data-name="Path 74110" d="M14.765 108.728h19.459a.503.503 0 0 0 0-1.006H14.765a.503.503 0 1 0 0 1.006" fill="#fff"/><path data-name="Path 74111" d="M22.103 110.83h12.121a.503.503 0 0 0 0-1.006H22.103a.503.503 0 1 0 0 1.006" fill="#fff"/><path data-name="Path 74112" d="M14.765 110.83h5.191a.503.503 0 0 0 0-1.006h-5.191a.503.503 0 1 0 0 1.006" fill="#fff"/><path data-name="Path 74113" d="M24.998 112.933h9.226a.503.503 0 0 0 0-1.006h-9.226a.503.503 0 1 0 0 1.006" fill="#fff"/><path data-name="Path 74114" d="M7.161 120.051a.973.973 0 1 1-.973-.973.973.973 0 0 1 .973.973" fill="#fff"/><path data-name="Path 74115" d="M11.091 120.051a.973.973 0 1 1-.973-.973.973.973 0 0 1 .973.973" fill="#fff"/><path data-name="Path 74116" d="M15.017 120.051a.973.973 0 1 1-.973-.973.973.973 0 0 1 .973.973" fill="#fff"/><path data-name="Path 74117" d="M375.844 199.011h-25.833a3.673 3.673 0 0 1-3.673-3.673v-23.621a3.673 3.673 0 0 1 3.673-3.673h25.833a3.673 3.673 0 0 1 3.673 3.673v23.621a3.673 3.673 0 0 1-3.673 3.673" fill="#fff"/><path data-name="Path 74118" d="M374.793 196.849h-23.731a2.407 2.407 0 0 1-2.407-2.407v-21.825a2.407 2.407 0 0 1 2.407-2.406h23.731a2.407 2.407 0 0 1 2.407 2.406v21.828a2.407 2.407 0 0 1-2.407 2.407" fill="#eef6fd"/></g></g><g data-name="Group 19867"><g data-name="Group 19866" clip-path="url(#dW)" transform="translate(348.826 182.742)"><path data-name="Rectangle 18456" transform="rotate(-50.972 5.48 11.497)" fill="url(#dX)" d="M0 0h23.636v24.521H0z"/></g></g><g data-name="Group 19869"><g data-name="Group 19868" clip-path="url(#dY)" transform="translate(356.197 176.155)"><path data-name="Rectangle 18457" transform="rotate(-50.96 8.039 16.86)" fill="url(#dZ)" d="M0 0h29.305v29.35H0z"/></g></g><g data-name="Group 19871"><g data-name="Group 19870" clip-path="url(#ea)" transform="translate(353.811 172.306)"><path data-name="Rectangle 18458" transform="rotate(-50.972 3.386 7.106)" fill="url(#eb)" d="M0 0h12.265v12.265H0z"/></g></g><g data-name="Group 19873"><g data-name="Group 19872" clip-path="url(#ec)" transform="translate(278.37 113.371)"><path data-name="Rectangle 18459" transform="translate(-1.135)" fill="url(#ed)" d="M0 0h49.029v50.751H0z"/></g></g><g data-name="Group 19875"><g data-name="Group 19874" clip-path="url(#m)"><path data-name="Path 74123" d="m301.751 117.435 19.549 7.78c-.326 6.962-2.719 28.082-19.549 34.876-16.8-6.784-19.22-27.911-19.554-34.877Zm0-2.215-21.659 8.617c.1 5.626 1.64 31.045 21.659 38.461 20.013-7.416 21.563-32.835 21.652-38.461Z" fill="#fff"/></g></g><g data-name="Group 19877"><g data-name="Group 19876" clip-path="url(#ee)" transform="translate(287.623 117.435)"><path data-name="Rectangle 18461" fill="url(#ef)" d="M0 0h37.505v34.021H0z"/></g></g><g data-name="Group 19879"><g data-name="Group 19878" clip-path="url(#m)" fill="none" stroke-linecap="round" stroke-linejoin="round"><path data-name="Line 77" stroke="#232230" d="M10.227 259.592H366.64"/><path data-name="Line 78" stroke="#fff" stroke-width="2" d="M65.885 99.518v-1.715"/><path data-name="Path 74125" d="M65.885 93.682V77.406a19.947 19.947 0 0 1 19.947-19.944h164.469a19.948 19.948 0 0 1 19.951 19.944v49.165" stroke="#fff" stroke-width="2" stroke-dasharray="5.005 6.006"/><path data-name="Line 79" stroke="#fff" stroke-width="2" d="M270.249 128.635v1.715"/><path data-name="Line 80" stroke="#fff" stroke-width="2" stroke-dasharray="5 6" d="M138.078 57.462v48.654"/><path data-name="Line 81" stroke="#fff" stroke-width="2" stroke-dasharray="5 6" d="M221.206 57.462v42.111"/></g></g></g></svg>