<svg xmlns="http://www.w3.org/2000/svg" width="512" height="512"><path d="M348.8 159.2C320.32 146.88 288.968 140 256 140c-84.32 0-158.16 44.72-200 112 25.52 40.96 62.8 73.6 107.2 92.8 28.48 12.32 59.832 19.2 92.8 19.2 84.32 0 158.16-44.72 200-112-25.52-40.96-62.8-73.6-107.2-92.8z" data-original="#E6E9ED" fill="#e6e9ed"/><path d="M348.8 159.2C320.32 146.88 288.968 140 256 140c-5.496 0-10.936.208-16.344.584 27.232 1.816 53.216 8.264 77.144 18.616 44.4 19.2 81.68 51.84 107.2 92.8-39.12 62.896-106.192 106.056-183.656 111.416 5.176.352 10.392.584 15.656.584 84.32 0 158.16-44.72 200-112-25.52-40.96-62.8-73.6-107.2-92.8z" data-original="#CCD1D9" fill="#ccd1d9"/><path data-original="#AC92EC" class="active-path" data-old_color="#18b35c" fill="#18b35c" d="M224 60h24v24h-24zM40 132h32v32H40zM96 28h72v72H96z"/><path data-original="#5D9CEC" fill="#5d9cec" d="M32 468h64v24H32z"/><path data-original="#656D78" fill="#656d78" d="M120 420v72H96v-24H32v24H8v-72z"/><path data-original="#AC92EC" class="active-path" data-old_color="#18b35c" fill="#18b35c" d="M264 420h24v24h-24zm176-80h32v32h-32zm-96 64h72v72h-72z"/><path d="M256 228c13.2 0 24 10.8 24 24s-10.8 24-24 24-24-10.8-24-24 10.8-24 24-24z" data-original="#4A89DC" fill="#4a89dc"/><path d="M312.56 195.44C298.08 180.96 278.08 172 256 172s-42.08 8.96-56.56 23.44S176 229.92 176 252s8.96 42.08 23.44 56.56C213.92 323.04 233.92 332 256 332s42.08-8.96 56.56-23.44C327.04 294.08 336 274.08 336 252s-8.96-42.08-23.44-56.56zM256 276c-13.2 0-24-10.8-24-24s10.8-24 24-24 24 10.8 24 24-10.8 24-24 24z" data-original="#5D9CEC" fill="#5d9cec"/><path d="M312.56 195.44C298.08 180.96 278.08 172 256 172c-5.48 0-10.832.552-16 1.608 15.664 3.184 29.672 10.944 40.56 21.832C295.04 209.92 304 229.92 304 252s-8.96 42.08-23.44 56.56c-10.888 10.88-24.896 18.64-40.56 21.832A79.865 79.865 0 0 0 256 332c22.08 0 42.08-8.96 56.56-23.44C327.04 294.08 336 274.08 336 252s-8.96-42.08-23.44-56.56z" data-original="#4A89DC" fill="#4a89dc"/><path d="M256 372c-84.424 0-161.736-43.28-206.8-115.776a8.048 8.048 0 0 1 0-8.456C94.264 175.28 171.576 132 256 132s161.736 43.28 206.8 115.776a8.048 8.048 0 0 1 0 8.456C417.736 328.72 340.424 372 256 372zM65.488 252C107.952 317.216 178.8 356 256 356s148.056-38.784 190.512-104C404.048 186.784 333.2 148 256 148S107.944 186.784 65.488 252z" data-original="#000000" data-old_color="#115baa" fill="#115baa"/><path d="M256 340c-48.52 0-88-39.48-88-88s39.48-88 88-88 88 39.48 88 88-39.48 88-88 88zm0-160c-39.704 0-72 32.296-72 72s32.296 72 72 72 72-32.296 72-72-32.296-72-72-72z" data-original="#000000" data-old_color="#115baa" fill="#115baa"/><path d="M256 284c-17.648 0-32-14.352-32-32s14.352-32 32-32 32 14.352 32 32-14.352 32-32 32zm0-48c-8.824 0-16 7.176-16 16s7.176 16 16 16 16-7.176 16-16-7.176-16-16-16zm248-112H392c-4.424 0-8-3.576-8-8s3.576-8 8-8h112c4.424 0 8 3.576 8 8s-3.576 8-8 8zm-80-32h-32c-4.424 0-8-3.576-8-8s3.576-8 8-8h32c4.424 0 8 3.576 8 8s-3.576 8-8 8zm80-32h-24c-4.424 0-8-3.576-8-8s3.576-8 8-8h24c4.424 0 8 3.576 8 8s-3.576 8-8 8zm0 32h-48c-4.424 0-8-3.576-8-8s3.576-8 8-8h48c4.424 0 8 3.576 8 8s-3.576 8-8 8zm-80-64h-32c-4.424 0-8-3.576-8-8s3.576-8 8-8h32c4.424 0 8 3.576 8 8s-3.576 8-8 8zm80 0h-48c-4.424 0-8-3.576-8-8s3.576-8 8-8h48c4.424 0 8 3.576 8 8s-3.576 8-8 8zm-56 32h-56c-4.424 0-8-3.576-8-8s3.576-8 8-8h56c4.424 0 8 3.576 8 8s-3.576 8-8 8z" data-original="#000000" data-old_color="#115baa" fill="#115baa"/><path d="M336 260h-56c-4.424 0-8-3.576-8-8s3.576-8 8-8h56c4.424 0 8 3.576 8 8 0 4.424-3.576 8-8 8zm-80 80c-4.424 0-8-3.576-8-8v-16c0-4.424 3.576-8 8-8 4.424 0 8 3.576 8 8v16c0 4.424-3.576 8-8 8zm0-144c-4.424 0-8-3.576-8-8v-16c0-4.424 3.576-8 8-8 4.424 0 8 3.576 8 8v16c0 4.424-3.576 8-8 8zm56.568 120.568a7.978 7.978 0 0 1-5.656-2.344l-11.32-11.32c-3.128-3.128-3.128-8.184 0-11.312s8.184-3.128 11.312 0l11.32 11.32a7.991 7.991 0 0 1 0 11.312 7.945 7.945 0 0 1-5.656 2.344zM210.752 214.752a7.978 7.978 0 0 1-5.656-2.344l-11.312-11.312c-3.128-3.128-3.128-8.184 0-11.312s8.184-3.128 11.312 0l11.312 11.312a7.991 7.991 0 0 1 0 11.312 7.992 7.992 0 0 1-5.656 2.344zM232 260h-55.992c-4.424 0-8-3.576-8-8s3.576-8 8-8H232c4.424 0 8 3.576 8 8 0 4.424-3.576 8-8 8zm69.256-45.248a7.978 7.978 0 0 1-5.656-2.344 7.991 7.991 0 0 1 0-11.312l90.744-90.744c3.128-3.128 8.184-3.128 11.312 0s3.128 8.184 0 11.312l-90.744 90.744a7.978 7.978 0 0 1-5.656 2.344zM119.984 396a7.978 7.978 0 0 1-5.656-2.344 7.991 7.991 0 0 1 0-11.312l90.768-90.76c3.128-3.128 8.184-3.128 11.312 0s3.128 8.184 0 11.312l-90.768 90.76a7.978 7.978 0 0 1-5.656 2.344z" data-original="#000000" data-old_color="#115baa" fill="#115baa"/><path d="M119.984 396H8c-4.424 0-8-3.576-8-8s3.576-8 8-8h111.984c4.424 0 8 3.576 8 8s-3.576 8-8 8zM120 500H8c-4.424 0-8-3.576-8-8v-72c0-4.424 3.576-8 8-8h112c4.424 0 8 3.576 8 8v72c0 4.424-3.576 8-8 8zM16 484h96v-56H16v56z" data-original="#000000" data-old_color="#115baa" fill="#115baa"/><path d="M96 476H32c-4.424 0-8-3.576-8-8s3.576-8 8-8h64c4.424 0 8 3.576 8 8s-3.576 8-8 8z" data-original="#000000" data-old_color="#115baa" fill="#115baa"/><path d="M32 500c-4.424 0-8-3.576-8-8v-24c0-4.424 3.576-8 8-8s8 3.576 8 8v24c0 4.424-3.576 8-8 8zm64 0c-4.424 0-8-3.576-8-8v-24c0-4.424 3.576-8 8-8s8 3.576 8 8v24c0 4.424-3.576 8-8 8zm72-392H96c-4.424 0-8-3.576-8-8V28c0-4.424 3.576-8 8-8h72c4.424 0 8 3.576 8 8v72c0 4.424-3.576 8-8 8zm-64-16h56V36h-56v56zm-32 80H40c-4.424 0-8-3.576-8-8v-32c0-4.424 3.576-8 8-8h32c4.424 0 8 3.576 8 8v32c0 4.424-3.576 8-8 8zm-24-16h16v-16H48v16zm200-64h-24c-4.424 0-8-3.576-8-8V60c0-4.424 3.576-8 8-8h24c4.424 0 8 3.576 8 8v24c0 4.424-3.576 8-8 8zm-16-16h8v-8h-8v8zm184 408h-72c-4.424 0-8-3.576-8-8v-72c0-4.424 3.576-8 8-8h72c4.424 0 8 3.576 8 8v72c0 4.424-3.576 8-8 8zm-64-16h56v-56h-56v56zm120-88h-32c-4.424 0-8-3.576-8-8v-32c0-4.424 3.576-8 8-8h32c4.424 0 8 3.576 8 8v32c0 4.424-3.576 8-8 8zm-24-16h16v-16h-16v16zm-160 88h-24c-4.424 0-8-3.576-8-8v-24c0-4.424 3.576-8 8-8h24c4.424 0 8 3.576 8 8v24c0 4.424-3.576 8-8 8zm-16-16h8v-8h-8v8z" data-original="#000000" data-old_color="#115baa" fill="#115baa"/></svg>