<svg id="Group_19235" data-name="Group 19235" xmlns="http://www.w3.org/2000/svg" xmlns:xlink="http://www.w3.org/1999/xlink" width="167.208" height="41.01" viewBox="0 0 167.208 41.01">
  <defs>
    <clipPath id="clip-path">
      <rect id="Rectangle_17883" data-name="Rectangle 17883" width="167.208" height="41.01" fill="none"/>
    </clipPath>
  </defs>
  <g id="Group_18950" data-name="Group 18950" clip-path="url(#clip-path)">
    <path id="Path_72732" data-name="Path 72732" d="M30.283,161.166a29.97,29.97,0,0,1-6.859,3.276,16.728,16.728,0,0,1-4.944.722c-.415,0-.831-.015-1.254-.042a7.892,7.892,0,0,1-3.906-1.254l.092-.139c.117.008.234.017.349.022a7.682,7.682,0,0,0,3.488,1.037,16.807,16.807,0,0,0,6.078-.665,28.212,28.212,0,0,0,5.921-2.722s0,0,0,0q.474-.181.945-.376Z" transform="translate(-11.093 -134.099)" fill="#e9ad41"/>
    <path id="Path_72733" data-name="Path 72733" d="M150.134,68.03l-.109.127c-.119-.025-.237-.05-.356-.074a6.838,6.838,0,0,0-3.115-1.359c-3.694-.615-7.158.893-10.825,2.488l-1.082.468a7.645,7.645,0,0,0-.691.331q-.431.171-.861.353l-.105-.13a6.661,6.661,0,0,1,1.527-.861c.359-.154.719-.311,1.078-.467,3.714-1.617,7.222-3.142,11.012-2.513a7.2,7.2,0,0,1,3.526,1.637" transform="translate(-110.753 -55.171)" fill="#00bb9d"/>
    <path id="Path_72734" data-name="Path 72734" d="M586.428,51.751l-.365,1.56a.137.137,0,0,1-.147.117h-2.333a.074.074,0,0,1-.084-.084V31.566a.037.037,0,0,1,.042-.042H586.8a.037.037,0,0,1,.042.042v7.068a.051.051,0,0,0,.05.05.047.047,0,0,0,.03-.011,7.88,7.88,0,0,1,3.674-1.634,8.267,8.267,0,0,1,9.837,9.367,8.076,8.076,0,0,1-2.829,5.486,8.584,8.584,0,0,1-11.059-.179q-.092-.08-.119.038m10.7-6.4a5.27,5.27,0,1,0-5.27,5.27,5.27,5.27,0,0,0,5.27-5.27" transform="translate(-485.934 -26.253)" fill="#21353f"/>
    <path id="Path_72735" data-name="Path 72735" d="M39.272,39.461a7,7,0,0,0-3.444-1.6c-4.113-.684-7.993,1.249-12,2.968a6.458,6.458,0,0,0-1.486.838,36.312,36.312,0,0,0-3.3,1.806c-3.966,2.391-7.227,4.386-11,6.205-2.374,1.145-5.521,2.348-7.8.338a.22.22,0,0,1-.072-.137L0,48.406V45.751l.054-.383a.091.091,0,0,1,.11-.089,7.62,7.62,0,0,0,3.707-.95,41.136,41.136,0,0,0,4.372-2.418q4.083-2.6,7.391-4.653a61.761,61.761,0,0,1,6.232-3.4c3.745-1.771,8.133-2.884,12.113-1.323a6.737,6.737,0,0,1,2.894,2.149,20.131,20.131,0,0,1,2.751,4.849.048.048,0,0,1-.05.065q-.294-.033-.3-.137" transform="translate(0 -26.475)" fill="#00ccb0"/>
    <path id="Path_72736" data-name="Path 72736" d="M467.438,73.413a4.707,4.707,0,0,0,4.56,4.05,4.9,4.9,0,0,0,4.578-2.264.14.14,0,0,1,.127-.07l3.406,0a.033.033,0,0,1,.034.034.037.037,0,0,1,0,.013,8.167,8.167,0,0,1-8.13,5.429c-5.267-.167-8.66-4.812-7.86-9.915a8.115,8.115,0,0,1,4.8-6.307,8.783,8.783,0,0,1,6.441-.13,8.371,8.371,0,0,1,5.086,8.971.067.067,0,0,1-.074.065H467.54q-.127,0-.1.124m5.464-6.65a4.809,4.809,0,0,0-5.369,3.7q-.027.11.087.11h9.444q.107,0,.079-.1a4.77,4.77,0,0,0-4.24-3.705" transform="translate(-386.444 -53.053)" fill="#21353f"/>
    <path id="Path_72737" data-name="Path 72737" d="M914.253,71.285v1.752a8.579,8.579,0,0,1-1.46,3.993,8.862,8.862,0,0,1-9.88,3.169,8.133,8.133,0,0,1-5.65-6.03,8.418,8.418,0,0,1,4.036-9.41,9.152,9.152,0,0,1,10.835,1.652,8.256,8.256,0,0,1,2.119,4.874M905.7,66.891a5,5,0,0,0-5.1,3.963,5.224,5.224,0,1,0,5.1-3.963" transform="translate(-747.045 -53.041)" fill="#21353f"/>
    <path id="Path_72738" data-name="Path 72738" d="M327.766,76.767l3.612-10.706a.054.054,0,0,1,.05-.037h3.252a.053.053,0,0,1,.053.054.052.052,0,0,1,0,.016l-5.364,16.029a.054.054,0,0,1-.05.037h-2.64a.053.053,0,0,1-.048-.033l-4.063-9.6a.054.054,0,0,0-.1,0l-4.045,9.6a.054.054,0,0,1-.048.033l-2.642,0a.054.054,0,0,1-.05-.037l-5.364-16.027a.053.053,0,0,1,.034-.068l.016,0h3.346a.054.054,0,0,1,.05.037l3.558,10.619a.053.053,0,0,0,.1,0l4.531-10.461a.053.053,0,0,1,.048-.032l1.025,0a.053.053,0,0,1,.048.032l4.592,10.547a.054.054,0,0,0,.1-.005" transform="translate(-258.427 -54.984)" fill="#21353f"/>
    <path id="Path_72739" data-name="Path 72739" d="M717.608,80.049c-1.846,2.289-4.993,2.878-7.775,2.274a6.637,6.637,0,0,1-5.354-6.83q-.017-4.908.012-9.337a.124.124,0,0,1,.124-.124l3.135.01a.071.071,0,0,1,.07.07q0,4.593.007,9.061a4.787,4.787,0,0,0,.15,1.145,3.609,3.609,0,0,0,3.077,2.96,3.892,3.892,0,0,0,4.709-4.068q0-4.491,0-9.138a.049.049,0,0,1,.048-.048l3.246,0a.079.079,0,0,1,.089.089q.015,4.408-.008,9a7.581,7.581,0,0,1-1.53,4.939" transform="translate(-586.679 -54.984)" fill="#21353f"/>
    <path id="Path_72740" data-name="Path 72740" d="M816.2,69.157a.027.027,0,0,0-.01-.037.028.028,0,0,0-.012,0h-7.055a.042.042,0,0,1-.042-.042V66.109a.073.073,0,0,1,.082-.084l12.119,0a.079.079,0,0,1,.09.089,1.084,1.084,0,0,1-.08.614q-3.794,6.145-7.541,12.22c-.032.052-.018.079.044.079h7.534a.074.074,0,0,1,.084.084v3.01a.042.042,0,0,1-.042.042H808.543a.082.082,0,0,1-.089-.075.765.765,0,0,1,.1-.537q3.811-6.182,7.641-12.39" transform="translate(-673.265 -54.984)" fill="#21353f"/>
    <path id="Path_72741" data-name="Path 72741" d="M150.55,69c-.119-.025-.237-.05-.356-.074a21.654,21.654,0,0,0-6.143-.37,34.017,34.017,0,0,0-9.569,2.3q-.431.171-.861.353a6.41,6.41,0,0,1,1.486-.838c4.006-1.719,7.886-3.652,12-2.968A6.99,6.99,0,0,1,150.55,69" transform="translate(-111.278 -56.013)" fill="#00aa89"/>
    <path id="Path_72742" data-name="Path 72742" d="M12.351,119.756a7.7,7.7,0,0,0,3.826,1.226,16.892,16.892,0,0,0,6.138-.674,29.6,29.6,0,0,0,6.819-3.257l1.769-.908q.916-.472,1.751-.946c3.274-1.868,6.611-3.791,10.017-5.309a21.752,21.752,0,0,1,4.625-1.495,8,8,0,0,1,3.526.052.178.178,0,0,1,.134.154,18.521,18.521,0,0,1,.079,3.289.089.089,0,0,1-.1.092,6.655,6.655,0,0,0-2.752.767,30.277,30.277,0,0,0-3.092,1.786c-3.677,2.445-7.3,5.018-11.256,7.157a36.752,36.752,0,0,1-7.146,2.935,12.4,12.4,0,0,1-10.484-1.41,19.684,19.684,0,0,1-4.12-3.448q-.105-.114.05-.105a.269.269,0,0,1,.212.1" transform="translate(-10.031 -90.126)" fill="#fec144"/>
    <path id="Path_72743" data-name="Path 72743" d="M30.653,161.024a29.622,29.622,0,0,1-6.819,3.257,16.9,16.9,0,0,1-6.138.674,7.7,7.7,0,0,1-3.826-1.226c.117.008.234.017.349.022A36.311,36.311,0,0,0,29.706,161.4s0,0,0,0q.474-.181.945-.376" transform="translate(-11.551 -134.099)" fill="#d3993d"/>
    <path id="Path_72744" data-name="Path 72744" d="M795.252,195.079q-.005,1.14.01,2.062a.75.75,0,0,0,.846.757,2.97,2.97,0,0,1,.446,0,.034.034,0,0,1,.037.038v.413a.043.043,0,0,1-.042.042c-.707.025-1.281.048-1.647-.569a1.514,1.514,0,0,1-.16-.808q.02-1.02.008-1.961a.078.078,0,0,0-.089-.087h-1.749a.074.074,0,0,0-.084.084v3.281a.063.063,0,0,1-.062.062l-.4,0a.073.073,0,0,1-.084-.084v-3.261a.084.084,0,0,0-.084-.084l-.645,0a.055.055,0,0,1-.062-.062l-.005-.314a.084.084,0,0,1,.082-.085h.594q.144,0,.13-.142c-.11-1.252.684-1.51,1.711-1.391a.034.034,0,0,1,.033.037l0,.366c0,.028-.013.042-.04.042l-.607,0a.486.486,0,0,0-.507.378l-.11.363q-.109.361.246.353.744-.018,1.63,0a.086.086,0,0,0,.1-.1v-1a.037.037,0,0,1,.042-.042h.418a.037.037,0,0,1,.042.042v1a.075.075,0,0,0,.084.085l1.129,0a.073.073,0,0,1,.084.084v.293a.075.075,0,0,1-.084.084h-1.1a.1.1,0,0,0-.114.112" transform="translate(-659.146 -160.686)" fill="#374954"/>
    <path id="Path_72745" data-name="Path 72745" d="M681.144,195.851a2.092,2.092,0,0,1,2.806-.028,2.185,2.185,0,0,1,.381,2.518,2.049,2.049,0,0,1-3.254.418q-.085-.087-.094.035l-.033.413a.072.072,0,0,1-.082.075h-.284a.075.075,0,0,1-.084-.084v-5.1a.074.074,0,0,1,.085-.084l.418.005a.04.04,0,0,1,.04.04v1.751q0,.144.1.042m2.9,1.486a1.522,1.522,0,1,0-1.522,1.522,1.522,1.522,0,0,0,1.522-1.522" transform="translate(-566.715 -161.573)" fill="#374954"/>
    <path id="Path_72746" data-name="Path 72746" d="M909.785,194.024h.455a.045.045,0,0,1,.045.045v5.177a.045.045,0,0,1-.045.045h-.455a.045.045,0,0,1-.045-.045v-5.177a.045.045,0,0,1,.045-.045" transform="translate(-757.624 -161.582)" fill="#374954"/>
    <path id="Path_72747" data-name="Path 72747" d="M743.482,204.577c.047.537.632.739,1.172.7,1.05-.07,1.2-1.154.064-1.3-.674-.089-1.741-.227-1.687-1.172.057-1,1.14-1.214,1.943-1.038a1.162,1.162,0,0,1,.975,1.072c.005.035-.009.052-.043.052l-.418,0a.046.046,0,0,1-.045-.037c-.129-.764-1.14-.8-1.659-.477a.5.5,0,0,0,.224.925q.555.11,1.139.231a1.092,1.092,0,0,1,.171,2.1c-.9.334-2.282.149-2.348-1.062a.043.043,0,0,1,.049-.052l.406,0a.053.053,0,0,1,.059.054" transform="translate(-618.738 -167.983)" fill="#374954"/>
    <path id="Path_72748" data-name="Path 72748" d="M768.97,203.781a2.077,2.077,0,1,1-1.959-2.164A2.064,2.064,0,0,1,768.97,203.781Zm-.544-.118a1.53,1.53,0,1,0-1.53,1.53A1.53,1.53,0,0,0,768.426,203.663Z" transform="translate(-636.936 -167.902)" fill="#374954"/>
    <path id="Path_72749" data-name="Path 72749" d="M827.873,202.286l.007-.425a.07.07,0,0,1,.079-.079l.293,0a.074.074,0,0,1,.084.084v3.677a.111.111,0,0,1-.124.125l-.247,0a.082.082,0,0,1-.084-.079l-.018-.39q-.007-.142-.11-.045a2.065,2.065,0,0,1-3.234-.385,2.031,2.031,0,0,1,1.373-3.052,2.085,2.085,0,0,1,1.9.605.05.05,0,0,0,.071,0,.049.049,0,0,0,.014-.036m-.055,1.435a1.522,1.522,0,1,0-1.521,1.522,1.521,1.521,0,0,0,1.521-1.522" transform="translate(-686.417 -167.958)" fill="#374954"/>
    <path id="Path_72750" data-name="Path 72750" d="M855.133,202.748a1.524,1.524,0,0,0,1.2,2.481,1.435,1.435,0,0,0,1.281-.828.075.075,0,0,1,.074-.042l.471.008a.02.02,0,0,1,.02.019.017.017,0,0,1,0,.006,1.872,1.872,0,0,1-1.423,1.3,2.034,2.034,0,0,1-2.353-2.777,2.008,2.008,0,0,1,3.76.109c.006.016,0,.024-.018.025l-.456.018a.054.054,0,0,1-.048-.028,1.48,1.48,0,0,0-2.508-.294" transform="translate(-711.414 -167.946)" fill="#374954"/>
    <path id="Path_72751" data-name="Path 72751" d="M922.57,203.6a2.065,2.065,0,1,1-2.065-2.065A2.065,2.065,0,0,1,922.57,203.6Zm-.533,0a1.53,1.53,0,1,0-1.53,1.53A1.53,1.53,0,0,0,922.037,203.6Z" transform="translate(-764.869 -167.836)" fill="#374954"/>
    <path id="Path_72752" data-name="Path 72752" d="M974.258,204.6c.191.8,1.252.824,1.781.45.495-.349.15-.933-.343-1.027-.863-.162-2.154-.222-1.853-1.513a.939.939,0,0,1,.56-.63c.858-.359,2.2-.224,2.3.955a.041.041,0,0,1-.047.05h-.41a.04.04,0,0,1-.044-.037c-.124-.8-1.2-.8-1.69-.43-.436.329-.119.814.326.9q.569.1,1.107.224a.97.97,0,0,1,.8.7,1.143,1.143,0,0,1-.973,1.488c-.9.171-1.909-.064-2.045-1.119q-.012-.089.079-.09h.349a.11.11,0,0,1,.107.084" transform="translate(-810.908 -167.979)" fill="#374954"/>
    <path id="Path_72753" data-name="Path 72753" d="M708.627,205.22a.037.037,0,0,0,.048.018.034.034,0,0,0,.017-.018l1.318-2.923a.05.05,0,0,1,.05-.033l.51.007c.018,0,.023.008.015.023q-1.09,2.386-2.025,4.374a1.4,1.4,0,0,1-1.645.848.051.051,0,0,1-.049-.06l.013-.359a.034.034,0,0,1,.043-.037c.9.112,1.114-.43,1.416-1.082a.181.181,0,0,0,0-.161l-1.692-3.513a.023.023,0,0,1,.01-.032l.011,0,.5-.005a.078.078,0,0,1,.075.047Z" transform="translate(-588.486 -168.444)" fill="#374954"/>
    <path id="Path_72754" data-name="Path 72754" d="M885.024,205.063a1.173,1.173,0,0,0,.1-.38q0-1.206,0-2.369a.036.036,0,0,1,.04-.04l.455,0a.039.039,0,0,1,.044.043q.012,1.211,0,2.366a1.531,1.531,0,0,1-1.147,1.495,1.688,1.688,0,0,1-2.272-1.719q0-1.047,0-2.142a.039.039,0,0,1,.044-.043h.453a.033.033,0,0,1,.037.035q.033.761,0,1.711a2.22,2.22,0,0,0,.2,1.172,1.166,1.166,0,0,0,2.052-.13" transform="translate(-734.722 -168.452)" fill="#374954"/>
    <path id="Path_72755" data-name="Path 72755" d="M948.788,204.632a1.165,1.165,0,0,0,2.139.587,1.73,1.73,0,0,0,.207-.987q-.03-.95,0-1.92a.039.039,0,0,1,.04-.038l.45,0a.037.037,0,0,1,.042.042q.032,1.96-.01,2.5a1.715,1.715,0,0,1-3.409-.232q-.01-1.147,0-2.257a.043.043,0,0,1,.048-.048h.445a.044.044,0,0,1,.05.05q-.008,1.227,0,2.306" transform="translate(-789.684 -168.452)" fill="#374954"/>
    <path id="Path_72756" data-name="Path 72756" d="M639.305,209.274h3.735a.055.055,0,0,1,.055.055v.475a.055.055,0,0,1-.055.055h-3.735a.055.055,0,0,1-.055-.055v-.475a.055.055,0,0,1,.055-.055" transform="translate(-532.362 -174.282)" fill="#374954"/>
    <path id="Path_72757" data-name="Path 72757" d="M18.564,7.118a56.283,56.283,0,0,1-6.8,4.618,22.555,22.555,0,0,1-5.195,2.087C10.314,2.055,24.846-3.66,35.852,2.523h-.933a32.171,32.171,0,0,0-9.158,1.02,29.417,29.417,0,0,0-7.2,3.574" transform="translate(-5.468 0)" fill="#fd7171"/>
    <path id="Path_72758" data-name="Path 72758" d="M78.32,18.737a17.221,17.221,0,0,1,5.192-3.106A25.031,25.031,0,0,1,94.3,13.982a1.164,1.164,0,0,1,.372.161c-2.256.4-4.526.719-6.758,1.251a49.133,49.133,0,0,0-9.6,3.344" transform="translate(-65.224 -11.619)" fill="#d25f5f"/>
    <path id="Path_72759" data-name="Path 72759" d="M86.844,160a21.35,21.35,0,0,0-3.984,2.157c-3.613,2.295-6.9,5.1-10.818,6.916a16.592,16.592,0,0,1-9.931,2.452,9.052,9.052,0,0,1-2.827-.414l-.02,0a.541.541,0,0,1-.106.021.064.064,0,0,1-.033-.007.07.07,0,0,1-.027.007c-.277,0-.549-.065-.825-.077-.135-.006-.272-.007-.407,0l-.125.028a20.824,20.824,0,0,0,9.279,2.932l.84,0,1.205.007,1-.01a20.479,20.479,0,0,0,18.068-14.282,2.573,2.573,0,0,0-1.294.282" transform="translate(-48.085 -132.999)" fill="#5643c1"/>
    <path id="Path_72760" data-name="Path 72760" d="M65.184,217.773l-.05,0a.513.513,0,0,1-.077.013.063.063,0,0,1-.025,0h-.017a.078.078,0,0,1-.018,0h-.006a.2.2,0,0,0-.056.02c-.241.132-.027.129.053.142a29.165,29.165,0,0,0,2.969.485,16.549,16.549,0,0,0,9.146-2c.3-.163.79-.2.839-.7a32.326,32.326,0,0,1-12.758,2.038" transform="translate(-53.985 -179.662)" fill="#453ba3"/>
  </g>
</svg>
