<svg xmlns="http://www.w3.org/2000/svg" width="79.999" height="80" viewBox="0 0 79.999 80">
  <g id="Group_166210" data-name="Group 166210" transform="translate(0)">
    <path id="Path_237991" data-name="Path 237991" d="M104.3,33.9a5.683,5.683,0,0,0,1.706-.683,15.337,15.337,0,0,1,3.618-1.618l3.18,14.241,14.241-3.18a15.331,15.331,0,0,0-1.618-3.618,5.692,5.692,0,1,1,10.538-2.4,16.451,16.451,0,0,0,.079,4.006l14.232-3.178L147.1,23.24a16.46,16.46,0,0,1,4.006-.079,5.692,5.692,0,1,0-2.4-10.538,15.337,15.337,0,0,1-3.618,1.618L141.908,0,127.667,3.18A15.33,15.33,0,0,0,129.285,6.8a5.692,5.692,0,1,1-10.538,2.4,16.452,16.452,0,0,0-.079-4.006L104.436,8.367,107.614,22.6a16.46,16.46,0,0,1-4.006.079A5.692,5.692,0,1,0,104.3,33.9Z" transform="translate(-82.155)" fill="#fcbf29"/>
    <path id="Path_237992" data-name="Path 237992" d="M281.8,30.54a5.7,5.7,0,0,1,6.907,6.1,16.451,16.451,0,0,0,.079,4.006l14.232-3.178L299.838,23.24a16.46,16.46,0,0,1,4.006-.079,5.692,5.692,0,1,0-2.4-10.538,15.337,15.337,0,0,1-3.618,1.618L294.649,0,280.408,3.18A15.33,15.33,0,0,0,282.026,6.8a5.7,5.7,0,0,1-3.631,8.5Z" transform="translate(-234.896)" fill="#fe9923"/>
    <path id="Path_237993" data-name="Path 237993" d="M152.124,188.364l-17.555,17.555a14.318,14.318,0,0,1-10.191,4.222H105.3l-6.1,6.1L87.253,204.286l14.5-14.5a14.318,14.318,0,0,1,10.191-4.221H126.1a5.1,5.1,0,0,1,5.1,5.291,5.22,5.22,0,0,1-5.242,4.917h-14.2v1.619h14.2a6.945,6.945,0,0,0,5.723-3.04l.012.012,13.117-13.117a5.22,5.22,0,0,1,7.184-.23,5.1,5.1,0,0,1,.134,7.348Z" transform="translate(-73.62 -151.617)" fill="#fedbab"/>
    <path id="Path_237994" data-name="Path 237994" d="M0,0H29.51V16.147H0Z" transform="matrix(-0.707, -0.707, 0.707, -0.707, 20.867, 80)" fill="#159ce4"/>
    <path id="Path_237995" data-name="Path 237995" d="M0,0H15.273V16.147H0Z" transform="matrix(-0.707, -0.707, 0.707, -0.707, 20.866, 79.998)" fill="#0d70b2"/>
    <circle id="Ellipse_459" data-name="Ellipse 459" cx="2.397" cy="2.397" r="2.397" transform="translate(20.515 68.229)" fill="#fff"/>
  </g>
</svg>
