<svg xmlns="http://www.w3.org/2000/svg" width="73.1" height="80" viewBox="0 0 73.1 80">
  <g id="Group_166208" data-name="Group 166208" transform="translate(-20.01)">
    <path id="Path_237976" data-name="Path 237976" d="M93.11,5.517V59.308a5.518,5.518,0,0,1-5.517,5.517H25.527a5.518,5.518,0,0,1-5.517-5.517V5.517A5.518,5.518,0,0,1,25.527,0H87.593A5.518,5.518,0,0,1,93.11,5.517Z" transform="translate(0)" fill="#cbe3fa"/>
    <path id="Path_237977" data-name="Path 237977" d="M93.11,5.517V6.9H32.423a5.515,5.515,0,0,0-5.514,5.345c0,.144,0,25.487,0,40.192,0,4.493-6.9,4.722-6.9-.022V5.517A5.517,5.517,0,0,1,25.527,0H87.593A5.517,5.517,0,0,1,93.11,5.517Z" transform="translate(0)" fill="#eef7ff"/>
    <path id="Path_237978" data-name="Path 237978" d="M93.11,5.517v6.724H20.01V5.517A5.518,5.518,0,0,1,25.527,0H87.593A5.518,5.518,0,0,1,93.11,5.517Z" transform="translate(0)" fill="#42434d"/>
    <path id="Path_237979" data-name="Path 237979" d="M82.442,6.9H32.423a5.515,5.515,0,0,0-5.514,5.345h-6.9V5.517A5.517,5.517,0,0,1,25.527,0H82.421C87.163,0,86.936,6.9,82.442,6.9Z" fill="#585966"/>
    <path id="Path_237980" data-name="Path 237980" d="M74.079,30.759h-.69a1.379,1.379,0,0,1,0-2.759h.69a1.379,1.379,0,0,1,0,2.759Z" transform="translate(-43.035 -23.173)" fill="#fe4f60"/>
    <path id="Path_237981" data-name="Path 237981" d="M124.079,30.759h-.69a1.379,1.379,0,0,1,0-2.759h.69a1.379,1.379,0,0,1,0,2.759Z" transform="translate(-84.415 -23.173)" fill="#ffe773"/>
    <path id="Path_237982" data-name="Path 237982" d="M174.079,30.759h-.69a1.379,1.379,0,1,1,0-2.759h.69a1.379,1.379,0,1,1,0,2.759Z" transform="translate(-125.794 -23.173)" fill="#befa91"/>
    <g id="Group_166207" data-name="Group 166207" transform="translate(26.561 19.827)">
      <path id="Path_237983" data-name="Path 237983" d="M62.665,127.413H59.389a1.379,1.379,0,0,1-1.379-1.379v-9.655A1.379,1.379,0,0,1,59.389,115h3.276a5.005,5.005,0,0,1,5,5v2.414A5.005,5.005,0,0,1,62.665,127.413Zm-1.9-2.758h1.9a2.244,2.244,0,0,0,2.241-2.241V120a2.244,2.244,0,0,0-2.241-2.241h-1.9Zm14.31,2.758H71.8a1.379,1.379,0,0,1-1.379-1.379v-9.655A1.379,1.379,0,0,1,71.8,115h3.276a5.005,5.005,0,0,1,5,5v2.414A5.005,5.005,0,0,1,75.078,127.413Zm-1.9-2.758h1.9a2.244,2.244,0,0,0,2.241-2.241V120a2.244,2.244,0,0,0-2.241-2.241h-1.9Zm14.31,2.758a4.833,4.833,0,0,1-4.827-4.827v-2.758a4.827,4.827,0,1,1,9.655,0v2.758A4.833,4.833,0,0,1,87.491,127.413Zm0-9.655a2.071,2.071,0,0,0-2.069,2.069v2.758a2.069,2.069,0,1,0,4.138,0v-2.758A2.071,2.071,0,0,0,87.491,117.758Zm13.805,9.655H98.181a3.107,3.107,0,0,1-3.1-3.1,1.379,1.379,0,0,1,2.759,0,.345.345,0,0,0,.345.345H101.3a.677.677,0,0,0,.251-1.305l-4.311-1.725A3.435,3.435,0,0,1,98.513,115h3.116a3.107,3.107,0,0,1,3.1,3.1,1.379,1.379,0,0,1-2.758,0,.345.345,0,0,0-.345-.345H98.513a.677.677,0,0,0-.252,1.305l4.312,1.725a3.435,3.435,0,0,1-1.276,6.625Z" transform="translate(-58.01 -115)" fill="#ff6d7a"/>
    </g>
    <path id="Path_237984" data-name="Path 237984" d="M198.843,245.617a2.659,2.659,0,0,1,0,3.757l-3.731,3.729L184.02,242.011l3.729-3.731a2.659,2.659,0,0,1,3.757,0Z" transform="translate(-135.734 -196.556)" fill="#585966"/>
    <path id="Path_237985" data-name="Path 237985" d="M256.087,247.431c-5.276,0-7.508-5.672-10.635-1.882a1.379,1.379,0,0,1-2.128-1.756,6.067,6.067,0,0,1,3.349-2.192c5.193-1.159,7.325,6.362,13.57,1.308a1.379,1.379,0,1,1,1.735,2.144A9.406,9.406,0,0,1,256.087,247.431Z" transform="translate(-184.552 -199.845)" fill="#eef7ff"/>
    <path id="Path_237986" data-name="Path 237986" d="M332.389,215.242a1.381,1.381,0,0,1-.975-2.355l1.724-1.724a1.379,1.379,0,1,1,1.951,1.95l-1.724,1.724A1.374,1.374,0,0,1,332.389,215.242Zm-6.034-.517a1.375,1.375,0,0,1-.975-.4l-1.465-1.465a1.379,1.379,0,1,1,1.951-1.95l1.465,1.465a1.381,1.381,0,0,1-.975,2.354Zm8.189,8.189a1.375,1.375,0,0,1-.975-.4l-1.465-1.465a1.379,1.379,0,1,1,1.951-1.95l1.465,1.465A1.381,1.381,0,0,1,334.544,222.914Z" transform="translate(-251.175 -174.209)" fill="#ff6d7a"/>
    <path id="Path_237987" data-name="Path 237987" d="M196.647,247.9l-4.8-4.8a2.659,2.659,0,0,0-3.757,0l-1.488,1.49-2.586-2.586,3.729-3.731a2.659,2.659,0,0,1,3.757,0l7.338,7.338A1.586,1.586,0,1,1,196.647,247.9Z" transform="translate(-135.734 -196.556)" fill="#6e6f80"/>
    <path id="Path_237988" data-name="Path 237988" d="M65.834,292.643a17.845,17.845,0,1,1,16.882-23.633A17.844,17.844,0,0,1,65.834,292.643Z" transform="translate(-23.156 -212.643)" fill="#585966"/>
    <path id="Path_237989" data-name="Path 237989" d="M71.058,264.111a18.39,18.39,0,0,0-15.889,15.938,3.179,3.179,0,0,1-6.152.729,17.855,17.855,0,0,1,22.607-22.86A3.178,3.178,0,0,1,71.058,264.111Z" transform="translate(-23.156 -212.644)" fill="#6e6f80"/>
    <path id="Path_237990" data-name="Path 237990" d="M86,302.826a1.38,1.38,0,0,1-1.344-1.7,11.8,11.8,0,0,1,4.712-6.948,1.379,1.379,0,1,1,1.586,2.257,9.041,9.041,0,0,0-3.612,5.324A1.38,1.38,0,0,1,86,302.826Zm9.809-8.02a1.379,1.379,0,1,1-.044-2.758q.191-.006.383-.006a1.379,1.379,0,0,1,0,2.759C96,294.8,95.813,294.806,95.809,294.806Z" transform="translate(-53.47 -241.692)" fill="#fff"/>
  </g>
</svg>
