<svg id="Group_165700" data-name="Group 165700" xmlns="http://www.w3.org/2000/svg" width="22" height="14.147" viewBox="0 0 22 14.147">
  <path id="Path_237541" data-name="Path 237541" d="M3.733,94.126,7.4,97.792a5.735,5.735,0,0,1,2.956-1.224V91.38A10.9,10.9,0,0,0,3.733,94.126Zm-.911.911A10.937,10.937,0,0,0,0,102.3a.644.644,0,0,0,.645.645h3.91A.644.644,0,0,0,5.2,102.3a5.742,5.742,0,0,1,1.289-3.6ZM15.98,97.265a.642.642,0,0,0-.772-.059l-5.594,3.568a2.578,2.578,0,1,0,3.723,3.262l2.8-6.015A.645.645,0,0,0,15.98,97.265Zm3.2-2.227-1.894,1.894a1.925,1.925,0,0,1,.024,1.634l-.848,1.82A5.593,5.593,0,0,1,16.8,102.3a.644.644,0,0,0,.645.645h3.91A.644.644,0,0,0,22,102.3,10.937,10.937,0,0,0,19.178,95.038ZM11.645,91.38v5.189a5.779,5.779,0,0,1,1.545.4l1.326-.846a1.839,1.839,0,0,1,1.856-.1l1.895-1.895A10.9,10.9,0,0,0,11.645,91.38Z" transform="translate(0 -91.38)" fill="#fafdff"/>
</svg>
