<svg id="Group_166204" data-name="Group 166204" xmlns="http://www.w3.org/2000/svg" width="80" height="80" viewBox="0 0 80 80">
  <path id="Path_237944" data-name="Path 237944" d="M97.737,191.8a1.172,1.172,0,0,1-1.172-1.172V175.454a1.172,1.172,0,0,1,2.344,0v15.174A1.172,1.172,0,0,1,97.737,191.8Zm47.48,0a1.172,1.172,0,0,1-1.172-1.172V175.454a1.172,1.172,0,0,1,2.344,0v15.174A1.172,1.172,0,0,1,145.216,191.8Z" transform="translate(-81.477 -147.05)" fill="#ffd15b"/>
  <path id="Path_237945" data-name="Path 237945" d="M145.216,176.626H97.737a1.172,1.172,0,1,1,0-2.344h47.479a1.172,1.172,0,0,1,0,2.344Z" transform="translate(-81.477 -147.05)" fill="#ffd15b"/>
  <path id="Path_237946" data-name="Path 237946" d="M157.881,19.187H121.264a3.252,3.252,0,0,1-3.252-3.252V3.252A3.252,3.252,0,0,1,121.264,0h36.617a3.252,3.252,0,0,1,3.252,3.252V15.935A3.252,3.252,0,0,1,157.881,19.187Z" transform="translate(-99.573)" fill="#fd8087"/>
  <path id="Path_237947" data-name="Path 237947" d="M345.077,0h-5.2a3.252,3.252,0,0,1,3.252,3.252V15.935a3.252,3.252,0,0,1-3.252,3.252h5.2a3.252,3.252,0,0,0,3.252-3.252V3.252A3.252,3.252,0,0,0,345.077,0Z" transform="translate(-286.769)" fill="#fe646f"/>
  <circle id="Ellipse_453" data-name="Ellipse 453" cx="3.902" cy="3.902" r="3.902" transform="translate(12.358 24.501)" fill="#ffe177"/>
  <circle id="Ellipse_454" data-name="Ellipse 454" cx="3.902" cy="3.902" r="3.902" transform="translate(59.837 24.501)" fill="#ffe177"/>
  <g id="Group_166203" data-name="Group 166203" transform="translate(22.471 4.031)">
    <path id="Path_237948" data-name="Path 237948" d="M159.414,26.682a1.366,1.366,0,0,0-1.28-.881h0a1.366,1.366,0,0,0-1.267.852l-.011.027-3.3,8.657a1.172,1.172,0,0,0,2.19.834l.534-1.4h3.68l.528,1.4a1.172,1.172,0,1,0,2.193-.827Zm-2.24,5.743.956-2.509.947,2.509ZM150.9,29.255A3.524,3.524,0,0,0,147.32,25.8h-2.336a1.172,1.172,0,0,0-1.172,1.172v8.78a1.172,1.172,0,0,0,2.344,0V33.465l2.7,3.063a1.172,1.172,0,1,0,1.759-1.548l-2.156-2.449a3.473,3.473,0,0,0,2.448-3.275Zm-3.583,1.11-1.164,0V28.145h1.164a1.117,1.117,0,1,1,0,2.22ZM174.153,25.8h-2.487a1.172,1.172,0,0,0-1.172,1.172v8.78a1.172,1.172,0,0,0,1.172,1.172h2.56c2.692,0,4.645-2.339,4.645-5.562,0-3.327-1.9-5.562-4.718-5.562Zm.073,8.78h-1.388V28.145h1.315c2.2,0,2.374,2.463,2.374,3.218C176.527,32.913,175.807,34.581,174.226,34.581Zm-7.6-8.78a1.172,1.172,0,0,0-1.172,1.172v8.78a1.172,1.172,0,0,0,2.344,0v-8.78a1.172,1.172,0,0,0-1.172-1.172Z" transform="translate(-143.812 -25.801)" fill="#eaf6ff"/>
  </g>
  <path id="Path_237949" data-name="Path 237949" d="M20.226,408.047l1.182-.127,3.129-.83,3.74-2.992v-7.712l-3.74-2.992-3.129-.83-1.182-.127h-.714L14.139,388.8,7.8,392.437a7.8,7.8,0,1,0,0,15.609H20.226Z" transform="translate(0 -328.047)" fill="#e2dee2"/>
  <path id="Path_237950" data-name="Path 237950" d="M20.226,327.806l1.182-.127,3.129-.83,3.74-2.992v-7.712l-3.74-2.992-3.129-.83-1.182-.127H7.8a7.8,7.8,0,1,0,0,15.609H20.226Z" transform="translate(0 -263.416)" fill="#e2dee2"/>
  <circle id="Ellipse_455" data-name="Ellipse 455" cx="2.602" cy="2.602" r="2.602" transform="translate(5.203 53.984)" fill="#fd8087"/>
  <circle id="Ellipse_456" data-name="Ellipse 456" cx="2.602" cy="2.602" r="2.602" transform="translate(5.203 68.943)" fill="#fd8087"/>
  <path id="Path_237951" data-name="Path 237951" d="M44.648,327.8a7.8,7.8,0,0,0,7.8-7.938A7.888,7.888,0,0,0,44.52,312.2H39.445a7.8,7.8,0,0,1,5.593,13.246,4,4,0,0,1-2.87,1.191H23.624a7.766,7.766,0,0,0,4.114,1.172,7.766,7.766,0,0,0-4.111,1.171H42.167a4,4,0,0,1,2.87,1.19,7.8,7.8,0,0,1-5.591,13.248H44.52a7.888,7.888,0,0,0,7.932-7.672,7.805,7.805,0,0,0-7.8-7.938Z" transform="translate(-19.933 -263.415)" fill="#cbc4cc"/>
  <path id="Path_237952" data-name="Path 237952" d="M105.281,356.99H93.574a1.172,1.172,0,0,1,0-2.344h11.707a1.172,1.172,0,0,1,0,2.344Zm0,14.959H93.574a1.172,1.172,0,0,1,0-2.344h11.707a1.172,1.172,0,0,1,0,2.344Z" transform="translate(-77.964 -299.233)" fill="#918291"/>
  <path id="Path_237953" data-name="Path 237953" d="M324.1,408.047l1.182-.127,3.129-.83,3.74-2.992v-7.712l-3.74-2.992-3.129-.83-1.182-.127h-.714l-5.374-3.641-6.334,3.641a7.8,7.8,0,1,0,0,15.61H324.1Z" transform="translate(-256.39 -328.047)" fill="#e2dee2"/>
  <path id="Path_237954" data-name="Path 237954" d="M324.1,327.806l1.182-.127,3.129-.83,3.74-2.992v-7.712l-3.74-2.992-3.129-.83L324.1,312.2H311.675a7.8,7.8,0,1,0,0,15.61H324.1Z" transform="translate(-256.39 -263.416)" fill="#e2dee2"/>
  <circle id="Ellipse_457" data-name="Ellipse 457" cx="2.602" cy="2.602" r="2.602" transform="translate(52.683 53.984)" fill="#fd8087"/>
  <circle id="Ellipse_458" data-name="Ellipse 458" cx="2.602" cy="2.602" r="2.602" transform="translate(52.683 68.943)" fill="#fd8087"/>
  <path id="Path_237955" data-name="Path 237955" d="M348.518,327.8a7.8,7.8,0,0,0,7.8-7.938,7.888,7.888,0,0,0-7.932-7.672h-5.075a7.8,7.8,0,0,1,5.593,13.246,4,4,0,0,1-2.87,1.191H327.494a7.766,7.766,0,0,0,4.114,1.172,7.766,7.766,0,0,0-4.111,1.171h18.541a4,4,0,0,1,2.87,1.19,7.8,7.8,0,0,1-5.591,13.248h5.075a7.888,7.888,0,0,0,7.932-7.672A7.805,7.805,0,0,0,348.518,327.8Z" transform="translate(-276.323 -263.415)" fill="#cbc4cc"/>
  <path id="Path_237956" data-name="Path 237956" d="M409.151,356.99H397.444a1.172,1.172,0,1,1,0-2.344h11.707a1.172,1.172,0,0,1,0,2.344Zm0,14.959H397.444a1.172,1.172,0,1,1,0-2.344h11.707a1.172,1.172,0,0,1,0,2.344Z" transform="translate(-334.355 -299.233)" fill="#918291"/>
</svg>
