<svg xmlns="http://www.w3.org/2000/svg" width="79.056" height="79.098" viewBox="0 0 79.056 79.098">
  <g id="Group_166217" data-name="Group 166217" transform="translate(0 0.001)">
    <path id="Path_238008" data-name="Path 238008" d="M184.2,417.414h25.109v12.261H184.2Zm0,0" transform="translate(-155.746 -352.93)" fill="#304c56"/>
    <path id="Path_238009" data-name="Path 238009" d="M67.5,43.73H11.567A11.563,11.563,0,0,0,0,55.294V93.517A11.563,11.563,0,0,0,11.567,105.08H67.5A11.563,11.563,0,0,0,79.06,93.517V55.294A11.564,11.564,0,0,0,67.5,43.73Zm0,0" transform="translate(-0.003 -36.975)" fill="#4b6570"/>
    <path id="Path_238010" data-name="Path 238010" d="M15.553,105.081h-3.99A11.564,11.564,0,0,1,0,93.517V55.293A11.563,11.563,0,0,1,11.563,43.73h3.99A11.563,11.563,0,0,0,3.99,55.293V93.517a11.564,11.564,0,0,0,11.563,11.563Zm0,0" transform="translate(0 -36.975)" fill="#304c56"/>
    <path id="Path_238011" data-name="Path 238011" d="M187.626,479.93H158.191a2.191,2.191,0,0,1-1.046-4.116l3.209-1.744h25.109l3.21,1.744a2.191,2.191,0,0,1-1.046,4.116Zm0,0" transform="translate(-131.897 -400.833)" fill="#4b6570"/>
    <path id="Path_238012" data-name="Path 238012" d="M31.324,113.391V81.311a6.244,6.244,0,0,1,6.244-6.244H94.455a6.244,6.244,0,0,1,6.244,6.244v32.081a6.244,6.244,0,0,1-6.244,6.244H37.568a6.244,6.244,0,0,1-6.244-6.244Zm0,0" transform="translate(-26.485 -63.471)" fill="#efe1f9"/>
    <path id="Path_238013" data-name="Path 238013" d="M87.834,114.22H30.947a7.462,7.462,0,0,1-7.454-7.454V74.686a7.463,7.463,0,0,1,7.454-7.455H87.834a7.463,7.463,0,0,1,7.454,7.455v32.081a7.463,7.463,0,0,1-7.454,7.454ZM30.947,69.651a5.04,5.04,0,0,0-5.034,5.034v32.081a5.04,5.04,0,0,0,5.034,5.034H87.834a5.04,5.04,0,0,0,5.034-5.034V74.686a5.041,5.041,0,0,0-5.034-5.035Zm0,0" transform="translate(-19.864 -56.846)" fill="#304c56"/>
    <path id="Path_238014" data-name="Path 238014" d="M172.006,18.061c-.593-24.083-36.876-24.083-37.469,0q-.01.4-.01.809a32.228,32.228,0,0,0,18.744,29.276A32.228,32.228,0,0,0,172.016,18.87Q172.016,18.464,172.006,18.061Zm0,0" transform="translate(-113.744)" fill="#ff557e"/>
    <path id="Path_238015" data-name="Path 238015" d="M195.284,46.172a13.543,13.543,0,1,1-13.543-13.543,13.543,13.543,0,0,1,13.543,13.543Zm0,0" transform="translate(-142.214 -27.589)" fill="#fff"/>
    <g id="Group_166216" data-name="Group 166216" transform="translate(34.41 11.815)">
      <path id="Path_238016" data-name="Path 238016" d="M224.833,76.664a2.08,2.08,0,0,0-1.693,0,.641.641,0,0,0-.4.614V89.206a.666.666,0,0,0,.4.614,1.909,1.909,0,0,0,1.7,0,.665.665,0,0,0,.409-.614V77.279a.641.641,0,0,0-.412-.615Zm11.041,2.078a3.416,3.416,0,0,0-.907-1.307,3.54,3.54,0,0,0-1.344-.728,5.88,5.88,0,0,0-1.65-.223h-3.688a1,1,0,0,0-.7.237.738.738,0,0,0-.258.558V89.206a.666.666,0,0,0,.4.614,1.909,1.909,0,0,0,1.7,0,.664.664,0,0,0,.408-.614v-4.2h2a6.1,6.1,0,0,0,1.7-.232,3.794,3.794,0,0,0,1.4-.737,3.4,3.4,0,0,0,.935-1.307,5.078,5.078,0,0,0,.335-1.951v-.11a5.153,5.153,0,0,0-.325-1.931Zm-2.182,2v.22a2.129,2.129,0,0,1-.5,1.553,1.858,1.858,0,0,1-1.37.5h-1.994V78.7h1.994a1.861,1.861,0,0,1,1.37.5,2.131,2.131,0,0,1,.5,1.554Zm0,0" transform="translate(-222.738 -76.484)" fill="#617ed1"/>
    </g>
  </g>
</svg>
