<svg xmlns="http://www.w3.org/2000/svg" width="15.47" height="24" viewBox="0 0 15.47 24">
  <g id="Group_165702" data-name="Group 165702" transform="translate(0.001 0)">
    <path id="Path_237542" data-name="Path 237542" d="M22.031,166.969c-3.387,0-7.031-.88-7.031-2.812,0-1,1.008-1.816,2.855-2.316a.558.558,0,0,1,.692.419l.062.285a.558.558,0,0,1-.4.657c-1.456.4-1.8.874-1.8.955,0,.361,1.934,1.406,5.625,1.406s5.625-1.045,5.625-1.406c0-.08-.348-.56-1.8-.955a.558.558,0,0,1-.4-.657l.062-.285a.558.558,0,0,1,.692-.419c1.847.5,2.855,1.313,2.855,2.316,0,1.932-3.645,2.813-7.031,2.813" transform="translate(-14.297 -142.969)" fill="#fafdff"/>
    <path id="Subtraction_3" data-name="Subtraction 3" d="M8715.734,1090.2h0l-6.039-7.637a7.734,7.734,0,1,1,12.08,0l-6.039,7.637Zm0-16.422a3.25,3.25,0,1,0,3.251,3.251A3.254,3.254,0,0,0,8715.734,1073.781Z" transform="translate(-8708 -1070)" fill="#fafdff"/>
  </g>
</svg>
