<svg xmlns="http://www.w3.org/2000/svg" width="70" height="85.722" viewBox="0 0 70 85.722">
  <g id="Group_166193" data-name="Group 166193" transform="translate(-15.583 -17.525)">
    <path id="Path_237832" data-name="Path 237832" d="M83,56.6V70.8a4.418,4.418,0,0,1-4.418,4.418H17.422A4.417,4.417,0,0,1,13,70.8V56.6a4.418,4.418,0,0,1,4.418-4.418H78.583A4.417,4.417,0,0,1,83,56.6Z" transform="translate(2.579 28.027)" fill="#435e88"/>
    <path id="Path_237833" data-name="Path 237833" d="M81.227,56.6V70.8a4.414,4.414,0,0,1-4.412,4.421H15.658L76.815,52.176A4.414,4.414,0,0,1,81.227,56.6Z" transform="translate(4.349 28.025)" fill="#33527d"/>
    <path id="Path_237834" data-name="Path 237834" d="M83,42.774V56.98A4.418,4.418,0,0,1,78.586,61.4H17.422A4.418,4.418,0,0,1,13,56.98V42.774a4.418,4.418,0,0,1,4.418-4.418H78.583A4.417,4.417,0,0,1,83,42.774Z" transform="translate(2.579 18.808)" fill="#435e88"/>
    <path id="Path_237835" data-name="Path 237835" d="M81.227,42.778v14.2A4.414,4.414,0,0,1,76.815,61.4H15.658L76.815,38.355a4.414,4.414,0,0,1,4.412,4.423Z" transform="translate(4.349 18.807)" fill="#33527d"/>
    <path id="Path_237836" data-name="Path 237836" d="M25.864,60.805a4.274,4.274,0,1,1-4.268-4.28,4.274,4.274,0,0,1,4.268,4.28Z" transform="translate(5.455 30.926)" fill="#ffd80c"/>
    <path id="Path_237837" data-name="Path 237837" d="M24.111,63.324a4.278,4.278,0,0,1-6.044,0l6.044-6.044A4.269,4.269,0,0,1,24.111,63.324Z" transform="translate(5.956 31.43)" fill="#ffa300"/>
    <path id="Path_237838" data-name="Path 237838" d="M30.1,60.074A2.45,2.45,0,1,1,27.65,57.62,2.45,2.45,0,0,1,30.1,60.074Z" transform="translate(10.711 31.656)" fill="#4cc66e"/>
    <path id="Path_237839" data-name="Path 237839" d="M29.093,61.516a2.454,2.454,0,0,1-3.466,0l3.466-3.464a2.447,2.447,0,0,1,0,3.466Z" transform="translate(10.998 31.945)" fill="#14a142"/>
    <path id="Path_237840" data-name="Path 237840" d="M34.639,60.074a2.45,2.45,0,1,1-2.447-2.454A2.45,2.45,0,0,1,34.639,60.074Z" transform="translate(13.74 31.656)" fill="#c175ff"/>
    <path id="Path_237841" data-name="Path 237841" d="M33.633,61.516a2.454,2.454,0,0,1-3.464,0l3.464-3.464a2.447,2.447,0,0,1,0,3.466Z" transform="translate(14.028 31.945)" fill="#b244f1"/>
    <path id="Path_237842" data-name="Path 237842" d="M60.495,59.831a1.855,1.855,0,0,1-1.85,1.85h-20.6a1.851,1.851,0,0,1,0-3.7H58.641a1.851,1.851,0,0,1,1.852,1.85Z" transform="translate(18.049 31.896)" fill="#079cff"/>
    <path id="Path_237843" data-name="Path 237843" d="M46.928,61.683H38.04a1.858,1.858,0,0,1-1.3-3.167,1.884,1.884,0,0,1,1.3-.54h8.887a1.925,1.925,0,0,0-1.314.54,1.855,1.855,0,0,0,1.314,3.167Z" transform="translate(18.051 31.894)" fill="#5cbeff"/>
    <path id="Path_237844" data-name="Path 237844" d="M25.864,46.974a4.274,4.274,0,1,1-4.268-4.28,4.274,4.274,0,0,1,4.268,4.28Z" transform="translate(5.455 21.701)" fill="#ffd80c"/>
    <path id="Path_237845" data-name="Path 237845" d="M24.111,49.493a4.278,4.278,0,0,1-6.044,0l6.044-6.044A4.269,4.269,0,0,1,24.111,49.493Z" transform="translate(5.956 22.205)" fill="#ffa300"/>
    <path id="Path_237846" data-name="Path 237846" d="M30.1,46.243a2.45,2.45,0,1,1-2.447-2.454A2.45,2.45,0,0,1,30.1,46.243Z" transform="translate(10.711 22.431)" fill="#4cc66e"/>
    <path id="Path_237847" data-name="Path 237847" d="M29.093,47.686a2.454,2.454,0,0,1-3.466,0l3.466-3.464a2.447,2.447,0,0,1,0,3.464Z" transform="translate(10.998 22.72)" fill="#14a142"/>
    <path id="Path_237848" data-name="Path 237848" d="M34.639,46.243a2.45,2.45,0,1,1-2.447-2.454A2.45,2.45,0,0,1,34.639,46.243Z" transform="translate(13.74 22.431)" fill="#c175ff"/>
    <path id="Path_237849" data-name="Path 237849" d="M33.633,47.686a2.454,2.454,0,0,1-3.464,0l3.464-3.464a2.447,2.447,0,0,1,0,3.464Z" transform="translate(14.028 22.72)" fill="#b244f1"/>
    <path id="Path_237850" data-name="Path 237850" d="M60.495,46a1.855,1.855,0,0,1-1.85,1.85h-20.6a1.851,1.851,0,1,1,0-3.7H58.641A1.851,1.851,0,0,1,60.493,46Z" transform="translate(18.049 22.672)" fill="#079cff"/>
    <path id="Path_237851" data-name="Path 237851" d="M46.928,47.853H38.04a1.858,1.858,0,0,1-1.3-3.167,1.884,1.884,0,0,1,1.3-.54h8.887a1.917,1.917,0,0,0-1.314.54,1.855,1.855,0,0,0,1.314,3.167Z" transform="translate(18.051 22.67)" fill="#5cbeff"/>
    <path id="Path_237852" data-name="Path 237852" d="M83,28.95V43.156a4.418,4.418,0,0,1-4.418,4.418H17.422A4.418,4.418,0,0,1,13,43.156V28.95a4.418,4.418,0,0,1,4.418-4.418H78.583A4.417,4.417,0,0,1,83,28.95Z" transform="translate(2.579 9.587)" fill="#435e88"/>
    <path id="Path_237853" data-name="Path 237853" d="M81.227,28.956V43.15a4.414,4.414,0,0,1-4.412,4.424H15.658L76.815,24.53a4.414,4.414,0,0,1,4.412,4.424Z" transform="translate(4.349 9.586)" fill="#33527d"/>
    <path id="Path_237854" data-name="Path 237854" d="M25.864,33.158a4.274,4.274,0,1,1-4.268-4.28,4.274,4.274,0,0,1,4.268,4.28Z" transform="translate(5.455 12.486)" fill="#ffd80c"/>
    <path id="Path_237855" data-name="Path 237855" d="M24.111,35.679a4.281,4.281,0,0,1-6.044,0l6.044-6.046a4.269,4.269,0,0,1,0,6.044Z" transform="translate(5.956 12.99)" fill="#ffa300"/>
    <path id="Path_237856" data-name="Path 237856" d="M30.1,32.427a2.45,2.45,0,1,1-2.447-2.454A2.45,2.45,0,0,1,30.1,32.427Z" transform="translate(10.711 13.216)" fill="#4cc66e"/>
    <path id="Path_237857" data-name="Path 237857" d="M29.093,33.87a2.454,2.454,0,0,1-3.466,0l3.466-3.464a2.447,2.447,0,0,1,0,3.464Z" transform="translate(10.998 13.505)" fill="#14a142"/>
    <path id="Path_237858" data-name="Path 237858" d="M34.639,32.427a2.45,2.45,0,1,1-2.447-2.454,2.45,2.45,0,0,1,2.447,2.454Z" transform="translate(13.74 13.216)" fill="#c175ff"/>
    <path id="Path_237859" data-name="Path 237859" d="M33.633,33.87a2.454,2.454,0,0,1-3.464,0l3.464-3.464a2.447,2.447,0,0,1,0,3.464Z" transform="translate(14.028 13.505)" fill="#b244f1"/>
    <path id="Path_237860" data-name="Path 237860" d="M60.495,32.184a1.855,1.855,0,0,1-1.85,1.852h-20.6a1.852,1.852,0,1,1,0-3.7H58.641a1.852,1.852,0,0,1,1.852,1.852Z" transform="translate(18.048 13.456)" fill="#079cff"/>
    <path id="Path_237861" data-name="Path 237861" d="M46.928,34.036H38.04a1.857,1.857,0,0,1-1.3-3.166,1.884,1.884,0,0,1,1.3-.54h8.887a1.917,1.917,0,0,0-1.314.54,1.855,1.855,0,0,0,1.314,3.167Z" transform="translate(18.051 13.454)" fill="#5cbeff"/>
    <path id="Path_237862" data-name="Path 237862" d="M25.493,23.287c-2.757,2.756-6.306,3.681-7.923,2.079-1.6-1.617-.677-5.166,2.079-7.923s6.306-3.681,7.923-2.08C29.172,16.979,28.249,20.513,25.493,23.287Z" transform="translate(5.101 2.948)" fill="#fff" opacity="0.28"/>
  </g>
</svg>
