<svg xmlns="http://www.w3.org/2000/svg" xmlns:xlink="http://www.w3.org/1999/xlink" width="18" height="18" viewBox="0 0 18 18">
  <defs>
    <clipPath id="clip-path">
      <path id="Path_237532" data-name="Path 237532" d="M0-682.665H18v18H0Z" transform="translate(0 682.665)" fill="#fafdff"/>
    </clipPath>
  </defs>
  <g id="Group_165659" data-name="Group 165659" transform="translate(-530 -1760)">
    <g id="Rectangle_20140" data-name="Rectangle 20140" transform="translate(530 1760)" fill="#fff" stroke="#707070" stroke-width="1" opacity="0">
      <rect width="18" height="18" stroke="none"/>
      <rect x="0.5" y="0.5" width="17" height="17" fill="none"/>
    </g>
    <g id="Group_165695" data-name="Group 165695" transform="translate(530 1760)">
      <g id="Group_165694" data-name="Group 165694" clip-path="url(#clip-path)">
        <path id="Path_237529" data-name="Path 237529" d="M-567.3-116.836h-4.219a.527.527,0,0,1-.527-.527.527.527,0,0,1,.527-.527h4.219a.527.527,0,0,1,.527.527.527.527,0,0,1-.527.527m-8.508,0a.527.527,0,0,1-.527-.527.527.527,0,0,1,.527-.527.527.527,0,0,1,.527.527.527.527,0,0,1-.527.527m-2.109,0a.527.527,0,0,1-.527-.527.527.527,0,0,1,.527-.527.527.527,0,0,1,.527.527.527.527,0,0,1-.527.527m-2.109,0a.527.527,0,0,1-.527-.527.527.527,0,0,1,.527-.527.527.527,0,0,1,.527.527.527.527,0,0,1-.527.527M-566.247-120h-14.836a1.584,1.584,0,0,0-1.582,1.582v2.109a1.584,1.584,0,0,0,1.582,1.582h14.836a1.584,1.584,0,0,0,1.582-1.582v-2.109A1.584,1.584,0,0,0-566.247-120" transform="translate(582.665 120)" fill="#fafdff"/>
        <path id="Path_237530" data-name="Path 237530" d="M-567.3-116.836h-4.219a.527.527,0,0,1-.527-.527.527.527,0,0,1,.527-.527h4.219a.527.527,0,0,1,.527.527.527.527,0,0,1-.527.527m-8.508,0a.527.527,0,0,1-.527-.527.527.527,0,0,1,.527-.527.527.527,0,0,1,.527.527.527.527,0,0,1-.527.527m-2.109,0a.527.527,0,0,1-.527-.527.527.527,0,0,1,.527-.527.527.527,0,0,1,.527.527.527.527,0,0,1-.527.527m-2.109,0a.527.527,0,0,1-.527-.527.527.527,0,0,1,.527-.527.527.527,0,0,1,.527.527.527.527,0,0,1-.527.527M-566.247-120h-14.836a1.584,1.584,0,0,0-1.582,1.582v2.109a1.584,1.584,0,0,0,1.582,1.582h14.836a1.584,1.584,0,0,0,1.582-1.582v-2.109A1.584,1.584,0,0,0-566.247-120" transform="translate(582.665 126.363)" fill="#fafdff"/>
        <path id="Path_237531" data-name="Path 237531" d="M-567.3-116.836h-4.219a.527.527,0,0,1-.527-.527.527.527,0,0,1,.527-.527h4.219a.527.527,0,0,1,.527.527.527.527,0,0,1-.527.527m-8.508,0a.527.527,0,0,1-.527-.527.527.527,0,0,1,.527-.527.527.527,0,0,1,.527.527.527.527,0,0,1-.527.527m-2.109,0a.527.527,0,0,1-.527-.527.527.527,0,0,1,.527-.527.527.527,0,0,1,.527.527.527.527,0,0,1-.527.527m-2.109,0a.527.527,0,0,1-.527-.527.527.527,0,0,1,.527-.527.527.527,0,0,1,.527.527.527.527,0,0,1-.527.527M-566.247-120h-14.836a1.584,1.584,0,0,0-1.582,1.582v2.109a1.584,1.584,0,0,0,1.582,1.582h14.836a1.584,1.584,0,0,0,1.582-1.582v-2.109A1.584,1.584,0,0,0-566.247-120" transform="translate(582.665 132.726)" fill="#fafdff"/>
      </g>
    </g>
  </g>
</svg>
