<svg xmlns="http://www.w3.org/2000/svg" xmlns:xlink="http://www.w3.org/1999/xlink" width="83.765" height="80" viewBox="0 0 83.765 80">
  <defs>
    <linearGradient id="linear-gradient" x1="0.797" y1="-0.065" x2="0.185" y2="1.045" gradientUnits="objectBoundingBox">
      <stop offset="0" stop-color="#00bef1"/>
      <stop offset="0.42" stop-color="#3382c4"/>
      <stop offset="0.73" stop-color="#4168b1"/>
      <stop offset="1" stop-color="#4168b1"/>
    </linearGradient>
  </defs>
  <g id="Group_166200" data-name="Group 166200" transform="translate(-10 -21.057)">
    <path id="Path_237925" data-name="Path 237925" d="M33.088,29.172H14.4V75.614H33.088ZM79,93.2a3.931,3.931,0,1,1-3.931,3.931A3.931,3.931,0,0,1,79,93.2Zm-54.27,0A3.931,3.931,0,1,1,20.8,97.126,3.931,3.931,0,0,1,24.732,93.2Zm27.15,0a3.931,3.931,0,1,1-3.931,3.931A3.931,3.931,0,0,1,51.882,93.2ZM52.9,85.772V91.24a6.008,6.008,0,0,0-2.043,0V85.772ZM57.769,96.1H73.115a6.008,6.008,0,0,0,0,2.043H57.769A6.017,6.017,0,0,0,57.769,96.1ZM77.98,91.24V82.052h2.043V91.24a6.008,6.008,0,0,0-2.043,0ZM84.888,96.1h4.481a1.022,1.022,0,0,1,0,2.043H84.888A6.017,6.017,0,0,0,84.888,96.1ZM46,98.148H30.619a6.009,6.009,0,0,0,0-2.043H46A6.009,6.009,0,0,0,46,98.148Zm-27.15,0H14.4a1.022,1.022,0,1,1,0-2.043h4.45a6.009,6.009,0,0,0,0,2.043Zm4.9-6.913V82.052h2.043v9.192a6.017,6.017,0,0,0-2.043-.01Zm39.9-12.493v-52.7H40.119v52.7Zm-4.171-8.322a1.022,1.022,0,1,1,0,2.043H58.134a1.022,1.022,0,1,1,0-2.043Zm-14.2-36.052a1.022,1.022,0,0,1,0-2.043h9.32a1.022,1.022,0,1,1,0,2.043Zm14.2-2.043a1.022,1.022,0,0,1,0,2.043H58.134a1.022,1.022,0,0,1,0-2.043Zm0,9.524a1.022,1.022,0,0,1,0,2.043h-9.32a1.022,1.022,0,0,1,0-2.043Zm-14.2,2.043a1.022,1.022,0,0,1,0-2.043h1.341a1.022,1.022,0,1,1,0,2.043Zm0,9.524a1.022,1.022,0,0,1,0-2.043h9.32a1.022,1.022,0,1,1,0,2.043Zm14.2-2.043a1.022,1.022,0,1,1,0,2.043H58.134a1.022,1.022,0,1,1,0-2.043Zm0,9.524a1.022,1.022,0,1,1,0,2.043h-9.32a1.022,1.022,0,1,1,0-2.043Zm-14.2,2.043a1.022,1.022,0,1,1,0-2.043h1.341a1.022,1.022,0,1,1,0,2.043Zm0,9.524a1.022,1.022,0,0,1,0-2.043h9.32a1.022,1.022,0,1,1,0,2.043Zm44.1,3.152V29.172H70.677V75.614H89.369ZM73.584,72.462a1.022,1.022,0,0,1,0-2.043H74.8a1.022,1.022,0,1,1,0,2.043ZM86.462,35.874a1.022,1.022,0,1,1,0,2.043H78.011a1.022,1.022,0,1,1,0-2.043ZM73.584,37.917a1.022,1.022,0,1,1,0-2.043H74.8a1.022,1.022,0,1,1,0,2.043Zm0,8.636a1.022,1.022,0,1,1,0-2.043h8.451a1.022,1.022,0,0,1,0,2.043Zm12.878-2.043a1.022,1.022,0,1,1,0,2.043H85.245a1.022,1.022,0,0,1,0-2.043Zm0,8.636a1.022,1.022,0,0,1,0,2.043H78.011a1.022,1.022,0,1,1,0-2.043ZM73.584,55.19a1.022,1.022,0,1,1,0-2.043H74.8a1.022,1.022,0,1,1,0,2.043Zm0,8.636a1.022,1.022,0,1,1,0-2.043h8.451a1.022,1.022,0,0,1,0,2.043Zm12.878-2.043a1.022,1.022,0,1,1,0,2.043H85.245a1.022,1.022,0,1,1,0-2.043Zm0,8.636a1.022,1.022,0,0,1,0,2.043H78.011a1.022,1.022,0,1,1,0-2.043Zm5.2,9.59H70.677V77.657H91.412V27.129H70.677V24.777H91.659a2.112,2.112,0,0,1,2.106,2.106V77.9a2.112,2.112,0,0,1-2.106,2.105Zm-25.414,3.72H37.52a2.4,2.4,0,0,1-2.389-2.389V23.446a2.4,2.4,0,0,1,2.389-2.389H66.245a2.4,2.4,0,0,1,2.389,2.389V81.34a2.4,2.4,0,0,1-2.389,2.389Zm-.556-2.945H38.075V24H65.689V80.785Zm-32.6-.775H12.106A2.112,2.112,0,0,1,10,77.9V26.882a2.112,2.112,0,0,1,2.106-2.106H33.088v2.353H12.353V77.657H33.088v2.353Zm-2.907-9.59a1.022,1.022,0,1,1,0,2.043H28.964a1.022,1.022,0,1,1,0-2.043ZM17.3,37.918a1.022,1.022,0,1,1,0-2.043h8.451a1.022,1.022,0,0,1,0,2.043Zm12.878-2.043a1.022,1.022,0,0,1,0,2.043H28.964a1.022,1.022,0,1,1,0-2.043Zm0,8.636a1.022,1.022,0,0,1,0,2.043H21.729a1.022,1.022,0,1,1,0-2.043ZM17.3,46.554a1.022,1.022,0,0,1,0-2.043h1.216a1.022,1.022,0,1,1,0,2.043Zm0,8.636a1.022,1.022,0,0,1,0-2.043h8.451a1.022,1.022,0,1,1,0,2.043Zm12.878-2.043a1.022,1.022,0,0,1,0,2.043H28.964a1.022,1.022,0,1,1,0-2.043Zm0,8.636a1.022,1.022,0,0,1,0,2.043H21.729a1.022,1.022,0,1,1,0-2.043ZM17.3,63.826a1.022,1.022,0,0,1,0-2.043h1.216a1.022,1.022,0,1,1,0,2.043Zm0,8.636a1.022,1.022,0,1,1,0-2.043h8.451a1.022,1.022,0,1,1,0,2.043Z" transform="translate(0 0)" fill-rule="evenodd" fill="url(#linear-gradient)"/>
  </g>
</svg>
