<svg xmlns="http://www.w3.org/2000/svg" width="24" height="24.017" viewBox="0 0 24 24.017">
  <g id="Group_165703" data-name="Group 165703" transform="translate(-0.008)">
    <path id="Path_237544" data-name="Path 237544" d="M24.008,4.607a13.32,13.32,0,0,1-1.658,6.41.713.713,0,0,1-1.218-.741,12.077,12.077,0,0,0,1.45-5.67,2.929,2.929,0,0,0-2.851-3.181,2.853,2.853,0,0,0-2.851,2.851,22.544,22.544,0,0,0,.449,2.971.714.714,0,0,1-1.4.292,23.431,23.431,0,0,1-.48-3.263A4.282,4.282,0,0,1,19.733,0,4.353,4.353,0,0,1,24.008,4.607ZM19.853,5.728c.283,2.368.694,6.983.222,7.453L9.719,23.539a1.631,1.631,0,0,1-2.308,0L.487,16.614a1.632,1.632,0,0,1,0-2.308L10.844,3.95a15.433,15.433,0,0,1,3.97-.067c-.011.133-.04.258-.04.394A14.108,14.108,0,0,0,15.008,6.3a1.96,1.96,0,1,0,2.741-.511,11.946,11.946,0,0,1-.188-1.511c0-.063.013-.122.019-.184.248.026.492.053.724.082,1.369.168,1.383.165,1.55,1.554Zm-5.52,7.751a4.465,4.465,0,0,0-1.009-1.6l.786-.787-.875-.874-.848.849a2.317,2.317,0,0,0-3.1.08c-.866.866-.662,1.965-.026,3.243.437.885.517,1.394.177,1.733s-.911.2-1.421-.312a4.458,4.458,0,0,1-1.089-1.877l-1.314.779A5.119,5.119,0,0,0,6.757,16.6l-.857.858.874.875.921-.92a2.4,2.4,0,0,0,3.233-.053c.813-.815.885-1.725.188-3.172-.483-1.037-.6-1.546-.313-1.831.251-.251.7-.322,1.278.258a3.928,3.928,0,0,1,.974,1.6l1.278-.741Z" transform="translate(0)" fill="#fafdff"/>
  </g>
</svg>
