<svg id="Group_165698" data-name="Group 165698" xmlns="http://www.w3.org/2000/svg" xmlns:xlink="http://www.w3.org/1999/xlink" width="22" height="12.891" viewBox="0 0 22 12.891">
  <defs>
    <clipPath id="clip-path">
      <rect id="Rectangle_20152" data-name="Rectangle 20152" width="22" height="12.891" fill="#fafdff"/>
    </clipPath>
  </defs>
  <g id="Group_165697" data-name="Group 165697" clip-path="url(#clip-path)">
    <path id="Path_237535" data-name="Path 237535" d="M241.364,90h.56a.364.364,0,0,1,.364.364v1.85a.364.364,0,0,1-.364.364h-.56a.364.364,0,0,1-.364-.364v-1.85a.364.364,0,0,1,.364-.364m5.156,0h.56a.364.364,0,0,1,.364.364v1.85a.364.364,0,0,1-.364.364h-.56a.364.364,0,0,1-.364-.364v-1.85a.364.364,0,0,1,.364-.364" transform="translate(-230.645 -86.133)" fill="#fafdff"/>
    <path id="Path_237536" data-name="Path 237536" d="M0,3.867a.645.645,0,0,0,.645.645.655.655,0,0,1,.645.685.615.615,0,0,1-.645.6A.645.645,0,0,0,0,6.445V9.668a.645.645,0,0,0,.645.645H21.355A.645.645,0,0,0,22,9.668V6.445a.645.645,0,0,0-.645-.645h-.04a.6.6,0,0,1-.573-.434.637.637,0,0,1,.651-.856A.607.607,0,0,0,22,3.9V.645A.645.645,0,0,0,21.355,0H.645A.645.645,0,0,0,0,.645ZM14.9,2.578h2.511a.678.678,0,0,1,.678.678v3.8a.678.678,0,0,1-.678.678H14.9a.678.678,0,0,1-.678-.678v-3.8a.678.678,0,0,1,.678-.678m-5.156,0h2.511a.678.678,0,0,1,.678.678v3.8a.678.678,0,0,1-.678.678H9.745a.678.678,0,0,1-.678-.678v-3.8a.678.678,0,0,1,.678-.678m-5.156,0H7.1a.678.678,0,0,1,.678.678v3.8a.678.678,0,0,1-.678.678H4.588a.678.678,0,0,1-.678-.678v-3.8a.678.678,0,0,1,.678-.678" fill="#fafdff"/>
    <path id="Path_237537" data-name="Path 237537" d="M34.274,90h.56a.364.364,0,0,1,.364.364v1.85a.364.364,0,0,1-.364.364h-.56a.364.364,0,0,1-.364-.364v-1.85A.364.364,0,0,1,34.274,90M30.33,97.734h7.118a.33.33,0,0,1,.33.33v.63a.33.33,0,0,1-.33.33H30.33a.33.33,0,0,1-.33-.33v-.63a.33.33,0,0,1,.33-.33m9.066,0h9.7a.33.33,0,0,1,.33.33v.63a.33.33,0,0,1-.33.33H39.4a.33.33,0,0,1-.33-.33v-.63a.33.33,0,0,1,.33-.33" transform="translate(-28.711 -86.133)" fill="#fafdff"/>
  </g>
</svg>
