<svg xmlns="http://www.w3.org/2000/svg" width="109" height="70.895" viewBox="0 0 109 70.895">
  <g id="Group_163752" data-name="Group 163752" transform="translate(0 -89.496)">
    <path id="Path_234753" data-name="Path 234753" d="M196.419,96.586H159.643a3.545,3.545,0,0,1,0-7.089h36.776Z" transform="translate(-122.866 -0.001)" fill="#4f6a70"/>
    <path id="Path_234754" data-name="Path 234754" d="M125.976,171.513H70.147a3.545,3.545,0,0,1,0-7.089h55.829Z" transform="translate(-52.423 -58.977)" fill="#4f6a70"/>
    <path id="Path_234755" data-name="Path 234755" d="M3.545,121.4H18.167a3.545,3.545,0,1,1,0,7.089H3.636A3.6,3.6,0,0,1,0,124.972,3.541,3.541,0,0,1,3.545,121.4ZM17.724,89.5H22.6a3.545,3.545,0,0,1,0,7.089H17.814a3.6,3.6,0,0,1-3.635-3.516A3.54,3.54,0,0,1,17.724,89.5Zm55.829,31.9v7.089H32.346a3.545,3.545,0,1,1,0-7.089H73.553Z" transform="translate(0)" fill="#4f6a70"/>
    <path id="Path_234756" data-name="Path 234756" d="M98.126,321.366H54.7a3.545,3.545,0,0,1,0-7.089H98.126v7.089Zm-57.6,0h-5.76a3.545,3.545,0,0,1,0-7.089h5.76a3.545,3.545,0,0,1,0,7.089Z" transform="translate(-24.574 -176.927)" fill="#4f6a70"/>
    <path id="Path_234757" data-name="Path 234757" d="M125.976,396.293H70.147a3.545,3.545,0,0,1,0-7.089h55.829Z" transform="translate(-52.423 -235.903)" fill="#4f6a70"/>
    <circle id="Ellipse_208" data-name="Ellipse 208" cx="35.447" cy="35.447" r="35.447" transform="translate(38.106 89.496)" fill="#60b7ff"/>
    <path id="Path_234758" data-name="Path 234758" d="M263.119,123.922a35.446,35.446,0,0,1-49.7,49.7,35.446,35.446,0,1,0,49.7-49.7Z" transform="translate(-167.983 -27.097)" fill="#26a6fe"/>
    <circle id="Ellipse_209" data-name="Ellipse 209" cx="28.358" cy="28.358" r="28.358" transform="translate(45.195 96.585)" fill="#f2fbff"/>
    <path id="Path_234759" data-name="Path 234759" d="M278.464,149.295a28.344,28.344,0,0,1-39.673,39.673,28.349,28.349,0,1,0,39.673-39.673Z" transform="translate(-187.955 -47.068)" fill="#dff6fd"/>
    <circle id="Ellipse_210" data-name="Ellipse 210" cx="3.545" cy="3.545" r="3.545" transform="translate(0 153.301)" fill="#4f6a70"/>
    <circle id="Ellipse_211" data-name="Ellipse 211" cx="3.545" cy="3.545" r="3.545" transform="translate(0 105.447)" fill="#4f6a70"/>
    <circle id="Ellipse_212" data-name="Ellipse 212" cx="3.545" cy="3.545" r="3.545" transform="translate(0 89.496)" fill="#4f6a70"/>
    <circle id="Ellipse_213" data-name="Ellipse 213" cx="1.662" cy="1.662" r="1.662" transform="translate(71.891 101.681)" fill="#528fd8"/>
    <circle id="Ellipse_214" data-name="Ellipse 214" cx="1.662" cy="1.662" r="1.662" transform="translate(61.091 104.575)" fill="#528fd8"/>
    <circle id="Ellipse_215" data-name="Ellipse 215" cx="1.662" cy="1.662" r="1.662" transform="translate(53.185 112.481)" fill="#528fd8"/>
    <circle id="Ellipse_216" data-name="Ellipse 216" cx="1.662" cy="1.662" r="1.662" transform="translate(50.291 123.282)" fill="#528fd8"/>
    <circle id="Ellipse_217" data-name="Ellipse 217" cx="1.662" cy="1.662" r="1.662" transform="translate(53.185 134.082)" fill="#528fd8"/>
    <circle id="Ellipse_218" data-name="Ellipse 218" cx="1.662" cy="1.662" r="1.662" transform="translate(61.091 141.988)" fill="#528fd8"/>
    <circle id="Ellipse_219" data-name="Ellipse 219" cx="1.662" cy="1.662" r="1.662" transform="translate(71.891 144.882)" fill="#528fd8"/>
    <circle id="Ellipse_220" data-name="Ellipse 220" cx="1.662" cy="1.662" r="1.662" transform="translate(82.692 141.988)" fill="#528fd8"/>
    <circle id="Ellipse_221" data-name="Ellipse 221" cx="1.662" cy="1.662" r="1.662" transform="translate(90.598 134.082)" fill="#528fd8"/>
    <circle id="Ellipse_222" data-name="Ellipse 222" cx="1.662" cy="1.662" r="1.662" transform="translate(93.492 123.282)" fill="#528fd8"/>
    <circle id="Ellipse_223" data-name="Ellipse 223" cx="1.662" cy="1.662" r="1.662" transform="translate(90.598 112.481)" fill="#528fd8"/>
    <circle id="Ellipse_224" data-name="Ellipse 224" cx="1.662" cy="1.662" r="1.662" transform="translate(82.692 104.575)" fill="#528fd8"/>
    <path id="Path_234760" data-name="Path 234760" d="M347.426,202.188a1.592,1.592,0,0,1-1.129-.468l-7.833-7.833a1.6,1.6,0,0,1-.468-1.129V177.251a1.6,1.6,0,0,1,3.193,0V192.1l7.365,7.365a1.6,1.6,0,0,1-1.129,2.726Z" transform="translate(-266.041 -67.816)" fill="#fe7ab6"/>
    <circle id="Ellipse_225" data-name="Ellipse 225" cx="2.98" cy="2.98" r="2.98" transform="translate(70.572 121.963)" fill="#528fd8"/>
  </g>
</svg>
