<svg xmlns="http://www.w3.org/2000/svg" width="80.004" height="80" viewBox="0 0 80.004 80">
  <g id="Group_166214" data-name="Group 166214" transform="translate(0 -0.012)">
    <g id="Group_166212" data-name="Group 166212" transform="translate(0.004 56.073)">
      <path id="Path_237996" data-name="Path 237996" d="M66.947,384.018l-2.628,2.627H37.526v2.344H64.805a1.171,1.171,0,0,0,.847-.362l3.271-3.27a1.172,1.172,0,0,0,.367-.852V368.983H66.947Z" transform="translate(-31.667 -367.392)" fill="#56788b"/>
      <path id="Path_237997" data-name="Path 237997" d="M26.617,358.8h2.344v8H26.617Zm0,10.34a1.172,1.172,0,0,0-1.172-1.172H1.2a1.172,1.172,0,0,0,0,2.344H25.445a1.172,1.172,0,0,0,1.172-1.172ZM51.091,358.8h2.344v8H51.091Zm27.763,9.167H54.607a1.172,1.172,0,0,0,0,2.344H78.854a1.172,1.172,0,0,0,0-2.344Z" transform="translate(-0.026 -358.8)" fill="#56788b"/>
      <path id="Path_237998" data-name="Path 237998" d="M273.572,384.017V368.982h-2.344V384.5a1.171,1.171,0,0,0,.362.847l3.272,3.27a1.171,1.171,0,0,0,.852.367h27.279v-2.344H276.2Z" transform="translate(-228.853 -367.391)" fill="#56788b"/>
    </g>
    <path id="Path_237999" data-name="Path 237999" d="M5.885,467.029H1.2A1.172,1.172,0,0,0,.026,468.2v4.685A1.172,1.172,0,0,0,1.2,474.058H5.885a1.172,1.172,0,0,0,1.172-1.172V468.2a1.172,1.172,0,0,0-1.172-1.172Zm72.969,0H74.166a1.172,1.172,0,0,0-1.172,1.172v4.685a1.172,1.172,0,0,0,1.172,1.172h4.688a1.172,1.172,0,0,0,1.172-1.172V468.2A1.172,1.172,0,0,0,78.854,467.029Z" transform="translate(-0.022 -394.045)" fill="#ff4656"/>
    <g id="Group_166213" data-name="Group 166213" transform="translate(24.251 62.899)">
      <path id="Path_238000" data-name="Path 238000" d="M185.541,402.485h-4.688a1.172,1.172,0,0,0-1.172,1.172v4.685a1.172,1.172,0,0,0,1.172,1.172h4.688a1.172,1.172,0,0,0,1.172-1.172v-4.685A1.172,1.172,0,0,0,185.541,402.485Zm-24.474,0H156.38a1.172,1.172,0,0,0-1.172,1.172v4.685a1.172,1.172,0,0,0,1.172,1.172h4.688a1.172,1.172,0,0,0,1.172-1.172v-4.685A1.172,1.172,0,0,0,161.067,402.485Z" transform="translate(-155.208 -402.485)" fill="#00cec8"/>
    </g>
    <path id="Path_238001" data-name="Path 238001" d="M80,38.4A18.986,18.986,0,0,1,66.952,56.373l-.069.022a18.912,18.912,0,0,1-5.822.909H15.723a15.744,15.744,0,0,1-2.761-31.241c-.008-.231-.012-.463-.012-.692A25.445,25.445,0,0,1,29.6,1.592h0a25.415,25.415,0,0,1,33.488,17.9A18.969,18.969,0,0,1,80,38.4Z" transform="translate(0 -0.003)" fill="#99e7fa"/>
    <path id="Path_238002" data-name="Path 238002" d="M239.837,38.391a18.983,18.983,0,0,1-13.116,18,19.061,19.061,0,0,0,3.314-2.68,19.342,19.342,0,0,0-11.33-32.783,25.648,25.648,0,0,0-10.725-15.5,24.917,24.917,0,0,0-18.544-3.842,25.417,25.417,0,0,1,33.488,17.9,18.968,18.968,0,0,1,16.913,18.9Z" transform="translate(-159.838)" fill="#4dd4f7"/>
    <path id="Path_238003" data-name="Path 238003" d="M163.928,122.34v30.034H122.065V122.34c0-2.419,1.342-5.742,7.738-7.838a48.968,48.968,0,0,1,26.388,0C162.585,116.6,163.928,119.922,163.928,122.34Z" transform="translate(-102.992 -95.073)" fill="#4dd4f7"/>
    <path id="Path_238004" data-name="Path 238004" d="M177.653,287.077v10.7c0,4.283-8.958,6.523-17.806,6.523q-.783,0-1.562-.023c-8.311-.247-16.244-2.469-16.244-6.5v-10.7Z" transform="translate(-119.846 -242.211)" fill="#dae1ea"/>
    <path id="Path_238005" data-name="Path 238005" d="M265.369,287.077v10.7c0,4.283-8.958,6.523-17.806,6.523q-.783,0-1.562-.023c8.309-.247,16.244-2.469,16.244-6.5v-10.7Z" transform="translate(-207.563 -242.211)" fill="#b9cfdf"/>
    <ellipse id="Ellipse_460" data-name="Ellipse 460" cx="17.806" cy="6.524" rx="17.806" ry="6.524" transform="translate(22.193 38.343)" fill="#eef0f5"/>
    <circle id="Ellipse_461" data-name="Ellipse 461" cx="1.172" cy="1.172" r="1.172" transform="translate(38.823 55.497)" fill="#90abbd"/>
    <circle id="Ellipse_462" data-name="Ellipse 462" cx="1.172" cy="1.172" r="1.172" transform="translate(32.789 55.136)" fill="#ff4656"/>
    <circle id="Ellipse_463" data-name="Ellipse 463" cx="1.172" cy="1.172" r="1.172" transform="translate(44.794 55.136)" fill="#00cec8"/>
    <path id="Path_238006" data-name="Path 238006" d="M177.679,174.444v10.7c0,4.283-8.958,6.523-17.806,6.523q-.783,0-1.563-.023c-8.311-.247-16.244-2.469-16.244-6.5v-10.7Z" transform="translate(-119.868 -147.177)" fill="#dae1ea"/>
    <path id="Path_238007" data-name="Path 238007" d="M265.395,174.444v10.7c0,4.283-8.958,6.523-17.806,6.523q-.783,0-1.562-.023c8.309-.247,16.244-2.469,16.244-6.5v-10.7Z" transform="translate(-207.585 -147.177)" fill="#b9cfdf"/>
    <ellipse id="Ellipse_464" data-name="Ellipse 464" cx="17.806" cy="6.524" rx="17.806" ry="6.524" transform="translate(22.197 20.744)" fill="#eef0f5"/>
    <circle id="Ellipse_465" data-name="Ellipse 465" cx="1.172" cy="1.172" r="1.172" transform="translate(38.828 37.898)" fill="#90abbd"/>
    <circle id="Ellipse_466" data-name="Ellipse 466" cx="1.172" cy="1.172" r="1.172" transform="translate(32.793 37.537)" fill="#ff4656"/>
    <circle id="Ellipse_467" data-name="Ellipse 467" cx="1.172" cy="1.172" r="1.172" transform="translate(44.798 37.537)" fill="#00cec8"/>
  </g>
</svg>
