<svg xmlns="http://www.w3.org/2000/svg" width="220.984" height="212.543"><linearGradient id="a" gradientUnits="userSpaceOnUse" x1="125.941" y1="134.958" x2="94.905" y2="78.966"><stop offset="0" stop-color="#1955a6"/><stop offset="1" stop-color="#00aeef"/></linearGradient><path fill-rule="evenodd" clip-rule="evenodd" fill="url(#a)" d="M64.179 80.261h29.01v132.283c-50.88-8.244-89.731-52.37-89.731-105.578C3.458 47.89 51.348 0 110.424 0s106.967 47.89 106.967 106.966c0 53.095-38.687 97.146-89.408 105.523v-19.122h-.025v-87.253h-27.792V80.261h84.021v25.853h-27.63v75.551c25-15.472 41.657-43.139 41.657-74.699 0-48.485-39.306-87.791-87.791-87.791s-87.791 39.306-87.791 87.791c0 31.514 16.608 59.143 41.546 74.628V80.261h.001zm14.505-43.935c-9.883 0-17.895 8.012-17.895 17.895s8.012 17.895 17.895 17.895 17.895-8.012 17.895-17.895c-.001-9.883-8.013-17.895-17.895-17.895z"/><linearGradient id="b" gradientUnits="userSpaceOnUse" x1="-90.339" y1="139.3" x2="-91.782" y2="56.634"><stop offset="0"/><stop offset="1" stop-color="#414042"/></linearGradient><path fill="url(#b)" d="M-181.833 132.654v-52.74h10.548v21.096h24.576V79.89h10.548v52.728l-10.548.036v-21.792h-24.576v21.792h-10.548zm73.295 0c-7.5 0-13.764-2.52-18.804-7.571-5.04-5.053-7.56-11.316-7.56-18.792 0-7.5 2.52-13.776 7.56-18.816s11.304-7.56 18.804-7.56c7.5 0 13.764 2.52 18.804 7.56s7.56 11.316 7.56 18.816c0 7.5-2.52 13.764-7.56 18.804s-11.303 7.559-18.804 7.559zm.037-9.84c4.668 0 8.46-1.584 11.388-4.752 2.928-3.156 4.392-7.092 4.392-11.772 0-4.692-1.464-8.616-4.392-11.784-2.928-3.156-6.744-4.74-11.46-4.74-4.668 0-8.46 1.584-11.388 4.74-2.928 3.168-4.392 7.092-4.392 11.784 0 4.68 1.464 8.616 4.392 11.772 2.927 3.168 6.744 4.752 11.46 4.752zm43.858-42.9c-4.224 0-8.328 1.416-12.324 4.236-3.996 2.832-5.988 6.576-5.988 11.244 0 5.148 1.752 8.784 5.268 10.896s7.38 3.396 11.604 3.864c4.692.468 7.608 1.704 8.772 3.696s1.164 3.983 0 5.976-4.08 2.988-8.772 2.988c-5.628-.468-9.612-2.112-11.952-4.92l-7.032 7.02c2.34 2.353 5.16 4.225 8.436 5.628 3.276 1.404 7.368 2.112 12.264 2.112 5.16 0 9.684-1.523 13.56-4.572 3.876-3.048 5.82-6.684 5.82-10.896 0-5.388-1.824-9.312-5.448-11.784-3.636-2.46-7.68-3.924-12.132-4.392-4.224-.696-6.912-1.752-8.088-3.156-1.176-1.416-1.176-3.108 0-5.1 1.176-1.992 3.864-2.988 8.088-2.988 4.212 0 7.5 1.404 9.84 4.212l7.032-7.032c-2.34-2.34-4.86-4.092-7.56-5.268-2.687-1.176-6.492-1.764-11.388-1.764zm18.947 0H0v9.852h-17.58v42.888h-10.536V89.766h-17.58v-9.852z"/><linearGradient id="c" gradientUnits="userSpaceOnUse" x1="338.257" y1="114.665" x2="337.969" y2="98.174"><stop offset="0"/><stop offset="1" stop-color="#414042"/></linearGradient><path fill="url(#c)" d="M241.409 79.89c4.896 0 8.699.588 11.388 1.764 2.7 1.176 5.22 2.928 7.56 5.268l-7.031 7.032c-2.34-2.808-5.629-4.212-9.841-4.212-4.224 0-6.912.996-8.088 2.988-1.176 1.992-1.176 3.684 0 5.1 1.176 1.404 3.864 2.46 8.088 3.156 4.452.468 8.496 1.932 12.133 4.392 3.624 2.472 5.447 6.396 5.447 11.784 0 4.212-1.943 7.849-5.819 10.896s-8.4 4.572-13.561 4.572c-4.896 0-8.987-.709-12.264-2.112-3.276-1.404-6.097-3.276-8.437-5.628l7.032-7.021c2.34 2.809 6.324 4.452 11.952 4.92 4.692 0 7.608-.996 8.771-2.987 1.165-1.992 1.165-3.984 0-5.977-1.163-1.992-4.079-3.228-8.771-3.696-4.224-.468-8.088-1.752-11.604-3.864s-5.268-5.748-5.268-10.896c0-4.668 1.992-8.412 5.988-11.244 3.997-2.819 8.101-4.235 12.325-4.235zm21.611 52.74V79.89h3.517l22.859 26.016L312.28 79.89h3.517v52.74h-10.548l-.036-30.588-15.816 17.58-15.828-17.58v30.588H263.02zm53.039 0l21.096-52.74h10.549l21.06 52.704-11.22.036-3.168-8.089h-23.904l-3.168 8.089h-11.245zm26.652-38.676l-8.016 20.04h15.815l-7.799-20.04zm36.994 7.032h14.772c4.236-.072 6.42-2.004 6.54-5.796-.12-3.468-2.268-5.28-6.432-5.412h-14.881v11.208h.001zm21.204 8.652l13.152 22.993h-12.096l-12.624-21.792h-9.637v21.792h-10.548V79.89h22.992c12.313 0 18.456 5.064 18.456 15.192.001 7.62-3.226 12.468-9.695 14.556zm8.495-29.748v9.852h17.58v42.888h10.536V89.742h17.58V79.89h-45.696z"/></svg>