<svg version="1" xmlns="http://www.w3.org/2000/svg" xmlns:xlink="http://www.w3.org/1999/xlink" width="399.868" height="400"><defs><path id="a" d="M0 0h399.868v400H0z"/></defs><clipPath id="b"><use xlink:href="#a" overflow="visible"/></clipPath><path clip-path="url(#b)" fill="#F05F50" d="M122.073 205.104h33.186c6.123 0 11.127-4.938 11.127-11.127 0-6.19-4.938-11.128-11.127-11.128h-33.186c-6.123 0-11.127 4.938-11.127 11.128 0 6.187 5.07 11.127 11.127 11.127m33.252 65.25h-33.186c-6.123 0-11.127 4.937-11.127 11.127 0 6.124 4.938 11.128 11.127 11.128h33.186c6.123 0 11.127-4.938 11.127-11.128 0-6.191-5.07-11.127-11.127-11.127"/><path clip-path="url(#b)" fill="#FFF" d="M44.378 193.186c0-15.473 8.428-29.893 22.058-37.53l4.544-2.568v-2.897c0-6.123 4.937-11.127 11.127-11.127h5.597l-5.268-20.675c-1.317-5.135-1.975-9.943-1.975-14.749 0-32.659 26.535-59.193 59.193-59.193 21.07 0 40.164 10.929 51.029 29.301 9.81 16.658 31.604 21.465 47.54 10.534 7.176-4.938 15.604-7.572 24.297-7.572 23.506 0 42.666 18.898 43.062 42.338 0 .658-.066 1.186-.066 1.778l-.396 18.172h12.576c6.123 0 11.127 4.938 11.127 11.127v3.358c16 6.585 26.601 22.255 26.601 39.573 0 17.778-10.93 33.185-26.601 39.769v23.374c28.182-7.309 48.791-33.054 48.791-63.144 0-27.128-17.186-51.687-42.667-61.169-4.478-1.646-8.033-6.453-7.177-11.984 0-36.215-29.301-65.515-65.252-65.515-13.234 0-25.744 4.412-36.938 11.523-8.363 5.268-14.354-.856-15.803-3.556-14.619-24.823-41.481-40.23-70.124-40.23-44.839 0-81.382 36.543-81.382 81.382 0 6.519.855 13.301 2.567 20.149 1.251 4.872-.921 10.008-5.333 12.444-20.675 11.72-33.383 33.515-33.383 57.021 0 30.089 20.675 55.77 48.79 63.144V232.89c-15.538-6.454-26.534-21.927-26.534-39.704"/><path clip-path="url(#b)" fill="#2AA0DA" d="M44.378 193.186c0 17.778 10.93 33.186 26.601 39.77v-79.869l-4.544 2.568c-13.563 7.637-22.057 21.991-22.057 37.531m311.045 0c0-17.317-10.601-32.988-26.601-39.572v79.342c15.606-6.52 26.601-21.993 26.601-39.77m-49.843-74.141c-.395-23.375-19.489-42.337-43.063-42.337-8.757 0-17.186 2.567-24.297 7.571-15.934 10.93-37.728 6.057-47.539-10.534-10.865-18.503-30.157-29.499-51.556-29.301-32.263.329-58.6 26.93-58.6 59.193 0 4.741.658 9.481 1.975 14.683l5.267 20.675h217.351l.395-18.173c.001-.592.001-1.118.067-1.777"/><path clip-path="url(#b)" fill="#183651" d="M369.053 377.68H211.029v-41.351h106.666c6.123 0 11.127-4.938 11.127-11.127v-46.224c40.56-7.768 71.046-43.588 71.046-85.858 0-33.779-19.819-64.593-49.976-78.947-2.896-45.63-40.955-81.909-87.309-81.909-13.959 0-27.522 3.292-39.835 9.612C203.324 15.802 172.444 0 139.719 0 82.567 0 36.082 46.485 36.082 103.572c0 5.795.526 11.72 1.581 17.646C14.222 137.547 0 164.412 0 193.186c0 42.271 30.485 78.09 71.045 85.86v46.222c0 6.124 4.938 11.129 11.128 11.129h106.666v41.349H30.814c-6.123 0-11.127 4.938-11.127 11.128a11.072 11.072 0 0 0 11.127 11.127h338.305c6.123 0 11.128-4.937 11.128-11.127-.066-6.256-5.07-11.194-11.194-11.194M22.189 193.186c0-23.507 12.84-45.366 33.383-56.89 4.411-2.436 6.519-7.571 5.333-12.444-1.712-6.848-2.568-13.63-2.568-20.148 0-44.84 36.544-81.383 81.383-81.383 28.642 0 55.507 15.407 70.124 40.23 1.58 2.7 7.571 8.824 15.803 3.556 11.193-7.111 23.703-11.523 36.938-11.523 35.951 0 65.252 29.301 65.252 65.45-.855 5.53 2.765 10.337 7.176 11.984 25.481 9.415 42.667 33.975 42.667 61.169 0 30.09-20.675 55.77-48.79 63.143V150.191c0-6.124-4.938-11.128-11.127-11.128H82.172c-6.124 0-11.128 4.938-11.128 11.128V256.33c-28.181-7.309-48.855-33.055-48.855-63.144m71.045-31.935h213.334v65.316H93.234v-65.316zm0 87.572h213.334v65.315H93.234v-65.315z"/></svg>