<svg xmlns="http://www.w3.org/2000/svg" width="74.286" height="80" viewBox="0 0 74.286 80">
  <g id="Group_163759" data-name="Group 163759" transform="translate(-8 -4)">
    <path id="Path_234733" data-name="Path 234733" d="M59.429,82.286H13.714A5.714,5.714,0,0,1,8,76.571V13.714A5.714,5.714,0,0,1,13.714,8H59.429a5.714,5.714,0,0,1,5.714,5.714V76.571A5.714,5.714,0,0,1,59.429,82.286Z" transform="translate(0 1.714)" fill="#0a5078"/>
    <circle id="Ellipse_201" data-name="Ellipse 201" cx="20" cy="20" r="20" transform="translate(40.857 44)" fill="#00325a"/>
    <path id="Path_234734" data-name="Path 234734" d="M58.571,79.571H12.857A2.857,2.857,0,0,1,10,76.714V13.857A2.857,2.857,0,0,1,12.857,11H58.571a2.857,2.857,0,0,1,2.857,2.857V76.714A2.857,2.857,0,0,1,58.571,79.571Z" transform="translate(0.857 3)" fill="#00325a"/>
    <path id="Path_234735" data-name="Path 234735" d="M58.571,78.571H12.857A2.857,2.857,0,0,1,10,75.714V12.857A2.857,2.857,0,0,1,12.857,10H58.571a2.857,2.857,0,0,1,2.857,2.857V75.714A2.857,2.857,0,0,1,58.571,78.571Z" transform="translate(0.857 2.571)" fill="#f0f0f0"/>
    <path id="Path_234736" data-name="Path 234736" d="M58.286,37.143A20,20,0,0,0,47.979,74.286h8.879a2.857,2.857,0,0,0,2.857-2.857V37.193C59.243,37.16,58.766,37.143,58.286,37.143ZM41.143,22.857H15.429a1.429,1.429,0,1,1,0-2.857H41.143a1.429,1.429,0,1,1,0,2.857Z" transform="translate(2.571 6.857)" fill="#d2d2d2"/>
    <circle id="Ellipse_202" data-name="Ellipse 202" cx="4.286" cy="4.286" r="4.286" transform="translate(48 24)" fill="#d2d2d2"/>
    <path id="Path_234737" data-name="Path 234737" d="M41.143,30.857H15.429a1.429,1.429,0,1,1,0-2.857H41.143a1.429,1.429,0,1,1,0,2.857Z" transform="translate(2.571 10.286)" fill="#d2d2d2"/>
    <circle id="Ellipse_203" data-name="Ellipse 203" cx="4.286" cy="4.286" r="4.286" transform="translate(48 35.429)" fill="#d2d2d2"/>
    <path id="Path_234738" data-name="Path 234738" d="M41.143,52.143H15.429a1.429,1.429,0,1,1,0-2.857H41.143a1.429,1.429,0,1,1,0,2.857Zm0,11.429H15.429a1.429,1.429,0,1,1,0-2.857H41.143a1.429,1.429,0,1,1,0,2.857Zm0,11.429H15.429a1.429,1.429,0,0,1,0-2.857H41.143a1.429,1.429,0,0,1,0,2.857Zm1.429-64.286V9.286A4.286,4.286,0,0,0,38.286,5H29.714a4.286,4.286,0,0,0-4.286,4.286v1.429H22.571a2.857,2.857,0,0,0-2.857,2.857v2.857a2.857,2.857,0,0,0,2.857,2.857H45.429a2.857,2.857,0,0,0,2.857-2.857V13.571a2.857,2.857,0,0,0-2.857-2.857Z" transform="translate(2.571 0.429)" fill="#d2d2d2"/>
    <path id="Path_234739" data-name="Path 234739" d="M40.857,9.714V8.286A4.286,4.286,0,0,0,36.571,4H28a4.286,4.286,0,0,0-4.286,4.286V9.714H20.857A2.857,2.857,0,0,0,18,12.571v2.857a2.857,2.857,0,0,0,2.857,2.857H43.714a2.857,2.857,0,0,0,2.857-2.857V12.571a2.857,2.857,0,0,0-2.857-2.857Z" transform="translate(4.286)" fill="#c80a50"/>
    <circle id="Ellipse_204" data-name="Ellipse 204" cx="1.429" cy="1.429" r="1.429" transform="translate(25.143 12.571)" fill="#a00028"/>
    <circle id="Ellipse_205" data-name="Ellipse 205" cx="1.429" cy="1.429" r="1.429" transform="translate(45.143 12.571)" fill="#a00028"/>
    <circle id="Ellipse_206" data-name="Ellipse 206" cx="20" cy="20" r="20" transform="translate(42.286 44)" fill="#00a0c8"/>
    <circle id="Ellipse_207" data-name="Ellipse 207" cx="14.286" cy="14.286" r="14.286" transform="translate(48 49.714)" fill="#c80a50"/>
    <path id="Path_234740" data-name="Path 234740" d="M45.714,55.286a2.846,2.846,0,0,1-2.02-.837l-2.857-2.857a2.857,2.857,0,1,1,4.04-4.04l.837.836,6.551-6.55a2.857,2.857,0,1,1,4.04,4.04l-8.572,8.571a2.846,2.846,0,0,1-2.02.837Z" transform="translate(13.714 15.857)" fill="#fab400"/>
  </g>
</svg>
