<svg id="Group_163754" data-name="Group 163754" xmlns="http://www.w3.org/2000/svg" width="80" height="80" viewBox="0 0 80 80">
  <path id="Path_234675" data-name="Path 234675" d="M38.282,22a38.307,38.307,0,0,0-36.3,50.47L21.661,94.772A38.285,38.285,0,1,0,38.282,22Z" transform="translate(0 -18.559)" fill="#1d2e79"/>
  <path id="Path_234676" data-name="Path 234676" d="M222.372,326.437l-5.046-5.046,3.047-7.679a1.8,1.8,0,0,0-.4-1.933l-12.8-12.818-3.488-1.632-1.668,1.554,14.578,14.6-3.047,7.679a1.8,1.8,0,0,0,.4,1.933l5.881,5.881a1.8,1.8,0,1,0,2.541-2.541Z" transform="translate(-170.454 -250.871)" fill="#27a6ff"/>
  <circle id="Ellipse_191" data-name="Ellipse 191" cx="3.164" cy="3.164" r="3.164" transform="translate(47.484 73.672)" fill="#58d4fa"/>
  <path id="Path_234677" data-name="Path 234677" d="M339.553,231.044l-5.881-5.881a1.8,1.8,0,0,0-1.933-.4l-7.679,3.047-12.482-12.5-1.715,1.652.823,2.54,11.669,11.687a1.8,1.8,0,0,0,1.933.4l7.679-3.047,5.046,5.046a1.8,1.8,0,1,0,2.541-2.541Z" transform="translate(-261.446 -181.666)" fill="#ffc242"/>
  <path id="Path_234678" data-name="Path 234678" d="M299.429,297.944l-20.756-20.776-2.088.177-.668,2.149,20.971,20.991a1.8,1.8,0,0,0,2.541-2.541Z" transform="translate(-232.805 -233.86)" fill="#02c0fc"/>
  <circle id="Ellipse_192" data-name="Ellipse 192" cx="3.164" cy="3.164" r="3.164" transform="translate(62.383 62.383)" fill="#64f9ea"/>
  <circle id="Ellipse_193" data-name="Ellipse 193" cx="3.164" cy="3.164" r="3.164" transform="translate(73.672 47.484)" fill="#fef156"/>
  <circle id="Ellipse_194" data-name="Ellipse 194" cx="15.795" cy="15.795" r="15.795" transform="translate(18.74 16.985)" fill="#3f57a0"/>
  <circle id="Ellipse_195" data-name="Ellipse 195" cx="6.633" cy="6.633" r="6.633" transform="translate(27.902 26.148)" fill="#02c0fc"/>
  <path id="Path_234679" data-name="Path 234679" d="M300.416,38.545a3.009,3.009,0,0,0,.219,4.443,3.048,3.048,0,0,0,4.075-.247l.435-.435a3.009,3.009,0,0,0,.219,4.443,3.048,3.048,0,0,0,4.075-.247l1.37-1.37a2.874,2.874,0,0,0,0,4.052l.193.193a2.874,2.874,0,0,0,4.052,0l9.55-9.55c4.043-4.043,3.548-7.434,5.034-8.92l.839-.837a7.689,7.689,0,0,0,.005-10.885l-1.141-1.14c-3.428-1.592-8.5-1.864-11.587.753l-13.6,11.527Z" transform="translate(-252.737 -14.206)" fill="#ffc7ab"/>
  <path id="Path_234680" data-name="Path 234680" d="M19.592,306.9l-2.474-3-3.49.735a9.686,9.686,0,0,0-1.192,5.688,38.052,38.052,0,0,0,2.125,5.076l4.907-2.49.7-3.825a5.073,5.073,0,0,0-.572-2.182Z" transform="translate(-10.453 -256.415)" fill="#58d4fa"/>
  <path id="Path_234681" data-name="Path 234681" d="M86.9,210.772a3.326,3.326,0,0,0-4.7,0l-2.285,2.285a3.326,3.326,0,0,0,4.7,4.7l2.285-2.285a3.326,3.326,0,0,0,0-4.7Zm.167,27.176a3.261,3.261,0,0,0-4.03-.645,3.26,3.26,0,0,0-3.974-5.07l.274-.274a3.4,3.4,0,0,0,.191-4.566,3.261,3.261,0,0,0-3.75-.8l-4.96,1.072-6.952,8.782,1.119,9.237q1.223,1.232,2.553,2.351H69.72v1.7a38.256,38.256,0,0,0,5.83,3.488,12.872,12.872,0,0,0,2.677-2.053l4.022-4.022-.207-1.416,2.148-.525,2.7-2.7A3.331,3.331,0,0,0,87.07,237.948Z" transform="translate(-53.889 -177.017)" fill="#e8f8fc"/>
  <path id="Path_234682" data-name="Path 234682" d="M44.466,250.714a2.663,2.663,0,0,0-3.742.421L37.1,255.672l1.622,2.605,2.728.481,3.432-4.3A2.663,2.663,0,0,0,44.466,250.714Z" transform="translate(-31.307 -211.05)" fill="#ade9f7"/>
  <circle id="Ellipse_196" data-name="Ellipse 196" cx="3.715" cy="3.715" r="3.715" transform="translate(2.949 44.295)" fill="#27a6ff"/>
  <path id="Path_234683" data-name="Path 234683" d="M262.355,2.252a7.689,7.689,0,0,0-10.865-.009,3.186,3.186,0,0,1-1.89.912l-8.844,1.312A8.135,8.135,0,0,0,234,10.633l1.6,1.64.024,2.97L222.9,27.959a3.009,3.009,0,0,0,.219,4.443,3.048,3.048,0,0,0,4.075-.248l7.817-7.817L253.068,6.286C256,3.351,260.834,2.4,264.328,4.224Z" transform="translate(-187.337 0)" fill="#ffaa7b"/>
  <path id="Path_234684" data-name="Path 234684" d="M297.715,62.623l2.519-.67a1.727,1.727,0,0,1,1.665,2.89l-2.62,2.62c-.469-.61-2-1.359-1.783-3.612a7.8,7.8,0,0,1,.219-1.228Z" transform="translate(-250.995 -52.219)" fill="#f7965b"/>
  <path id="Path_234685" data-name="Path 234685" d="M45.964,266.618a3.326,3.326,0,0,0-4.808-.109l-13.48,13.48a12.87,12.87,0,0,0-2.129,2.807,38.335,38.335,0,0,0,5.243,7.9l2.814-.812v-5.43l4.721-5.709,5.122-5.122,2.339-2.339a3.459,3.459,0,0,0,.178-4.669Z" transform="translate(-21.555 -224.045)" fill="#ade9f7"/>
  <circle id="Ellipse_197" data-name="Ellipse 197" cx="3.138" cy="3.138" r="3.138" transform="translate(21.877 38.616)" fill="#02c0fc"/>
  <path id="Path_234686" data-name="Path 234686" d="M95.786,395.827l-8.77,8.77q1.112.94,2.293,1.793l7.5-7.5,4.92,4.92,2.043-2.043-5.942-5.942A1.445,1.445,0,0,0,95.786,395.827Z" transform="translate(-73.42 -333.622)" fill="#3feadd"/>
  <path id="Path_234687" data-name="Path 234687" d="M64.592,348.53l-4.427,4.427a1.445,1.445,0,0,0-.406,1.247l.7,4.45L58.8,360.312q.94,1.1,1.961,2.126l2.261-2.261a1.445,1.445,0,0,0,.405-1.247l-.7-4.45,3.907-3.907a1.445,1.445,0,0,0-2.043-2.043Z" transform="translate(-49.616 -293.715)" fill="#02c0fc"/>
</svg>
