<svg xmlns="http://www.w3.org/2000/svg" xmlns:xlink="http://www.w3.org/1999/xlink" width="50.404" height="50.405" viewBox="0 0 50.404 50.405">
  <defs>
    <clipPath id="clip-path">
      <rect id="Rectangle_18135" data-name="Rectangle 18135" width="50" height="50" fill="none" stroke="#707070" stroke-width="1.5"/>
    </clipPath>
  </defs>
  <g id="Group_19132" data-name="Group 19132" transform="translate(-1215.841 -6605.842)">
    <g id="Group_19111" data-name="Group 19111" transform="translate(1216 6606)" opacity="0">
      <g id="Group_19110" data-name="Group 19110">
        <g id="Group_19109" data-name="Group 19109" clip-path="url(#clip-path)">
          <rect id="Rectangle_18134" data-name="Rectangle 18134" width="50" height="50" fill="#eaeaea" stroke="#707070" stroke-width="1.5"/>
        </g>
      </g>
    </g>
    <path id="Path_73365" data-name="Path 73365" d="M96.921,56.077a24.423,24.423,0,0,1-1.9,6.392" transform="translate(1168.488 6577.962)" fill="none" stroke="#146ecd" stroke-linecap="round" stroke-linejoin="round" stroke-width="1.5"/>
    <path id="Path_73366" data-name="Path 73366" d="M84.261,79.381a24.466,24.466,0,0,1-4.678,4.678" transform="translate(1176.208 6566.31)" fill="none" stroke="#000" stroke-linecap="round" stroke-linejoin="round" stroke-width="1.5"/>
    <path id="Path_73367" data-name="Path 73367" d="M62.57,94.821a25.347,25.347,0,0,1-6.493,2" transform="translate(1187.961 6558.589)" fill="none" stroke="#146ecd" stroke-linecap="round" stroke-linejoin="round" stroke-width="1.5"/>
    <path id="Path_73368" data-name="Path 73368" d="M22.552,50A24.51,24.51,0,0,1,25.591,1.182,24.554,24.554,0,0,1,44.2,9.831" transform="translate(1215.409 6605.409)" fill="none" stroke="#000" stroke-linecap="round" stroke-linejoin="round" stroke-width="1.5"/>
    <path id="Path_73369" data-name="Path 73369" d="M95.024,31.139a24.422,24.422,0,0,1,1.9,6.392" transform="translate(1168.488 6590.43)" fill="none" stroke="#000" stroke-linecap="round" stroke-linejoin="round" stroke-width="1.5"/>
    <path id="Path_73370" data-name="Path 73370" d="M79.023,14.437h4.225V10.068" transform="translate(1176.488 6600.966)" fill="none" stroke="#146ecd" stroke-linecap="round" stroke-linejoin="round" stroke-width="1.5"/>
    <path id="Path_73371" data-name="Path 73371" d="M23.578,40.635a3.666,3.666,0,0,0-2.966-3.615A4.5,4.5,0,0,0,15.543,39.4a1.08,1.08,0,1,0,1.927.977l.005-.01a2.32,2.32,0,0,1,2.64-1.247,1.567,1.567,0,0,1,1.3,1.512c0,1.126-1.3,2-2.679,2.916-1.552,1.035-3.309,2.209-3.309,4.153a1.08,1.08,0,0,0,1.08,1.081H22.5a1.08,1.08,0,0,0,0-2.16H18.217a13.612,13.612,0,0,1,1.721-1.276C21.644,44.209,23.578,42.917,23.578,40.635Zm10.217,3.557a1.08,1.08,0,0,0-1.081-1.08h-.877V37.373a1.081,1.081,0,0,0-1.924-.676l-5.469,6.82a1.081,1.081,0,0,0,.843,1.756h4.389v3.039a1.081,1.081,0,0,0,2.161.02V45.273h.877a1.08,1.08,0,0,0,1.081-1.08m-4.119-1.08H27.538l2.137-2.666Zm9.649-7.406a1.078,1.078,0,0,0-1.27.844v0L35.622,48.707a1.08,1.08,0,1,0,2.118.424l2.43-12.154a1.08,1.08,0,0,0-.846-1.272h0m5.544,13.078a1.082,1.082,0,0,0,1-.665L49.916,38.4a1.081,1.081,0,0,0-1-1.5H43.45a1.081,1.081,0,0,0,0,2.161H47.3l-3.428,8.228a1.082,1.082,0,0,0,1,1.5Z" transform="translate(1208.287 6588.157)" fill="#146ecd" stroke="rgba(0,0,0,0)" stroke-width="1.5"/>
    <rect id="Rectangle_18137" data-name="Rectangle 18137" width="50" height="50" transform="translate(1216 6606)" fill="none"/>
  </g>
</svg>
