<svg xmlns="http://www.w3.org/2000/svg" width="123" height="80" viewBox="0 0 123 80">
  <g id="Group_163752" data-name="Group 163752" transform="translate(0 -89.496)">
    <path id="Path_234753" data-name="Path 234753" d="M201.6,97.5H160.1a4,4,0,1,1,0-8h41.5Z" transform="translate(-118.598 -0.001)" fill="#4f6a70"/>
    <path id="Path_234754" data-name="Path 234754" d="M133.6,172.424h-63a4,4,0,0,1,0-8h63Z" transform="translate(-50.602 -56.928)" fill="#4f6a70"/>
    <path id="Path_234755" data-name="Path 234755" d="M4,125.5H20.5a4,4,0,1,1,0,8H4.1A4.067,4.067,0,0,1,0,129.528,4,4,0,0,1,4,125.5Zm16-36h5.5a4,4,0,1,1,0,8H20.1A4.067,4.067,0,0,1,16,93.528,3.995,3.995,0,0,1,20,89.5Zm63,36v8H36.5a4,4,0,1,1,0-8H83Z" transform="translate(0)" fill="#4f6a70"/>
    <path id="Path_234756" data-name="Path 234756" d="M106.72,322.277h-49a4,4,0,0,1,0-8h49v8Zm-65,0h-6.5a4,4,0,0,1,0-8h6.5a4,4,0,0,1,0,8Z" transform="translate(-23.72 -170.781)" fill="#4f6a70"/>
    <path id="Path_234757" data-name="Path 234757" d="M133.6,397.2h-63a4,4,0,0,1,0-8h63Z" transform="translate(-50.602 -227.708)" fill="#4f6a70"/>
    <circle id="Ellipse_208" data-name="Ellipse 208" cx="40" cy="40" r="40" transform="translate(43 89.496)" fill="#60b7ff"/>
    <path id="Path_234758" data-name="Path 234758" d="M269.5,123.922a40,40,0,0,1-56.084,56.084A40,40,0,1,0,269.5,123.922Z" transform="translate(-162.148 -26.156)" fill="#26a6fe"/>
    <circle id="Ellipse_209" data-name="Ellipse 209" cx="32" cy="32" r="32" transform="translate(51 97.496)" fill="#f2fbff"/>
    <path id="Path_234759" data-name="Path 234759" d="M283.559,149.295a31.985,31.985,0,0,1-44.768,44.768,31.99,31.99,0,1,0,44.768-44.768Z" transform="translate(-181.425 -45.433)" fill="#dff6fd"/>
    <circle id="Ellipse_210" data-name="Ellipse 210" cx="4" cy="4" r="4" transform="translate(0 161.496)" fill="#4f6a70"/>
    <circle id="Ellipse_211" data-name="Ellipse 211" cx="4" cy="4" r="4" transform="translate(0 107.496)" fill="#4f6a70"/>
    <circle id="Ellipse_212" data-name="Ellipse 212" cx="4" cy="4" r="4" transform="translate(0 89.496)" fill="#4f6a70"/>
    <circle id="Ellipse_213" data-name="Ellipse 213" cx="1.875" cy="1.875" r="1.875" transform="translate(81.125 103.246)" fill="#528fd8"/>
    <circle id="Ellipse_214" data-name="Ellipse 214" cx="1.875" cy="1.875" r="1.875" transform="translate(68.937 106.512)" fill="#528fd8"/>
    <circle id="Ellipse_215" data-name="Ellipse 215" cx="1.875" cy="1.875" r="1.875" transform="translate(60.016 115.433)" fill="#528fd8"/>
    <circle id="Ellipse_216" data-name="Ellipse 216" cx="1.875" cy="1.875" r="1.875" transform="translate(56.75 127.621)" fill="#528fd8"/>
    <circle id="Ellipse_217" data-name="Ellipse 217" cx="1.875" cy="1.875" r="1.875" transform="translate(60.016 139.809)" fill="#528fd8"/>
    <circle id="Ellipse_218" data-name="Ellipse 218" cx="1.875" cy="1.875" r="1.875" transform="translate(68.937 148.73)" fill="#528fd8"/>
    <circle id="Ellipse_219" data-name="Ellipse 219" cx="1.875" cy="1.875" r="1.875" transform="translate(81.125 151.996)" fill="#528fd8"/>
    <circle id="Ellipse_220" data-name="Ellipse 220" cx="1.875" cy="1.875" r="1.875" transform="translate(93.313 148.73)" fill="#528fd8"/>
    <circle id="Ellipse_221" data-name="Ellipse 221" cx="1.875" cy="1.875" r="1.875" transform="translate(102.234 139.809)" fill="#528fd8"/>
    <circle id="Ellipse_222" data-name="Ellipse 222" cx="1.875" cy="1.875" r="1.875" transform="translate(105.5 127.621)" fill="#528fd8"/>
    <circle id="Ellipse_223" data-name="Ellipse 223" cx="1.875" cy="1.875" r="1.875" transform="translate(102.234 115.433)" fill="#528fd8"/>
    <circle id="Ellipse_224" data-name="Ellipse 224" cx="1.875" cy="1.875" r="1.875" transform="translate(93.313 106.512)" fill="#528fd8"/>
    <path id="Path_234760" data-name="Path 234760" d="M348.637,205.6a1.8,1.8,0,0,1-1.274-.528l-8.839-8.839a1.8,1.8,0,0,1-.528-1.274v-17.5a1.8,1.8,0,0,1,3.6,0v16.754l8.311,8.311a1.8,1.8,0,0,1-1.274,3.076Z" transform="translate(-256.798 -65.46)" fill="#fe7ab6"/>
    <circle id="Ellipse_225" data-name="Ellipse 225" cx="3.363" cy="3.363" r="3.363" transform="translate(79.637 126.133)" fill="#528fd8"/>
  </g>
</svg>
