<svg xmlns="http://www.w3.org/2000/svg" width="89.168" height="80" viewBox="0 0 89.168 80">
  <g id="Group_163766" data-name="Group 163766" transform="translate(-476.416 -5649)">
    <g id="Group_163765" data-name="Group 163765" transform="translate(462.779 5652.517)">
      <g id="Group_163764" data-name="Group 163764" transform="translate(19.221 -3.517)">
        <g id="Group_163762" data-name="Group 163762" transform="translate(2.835 9.517)">
          <path id="Path_234761" data-name="Path 234761" d="M57.638,105.922,68.16,91.439M36.923,100.8l5.184-15.954m9.383-4.127,13.233,4.3M47.856,58.694H62.972m8.306,7.574V82.343m13.6,23.526L74.366,91.4m32.157,5.313L94.1,105.742m-3.73-24.8-12.711,4.13M91.047,55.91,96,71.142m-22.35,52.9-13.573-9.861" transform="translate(-36.923 -55.91)" fill="rgba(0,0,0,0)" stroke="#c7e0ec" stroke-linejoin="round" stroke-width="2"/>
        </g>
        <path id="Path_234762" data-name="Path 234762" d="M62.692,109.8a2.352,2.352,0,1,0,.52,3.285A2.352,2.352,0,0,0,62.692,109.8ZM93.378,82.058a2.352,2.352,0,1,0,3.285.52A2.352,2.352,0,0,0,93.378,82.058ZM76.474,44.3a2.352,2.352,0,1,0,1.51-2.964A2.352,2.352,0,0,0,76.474,44.3ZM35.341,48.709a2.352,2.352,0,1,0-2.352-2.352A2.352,2.352,0,0,0,35.341,48.709ZM26.824,89.191A2.352,2.352,0,1,0,23.86,90.7,2.352,2.352,0,0,0,26.824,89.191Z" transform="translate(-21.752 -34.056)" fill="#c7e0ec" fill-rule="evenodd"/>
        <g id="Group_163763" data-name="Group 163763" transform="translate(0 0)">
          <ellipse id="Ellipse_226" data-name="Ellipse 226" cx="9.175" cy="9.175" rx="9.175" ry="9.175" transform="translate(24.879 8.208) rotate(-26.57)" fill="#636c77"/>
          <path id="Path_234763" data-name="Path 234763" d="M231.931,35.924a3.124,3.124,0,1,0,3.124-3.123A3.123,3.123,0,0,0,231.931,35.924Z" transform="translate(-197.864 -26.985)" fill="#efc7a4" fill-rule="evenodd"/>
          <path id="Path_234764" data-name="Path 234764" d="M223.836,87.954a9.174,9.174,0,0,1-13.005,0,6.76,6.76,0,0,1,13.005,0Z" transform="translate(-180.144 -69.18)" fill="#fdcd56" fill-rule="evenodd"/>
          <circle id="Ellipse_227" data-name="Ellipse 227" cx="9.175" cy="9.175" r="9.175" transform="translate(54.578 23.326) rotate(-3.15)" fill="#636c77"/>
          <path id="Path_234765" data-name="Path 234765" d="M400.9,158.69a3.124,3.124,0,1,0,3.124-3.123A3.123,3.123,0,0,0,400.9,158.69Z" transform="translate(-339.775 -130.089)" fill="#efc7a4" fill-rule="evenodd"/>
          <path id="Path_234766" data-name="Path 234766" d="M392.809,210.72a9.175,9.175,0,0,1-13.005,0,6.76,6.76,0,0,1,13.005,0Z" transform="translate(-322.055 -172.284)" fill="#c7e0ec" fill-rule="evenodd"/>
          <ellipse id="Ellipse_228" data-name="Ellipse 228" cx="9.175" cy="9.175" rx="9.175" ry="9.175" transform="translate(0 23.847) rotate(-6.28)" fill="#636c77"/>
          <path id="Path_234767" data-name="Path 234767" d="M62.957,158.69a3.124,3.124,0,1,0,3.124-3.123A3.123,3.123,0,0,0,62.957,158.69Z" transform="translate(-55.952 -130.089)" fill="#efc7a4" fill-rule="evenodd"/>
          <path id="Path_234768" data-name="Path 234768" d="M54.862,210.72a9.174,9.174,0,0,1-13.005,0,6.76,6.76,0,0,1,13.005,0Z" transform="translate(-38.232 -172.284)" fill="#c6ea94" fill-rule="evenodd"/>
          <circle id="Ellipse_229" data-name="Ellipse 229" cx="9.175" cy="9.175" r="9.175" transform="translate(9.43 56.944) rotate(-13.34)" fill="#636c77"/>
          <path id="Path_234769" data-name="Path 234769" d="M127.5,357.331a3.124,3.124,0,1,0,3.124-3.123A3.123,3.123,0,0,0,127.5,357.331Z" transform="translate(-110.158 -296.917)" fill="#efc7a4" fill-rule="evenodd"/>
          <path id="Path_234770" data-name="Path 234770" d="M119.4,409.361a9.174,9.174,0,0,1-13.005,0,6.76,6.76,0,0,1,13.005,0Z" transform="translate(-92.437 -339.112)" fill="#66d4f1" fill-rule="evenodd"/>
          <circle id="Ellipse_230" data-name="Ellipse 230" cx="9.175" cy="9.175" r="9.175" transform="translate(44.74 54.601)" fill="#636c77"/>
          <path id="Path_234771" data-name="Path 234771" d="M336.363,357.33a3.123,3.123,0,1,0,3.124-3.123A3.123,3.123,0,0,0,336.363,357.33Z" transform="translate(-285.571 -296.916)" fill="#efc7a4" fill-rule="evenodd"/>
          <path id="Path_234772" data-name="Path 234772" d="M328.267,409.36a9.174,9.174,0,0,1-13.005,0,6.76,6.76,0,0,1,13.005,0Z" transform="translate(-267.85 -339.111)" fill="#b3a4ee" fill-rule="evenodd"/>
          <circle id="Ellipse_231" data-name="Ellipse 231" cx="11.157" cy="11.157" r="11.157" transform="translate(23.959 32.146) rotate(-12.04)" fill="#636c77"/>
          <path id="Path_234773" data-name="Path 234773" d="M227.719,205.523a3.8,3.8,0,1,0,3.8-3.8A3.8,3.8,0,0,0,227.719,205.523Z" transform="translate(-194.327 -168.855)" fill="#efc7a4" fill-rule="evenodd"/>
          <path id="Path_234774" data-name="Path 234774" d="M217.875,268.791a11.156,11.156,0,0,1-15.814,0,8.221,8.221,0,0,1,15.814,0Z" transform="translate(-172.778 -220.164)" fill="#f76c82" fill-rule="evenodd"/>
        </g>
      </g>
    </g>
    <g id="Rectangle_18712" data-name="Rectangle 18712" transform="translate(480.714 5660.778) rotate(30)" fill="#595959" stroke="#fff" stroke-width="2">
      <rect width="98" height="8.596" rx="4" stroke="none"/>
      <rect x="1" y="1" width="96" height="6.596" rx="3" fill="none"/>
    </g>
  </g>
</svg>
