<svg xmlns="http://www.w3.org/2000/svg" width="20" height="20" viewBox="0 0 20 20">
  <g id="Group_20339" data-name="Group 20339" transform="translate(-1.25 -1.25)">
    <path id="Path_75240" data-name="Path 75240" d="M21.25,2.878A1.629,1.629,0,0,0,19.622,1.25H2.878A1.629,1.629,0,0,0,1.25,2.878V5.669A1.629,1.629,0,0,0,2.878,7.3H19.622A1.629,1.629,0,0,0,21.25,5.669ZM5.2,3.343a.93.93,0,1,1-.93.93A.93.93,0,0,1,5.2,3.343Zm3.256,0a.93.93,0,1,1-.93.93A.93.93,0,0,1,8.459,3.343Zm9.767.233H15.436a.7.7,0,1,0,0,1.4h2.791a.7.7,0,0,0,0-1.4ZM21.25,9.855a1.629,1.629,0,0,0-1.628-1.628H2.878A1.629,1.629,0,0,0,1.25,9.855v2.791a1.629,1.629,0,0,0,1.628,1.628H19.622a1.629,1.629,0,0,0,1.628-1.628ZM5.2,10.32a.93.93,0,1,1-.93.93A.93.93,0,0,1,5.2,10.32Zm3.256,0a.93.93,0,1,1-.93.93A.93.93,0,0,1,8.459,10.32Zm9.767.233H15.436a.7.7,0,1,0,0,1.4h2.791a.7.7,0,0,0,0-1.4Zm3.023,6.279A1.629,1.629,0,0,0,19.622,15.2H2.878A1.629,1.629,0,0,0,1.25,16.831v2.791A1.629,1.629,0,0,0,2.878,21.25H19.622a1.629,1.629,0,0,0,1.628-1.628ZM5.2,17.3a.93.93,0,1,1-.93.93A.93.93,0,0,1,5.2,17.3Zm3.256,0a.93.93,0,1,1-.93.93A.93.93,0,0,1,8.459,17.3Zm9.767.233H15.436a.7.7,0,1,0,0,1.4h2.791a.7.7,0,0,0,0-1.4Z" fill="#595959" fill-rule="evenodd"/>
  </g>
</svg>
