<svg xmlns="http://www.w3.org/2000/svg" width="20" height="20" viewBox="0 0 20 20">
  <g id="Group_20334" data-name="Group 20334" transform="translate(-1.25 -1.244)">
    <circle id="Ellipse_91" data-name="Ellipse 91" cx="5.116" cy="5.116" r="5.116" transform="translate(5.669 1.244)" fill="#595959"/>
    <path id="Path_75236" data-name="Path 75236" d="M17.259,13.938a3.314,3.314,0,1,0,3.314,3.313A3.315,3.315,0,0,0,17.259,13.938Zm0,1.4a1.919,1.919,0,1,1-1.919,1.918A1.92,1.92,0,0,1,17.259,15.333Z" transform="translate(-0.892 -0.891)" fill="#595959" fill-rule="evenodd"/>
    <path id="Path_75237" data-name="Path 75237" d="M17.831,14.517V12.948a.7.7,0,0,0-1.4,0v1.57a.7.7,0,1,0,1.4,0Zm1.646,1.26,1.11-1.111a.7.7,0,0,0-.986-.986L18.49,14.79a.7.7,0,0,0,.987.987Zm.273,2.054h1.57a.7.7,0,1,0,0-1.4H19.75a.7.7,0,0,0,0,1.4Zm-1.26,1.646,1.111,1.11a.7.7,0,1,0,.986-.986l-1.11-1.111a.7.7,0,0,0-.987.987Zm-2.054.273v1.57a.7.7,0,1,0,1.4,0V19.75a.7.7,0,0,0-1.4,0ZM14.79,18.49,13.681,19.6a.7.7,0,0,0,.986.986l1.111-1.11a.7.7,0,0,0-.987-.987Zm-.273-2.054H12.948a.7.7,0,0,0,0,1.4h1.569a.7.7,0,1,0,0-1.4Zm1.26-1.646-1.111-1.11a.7.7,0,0,0-.986.986l1.11,1.111a.7.7,0,0,0,.987-.987Z" transform="translate(-0.767 -0.773)" fill="#595959" fill-rule="evenodd"/>
    <path id="Path_75238" data-name="Path 75238" d="M12.121,21.153A1.629,1.629,0,0,1,12.256,19l.18-.181H12.18a1.628,1.628,0,1,1,0-3.256h.256l-.18-.181a1.628,1.628,0,0,1-.073-2.224q-.7-.054-1.4-.054A13.843,13.843,0,0,0,3.26,15.037a3.982,3.982,0,0,0-2.01,3.185v1.349a1.579,1.579,0,0,0,1.581,1.581Z" transform="translate(0 -0.833)" fill="#595959" fill-rule="evenodd"/>
  </g>
</svg>
