<svg xmlns="http://www.w3.org/2000/svg" width="22.312" height="20" viewBox="0 0 22.312 20">
  <g id="Group_20341" data-name="Group 20341" transform="translate(-1.246 -1.721)">
    <path id="Path_75241" data-name="Path 75241" d="M2.858,5.33l4.357,2.9,4.343-6.079a1.037,1.037,0,0,1,1.689,0l4.343,6.079,4.357-2.9a1.037,1.037,0,0,1,1.6.986L21.847,20.8a1.037,1.037,0,0,1-1.03.916H3.988a1.037,1.037,0,0,1-1.03-.916l-1.7-14.49a1.037,1.037,0,0,1,1.6-.984ZM12.4,15.5a2.075,2.075,0,1,0-2.075-2.075A2.075,2.075,0,0,0,12.4,15.5Z" transform="translate(0)" fill="#115baa"/>
  </g>
</svg>
